<svg height="50" viewBox="0 0 50 50" width="50" xmlns="http://www.w3.org/2000/svg" xmlns:xlink="http://www.w3.org/1999/xlink"><linearGradient id="a"><stop offset="0" stop-color="#b02488"/><stop offset="1" stop-color="#ed1e79"/></linearGradient><linearGradient id="b" x1="37.33283%" x2="64.188542%" xlink:href="#a" y1="100%" y2="0%"/><linearGradient id="c" x1="-9.937733%" x2="117.136468%" xlink:href="#a" y1="98.159802%" y2="1.840198%"/><linearGradient id="d" x1="-6.05989%" x2="107.472571%" xlink:href="#a" y1="113.482306%" y2="-2.790802%"/><g fill="none" transform="translate(0 1)"><g fill="#c12284" transform="translate(14.768725 14.442409)"><path d="m.00682094 3.81264389c-.00990099-1.95294164 1.60396039-3.73175738 3.49834983-3.80345628 3.95709571-.01707117 7.91749173-.00512135 11.87623763-.00512135 1.9323432-.00512135 3.6468647 1.7856442 3.630363 3.784678.0049505 4.10049461.0031244 8.20269634 0 12.30319094.0066007 1.5312838-.9653465 2.9976972-2.3481848 3.5422674-.8217822.3704444-1.7310231.2287537-2.5990099.2526533-.8762376-.0170712-1.7557756.0324352-2.630363-.0187783-.519802-.0802345-.5709571-.9116004-.1006601-1.1079188.4620462-.1160839.9455446-.0495064 1.4174918-.0631633.0148514-.394344-.0511552-.8006378.0561056-1.183032.1534653-.4694571.8580858-.4882354 1.0528053-.0460921.0693069.4045867.0330033.8194161.0396039 1.227417.8531353-.0409708 1.7805281.1638832 2.5643564-.291917.8811882-.4575073 1.429043-1.4715347 1.4026403-2.4855621-.0016502-1.3400867.0165017-2.6818805-.0148515-4.0219672-1.2887789.0204854-2.5792079.0034142-3.8696369.0102427-.0214522.8501441.0462046 1.7054097-.0280528 2.5538467-.2211222.4694572-.9768977.4592145-1.0841585-.0921843-.0858085-.9576925-.0181518-1.9256278-.0379538-2.8867345-.0528052-.3670301.1930694-.788688.5874588-.7579599 1.4785478-.0187783 2.9587459-.0068285 4.4372937-.0017071.0231023-2.24997999.0066007-4.50166708.0082508-6.75164706.0264027-1.06011955-.5940594-2.10146081-1.5346534-2.53165425-.7260726-.35678742-1.5528053-.2236323-2.330033-.24582482-.019802.36190876.0231023.89452921-.4323433.97647082-.5792079.1724188-.7937293-.51042793-.7574257-.97647082-1.7277228.00170711-3.45544554 0-5.18316832 0 .00165017 1.43909948 0 2.87819896.00165017 4.31729845.83168317.01877828 1.66666666-.03755657 2.49834985.02560675.5891089.01536405.7178218.97476371.1567657 1.14376827-1.16831687.05462774-2.33828387-.01194982-3.5066007.02902099-.40264026-.34142337-.28547855-.89794345-.29867987-1.37252193.00660066-1.38105751 0-2.76211502.00330033-4.14317253-.98514851.01365693-1.97194719-.02731387-2.95544554.01707117-1.26732674.09559854-2.33828383 1.27180203-2.36468647 2.58628199-.02640264 1.92050642-.00330033 3.84271997-.00825083 5.76493351.38118812.02389964.79042905-.06657755 1.15346535.08194161.40594059.20143979.39108911.88087225-.02805281 1.05499815-.3630363.1092555-.75412541.0375566-1.1270627.0563349.00825082 1.7805229-.01815182 3.5610457.00990099 5.3415685.01320132 1.3093587 1.06765676 2.4889764 2.32838284 2.5948176.91419142.0256068 1.82673267-.0051213 2.74092409.0085356.02640264-.9781779-.05115512-1.9614772.03795379-2.9362409.21122113-.46775.87788779-.4626287 1.07920793.0119498.08085808.9713495.00990099 1.9495274.03465346 2.922584.44884489.0426779.9719472-.1229124 1.3679868.1536405.41749175.2697245.21287129 1.0567053-.29042904 1.0328057-1.64686469.0085356-3.29537954.0034142-4.94224423.0017071-1.90429043-.0358495-3.52475247-1.8385648-3.51155115-3.7949207-.00825083-4.091959-.00990099-8.18562518 0-12.27758421z"/><path d="m13.1223325 2.82593037c.330033-.23046077.869637.03755657.8531353.45921442.0132013.68626097.0330033 1.37593617-.0181518 2.06049001-.1666667.36703012-.6369637.48823541-.9356436.21509672-.3052805-.39946533-.1551155-.94744984-.1947194-1.41690696.0396039-.43360768-.1254126-1.03963415.2953795-1.31789419z"/><path d="m13.1107813 6.35283373c.2821783-.20997537.8052806-.04779927.8547855.3448376.0363036.44555749.039604.89794345-.0016502 1.34520806-.090759.4165365-.6567656.55310585-.9356435.25094617-.2590759-.22192519-.1782178-.60431936-.2046205-.90818615.009901-.35678742-.0511551-.80575914.2871287-1.03280568z"/><path d="m5.20814107 10.5779479c-.34323432-.2782601-.1650165-.96964239.28382838-.99695626.48679868-.03926368.97854786-.0409708 1.46369637 0 .52310231.1519334.43234324.78356666.42904291 1.21717426-.05775578.8484371.05775577 1.7037026-.0379538 2.5504326-.15346535.5343275-1.00495049.4916496-1.08910891-.0631633-.07755776-.8381944.03465346-1.6832172-.03135314-2.5231187-.33333333-.0477993-.75247524.0921843-1.01815181-.1843686z"/></g><path d="m8.90260874 2.92002245c.55115512-.25265329 1.25907596.16900457 1.28712876.79893068.080858.43019344-.21782183.77844527-.52145219 1.01914874-1.58745875 1.30935861-3.17161716 2.62213144-4.75907591 3.93149005-1.61551155 1.34691518-2.70297029 3.34765608-2.97689769 5.47643078-.16666666 1.0771907-.02145214 2.1646241.02970297 3.243522.11551155 2.2226661.25247525 4.4436251.3729373 6.664584.07260726.7869809-.92574258 1.2820448-1.49339934.788688-.31023103-.2082682-.37788779-.6009051-.38448845-.9542783-.13036304-2.3950849-.2640264-4.7901698-.4059406-7.1852547-.06270627-1.0686551-.10066006-2.1526743.08910892-3.2110868.41914191-2.5982318 1.84323432-4.99331666 3.87293729-6.57752108 1.64026403-1.31789419 3.21287129-2.73309403 4.88943894-3.99465337z" fill="url(#b)"/><path d="m44.9603645 29.6159154c.9356436-.7494243 2.3019802-.8381944 3.339934-.262896 1.1815182.643583 1.8547855 2.1321889 1.549505 3.4808112-.219472 1.2240027-1.2029703 2.1799882-2.3514852 2.4736123-.1617162 2.075854-.320132 4.1517081-.4818482 6.2292692-.1716171 2.1799882-1.2656765 4.2677921-2.9488449 5.5942219-1.3630363 1.1130402-3.1072607 1.6849243-4.8366336 1.6712674-2.8663367-.0102427-5.7326733.0051213-8.5973598-.0068285-.6518151.029021-1.1188118-.7579599-.8135313-1.3469152.1584158-.3960511.5907591-.5650557.980198-.5309133 2.4273928.0051213 4.8547855.0034142 7.2821782.0034142.9372938-.0102427 1.8960396.0699918 2.8069307-.2116825 2.2986799-.6248047 4.1122112-2.8099143 4.3135314-5.2664554.1749175-2.0929252.3250825-4.1875575.490099-6.2821899-.8432343-.3926369-1.5792079-1.1198686-1.8217822-2.0639042-.3927393-1.2444882.0709571-2.7074873 1.0891089-3.4808112m1.39934 1.3110657c-.9471948.3414233-1.1138614 1.8368577-.229373 2.3575283.7623763.5821269 1.9587459-.0648704 1.9752475-1.0293914.0990099-.9184289-.920792-1.7122382-1.7458745-1.3281369z" fill="url(#c)"/><path d="m26.9141599.94830252c4.6171617 3.98270355 9.2277228 7.97052845 13.8415842 11.95664628 1.0775577.9030648 1.6320132 2.3797208 1.4834983 3.8017491-.5412541 7.1374555-1.0940594 14.2749109-1.6518152 21.4123664-.1666666 2.0724398-1.980198 3.8410128-3.9950495 3.8529626-1.3811881-.0051213-2.7607261.0017372-4.1419142-.0051213-.7673267.0187783-1.4471947-.7443029-1.3943894-1.5329909-.0544555-.8057592.640264-1.5415265 1.4108911-1.5585977 1.3184818-.0529206 2.6419142 0 3.9620462-.0204854.4983498.0341424.9521452-.3602016 1.110561-.8313659.0990099-.438729.0973598-.8945292.1386139-1.3400867.5148515-6.7123833 1.0346535-13.4230596 1.549505-20.1354429.070957-.46775-.0610562-.9559855-.4372938-1.2479024-4.5181518-3.9212474-9.0561056-7.82030221-13.5759076-11.73984244-.280528-.24582482-.6089109-.49335676-.9966996-.43019344-.5016502.00341424-.8432344.42336497-1.2046205.7204033-4.4042904 3.81028475-8.8118812 7.61544818-13.22112211 11.41719728-.38283829.2936241-.53465347.7972236-.46369637 1.2735092.27722772 3.5456816.54125412 7.0930704.82508248 10.6370449.9587459.3823942 1.8217822 1.0584125 2.3481848 1.9819627.8861387 1.4971414.8366337 3.5337318-.1369637 4.9728313-.3993399.6196834-.9669967 1.0942619-1.570957 1.4868987.0742574.7255247.10066 1.4578778.1815181 2.1851096.0627063.5889553.5973597 1.1045046 1.1831683 1.053291 4.5181518-.0034142 9.0346535 0 13.5528053-.0034142.5660066-.0204854 1.1864686.1775402 1.5016502.6982108.4488449.6555329.2871287 1.6320037-.3267327 2.1168249-.4224423.3772728-1.0082508.2936241-1.5231023.3004525-4.4521452-.0085356-8.9042904-.0068284-13.3564357-.0068284-1.650165.0119498-3.21122108-1.1625466-3.78052801-2.7535795-.35808581-1.0020776-.28877888-2.0929252-.40429043-3.1393878-1.14521452-.2799672-2.21947195-.9679353-2.85148515-2.0126908-.95874588-1.4732418-.95379538-3.5234891-.02145215-5.0069736.50330033-.84673 1.30528053-1.4595849 2.18646865-1.8317364-.27392739-3.5644599-.55775578-7.1289198-.82178218-10.6950869-.10726072-1.3708148.48184819-2.7604079 1.50660066-3.6293303 4.59075911-3.95880396 9.17161721-7.92955769 13.76072611-11.89006873 1.4669967-1.3196013 3.839934-1.3400867 5.3333333-.05633485zm-18.95709571 28.16572048c-.94554456.3038668-1.65511551 1.2308312-1.71947195 2.2533942-.1270627 1.416907 1.09240924 2.746751 2.46369637 2.7126087 1.36468649.0256067 2.56765679-1.3025302 2.43894389-2.7126087-.0643564-1.5654261-1.74092409-2.7860146-3.18316831-2.2533942z" fill="url(#d)"/></g></svg>