<svg height="366" viewBox="0 0 1447 366" width="1447" xmlns="http://www.w3.org/2000/svg" xmlns:xlink="http://www.w3.org/1999/xlink"><linearGradient id="a"><stop offset="0" stop-color="#b02488"/><stop offset="1" stop-color="#ed1e79"/></linearGradient><linearGradient id="b" x1="37.33283%" x2="64.188542%" xlink:href="#a" y1="100%" y2="0%"/><linearGradient id="c" x1="-9.937733%" x2="117.136468%" xlink:href="#a" y1="98.159802%" y2="1.840198%"/><linearGradient id="d" x1="-6.05989%" x2="107.472571%" xlink:href="#a" y1="113.482306%" y2="-2.790802%"/><g fill="none"><g fill="#c12284" transform="translate(103.077675 100.691455)"><path d="m.04747372 26.5360015c-.06891089-13.5924739 11.16356438-25.97303136 24.34851488-26.47205575 27.5413861-.11881533 55.1057425-.0356446 82.6586134-.0356446 13.449109-.0356446 25.382179 12.42808365 25.267327 26.34135885.034456 28.5394425.021746 57.0907666 0 85.630209.045941 10.657735-6.718812 20.863972-16.343366 24.654181-5.719604 2.578293-12.047921 1.592126-18.0891091 1.758467-6.0986138-.118815-12.220198.225749-18.3073267-.130697-3.6178218-.558432-3.9738614-6.344738-.7005941-7.711115 3.2158416-.807944 6.5809901-.344564 9.8657426-.439616.1033663-2.744635-.3560396-5.572439.3904951-8.233903 1.0681188-3.267421 5.9722772-3.398118 7.3275247-.320801.4823762 2.815923.229703 5.703136.2756436 8.542822 5.9378219-.285157 12.3924749 1.140627 17.8479209-2.031742 6.133069-3.184251 9.946138-10.241882 9.762376-17.299512-.011485-9.327004.114852-18.6658888-.103366-27.9928923-8.969901.1425784-17.951287.0237631-26.9326735.0712892-.1493069 5.9170035.3215842 11.8696516-.1952475 17.7747731-1.5390099 3.267422-6.799208 3.196133-7.5457426-.6416023-.5972277-6.6655401-.1263366-13.4023694-.2641584-20.0916725-.3675248-2.5545296 1.3437624-5.4892683 4.0887129-5.2754007 10.2906931-.1306969 20.5928711-.0475261 30.8835641-.0118815.160792-15.6598607.045941-31.3316028.057426-46.9914635.183762-7.378432-4.134654-14.6261672-10.681188-17.6203135-5.053466-2.48324046-10.807525-1.55648088-16.2170299-1.71094081-.1378218 2.51888501.1607921 6.22592331-3.0091089 6.79623691-4.0312871 1.2000349-5.5243564-3.5525784-5.2716832-6.79623691-12.0249504.01188153-24.0499009 0-36.0748514 0 .0114851 10.01613241 0 20.03226481.0114851 30.04839721 5.7885149.1306969 11.6-.2613937 17.3885149.178223 4.100198.1069338 4.9960396 6.7843554 1.0910891 7.9606272-8.1314852.380209-16.2744555-.0831708-24.4059406.201986-2.8023763-2.3763066-1.9869307-6.2496864-2.0788119-9.5527526.0459406-9.6121603 0-19.2243205.0229703-28.83648081-6.8566337.09505226-13.7247525-.19010453-20.569901.11881533-8.8205941.66536585-16.27445544 8.85174218-16.45821782 18.00052268-.18376237 13.3667247-.02297029 26.745331-.05742574 40.1239373 2.65306926.1663414 5.50138616-.4633798 8.02811886.5703135 2.8253465 1.4020209 2.7219801 6.1308711-.1952476 7.3427875-2.5267326.7604181-5.2487128.2613937-7.84435641.3920906.05742574 12.392439-.12633663 24.784878.06891089 37.1773169.09188119 9.113136 7.43089112 17.323275 16.20554452 18.05993 6.3627723.178223 12.7140594-.035644 19.0768317.059408.1837624-6.808118-.3560396-13.651881.2641584-20.436237 1.470099-3.25554 6.110099-3.219895 7.5112872.083171.5627722 6.760592.0689109 13.568711.2411881 20.341185 3.1239604.297038 6.7647525-.855471 9.5211881 1.069338 2.9057426 1.877282 1.4815842 7.354669-2.0213861 7.188327-11.4621783.059408-22.9358416.023763-34.3980198.011882-13.2538614-.249513-24.53227727-12.796412-24.44039608-26.412648-.05742574-28.4800353-.06891089-56.9719517 0-85.4519865z"/><path d="m91.3314341 19.6684754c2.2970297-1.604007 6.0526733.2613937 5.9378218 3.1961324.0918812 4.7763763.229703 9.5765157-.1263366 14.3410104-1.16 2.5545296-4.4332674 3.3981185-6.5120792 1.4970732-2.1247525-2.7802787-1.079604-6.5942509-1.3552476-9.8616725.2756436-3.0179094-.8728713-7.2358536 2.0558416-9.1725435z"/><path d="m91.2510381 44.2157228c1.9639604-1.4614286 5.6047525-.332683 5.9493069 2.4000696.2526733 3.1010802.2756436 6.2496865-.0114851 9.3626481-.6316832 2.8990941-4.5710891 3.8496167-6.5120792 1.7465854-1.8031684-1.5445993-1.2403961-4.2060627-1.4241585-6.3209756.0689109-2.4832404-.3560396-5.6080836 1.9984159-7.1883275z"/><path d="m36.2486618 73.6225172c-2.3889109-1.9366899-1.1485148-6.7487108 1.9754456-6.9388154 3.3881188-.2732752 6.8106931-.2851567 10.1873267 0 3.6407921 1.0574565 3.0091089 5.4536237 2.9861386 8.4715331-.4019802 5.905122.4019802 11.8577701-.2641584 17.7510105-1.0681188 3.7189199-6.9944554 3.4218815-7.580198-.4396167-.539802-5.8338328.2411881-11.7151917-.2182178-17.5609059-2.32-.332683-5.2372277.6416027-7.0863367-1.2832056z"/></g><path d="m62.249505 20.4956446c3.8360396-1.7584669 8.7631683 1.1762718 8.9584158 5.5605575.5627723 2.9941463-1.5160396 5.4179791-3.6293069 7.0932753-11.0487129 9.1131358-22.0744555 18.2500348-33.1231684 27.3631707-11.2439604 9.3745296-18.8126732 23.2996864-20.7192079 38.1159582-1.16 7.4972477-.1493069 15.0657837.2067327 22.5749127.8039604 15.469756 1.7572277 30.927631 2.5956436 46.385505.5053465 5.477387-6.4431684 8.923032-10.39405944 5.489269-2.15920793-1.449547-2.63009901-4.1823-2.67603961-6.641777-.90732673-16.669791-1.83762376-33.339582-2.82534653-50.009373-.43643565-7.43784-.70059406-14.982613.62019802-22.3491639 2.91722772-18.0836934 12.82891086-34.7534843 26.95564356-45.779547 11.4162376-9.1725436 22.3615842-19.0223345 34.0304951-27.8027875z" fill="url(#b)"/><path d="m313.211485 206.299059c6.512079-5.215993 16.021782-5.833833 23.245941-1.829756 8.223366 4.479338 12.909307 14.840035 10.784554 24.226446-1.527525 8.519059-8.372673 15.172718-16.366336 17.216342-1.125545 14.447944-2.228119 28.895888-3.353664 43.355714-1.194455 15.172718-8.809109 29.703833-20.52396 38.935784-9.486733 7.746759-21.626535 11.727073-33.66297 11.632021-19.949703-.071289-39.899406.035644-59.837624-.047526-4.536634.201986-7.786931-5.275401-5.662178-9.37453 1.102574-2.756516 4.111683-3.932787 6.822178-3.695157 16.894653.035645 33.789307.023763 50.68396.023763 6.523564-.071289 13.196436.487143 19.536238-1.47331 15.998812-4.348641 28.62099-19.557003 30.022178-36.654529 1.217426-14.56676 2.262574-29.145401 3.411089-43.724042-5.868911-2.732753-10.991287-7.794286-12.679604-14.364774-2.733465-8.661637.493862-18.844111 7.580198-24.226446m9.739406 9.125018c-6.592475 2.376306-7.752475 12.784529-1.596436 16.408397 5.306139 4.051603 13.632872-.451498 13.747723-7.164565.689109-6.392264-6.408713-11.917177-12.151287-9.243832z" fill="url(#c)"/><path d="m187.609901 6.77247387c32.135446 27.71961673 64.22495 55.47487803 96.337426 83.21825783 7.499802 6.285331 11.358812 16.5628573 10.325148 26.4601743-3.767128 49.67669-7.614653 99.35338-11.496633 149.03007-1.16 14.424181-13.782179 26.733449-27.805545 26.81662-9.613069-.035645-19.214653.012091-28.827723-.035645-5.340594.130697-10.072475-5.180348-9.70495-10.669617-.37901-5.608083 4.456237-10.729024 9.819802-10.847839 9.176633-.368328 18.387723 0 27.575841-.142579 3.468515.237631 6.626931-2.507003 7.729505-5.786306.689109-3.053554.677624-6.225924.964753-9.327004 3.583366-46.718188 7.201188-93.424495 10.784554-140.142683.493862-3.25554-.42495-6.653658-3.043564-8.6854-31.446337-27.2918819-63.030495-54.4293035-94.488317-81.7093035-1.952475-1.7109408-4.23802-3.4337631-6.93703-2.9941463-3.491485.023763-5.868911 2.9466202-8.384158 5.0140069-30.653861 26.5195819-61.3306932 53.0035192-92.01901 79.4636939-2.6645545 2.043623-3.7211881 5.548675-3.2273267 8.863623 1.9295049 24.677944 3.7671287 49.36777 5.7425742 74.033833 6.6728713 2.661463 12.679604 7.36655 16.3433664 13.79446 6.1675247 10.420104 5.8229703 24.594773-.9532674 34.610906-2.7794059 4.312996-6.730297 7.616063-10.9338614 10.348815.5168317 5.049652.7005941 10.146829 1.2633664 15.208363.4364356 4.099128 4.1576237 7.687351 8.2348515 7.330905 31.446337-.023763 62.881188 0 94.327525-.023763 3.939406-.142578 8.257822 1.23568 10.451485 4.859547 3.12396 4.562509 1.998416 11.358746-2.27406 14.733101-2.940198 2.625819-7.017425 2.043624-10.600792 2.09115-30.98693-.059407-61.973861-.047526-92.9607917-.047526-11.4851485.083171-22.350099-8.091324-26.3124752-19.164913-2.4922773-6.97446-2.009901-14.566759-2.8138614-21.850139-7.9706931-1.948572-15.4475248-6.736829-19.8463367-14.008328-6.6728712-10.253763-6.6384158-24.523484-.1493069-34.848536 3.5029703-5.893241 9.0847525-10.158711 15.2178218-12.748885-1.9065347-24.808641-3.8819802-49.617282-5.719604-74.437805-.7465346-9.540871 3.3536634-19.2124391 10.4859406-25.2601395 31.9516832-27.5532753 63.8344555-55.1897212 95.7746535-82.75487804 10.210297-9.18442509 26.725941-9.32700348 37.12-.39209059zm-131.9413861 196.03341513c-6.5809901 2.114912-11.519604 8.566585-11.9675248 15.683623-.8843564 9.861673 7.6031683 19.117387 17.1473267 18.879756 9.4982179.178223 17.8708911-9.065609 16.9750495-18.879756-.4479208-10.895366-12.1168316-19.390662-22.1548514-15.683623z" fill="url(#d)"/><g fill="#4d4d4d" transform="translate(393.041375 74.46562)"><path d="m578.548857.94624457c4.207176-2.01694915 9.736279-.67627118 12.437608 3.31016949 2.701329 3.33389831 1.862193 7.90169494 1.988638 11.90000004-.04598 52.2033898.011495 104.4186439-.02299 156.6220339.080465 6.750847-.528771 14.415254 3.816345 20.027119 4.034751 5.362711 12.242193 1.518644 16.161994 7.035593 4.460066 5.137288 1.827707 14.533898-4.827907 15.99322-10.17309 1.269492-21.564651-1.922034-28.093821-10.488135-5.471628-7.142373-7.31083-16.491526-7.460266-25.401695.011495-56.201695.02299-112.4033902 0-168.6050851-.356345-4.33050846 2.184054-8.62542372 6.000399-10.39322033z"/><path d="m1015.43995 10.2004819c-.02299-5.8847458 5.42565-10.9508475 11.11568-10.10847462 5.69004 0 9.89721 5.75423729 9.51788 11.37796612.04598 35.9610169 0 71.9338983.02299 107.8949156-.18392 13.869491.40232 27.762712-.40233 41.608474-.98857 16.337288-7.33382 32.983051-19.97834 43.376271-15.24239 12.754238-36.232289 15.233899-55.107106 12.505085-15.035482-2.052542-29.634153-9.977966-38.255415-23.1-10.943256-16.432203-13.65608-37.088135-13.288239-56.605085.011495-19.172881 3.092159-39.5796606 14.598671-55.2288132 10.023654-13.9169491 26.967309-20.4423728 43.313222-21.1661017 18.047176-1.6254237 37.347307 5.5050848 48.474487 20.6440678-.06897-23.7288135-.08047-47.4694915-.0115-71.198305m-50.67003 70.3677966c-9.081063 1.459322-17.863256 6.0508474-23.576279 13.5966101-7.12691 9.1474574-10.000664 20.9525424-11.150166 32.4135594-1.138007 12.457627-.747176 25.164407 1.931163 37.39661 2.321993 10.179661 7.069435 20.264407 15.345847 26.659322 9.161528 7.071187 21.173821 8.744068 32.312492 7.676271 10.012159-.925423 20.127774-5.220339 26.541993-13.466101 7.10392-8.969492 9.42591-20.940678 9.25349-32.283051-.14944-14.664407.18392-29.340678-.16093-44.005085-3.85083-9.1237288-10.74784-16.8949152-18.886314-22.1864406-9.322459-6.0983051-20.863455-7.640678-31.611296-5.8016949z"/><path d="m41.9614817 62.0004819c19.1621927-2.9423729 40.864784-.261017 55.7853156 13.5610169 4.0117607 4.0101695 9.5753487 9.2779661 7.2878407 15.6728814-1.758738 6.798305-11.1616613 8.8033898-15.5872427 3.5949152-6.7360797-6.8576271-15.3918273-11.7457627-24.8292359-13.0033898-9.7937541-1.3169492-20.4726246-1.2338983-29.3352824 3.8322034-7.632691 4.1644068-10.3455149 14.972881-6.3567442 22.708475 2.6668439 5.49322 7.8970764 8.933898 13.0123588 11.68644 11.5065117 5.825424 24.0475748 8.993221 35.8644519 14.059322 10.1615946 4.354238 20.6220598 9.942373 26.8408635 19.694916 6.333754 9.669491 6.793555 22.257627 3.988771 33.255932-3.2301 12.350847-13.3227242 21.628813-24.7372757 25.840678-14.9090366 5.49322-31.4158804 5.967796-46.7732226 2.230508-12.9318937-3.39322-25.5419269-9.871186-34.37009969-20.406779-3.65541529-3.772882-3.78186047-10.749153.29887043-14.237289 3.33355481-3.310169 9.17302326-3.250847 12.46059796.10678 3.2530897 3.001695 6.4601994 6.122034 10.2190698 8.471186 11.1271761 7.142373 24.7487708 9.218645 37.6346844 7.889831 6.9659801-.747458 14.1963455-2.538983 19.7024585-7.261017 6.8510299-5.742373 8.9546179-17.072881 3.9083056-24.713559-3.494485-5.350848-9.2534884-8.411865-14.7825913-11.01017-17.7712957-7.877966-37.9565449-11.247457-53.1529569-24.381356-13.31122919-11.259322-15.89760793-32.4016946-8.1499667-47.7423726 6.1038538-11.7338983 18.8173422-17.7966102 31.0710299-19.8491525z"/><path d="m154.96899 82.8343802c7.931561-14.201695 23.932625-21.6762712 39.381927-22.1745763 12.679003-.3084746 25.875282 1.1864407 37.232359 7.4033898 8.023521 4.3661017 14.575681 11.520339 18.288571 20.0745763 4.276146 9.7525424 5.563588 20.608475 5.437143 31.227119-.103455 29.281356.149435 58.58644-.126445 87.867796-.494286 7.676271-10.207575 11.449153-16.001063 7.201695-3.080665-2.040678-4.598007-5.920339-4.310632-9.610169.057476-24.927119 0-49.854238.02299-74.781356-.06897-12.327119.321861-25.722034-6.264784-36.5779664-4.793422-8.138983-13.90897-12.3271186-22.794618-13.3830508-11.908837-1.340678-24.88671-.5338983-35.10578 6.5610169-8.230432 5.5762712-12.805449 15.3288133-14.506711 25.0813563-1.643788 9.966101-1.138007 20.122034-1.218472 30.194915-.034485 21.711864.057475 43.435593-.034485 65.159322-.25289 6.122034-6.632625 10.274576-12.219203 8.898305-5.057807-.747458-8.598272-5.991525-8.149966-11.140678.02299-43.922034-.034486-87.844068.02299-131.7661016-.264386-5.7067797 4.793421-10.8915254 10.345515-10.4169492 4.977342-.3677966 9.874219 3.9745763 10.000664 9.1830509.16093 3.6542373.011495 7.320339 0 10.9983051z"/><path d="m292.851714 79.8089564c11.552492-13.4423728 29.427243-19.1016949 46.416877-19.1966101 14.955017-.2847458 30.86412 3.3101695 42.255681 13.9050847 10.931761 9.9542373 16.116014 25.2949153 16.036471 40.101695-.058398 30.835593.056553 61.694915-.058398 92.530508-.310365 8.044068-10.943255 11.947458-16.437873 6.51356-5.080798-4.662712-2.919735-12.362712-3.310565-18.508475-8.356877 14.581356-25.013156 21.616949-40.818804 22.566102-14.173356.640678-29.174352-1.459322-41.24412-9.669492-8.908638-5.920339-15.000996-15.838983-16.897674-26.552542-2.218538-13.038983-.517276-27.561017 7.816611-38.084746 10.10412-12.908474 26.771894-17.867796 42.278671-18.401695 16.265449-.023729 32.530897-.011864 48.807841.011865.241395-9.408475.425315-19.433899-4.448572-27.7745766-5.172757-9.6694915-15.587242-15.1152542-25.944252-16.3372881-11.540997-1.3288136-24.01309.2016949-33.714884 7.2728813-4.586511 3.1084746-7.977541 7.6169492-12.035282 11.3542373-4.575017 4.2711861-13.012359 1.8745761-14.644651-4.3542373-2.149568-5.9677966 2.436943-11.2118644 5.942923-15.3762712m15.437808 70.4983056c-13.069834 9.491525-12.874419 32.828813.59774 41.845762 8.931628 6.027119 20.127774 6.916949 30.51927 6.216949 14.173355-1.127118 28.404186-9.230508 34.542524-22.88644 4.862392-9.954238 3.678406-21.344068 3.758871-32.105085-15.150432.047458-30.289369-.047458-45.439801.035593-8.310897.320339-17.104585 1.672882-23.978604 6.893221z"/><path d="m485.209322 60.6004819c16.8402-.0474577 34.71495 4.8169491 46.646778 17.7372881 14.311295 15.1271186 18.552956 37.194915 18.874817 57.637288.356345 21.605085-2.850764 45.072881-17.035615 61.979661-12.414618 14.949153-32.346976 20.418644-50.807973 19.872882-16.012558-.296611-31.979136-8.328814-41.12917-22.067797.080466 23.977966.034485 47.955932.034485 71.922034.356346 5.623729-3.908305 10.950847-9.356943 11.461017-6.138339.747457-11.736412-5.089831-11.311096-11.377966-.034485-64.530509 0-129.061017-.011495-193.5915258-.091961-3.8559322 1.436877-7.9610169 4.804917-9.9542373 4.827906-3.2983051 12.184717-1.4 14.702126 4.081356 1.954153 4.5084745 1.011561 9.6220339 1.092026 14.4152542 9.310964-14.759322 26.783389-22.4 43.497143-22.1152542zm-10.989236 20.3c-10.828305 2.3372881-20.150764 10.0610169-25.289036 20.0864411-7.632691 14.605084-8.379867 31.772881-7.460266 47.991525 1.103522 13.3 4.598007 27.145763 13.54113 37.218644 7.598206 8.554237 19.070232 12.694915 30.174418 12.41017 12.483588.118644 25.679867-4.579661 33.381528-15.162712 8.943123-12.125424 11.046711-27.881356 11.414552-42.711865-.02299-11.472881-1.011562-23.206779-5.115282-33.979661-3.218605-8.4830506-8.851163-16.2067794-16.575814-20.8101693-10.207575-6.038983-22.645183-7.3084745-34.07123-5.0423728z"/><path d="m665.738558 62.9021768c13.127309-3.1677966 27.070764-3.1915254 40.106113.4508474 12.518073 3.4762712 23.932625 11.9711865 29.956013 23.9779661 4.126711 8.0084746 6.103854 17.0847457 6.310764 26.1135597.011495 29.245762-.034485 58.479661.02299 87.725423-.103455 3.60678.563256 7.676272-1.747242 10.761017-3.59794 5.576272-12.575548 5.659322-16.219468.083051-3.29907-5.006779-1.448373-11.472881-1.804718-17.108474-8.115482 14.688135-24.817741 21.735593-40.554419 22.791525-14.460731.723729-29.795083-1.447458-42.037275-9.954237-9.115549-6.240678-15.138937-16.716949-16.67927-27.833899-1.632292-11.816949-.310365-24.737288 6.6901-34.608474 9.586844-14.011865 26.863854-19.540678 42.795947-20.264407 16.552824-.083051 33.117143 0 49.692957-.035593.2299-9.562712.34485-19.801695-4.724452-28.2254239-5.011827-8.6847457-14.207841-14.059322-23.725714-15.5661017-14.150366-2.2661017-30.105449.3322034-40.600399 11.1169492-4.161196 3.7135593-7.644186 10.2745764-14.035415 9.2779664-6.540665-.320339-10.47196-8.8033901-7.046445-14.427119 7.17289-12.5881355 20.012823-20.9525423 33.599933-24.2745762m-13.345714 87.7254242c-12.736479 9.8-12.230698 32.888135 1.287442 41.727118 9.000598 5.825424 20.116279 6.762712 30.473289 5.991526 14.690631-1.198306 29.427242-10.049153 35.0598-24.571187 4.103721-9.574576 2.919735-20.228813 3.057675-30.384746-15.035482.011865-30.070964-.035593-45.106445.011865-8.609768.272881-17.736811 1.720339-24.771761 7.225424z"/><path d="m810.598757 63.3292954c10.724851-3.5830508 22.242858-3.179661 33.278074-1.518644 11.529501 1.8033898 23.104983 6.738983 30.806644 16.1 8.414352 10.0491525 11.322591 23.7050846 11.678937 36.6728816.011495 30.479661.02299 60.959322 0 91.438983.310365 6.632203-6.50618 11.49661-12.529568 9.930508-4.483057-.866101-7.966047-5.220339-7.839602-9.942373-.080465-28.474576.02299-56.949152-.04598-85.435593-.310365-10.594915-1.620797-22.1745761-8.644252-30.4915253-7.03495-8.2457627-18.265581-10.5830508-28.461661-10.5-10.966246-.2728813-22.725648 2.2779661-30.898605 10.3101695-8.230432 8.1745763-11.322591 20.3474578-11.575482 31.8084748-.034485 27.727118.04598 55.454237-.02299 83.181356.390831 5.884745-4.425581 11.745762-10.35701 11.247457-5.919933.462712-10.782325-5.398305-10.31103-11.306779 0-43.530509 0-87.049153 0-130.5796613-.13794-3.4288136.965582-7.0593221 3.666911-9.2423729 4.781927-4.2949153 13.322724-2.681356 15.943588 3.4288135 1.770232 4.5677966.931096 9.6457627.954086 14.4271187 5.069303-9.6457627 14.380266-16.2542373 24.35794-19.5288136z"/></g></g></svg>