<svg height="494" viewBox="0 0 704 494" width="704" xmlns="http://www.w3.org/2000/svg" xmlns:xlink="http://www.w3.org/1999/xlink"><defs><path id="a" d="m7.4844 0h188.369058c4.13352 0 7.4844 3.35088002 7.4844 7.4844v124.80637c0 4.13352-3.35088 7.4844-7.4844 7.4844h-188.369058c-4.13351998 0-7.4844-3.35088-7.4844-7.4844v-124.80637c0-4.13351998 3.35088002-7.4844 7.4844-7.4844z"/><filter id="b" height="168.7%" width="147.2%" x="-20.7%" y="-31.5%"><feOffset dx="6" dy="4" in="SourceAlpha" result="shadowOffsetOuter1"/><feGaussianBlur in="shadowOffsetOuter1" result="shadowBlurOuter1" stdDeviation="15"/><feColorMatrix in="shadowBlurOuter1" type="matrix" values="0 0 0 0 0.567616636   0 0 0 0 0.42745098   0 0 0 0 1  0 0 0 0.725906906 0"/></filter><path id="c" d="m10.0395995 0h75.4082551c5.5074198 0 9.9781559 4.45310207 9.9999219 9.96047886l.4003963 101.31116414c.0218269 5.522804-4.4375964 10.017616-9.9604007 10.039443-.0131737.000052-.0263474.000078-.0395212.000078h-75.408255c-5.5074198 0-9.97815595-4.453102-9.9999219-9.960479l-.40039636-101.3111639c-.02182692-5.52280433 4.4375964-10.01761608 9.96040076-10.039443.0131737-.00005207.0263474-.0000781.0395211-.0000781z"/><filter id="d" height="159.4%" width="175%" x="-29.2%" y="-22.3%"><feOffset dx="8" dy="9" in="SourceAlpha" result="shadowOffsetOuter1"/><feGaussianBlur in="shadowOffsetOuter1" result="shadowBlurOuter1" stdDeviation="10.5"/><feColorMatrix in="shadowBlurOuter1" type="matrix" values="0 0 0 0 0.276721014   0 0 0 0 0.276721014   0 0 0 0 0.276721014  0 0 0 0.208724869 0"/></filter><ellipse id="e" cx="18.438405" cy="18.82537" rx="18.438405" ry="18.82537"/><filter id="f" height="347%" width="352.2%" x="-104.4%" y="-99.6%"><feOffset dx="8" dy="9" in="SourceAlpha" result="shadowOffsetOuter1"/><feGaussianBlur in="shadowOffsetOuter1" result="shadowBlurOuter1" stdDeviation="14"/><feColorMatrix in="shadowBlurOuter1" result="shadowMatrixOuter1" type="matrix" values="0 0 0 0 0.0755212756   0 0 0 0 0.582569014   0 0 0 0 0.878793025  0 0 0 0.229458042 0"/><feOffset dx="0" dy="2" in="SourceAlpha" result="shadowOffsetOuter2"/><feGaussianBlur in="shadowOffsetOuter2" result="shadowBlurOuter2" stdDeviation="7.5"/><feColorMatrix in="shadowBlurOuter2" result="shadowMatrixOuter2" type="matrix" values="0 0 0 0 0.50398247   0 0 0 0 0.700178215   0 0 0 0 1  0 0 0 0.233828671 0"/><feMerge><feMergeNode in="shadowMatrixOuter1"/><feMergeNode in="shadowMatrixOuter2"/></feMerge></filter><path id="g" d="m5.98752 0h115.918387c3.306816 0 5.98752 2.68070401 5.98752 5.98752v35.4461184c0 3.306816-2.680704 5.98752-5.98752 5.98752h-115.918387c-3.30681599 0-5.98752-2.680704-5.98752-5.98752v-35.4461184c0-3.30681599 2.68070401-5.98752 5.98752-5.98752z"/><filter id="h" height="222.3%" width="145.4%" x="-18%" y="-46.4%"><feOffset dx="6" dy="7" in="SourceAlpha" result="shadowOffsetOuter1"/><feGaussianBlur in="shadowOffsetOuter1" result="shadowBlurOuter1" stdDeviation="8.5"/><feColorMatrix in="shadowBlurOuter1" type="matrix" values="0 0 0 0 0.561707428   0 0 0 0 0.561707428   0 0 0 0 0.561707428  0 0 0 0.208724869 0"/></filter><path id="i" d="m5.98752 0h115.918387c3.306816 0 5.98752 2.68070401 5.98752 5.98752v35.4461184c0 3.306816-2.680704 5.98752-5.98752 5.98752h-115.918387c-3.30681599 0-5.98752-2.680704-5.98752-5.98752v-35.4461184c0-3.30681599 2.68070401-5.98752 5.98752-5.98752z"/><filter id="j" height="192.8%" width="134.4%" x="-13.3%" y="-35.8%"><feOffset dx="5" dy="5" in="SourceAlpha" result="shadowOffsetOuter1"/><feGaussianBlur in="shadowOffsetOuter1" result="shadowBlurOuter1" stdDeviation="6.5"/><feColorMatrix in="shadowBlurOuter1" type="matrix" values="0 0 0 0 0.649654665   0 0 0 0 0.649654665   0 0 0 0 0.649654665  0 0 0 0.208724869 0"/></filter><linearGradient id="k" x1="68.669473%" x2="68.669473%" y1="-6.664324%" y2="100%"><stop offset="0" stop-color="#71ffb0"/><stop offset="1" stop-color="#91f688"/></linearGradient><linearGradient id="l" x1="70.176487%" x2="33.057623%" y1="38.182259%" y2="84.863651%"><stop offset="0" stop-color="#4d63a0"/><stop offset="1" stop-color="#222735"/></linearGradient><linearGradient id="m" x1="49.598442%" x2="50.886861%" y1="69.517809%" y2="4.779891%"><stop offset="0" stop-color="#2e4175"/><stop offset="1" stop-color="#222735"/></linearGradient><linearGradient id="n" x1="44.205449%" x2="50%" y1="-28.185925%" y2="111.153913%"><stop offset="0" stop-color="#fdc6c6"/><stop offset="1" stop-color="#a47070"/></linearGradient></defs><g fill="none" fill-rule="evenodd"><g><path d="m626.85501 49.1679661 73.134239 112.6539829c1.202904 1.852921.675962 4.330157-1.176959 5.533061-.648433.420958-1.40496.64499-2.178051.64499h-146.268478c-2.209139 0-4-1.790861-4-4 0-.773092.224032-1.529618.64499-2.178051l73.134239-112.6539829c1.202904-1.852921 3.68014-2.3798636 5.533061-1.1769592.470508.3054509.871508.706451 1.176959 1.1769592z" fill="#ea5455" opacity=".05"/><path d="m100.860369 244.204263 90.155836 139.625962c1.198334 1.855881.665286 4.33181-1.190594 5.530144-.646649.417538-1.400038.639631-2.169775.639631h-180.31167239c-2.20913899 0-4-1.790861-4-4 0-.769736.2220927-1.523125.63963122-2.169775l90.15583637-139.625962c1.1983334-1.85588 3.6742629-2.388927 5.5301433-1.190594.4768435.307896.8826985.713751 1.1905945 1.190594z" fill="#ea5455" opacity=".05"/><path d="m449.362426 220.218311 146.664126 227.615105c1.196572 1.857016.661175 4.332439-1.195842 5.52901-.645959.416225-1.39814.637574-2.166584.637574h-293.328252c-2.209139 0-4-1.790861-4-4 0-.768445.221349-1.520625.637574-2.166584l146.664126-227.615105c1.196571-1.857017 3.671994-2.392413 5.52901-1.195842.479288.30883.887013.716555 1.195842 1.195842z" fill="#7367f0" opacity=".25"/><path d="m592.442307 39.8163114 50.984607 86.1464046c1.12516 1.901134.49611 4.35443-1.405023 5.479591-.616859.365079-1.320487.557693-2.037284.557693h-101.969214c-2.209139 0-4-1.790861-4-4 0-.716797.192614-1.420425.557693-2.037284l50.984607-86.1464046c1.125161-1.9011335 3.578457-2.5301838 5.479591-1.4050232.579062.3427103 1.062312.825961 1.405023 1.4050232z" fill="#7367f0" opacity=".25"/><path d="m180.869535 5.26731985 36.192748 56.57716845c1.190456 1.8609431.646919 4.334591-1.214024 5.5250472-.643554.4116854-1.391544.6304645-2.155512.6304645h-72.385494c-2.209139 0-4-1.790861-4-4 0-.7639679.218779-1.5119575.630464-2.1555117l36.192748-56.57716845c1.190456-1.86094307 3.664104-2.40448004 5.525047-1.21402382.487776.3120331.90199.72624794 1.214023 1.21402382z" fill="#ea5455" opacity=".05"/></g><g transform="translate(95 82)"><path d="m25.137 0h462.532227c13.882781 0 25.137 11.2542182 25.137 25.137v285.510114c0 13.882782-11.254219 25.137-25.137 25.137h-462.532227c-13.8827818 0-25.137-11.254218-25.137-25.137v-285.510114c0-13.8827818 11.2542182-25.137 25.137-25.137z" fill="#f2f2f2"/><g transform="translate(143.03271 51.876485)"><use fill="#000" filter="url(#b)" xlink:href="#a"/><use fill="#7367f0" fill-rule="evenodd" xlink:href="#a"/><g fill="#fff"><g transform="translate(29.902626 40.021096)"><path d="m25.4172322 13.5081601v30.2723016c0 .826704-.670176 1.49688-1.49688 1.49688h-6.8741066c-.826704 0-1.49688-.670176-1.49688-1.49688v-30.2723016c0-.826704.670176-1.49688 1.49688-1.49688h6.8741066c.826704 0 1.49688.670176 1.49688 1.49688z" opacity=".39488"/><path d="m9.86786664 26.0520856v17.7283761c0 .826704-.67017601 1.49688-1.49688 1.49688h-6.87410664c-.826704 0-1.49688-.670176-1.49688-1.49688v-17.7283761c0-.826704.670176-1.49688 1.49688-1.49688h6.87410664c.82670399 0 1.49688.670176 1.49688 1.49688z"/><path d="m40.9665979 1.56156438v42.21889732c0 .826704-.6701761 1.49688-1.49688 1.49688h-6.8741067c-.826704 0-1.49688-.670176-1.49688-1.49688v-42.21889732c0-.826704.670176-1.49688 1.49688-1.49688h6.8741067c.8267039 0 1.49688.670176 1.49688 1.49688z"/><path d="m56.5159635 7.53486224v36.24559946c0 .826704-.670176 1.49688-1.49688 1.49688h-6.8741067c-.826704 0-1.49688-.670176-1.49688-1.49688v-36.24559946c0-.826704.670176-1.49688 1.49688-1.49688h6.8741067c.826704 0 1.49688.670176 1.49688 1.49688z" opacity=".39488"/><path d="m72.0653291 19.481458v24.2990037c0 .826704-.670176 1.49688-1.49688 1.49688h-6.8741067c-.826704 0-1.49688-.670176-1.49688-1.49688v-24.2990037c0-.826704.670176-1.49688 1.49688-1.49688h6.8741067c.826704 0 1.49688.670176 1.49688 1.49688z"/><path d="m87.6146947 46.3612983v18.325706c0 .826704-.670176 1.49688-1.49688 1.49688h-6.8741067c-.826704 0-1.49688-.670176-1.49688-1.49688v-18.325706c0-.826704.670176-1.49688 1.49688-1.49688h6.8741067c.826704 0 1.49688.670176 1.49688 1.49688z" opacity=".39488"/><path d="m103.16406 46.3612983v35.05094c0 .826704-.670176 1.49688-1.49688 1.49688h-6.8741064c-.826704 0-1.49688-.670176-1.49688-1.49688v-35.05094c0-.826704.670176-1.49688 1.49688-1.49688h6.8741064c.826704 0 1.49688.670176 1.49688 1.49688z"/><path d="m118.713426 46.3612983v26.0909932c0 .826704-.670176 1.49688-1.49688 1.49688h-6.874107c-.826704 0-1.49688-.670176-1.49688-1.49688v-26.0909932c0-.826704.670176-1.49688 1.49688-1.49688h6.874107c.826704 0 1.49688.670176 1.49688 1.49688z" opacity=".39488"/><path d="m134.262791 46.3612983v32.0642911c0 .8267039-.670176 1.49688-1.49688 1.49688h-6.874106c-.826704 0-1.49688-.6701761-1.49688-1.49688v-32.0642911c0-.826704.670176-1.49688 1.49688-1.49688h6.874106c.826704 0 1.49688.670176 1.49688 1.49688z"/><path d="m149.812157 46.3612983v18.325706c0 .826704-.670176 1.49688-1.49688 1.49688h-6.874107c-.826704 0-1.49688-.670176-1.49688-1.49688v-18.325706c0-.826704.670176-1.49688 1.49688-1.49688h6.874107c.826704 0 1.49688.670176 1.49688 1.49688z" opacity=".39488"/></g><path d="m26.3121428 23.8931914h59.8095888c.9896884 0 1.7919893.802301 1.7919893 1.7919894s-.8023009 1.7919894-1.7919893 1.7919894h-59.8095888c-.9896884 0-1.7919893-.802301-1.7919893-1.7919894s.8023009-1.7919894 1.7919893-1.7919894z" opacity=".39488"/><path d="m24.520154 13.738585h33.490941v3.583979h-33.490941z"/></g></g><path d="m25.137 0h55.0088621c13.8827818 0 25.1369999 11.2542182 25.1369999 25.137v310.647114h-80.145862c-13.8827818 0-25.137-11.254218-25.137-25.137v-285.510114c0-13.8827818 11.2542182-25.137 25.137-25.137z" fill="#e4e4e4"/><g fill="#fff"><path d="m17.7850467 46.2897862h68.3084112c2.7614238 0 5 2.2385763 5 5v4.3657957c0 2.7614238-2.2385762 5-5 5h-68.3084112c-2.7614237 0-5-2.2385762-5-5v-4.3657957c0-2.7614237 2.2385763-5 5-5z" fill-opacity=".423924"/><path d="m17.7850467 72.6270784h36.3457944c2.7614238 0 5 2.2385762 5 5v4.3657957c0 2.7614238-2.2385762 5-5 5h-36.3457944c-2.7614237 0-5-2.2385762-5-5v-4.3657957c0-2.7614238 2.2385763-5 5-5z" fill-opacity=".204873"/><path d="m17.7850467 96.5700713h36.3457944c2.7614238 0 5 2.2385762 5 4.9999997v4.365796c0 2.761424-2.2385762 5-5 5h-36.3457944c-2.7614237 0-5-2.238576-5-5v-4.365796c0-2.7614235 2.2385763-4.9999997 5-4.9999997z" fill-opacity=".204873"/></g><path d="m375.560748 0h112.108479c13.882781 0 25.137 11.2542182 25.137 25.137v285.510114c0 13.882782-11.254219 25.137-25.137 25.137h-112.108479z" fill="#e4e4e4"/><g transform="translate(398.733645 47.087886)"><use fill="#000" filter="url(#d)" xlink:href="#c"/><use fill="#fff" fill-rule="evenodd" xlink:href="#c"/><path d="m32.7587853 75.0213777h30.3702799c1.322335 0 2.3942993 1.0719643 2.3942993 2.3942993 0 1.3223349-1.0719643 2.3942992-2.3942993 2.3942992h-30.3702799c-1.322335 0-2.3942993-1.0719643-2.3942993-2.3942992 0-1.322335 1.0719643-2.3942993 2.3942993-2.3942993z" fill="#467fff" fill-rule="nonzero" opacity=".33996"/><path d="m24.7681311 87.7909739h46.3515883c1.322335 0 2.3942993 1.0719643 2.3942993 2.3942993 0 1.3223349-1.0719643 2.3942992-2.3942993 2.3942992h-46.3515883c-1.322335 0-2.3942993-1.0719643-2.3942993-2.3942992 0-1.322335 1.0719643-2.3942993 2.3942993-2.3942993z" fill="#467fff" fill-rule="nonzero" opacity=".33996"/><g transform="translate(29.565421 19.952494)"><use fill="#000" filter="url(#f)" xlink:href="#e"/><use fill="#fff" fill-rule="evenodd" xlink:href="#e"/></g><path d="m11.2724566 10.7557768c2.1681844 0 3.9258452 1.7576608 3.9258452 3.9258453v2.6141144c0 .7244489-.5872819 1.3117308-1.3117308 1.3117308h-12.57484017c-.72444893 0-1.31173083-.5872819-1.31173083-1.3117308v-2.6141144c0-2.1681845 1.75766078-3.9258453 3.92584523-3.9258453zm-3.6733057-10.7557768c2.6049694 0 4.7167144 2.10919294 4.7167144 4.71101428s-2.111745 4.71101427-4.7167144 4.71101427-4.71671435-2.10919293-4.71671435-4.71101427 2.11174495-4.71101428 4.71671435-4.71101428z" fill="#7367f0" transform="translate(40.752337 28.731591)"/></g><path d="m401.336449 237.035629h90.682243c2.761423 0 5 2.238577 5 5v68.213777c0 2.761424-2.238577 5-5 5h-90.682243c-2.761424 0-5-2.238576-5-5v-68.213777c0-2.761423 2.238576-5 5-5z" fill="#fff" fill-opacity=".345908"/><path d="m25.137 0h462.532227c13.882781 0 25.137 11.2542182 25.137 25.137v2.5806057h-512.806227v-2.5806057c0-13.8827818 11.2542182-25.137 25.137-25.137z" fill="#d4d4d4"/><path d="m20.7757009 16.760095c1.7652466 0 3.1962617-1.4292857 3.1962617-3.192399s-1.4310151-3.1923991-3.1962617-3.1923991c-1.7652465 0-3.1962616 1.4292858-3.1962616 3.1923991s1.4310151 3.192399 3.1962616 3.192399z" fill="#f5818d"/><path d="m33.5607477 16.760095c1.7652465 0 3.1962616-1.4292857 3.1962616-3.192399s-1.4310151-3.1923991-3.1962616-3.1923991c-1.7652466 0-3.1962617 1.4292858-3.1962617 3.1923991s1.4310151 3.192399 3.1962617 3.192399z" fill="#ffbd63"/><path d="m47.1448598 16.760095c1.7652466 0 3.1962617-1.4292857 3.1962617-3.192399s-1.4310151-3.1923991-3.1962617-3.1923991-3.1962617 1.4292858-3.1962617 3.1923991 1.4310151 3.192399 3.1962617 3.192399z" fill="#4ce47a"/><g transform="translate(145 209)"><use fill="#000" filter="url(#h)" xlink:href="#g"/><use fill="#fff" fill-rule="evenodd" xlink:href="#g"/><g fill="#ff9f43"><path d="m43.110144 26.345088h23.95008c.7936358 0 1.4370048.643369 1.4370048 1.4370048s-.643369 1.4370048-1.4370048 1.4370048h-23.95008c-.7936358 0-1.4370048-.643369-1.4370048-1.4370048s.643369-1.4370048 1.4370048-1.4370048z" opacity=".2"/><path d="m43.110144 18.2020608h14.370048c.7936358 0 1.4370048.643369 1.4370048 1.4370048s-.643369 1.4370048-1.4370048 1.4370048h-14.370048c-.7936358 0-1.4370048-.643369-1.4370048-1.4370048s.643369-1.4370048 1.4370048-1.4370048z" opacity=".5"/><path d="m88.7376683 18.333235c.4113628-.9027367 1.4766509-1.3010739 2.3793876-.8897111.2985664.136052.5534329.3509281.7377886.62047l.0657759.1035935 3.5226994 5.9908205c.0335231.0570106.1069152.0760509.1639259.0425278l.0154424-.0108005.0135569-.0130894 1.8744191-2.1192181c.6572491-.7430857 1.7924448-.8126701 2.5355309-.155421.048834.0431932.095262.088997.139084.1372027l.063754.0740837 2.748802 3.3757915c.04176.0512849.117188.0590066.168473.0172469l.014354-.0138279.011863-.0160174 4.341897-7.0164418c.522027-.843588 1.629077-1.1042646 2.472665-.5822375.130624.0808325.250204.1780021.355893.2890413l.076617.0858414 2.02272 2.4178597c.297055.3550846.250012.883748-.105072 1.1808028-.335358.2805517-.825544.2541772-1.129219-.04875l-.051584-.0563223-2.02272-2.4178597c-.008214-.0098183-.017949-.0182562-.028834-.0249922-.046866-.0290015-.10593-.0217667-.144455.0139963l-.02039.0248195-4.341897 7.0164419c-.105249.1700803-.238164.3213881-.393262.447679-.742746.6047957-1.823088.5176756-2.460516-.1814578l-.066566-.0772453-2.7488026-3.3757916c-.0041165-.0050555-.0086391-.0097664-.0135225-.0140858-.0412825-.0365138-.1007183-.0393779-.1447403-.0106499l-.0242951.0210113-1.8744191 2.1192181c-.1252376.1415937-.2720408.2625313-.4349899.358348-.8266539.4860859-1.8829221.2354066-2.4066417-.5543076l-.052247-.0836093-3.5226993-5.9908205c-.0124732-.0212123-.0311785-.038067-.053571-.0482709-.050152-.0228535-.1078296-.0082209-.1415328.0321193l-.0170931.0271948-3.432112 7.5317779c-.1279252.280732-.3257079.5231779-.5736173.7046311l-.0952772.0651415-4.0693236 2.5944367c-.390365.248881-.9085763.1341855-1.1574573-.2561795-.2350543-.3686781-.1458074-.8513919.1936862-1.1135515l.0624933-.0439059 4.0693236-2.5944367c.0130066-.0082925.024226-.0189786.0331032-.0314199l.0114897-.0198982z" fill-rule="nonzero"/><circle cx="23.710579" cy="24.189581" r="9.819533"/></g></g><g transform="translate(145 274)"><use fill="#000" filter="url(#j)" xlink:href="#i"/><use fill="#fff" fill-rule="evenodd" xlink:href="#i"/><path d="m44.0681472 26.8240896h23.95008c.7936358 0 1.4370048.643369 1.4370048 1.4370048s-.643369 1.4370048-1.4370048 1.4370048h-23.95008c-.7936358 0-1.4370048-.643369-1.4370048-1.4370048s.643369-1.4370048 1.4370048-1.4370048z" fill="#28c76f" opacity=".454078"/><path d="m44.0681472 18.6810624h14.370048c.7936358 0 1.4370048.643369 1.4370048 1.4370048s-.643369 1.4370048-1.4370048 1.4370048h-14.370048c-.7936358 0-1.4370048-.643369-1.4370048-1.4370048s.643369-1.4370048 1.4370048-1.4370048z" fill="#28c76f"/><path d="m81.9092736 29.494747 4.9098899-8.6176681c.6547986-1.1492797 2.117293-1.5501359 3.2665728-.8953373.0106784.0060841.0213099.0122502.0318935.0184979l1.2150235.7172536c.8499251.5017284 1.9205976.4307009 2.6967977-.1789034l2.1463621-1.6856882c.7988732-.6274109 1.9066348-.6826261 2.7639387-.1377655l1.3639482.8668589c1.116345.7094737 2.596468.379659 3.305956-.7366767.024857-.0391098.048573-.0789328.071118-.1194187.984708-1.7682652 2.199107-2.8547377 3.643196-3.2594175 1.999883-.5604313 4.277249-.5604313 6.832097 0v14.028265z" fill="url(#k)"/><g fill="#28c76f"><path d="m81.9092736 29.494747 5.29852-4.214932c.8162129-.6492911 1.9587696-.695724 2.8249776-.1148056l.3064361.2055099c.8616389.5778542 1.9973562.5352424 2.8132718-.1055531l2.0653308-1.6220487c.7988732-.6274109 1.9066348-.6826261 2.7639387-.1377655l1.8865196 1.19898c1.0021848.6369494 2.3197598.4433778 3.0964018-.4549014 1.670751-1.9324233 3.303977-3.1222183 4.899679-3.5693847 1.999883-.5604313 4.097123-.7015472 6.291718-.4233479v9.238249z"/><circle cx="23.710579" cy="24.189581" r="9.819533"/></g></g><g transform="translate(258 261)"><ellipse cx="14.750503" cy="15.45723" fill="#28c76f" rx="14.573661" ry="14.999383"/><path d="m9.76526418 14.3283415c-.43391976-.5254183-1.21189126-.599819-1.73764799-.1661785-.52575672.4336405-.60020529 1.2111112-.16628553 1.7365296l4.28456834 5.1880345c.5165711.625498 1.4427276.7140702 2.0686285.1978315.0912352-.0752502.1730439-.161235.2436497-.2560875l6.1398827-8.2483764c.4068764-.5466014.2933213-1.3193356-.2536322-1.72595-.5469535-.4066145-1.3201854-.2931326-1.7270617.2534689l-5.3789947 7.2261923z" fill="#fff"/></g><g transform="translate(64.520694 214.651381)"><path d="m21.0986372 170.523406s-.124549 7.893373 4.7668791 10.697016c4.8908795 2.804189 12.4686151 8.014154 12.4686151 8.014154l-28.82677964.967885.82191354-19.750102z" fill="#f8cfcf"/><path d="m8.50092744 179.221658-.46898987 12.805205h6.69559493l.4589091-1.649671s2.5209365-.102435 3.977548.610027c1.5398239.753742 1.7466659 1.119146 1.7466659 1.119146l21.238157.044338s1.0476826-4.138701-5.4262346-7.132265c-6.4739171-2.994328-11.1876959-7.243873-12.0832188-7.678842-.9018628-.438027-2.7214385-.685707-4.002908.344-1.2814694 1.028942-2.2950745 3.735074-5.1987876 3.819928-3.7374212.109315-5.88429856-4.447537-6.93673606-2.281866z" fill="#4b4b4b"/><g stroke="#fff" stroke-linecap="round" stroke-width="2"><path d="m26.651404 178.728451-2.201842 2.109391"/><path d="m29.861931 180.32741-2.201843 2.10939"/><path d="m33.072457 181.926368-2.201842 2.10939"/></g><path d="m0 0s8.0084447 87.3298264 8.25754266 93.400559-2.57218339 16.547501-2.51731599 27.903072c.03657826 7.570381.38004814 24.696177 1.03040964 51.377389l17.66620319.370149c4.9497705-48.214891 7.4513578-75.937378 7.5047621-83.1674595.0795577-10.8451223.760462-88.83985828.760462-88.83985828z" fill="#383838"/><path d="m12.7340291 96.1189224.0195158.2160628c.2659505 3.7020508-2.0556691 15.8822868-6.96485856 36.5407068l-.04845967-11.572061c-.05388762-11.152793 2.66657105-21.4578889 2.52775716-27.5736593l-.01044117-.3294127c-.08394601-2.0458369-1.04911328-13.3201878-2.292025-27.3706907l.58013292 2.0578133c3.40616234 12.1888333 5.46889492 21.5328222 6.18837852 28.0312408z" fill="#fff" fill-opacity=".192499" opacity=".283552"/></g><g transform="translate(36.726651 214.213509)"><path d="m6.79159709 169.574056-3.3824964 20.460265 12.46916371-.062303.3944182-20.718768z" fill="#f8cfcf"/><path d="m3.2964521 181.211097-.09339277 2.823226c-1.24572779 1.37982-2.1433505 4.139837-2.69286816 8.28005 0 2.892884 19.27004003 2.806979 20.19613743 0-.6728218-4.509118-1.7348533-7.33053-3.1860945-8.464238l-.0104277-2.799049c-.0050429-1.353658-.9159889-2.536254-2.2235331-2.886604l-1.6698905-.447439c-1.8227464-2.654845-4.30686356-2.561057-6.43550882.331962l-1.52075046.329185c-1.34406206.290939-2.31820477 1.458469-2.36367142 2.832907z" fill="#4b4b4b"/><g stroke="#fff" stroke-linecap="round" stroke-width="2"><path d="m7.889086 180.260272h5.047711"/><path d="m7.889086 182.65871h5.047711"/><path d="m8.691718 185.057147h3.442447"/></g><path d="m13.0802543 1.14709702s-5.57139189 59.92041698-5.49567488 71.39512918c.075717 11.4752586 1.71460603 16.5147099-.61780685 24.7463785-1.5553077 5.4877793-2.99607319 30.1330253-4.32229646 73.9357393l17.24983809 1.885179c7.3466917-46.871392 11.4194721-73.5563259 12.2183414-80.0548007 1.1983039-9.7477122 16.0092079-92.73450847 16.0092079-92.73450847z" fill="#2e2e2e"/><path d="m17.7392127 41.8159643-1.0521261 3.8032471c-3.0807886 11.2241471-5.9244477 23.0937279-5.1800713 40.0492313l.0363181.7742228c.1832901 3.6729193-2.15671573 24.9892415-7.02001737 63.9489675l-.46258424 2.738236c-.47703543 2.792718-.90163002 5.175616-1.27378379 7.148697l.10569772-3.450593c.62011925-19.045049 2.28802218-53.237241 4.07412685-59.5393683 2.33241288-8.2316686.69352385-13.2711199.61780685-24.7463785-.0530019-8.0322985 2.66107958-39.8029924 4.29429858-58.1425019l1.2013763-13.25262728 7.2814602-.1715681.0176054 2.04120998c.128305 18.8403201-.7517307 31.7733952-2.6401072 38.7992254z" fill="#fff" fill-opacity=".192499" opacity=".283552"/></g><g transform="translate(82.184211 118.190104)"><g transform="translate(51.368421)"><path d="m1.03206307 23.3288289s-1.43649733-7.9736692-.92000391-9.5883386c.44117147-1.3954858 4.61077981-3.4077936 4.61077981-3.4077936s7.25242843-11.41147336 8.83956973-10.24964026c1.2912335.94211375-3.77685817 9.35522164-3.77685817 9.35522164s4.62154007 4.82953872 4.55697837 6.98814742c-.0645616 2.1591447-7.54295596 8.9173907-7.54295596 8.9173907z" fill="#f8cfcf"/><path d="m4.87886303 10.2180139s3.21194346-.43515155 3.72305674.5605523c.43579132.8483311-2.23275802 3.254486-2.23275802 3.9308329s.03814345 5.7958726.25286657 5.8423914c.21472313.0465189 3.21732361-8.3541588 2.57708697-10.1312061-.5272537-1.4587222-4.32025226-.2025705-4.32025226-.2025705z" fill="#f28585"/></g><path d="m14.0850634 33.4739801c-8.4128174-7.320075-21.04598132 5.8767676-6.95932682 18.1455718 5.37426112 4.6803884 22.25531202 16.355751 26.39341082 18.9227506 6.5879278 4.0868688 12.0016935.3989588 14.2265663-6.0308368 1.8868897-5.4515266 13.1749152-34.633375 11.7384869-38.9197232-.9365864-2.7954445-5.9637721-5.5155475-8.4871236-3.3158086-3.6876374 3.215171-14.9677464 31.4150029-14.9677464 31.4150029s-12.3786859-11.8940195-21.9442672-20.2169567z" fill="#877bff"/><path d="m36.0293306 53.6909368c2.463092 3.0089081 3.7835673 4.2835725 3.9614258 3.8239932s-.7987811-2.6227014-2.9299188-6.4893662z" fill="#000" fill-opacity=".159856"/><path d="m50.0172034 24.0839283c2.9351072-1.3687659 6.141666.3233022 7.9089953 3.0387584" stroke="#5386bf" stroke-linecap="round"/></g><g transform="translate(59.383738 103)"><path d="m.66324056 40.3922692s4.7763564-1.116898 4.94205593-8.9124445c.16569953-7.7955464.04938065-10.4565472.04938065-10.4565472l11.32353256-.1890956s.1143027 8.6880118.1163189 11.830496c.0043894 6.8413243 5.1052311 8.6897853 5.1052311 8.6897853s-.4239451 7.4804615-9.9571547 8.0144106c-7.44331051.4175405-11.57936444-8.9766046-11.57936444-8.9766046z" fill="#f8c5c5"/><g transform="translate(.470782)"><path d="m26.5956053 12.6195246-.2527568 7.3674546c2.1398351-2.5050558 3.585019-5.6108098 4.0131579-9.59375z" fill="url(#l)"/><path d="m4.14415833 17.0827977c-4.69335681-.1808978-3.92781578 6.6628158.94770077 6.6535249 0 0 5.2397167 10.49415 13.4659634 10.5214529 3.9625231.0130435 5.2562963-3.502713 6.4441753-5.9707926 1.1878791-2.4680796 2.0597219-6.1598152 2.1321469-8.4202176.0779117-2.4101487.0877878-10.32811538.0877878-10.32811538l-23.26048259-.01038386z" fill="#f8cfcf"/><path d="m27.2219325 13.1717716h-16.3585938c-.171806 2.944556-1.1536482 5.3894515-3.64688739 7.1930236.07067449 4.3136089 1.51950168 7.4537145 4.03158739 9.6558052 2.1869831-6.2431948 15.5656653-4.5351185 14.5926297-.4615254-2.0441517 8.5577974-21.20504305 8.751876-20.04283863-10.9446719-.76420201-1.0380385-3.49811319-1.232117-4.39803511-.1940786-1.53677768-4.3033703-.88092984-10.3908609 3.56371074-11.27138213-3.48896433-9.16986458 43.9517381-11.10968907 22.2584271 6.02282923z" fill="#424242"/><g stroke-linecap="round"><path d="m16.8361311 28.5355457s1.6552952 2.058348 4.8066656 1.1371025" stroke="#cc6969" transform="matrix(.96592583 -.25881905 .25881905 .96592583 -6.907833 5.97528)"/><path d="m4.61513429 21.1056687c.29396467-1.0587963.16250094-1.9839147-.89333845-2.4074673" stroke="#de6767" transform="matrix(.97437006 -.22495105 .22495105 .97437006 -4.368377 1.463114)"/></g></g></g><g transform="translate(42.855263 142.174479)"><path d="m19.0802702 0 13.6643431 8.90521947 6.161215-7.18936247s12.9803922 4.03603687 15.3882869 8.7547983c3.474781 6.8095428-1.1033358 61.3673699.8924739 64.6596216 4.2526878 7.0154262-1.401569 11.8312082-20.1210815 13.6006843-18.7195124 1.7694761-35.3268448.32045-32.31325787-9.0415478 3.01436623-9.3627814-8.61626834-70.46476825 1.63747342-73.83069464 3.2039425-1.05173652 14.69054705-5.85871876 14.69054705-5.85871876z" fill="#7367f0"/><path d="m9.85879845 16.8448286c.82750335 1.4676242.40092855 6.5522989-1.27972432 15.2540241-1.4318398 7.413474.20530386 15.0824397 4.52785837 21.269317l.2429022.3421796c1.4617995 2.0269334 2.8094116 4.6957397 4.0428361 8.0064189 3.0251631 8.1199489-3.9524043 14.8887508 1.3947621 27.5914082l-.646729-.0306542c-10.49141338-.544722-17.42639157-3.2570601-15.38845417-9.5881088 2.47151185-7.6766469-4.90213596-50.1351791-1.98637557-67.0341033 5.04790744.9945838 8.07874995 2.3908226 9.09292429 4.1895185z" fill="#000" fill-opacity=".159856"/><path d="m19.0802702 0 12.2223614 7.99557547c-1.7917331 2.08883523-2.752552 4.51940873-3.1153344 7.19452873-4.6971607-3.6846584-9.579964-8.83340301-11.0928774-14.37018814z" fill="#5e54c7"/><path d="m33.7105263 7.78738055c2.0667988 1.40219379 3.7154334 3.88458585 5.0576167 6.70711205 1.6089483-3.2436575 2.2251837-7.52740703 2.2251837-12.09499947l-2.0183282-.8005348z" fill="#5e54c7"/><path d="m31.3026316 7.99479167.1583988.08874657c.7326489.41048348 1.6480554.28996551 2.2494959-.29615769 4.6081304 16.94597525 7.8489513 35.59818205 8.8289474 54.55431245l-4.8091552 8.0124737-5.6250553-7.4987935c.7327073-19.7012403.7278343-38.9106925-.8026316-54.86058153z" fill="url(#m)"/></g><g transform="translate(26 148.466168)"><g transform="matrix(.9945219 .10452846 -.10452846 .9945219 61.271564 41.671624)"><path d="m2.56384961.7435646 10.84210529.43971994c1.320901.05357138 2.3641504 1.13998909 2.3641504 2.46197605v18.80928211c0 1.3608296-1.1031704 2.464-2.464 2.464-.0332935 0-.0665835-.0006748-.0998496-.002024l-10.84210531-.4397199c-1.32090106-.0535714-2.36415039-1.1399891-2.36415039-2.4619761v-18.80928206c0-1.36082962 1.10317038-2.464 2.464-2.464.03329346 0 .0665835.00067479.09984961.00202396z" fill="#6182ec" fill-rule="nonzero"/><path d="m3.96765127.23993728 11.62266453 1.03922939 7.6901922-.9410305c1.3507543-.16528858 2.5797498.7957212 2.7450383 2.14647542.0121509.09929764.0182432.19924312.0182432.29928144v18.77657487c0 1.2450873-.9288498 2.2945266-2.1647186 2.4457569l-8.2887551 1.0142752-12.06154601-1.0784716c-1.2707207-.1136202-2.24455926-1.1784187-2.24455926-2.4542089v-18.79367323c0-1.36082963 1.10317037-2.464 2.464-2.464.07325609 0 .14647574.00326691.21944074.00979101z" fill="#96effa"/><g fill-rule="nonzero"><path d="m5.57486682 5.24862597 5.14736838.39439628c.833799.06388648 1.4777648.75908108 1.4777648 1.59532397v1.90728718c0 .8836556-.7163444 1.6-1.6 1.6-.0407898 0-.0815647-.0015598-.1222352-.004676l-5.14736847-.3943963c-.83379895-.0638865-1.47776475-.75908109-1.47776475-1.59532398v-1.90728718c0-.8836556.7163444-1.6 1.6-1.6.04078979 0 .08156466.00155982.12223524.00467603z" fill="#74cfdb"/><path d="m15.5684211 1.27916667h.3263157c.4418278 0 .8.3581722.8.8v22.06458333c0 .4418278-.3581722.8-.8.8h-.3263157c-.4418278 0-.8-.3581722-.8-.8v-22.06458333c0-.4418278.3581722-.8.8-.8z" fill="#eaefff"/><path d="m16.2105263 1.27916667h.3263158c.4418278 0 .8.3581722.8.8v22.06458333c0 .4418278-.3581722.8-.8.8h-.3263158c-.4418278 0-.8-.3581722-.8-.8v-22.06458333c0-.4418278.3581722-.8.8-.8z" fill="#7ad2dd"/></g></g><path d="m48.9698539 53.2133633s4.167825-.8348123 5.8736363-2.1685799c1.7052305-1.3337675 6.8708708-2.2765542 6.8708708-2.2765542l-1.6523777 3.4665454s12.660291-1.18374 12.9599841.0602383c.3002739 1.2439784-3.3616738 2.5964994-3.3616738 2.5964994s-1.8057089 3.3597076-3.5539187 5.3072242c-1.65412 1.8429519-9.8718674 1.6235934-12.7526382.4733823-2.4893113-.9933642-5.195842-.4966821-5.195842-.4966821z" fill="#f8cfcf"/><path d="m15.4493471 4.77264317c4.5271086-9.7449796 20.0283229-3.1791008 16.1217645 7.25995793-3.7842041 10.1133333-12.9525455 33.7251386-12.9525455 33.7251386s29.053382 3.6742469 31.318308 5.3875839c3.0215473 2.2855423 1.1538613 8.8082461-1.4144814 9.9695989-2.1727488.9820946-18.3130898 1.556486-34.1050229.3164345-7.81256806-.6131943-13.59010455-3.9567973-14.39610656-12.6409836-.56458547-6.0811165 11.06667476-34.630174 15.42808386-44.01773023z" fill="#877bff"/><path d="m18.6295396 45.7522745c-1.6097722 3.0481005-2.1846033 4.6032532-1.7244933 4.6654579.46011.0622048 1.859598-1.381458 4.1984641-4.3309883z" fill="#000" fill-opacity=".159856"/><path d="m47.7419135 50.6433753c.9946682 2.8168749.4821954 6.1786241-.6773379 8.5821126" stroke="#5386bf" stroke-linecap="round" transform="matrix(.99939083 .0348995 -.0348995 .99939083 1.946222 -1.63011)"/></g><g transform="matrix(-.8480481 .52991926 .52991926 .8480481 381.856624 174.30993)"><path d="m0 0h26.8206186v19.2c0 6.4 1.2771723 12.8 3.8315169 19.2h-26.82061856c-2.55434463-6.4-3.83151694-12.8-3.83151694-19.2s0-12.8 0-19.2z" fill="#e8ffff"/><g stroke="#000" stroke-linecap="round" stroke-opacity=".115767" stroke-width=".8"><path d="m5.562846 7.819198 13.945995-.000075"/><path d="m5.944848 12.96482 13.945996-.000075"/><path d="m6.32685 18.110443 13.945996-.000076"/><path d="m6.708852 23.256065 13.945996-.000075"/></g></g><g transform="translate(445.917345 229.809122)"><path d="m29.293338 157.681984c-.0643026 3.699933-.096454 6.145575-.096454 7.336927 0 1.368392.0554839 5.420784-.0953425 6.043938-.141526.584728-.2845394 1.593019-.4290404 3.024871l11.6415473.310026c-1.9618787-3.813899-2.9998875-5.973097-3.1140264-6.477595s-.6045044-3.91722-1.4710966-10.238167z" fill="#ffe2e2"/><path d="m38.1746307 172.299376c-.2568967-.223166-1.8261174-3.762241-4.6056314-3.762241-3.1057416 0-3.9501215 3.648513-4.0553647 3.762241-.1720962.18595-.9678243.111862-1.1613402.465487-.9397897 1.717344-1.4370771 5.201576-.5757248 6.462083.9153048 1.346296 13.374763 1.368984 14.0638127.101062.7215176-1.338464-.9825051-4.986408-2.295361-6.563145-.3338976-.40101-1.2364862-.349164-1.3703906-.465487z" fill="#2e2e2e"/><path d="m0 2.47914063 22.743782-2.47914063.3344009.31138062c1.6209919 1.54874313 8.6654814 8.74132022 10.6896151 18.57235378 3.8214054 18.5602187-1.29302 52.8397187-1.1798924 60.3565.1079854 7.5167812 3.6503228 12.0521701 5.1223723 22.6802816 1.4720496 10.628111 1.6110549 58.126656 1.6110549 58.126656-3.9029008 2.319281-7.3370859 2.485312-11.9907424-.139219z" fill="#26553b"/><path d="m20.3161267 119.501519-20.3161267-117.02237837 12.6456002-1.37852282c.5634313 40.65330659 8.4275608 95.60550049 7.6705265 118.40090119z" fill="#fff" fill-opacity=".192499"/></g><g transform="translate(422.52529 233.029216)"><path d="m28.050854 154.033156-8.2745176.121688c.327755 5.187887-.4666236 8.660526-2.3831359 10.417918l-10.82807305 5.853621c-.84753987.712247-1.33920719 2.920253.39690236 3.235179 5.37383979.974801 20.76630799-1.338536 20.76630799-1.338536z" fill="#ffe2e2"/><path d="m27.8070043 165.171024c-.5558242.029789-1.2613248 3.179195-4.4149489 4.794299-3.6150899 1.851441-8.8726224 1.146822-11.157883 1.408967-1.1039308.126633-1.9292783-.901509-2.47604248-3.084427-5.59935204 2.888738-8.64749733 5.019177-9.14443585 6.391317-.86902536 2.389922 4.75649974 2.568328 8.77767034 2.394047 4.02631279-.174797 7.47826159-1.984125 9.43228309-1.939266 1.9591637.045375 2.4219583 1.264313 3.8874744 1.599985 1.4860848.341343 5.2038678.289781 5.5483927-.778079.3599513-1.109109.7353291-10.851296-.4525103-10.786843z" fill="#2e2e2e"/><path d="m12.1101522.86779688 25.5392482-.86779688.1908271.35426816c1.2392407 2.35686922 8.0295583 16.15641884 5.932822 31.84156894-2.9430687 22.0163477-12.0202012 47.8264529-12.3864906 51.7693035-.6530546 7.0296779.6530545 12.11975 1.1886185 19.3805154.5355639 7.260766-2.8400316 52.925844-2.8400316 52.925844-3.7897733 2.285766-8.2994493 2.734359-14.0329598.069094-2.9187036-41.35133-4.3908023-65.2990712-4.4162961-71.8432233-.0382406-9.8162281.8242623-83.62957382.8242623-83.62957382z" fill="#31694a"/><path d="m17.3653435 24.6811351-.1713448 1.6312324c-1.7627058 17.2009424-3.2517601 53.729444-2.6233216 59.3630029l.0879721.7140466c.7037975 6.2150454.5162111 21.816479-.5627593 46.804302l-.9570236-14.342106c-1.1587349-17.761575-1.7740765-28.9869001-1.8461434-33.6763345l-.006833-.6779078c-.0382406-9.8162281.8242623-83.62957382.8242623-83.62957382l5.3861463-.18281812c.5756939 9.43800994.5320423 17.43672874-.130955 23.99615634z" fill="#fff" fill-opacity=".192499"/></g><path d="m2.28201581 6.67470246c-3.1424842.34473906-2.91969614 5.88455004.90569209 6.17379214.78186883 5.3403985 3.57023728 7.8847891 6.9697486 8.1792047l-.1885491 8.0776172 15.0370214-.0089359s-4.2343802-5.7063016-4.0233178-13.5181922c.2110624-7.81236094-.1416463-15.15111719-.1416463-15.15111719l-19.47636666.35038281z" fill="url(#n)" transform="translate(442.091961 145.694514)"/><g transform="translate(465.333333 167.8)"><path d="m35.3808672 23.0349029s-.6575766-4.4914844-.4488593-7.4469281c.3860096-5.4659719-.3522397-10.07691563.8409662-10.79414219 1.5304368-.91993125 2.4830379 7.72234929 2.4830379 7.72234929s7.3726384-14.11389773 9.1948102-12.36997898c1.8221718 1.74344844-1.1810128 8.52817813-.5783124 10.72124528.6027003 2.1925969-5.4200817 12.800025-5.4200817 12.800025l-10.8491256 27.9877882-3.7460668-15.2180308z" fill="#ffe2e2"/><path d="m3.07103724 28.829617s13.23923906 20.8889297 16.16409446 24.9402015c3.0679089 4.2483329 8.4861145 6.1295829 12.3312019-.6480906.4686987-.8263427 1.3074487-2.3942211 2.5162501-4.7036351-1.0340909-6.2236551-3.1363642-11.3607671-7.4711235-14.2270191-1.2744594 1.8744226-1.9116891 2.8116339-1.9116891 2.8116339s-8.7909823-16.1552344-11.53151-19.9671172c-7.39046619-10.27962029-18.65087825-1.0487969-10.09722386 11.7940266z" fill="#88cea7"/></g><g transform="translate(431.146106 173.035778)"><path d="m38.9514581 3.32851306c3.3547307 4.94168471 8.9458278 21.71358244 9.262936 25.48672114.3572787 4.3523278-4.2958512 11.2854975-4.372411 17.5861164-.0680531 6.3014772 3.4707076 26.874571 2.4073781 28.6469151-.6677538 1.1219793-17.0670323 6.7508417-30.4732016 5.2933736-11.57541257-1.2584351-16.18918754-8.777684-15.61575328-10.1297702 1.56522106-3.6905955 8.82988836-14.4621543 8.08981101-19.4908052-.73157071-5.0277926-4.98000135-23.5880547-7.08964713-29.9049808-2.10113913-6.3169262-1.40051711-12.94901019 2.52104217-15.66717666 1.94040771-1.34496275 7.11825813-5.16601168 16.33908663-5.14884881 9.2208284.01787107 18.6706029 2.94523241 18.9307591 3.32845543z" fill="#6bca95" transform="matrix(-1 0 0 1 48.23396 0)"/><path d="m4.41347 14.0164048.10326056-.0521885c6.21294264-3.1099539 9.94487154-3.2473222 11.19578664-.412105 1.5695658 3.5574438-2.3351303 13.4157326-11.71408828 29.5748664-1.12865348-5.3232586-4.27501036-10.7041113-3.97886303-14.3117435.18351661-2.1835878 2.13337601-8.7206668 4.39390411-14.7988294z" fill="#000" fill-opacity=".159856"/></g><g transform="translate(368 175.8)"><path d="m18.2183843 40.6511071s-9.28392867.5432125-10.8847195-.776014c-1.60079083-1.3187563-7.9772196-7.8857344-7.28071378-9.4288297.69650583-1.542625 8.10995127 1.7204031 8.60571333.7393312.63740837-1.2604375-2.6528195-5.7570953.2302925-6.0190594.74247052-.067725 1.26684325 2.7000641 3.35729875 4.5229954 2.0899866 1.8234015 6.3375011 5.0676187 6.3375011 5.0676187l32.0269655-5.0676187 2.9898756 10.2781784z" fill="#ffe2e2"/><path d="m69.5021184 2.77777899c-7.3337139 6.9568625-17.7177146 23.38440781-19.9301173 24.83155941-.3244505.2122498-1.8855543.8784959-4.6833114 1.9987381-1.7655335 4.7111227 1.2194485 10.0491887 5.5583828 12.3347532 3.1729878-.4621685 5.1325847-.801637 5.8787905-1.0184054 5.7155691-1.6597328 15.7201936-16.79074 19.8777202-21.6203328 11.4311516-13.27900287.6322491-23.4827047-6.7014648-16.52631251z" fill="#88cea7"/></g><path d="m73.3322137 39.2087539c7.6949914-12.2852903 9.3343267-27.9275543 14.7901887-33.17789039 4.3308527-4.1677066 11.2051577-3.01155611 11.2051577-3.01155611s5.9537949-5.00746007 11.7921719 0c5.838376 5.00746008 5.933044 22.4216391 1.873202 33.3666296s-8.319752 23.614063-24.2898149 23.614063c-8.9484026 0-24.0621582-6.9153938-15.3709054-20.7912461z" fill="#28211d" transform="matrix(-1 0 0 1 554.533602 135)"/><g transform="translate(481 79)"><path d="m7.8 3.13793103h34.4842105c4.3078211 0 7.8 3.49217896 7.8 7.79999997v44.0206897c0 4.307821-3.4921789 7.8-7.8 7.8h-34.4842105c-4.30782105 0-7.8-3.492179-7.8-7.8v-44.0206897c0-4.30782101 3.49217895-7.79999997 7.8-7.79999997z" fill="#ff9f43"/><path d="m9.37368421 7.32183908h31.33684209c2.8718807 0 5.2 2.3281193 5.2 5.20000002v40.8528735c0 2.8718807-2.3281193 5.2-5.2 5.2h-31.33684209c-2.8718807 0-5.2-2.3281193-5.2-5.2v-40.8528735c0-2.87188072 2.3281193-5.20000002 5.2-5.20000002z" fill="#fff"/><g transform="translate(34.432895 42.885057)"><ellipse cx="13.042763" cy="13.074713" fill="#28c76f" rx="13.042763" ry="13.074713"/><path d="m16.5691511 8.92879901c.364549-.62279642 1.1637169-.83142336 1.7849915-.46598131.5798562.34107924.7998065 1.06168724.5301641 1.662609l-.0653215.126755-4.3727792 7.4704658c-.0937113.1600967-.205988.3085172-.334489.4421672-.8569465.8912837-2.2458058.9586154-3.18258.1838271l-.1370025-.1225364-3.35689131-3.2433971c-.51864499-.5011099-.53385262-1.3288145-.03396719-1.84873.46655974-.4852544 1.21692453-.5308847 1.73657716-.1273911l.10763532.0933407 3.11747742 3.0128782z" fill="#fff"/></g><g fill="#467fff" fill-rule="nonzero"><path d="m11.4801875 18.8275862h27.1238355c.5776771 0 1.045977.4682999 1.045977 1.045977 0 .5776772-.4682999 1.045977-1.045977 1.045977h-27.1238355c-.5776771 0-1.045977-.4682998-1.045977-1.045977 0-.5776771.4682999-1.045977 1.045977-1.045977z" opacity=".33996"/><path d="m11.4801875 27.1954023h27.1238355c.5776771 0 1.045977.4682999 1.045977 1.045977 0 .5776772-.4682999 1.045977-1.045977 1.045977h-27.1238355c-.5776771 0-1.045977-.4682998-1.045977-1.045977 0-.5776771.4682999-1.045977 1.045977-1.045977z" opacity=".33996"/><path d="m11.4801875 35.5632184h27.1238355c.5776771 0 1.045977.4682999 1.045977 1.045977 0 .5776772-.4682999 1.045977-1.045977 1.045977h-27.1238355c-.5776771 0-1.045977-.4682998-1.045977-1.045977 0-.5776771.4682999-1.045977 1.045977-1.045977z" opacity=".33996"/></g><path d="m11.477632 0h27.128947v11.505747h-27.128947z" fill="#ff9f43"/></g><g transform="translate(258 199)"><circle cx="14.76225" cy="14.76225" fill="#ff9f43" r="14.76225"/><path d="m18.8116588 7.45662074c.2301178-.22875901.5932438-.24202374.8387934-.04053621l.047468.04316065 4.91633 4.94555242c.2272498.2316084.2381405.5948133.0350521.8390405l-.0434701.0471848-4.9134513 4.820987c-.1171654.1149606-.2747583.1793626-.4389036.1793626-.3257489 0-.5934485-.248538-.6238155-.5663304l-.0028687-.0603538-.0002036-2.0086672-8.1894164-.0429191c-.324533-.0017077-.59038453-.2498713-.62053822-.5665407l-.00284852-.0601348-.0004232-1.6657633-3.94853684 4.0525579 3.94853684 3.9370263.0004232-1.6216425c0-.3257488.24853794-.5934485.56633034-.6238154l.0603539-.0028688h5.7794722c.2943097 0 .5328948.2385851.5328948.5328947 0 .2759153-.209694.502854-.4784094.5301435l-.0544854.0027513-5.3407902-.0000628.0004232 2.2411191c0 .3257488-.2485379.5934485-.5663303.6238154l-.0603539.0028688c-.1451592 0-.28513623-.0503624-.39656086-.1414266l-.04593716-.0414913-5.00522965-4.9909244c-.2278858-.2272345-.24462464-.5867-.04844494-.8333382l.04207538-.0477506 5.00522965-5.1373653c.24152658-.2479028.63828738-.2530717.88619008-.0115451.1059404.1032155.1714652.2400485.1861911.3858862l.0031706.0629814-.0004232 2.3088285 8.1900432.0434134c.324533.0017077.5903845.2498713.6205382.5665407l.0028485.0601349-.0002036 1.3992478 3.8513369-3.7792895-3.8513369-3.87393155.0002036 1.54437505c0 .3257489-.248538.5934485-.5663303.6238155l-.0603539.0028687h-5.6764387c-.2943097 0-.5328948-.2385851-.5328948-.5328947 0-.2759153.209694-.5028539.4784094-.5301435l.0544854-.0027512 5.2371299-.0002593.0002036-2.16936793c0-.14599387.0509416-.28671387.1429487-.39841628z" fill="#fff" fill-rule="nonzero" transform="matrix(.78801075 -.61566148 .61566148 .78801075 -6.200196 12.263154)"/></g></g></g></svg>