<svg fill="none" height="494" viewBox="0 0 704 494" width="704" xmlns="http://www.w3.org/2000/svg" xmlns:xlink="http://www.w3.org/1999/xlink"><filter id="a" color-interpolation-filters="sRGB" filterUnits="userSpaceOnUse" height="199.775" width="263.338" x="214.033" y="107.876"><feFlood flood-opacity="0" result="BackgroundImageFix"/><feColorMatrix in="SourceAlpha" type="matrix" values="0 0 0 0 0 0 0 0 0 0 0 0 0 0 0 0 0 0 127 0"/><feOffset dx="6" dy="4"/><feGaussianBlur stdDeviation="15"/><feColorMatrix type="matrix" values="0 0 0 0 0 0 0 0 0 0 0 0 0 0 0 0 0 0 0.264724 0"/><feBlend in2="BackgroundImageFix" mode="normal" result="effect1_dropShadow"/><feBlend in="SourceGraphic" in2="effect1_dropShadow" mode="normal" result="shape"/></filter><filter id="b" color-interpolation-filters="sRGB" filterUnits="userSpaceOnUse" height="163.311" width="137.809" x="480.773" y="117.088"><feFlood flood-opacity="0" result="BackgroundImageFix"/><feColorMatrix in="SourceAlpha" type="matrix" values="0 0 0 0 0 0 0 0 0 0 0 0 0 0 0 0 0 0 127 0"/><feOffset dx="8" dy="9"/><feGaussianBlur stdDeviation="10.5"/><feColorMatrix type="matrix" values="0 0 0 0 0.276721 0 0 0 0 0.276721 0 0 0 0 0.276721 0 0 0 0.208725 0"/><feBlend in2="BackgroundImageFix" mode="normal" result="effect1_dropShadow"/><feBlend in="SourceGraphic" in2="effect1_dropShadow" mode="normal" result="shape"/></filter><filter id="c" color-interpolation-filters="sRGB" filterUnits="userSpaceOnUse" height="93.6507" width="92.8768" x="503.299" y="130.04"><feFlood flood-opacity="0" result="BackgroundImageFix"/><feColorMatrix in="SourceAlpha" type="matrix" values="0 0 0 0 0 0 0 0 0 0 0 0 0 0 0 0 0 0 127 0"/><feOffset dx="8" dy="9"/><feGaussianBlur stdDeviation="14"/><feColorMatrix type="matrix" values="0 0 0 0 0.0755213 0 0 0 0 0.582569 0 0 0 0 0.878793 0 0 0 0.229458 0"/><feBlend in2="BackgroundImageFix" mode="normal" result="effect1_dropShadow"/><feColorMatrix in="SourceAlpha" type="matrix" values="0 0 0 0 0 0 0 0 0 0 0 0 0 0 0 0 0 0 127 0"/><feOffset dy="2"/><feGaussianBlur stdDeviation="7.5"/><feColorMatrix type="matrix" values="0 0 0 0 0.503982 0 0 0 0 0.700178 0 0 0 0 1 0 0 0 0.233829 0"/><feBlend in2="effect1_dropShadow" mode="normal" result="effect2_dropShadow"/><feBlend in="SourceGraphic" in2="effect2_dropShadow" mode="normal" result="shape"/></filter><filter id="d" color-interpolation-filters="sRGB" filterUnits="userSpaceOnUse" height="81.4212" width="161.893" x="229" y="281"><feFlood flood-opacity="0" result="BackgroundImageFix"/><feColorMatrix in="SourceAlpha" type="matrix" values="0 0 0 0 0 0 0 0 0 0 0 0 0 0 0 0 0 0 127 0"/><feOffset dx="6" dy="7"/><feGaussianBlur stdDeviation="8.5"/><feColorMatrix type="matrix" values="0 0 0 0 0.561707 0 0 0 0 0.561707 0 0 0 0 0.561707 0 0 0 0.208725 0"/><feBlend in2="BackgroundImageFix" mode="normal" result="effect1_dropShadow"/><feBlend in="SourceGraphic" in2="effect1_dropShadow" mode="normal" result="shape"/></filter><filter id="e" color-interpolation-filters="sRGB" filterUnits="userSpaceOnUse" height="73.4212" width="153.893" x="232" y="348"><feFlood flood-opacity="0" result="BackgroundImageFix"/><feColorMatrix in="SourceAlpha" type="matrix" values="0 0 0 0 0 0 0 0 0 0 0 0 0 0 0 0 0 0 127 0"/><feOffset dx="5" dy="5"/><feGaussianBlur stdDeviation="6.5"/><feColorMatrix type="matrix" values="0 0 0 0 0.649655 0 0 0 0 0.649655 0 0 0 0 0.649655 0 0 0 0.208725 0"/><feBlend in2="BackgroundImageFix" mode="normal" result="effect1_dropShadow"/><feBlend in="SourceGraphic" in2="effect1_dropShadow" mode="normal" result="shape"/></filter><linearGradient id="f" gradientUnits="userSpaceOnUse" x1="326.855" x2="326.855" y1="370.083" y2="385.495"><stop offset="0" stop-color="#71ffb0"/><stop offset="1" stop-color="#91f688"/></linearGradient><linearGradient id="g" gradientUnits="userSpaceOnUse" x1="186.895" x2="178.044" y1="188.881" y2="189.696"><stop offset="0" stop-color="#4d63a0"/><stop offset="1" stop-color="#222735"/></linearGradient><linearGradient id="h" gradientUnits="userSpaceOnUse" x1="177.015" x2="192.022" y1="287.953" y2="283.585"><stop offset="0" stop-color="#2e4175"/><stop offset="1" stop-color="#222735"/></linearGradient><linearGradient id="i" gradientUnits="userSpaceOnUse" x1="530.384" x2="532.92" y1="221.14" y2="261.061"><stop offset="0" stop-color="#fdc6c6"/><stop offset="1" stop-color="#a47070"/></linearGradient><path clip-rule="evenodd" d="m620.145 49.168c1.577-2.4293 5.133-2.4293 6.71 0l73.134 112.654c1.728 2.661-.182 6.178-3.355 6.178h-146.268c-3.173 0-5.083-3.517-3.355-6.178z" fill="#ea5455" fill-rule="evenodd" opacity=".05"/><path clip-rule="evenodd" d="m94.1396 244.204c1.5757-2.44 5.1451-2.44 6.7204 0l90.156 139.626c1.719 2.662-.192 6.17-3.36 6.17h-180.31183c-3.16828 0-5.07899-3.508-3.36038-6.17z" fill="#ea5455" fill-rule="evenodd" opacity=".05"/><path clip-rule="evenodd" d="m442.638 220.218c1.575-2.444 5.149-2.444 6.724 0l146.665 227.615c1.715 2.662-.196 6.167-3.363 6.167h-293.328c-3.167 0-5.078-3.505-3.363-6.167z" fill="#7367f0" fill-rule="evenodd" opacity=".25"/><path clip-rule="evenodd" d="m585.558 39.8163c1.549-2.6169 5.335-2.6169 6.884 0l50.985 86.1467c1.578 2.666-.344 6.037-3.442 6.037h-101.97c-3.098 0-5.02-3.371-3.442-6.037z" fill="#7367f0" fill-rule="evenodd" opacity=".25"/><path clip-rule="evenodd" d="m174.13 5.26732c1.574-2.45932 5.166-2.45932 6.74 0l36.192 56.57718c1.703 2.6625-.209 6.1555-3.369 6.1555h-72.386c-3.16 0-5.072-3.493-3.369-6.1555z" fill="#ea5455" fill-rule="evenodd" opacity=".05"/><path clip-rule="evenodd" d="m95 107.137c0-13.8828 11.254-25.137 25.137-25.137h462.532c13.883 0 25.137 11.2542 25.137 25.137v285.51c0 13.883-11.254 25.137-25.137 25.137h-462.532c-13.883 0-25.137-11.254-25.137-25.137z" fill="#313a53" fill-rule="evenodd"/><g filter="url(#a)"><path clip-rule="evenodd" d="m238.033 141.361c0-4.134 3.351-7.485 7.485-7.485h188.369c4.133 0 7.484 3.351 7.484 7.485v124.806c0 4.134-3.351 7.485-7.484 7.485h-188.369c-4.134 0-7.485-3.351-7.485-7.485z" fill="#7367f0" fill-rule="evenodd"/></g><path clip-rule="evenodd" d="m291.856 185.909c.827 0 1.497.67 1.497 1.497v30.272c0 .827-.67 1.497-1.497 1.497h-6.874c-.826 0-1.497-.67-1.497-1.497v-30.272c0-.827.671-1.497 1.497-1.497z" fill="#fff" fill-rule="evenodd" opacity=".39488"/><path clip-rule="evenodd" d="m276.307 198.453c.826 0 1.496.67 1.496 1.497v17.728c0 .827-.67 1.497-1.496 1.497h-6.875c-.826 0-1.496-.67-1.496-1.497v-17.728c0-.827.67-1.497 1.496-1.497z" fill="#fff" fill-rule="evenodd"/><path clip-rule="evenodd" d="m307.405 173.962c.827 0 1.497.67 1.497 1.497v42.219c0 .827-.67 1.497-1.497 1.497h-6.874c-.827 0-1.497-.67-1.497-1.497v-42.219c0-.827.67-1.497 1.497-1.497z" fill="#fff" fill-rule="evenodd"/><path clip-rule="evenodd" d="m322.955 179.936c.827 0 1.497.67 1.497 1.496v36.246c0 .827-.67 1.497-1.497 1.497h-6.874c-.827 0-1.497-.67-1.497-1.497v-36.246c0-.826.67-1.496 1.497-1.496z" fill="#fff" fill-rule="evenodd" opacity=".39488"/><path clip-rule="evenodd" d="m338.504 191.882c.827 0 1.497.67 1.497 1.497v24.299c0 .827-.67 1.497-1.497 1.497h-6.874c-.827 0-1.497-.67-1.497-1.497v-24.299c0-.827.67-1.497 1.497-1.497z" fill="#fff" fill-rule="evenodd"/><path clip-rule="evenodd" d="m354.054 218.762c.826 0 1.496.67 1.496 1.497v18.326c0 .826-.67 1.496-1.496 1.496h-6.875c-.826 0-1.496-.67-1.496-1.496v-18.326c0-.827.67-1.497 1.496-1.497z" fill="#fff" fill-rule="evenodd" opacity=".39488"/><path clip-rule="evenodd" d="m369.602 218.762c.827 0 1.497.67 1.497 1.497v35.051c0 .826-.67 1.497-1.497 1.497h-6.874c-.826 0-1.497-.671-1.497-1.497v-35.051c0-.827.671-1.497 1.497-1.497z" fill="#fff" fill-rule="evenodd"/><path clip-rule="evenodd" d="m385.152 218.762c.827 0 1.497.67 1.497 1.497v26.091c0 .827-.67 1.497-1.497 1.497h-6.874c-.827 0-1.497-.67-1.497-1.497v-26.091c0-.827.67-1.497 1.497-1.497z" fill="#fff" fill-rule="evenodd" opacity=".39488"/><path clip-rule="evenodd" d="m400.701 218.762c.827 0 1.497.67 1.497 1.497v32.064c0 .827-.67 1.497-1.497 1.497h-6.874c-.827 0-1.497-.67-1.497-1.497v-32.064c0-.827.67-1.497 1.497-1.497z" fill="#fff" fill-rule="evenodd"/><path clip-rule="evenodd" d="m416.251 218.762c.827 0 1.497.67 1.497 1.497v18.326c0 .826-.67 1.496-1.497 1.496h-6.874c-.827 0-1.497-.67-1.497-1.496v-18.326c0-.827.67-1.497 1.497-1.497z" fill="#fff" fill-rule="evenodd" opacity=".39488"/><path clip-rule="evenodd" d="m262.554 159.562c0-.99.802-1.792 1.792-1.792h59.809c.99 0 1.792.802 1.792 1.792 0 .989-.802 1.792-1.792 1.792h-59.809c-.99 0-1.792-.803-1.792-1.792z" fill="#fff" fill-rule="evenodd" opacity=".39488"/><rect fill="#fff" height="3.58398" rx="1.79199" width="33.4909" x="262.554" y="147.615"/><path clip-rule="evenodd" d="m95 107.137c0-13.8828 11.254-25.137 25.137-25.137h55.009c13.883 0 25.137 11.2542 25.137 25.137v310.647h-80.146c-13.883 0-25.137-11.254-25.137-25.137z" fill="#2c344b" fill-rule="evenodd"/><path clip-rule="evenodd" d="m107.785 133.29c0-2.762 2.239-5 5-5h68.309c2.761 0 5 2.238 5 5v4.366c0 2.761-2.239 5-5 5h-68.309c-2.761 0-5-2.239-5-5z" fill="#fff" fill-opacity=".423924" fill-rule="evenodd"/><path clip-rule="evenodd" d="m107.785 159.627c0-2.761 2.239-5 5-5h36.346c2.761 0 5 2.239 5 5v4.366c0 2.761-2.239 5-5 5h-36.346c-2.761 0-5-2.239-5-5z" fill="#fff" fill-opacity=".204873" fill-rule="evenodd"/><path clip-rule="evenodd" d="m107.785 183.57c0-2.761 2.239-5 5-5h36.346c2.761 0 5 2.239 5 5v4.366c0 2.761-2.239 5-5 5h-36.346c-2.761 0-5-2.239-5-5z" fill="#fff" fill-opacity=".204873" fill-rule="evenodd"/><path clip-rule="evenodd" d="m470.561 82h112.108c13.883 0 25.137 11.2542 25.137 25.137v285.51c0 13.883-11.254 25.137-25.137 25.137h-112.108z" fill="#2c344b" fill-rule="evenodd"/><g filter="url(#b)"><path clip-rule="evenodd" d="m493.773 139.127c-.022-5.538 4.462-10.039 10-10.039h75.408c5.508 0 9.978 4.453 10 9.96l.401 101.312c.021 5.538-4.462 10.039-10 10.039h-75.409c-5.507 0-9.978-4.453-10-9.96z" fill="#fff" fill-rule="evenodd"/></g><path d="m524.098 206.504c0-1.323 1.072-2.395 2.394-2.395h30.37c1.323 0 2.395 1.072 2.395 2.395 0 1.322-1.072 2.394-2.395 2.394h-30.37c-1.322 0-2.394-1.072-2.394-2.394z" fill="#467fff" opacity=".33996"/><path d="m516.107 219.273c0-1.322 1.072-2.394 2.395-2.394h46.351c1.323 0 2.395 1.072 2.395 2.394 0 1.323-1.072 2.395-2.395 2.395h-46.351c-1.323 0-2.395-1.072-2.395-2.395z" fill="#467fff" opacity=".33996"/><g filter="url(#c)"><ellipse cx="541.737" cy="167.866" fill="#fff" rx="18.4384" ry="18.8254"/></g><path clip-rule="evenodd" d="m542.085 167.241c2.604 0 4.716-2.109 4.716-4.711 0-2.601-2.112-4.711-4.716-4.711-2.605 0-4.717 2.11-4.717 4.711 0 2.602 2.112 4.711 4.717 4.711zm-.553 1.334c-3.892 0-7.047 3.155-7.047 7.047 0 .444.361.805.806.805h13.587c.445 0 .806-.361.806-.805 0-3.892-3.155-7.047-7.047-7.047z" fill="#7367f0" fill-rule="evenodd"/><path clip-rule="evenodd" d="m491.337 324.036c0-2.762 2.238-5 5-5h90.682c2.762 0 5 2.238 5 5v68.213c0 2.762-2.238 5-5 5h-90.682c-2.762 0-5-2.238-5-5z" fill="#fff" fill-opacity=".345908" fill-rule="evenodd"/><path clip-rule="evenodd" d="m95 107.137c0-13.8828 11.254-25.137 25.137-25.137h462.532c13.883 0 25.137 11.2542 25.137 25.137v2.581h-512.806z" fill="#283046" fill-rule="evenodd"/><ellipse cx="115.775" cy="95.5676" fill="#f5818d" rx="3.19626" ry="3.1924"/><ellipse cx="128.561" cy="95.5676" fill="#ffbd63" rx="3.19626" ry="3.1924"/><ellipse cx="142.145" cy="95.5676" fill="#4ce47a" rx="3.19626" ry="3.1924"/><g filter="url(#d)"><path clip-rule="evenodd" d="m240 296.988c0-3.307 2.681-5.988 5.988-5.988h115.918c3.307 0 5.987 2.681 5.987 5.988v35.446c0 3.306-2.68 5.987-5.987 5.987h-115.918c-3.307 0-5.988-2.681-5.988-5.987z" fill="#fff" fill-rule="evenodd"/></g><path clip-rule="evenodd" d="m281.673 318.782c0-.794.643-1.437 1.437-1.437h23.95c.794 0 1.437.643 1.437 1.437 0 .794-.643 1.437-1.437 1.437h-23.95c-.794 0-1.437-.643-1.437-1.437z" fill="#ff9f43" fill-rule="evenodd" opacity=".2"/><path clip-rule="evenodd" d="m281.673 310.639c0-.794.643-1.437 1.437-1.437h14.37c.794 0 1.437.643 1.437 1.437 0 .794-.643 1.437-1.437 1.437h-14.37c-.794 0-1.437-.643-1.437-1.437z" fill="#ff9f43" fill-rule="evenodd" opacity=".5"/><path d="m328.737 309.333c.412-.903 1.477-1.301 2.38-.889.298.136.553.35.738.62l.065.104 3.523 5.99c.034.057.107.076.164.043l.015-.011.014-.013 1.874-2.119c.658-.743 1.793-.813 2.536-.156.049.044.095.089.139.138l.064.074 2.749 3.375c.041.052.117.059.168.018l.014-.014.012-.016 4.342-7.017c.522-.843 1.629-1.104 2.473-.582.131.081.25.178.356.289l.076.086 2.023 2.418c.297.355.25.884-.105 1.181-.335.28-.826.254-1.129-.049l-.052-.056-2.022-2.418c-.009-.01-.018-.018-.029-.025-.047-.029-.106-.022-.145.014l-.02.025-4.342 7.016c-.105.17-.238.321-.393.448-.743.605-1.823.517-2.461-.182l-.066-.077-2.749-3.376c-.004-.005-.009-.01-.014-.014-.041-.036-.1-.039-.144-.01l-.025.021-1.874 2.119c-.125.141-.272.262-.435.358-.827.486-1.883.236-2.407-.554l-.052-.084-3.523-5.991c-.012-.021-.031-.038-.053-.048-.05-.023-.108-.008-.142.032l-.017.027-3.432 7.532c-.128.281-.326.523-.574.705l-.095.065-4.069 2.594c-.391.249-.909.135-1.158-.256-.235-.368-.146-.851.194-1.113l.062-.044 4.07-2.595c.013-.008.024-.019.033-.031l.011-.02z" fill="#ff9f43"/><circle cx="263.71" cy="315.19" fill="#ff9f43" r="9.81953"/><g filter="url(#e)"><path clip-rule="evenodd" d="m240 361.988c0-3.307 2.681-5.988 5.988-5.988h115.918c3.307 0 5.987 2.681 5.987 5.988v35.446c0 3.306-2.68 5.987-5.987 5.987h-115.918c-3.307 0-5.988-2.681-5.988-5.987z" fill="#fff" fill-rule="evenodd"/></g><path clip-rule="evenodd" d="m282.631 384.261c0-.794.643-1.437 1.437-1.437h23.95c.794 0 1.437.643 1.437 1.437 0 .794-.643 1.437-1.437 1.437h-23.95c-.794 0-1.437-.643-1.437-1.437z" fill="#28c76f" fill-rule="evenodd" opacity=".454078"/><path clip-rule="evenodd" d="m282.631 376.118c0-.794.643-1.437 1.437-1.437h14.37c.794 0 1.437.643 1.437 1.437 0 .794-.643 1.437-1.437 1.437h-14.37c-.794 0-1.437-.643-1.437-1.437z" fill="#28c76f" fill-rule="evenodd"/><path clip-rule="evenodd" d="m321.909 385.495 4.91-8.618c.662-1.162 2.147-1.557 3.299-.877l1.215.717c.849.502 1.92.431 2.696-.178l2.147-1.686c.799-.628 1.906-.683 2.764-.138l1.163.74c1.301.826 3.055.223 3.885-1.075.79-1.236 1.914-2.515 3.336-2.914 3-.84 6.832 0 6.832 0v14.029z" fill="url(#f)" fill-rule="evenodd"/><path clip-rule="evenodd" d="m321.909 385.495 5.299-4.215c.816-.65 1.958-.696 2.825-.115l.306.205c.862.578 1.997.536 2.813-.105l2.066-1.622c.799-.628 1.906-.683 2.764-.138l1.813 1.153c1.065.676 2.475.412 3.329-.517 1.204-1.312 3.002-2.974 4.74-3.461 3-.841 6.292-.424 6.292-.424v9.239z" fill="#28c76f" fill-rule="evenodd"/><circle cx="263.71" cy="380.19" fill="#28c76f" r="9.81953"/><ellipse cx="367.75" cy="358.457" fill="#28c76f" rx="14.5737" ry="14.9994"/><path clip-rule="evenodd" d="m362.765 357.328c-.434-.525-1.211-.599-1.737-.166-.526.434-.6 1.211-.167 1.737l4.285 5.188c.517.625 1.443.714 2.069.198.091-.076.173-.162.243-.256l6.14-8.249c.407-.546.294-1.319-.253-1.726-.547-.406-1.321-.293-1.727.254l-5.379 7.226z" fill="#fff" fill-rule="evenodd"/><path clip-rule="evenodd" d="m180.62 467.175s-.125 7.893 4.766 10.697 12.469 8.014 12.469 8.014l-28.827.968.822-19.75z" fill="#f8cfcf" fill-rule="evenodd"/><path clip-rule="evenodd" d="m168.022 475.873-.469 12.805h6.695l.459-1.649s2.521-.103 3.978.61c1.54.753 1.746 1.119 1.746 1.119l21.239.044s1.047-4.139-5.427-7.132c-6.474-2.995-11.187-7.244-12.083-7.679-.902-.438-2.721-.686-4.003.344-1.281 1.029-2.295 3.735-5.199 3.82-3.737.109-5.884-4.448-6.936-2.282z" fill="#4b4b4b" fill-rule="evenodd"/><path d="m186.172 475.38-2.202 2.109" stroke="#fff" stroke-linecap="round" stroke-width="2"/><path d="m189.383 476.979-2.202 2.109" stroke="#fff" stroke-linecap="round" stroke-width="2"/><path d="m192.593 478.578-2.201 2.109" stroke="#fff" stroke-linecap="round" stroke-width="2"/><path clip-rule="evenodd" d="m159.521 296.651s8.008 87.33 8.257 93.401-2.572 16.547-2.517 27.903 1.03 51.377 1.03 51.377l17.666.371s7.425-72.323 7.505-83.168.761-88.84.761-88.84z" fill="#383838" fill-rule="evenodd"/><path clip-rule="evenodd" d="m172.254 392.77.02.216c.266 3.702-2.056 15.883-6.965 36.541l-.048-11.572c-.054-11.153 2.666-21.458 2.527-27.574l-.01-.329c-.084-2.046-1.049-13.32-2.292-27.371l.58 2.058c3.406 12.189 5.469 21.533 6.188 28.031z" fill="#fff" fill-opacity=".192499" fill-rule="evenodd" opacity=".283552"/><path clip-rule="evenodd" d="m138.518 465.788-3.382 20.46 12.469-.062.394-20.719z" fill="#f8cfcf" fill-rule="evenodd"/><path clip-rule="evenodd" d="m137.386 474.592c-1.344.291-2.318 1.458-2.363 2.833l-.094 2.823c-1.757 1.946-2.591 7.554-2.684 8.216-.006.043-.01.086-.005.13.284 2.753 18.308 2.723 20.086.144.089-.129.095-.287.069-.441-.199-1.199-1.212-6.72-3.149-8.233l-.01-2.799c-.005-1.354-.916-2.537-2.224-2.887l-1.669-.447c-1.823-2.655-4.307-2.561-6.436.332z" fill="#4b4b4b" fill-rule="evenodd"/><path d="m139.615 476.474h5.048" stroke="#fff" stroke-linecap="round" stroke-width="2"/><path d="m139.615 478.872h5.048" stroke="#fff" stroke-linecap="round" stroke-width="2"/><path d="m140.418 481.271h3.442" stroke="#fff" stroke-linecap="round" stroke-width="2"/><path clip-rule="evenodd" d="m144.807 297.361s-5.572 59.92-5.496 71.395 1.715 16.514-.618 24.746-4.322 73.936-4.322 73.936l17.25 1.885s11.02-70.307 12.218-80.055c1.199-9.748 16.009-92.734 16.009-92.734z" fill="#2e2e2e" fill-rule="evenodd"/><path clip-rule="evenodd" d="m149.466 338.03-1.052 3.803c-3.081 11.224-5.925 23.094-5.18 40.049l.036.774c.183 3.673-2.157 24.989-7.02 63.949l-.463 2.738c-.477 2.793-.901 5.176-1.273 7.149l.105-3.45c.62-19.046 2.288-53.238 4.074-59.54 2.333-8.232.694-13.271.618-24.746-.053-8.033 2.661-39.803 4.295-58.143l1.201-13.252 7.281-.172.018 2.041c.128 18.841-.752 31.774-2.64 38.8z" fill="#fff" fill-opacity=".192499" fill-rule="evenodd" opacity=".283552"/><path clip-rule="evenodd" d="m229.585 223.519s-1.437-7.974-.92-9.588c.441-1.396 4.611-3.408 4.611-3.408s7.252-11.412 8.839-10.25c1.291.942-3.777 9.355-3.777 9.355s4.622 4.83 4.557 6.989c-.064 2.159-7.543 8.917-7.543 8.917z" fill="#f8cfcf" fill-rule="evenodd"/><path clip-rule="evenodd" d="m233.432 210.408s3.212-.435 3.723.561c.435.848-2.233 3.254-2.233 3.931 0 .676.038 5.796.253 5.842.215.047 3.217-8.354 2.577-10.131-.527-1.459-4.32-.203-4.32-.203z" fill="#f28585" fill-rule="evenodd"/><path clip-rule="evenodd" d="m191.27 233.664c-8.413-7.32-21.046 5.877-6.96 18.146 5.375 4.68 22.256 16.356 26.394 18.923 6.588 4.086 12.001.399 14.226-6.031 1.887-5.452 13.175-34.634 11.739-38.92-.937-2.795-5.964-5.515-8.487-3.316-3.688 3.215-14.968 31.415-14.968 31.415s-12.379-11.894-21.944-20.217z" fill="#877bff" fill-rule="evenodd"/><path clip-rule="evenodd" d="m213.214 253.881s3.695 4.514 3.961 3.824c.267-.689-2.93-6.489-2.93-6.489z" fill="#000" fill-opacity=".159856" fill-rule="evenodd"/><path d="m227.202 224.274c2.935-1.369 6.142.323 7.909 3.039" stroke="#5386bf" stroke-linecap="round"/><path clip-rule="evenodd" d="m155.047 225.392s4.776-1.117 4.942-8.912c.166-7.796.049-10.457.049-10.457l11.324-.189s.114 8.688.116 11.831c.005 6.841 5.105 8.69 5.105 8.69s-.424 7.48-9.957 8.014c-7.443.417-11.579-8.977-11.579-8.977z" fill="#f8c5c5" fill-rule="evenodd"/><path clip-rule="evenodd" d="m181.45 197.62-.253 7.367c2.14-2.505 3.585-5.611 4.013-9.594z" fill="url(#g)" fill-rule="evenodd"/><path clip-rule="evenodd" d="m158.999 202.083c-4.694-.181-3.928 6.663.947 6.653 0 0 5.24 10.495 13.466 10.522 3.963.013 5.257-3.503 6.444-5.971 1.188-2.468 2.06-6.16 2.133-8.42.077-2.41.087-10.328.087-10.328l-23.26-.011z" fill="#f8cfcf" fill-rule="evenodd"/><path clip-rule="evenodd" d="m182.077 198.172h-16.359c-.172 2.944-1.154 5.389-3.647 7.193.071 4.313 1.52 7.453 4.032 9.656 2.187-6.244 15.565-4.536 14.592-.462-2.044 8.558-21.205 8.752-20.042-10.945-.765-1.038-3.499-1.232-4.398-.194-1.537-4.303-.881-10.391 3.563-11.271-3.489-9.17 43.952-11.11 22.259 6.023z" fill="#424242" fill-rule="evenodd"/><path d="m171.595 214.181s2.131 1.56 4.937-.146" stroke="#cc6969" stroke-linecap="round"/><path d="m159.73 205.99c.049-1.098-.288-1.97-1.412-2.145" stroke="#de6767" stroke-linecap="round"/><path clip-rule="evenodd" d="m156.936 224.175 13.664 8.905 6.162-7.19s12.98 4.036 15.388 8.755c3.475 6.81-1.103 61.368.892 64.66 4.253 7.015-1.401 11.831-20.121 13.601-18.719 1.769-35.327.32-32.313-9.042 3.014-9.363-8.616-70.465 1.637-73.831 3.204-1.051 14.691-5.858 14.691-5.858z" fill="#7367f0" fill-rule="evenodd"/><path clip-rule="evenodd" d="m147.715 241.019c.827 1.468.4 6.553-1.28 15.254-1.432 7.414.205 15.083 4.528 21.27l.243.342c1.461 2.027 2.809 4.696 4.042 8.006 3.026 8.12-3.952 14.889 1.395 27.592l-.647-.031c-10.491-.545-17.426-3.257-15.388-9.588 2.471-7.677-4.902-50.135-1.986-67.034 5.048.994 8.078 2.391 9.093 4.189z" fill="#000" fill-opacity=".159856" fill-rule="evenodd"/><path clip-rule="evenodd" d="m156.936 224.175 12.222 7.995c-1.791 2.089-2.752 4.52-3.115 7.195-4.697-3.685-9.58-8.834-11.093-14.371z" fill="#5e54c7" fill-rule="evenodd"/><path clip-rule="evenodd" d="m171.566 231.962c2.067 1.402 3.716 3.884 5.058 6.707 1.609-3.244 2.225-7.527 2.225-12.095l-2.018-.801z" fill="#5e54c7" fill-rule="evenodd"/><path clip-rule="evenodd" d="m169.158 232.169.159.089c.732.411 1.648.29 2.249-.296 4.608 16.946 7.849 35.598 8.829 54.554l-4.809 8.013-5.625-7.499c.733-19.701.728-38.911-.803-54.861z" fill="url(#h)" fill-rule="evenodd"/><path d="m181.937 275.326c.146-1.393 1.422-2.384 2.807-2.181l10.737 1.571c1.308.191 2.232 1.381 2.094 2.695l-1.966 18.707c-.147 1.392-1.422 2.383-2.808 2.18l-10.736-1.571c-1.308-.191-2.232-1.38-2.094-2.695z" fill="#6182ec"/><path clip-rule="evenodd" d="m183.267 274.951c.152-1.439 1.505-2.439 2.925-2.16l11.451 2.249 7.746-.133c1.48-.025 2.647 1.25 2.493 2.722l-1.963 18.673c-.13 1.239-1.164 2.185-2.408 2.206l-8.35.143-11.883-2.334c-1.251-.245-2.109-1.406-1.975-2.675z" fill="#96effa" fill-rule="evenodd"/><path d="m185.388 279.347c.097-.927.963-1.575 1.879-1.407l5.078.931c.823.15 1.391.909 1.303 1.741l-.199 1.897c-.098.926-.963 1.574-1.88 1.406l-5.078-.93c-.822-.151-1.39-.91-1.303-1.741z" fill="#74cfdb"/><path d="m196.742 275.749c.046-.439.439-.758.879-.712l.324.034c.44.047.759.44.712.88l-2.306 21.943c-.046.44-.44.758-.879.712l-.325-.034c-.439-.046-.758-.44-.712-.879z" fill="#eaefff"/><path d="m197.38 275.816c.046-.439.44-.758.879-.712l.325.034c.439.047.758.44.712.88l-2.306 21.943c-.047.44-.44.759-.88.712l-.324-.034c-.44-.046-.758-.44-.712-.879z" fill="#7ad2dd"/><path clip-rule="evenodd" d="m169.97 283.68s4.168-.835 5.874-2.169c1.705-1.334 6.871-2.277 6.871-2.277l-1.653 3.467s12.661-1.184 12.96.06c.301 1.244-3.361 2.597-3.361 2.597s-1.806 3.359-3.554 5.307c-1.654 1.843-9.872 1.623-12.753.473-2.489-.993-5.196-.496-5.196-.496z" fill="#f8cfcf" fill-rule="evenodd"/><path clip-rule="evenodd" d="m136.449 235.239c4.527-9.745 20.028-3.179 16.122 7.26-3.785 10.113-12.953 33.725-12.953 33.725s29.054 3.674 31.318 5.387c3.022 2.286 1.154 8.809-1.414 9.97-2.173.982-18.313 1.556-34.105.316-7.813-.613-13.59-3.956-14.396-12.641-.565-6.081 11.067-34.63 15.428-44.017z" fill="#877bff" fill-rule="evenodd"/><path clip-rule="evenodd" d="m139.63 276.218s-2.415 4.572-1.725 4.666c.691.093 4.199-4.331 4.199-4.331z" fill="#000" fill-opacity=".159856" fill-rule="evenodd"/><path d="m168.892 281.115c.896 2.85.266 6.191-.977 8.553" stroke="#5386bf" stroke-linecap="round"/><path clip-rule="evenodd" d="m476.856 256.31-22.745 14.213s5.087 8.141 10.175 16.282c5.087 8.142 6.925 18.313 6.925 18.313l22.745-14.212s-1.838-10.172-6.925-18.313c-5.087-8.142-10.175-16.283-10.175-16.283z" fill="#e8ffff" fill-rule="evenodd"/><path d="m476.283 265.889-11.827 7.39" stroke="#000" stroke-linecap="round" stroke-opacity=".115767" stroke-width=".8"/><path d="m478.685 270.455-11.827 7.39" stroke="#000" stroke-linecap="round" stroke-opacity=".115767" stroke-width=".8"/><path d="m481.088 275.021-11.827 7.391" stroke="#000" stroke-linecap="round" stroke-opacity=".115767" stroke-width=".8"/><path d="m483.491 279.588-11.827 7.39" stroke="#000" stroke-linecap="round" stroke-opacity=".115767" stroke-width=".8"/><g clip-rule="evenodd" fill-rule="evenodd"><path d="m570.211 469.491s-.097 5.55-.097 7.337c0 1.368.056 5.421-.095 6.044-.212.877-.429 3.025-.429 3.025l11.641.31s-2.942-5.721-3.114-6.478c-.171-.756-1.471-10.238-1.471-10.238z" fill="#ffe2e2"/><path d="m579.092 484.108c-.257-.223-1.826-3.762-4.606-3.762-3.106 0-3.95 3.649-4.055 3.762-.172.186-.968.112-1.161.466-.94 1.717-1.438 5.201-.576 6.462.915 1.346 13.375 1.369 14.064.101.721-1.338-.983-4.986-2.296-6.563-.334-.401-1.236-.349-1.37-.466z" fill="#2e2e2e"/><path d="m540.917 314.288 22.744-2.479.334.311c1.621 1.549 8.666 8.742 10.69 18.573 3.821 18.56-1.293 52.84-1.18 60.356.108 7.517 3.65 12.052 5.122 22.681 1.472 10.628 1.611 58.126 1.611 58.126-3.903 2.32-7.337 2.486-11.99-.139z" fill="#26553b"/><path d="m561.233 431.311-20.316-117.023 12.646-1.378c.563 40.653 8.427 95.605 7.67 118.401z" fill="#fff" fill-opacity=".192499"/><path d="m545.576 469.062-8.275.122s.492 7.782-2.383 10.418l-10.828 5.854c-.847.712-1.339 2.92.397 3.235 5.374.975 20.766-1.339 20.766-1.339z" fill="#ffe2e2"/><path d="m545.332 480.2c-.556.03-1.261 3.179-4.415 4.794-3.615 1.852-8.873 1.147-11.158 1.409-1.656.19-2.476-3.084-2.476-3.084s-8.399 4.333-9.144 6.391c-.869 2.39 4.756 2.569 8.777 2.394 4.027-.174 7.479-1.984 9.433-1.939 1.959.045 2.422 1.264 3.887 1.6 1.486.341 5.204.29 5.548-.778.36-1.109.736-10.851-.452-10.787z" fill="#2e2e2e"/><path d="m529.635 315.897 25.539-.868.191.354c1.239 2.357 8.03 16.157 5.933 31.842-2.943 22.016-12.02 47.826-12.387 51.769-.653 7.03.654 12.12 1.189 19.381.536 7.261-2.84 52.926-2.84 52.926-3.79 2.285-8.299 2.734-14.033.069 0 0-4.378-62.027-4.416-71.843-.038-9.817.824-83.63.824-83.63z" fill="#31694a"/><path d="m534.89 339.71-.171 1.631c-1.763 17.201-3.252 53.73-2.623 59.364l.088.714c.703 6.215.516 21.816-.563 46.804l-.957-14.342c-1.159-17.762-1.774-28.987-1.846-33.677l-.007-.677c-.038-9.817.824-83.63.824-83.63l5.386-.183c.576 9.438.532 17.437-.131 23.996z" fill="#fff" fill-opacity=".192499"/><path d="m539.374 234.369c-3.143.345-2.92 5.885.905 6.174.782 5.34 3.57 7.885 6.97 8.179l-.189 8.078 15.037-.009s-4.234-5.706-4.023-13.518c.211-7.813-.142-15.151-.142-15.151l-19.476.35z" fill="url(#i)"/><path d="m595.714 272.835s-.658-4.491-.449-7.447c.386-5.466-.352-10.077.841-10.794 1.531-.92 2.483 7.722 2.483 7.722s7.373-14.114 9.195-12.37-1.181 8.529-.578 10.722c.602 2.192-5.42 12.8-5.42 12.8l-10.85 27.987-3.746-15.218z" fill="#ffe2e2"/><path d="m563.404 278.63s13.239 20.889 16.164 24.94c3.068 4.248 8.486 6.13 12.331-.648.703-1.24 2.517-4.704 2.517-4.704-1.034-6.223-3.137-11.361-7.472-14.227l-1.911 2.812s-8.791-16.155-11.532-19.967c-7.39-10.28-18.651-1.049-10.097 11.794z" fill="#88cea7"/><path d="m535.429 258.364c-3.354 4.942-8.945 21.714-9.263 25.487-.357 4.352 4.296 11.286 4.373 17.586.068 6.302-3.471 26.875-2.408 28.647.668 1.122 17.068 6.751 30.474 5.293 11.575-1.258 16.189-8.777 15.615-10.129-1.565-3.691-8.829-14.462-8.089-19.491.731-5.028 4.98-23.588 7.089-29.905 2.101-6.317 1.401-12.949-2.521-15.667-1.94-1.345-7.118-5.166-16.339-5.149-9.221.018-18.67 2.945-18.931 3.328z" fill="#6bca95"/><path d="m530.56 269.052.103-.052c6.213-3.11 9.945-3.247 11.196-.412 1.57 3.557-2.335 13.416-11.714 29.575-1.129-5.323-4.275-10.704-3.979-14.312.184-2.184 2.133-8.721 4.394-14.799z" fill="#000" fill-opacity=".159856"/><path d="m481.218 298.451s-9.284.543-10.884-.776c-1.601-1.319-7.978-7.886-7.281-9.429.696-1.542 8.11 1.721 8.606.74.637-1.261-2.653-5.757.23-6.019.742-.068 1.267 2.7 3.357 4.523s6.338 5.067 6.338 5.067l32.027-5.067 2.99 10.278z" fill="#ffe2e2"/><path d="m532.502 260.578c-7.334 6.957-17.718 23.384-19.93 24.831-.487.319-4.683 1.999-4.683 1.999-1.766 4.711 1.219 10.049 5.558 12.335 0 0 4.759-.693 5.879-1.019 5.715-1.659 15.72-16.79 19.877-21.62 11.432-13.279.633-23.483-6.701-16.526z" fill="#88cea7"/><path d="m576.201 256.209c-7.695-12.286-9.334-27.928-14.79-33.178-4.331-4.168-11.205-3.012-11.205-3.012s-5.954-5.007-11.792 0c-5.839 5.008-5.934 22.422-1.874 33.367s8.32 23.614 24.29 23.614c8.949 0 24.062-6.915 15.371-20.791z" fill="#28211d"/><path d="m576 171.938c0-4.308 3.492-7.8 7.8-7.8h34.484c4.308 0 7.8 3.492 7.8 7.8v44.021c0 4.307-3.492 7.8-7.8 7.8h-34.484c-4.308 0-7.8-3.493-7.8-7.8z" fill="#ff9f43"/><path d="m580.174 173.522c0-2.872 2.328-5.2 5.2-5.2h31.337c2.872 0 5.2 2.328 5.2 5.2v40.853c0 2.872-2.328 5.2-5.2 5.2h-31.337c-2.872 0-5.2-2.328-5.2-5.2z" fill="#fff"/></g><ellipse cx="623.475" cy="216.96" fill="#28c76f" rx="13.0428" ry="13.0747"/><path clip-rule="evenodd" d="m627.002 212.814c.364-.623 1.164-.832 1.785-.466.58.341.8 1.061.53 1.662l-.065.127-4.373 7.471c-.094.16-.206.308-.335.442-.857.891-2.245.958-3.182.184l-.137-.123-3.357-3.243c-.519-.501-.534-1.329-.034-1.849.466-.485 1.217-.531 1.737-.127l.107.093 3.118 3.013z" fill="#fff" fill-rule="evenodd"/><path d="m586.435 180.874c0-.578.468-1.046 1.046-1.046h27.123c.578 0 1.046.468 1.046 1.046 0 .577-.468 1.046-1.046 1.046h-27.123c-.578 0-1.046-.469-1.046-1.046z" fill="#467fff" opacity=".33996"/><path d="m586.435 189.241c0-.577.468-1.046 1.046-1.046h27.123c.578 0 1.046.469 1.046 1.046 0 .578-.468 1.046-1.046 1.046h-27.123c-.578 0-1.046-.468-1.046-1.046z" fill="#467fff" opacity=".33996"/><path d="m586.435 197.609c0-.577.468-1.046 1.046-1.046h27.123c.578 0 1.046.469 1.046 1.046 0 .578-.468 1.046-1.046 1.046h-27.123c-.578 0-1.046-.468-1.046-1.046z" fill="#467fff" opacity=".33996"/><rect fill="#ff9f43" height="11.5057" rx="5.2" width="27.1289" x="587.478" y="161"/><circle cx="367.762" cy="295.762" fill="#ff9f43" r="14.7622"/><path d="m366.215 287.557c.04-.321.318-.555.636-.548l.064.005 6.918.87c.322.043.554.322.545.64l-.006.064-.903 6.824c-.022.163-.106.31-.236.411-.256.201-.62.17-.84-.062l-.039-.046-1.237-1.582-6.48 5.008c-.257.198-.619.166-.838-.065l-.039-.045-1.026-1.313-.616 5.625 5.535.671-.998-1.278c-.201-.257-.17-.621.062-.84l.046-.04 4.554-3.558c.232-.181.567-.14.748.092.17.217.145.525-.05.712l-.042.036-4.208 3.288 1.38 1.766c.2.257.169.621-.062.84l-.046.04c-.115.089-.256.135-.4.132l-.062-.004-7.016-.852c-.32-.038-.554-.311-.552-.626l.004-.064.781-7.13c.038-.344.348-.592.692-.554.147.016.283.083.384.189l.041.048 1.421 1.819 6.481-5.008c.257-.198.619-.166.838.065l.039.045.861 1.103.708-5.349-5.42-.682.951 1.217c.201.257.17.621-.062.84l-.046.04-4.473 3.494c-.232.182-.566.141-.748-.091-.17-.218-.144-.526.051-.713l.041-.035 4.127-3.225-1.336-1.709c-.089-.116-.136-.258-.132-.402z" fill="#fff"/></svg>