<svg fill="none" height="507" viewBox="0 0 562 507" width="562" xmlns="http://www.w3.org/2000/svg" xmlns:xlink="http://www.w3.org/1999/xlink"><filter id="a" color-interpolation-filters="sRGB" filterUnits="userSpaceOnUse" height="215.873" width="214.362" x=".563437" y="136.563"><feFlood flood-opacity="0" result="BackgroundImageFix"/><feBlend in="SourceGraphic" in2="BackgroundImageFix" mode="normal" result="shape"/><feGaussianBlur result="effect1_foregroundBlur" stdDeviation="2.71828"/></filter><filter id="b" color-interpolation-filters="sRGB" filterUnits="userSpaceOnUse" height="160.486" width="223.848" x="151.672" y="296"><feFlood flood-opacity="0" result="BackgroundImageFix"/><feColorMatrix in="SourceAlpha" type="matrix" values="0 0 0 0 0 0 0 0 0 0 0 0 0 0 0 0 0 0 127 0"/><feOffset dx="5" dy="5"/><feGaussianBlur stdDeviation="10"/><feColorMatrix type="matrix" values="0 0 0 0 0.0862745 0 0 0 0 0.113725 0 0 0 0 0.192157 0 0 0 0.7 0"/><feBlend in2="BackgroundImageFix" mode="normal" result="effect1_dropShadow"/><feBlend in="SourceGraphic" in2="effect1_dropShadow" mode="normal" result="shape"/></filter><filter id="c" color-interpolation-filters="sRGB" filterUnits="userSpaceOnUse" height="139.723" width="218.281" x="156.677" y="174"><feFlood flood-opacity="0" result="BackgroundImageFix"/><feColorMatrix in="SourceAlpha" type="matrix" values="0 0 0 0 0 0 0 0 0 0 0 0 0 0 0 0 0 0 127 0"/><feOffset dx="6" dy="4"/><feGaussianBlur stdDeviation="7"/><feColorMatrix type="matrix" values="0 0 0 0 0.0189934 0 0 0 0 0.0189934 0 0 0 0 0.0189934 0 0 0 0.11 0"/><feBlend in2="BackgroundImageFix" mode="normal" result="effect1_dropShadow"/><feBlend in="SourceGraphic" in2="effect1_dropShadow" mode="normal" result="shape"/></filter><linearGradient id="d"><stop offset="0" stop-color="#fdc6c6"/><stop offset="1" stop-color="#fab2b2"/></linearGradient><linearGradient id="e" gradientUnits="userSpaceOnUse" x1="108.297" x2="109.454" xlink:href="#d" y1="474.323" y2="500.285"/><linearGradient id="f" gradientUnits="userSpaceOnUse" x1="48.1839" x2="50.2903" xlink:href="#d" y1="476.621" y2="499.587"/><linearGradient id="g"><stop offset="0" stop-color="#ffafaf"/><stop offset="1" stop-color="#f07777"/></linearGradient><linearGradient id="h" gradientUnits="userSpaceOnUse" x1="64.3142" x2="73.8016" xlink:href="#g" y1="187.794" y2="231.539"/><linearGradient id="i" gradientUnits="userSpaceOnUse" x1="66.6994" x2="72.7913" xlink:href="#d" y1="179.45" y2="209.06"/><linearGradient id="j" gradientUnits="userSpaceOnUse" x1="159.942" x2="160.255" xlink:href="#d" y1="213.8" y2="244.962"/><linearGradient id="k" gradientUnits="userSpaceOnUse" x1="48.3163" x2="49.2509" xlink:href="#d" y1="286.84" y2="310.713"/><linearGradient id="l" gradientUnits="userSpaceOnUse" x1="444.258" x2="434.496" xlink:href="#g" y1="299.089" y2="342.676"/><linearGradient id="m" gradientUnits="userSpaceOnUse" x1="443.5" x2="437.643" xlink:href="#d" y1="290.813" y2="319.461"/><linearGradient id="n" gradientUnits="userSpaceOnUse" x1="402.089" x2="400.685" xlink:href="#d" y1="469.477" y2="495.712"/><linearGradient id="o" gradientUnits="userSpaceOnUse" x1="374.717" x2="332.365" y1="503.263" y2="421.973"><stop offset="0" stop-color="#28324f"/><stop offset="1" stop-color="#222735"/></linearGradient><linearGradient id="p" gradientUnits="userSpaceOnUse" x1="370.207" x2="368.311" xlink:href="#d" y1="324.616" y2="349.813"/><linearGradient id="q" gradientUnits="userSpaceOnUse" x1="439.765" x2="439.209" xlink:href="#d" y1="350.643" y2="366.914"/><linearGradient id="r" gradientUnits="userSpaceOnUse" x1="371.98" x2="370.607" xlink:href="#d" y1="470.534" y2="499.778"/><mask id="s" height="352" maskUnits="userSpaceOnUse" width="165" x="156" y="144"><path clip-rule="evenodd" d="m156.107 162.933c0-10.23 8.293-18.522 18.522-18.522h21.297c.659 0 1.198.524 1.218 1.183.136 4.721 4.003 8.478 8.726 8.478h64.482c4.723 0 8.59-3.757 8.727-8.478.019-.659.558-1.183 1.218-1.183h21.296c10.229 0 18.522 8.292 18.522 18.522v313.701c0 10.229-8.293 18.522-18.522 18.522h-126.964c-10.229 0-18.522-8.293-18.522-18.522z" fill="#fff" fill-rule="evenodd"/></mask><mask id="t" height="121" maskUnits="userSpaceOnUse" width="185" x="166" y="311"><path clip-rule="evenodd" d="m166.672 319.757c0-4.836 3.92-8.757 8.757-8.757h166.334c4.837 0 8.757 3.921 8.757 8.757v102.972c0 4.836-3.92 8.757-8.757 8.757h-166.334c-4.837 0-8.757-3.921-8.757-8.757z" fill="#fff" fill-rule="evenodd"/></mask><mask id="u" height="40" maskUnits="userSpaceOnUse" width="34" x="528" y="462"><path clip-rule="evenodd" d="m533.863 462.952h21.975c1.027 0 1.859.815 1.859 1.821v.052c0 1.112.54 2.157 1.455 2.816l.569.41c.915.659 1.455 1.704 1.455 2.816v27.21c0 1.931-1.598 3.496-3.568 3.496h-25.514c-1.971 0-3.569-1.565-3.569-3.496v-27.21c0-1.112.541-2.157 1.455-2.816l.57-.41c.853-.615 1.381-1.567 1.447-2.595l.008-.273c0-1.006.832-1.821 1.858-1.821z" fill="#fff" fill-rule="evenodd"/></mask><g filter="url(#a)" opacity=".1"><ellipse cx="107.745" cy="244.5" fill="#7367f0" rx="101.745" ry="102.5"/></g><path clip-rule="evenodd" d="m336.032 157.826c0-53.5 43.372-96.8697 96.874-96.8697s96.874 43.3697 96.874 96.8697-43.372 96.87-96.874 96.87-96.874-43.37-96.874-96.87zm152.357-.44c0-30.398-24.644-55.04-55.042-55.04-30.399 0-55.043 24.642-55.043 55.04s24.644 55.04 55.043 55.04c30.398 0 55.042-24.642 55.042-55.04z" fill="#00cfe8" fill-rule="evenodd" opacity=".05"/><ellipse cx="275.822" cy="48.5" opacity=".1" rx="33.4161" ry="33.5" stroke="#7367f0" stroke-width="30"/><path d="m433.272 60.9563c53.3 0 96.508 43.3697 96.508 96.8697s-43.208 96.87-96.508 96.87c-32.11 0-61.584-15.88-79.474-41.9-6.511-9.47-4.141-22.444 5.293-28.979 9.34-6.469 22.102-4.202 28.673 5.032l.197.282c10.221 14.866 26.99 23.901 45.311 23.901 30.375 0 54.999-24.717 54.999-55.206 0-30.184-24.134-54.71-54.09-55.198l-.909-.007c-11.463 0-20.755-9.3271-20.755-20.8324 0-11.5054 9.292-20.8323 20.755-20.8323z" fill="#00cfe8" opacity=".1"/><path clip-rule="evenodd" d="m149.71 162.137c0-13.883 11.254-25.137 25.137-25.137h127.11c13.883 0 25.137 11.254 25.137 25.137v317.488c0 13.883-11.254 25.137-25.137 25.137h-127.11c-13.883 0-25.137-11.254-25.137-25.137z" fill="#8ee9f4" fill-rule="evenodd"/><path clip-rule="evenodd" d="m156.107 162.933c0-10.23 8.293-18.522 18.522-18.522h21.297c.659 0 1.198.524 1.218 1.183.136 4.721 4.003 8.478 8.726 8.478h64.482c4.723 0 8.59-3.757 8.727-8.478.019-.659.558-1.183 1.218-1.183h21.296c10.229 0 18.522 8.292 18.522 18.522v313.701c0 10.229-8.293 18.522-18.522 18.522h-126.964c-10.229 0-18.522-8.293-18.522-18.522z" fill="#262e43" fill-rule="evenodd"/><g fill="#e97eff" fill-opacity=".548951" mask="url(#s)"><ellipse cx="218.287" cy="357.888" rx="14.0671" ry="14.0525"/><path clip-rule="evenodd" d="m176.086 209.239c0-2.547 2.064-4.611 4.611-4.611h116.063c2.547 0 4.611 2.064 4.611 4.611 0 2.546-2.064 4.611-4.611 4.611h-116.063c-2.547 0-4.611-2.065-4.611-4.611z" fill-rule="evenodd"/></g><path d="m248.017 143.438c1.517 0 2.747 1.18 2.747 2.635 0 1.423-1.176 2.583-2.646 2.633l-.101.002h-31.067c-1.518 0-2.748-1.179-2.748-2.635 0-1.423 1.176-2.582 2.647-2.633l.101-.002z" fill="#00cfe8"/><path d="m259.151 142.999c1.518 0 2.748 1.229 2.748 2.745 0 1.482-1.176 2.69-2.647 2.743l-.101.002h-.144c-1.517 0-2.747-1.229-2.747-2.745 0-1.482 1.176-2.69 2.647-2.743l.1-.002z" fill="#00cfe8"/><g filter="url(#b)"><path clip-rule="evenodd" d="m166.672 319.757c0-4.836 3.92-8.757 8.757-8.757h166.334c4.837 0 8.757 3.921 8.757 8.757v102.972c0 4.836-3.92 8.757-8.757 8.757h-166.334c-4.837 0-8.757-3.921-8.757-8.757z" fill="#313a53" fill-rule="evenodd"/></g><g mask="url(#t)"><path clip-rule="evenodd" d="m162.547 306.275h192.687v35.437h-192.687z" fill="#a8edf6" fill-rule="evenodd"/><path clip-rule="evenodd" d="m181.992 332.262c0-.978.793-1.772 1.772-1.772h58.918c.978 0 1.771.794 1.771 1.772 0 .979-.793 1.772-1.771 1.772h-58.918c-.979 0-1.772-.793-1.772-1.772z" fill="#6fa3ff" fill-rule="evenodd" opacity=".365606"/><rect fill="#fff" height="3.5437" rx="1.77185" width="32.9984" x="181.992" y="320.45"/><rect fill="#ea5455" height="4.13432" rx="2.06716" width="32.9984" x="187.885" y="400.774"/><path clip-rule="evenodd" d="m187.885 414.653c0-1.141.925-2.067 2.067-2.067h17.079c1.142 0 2.067.926 2.067 2.067 0 1.142-.925 2.067-2.067 2.067h-17.079c-1.142 0-2.067-.925-2.067-2.067z" fill="#f8f9fa" fill-rule="evenodd"/><rect fill="#ff9f43" height="4.13432" rx="2.06716" width="32.9984" x="240.329" y="400.774"/><path clip-rule="evenodd" d="m240.329 414.653c0-1.141.926-2.067 2.067-2.067h17.079c1.142 0 2.067.926 2.067 2.067 0 1.142-.925 2.067-2.067 2.067h-17.079c-1.141 0-2.067-.925-2.067-2.067z" fill="#f8f9fa" fill-rule="evenodd"/><rect fill="#28c76f" height="4.13432" rx="2.06716" width="32.9984" x="294.541" y="400.774"/><g clip-rule="evenodd" fill-rule="evenodd"><path d="m294.541 414.653c0-1.141.926-2.067 2.067-2.067h17.079c1.142 0 2.067.926 2.067 2.067 0 1.142-.925 2.067-2.067 2.067h-17.079c-1.141 0-2.067-.925-2.067-2.067z" fill="#f8f9fa"/><path d="m311.04 388.814c9.356 0 16.941-7.603 16.941-16.98 0-9.378-7.585-16.981-16.941-16.981-9.357 0-16.941 7.603-16.941 16.981 0 9.377 7.584 16.98 16.941 16.98zm0-6.792c-5.614 0-10.165-4.562-10.165-10.188 0-5.627 4.551-10.189 10.165-10.189s10.164 4.562 10.164 10.189c0 5.626-4.55 10.188-10.164 10.188z" fill="#f2f2f2"/><path d="m327.981 371.834c0-9.378-7.585-16.981-16.941-16.981-1.872 0-3.389 1.521-3.389 3.396 0 1.876 1.517 3.396 3.389 3.396 5.55 0 10.061 4.459 10.163 9.997l.001.192c0 1.875 1.517 3.396 3.389 3.396 1.871 0 3.388-1.521 3.388-3.396z" fill="#28c76f"/><path d="m258.007 388.814c9.356 0 16.941-7.603 16.941-16.98 0-9.378-7.585-16.981-16.941-16.981-9.357 0-16.942 7.603-16.942 16.981 0 9.377 7.585 16.98 16.942 16.98zm0-6.792c-5.614 0-10.165-4.562-10.165-10.188 0-5.627 4.551-10.189 10.165-10.189 5.613 0 10.164 4.562 10.164 10.189 0 5.626-4.551 10.188-10.164 10.188z" fill="#f2f2f2"/></g><path d="m258.006 388.814c9.357 0 16.942-7.603 16.942-16.98 0-9.378-7.585-16.981-16.942-16.981-1.871 0-3.388 1.521-3.388 3.396 0 1.876 1.517 3.396 3.388 3.396 5.614 0 10.165 4.562 10.165 10.189 0 5.562-4.448 10.084-9.974 10.186l-.191.002c-1.871 0-3.388 1.52-3.388 3.396 0 1.875 1.517 3.396 3.388 3.396z" fill="#ff9f43"/><path clip-rule="evenodd" d="m204.973 388.814c9.357 0 16.942-7.603 16.942-16.98 0-9.378-7.585-16.981-16.942-16.981-9.356 0-16.941 7.603-16.941 16.981 0 9.377 7.585 16.98 16.941 16.98zm0-6.792c-5.613 0-10.164-4.562-10.164-10.188 0-5.627 4.551-10.189 10.164-10.189 5.614 0 10.165 4.562 10.165 10.189 0 5.626-4.551 10.188-10.165 10.188z" fill="#f2f2f2" fill-rule="evenodd"/><path clip-rule="evenodd" d="m188.032 371.834c0 9.377 7.585 16.98 16.941 16.98 9.357 0 16.942-7.603 16.942-16.98 0-9.378-7.585-16.981-16.942-16.981-1.871 0-3.388 1.521-3.388 3.396 0 1.876 1.517 3.396 3.388 3.396 5.614 0 10.165 4.562 10.165 10.189 0 5.626-4.551 10.188-10.165 10.188-5.613 0-10.164-4.562-10.164-10.188 0-1.876-1.517-3.397-3.389-3.397-1.871 0-3.388 1.521-3.388 3.397z" fill="#ea5455" fill-rule="evenodd"/></g><g filter="url(#c)"><path clip-rule="evenodd" d="m168.62 184h182.394c2.178 0 3.944 1.771 3.944 3.955v103.814c0 2.184-1.766 3.954-3.944 3.954h-182.394c-2.178 0-3.943-1.77-3.943-3.954v-103.814c0-2.184 1.765-3.955 3.943-3.955z" fill="#bfb9ff" fill-rule="evenodd"/></g><ellipse cx="303.887" cy="213.077" fill="#8e83ff" rx="11.4366" ry="11.395"/><ellipse cx="319.661" cy="213.077" fill="#ffbb7a" rx="11.4366" ry="11.395"/><path clip-rule="evenodd" d="m311.67 204.925.105-.098c2.186 2.075 3.548 5.004 3.548 8.25s-1.362 6.175-3.548 8.25c-2.188-2.074-3.55-5.004-3.55-8.25 0-3.195 1.319-6.083 3.445-8.152l.105-.098z" fill="#fff" fill-opacity=".416193" fill-rule="evenodd"/><path clip-rule="evenodd" d="m192.873 220.346h23.859c.872 0 1.578.704 1.578 1.572v17.289c0 .868-.706 1.572-1.578 1.572h-23.859c-.871 0-1.577-.704-1.577-1.572v-17.289c0-.868.706-1.572 1.577-1.572z" fill="#9f95ff" fill-rule="evenodd"/><path clip-rule="evenodd" d="m194.845 252.37h19.718c1.961 0 3.55 1.583 3.55 3.536s-1.589 3.537-3.55 3.537h-19.718c-1.96 0-3.549-1.584-3.549-3.537s1.589-3.536 3.549-3.536z" fill="#fff" fill-opacity=".646908" fill-rule="evenodd"/><path clip-rule="evenodd" d="m194.845 270.052h49.296c1.96 0 3.549 1.583 3.549 3.536s-1.589 3.537-3.549 3.537h-49.296c-1.96 0-3.549-1.584-3.549-3.537s1.589-3.536 3.549-3.536z" fill="#fff" fill-opacity=".646908" fill-rule="evenodd"/><path clip-rule="evenodd" d="m307.239 270.052h19.718c1.96 0 3.549 1.583 3.549 3.536s-1.589 3.537-3.549 3.537h-19.718c-1.96 0-3.55-1.584-3.55-3.537s1.59-3.536 3.55-3.536z" fill="#fff" fill-opacity=".646908" fill-rule="evenodd"/><path clip-rule="evenodd" d="m194.845 201.289h19.718c1.961 0 3.55 1.583 3.55 3.536s-1.589 3.537-3.55 3.537h-19.718c-1.96 0-3.549-1.584-3.549-3.537s1.589-3.536 3.549-3.536z" fill="#fff" fill-opacity=".646908" fill-rule="evenodd"/><path clip-rule="evenodd" d="m231.915 252.37h19.719c1.96 0 3.549 1.583 3.549 3.536s-1.589 3.537-3.549 3.537h-19.719c-1.96 0-3.549-1.584-3.549-3.537s1.589-3.536 3.549-3.536z" fill="#fff" fill-opacity=".646908" fill-rule="evenodd"/><path clip-rule="evenodd" d="m269.775 252.37h19.718c1.96 0 3.549 1.583 3.549 3.536s-1.589 3.537-3.549 3.537h-19.718c-1.96 0-3.549-1.584-3.549-3.537s1.589-3.536 3.549-3.536z" fill="#fff" fill-opacity=".646908" fill-rule="evenodd"/><path clip-rule="evenodd" d="m306.845 252.37h19.718c1.961 0 3.55 1.583 3.55 3.536s-1.589 3.537-3.55 3.537h-19.718c-1.96 0-3.549-1.584-3.549-3.537s1.589-3.536 3.549-3.536z" fill="#fff" fill-opacity=".646908" fill-rule="evenodd"/><path clip-rule="evenodd" d="m126.372 479.69s-.136 8.684 5.197 11.768c5.332 3.085 13.593 8.816 13.593 8.816l-31.427 1.065.896-21.727z" fill="url(#e)" fill-rule="evenodd"/><path clip-rule="evenodd" d="m113.405 490.205c2.43.251 1.899 3.766 6.308 3.595 3.213-.125 8.224-6.051 12.346-3.856 6.291 3.35 13.668 7.868 15.477 8.943 1.809 1.076 2.524 5.134-2.821 5.632-5.112.476-12.011.423-13.739.108-1.729-.315-4.935-2.52-7.515-2.168-2.579.353-2.873 1.243-4.314 1.636-1.442.394-5.793.48-6.244-.735-.518-1.394-1.037-13.313.502-13.155z" fill="#482b61" fill-rule="evenodd"/><path clip-rule="evenodd" d="m110.969 295.474s11.988 94.099 12.99 102.998 6.506 72.207 5.753 80.651c-.768 8.6-16.855 8.646-19.013 2.158-2.954-8.881-9.783-53.267-10.9118-62.535-1.1294-9.269-.7328-20.03-5.2716-29.521-3.2498-6.795-14.0029-91.339-14.0029-91.339z" fill="#2f2b57" fill-rule="evenodd"/><path clip-rule="evenodd" d="m103.922 404.214.043.423c.457 4.915.841 21.197 1.151 48.844l-.69-4.129c-2.164-13.094-4.086-26.065-4.6391-30.606-1.1058-9.076-.7486-19.583-4.9943-28.926l-.2773-.595c-1.4302-2.991-4.3138-21.04-7.0944-40.314l.8731 2.337c9.2839 24.968 14.493 42.623 15.628 52.966z" fill="#fff" fill-opacity=".192499" fill-rule="evenodd" opacity=".59096"/><path d="m134.382 491.454-1.503 2.25" stroke="#fff" stroke-linecap="round"/><path d="m137.007 492.334-1.503 2.25" stroke="#fff" stroke-linecap="round"/><path clip-rule="evenodd" d="m53.3487 481.682-2.8126 18.99 13.5938-.068-.445-19.275z" fill="url(#f)" fill-rule="evenodd"/><path clip-rule="evenodd" d="m48.0317 503.745c-.0454-1.108.9861-8.294 2.5046-11.14 1.1015-2.063 3.544-2.547 7.118-2.561 4.61-.018 8.4627.679 8.4574 2.561-.0162 5.761 1.4445 10.191 1.5426 10.697.2883 1.485-3.8348 2.594-9.4664 2.537-4.6095-.045-10.0856-.366-10.1562-2.094z" fill="#482b61" fill-rule="evenodd"/><path clip-rule="evenodd" d="m95.5597 298.563s-6.2328 41.998-10.0054 68.571c-3.7074 26.111-14.6868 103.998-15.8213 112.151-1.0416 7.485-20.053 7.485-19.8529-1.58s-1.56-65.553 1.9799-73.916c3.5399-8.364.4582-18.097.5868-26.222.1292-8.125 5.2201-78.461 5.2201-78.461z" fill="#3a3669" fill-rule="evenodd"/><path clip-rule="evenodd" d="m61.4621 353.024-.2976 1.081c-3.609 12.967-4.8545 14.136-3.8317 34.818l.0105.421c.0356 5.203-2.439 32.13-7.4238 80.782l-.0226-3.025c-.1748-19.847-.9059-55.732 1.8729-63.087l.0899-.225c3.5399-8.364.4581-18.097.5867-26.222.1292-8.125 5.2202-78.461 5.2202-78.461l6.503-.094.0665 3.222c.4678 25.162-.4568 42.092-2.774 50.79z" fill="#fff" fill-opacity=".192499" fill-rule="evenodd" opacity=".461565"/><path d="m56.0068 494.256h4.9761" stroke="#fff" stroke-linecap="round"/><path d="m56.0068 496.894h4.9761" stroke="#fff" stroke-linecap="round"/><path clip-rule="evenodd" d="m72.2422 213.711s5.2071-1.228 5.3878-9.804c.1806-8.576.0538-11.503.0538-11.503l12.3448-.208s.125 9.558.1268 13.014c.0048 9.285 6.4416 8.501 6.4416 8.501s-1.3381 7.529-11.7311 8.116c-8.1146.46-12.6237-8.116-12.6237-8.116z" fill="url(#h)" fill-rule="evenodd"/><path clip-rule="evenodd" d="m76.5516 188.069c-5.1167-.199-4.2821 7.33 1.0332 7.32 0 0 5.7123 11.544 14.6804 11.574 4.3199.014 5.7304-3.853 7.0254-6.568 1.2954-2.715 2.2454-6.776 2.3244-9.263.085-2.651.096-11.362.096-11.362l-25.3586-.011z" fill="url(#i)" fill-rule="evenodd"/><path d="m91.9057 201.462c.7669.423 1.6796.319 2.3861 0" stroke="#f49494" stroke-linecap="round"/><path d="m77.3489 192.367c.0526-1.208-.3139-2.167-1.5393-2.359" stroke="#de6767" stroke-linecap="round"/><path clip-rule="evenodd" d="m76.5512 188.069s2.3526 2.73 3.2229 2.805c.8709.075-.1214-7.387 1.1604-8.746 2.8155-2.988 10.1727 2.088 17.9095.848 2.866-.459 2.815 4.439 2.815 4.439 7.233-6.629 9.855-11.858 1.212-14.042-.069-5.61-3.2799-7.018-9.4888-4.416-.8299-7.579-11.5579-6.435-16.4411 3.207-3.5345-3.457-8.5026-.666-6.3942 4.535-3.8061 0-1.8227 10.226 2.6626 13.74.5352-1.535 1.5132-2.37 3.3417-2.37z" fill="#422851" fill-rule="evenodd"/><path d="m90.1709 199.031s2.4363 2.304 5.4949.428" stroke="#de6767" stroke-linecap="round"/><g clip-rule="evenodd" fill-rule="evenodd"><path d="m161.671 241.247s1.464-8.14 3.401-10.992c1.938-2.852 2.502-7.645 4.33-7.469 1.828.177-.003 7.828-.003 7.828s8.524-6.395 12.391-8.599c3.529-2.009 1.593 8.389 1.041 9.714-1.313 3.156-16.509 15.064-16.509 15.064s-4.319-4.822-4.651-5.546z" fill="url(#j)"/><path d="m169.4 230.614s-.63 2.617-.316 2.617c.315 0 6.1-6.826 6.1-6.826z" fill="#f28585"/><path d="m112.464 223.029c4.168 9.039 19.756 32.394 19.756 32.394s25.545-16.655 28.796-16.689c3.25-.035 7.664 4.278 7.386 7.255-.277 2.977-28.246 29.085-37.216 28.865-13.948-.342-31.4386-36.613-33.2346-41.461-4.8104-12.986 10.4466-19.18 14.5126-10.364z" fill="#ff5c5d"/><path d="m132.128 255.406s2.95 4.321 3.478 4.038c.529-.284-1.159-5.283-1.159-5.283z" fill="#000" fill-opacity=".159856"/><path d="m50.7681 224.475c-1.3088 6.276 7.654 37.906 5.1881 52.703-1.9503 11.704-3.8121 27.818 1.2427 31.395 5.1463 3.643 49.4451 6.535 55.7601-3.577 5.009-8.023.908-25.814 0-33.93-1.812-16.191.924-44.172-2.15-49.895-1.907-3.55-14.9072-8.128-15.3956-7.986-.4883.142-1.6362 5.172-9.8566 5.172-8.2203 0-11.8503-5.172-12.292-5.314s-21.3124 5.755-22.4967 11.432z" fill="#ea5455"/><path d="m73.2441 213.041.0207.002c.4417.142 4.0717 5.314 12.292 5.314 8.2204 0 9.3683-5.03 9.8566-5.172.1763-.051 1.9825.512 4.3087 1.421l-.0106.107c-5.8755 9.866-22.034 11.082-30.6712-.206l-.1956-.261.9638-.299c1.7642-.536 3.0265-.859 3.3698-.902z" fill="#ff9b86"/><path d="m50.7959 228.834.7243.101c7.6835 1.099 12.1898 2.838 13.519 5.217.872 1.56.4665 6.839-1.2165 15.836l-.1787.944c-1.5609 8.156.2239 16.592 4.9363 23.398l.2648.377c1.5936 2.229 3.0628 5.165 4.4074 8.807 3.1191 8.448-3.5155 15.567.6865 28.135l-.8579-.063c-7.8107-.598-14.1277-1.771-15.8822-3.013-5.0548-3.577-3.193-19.691-1.2426-31.394 2.0981-12.591-4.078-37.368-5.1604-48.345z" fill="#000" fill-opacity=".066761"/><path d="m59.7739 291.701s2.9491 3.479 5.4662 3.912 13.051 2.493 13.6939 2.798c.6077.289 2.6859 1.383 4.463 3.138 1.5397 1.521 4.2033 5.128 3.3102 5.748-.9547.664-3.5321-2.589-4.8253-3.393-1.3561-.843-3.4401-1.59-3.4401-1.59s5.155 6.219 4.8272 7.305c-.2393.793-4.6227 2.148-5.56 2.046s-6.1023-3.883-8.4238-4.324c-1.6102-.304-8.8192-2.257-10.3397-3.723-1.52-1.467-4.9396-4.444-4.9396-4.444z" fill="url(#k)"/><path d="m82.275 310.34s-5.3945-5.435-5.6197-5.343c-.2251.093 4.7006 5.722 4.7006 5.722z" fill="#f28585"/><path d="m79.8706 311.233s-4.0411-3.703-4.3052-3.524c-.2641.178 3.2367 3.826 3.2367 3.826z" fill="#f28585"/><path d="m62.7061 219.232c8.3295 5.861 2.7647 16.516-4.1458 26.289-6.4554 9.129-16.2394 22.88-16.2394 22.88s18.3975 20.153 20.1747 23.881c1.7771 3.729-2.7611 10.732-8.403 8.819-5.6424-1.912-37.7501-25.697-31.2209-36.937 9.9729-17.169 29.9959-51.855 39.8344-44.932z" fill="#ff5c5d"/><path d="m42.321 268.401s-3.7754-3.994-3.4227-4.456c.3527-.463 4.6077 2.802 4.6077 2.802z" fill="#000" fill-opacity=".159856"/><path d="m345.257 439.204c0-13.316 10.795-24.111 24.111-24.111h68.598v72.167c0 2.209-1.791 4-4 4h-84.709c-2.209 0-4-1.791-4-4z" fill="#86e5f0"/><path d="m353.633 476.224h67.636v15.036h-67.636z" fill="#86e5f0"/><path d="m439.769 490.715 4.266 10.686h-20.625l3.574-10.686z" fill="#86e5f0"/><path d="m369.497 490.715 4.267 10.686h-20.625l3.574-10.686z" fill="#91d6ff"/><path d="m509.161 490.715 4.267 10.686h-20.625l3.574-10.686z" fill="#86e5f0"/><path d="m397.97 360.481c0-13.113 10.479-23.822 23.588-24.106l16.934-.367v86.269h-40.522z" fill="#91d6ff"/><path d="m405.875 360.119c0-13.316 10.795-24.111 24.111-24.111h61.681c12.062 0 21.84 9.778 21.84 21.84v64.44c0 .965-.782 1.747-1.747 1.747h-105.885z" fill="#c6f9ff"/><path d="m483.427 351.792c0-8.718 7.066-15.784 15.783-15.784 7.896 0 14.297 6.401 14.297 14.297v63.194c0 .965-.782 1.747-1.747 1.747h-28.333z" fill="#86e5f0"/><path d="m353.633 435.799c0-6.959 5.641-12.6 12.6-12.6h67.457v57.925h-80.057z" fill="#c6f9ff"/><path d="m436.719 328.514c10.746-2.504 11.453-17.262 3.284-22.381 8.425-17.672-11.058-35.218-24.404-24.397-8.749-3.747-16.02 10.875-7.879 22.232-3.413 19.5 3.534 24.541 16.057 24.755z" fill="#422851"/><path d="m436.585 324.989s-5.227-1.227-5.409-9.797c-.181-8.57-.054-11.496-.054-11.496l-11.514-.208s-.125 9.551-.127 13.006c-.005 9.279-6.466 8.495-6.466 8.495s1.343 7.524 11.776 8.111c8.146.459 11.794-8.111 11.794-8.111z" fill="url(#l)"/><path d="m433.807 299.417c5.137-.199 4.299 7.324-1.037 7.314 0 0-3.099 10.688-13.858 10.688-8.739 0-9.307-12.457-9.386-14.942-.086-2.649-.096-11.354-.096-11.354l24.577-.011z" fill="url(#m)"/></g><path d="m420.985 310.239s-2.562 2.171-5.531.138" stroke="#f77b7b" stroke-linecap="round" stroke-width="1.5"/><path d="m419.294 312.753c-.797.368-1.565.395-2.25.028" stroke="#f49494" stroke-linecap="round"/><path d="m433.284 303.463c-.053-1.207.315-2.166 1.545-2.358" stroke="#f77b7b" stroke-linecap="round"/><path clip-rule="evenodd" d="m434.62 298.487s-2.815 3.78-3.386 3.8c-.57.02-.77-4.916-.77-4.916-3.453-.264-12.193-2.005-14.336-6.062-1.498 3.579-4.362 5.169-6.244 4.864l-.357 7.605-.878-15.289h26.66z" fill="#422851" fill-rule="evenodd"/><path clip-rule="evenodd" d="m383.979 476.119s4.608 9.312.83 12.246c-3.783 2.935-13.776 8.436-13.776 8.436l26.475-1.665-5.885-20.31z" fill="url(#n)" fill-rule="evenodd"/><path clip-rule="evenodd" d="m394.947 484.981c-1.307.153.088 4.554-2.74 4.889-2.824.334-4.196-3.836-7.399-2.514-3.204 1.322-14.888 8.157-15.348 10.951-.466 2.793 3.887 3.615 9.857 2.984s7.07-2.756 11.552-1.9c4.476.856 7.83-.508 7.682-3.781-.148-3.272-2.298-10.782-3.604-10.629z" fill="#222d4e" fill-rule="evenodd"/><path clip-rule="evenodd" d="m383.346 488.034.51.765c.324.486.165 1.144-.345 1.428l-7.73 4.316c-.29.163-.643.17-.94.019l-1.169-.594c1.925-1.395 3.5-2.444 5.24-3.473 1.336-.791 2.815-1.606 4.434-2.461z" fill="#fff" fill-opacity=".540975" fill-rule="evenodd"/><path clip-rule="evenodd" d="m423.859 394.043c-8.015.359-52.624 10.231-60.729 11.908-8.104 1.677-14.956 10.753-8.776 21.262 6.941 11.797 24.851 45.301 29.2 52.853 2.152 3.739 13.01 1.643 10.46-4.632-4.755-11.696-6.963-41.078-19.085-51.791 0 0 40.766 7.099 58.375-1.033 12.798-5.911 9.903-29.432-9.445-28.567z" fill="url(#o)" fill-rule="evenodd"/><path clip-rule="evenodd" d="m367.069 346.62s.09-6.525-2.191-9.936c-2.281-3.41-2.372-7.032-4.098-6.914-1.727.119-.017 8.539-.017 8.539s-2.191-.838-3.764-1.897c-1.574-1.059-6.346-6.281-7.461-5.355-1.891 1.576 1.155 10.47 2.813 12.248 1.664 1.778 10.755 7.627 10.755 7.627z" fill="url(#p)" fill-rule="evenodd"/><path clip-rule="evenodd" d="m416.324 342.71c-3.728 8.653-10.555 24.548-13.369 29.29-3.527 5.939-9.089 8.556-15.601 4.149-6.842-4.63-25.683-22.689-26.235-26.78-.547-4.09 4.064-8.999 8.236-6.457 4.173 2.541 21.511 16.978 21.511 16.978s6.997-17.947 12.626-28.344c4.874-8.995 18.507-1.99 12.832 11.164z" fill="#6a5ee3" fill-rule="evenodd"/><path clip-rule="evenodd" d="m390.793 359.899s-1.879 6.378-2.319 6.009c-.439-.37.336-7.676.336-7.676z" fill="#000" fill-opacity=".302803" fill-rule="evenodd"/><path d="m343.366 330.492c-.41-1.261.28-2.615 1.541-3.024l9.469-3.077c1.261-.41 2.615.28 3.024 1.541l7.643 23.52c.409 1.261-.281 2.615-1.541 3.025l-9.47 3.076c-1.26.41-2.614-.28-3.024-1.54z" fill="#7596ff"/><rect fill="#93c2f9" height="29.5312" rx="2.4" transform="matrix(.95105652 -.30901699 .30901699 .95105652 -84.387066 122.195032)" width="14.757" x="343.561" y="327.497"/><path d="m346.395 327.685 1.065-.346c.217-.071.448.027.552.221l.033.077c.079.244.342.378.585.299l5.133-1.668c.217-.07.346-.285.317-.504l-.019-.081c-.079-.245.054-.507.298-.586l1.059-.344c.787-.256 1.629.141 1.942.892l.046.122 7.4 22.846c.322.998-.224 2.068-1.219 2.393l-8.421 2.736c-.953.311-1.973-.175-2.344-1.09l-.046-.128c-.001 0-.001-.001.001-.002l-7.399-22.841c-.27-.832.185-1.726 1.017-1.996z" fill="#e6f3ff"/><path clip-rule="evenodd" d="m453.585 332.284s-8.985 30.103-9.251 35.801c-.266 5.699 7.349 22.448 6.052 26.681-2.989 9.782-41.153 13.995-42.611.835-.68-6.138.735-11.646-.896-18.878-1.625-7.231-8.156-17.978-4.451-28.081 3.704-10.104 2.711-19.451 5.361-21.218s8.843-3.643 8.843-3.643c3.012 4.435 13.18 4.37 18.032-.313 0 0 12.054 2.34 18.921 8.816z" fill="#7367f0" fill-rule="evenodd"/><path clip-rule="evenodd" d="m445.534 337.16c-5.989 9.51-5.971 26.068-9.188 28.236-3.216 2.169-15.736.041-15.736 1.758s17.301 17.456 14.461 24.979c-1.487 3.94-1.084 7.464 1.21 10.574l.749-.164c6.817-1.541 12.297-4.309 13.356-7.777 1.297-4.233-7.196-20.982-6.93-26.681.226-4.837 7.367-27.259 9.521-33.926-1.754-3.095-4.234-2.095-7.443 3.001z" fill="#000" fill-opacity=".199355" fill-rule="evenodd"/><path clip-rule="evenodd" d="m435.32 362.39s-7.568-6.702-9.884-7.479c-2.317-.778-15.885-1.712-15.799.045.097 1.883 7.384 1.774 8.139 2.701.755.926.927 7.257 3.781 7.967 2.849.711 11.389 1.937 11.389 1.937z" fill="url(#q)" fill-rule="evenodd"/><path clip-rule="evenodd" d="m455.454 334.014c7.973 11.259 14.78 28.41 17.393 35.097s-.023 16.772-11.512 14.792c-11.47-1.975-29.718-12.705-31.737-15.835s1.048-8.826 4.911-8.081c3.578.69 21.329 8.242 21.329 8.242s-11.42-20.253-14.208-25.683c-4.658-9.067 6.801-18.453 13.824-8.532z" fill="#6a5ee3" fill-rule="evenodd"/><path clip-rule="evenodd" d="m455.658 368.091s5.981 2.973 5.252 1.726c-.73-1.247-7.534-5.628-7.534-5.628z" fill="#000" fill-opacity=".302803" fill-rule="evenodd"/><path clip-rule="evenodd" d="m356.139 476.493s.139 10.96-8.887 15.058c-9.021 4.097-15.448 3.851-14.63 7.019.818 3.167 24.298 3.039 26.49.562 1.869-2.108 5.933-21.733 7.052-20.232z" fill="url(#r)" fill-rule="evenodd"/><path clip-rule="evenodd" d="m363.281 488.761c-1.008-1.948-1.072 3.534-5.047 2.326-3.227-.981-4.33-6.592-6.369-5.363-2.038 1.229-19.985 10.758-20.087 10.815-2.21 1.191-1.592 4.799 2.14 5.429 4.147.699 25.633.228 26.786-.878s3.385-10.766 2.577-12.329z" fill="#222d4e" fill-rule="evenodd"/><path clip-rule="evenodd" d="m349.211 489.001c.323 0 .633.374.868.764.279.463.027 1.035-.472 1.241l-9.087 3.744c-.341.14-.74.09-.977-.192-.177-.212-.326-.461-.242-.635.175-.366 9.233-4.922 9.91-4.922z" fill="#fff" fill-opacity=".540975" fill-rule="evenodd"/><path clip-rule="evenodd" d="m449.852 390.655s11.652 24.623-4.723 33.078c-15.836 8.177-63.245-1.494-63.245-1.494s.847 6.825 0 12.911c-2.212 15.897-12.735 42.382-14.961 45.71-3.079 4.602-12.458 1.131-12.634-2.701-.177-3.832 7.07-52.772 8.172-62.105 1.096-9.333 4.557-10.689 14.666-13.24 2.323-.586 29.787-7.416 32.303-7.217 21.618 1.711 40.422-4.942 40.422-4.942z" fill="#2c3757" fill-rule="evenodd"/><path clip-rule="evenodd" d="m437.078 421.192c-15.678 1.758-57.186-1.866-58.853-.219-1.592 1.572-1.326 28.919-4.897 44.748l.543-1.495c3.358-9.331 6.845-20.68 8.013-29.076.847-6.087 0-12.911 0-12.911l1.912.37c9.011 1.694 47.397 8.32 61.333 1.124 7.551-3.899 10.632-10.376 9.244-19.431-2.391 10.235-8.156 15.865-17.295 16.89z" fill="#fff" fill-opacity=".192499" fill-rule="evenodd" opacity=".461565"/><path clip-rule="evenodd" d="m420.798 439.204c0-13.316 10.795-24.111 24.111-24.111h68.598v74.419c0 .965-.782 1.748-1.747 1.748h-90.962z" fill="#86e5f0" fill-rule="evenodd"/><path d="m525.002 449.738h7.047c6.811 0 12.333 5.522 12.333 12.333h-7.047c-6.811 0-12.333-5.521-12.333-12.333z" fill="#2ce780"/><path d="m533.812 442.69h5.285c3.405 0 6.166 2.761 6.166 6.167h-5.285c-3.406 0-6.166-2.761-6.166-6.167z" fill="#28c76f"/><path d="m561.119 448.857h-6.166c-5.838 0-10.571 4.733-10.571 10.571h6.166c5.838 0 10.571-4.733 10.571-10.571z" fill="#28c76f"/><path clip-rule="evenodd" d="m553.551 437.592-5.016 2.036c-3.917 1.59-5.809 6.048-4.232 9.97l5.016-2.037c3.916-1.59 5.808-6.048 4.232-9.969z" fill="#2ce780" fill-rule="evenodd"/><path clip-rule="evenodd" d="m540.651 436.524c2.756 1.747 4.504 5.07 4.607 8.718l.005.343v26.177h-1.414v-26.177c0-3.069-1.388-5.899-3.636-7.451l-.235-.156z" fill="#28c76f" fill-rule="evenodd"/><path clip-rule="evenodd" d="m533.863 462.952h21.975c1.027 0 1.859.815 1.859 1.821v.052c0 1.112.54 2.157 1.455 2.816l.569.41c.915.659 1.455 1.704 1.455 2.816v27.21c0 1.931-1.598 3.496-3.568 3.496h-25.514c-1.971 0-3.569-1.565-3.569-3.496v-27.21c0-1.112.541-2.157 1.455-2.816l.57-.41c.853-.615 1.381-1.567 1.447-2.595l.008-.273c0-1.006.832-1.821 1.858-1.821z" fill="#da4e4f" fill-rule="evenodd"/><g mask="url(#u)"><path clip-rule="evenodd" d="m527.633 461.205h8.921c-3.937 15.017 5.651 27.471 0 42.814h-8.921z" fill="#e95b5c" fill-rule="evenodd"/><g fill="#ffdfe2" fill-opacity=".257949"><path d="m528.525 486.544h32.6507v3.49504h-32.6507z"/><path d="m528.525 476.932h32.6507v3.49504h-32.6507z"/></g></g><path clip-rule="evenodd" d="m535.899 432.926 4.155 1.197c3.482 1.003 5.495 4.635 4.501 8.119l-4.155-1.198c-3.482-1.003-5.495-4.634-4.501-8.118z" fill="#2ce780" fill-rule="evenodd"/></svg>