<svg height="507" viewBox="0 0 562 507" width="562" xmlns="http://www.w3.org/2000/svg" xmlns:xlink="http://www.w3.org/1999/xlink"><defs><filter id="a" height="105.9%" width="105.9%" x="-2.9%" y="-2.9%"><feGaussianBlur in="SourceGraphic" stdDeviation="2"/></filter><path id="b" d="m18.522 0h19.5654076c1.6230733 0 2.9518133 1.29085841 2.9987456 2.91325303l.055463 1.9172959c.0778197 2.69013934 2.2810419 4.83054892 4.9723066 4.83054892h71.7796712c2.691265 0 4.894487-2.14040958 4.972307-4.83054892l.055463-1.9172959c.046932-1.62239462 1.375672-2.91325303 2.998746-2.91325303h19.565407c10.229418 0 18.522 8.29258186 18.522 18.522v313.70084c0 10.229418-8.292582 18.522-18.522 18.522h-126.963517c-10.22941814 0-18.522-8.292582-18.522-18.522v-313.70084c0-10.22941814 8.29258186-18.522 18.522-18.522z"/><path id="c" d="m8.756748 0h166.334767c4.836219 0 8.756748 3.92052962 8.756748 8.756748v102.972328c0 4.836218-3.920529 8.756748-8.756748 8.756748h-166.334767c-4.83621838 0-8.756748-3.92053-8.756748-8.756748v-102.972328c0-4.83621838 3.92052962-8.756748 8.756748-8.756748z"/><filter id="d" height="153.9%" width="135.4%" x="-15%" y="-22.8%"><feOffset dx="5" dy="5" in="SourceAlpha" result="shadowOffsetOuter1"/><feGaussianBlur in="shadowOffsetOuter1" result="shadowBlurOuter1" stdDeviation="10"/><feColorMatrix in="shadowBlurOuter1" result="shadowMatrixOuter1" type="matrix" values="0 0 0 0 0.0755212756   0 0 0 0 0.582569014   0 0 0 0 0.878793025  0 0 0 0.229458042 0"/><feOffset dx="0" dy="1" in="SourceAlpha" result="shadowOffsetOuter2"/><feGaussianBlur in="shadowOffsetOuter2" result="shadowBlurOuter2" stdDeviation="5.5"/><feColorMatrix in="shadowBlurOuter2" result="shadowMatrixOuter2" type="matrix" values="0 0 0 0 0.50398247   0 0 0 0 0.700178215   0 0 0 0 1  0 0 0 0.233828671 0"/><feMerge><feMergeNode in="shadowMatrixOuter1"/><feMergeNode in="shadowMatrixOuter2"/></feMerge></filter><path id="e" d="m3.94364704 0h182.39367596c2.178016 0 3.943647 1.77062872 3.943647 3.95480995v103.81376105c0 2.184181-1.765631 3.95481-3.943647 3.95481h-182.39367596c-2.17801612 0-3.94364704-1.770629-3.94364704-3.95481v-103.81376105c0-2.18418123 1.76563092-3.95480995 3.94364704-3.95480995z"/><filter id="f" height="143%" width="125.2%" x="-9.5%" y="-17.9%"><feOffset dx="6" dy="4" in="SourceAlpha" result="shadowOffsetOuter1"/><feGaussianBlur in="shadowOffsetOuter1" result="shadowBlurOuter1" stdDeviation="7"/><feColorMatrix in="shadowBlurOuter1" type="matrix" values="0 0 0 0 0.018993433   0 0 0 0 0.018993433   0 0 0 0 0.018993433  0 0 0 0.11 0"/></filter><linearGradient id="g"><stop offset="0" stop-color="#fdc6c6"/><stop offset="1" stop-color="#fab2b2"/></linearGradient><linearGradient id="h" x1="42.314264%" x2="50%" xlink:href="#g" y1="12.630661%" y2="69.620275%"/><linearGradient id="i" x1="46.204001%" x2="50%" xlink:href="#g" y1="-28.185925%" y2="91.050481%"/><linearGradient id="j"><stop offset="0" stop-color="#ffafaf"/><stop offset="1" stop-color="#f07777"/></linearGradient><linearGradient id="k" x1="44.814028%" x2="62.81292%" xlink:href="#j" y1="-28.185925%" y2="121.546626%"/><linearGradient id="l" x1="31.713261%" x2="55.144278%" xlink:href="#g" y1="-6.921936%" y2="91.238928%"/><linearGradient id="m" x1="45.013212%" x2="50%" xlink:href="#g" y1="-28.185925%" y2="91.050481%"/><linearGradient id="n" x1="42.314264%" x2="50%" xlink:href="#g" y1="21.160074%" y2="65.14202%"/><linearGradient id="o" x1="45.136358%" x2="62.016542%" xlink:href="#j" y1="-28.185925%" y2="121.546626%"/><linearGradient id="p" x1="31.713261%" x2="55.144278%" xlink:href="#g" y1="-6.211254%" y2="90.724051%"/><linearGradient id="q" x1="42.314264%" x2="50%" xlink:href="#g" y1="-3.864732%" y2="78.280962%"/><linearGradient id="r" x1="28.502916%" x2="77.061497%" y1="98.647392%" y2="9.200713%"><stop offset="0" stop-color="#28324f"/><stop offset="1" stop-color="#222735"/></linearGradient><linearGradient id="s" x1="44.35996%" x2="50%" xlink:href="#g" y1="-28.185925%" y2="91.050481%"/><linearGradient id="t" x1="42.314264%" x2="50%" xlink:href="#g" y1="28.060564%" y2="61.519009%"/><linearGradient id="u" x1="42.314264%" x2="50%" xlink:href="#g" y1="8.532565%" y2="71.771926%"/><path id="v" d="m5.33786584 0h21.97492476c1.0265303 0 1.8586975.81506337 1.8586975 1.82049499v.05200235c0 1.11187628.5401446 2.15741263 1.4547943 2.81598732l.5695797.41011409c.9146497.65857468 1.4547943 1.70411104 1.4547943 2.81598731v27.21052034c0 1.9302548-1.5976171 3.4950354-3.5683778 3.4950354h-25.51390085c-1.97076061 0-3.56837775-1.5647806-3.56837775-3.4950354v-27.21052034c0-1.11187627.54014461-2.15741263 1.45479433-2.81598731l.56957965-.41011409c.85367307-.61466971 1.38111058-1.56642603 1.44764147-2.59459159l.00715285-.27339808c0-1.00543162.83216724-1.82049499 1.85869754-1.82049499z"/><mask id="w" fill="#fff"><use fill="#fff" fill-rule="evenodd" xlink:href="#b"/></mask><mask id="x" fill="#fff"><use fill="#fff" fill-rule="evenodd" xlink:href="#c"/></mask><mask id="y" fill="#fff"><use fill="#fff" fill-rule="evenodd" xlink:href="#v"/></mask></defs><g fill="none" fill-rule="evenodd"><g transform="translate(6 15)"><ellipse cx="101.744606" cy="229.5" fill="#7367f0" filter="url(#a)" opacity=".1" rx="101.744606" ry="102.5"/><path d="m426.905882 45.9562334c-53.502005 0-96.873949 43.3701882-96.873949 96.8700266 0 53.499838 43.371944 96.870026 96.873949 96.870026s96.87395-43.370188 96.87395-96.870026c0-53.4998384-43.371945-96.8700266-96.87395-96.8700266zm.440336 41.3899204c30.398867 0 55.042017 24.6421522 55.042017 55.0397882 0 30.397635-24.64315 55.039787-55.042017 55.039787-30.398866 0-55.042016-24.642152-55.042016-55.039787 0-30.397636 24.64315-55.0397882 55.042016-55.0397882z" fill="#00cfe8" fill-rule="nonzero" opacity=".05"/><ellipse cx="269.822706" cy="33.5" opacity=".1" rx="33.416121" ry="33.5" stroke="#7367f0" stroke-width="30"/><path d="m427.271384 45.9562334c53.300144 0 96.508448 43.3701882 96.508448 96.8700266 0 53.499838-43.208304 96.870026-96.508448 96.870026-32.109892 0-61.583985-15.880215-79.474018-41.900746-6.510496-9.469326-4.140543-22.443304 5.293437-28.978192 9.33964-6.469539 22.10137-4.202741 28.672798 5.031319l.197229.281951c10.221269 14.866537 26.989728 23.901141 45.310554 23.901141 30.375351 0 54.999438-24.716344 54.999438-55.205499 0-30.184264-24.134068-54.7105949-54.089921-55.1981031l-.909517-.0073959c-11.462396 0-20.754504-9.3269222-20.754504-20.8322638s9.292108-20.8322638 20.754504-20.8322638z" fill="#00cfe8" fill-rule="nonzero" opacity=".1"/></g><g transform="translate(149.710362 137)"><path d="m25.137 0h127.110017c13.882782 0 25.137 11.2542182 25.137 25.137v317.488425c0 13.882782-11.254218 25.137-25.137 25.137h-127.110017c-13.8827818 0-25.137-11.254218-25.137-25.137v-317.488425c0-13.8827818 11.2542182-25.137 25.137-25.137z" fill="#8ee9f4"/><g transform="translate(6.397456 7.41094)"><use fill="#fff" xlink:href="#b"/><g fill="#e97eff" fill-opacity=".548951"><ellipse cx="62.179689" cy="213.476888" mask="url(#w)" rx="14.067107" ry="14.052506"/><path d="m24.5893471 60.2167446h116.0632119c2.546573 0 4.610978 2.0644054 4.610978 4.6109786 0 2.5465731-2.064405 4.6109785-4.610978 4.6109785h-116.0632119c-2.5465731 0-4.6109785-2.0644054-4.6109785-4.6109785 0-2.5465732 2.0644054-4.6109786 4.6109785-4.6109786z" mask="url(#w)"/></g></g><g fill="#00cfe8" fill-rule="nonzero"><path d="m98.3068967 6.43835799c1.5173923 0 2.7474813 1.17966023 2.7474813 2.63484487 0 1.42284724-1.1760258 2.58227944-2.6467578 2.63310714l-.1007235.0017377h-31.0672867c-1.5173923 0-2.7474818-1.1796602-2.7474818-2.63484484 0-1.4228472 1.1760263-2.58227947 2.6467582-2.63310715l.1007236-.00173772z"/><path d="m109.44093 5.99921718c1.517392 0 2.747482 1.22881274 2.747482 2.74463007 0 1.48213255-1.176027 2.68987445-2.646759 2.74281995l-.100723.0018101h-.144106c-1.517392 0-2.747482-1.2288127-2.747482-2.74463005 0-1.4821325 1.176026-2.68987444 2.646758-2.74281994l.100724-.00181013z"/></g></g><g transform="translate(166.671894 311)"><use fill="#000" filter="url(#d)" xlink:href="#c"/><use fill="#fff" fill-rule="evenodd" xlink:href="#c"/><path d="m-4.12480078-4.72493426h192.68712178v35.43700696h-192.68712178z" fill="#a8edf6" mask="url(#x)"/><path d="m17.0925389 19.4903538h58.9175682c.978566 0 1.7718504.7932844 1.7718504 1.7718504 0 .9785659-.7932844 1.7718503-1.7718504 1.7718503h-58.9175682c-.9785659 0-1.7718503-.7932844-1.7718503-1.7718503 0-.978566.7932844-1.7718504 1.7718503-1.7718504z" fill="#6fa3ff" mask="url(#x)" opacity=".365606"/><path d="m15.320689 9.449869h32.998406v3.543701h-32.998406z" fill="#fff" mask="url(#x)"/><path d="m21.213261 89.773751h32.998406v4.134317h-32.998406z" fill="#ea5455" mask="url(#x)"/><path d="m23.2804199 101.586087h17.0789436c1.1416603 0 2.0671588.925498 2.0671588 2.067158 0 1.141661-.9254985 2.067159-2.0671588 2.067159h-17.0789436c-1.1416603 0-2.0671588-.925498-2.0671588-2.067159 0-1.14166.9254985-2.067158 2.0671588-2.067158z" fill="#f8f9fa" mask="url(#x)"/><path d="m73.657157 89.773751h32.998406v4.134317h-32.998406z" fill="#ff9f43" fill-rule="nonzero" mask="url(#x)"/><path d="m75.7243154 101.586087h17.0789437c1.1416602 0 2.0671587.925498 2.0671587 2.067158 0 1.141661-.9254985 2.067159-2.0671587 2.067159h-17.0789437c-1.1416602 0-2.0671587-.925498-2.0671587-2.067159 0-1.14166.9254985-2.067158 2.0671587-2.067158z" fill="#f8f9fa" mask="url(#x)"/><path d="m127.868824 89.773751h32.998406v4.134317h-32.998406z" fill="#28c76f" mask="url(#x)"/><path d="m129.935983 101.586087h17.078943c1.141661 0 2.067159.925498 2.067159 2.067158 0 1.141661-.925498 2.067159-2.067159 2.067159h-17.078943c-1.14166 0-2.067159-.925498-2.067159-2.067159 0-1.14166.925499-2.067158 2.067159-2.067158z" fill="#f8f9fa" mask="url(#x)"/><g mask="url(#x)"><g transform="translate(127.426881 43.853296)"><path d="m16.941146 33.960465c9.3563366 0 16.9411461-7.602309 16.9411461-16.9802325 0-9.37792346-7.5848095-16.9802325-16.9411461-16.9802325-9.35633656 0-16.941146 7.60230904-16.941146 16.9802325 0 9.3779235 7.58480944 16.9802325 16.941146 16.9802325zm0-6.792093c-5.6138019 0-10.16468758-4.5613854-10.16468758-10.1881395s4.55088568-10.1881395 10.16468758-10.1881395c5.613802 0 10.1646877 4.5613854 10.1646877 10.1881395s-4.5508857 10.1881395-10.1646877 10.1881395z" fill="#f2f2f2"/><path d="m33.8822921 16.9802325c0-9.37792346-7.5848095-16.9802325-16.9411461-16.9802325-1.8712673 0-3.3882292 1.52046181-3.3882292 3.3960465s1.5169619 3.3960465 3.3882292 3.3960465c5.5500088 0 10.0611212 4.4583066 10.1629298 9.9967362l.0017579.1914033c0 1.8755847 1.5169619 3.3960465 3.3882292 3.3960465s3.3882292-1.5204618 3.3882292-3.3960465z" fill="#28c76f"/></g></g><g mask="url(#x)"><g transform="translate(74.393728 43.853296)"><path d="m16.941146 33.960465c9.3563366 0 16.9411461-7.602309 16.9411461-16.9802325 0-9.37792346-7.5848095-16.9802325-16.9411461-16.9802325-9.35633656 0-16.941146 7.60230904-16.941146 16.9802325 0 9.3779235 7.58480944 16.9802325 16.941146 16.9802325zm0-6.792093c-5.6138019 0-10.16468758-4.5613854-10.16468758-10.1881395s4.55088568-10.1881395 10.16468758-10.1881395c5.613802 0 10.1646877 4.5613854 10.1646877 10.1881395s-4.5508857 10.1881395-10.1646877 10.1881395z" fill="#f2f2f2" fill-rule="evenodd"/><path d="m16.941146 33.960465c9.3563366 0 16.9411461-7.602309 16.9411461-16.9802325 0-9.37792346-7.5848095-16.9802325-16.9411461-16.9802325-1.8712673 0-3.3882292 1.52046181-3.3882292 3.3960465s1.5169619 3.3960465 3.3882292 3.3960465c5.613802 0 10.1646877 4.5613854 10.1646877 10.1881395 0 5.5628137-4.4480441 10.0843341-9.9737249 10.1863776l-.1909628.0017619c-1.8712673 0-3.3882292 1.5204618-3.3882292 3.3960465s1.5169619 3.3960465 3.3882292 3.3960465z" fill="#ff9f43" fill-rule="nonzero"/></g></g><g mask="url(#x)"><g transform="translate(21.360575 43.853296)"><path d="m16.941146 33.960465c9.3563366 0 16.9411461-7.602309 16.9411461-16.9802325 0-9.37792346-7.5848095-16.9802325-16.9411461-16.9802325-9.35633656 0-16.941146 7.60230904-16.941146 16.9802325 0 9.3779235 7.58480944 16.9802325 16.941146 16.9802325zm0-6.792093c-5.6138019 0-10.16468758-4.5613854-10.16468758-10.1881395s4.55088568-10.1881395 10.16468758-10.1881395c5.613802 0 10.1646877 4.5613854 10.1646877 10.1881395s-4.5508857 10.1881395-10.1646877 10.1881395z" fill="#f2f2f2"/><path d="m0 16.9802325c0 9.3779235 7.58480944 16.9802325 16.941146 16.9802325 9.3563366 0 16.9411461-7.602309 16.9411461-16.9802325 0-9.37792346-7.5848095-16.9802325-16.9411461-16.9802325-1.8712673 0-3.3882292 1.52046181-3.3882292 3.3960465s1.5169619 3.3960465 3.3882292 3.3960465c5.613802 0 10.1646877 4.5613854 10.1646877 10.1881395s-4.5508857 10.1881395-10.1646877 10.1881395c-5.6138019 0-10.16468758-4.5613854-10.16468758-10.1881395 0-1.8755847-1.51696189-3.3960465-3.38822921-3.3960465s-3.38822921 1.5204618-3.38822921 3.3960465z" fill="#ea5455"/></g></g></g><g transform="translate(164.67642 184)"><use fill="#000" filter="url(#f)" xlink:href="#e"/><use fill="#bfb9ff" fill-rule="evenodd" xlink:href="#e"/></g><g transform="translate(191.296038 201.681894)"><g transform="translate(101.154547)"><ellipse cx="11.436576" cy="11.394999" fill="#8e83ff" rx="11.436576" ry="11.394999"/><ellipse cx="27.211165" cy="11.394999" fill="#ffbb7a" rx="11.436576" ry="11.394999"/><path d="m19.2203633 3.24290494.1048866-.09817652c2.1857831 2.07544056 3.5479029 5.00436379 3.5479029 8.25027058 0 3.2459068-1.3621198 6.17483-3.5479029 8.2502706-2.1881314-2.0745581-3.5506617-5.0038748-3.5506617-8.2502706 0-3.19505196 1.3197725-6.08297517 3.4457751-8.15209406l.1048866-.09817652z" fill="#fff" fill-opacity=".416193"/></g><path d="m1.57745882 18.6642225h23.85906458c.8712065 0 1.5774588.7036848 1.5774588 1.571724v17.288964c0 .8680392-.7062523 1.571724-1.5774588 1.571724h-23.85906458c-.87120645 0-1.57745882-.7036848-1.57745882-1.571724v-17.288964c0-.8680392.70625237-1.571724 1.57745882-1.571724z" fill="#9f95ff"/></g><g fill="#fff" fill-opacity=".646908" transform="translate(191.296038 201.288964)"><path d="m3.54928234 51.08103h19.71823526c1.9602145 0 3.5492823 1.5832908 3.5492823 3.536379s-1.5890678 3.536379-3.5492823 3.536379h-19.71823526c-1.96021451 0-3.54928234-1.5832908-3.54928234-3.536379s1.58906783-3.536379 3.54928234-3.536379z"/><path d="m3.54928234 68.762925h49.29558806c1.9602145 0 3.5492823 1.5832908 3.5492823 3.536379s-1.5890678 3.536379-3.5492823 3.536379h-49.29558806c-1.96021451 0-3.54928234-1.5832908-3.54928234-3.536379s1.58906783-3.536379 3.54928234-3.536379z"/><path d="m115.943223 68.762925h19.718235c1.960215 0 3.549283 1.5832908 3.549283 3.536379s-1.589068 3.536379-3.549283 3.536379h-19.718235c-1.960214 0-3.549282-1.5832908-3.549282-3.536379s1.589068-3.536379 3.549282-3.536379z"/><path d="m3.54928234 0h19.71823526c1.9602145 0 3.5492823 1.58329081 3.5492823 3.536379s-1.5890678 3.536379-3.5492823 3.536379h-19.71823526c-1.96021451 0-3.54928234-1.58329081-3.54928234-3.536379s1.58906783-3.536379 3.54928234-3.536379z"/><path d="m40.6195645 51.08103h19.7182353c1.9602145 0 3.5492823 1.5832908 3.5492823 3.536379s-1.5890678 3.536379-3.5492823 3.536379h-19.7182353c-1.9602145 0-3.5492823-1.5832908-3.5492823-3.536379s1.5890678-3.536379 3.5492823-3.536379z"/><path d="m78.4785761 51.08103h19.7182353c1.9602146 0 3.5492826 1.5832908 3.5492826 3.536379s-1.589068 3.536379-3.5492826 3.536379h-19.7182353c-1.9602145 0-3.5492823-1.5832908-3.5492823-3.536379s1.5890678-3.536379 3.5492823-3.536379z"/><path d="m115.548858 51.08103h19.718236c1.960214 0 3.549282 1.5832908 3.549282 3.536379s-1.589068 3.536379-3.549282 3.536379h-19.718236c-1.960214 0-3.549282-1.5832908-3.549282-3.536379s1.589068-3.536379 3.549282-3.536379z"/></g><g transform="translate(80.512695 295.47365)"><path d="m45.8596382 184.216749s-.1357821 8.683304 5.1968035 11.767521c5.3319875 3.084819 13.5931585 8.816172 13.5931585 8.816172l-31.4266647 1.064747.8960419-21.726598z" fill="url(#h)"/><path d="m32.8915556 194.731345c2.4303191.250705 1.8991541 3.765991 6.3087807 3.594646 3.2127109-.125052 8.2234871-6.050597 12.3453993-3.855572 6.2914342 3.349953 13.6685265 7.867459 15.4773587 8.943027 1.8088322 1.07617 2.523632 5.133749-2.821515 5.631552-5.1112669.47616-12.0110285.423254-13.7391093.108219-1.7286789-.315035-4.9348954-2.51968-7.5141561-2.167369-2.5792607.352911-2.8729567 1.242117-4.3145194 1.635897s-5.7924843.479166-6.243496-.735282c-.5180055-1.39421-1.0372073-13.313237.5012571-13.155118z" fill="#482b61"/><path d="m30.455853 0s11.9882985 94.0992879 12.9908126 102.998427c1.001916 8.899139 6.505575 72.206756 5.7524931 80.651379-.7674377 8.599736-16.8549184 8.646029-19.0130753 2.15775-2.9537081-8.881103-9.7822889-53.266777-10.9116127-62.535661-1.1293238-9.268885-.7327445-20.029977-5.2715734-29.5207089-3.2497967-6.7948973-14.0028973-91.33852259-14.0028973-91.33852259z" fill="#2f2b57"/><path d="m23.4098157 108.740088.0426694.42344c.4575926 4.915267.8411603 21.196611 1.1507029 48.84403l-.6900875-4.129352c-2.1639086-13.094016-4.0853198-26.06504-4.6386298-30.606311-1.1057962-9.075783-.7486064-19.582246-4.9942645-28.925909l-.2773089-.5947999c-1.4302368-2.990437-4.31377633-21.0398979-7.09440008-40.314205l.8730819 2.3375744c9.28387378 24.9677061 14.49345498 42.6231812 15.62823658 52.9655325z" fill="#fff" fill-opacity=".192499" opacity=".59096"/><g stroke="#fff" stroke-linecap="round"><path d="m53.86948 195.980821-1.503534 2.249533"/><path d="m56.494543 196.860309-1.503535 2.249532"/></g></g><g transform="translate(47.694421 297.776553)"><path d="m5.65408899 183.905747-2.81254264 18.989881 13.59375665-.068539-.4450301-19.274253z" fill="url(#i)"/><path d="m.3369239 205.968069c-.04546006-1.108034.98603706-8.294038 2.50462245-11.139255 1.10147645-2.063723 3.54395924-2.547335 7.11795802-2.561764 4.61000983-.018036 8.46275053.679369 8.45736713 2.561764-.0161503 5.760212 1.4445535 10.190542 1.5426515 10.696763.2883126 1.484993-3.834796 2.593628-9.466461 2.537114-4.60941163-.045692-10.08555536-.366739-10.1561381-2.094622z" fill="#482b61"/><path d="m47.8649585.78672531s-6.2328146 41.99765999-10.0054021 68.57062649c-3.7073882 26.1112357-14.6867627 103.9979272-15.8213 112.1512772-1.041526 7.484925-20.05298641 7.484925-19.85289024-1.579985.20009618-9.064909-1.55999812-65.553143 1.9799056-73.916603 3.53990372-8.363459.45818963-18.0970803.58679377-26.2218584.1292023-8.1247782 5.22013177-78.46056291 5.22013177-78.46056291z" fill="#3a3669"/><path d="m13.7676928 55.2475203-.2975524 1.080873c-3.60903009 12.9674286-4.85456079 14.1357389-3.83171571 34.8182144l.01050726.4204555c.03560937 5.2034473-2.43899733 32.1307258-7.4238201 80.7818348l-.02255905-3.024333c-.17479922-19.84758-.90596838-55.732665 1.87283707-63.087534l.08988189-.22499c3.53990372-8.363459.45818963-18.0970803.58679377-26.2218584.1292023-8.1247782 5.22013177-78.46056291 5.22013177-78.46056291l6.5030337-.09403288.0665012 3.22211421c.4678359 25.16179948-.4568439 42.09173928-2.7740394 50.78981928z" fill="#fff" fill-opacity=".192499" opacity=".461565"/><g stroke="#fff" stroke-linecap="round"><path d="m8.312698 196.479213h4.976079"/><path d="m8.312698 199.117675h4.976079"/></g></g><g transform="translate(68.019844 164)"><path d="m4.22314161 49.7114555s5.20713562-1.2286718 5.38777958-9.8043589c.18064395-8.5756871.05383429-11.502988.05383429-11.502988l12.34480112-.2080194s.125028 9.5574657.1268097 13.0144349c.0047852 9.2849454 6.4415755 8.5009314 6.4415755 8.5009314s-1.3380847 7.5285813-11.7310937 8.1159654c-8.11462218.4593259-12.62370649-8.1159654-12.62370649-8.1159654z" fill="url(#k)"/><g transform="translate(.513241)"><path d="m8.01800308 24.0692846c-5.11665029-.1990011-4.28206517 7.3295982 1.03317384 7.3193776 0 0 5.71228638 11.5443538 14.68045758 11.5743891 4.3199028.0143488 5.7303612-3.8532476 7.025375-6.5683207s2.2454881-6.7762598 2.3244451-9.2628724c.0849385-2.6513446.0957054-11.3617032.0957054-11.3617032l-25.35834379-.011423z" fill="url(#l)"/><path d="m23.3703053 37.5863503c.8068908.3406866 1.7036456.1412407 2.3730028-.2494126" stroke="#f49494" stroke-linecap="round" transform="matrix(.9945219 .10452846 -.10452846 .9945219 4.059439 -2.361189)"/><path d="m8.52904594 28.4931012c.32291847-1.1648628.18153673-2.1818149-.96913918-2.6452551" stroke="#de6767" stroke-linecap="round" transform="matrix(.97437006 -.22495105 .22495105 .97437006 -5.903918 2.522927)"/><path d="m8.01800308 24.0692846s2.35255852 2.7295022 3.22287952 2.8046537c.8709192.0751515-.1214262-7.3870911 1.1604281-8.7464313 2.8155334-2.9874221 10.1726791 2.0889015 17.9094724.8489113 1.9109179-.3062664 2.8493468 1.1732969 2.8152866 4.4386898 7.232338-6.6289628 9.8543147-11.8582464 1.2121165-14.04184813-.0693864-5.61050982-3.2803028-7.01854818-9.4891911-4.4159017-.8299453-7.57899911-11.5579232-6.43489025-16.44114589 3.20681486-3.53448918-3.45678894-8.50257302-.66643834-6.39416406 4.53499127-3.80610905 0-1.82271003 10.2263175 2.66261161 13.7393767.53515688-1.5346241 1.51316707-2.3692565 3.34170632-2.3692565z" fill="#422851"/><path d="m21.8151039 34.3235476s1.7569825 2.8560696 5.1969382 1.8354523" stroke="#de6767" stroke-linecap="round" transform="matrix(.96592583 -.25881905 .25881905 .96592583 -8.317755 7.523269)"/></g></g><g transform="translate(97.023733 218.907179)"><g transform="matrix(.99756405 .06975647 -.06975647 .99756405 66.105569 1.487456)"><path d="m0 20.9033963s.89310721-8.222083 2.62657139-11.20229054c1.73346417-2.9808088 1.96236431-7.80100716 3.79811364-7.7529102 1.83574933.04869817.54326672 7.80873136.54326672 7.80873136s8.05660075-6.9740585 11.76099815-9.44203351c3.3795972-2.2509375 2.173709 8.25704478 1.7161176 9.61758739-1.0898454 3.2393299-15.41814771 16.1785299-15.41814771 16.1785299s-4.64529448-4.5084049-5.02691979-5.2076144z" fill="url(#m)"/><path d="m6.96795175 9.75692692c-.29689867 1.76979198-.34085244 2.64734358-.1318613 2.63265498.20899114-.0146887 2.07842316-2.4262616 5.60829605-7.23471869z" fill="#f28585"/></g><path d="m15.4402651 4.12195695c4.1678646 9.03884645 19.7565726 32.39381245 19.7565726 32.39381245s25.5449304-16.6551787 28.7953252-16.6894478c3.2503949-.0342691 7.6642086 4.2788254 7.3866629 7.2554257s-28.2467128 29.084747-37.2167021 28.8653047c-13.9478666-.3420896-31.43816805-36.613297-33.23413174-41.4614823-4.81041612-12.98566816 10.44695824-19.18005975 14.51227314-10.36361275z" fill="#ff5c5d"/><path d="m35.104157 36.4987179c1.9665935 2.8809624 3.1260205 4.2268843 3.478281 4.0377658s-.0342884-1.9499764-1.1596467-5.2825736z" fill="#000" fill-opacity=".159856"/></g><g transform="translate(50.636714 213.040603)"><path d="m.131338 11.4345556c-1.30877144 6.2760515 7.65403209 37.9062396 5.18814414 52.70335-1.95031061 11.7032737-3.81213157 27.8171438 1.24266102 31.3947773 5.14634934 3.6424347 49.44543554 6.5347751 55.75976434-3.5776335 5.0094277-8.0226075.9086032-25.8138146 0-33.9295745-1.811823-16.1912388.9241553-44.1716424-2.1497827-49.89457886-1.9069303-3.5501565-14.9070779-8.12838542-15.395411-7.9864994s-1.6362634 5.17218009-9.8565963 5.17218009c-8.220333 0-11.8503115-5.17218009-12.2920274-5.31406611s-21.3123977 5.75480068-22.4967521 11.43204498z" fill="#ea5455"/><path d="m22.6073972.00002999.0206929.00248063c.4417159.14188602 4.0716944 5.31406611 12.2920274 5.31406611 8.2203329 0 9.3682632-5.03029407 9.8565963-5.17218009.1762533-.05121069 1.9824115.51246456 4.3086163 1.4207582l-.0105914.10685092c-5.8754811 9.86686084-22.0339281 11.08297224-30.6711206-.20545308l-.1956219-.26097613.9637674-.29896707c1.7641621-.53642951 3.0265434-.85868851 3.3698323-.90167605z" fill="#ff9b86"/><path d="m.15912603 15.7938733.7242804.1007081c7.68352922 1.0990529 12.18986057 2.8379136 13.51899407 5.2165821.8720646 1.5606804.4665723 6.8395409-1.2164767 15.8365814l-.1786658.9439918c-1.5609774 8.1553786.2238202 16.5918173 4.9362255 23.3978474l.2648096.3764233c1.5936391 2.2297792 3.0627921 5.1656667 4.4074591 8.8076626 3.1190522 8.4478723-3.5154766 15.5663059.6864262 28.1343239l-.8578585-.0629449c-7.8107347-.5981032-14.1276442-1.7705596-15.88217674-3.0123661-5.05479259-3.5776335-3.19297163-19.6915036-1.24266102-31.3947773 2.09816383-12.5904999-4.07792206-37.3679669-5.16035611-48.3440323z" fill="#000" fill-opacity=".066761"/></g><g transform="translate(22 218.330575)"><g transform="translate(32.005886 73.370299)"><path d="m5.76804522 0s2.94910415 3.47899733 5.46618228 3.91192529c2.5170782.43292795 13.0510079 2.49348124 13.6939193 2.79859036.6077118.28840427 2.6858538 1.38239826 4.4629835 3.13793712 1.5396608 1.52106623 4.2032619 5.12713543 3.3102108 5.74758613-.9546614.663738-3.5321277-2.5888186-4.825347-3.392639-1.356026-.8435003-3.4400112-1.5902055-3.4400112-1.5902055s5.1549325 6.2189363 4.8271415 7.3053262c-.2392636.7929986-4.622692 2.1471581-5.5600068 2.0455533-.9373148-.1016049-6.1022952-3.8834582-8.4237495-4.3235453-1.6102434-.3048145-8.81925316-2.2575508-10.33977281-3.7239068-1.51992148-1.4669571-4.93959529-4.4435574-4.93959529-4.4435574z" fill="url(#n)"/><g fill="#f28585"><path d="m28.269407 18.6394576c-3.5963645-3.623853-5.4695826-5.4048952-5.6196543-5.3431265-.1500718.0617687 1.4167753 1.9689115 4.7005412 5.7214284z"/><path d="m25.8649843 19.5321735c-2.6940413-2.4684629-4.1291086-3.643229-4.3052019-3.5242983s.9027932 1.3942626 3.2366594 3.8259956z"/></g></g><path d="m40.7061056.90141412c8.3295047 5.86131046 2.7646899 16.51589318-4.1458386 26.28919448-6.4553296 9.1288021-16.239413 22.8797215-16.239413 22.8797215s18.39757 20.1526242 20.1746997 23.8813407c1.7771298 3.7287164-2.761101 10.7316331-8.4029347 8.8191779-5.6424318-1.9124552-37.75016676-25.6974152-31.22089805-36.9378603 9.97283095-17.1687006 29.99586885-51.85474648 39.83438465-44.93157428z" fill="#ff5c5d"/><path d="m20.320854 50.0703301c-2.5169165-2.6628142-3.6578015-4.1482572-3.422655-4.4563291.2351465-.308072 1.7710433.6261518 4.6076904 2.8026712z" fill="#000" fill-opacity=".159856"/></g><g transform="translate(329.303057 278)"><g fill="#86e5f0"><path d="m40.0651558 137.0925h68.5977832v72.167c0 2.209139-1.790861 4-4 4h-84.7091432c-2.209139 0-4-1.790861-4-4v-48.05564c0-13.316336 10.7950236-24.11136 24.11136-24.11136z"/><path d="m24.3298479 198.224438h67.6360796v15.035062h-67.6360796z"/><path d="m110.465784 212.714724 4.266624 10.685937h-20.6252625l3.5742334-10.685937z"/></g><path d="m40.1945327 212.714724 4.266624 10.685937h-20.6252627l3.5742334-10.685937z" fill="#91d6ff"/><path d="m179.858645 212.714724 4.266624 10.685937h-20.625263l3.574234-10.685937z" fill="#86e5f0"/><path d="m92.2555887 58.3750923 16.9334223-.3672798v86.2695005h-40.5219385v-61.7965302c0-13.1125927 10.4790067-23.8213499 23.5885162-24.1056905z" fill="#91d6ff"/><path d="m100.683948 58.0078125h61.680587c12.061898 0 21.84 9.7781011 21.84 21.84v64.4401125c0 .964952-.782249 1.7472-1.7472 1.7472h-105.8847467v-63.9159525c0-13.3163364 10.7950235-24.11136 24.1113597-24.11136z" fill="#c6f9ff"/><path d="m169.164238 58.0078125c8.306526 0 15.040297 6.7337701 15.040297 15.0402965v62.450754c0 .964951-.782249 1.7472-1.7472 1.7472h-28.333394v-64.197954c0-8.3065264 6.733771-15.0402965 15.040297-15.0402965z" fill="#86e5f0"/><path d="m36.9298479 145.198687h67.4572261v57.925688h-80.0572261v-45.325688c0-6.958787 5.6412122-12.6 12.6-12.6z" fill="#c6f9ff"/><g transform="matrix(-1 0 0 1 116.230812 .409712)"><path d="m8.81412099 50.1043504c-10.74553118-2.5038529-11.45321895-17.2618561-3.28367128-22.3811588-8.42517307-17.6717148 11.05811469-35.21743015 24.40399099-24.39670376 8.7492512-3.74726486 16.0199925 10.87533186 7.8787524 22.23217396 3.4134752 19.5000286-3.5336352 24.5405902-16.0568781 24.7547207z" fill="#422851"/><path d="m8.94780621 46.5797241s5.22718879-1.2278602 5.40852839-9.7978828.0540416-11.4953899.0540416-11.4953899l11.5139515-.207882s.1255095 9.5511527.127298 13.0058384c.0048037 9.2788124 6.4663826 8.4953163 6.4663826 8.4953163s-1.3432378 7.5236085-11.7762712 8.1106045c-8.1458723.4590226-11.79393089-8.1106045-11.79393089-8.1106045z" fill="url(#o)"/><path d="m11.7263435 21.0069555c-5.13635499-.1988697-4.29855581 7.3247568 1.0371527 7.3145429 0 0 3.0990608 10.6877574 13.8586027 10.6877574 8.7381355 0 9.306566-12.4567795 9.3858271-14.9417496.0852656-2.6495933.0960739-11.3541985.0960739-11.3541985l-24.5776104-.0114154z" fill="url(#p)"/><g stroke-linecap="round"><path d="m24.7381768 30.972773s1.7663952 2.8569346 5.2174916 1.8404911" stroke="#f77b7b" stroke-width="1.5" transform="matrix(.95105652 -.30901699 .30901699 .95105652 -8.550818 10.016971)"/><path d="m26.2352102 34.3829008c.8097802.340069 1.577851.3400847 2.2499481-.0506732" stroke="#f49494" transform="matrix(.99939083 .0348995 -.0348995 .99939083 1.220075 -.933851)"/><path d="m11.962937 25.1797952c.3229364-1.16404.1800368-2.1806924-.975266-2.6450701" stroke="#f77b7b" transform="matrix(.97437006 -.22495105 .22495105 .97437006 -5.07068 3.20973)"/></g><path d="m10.9136805 20.0773767s2.8153044 3.7798882 3.3855783 3.7999649c.5702739.0200766.7699643-4.9159355.7699643-4.9159355 3.4535164-.2639809 12.193651-2.0054628 14.3361245-6.0624791 1.4982937 3.5796779 4.3624448 5.1697026 6.2442938 4.8643685l.3566747 7.6050281.8783906-15.2893385h-26.6596285z" fill="#422851"/></g><g transform="matrix(-1 0 0 1 112.553349 116.015625)"><path d="m57.8779341 82.1030268s-4.6079155 9.3121894-.8304669 12.246688c3.783129 2.9350669 13.776039 8.4351912 13.776039 8.4351912l-26.4745242-1.664758 5.8848673-20.3095964z" fill="url(#q)"/><path d="m46.9098201 90.9650665c1.306486.1528918-.0888187 4.5541504 2.7400075 4.8889209 2.8231458.334202 4.1952864-3.8356485 7.3990172-2.5136992 3.2037309 1.3219493 14.8878928 8.1566088 15.3480031 10.9507198.4657907 2.793542-3.887443 3.615571-9.857516 2.984679-5.9700729-.630892-7.0704425-2.756032-11.5522575-1.900066-4.4761346.855399-7.829348-.5082-7.6816582-3.78088.1476897-3.2721104 2.2979179-10.7819978 3.6044039-10.6296745z" fill="#222d4e"/><path d="m58.5101231 94.0183121-.5100942.7653829c-.3062855.4595734-.1820212 1.0804246.2775521 1.3867101.0218068.0145333.0441765.0282038.0670572.0409797l7.7300668 4.3162632c.2907498.162346.6432375.169311.9401734.018576l1.1695427-.5937004c-1.9255843-1.3954823-3.5001838-2.4439869-5.240203-3.4735191-1.3358347-.7903848-2.814767-1.6052266-4.434095-2.4606924z" fill="#fff" fill-opacity=".540975"/><path d="m17.9968406.02778837c8.0150075.35807362 52.6242814 10.23045983 60.7290315 11.90770923s14.9567916 10.752965 8.7765448 21.2621414c-6.9414169 11.7971047-24.8515434 45.3006087-29.199983 52.8531273-2.1522955 3.7381805-13.0102645 1.6422744-10.4597767-4.6319786 4.754567-11.6963334 6.9625927-41.0786376 19.0845105-51.7918591 0 0-40.7658757 7.0989907-58.37503474-1.0326906-12.79788234-5.9110566-9.90264577-29.43207838 9.44470764-28.56644963z" fill="url(#r)"/></g><g transform="matrix(-1 0 0 1 88.380039 49.5)"><path d="m50.6133591 19.1199695s-.0905699-6.5253738 2.190658-9.93556526c2.281228-3.41019146 2.3717978-7.03256251 4.0982855-6.91399156 1.7264876.11857096.0169818 8.53824342.0169818 8.53824342s2.1906581-.83737189 3.7643091-1.89656793c1.5736511-1.05919605 6.3455497-6.28085669 7.4606909-5.35554938 1.8906455 1.57659658-1.1547655 10.46998561-2.8133258 12.24798261-1.6642208 1.7785643-10.7551689 7.6271192-10.7551689 7.6271192z" fill="url(#s)"/><path d="m1.35855029 15.2098347c3.72839085 8.6526706 10.55516741 24.5479356 13.36953451 29.2902151 3.5269958 5.9389583 9.0885982 8.5555309 15.6003722 4.1491069 6.8422686-4.6301553 25.6826671-22.6891416 26.2352125-26.7798614.5473815-4.0907198-4.0640493-8.9988602-8.2365421-6.4577259s-21.5101742 16.9780483-21.5101742 16.9780483-6.9971878-17.9470836-12.6259219-28.34361933c-4.87479361-8.99472656-18.50769091-1.99033127-12.83248101 11.16383633z" fill="#6a5ee3"/><path d="m26.8892489 32.3989183c1.2528716 4.2520016 2.0257467 6.2549059 2.3186253 6.008713.2928786-.246193.1809924-2.8047228-.3356585-7.6755896z" fill="#000" fill-opacity=".302803"/></g><g transform="matrix(.95105652 -.30901699 .30901699 .95105652 12.536788 49.316511)"><path d="m2.86956228 1.09124984h9.95696282c1.3254834 0 2.4 1.0745166 2.4 2.4v24.73124996c0 1.3254834-1.0745166 2.4-2.4 2.4h-9.95696282c-1.3254834 0-2.4-1.0745166-2.4-2.4v-24.73124996c0-1.3254834 1.0745166-2.4 2.4-2.4z" fill="#7596ff" fill-rule="nonzero"/><path d="m1.581103.703125h14.756963v29.53125h-14.756963z" fill="#93c2f9"/><path d="m4.2188049 1.7578125h1.11918722c.2280056 0 .41763739.16439427.45696291.38118466l.00748284.08353372c0 .25665687.20793944.46471837.46444575.46471837h5.39670018c.2280056 0 .4176374-.16439427.4569629-.38118466l.0074828-.08353371c0-.25665688.2079395-.46471838.4644458-.46471838h1.1135381c.8271897 0 1.5055904.6374152 1.5713625 1.44813365l.0052258.13077583-.0212258 24.01479662c-.0026048 1.0478206-.851794 1.8967571-1.8990018 1.8984392h-8.85417766c-1.00230374.0016028-1.82308259-.7759841-1.89255995-1.7611832l-.00476385-.1355786c0-.0005596 0-.0011193.00167796-.0016774l.0212208-24.00914418c.00077369-.87535597.7101907-1.58456192 1.5850335-1.58456192z" fill="#e6f3ff" fill-rule="nonzero"/></g><g transform="matrix(-1 0 0 1 124.282306 45.468402)"><path d="m0 8.81560135s8.98480399 30.10288235 9.2508946 35.80113025c.2660906 5.6988144-7.34862986 22.4474373-6.05214586 26.6807614 2.98927317 9.782587 41.15345946 13.9949512 42.61155366.8349953.6800085-6.1373824-.7351375-11.6457482.8953751-18.8774643 1.6248512-7.2317162 8.1560707-17.9781474 4.4516564-28.0816727s-2.7118596-19.4508572-5.3614426-21.2176037-8.8432664-3.64304924-8.8432664-3.64304924c-3.0119192 4.43499184-13.1799772 4.37041283-18.0318845-.31269836 0 0-12.05333823 2.33957291-18.9207404 8.81560135z" fill="#7367f0"/><path d="m8.05149407 13.6910849c5.98905043 9.5100923 5.97104483 26.0680548 9.18759623 28.2365791s15.7356746.0404792 15.7356746 1.7578125-17.3006407 17.45572-14.4604963 24.9794053c1.4871522 3.9395411 1.0837518 7.4639437-1.2102011 10.5732078l-.7487813-.1632655c-6.81659319-1.5414329-12.29682954-4.3093694-13.35653746-7.7773311-1.296484-4.2333241 7.19662706-20.981947 6.93053646-26.6807614-.22587592-4.8370638-7.36721317-27.2595684-9.52061441-33.9265749 1.75320945-3.0949296 4.23372589-2.09483983 7.44282328 3.0009282z" fill="#000" fill-opacity=".199355"/></g><g transform="matrix(-1 0 0 1 145.053803 51.767578)"><path d="m39.0356802 32.6227209s7.5678362-6.7019211 9.8845208-7.4796707c2.3166845-.7777496 15.8850196-1.7120702 15.7992165.045383-.0972435 1.8828234-7.3847895 1.7744717-8.139857 2.7008503-.7550676.9258113-.9266739 7.2567271-3.781058 7.9675369-2.848664.7108098-11.3889356 1.9361483-11.3889356 1.9361483z" fill="url(#t)"/><path d="m18.9022528 4.24640534c-7.9731794 11.25942596-14.78048384 28.41027716-17.39345582 35.09690156-2.61297199 6.6866243.02286903 16.7721799 11.51271622 14.7921827 11.4691912-1.9748303 29.7176539-12.7051581 31.7367686-15.8353312s-1.0482871-8.8258392-4.9109414-8.08024c-3.5786355.6897955-21.329435 8.2419674-21.329435 8.2419674s11.4197646-20.2537096 14.2083118-25.6832011c4.6579065-9.06758133-6.8009567-18.45293366-13.8239644-8.53227936z" fill="#6a5ee3"/><path d="m18.6986445 38.32341c-3.9875162 1.9822514-5.7381041 2.5577084-5.2517638 1.726371.4863403-.8313375 2.9977541-2.7073302 7.5342413-5.6279784z" fill="#000" fill-opacity=".302803"/></g><g transform="matrix(-1 0 0 1 125.729209 112.5)"><path d="m98.8932823 85.9925118s-.1389144 10.9604629 8.8871997 15.0584162c9.020434 4.097385 15.447201 3.850713 14.629227 7.018812-.817973 3.16753-24.2973177 3.039649-26.489942.56212-1.868843-2.107519-5.9327448-21.7327949-7.0517784-20.2322959z" fill="url(#u)"/><path d="m91.7519956 98.2613643c1.0079692-1.9486432 1.0713334 3.5332627 5.0470971 2.3251237 3.2264523-.9804415 4.3293713-6.5914467 6.3681893-5.3625786 2.038819 1.2288681 19.985011 10.7577146 20.087257 10.8151206 2.209666 1.190737 1.592128 4.798675-2.139878 5.42843-4.146673.699096-25.6328489.228487-26.7859648-.877562-1.1531159-1.10605-3.3849838-10.7659311-2.5767006-12.3285337z" fill="#222d4e"/><path d="m105.821799 98.5012031c-.262127 0-.517609.184361-.766447.553083-.308945.4577891-.188284 1.0793499.269505 1.3882959.0561.03786.115899.069928.178477.095708l9.323526 3.84109c.360078.148308.77222-.02333.920559-.383394.076089-.184691.070272-.392988-.016004-.573145-.17506-.365551-9.233488-4.9216379-9.909616-4.9216379z" fill="#fff" fill-opacity=".540975"/><path d="m5.18072722.15509217c-7.76823704 16.41530883-6.19390812 27.44130233 4.72298675 33.07798053 15.83630623 8.1766988 63.24481183-1.4941407 63.24481183-1.4941407s-.847149 6.8245235 0 12.911176c2.2125449 15.8968393 12.7352046 42.3817858 14.9615386 45.709684 3.0787627 4.6020985 12.4572876 1.1314032 12.6339456-2.7005661s-7.0700099-52.7726695-8.1720025-62.1053183c-1.0963121-9.3332172-4.5574946-10.6889009-14.6667253-13.2401983-2.3224546-.5861249-29.7869055-7.41549173-32.3028849-7.21643608-14.4120814 1.14023438-27.8859714-.50715931-40.42167008-4.94218105z" fill="#2c3757"/><path d="m17.9543048 30.6919082c15.678472 1.7578125 57.1865792-1.8655295 58.8536376-.2190786 1.5915835 1.571909 1.3260318 28.9196073 4.8963207 44.7482164l-.5429798-1.4947118c-3.3577198-9.3313036-6.8442215-20.6804515-8.0127575-29.0762262-.847149-6.0866525 0-12.911176 0-12.911176l-1.9115688.3702286c-9.0118329 1.6937684-47.3972936 8.3194071-61.33324303 1.1239121-7.5509744-3.8987655-10.63229473-10.3758778-9.24396099-19.4313368 2.39064102 10.2352475 8.15547662 15.8655329 17.29455182 16.8901723z" fill="#fff" fill-opacity=".192499" opacity=".461565"/></g><path d="m115.606751 137.0925h68.597784v74.4198c0 .964952-.782249 1.7472-1.7472 1.7472h-90.9619438v-52.05564c0-13.316336 10.7950238-24.11136 24.1113598-24.11136z" fill="#86e5f0"/></g><g transform="translate(525.001631 432.119048)"><path d="m0 17.6190476h7.04676455c6.81151195 0 12.33333335 5.5218214 12.33333335 12.3333334h-7.0467646c-6.81151188 0-12.3333333-5.5218215-12.3333333-12.3333334z" fill="#2ce780"/><path d="m8.8091354 10.5714286h5.2852094c3.4057559 0 6.1666666 2.7609107 6.1666666 6.1666666h-5.2852093c-3.405756 0-6.1666667-2.7609107-6.1666667-6.1666666z" fill="#28c76f"/><path d="m19.3800979 16.7380952h6.1659287c5.8384388 0 10.5714285 4.7329898 10.5714285 10.5714286h-6.1659286c-5.8384388 0-10.5714286-4.7329898-10.5714286-10.5714286z" fill="#28c76f" transform="matrix(-1 0 0 1 55.497554 0)"/><path d="m17.3887967 7.64189295 5.4139319.00939493c4.2266119.00733455 7.6511235 3.43186742 7.6584318 7.65847932l-5.413932-.0093949c-4.2266118-.0073346-7.6511234-3.4318675-7.6584317-7.65847935z" fill="#2ce780" transform="matrix(-.92718385 .37460659 .37460659 .92718385 41.808912 -8.126829)"/><path d="m15.6491652 4.4047619c2.7556034 1.74714715 4.5035816 5.07048442 4.6069893 8.7185292l.0048569.3429173v26.1766487h-1.4139039v-26.1766487c0-3.0688706-1.3885829-5.89948133-3.6360397-7.45104966l-.2355376-.15590182z" fill="#28c76f"/><g transform="translate(3.523654 30.833333)"><use fill="#da4e4f" xlink:href="#v"/><path d="m-.89209444-1.74751773h8.92094437c-3.93674505 15.01752813 5.65168957 27.47162193 0 42.81418443h-8.92094437z" fill="#e95b5c" mask="url(#y)"/><g fill="#ffdfe2" fill-opacity=".257949"><path d="m0 23.591489h32.650656v3.495035h-32.650656z" mask="url(#y)"/><path d="m0 13.980142h32.650656v3.495035h-32.650656z" mask="url(#y)"/></g></g><path d="m9.78110384 2.17990852 4.32398266.00572589c3.623102.00479778 6.5590048 2.94071697 6.5637823 6.56381905l-4.3239826-.00572589c-3.623102-.00479778-6.55900483-2.94071697-6.56378236-6.56381905z" fill="#2ce780" transform="matrix(.9612617 .27563736 -.27563736 .9612617 2.09606 -3.984882)"/></g></g></svg>