<svg height="575" viewBox="0 0 650 575" width="650" xmlns="http://www.w3.org/2000/svg" xmlns:xlink="http://www.w3.org/1999/xlink"><defs><filter id="a" height="112.2%" width="112.1%" x="-6.1%" y="-6.1%"><feGaussianBlur in="SourceGraphic" stdDeviation="2"/></filter><filter id="b" height="126%" width="125.9%" x="-12.9%" y="-13%"><feGaussianBlur in="SourceGraphic" stdDeviation="3"/></filter><path id="c" d="m18.522 0h29.434852c1.6228649 0 2.9515134 1.29053846 2.99873 2.91271629l.0885907 3.04363292c.0965553 3.317267 2.8135707 5.95634919 6.1322426 5.95634919h89.1303767c3.318672 0 6.035687-2.63908219 6.132243-5.95634919l.08859-3.04363292c.047217-1.62217783 1.375866-2.91271629 2.99873-2.91271629h29.434852c10.229419 0 18.522 8.29258186 18.522 18.522v395.444891c0 10.229419-8.292581 18.522-18.522 18.522h-166.439207c-10.22941814 0-18.522-8.292581-18.522-18.522v-395.444891c0-10.22941814 8.29258186-18.522 18.522-18.522z"/><linearGradient id="d" x1="50%" x2="50%" y1="81.176763%" y2="-34.513079%"><stop offset="0" stop-color="#ff8c19"/><stop offset="1" stop-color="#ffc967"/></linearGradient><linearGradient id="e" x1="62.110065%" x2="62.110065%" y1="31.380909%" y2="-27.477988%"><stop offset="0" stop-color="#f8fdff"/><stop offset="1" stop-color="#aad4ff"/></linearGradient><path id="f" d="m23.4435696 4.26168224v17.04672896c0 1.811215-1.3853019 3.1962617-3.1968504 3.1962617h-5.328084c-.6393701 0-1.0656168-.4261682-1.0656168-1.0654206 0-.6392523.4262467-1.0654205 1.0656168-1.0654205h5.328084c.63937 0 1.0656168-.4261682 1.0656168-1.0654206v-17.04672896c0-.63925233-.4262468-1.06542056-1.0656168-1.06542056h-5.328084c-.6393701 0-1.0656168-.42616822-1.0656168-1.06542056 0-.63925233.4262467-1.06542056 1.0656168-1.06542056h5.328084c1.8115485 0 3.1968504 1.38504673 3.1968504 3.19626168zm-6.5002625 8.94953276c.1065617-.2130842.1065617-.5327103 0-.8523365-.1065617-.1065421-.1065617-.2130841-.2131234-.3196262l-4.2624672-4.26168221c-.4262467-.42616822-1.0656168-.42616822-1.4918635 0-.4262467.42616823-.4262467 1.06542056 0 1.49158879l2.4509187 2.45046732h-10.22992131c-.63937008 0-1.06561679.4261682-1.06561679 1.0654205 0 .6392524.42624671 1.0654206 1.06561679 1.0654206h10.22992131l-2.4509187 2.4504673c-.4262467.4261682-.4262467 1.0654205 0 1.4915888.2131234.2130841.5328084.3196261.7459318.3196261.2131233 0 .5328084-.106542.7459317-.3196261l4.2624672-4.2616823c.1065617-.106542.2131234-.2130841.2131234-.3196261z"/><path id="g" d="m23.6211724 12.4299065h-1.2432196v-3.72897192c0-4.10186916-3.356693-7.45794393-7.4593176-7.45794393-4.1026247 0-7.45931761 3.35607477-7.45931761 7.45794393v3.72897192h-1.2432196c-2.11347332 0-3.72965879 1.6158879-3.72965879 3.728972v8.7009346c0 2.1130841 1.61618547 3.7289719 3.72965879 3.7289719h17.40507441c2.1134733 0 3.7296587-1.6158878 3.7296587-3.7289719v-8.7009346c0-2.1130841-1.6161854-3.728972-3.7296587-3.728972zm-13.67541562-3.72897192c0-2.73457944 2.23779532-4.97196262 4.97287842-4.97196262s4.9728784 2.23738318 4.9728784 4.97196262v3.72897192h-9.94575682zm14.91863522 16.15887852c0 .7457944-.4972879 1.2429906-1.2432196 1.2429906h-17.40507441c-.74593176 0-1.2432196-.4971962-1.2432196-1.2429906v-8.7009346c0-.7457944.49728784-1.2429906 1.2432196-1.2429906h17.40507441c.7459317 0 1.2432196.4971962 1.2432196 1.2429906z"/><path id="h" d="m6 0h62.1751666c3.3137085 0 6 2.6862915 6 6v49.7294372c0 3.3137085-2.6862915 6-6 6h-62.1751666c-3.3137085 0-6-2.6862915-6-6v-49.7294372c0-3.3137085 2.6862915-6 6-6z"/><path id="i" d="m10.0398384 0h110.2427076c5.507327 0 9.978025 4.45295749 9.999921 9.96024091l.574968 144.61183309c.021959 5.522803-4.437358 10.017721-9.960161 10.03968-.013253.000052-.026506.000079-.03976.000079h-110.2427076c-5.50732695 0-9.97802433-4.452958-9.99992096-9.960241l-.57496796-144.6118329c-.02195834-5.52280386 4.43735803-10.01772172 9.96016192-10.03968006.0132529-.00005269.026506-.00007904.039759-.00007904z"/><filter id="j" height="156.5%" width="171%" x="-29.4%" y="-22.8%"><feOffset dx="8" dy="9" in="SourceAlpha" result="shadowOffsetOuter1"/><feGaussianBlur in="shadowOffsetOuter1" result="shadowBlurOuter1" stdDeviation="14"/><feColorMatrix in="shadowBlurOuter1" result="shadowMatrixOuter1" type="matrix" values="0 0 0 0 0.0755212756   0 0 0 0 0.582569014   0 0 0 0 0.878793025  0 0 0 0.229458042 0"/><feOffset dx="0" dy="2" in="SourceAlpha" result="shadowOffsetOuter2"/><feGaussianBlur in="shadowOffsetOuter2" result="shadowBlurOuter2" stdDeviation="7.5"/><feColorMatrix in="shadowBlurOuter2" result="shadowMatrixOuter2" type="matrix" values="0 0 0 0 0.50398247   0 0 0 0 0.700178215   0 0 0 0 1  0 0 0 0.233828671 0"/><feMerge><feMergeNode in="shadowMatrixOuter1"/><feMergeNode in="shadowMatrixOuter2"/></feMerge></filter><ellipse id="k" cx="25.17043" cy="25.544876" rx="25.17043" ry="25.544876"/><filter id="l" height="282%" width="284.7%" x="-76.5%" y="-73.4%"><feOffset dx="8" dy="9" in="SourceAlpha" result="shadowOffsetOuter1"/><feGaussianBlur in="shadowOffsetOuter1" result="shadowBlurOuter1" stdDeviation="14"/><feColorMatrix in="shadowBlurOuter1" result="shadowMatrixOuter1" type="matrix" values="0 0 0 0 0.0755212756   0 0 0 0 0.582569014   0 0 0 0 0.878793025  0 0 0 0.229458042 0"/><feOffset dx="0" dy="2" in="SourceAlpha" result="shadowOffsetOuter2"/><feGaussianBlur in="shadowOffsetOuter2" result="shadowBlurOuter2" stdDeviation="7.5"/><feColorMatrix in="shadowBlurOuter2" result="shadowMatrixOuter2" type="matrix" values="0 0 0 0 0.50398247   0 0 0 0 0.700178215   0 0 0 0 1  0 0 0 0.233828671 0"/><feMerge><feMergeNode in="shadowMatrixOuter1"/><feMergeNode in="shadowMatrixOuter2"/></feMerge></filter><linearGradient id="m"><stop offset="0" stop-color="#fdc6c6"/><stop offset="1" stop-color="#ffcca1"/></linearGradient><linearGradient id="n" x1="47.253759%" x2="50%" xlink:href="#m" y1="-28.185925%" y2="91.050481%"/><linearGradient id="o"><stop offset="0" stop-color="#fdc6c6"/><stop offset="1" stop-color="#fab2b2"/></linearGradient><linearGradient id="p" x1="45.754303%" x2="50%" xlink:href="#o" y1="-28.185925%" y2="91.050481%"/><linearGradient id="q" x1="44.569858%" x2="50%" xlink:href="#o" y1="-28.185925%" y2="91.050481%"/><linearGradient id="r" x1="44.089006%" x2="50%" xlink:href="#m" y1="-28.185925%" y2="91.050481%"/><linearGradient id="s" x1="47.843797%" x2="50%" xlink:href="#m" y1="-28.185925%" y2="91.050481%"/><mask id="t" fill="#fff"><use fill="#fff" fill-rule="evenodd" xlink:href="#c"/></mask><mask id="u" fill="#fff"><use fill="#fff" fill-rule="evenodd" xlink:href="#f"/></mask><mask id="v" fill="#fff"><use fill="#fff" fill-rule="evenodd" xlink:href="#g"/></mask><mask id="w" fill="#fff"><use fill="#fff" fill-rule="evenodd" xlink:href="#h"/></mask></defs><g fill="none" fill-rule="evenodd"><g transform="translate(6)"><path d="m469.402027 0c96.427798 0 174.597973 77.8709307 174.597973 173.929592 0 96.058661-78.170175 173.929592-174.597973 173.929592s-174.597973-77.870931-174.597973-173.929592c0-96.0586613 78.170175-173.929592 174.597973-173.929592zm0 65.0204082c-60.380023 0-109.327703 48.7603028-109.327703 108.9091838s48.94768 108.909184 109.327703 108.909184 109.327703-48.760303 109.327703-108.909184-48.94768-108.9091838-109.327703-108.9091838z" fill="#7367f0" fill-rule="nonzero" opacity=".052827"/><path d="m49.4966216 226.487755c27.3362293 0 49.4966216 22.07556 49.4966216 49.307143s-22.1603923 49.307143-49.4966216 49.307143-49.4966216-22.07556-49.4966216-49.307143 22.1603923-49.307143 49.4966216-49.307143zm0 32.510204c-9.3123418 0-16.8614865 7.520246-16.8614865 16.796939s7.5491447 16.796939 16.8614865 16.796939c9.3123419 0 16.8614865-7.520246 16.8614865-16.796939s-7.5491446-16.796939-16.8614865-16.796939z" fill="#8bf78f" fill-rule="nonzero" filter="url(#a)" opacity=".14102"/><ellipse cx="202.337838" cy="433.469388" fill="#7367f0" fill-opacity=".061216" rx="97.905405" ry="97.530612"/><ellipse cx="169.702703" cy="92.112245" fill="#cef5ff" opacity=".14102" rx="34.810811" ry="34.677551"/><ellipse cx="579.817568" cy="433.469388" fill="#7367f0" fill-opacity=".135927" filter="url(#b)" rx="34.810811" ry="34.677551"/></g><g transform="translate(208.539488 119)"><path d="m25.137 0h169.805356c13.882781 0 25.137 11.2542182 25.137 25.137v403.198568c0 13.882782-11.254219 25.137-25.137 25.137h-169.805356c-13.8827818 0-25.137-11.254218-25.137-25.137v-403.198568c0-13.8827818 11.2542182-25.137 25.137-25.137z" fill="#c4e3e7"/><g transform="translate(7.937288 9.138123)"><use fill="#fff" xlink:href="#c"/><ellipse cx="77.145991" cy="263.229482" fill="#7367f0" mask="url(#t)" opacity=".098772" rx="17.45298" ry="17.327561"/><path d="m181.591171 245.901921c46.538368 0 84.265171 37.455693 84.265171 83.659632s-37.726803 83.659632-84.265171 83.659632c-46.538369 0-84.2651713-37.455693-84.2651713-83.659632s37.7268023-83.659632 84.2651713-83.659632zm0 36.550324c-26.206072 0-47.450291 21.091556-47.450291 47.109308s21.244219 47.109307 47.450291 47.109307c26.206071 0 47.45029-21.091555 47.45029-47.109307s-21.244219-47.109308-47.45029-47.109308z" fill="#c8f5d0" mask="url(#t)" opacity=".14102"/><path d="m30.472656 74.2507662h144.069394c3.140074 0 5.685607 2.5455326 5.685607 5.6856061s-2.545533 5.6856061-5.685607 5.6856061h-144.069394c-3.1400735 0-5.685606-2.5455326-5.685606-5.6856061s2.5455325-5.6856061 5.685606-5.6856061z" fill="#68de9e" fill-opacity=".642073" mask="url(#t)"/></g><g fill="#56cdd9" fill-rule="nonzero"><path d="m121.968816 7.93887177c1.88262 0 3.408785 1.45459002 3.408785 3.24891773 0 1.7544538-1.459089 3.1841016-3.283818 3.2467751l-.124967.0021427h-38.5450088c-1.8826201 0-3.4087852-1.4545901-3.4087852-3.2489178 0-1.75445376 1.4590892-3.18410151 3.2838181-3.24677502l.1249671-.00214271z"/><path d="m135.782748 7.39738548c1.88262 0 3.408786 1.51519794 3.408786 3.38428932 0 1.827556-1.45909 3.3167724-3.283819 3.3820573l-.124967.002232h-.178791c-1.88262 0-3.408786-1.5151979-3.408786-3.3842893 0-1.82755602 1.45909-3.31677243 3.283819-3.38205733l.124967-.00223199z"/></g></g><g transform="translate(222.720034 271.699134)"><path d="m4 .76414546h7.5936784c2.209139 0 4 1.790861 4 3.99999999v3.50225996c0 .67338798.5458888 1.2192768 1.2192768 1.2192768h50.0095916c2.209139 0 4 1.79086099 4 3.99999999v42.6984138c0 2.209139-1.790861 4-4 4h-62.8225468c-2.209139 0-4-1.790861-4-4v-51.41995055c0-2.20913899 1.790861-3.99999999 4-3.99999999z" fill="url(#d)"/><path d="m18.0193776 4.89053091h54.3219224c.673388 0 1.2192768.54588882 1.2192768 1.2192768 0 .06477709-.0051621.12945118-.0154374.19340812l-8.1601838 50.79181877c-.0949736.5911485-.6051103 1.0258687-1.2038394 1.0258687h-54.32192242c-.67338798 0-1.2192768-.5458888-1.2192768-1.2192768 0-.0647771.00516215-.1294512.01543744-.1934082l8.16018378-50.79181872c.0949736-.59114851.6051103-1.02586867 1.2038394-1.02586867z" fill="url(#e)"/><path d="m79.2919567 23.1775393-6.1129909 31.214395c-.7352145 3.754181-4.0253696 6.4624957-7.850865 6.4624957h-60.46876143c-2.209139 0-4-1.790861-4-4 0-.2580561.02497222-.5155066.07456752-.7687521l6.11299094-31.214395c.73521445-3.754181 4.02536957-6.4624957 7.85086497-6.4624957h60.4687614c2.209139 0 4 1.790861 4 4 0 .2580561-.0249722.5155066-.0745675.7687521z" fill="#ffcc7b"/></g><g transform="translate(142 216.467532)"><path d="m6 0h33.6665005l12.6924407 12.995671v42.7337662c0 3.3137085-2.6862915 6-6 6h-40.3589412c-3.3137085 0-6-2.6862915-6-6v-49.7294372c0-3.3137085 2.6862915-6 6-6z" fill="#b7b1fb"/><g transform="translate(10.656168 19.728729)"><use fill="#000" fill-rule="nonzero" xlink:href="#f"/><g fill="#fff" mask="url(#u)"><path d="m0 0h25.574803v25.570094h-25.574803z"/></g></g><path d="m52.3589412 12.995671h-9.6924407c-1.6568543 0-3-1.3431458-3-3v-9.995671z" fill="#7367f0" fill-rule="nonzero" opacity=".33996"/></g><g transform="translate(164.907037 376.747475)"><path d="m6 0h62.1751666c3.3137085 0 6 2.6862915 6 6v49.7294372c0 3.3137085-2.6862915 6-6 6h-62.1751666c-3.3137085 0-6-2.6862915-6-6v-49.7294372c0-3.3137085 2.6862915-6 6-6z" fill="#6fd9e6"/><g transform="translate(21.312336 15.981308)"><use fill="#000" fill-rule="nonzero" xlink:href="#g"/><g fill="#fff" mask="url(#v)"><path d="m0 0h29.83727v29.831776h-29.83727z"/></g></g></g><g transform="translate(229.264902 179.646465)"><use fill="#baf3c4" fill-rule="nonzero" xlink:href="#h"/><ellipse cx="32.724338" cy="22.742424" fill="#fff" mask="url(#w)" rx="9.817301" ry="9.746753"/><ellipse cx="10.362707" cy="73.100649" fill="#28c76f" mask="url(#w)" rx="35.451366" ry="35.196609"/><ellipse cx="74.720572" cy="64.978355" fill="#69e09e" mask="url(#w)" rx="41.996234" ry="41.152958"/></g><g transform="translate(327.437917 154.738095)"><use fill="#000" filter="url(#j)" xlink:href="#i"/><use fill="#fff" fill-rule="evenodd" xlink:href="#i"/><path d="m44.6997462 101.799423h41.4978605c1.7943277 0 3.2489178 1.45459 3.2489178 3.248918 0 1.794327-1.4545901 3.248917-3.2489178 3.248917h-41.4978605c-1.7943278 0-3.2489178-1.45459-3.2489178-3.248917 0-1.794328 1.45459-3.248918 3.2489178-3.248918z" fill="#7367f0" fill-rule="nonzero" opacity=".33996"/><path d="m33.7916334 119.126984h63.3140861c1.7943277 0 3.2489175 1.45459 3.2489175 3.248918s-1.4545898 3.248918-3.2489175 3.248918h-63.3140861c-1.7943277 0-3.2489177-1.45459-3.2489177-3.248918s1.45459-3.248918 3.2489177-3.248918z" fill="#7367f0" fill-rule="nonzero" opacity=".33996"/><g transform="translate(40.360017 27.074315)"><use fill="#000" filter="url(#l)" xlink:href="#k"/><use fill="#fff" fill-rule="evenodd" xlink:href="#k"/></g><path d="m15.4202043 14.5949316c2.9420937 0 5.3271319 2.3850382 5.3271319 5.3271319v4.0154011c0 .724449-.5872819 1.3117309-1.3117308 1.3117309h-18.12387457c-.72444893 0-1.31173083-.5872819-1.31173083-1.3117309v-4.0154011c0-2.9420937 2.38503822-5.3271319 5.32713196-5.3271319zm-5.0465362-14.5949316c3.5560668 0 6.4388285 2.86204586 6.4388285 6.39255835s-2.8827617 6.39255835-6.4388285 6.39255835c-3.55606676 0-6.43882847-2.86204586-6.43882847-6.39255835s2.88276171-6.39255835 6.43882847-6.39255835z" fill="#7367f0" transform="translate(55.631375 38.987013)"/></g><g transform="translate(501.556637 256.927639)"><path d="m16.1800746 83.4999028s-11.58367411 12.5749458-10.77805395 13.707853c.80641237 1.1403622 6.80901615-1.9035299 6.80901615-1.9035299s-7.03081326 12.9522741-5.40635591 13.8388651c1.62366244.88659 9.58465481-1.472123 11.92582501-4.18667 2.3419651-2.714548 5.5012273-15.9791799 5.5012273-15.9791799l16.8041864-35.3797241-13.6694547-3.9442343z" fill="url(#n)" transform="matrix(.99874879 .05000849 -.05000849 .99874879 4.004356 -1.060679)"/><path d="m3.53178906 19.377995c5.12252644 7.902341 22.36630114 30.4231577 22.36630114 30.4231577s-.4188283 1.4976876-1.2564851 4.4930627l15.8468217 10.7857174c3.0012438-8.2314642 4.6320788-12.9262299 4.8925051-14.0842973 1.2883269-5.7300248-24.7459912-42.29704252-30.5752057-47.58076211-9.17860799-8.31999609-19.10265557 3.88677591-11.27393714 15.96312161z" fill="#fd8715"/><path d="m30.0196737 55.7795696c.197033-.381601-1.1682778-2.401359-4.0959324-6.0592739l-.7440631 2.6683157c3.0296307 2.6422399 4.6429626 3.7725593 4.8399955 3.3909582z" fill="#000" fill-opacity=".159856"/><path d="m24.5432537 52.7866689 16.8357447 12.7641493-3.7515398 8.2550326-14.7204218-16.2555917z" fill="#ffedc2"/></g><g transform="translate(473.239593 327.484572)"><path d="m42.2329316 214.539555-.9350724 15.818295 11.9872063.309916-2.2530788-16.128211z" fill="url(#p)"/><path d="m42.5261034 220.771259s.3364098 9.525909-1.6505103 12.85176c-1.9995354 3.325852-2.6054907 5.904261-2.6937983 7.893199-.0946152 2.132065.1082819 4.063752.1082819 4.063752h19.8406212s.4966221-10.022083-.8174784-11.912422c-1.3141005-1.889279-2.1761505-1.922145-2.1761505-3.591962-.0105128-1.669817-.2943585-9.241775-.2943585-9.241775z" fill="#391b0b" transform="matrix(-1 0 0 1 96.379376 0)"/><path d="m0 3.35605166 31.0964302-3.35605166.4572096.42152084c2.2163007 2.09655794 11.8478772 11.83326266 14.6153735 25.14168736 5.2248155 25.1252601-1.7678813 71.5299584-1.6132076 81.7055438.147643 10.175585 4.9909029 16.315212 7.0035623 30.702653 2.0126593 14.387441 2.2027144 78.686969 2.2027144 78.686969-5.3362403 3.139647-10.0316289 3.364407-16.3943395-.188463z" fill="#4e3319"/><path d="m27.7772192 161.771085-27.7772192-158.41503334 17.2896937-1.86612802c.7703513 55.03302056 11.5225803 129.42266936 10.4875255 160.28116136z" fill="#fff" fill-opacity=".192499"/></g><g transform="translate(446.710867 331.843663)"><path d="m32.8984667 208.517106-10.2225208.164731c.448123 7.022924-.637991 11.723891-3.2583419 14.102899l-.2147841.186755c-4.7456682 3.94864 13.562065 2.523305 13.562065 2.523305z" fill="url(#q)"/><path d="m.71628939 216.728735.29417349 24.483433 7.27896068.00533.06303718-6.032974s2.29585006 5.624672 5.80491946 5.949767c3.5195757.325094 19.20166.125774 19.20166.125774s1.3027683-5.648122-6.5033353-8.212639c-6.4928291-2.131769-13.6722023-16.318691-13.6722023-16.318691z" fill="#391b0b" transform="matrix(-1 0 0 1 34.156918 0)"/><path d="m11.1035461 1.17475028 34.9185307-1.17475028.2609083.47957839c1.6943516 3.19053093 10.9784116 21.87119831 8.1116494 43.10443261-4.0239099 29.8038763-14.2529945 64.743422-14.7538036 70.080921-.8928887 9.516185.8928886 16.406696 1.6251383 26.235708.7322497 9.829013-2.7922212 71.646548-2.7922212 71.646548-5.1815666 3.094276-11.3474199 3.701545-19.1865607.093533-4.7178043-55.977946-7.0941347-88.39638-7.128991-97.255301-.0522845-13.288383-1.0546502-113.21066972-1.0546502-113.21066972z" fill="#604021"/><path d="m18.2887052 33.4112408-.2316882 2.2082249c-2.3271049 23.2851864-2.309479 72.7343933-1.4083463 80.3606303l.1236603.982914c.9994773 8.605623 1.0318859 30.453328.0972258 65.543114l-1.2166138-15.141771c-2.3054893-29.136281-3.4704188-46.795877-3.4947467-52.978933l-.0422353-6.398976c-.2004986-25.8746412-1.0124149-106.81169372-1.0124149-106.81169372l7.3642072-.24748376c.7871174 12.77638248.7274347 23.60437388-.1790481 32.48397428z" fill="#fff" fill-opacity=".192499"/></g><g transform="translate(468.009338 198.455686)"><path d="m3.12008554 24.1972659c-4.29656073.4666787-3.99195381 7.9660079 1.23830728 8.3575596 1.06900997 7.2293813 4.88140602 10.6737629 9.52938698 11.072318l-.2577937 10.9347974 20.5593638-.0120967s-5.7894553-7.7247102-5.5008803-18.2997894c.288575-10.5757159-.1936659-20.5103056-.1936659-20.5103056l-26.62905738.4743187z" fill="url(#r)"/><path d="m34.6529251 24.7591317c-5.0041933-1.9647351-8.7008218 6.4943777-12.5297607 12.3737079-3.8289389 5.8793301-13.74909377 4.8803846-15.11632697 0-5.17623927-10.6891809-9.63699365-25.2215351-3.59653351-26.4142871.85025262-15.44879683 41.57831248-11.80152508 31.24262118 14.0405792z" fill="#8b5030" transform="matrix(-1 0 0 1 36.838018 0)"/><path d="m30.436082 4.87110373c1.7441518 1.47151429 2.858288 3.42464804 2.9916313 5.84744877 6.0404601 1.192752 1.5797057 15.7251062-3.5965335 26.4142871-1.2713865 4.5382566-9.9385618 5.7201977-14.2263118 1.1360952-3.9105069-11.630277-2.2402113-24.6342406 5.6659518-33.39555818z" fill="#000" fill-opacity=".199355"/><ellipse cx="24.686487" cy="4.873377" fill="#fb9934" rx="4.908651" ry="4.873377"/></g><g transform="translate(453.04362 249.54663)"><path d="m53.2563712 5.58883306c4.5867547 6.68963634 12.2311809 29.39401804 12.664747 34.50177524.4884892 5.8918146-5.8735016 15.2773556-5.9781778 23.8066025-.0930456 8.5304087 4.745324 34.2145842 3.291487 36.6138342-1.4422063 2.39925-42.7960476 13.021655-45.4943691 12.964723-2.6866908-.058093-19.6491602-14.515812-17.5207428-19.5118291 2.1400481-4.9960171 12.0726626-17.4117006 11.0607921-24.2190644-1.0002399-6.8062019-6.80890563-31.9315205-9.69331828-40.4828429-2.87278196-8.5513223-1.91485668-17.5292787 3.44689426-21.20890338 2.65302195-1.82069723 9.73243672-6.99331127 22.33961202-6.97015564 12.6071753.02427037 25.5273771 3.98708545 25.8830756 4.50586048z" fill="#fd8715" transform="matrix(-1 0 0 1 65.94787 0)"/><path d="m26.9264911.59427726c-.3537137 1.91781348.2436424 2.87672022 1.7920684 2.87672022 2.3226389 0 17.9017466.50937982 20.0115117-.4002315 1.4065101-.60640755 1.8987485-1.43190379 1.4767152-2.47648872z" fill="#fff6e1"/><path d="m6.03431574 20.0572003.14118298-.0706484c8.49464428-4.2099936 13.59712308-4.3959512 15.30743638-.5578731 2.2108969 4.9614273-3.5225064 16.8829146-17.20021002 35.764462-1.87868279-5.7264002-4.58067048-11.1862668-4.25597362-15.1025325.25091303-2.9559571 2.91685781-11.8053038 6.00756428-20.033408z" fill="#000" fill-opacity=".159856"/></g><g transform="translate(392.886593 223.364056)"><path d="m9.52631989 32.2942424s-1.53029182-3.2980323-3.93581269-4.1903614c-2.40483729-.8923292-6.08361495-6.8026732-5.51487571-8.519003.56873923-1.7163299 5.54452395-6.4763207 5.54452395-6.4763207s-4.39884251-11.72002294-2.4506372-13.04261846c1.72125648-1.16902561 8.23509806 13.59330526 8.23509806 13.59330526s3.8294197.573012 4.7132896 2.0823269c2.2271063 3.8047454.5436305 12.36231.5436305 12.36231l22.6076695 32.7986802-10.373553 13.2053871z" fill="url(#s)"/><path d="m67.2376489 34.8374889c-7.6459543 6.7436026-26.3475365 24.6346502-26.3475365 24.6346502s-.9262188-1.4090119-2.7786564-4.2270356l-13.9859453 14.2189598c7.0335407 10.3575328 11.6955225 15.5724813 13.9859453 15.6448458 8.9515958.2826812 24.9905928-16.4967416 40.0695972-29.5987617 13.5200582-11.7478243 3.308993-33.2430597-10.9434043-20.6726585z" fill="#fd8715"/><path d="m40.9459036 59.4931492c-3.4975104 4.0160248-5.3905622 5.8050659-5.6791555 5.3671233-.2885934-.4379427 1.0305149-3.0979475 3.9573248-7.9800147z" fill="#000" fill-opacity=".159856"/><path d="m39.7858401 56.2028326-16.2209242 17.9051157-4.9976829-10.2179937 18.1326041-11.2970653z" fill="#ffedc2"/></g><path d="m114.094106 4.64227968s-4.593164-5.94009078-9.897162-4.38167417c-5.3039979 1.55841661-10.1017574 11.11127789-7.8236846 20.09078129 2.2665675 8.9806665.397391 14.1028551-2.3524039 20.155094-7.3864786 16.2808016 18.1874345 26.6181392 18.1874345 26.6181392-1.330277-8.0426163-.701671-14.4921428 1.885816-19.3485795 3.997209-7.5023352 6.26732-17.1231089 6.26732-23.0104696 0-10.2379507-6.26732-20.12329122-6.26732-20.12329122z" fill="#8b5030" transform="matrix(-1 0 0 1 605.929529 194.808081)"/><g transform="translate(434.337421 126.580808)"><path d="m0 7.69613675c18.479812-10.57207475 37.2122537-9.94618577 56.1549644 0l-1.2000659 13.26873695c-1.6264665 17.9833083-11.5710516 34.1706271-26.8774163 43.7497695-15.96961-9.5129103-26.20267674-26.3065135-27.33528461-44.8602492z" fill="#28c76f"/><ellipse cx="28.077482" cy="29.142792" fill="#1ca258" rx="15.31499" ry="15.204935"/><g fill="#fff" transform="translate(16.591239 17.739091)"><path d="m11.2677319.60186201c4.8708475 0 9.0871185 3.25977902 10.3105474 7.85602988.0945457.35519502-.1188364.71923115-.4766024.81309746s-.724437-.11798247-.8189828-.47317748c-1.0687846-4.01527396-4.7553539-6.86551804-9.0149622-6.86551804-5.14856679 0-9.32145188 4.12847864-9.32145188 9.21984007 0 2.8739033.94904807 5.4574637 2.85922113 7.7747064.23436679.2843118.19221011.7034186-.09415956.9361012s-.70850998.1908289-.94287676-.0934829c-2.10413867-2.5525436-3.16224646-5.4329935-3.16224646-8.6173247 0-5.82717904 4.77389503-10.55027189 10.66151353-10.55027189z"/><path d="m11.8442325 3.46016329c4.0073041.00888694 7.2676148 3.11551498 7.3954747 7.04021721l.0038759.2230114c.0048846 2.1939442.6240764 3.3992882 1.8121536 3.7917846.3513691.1160792.5428366.4929913.4276547.8418568-.115182.3488655-.4933963.537576-.8447654.4214968-1.770771-.5849966-2.6672645-2.2347454-2.7305099-4.7904899l-.003572-.2676127c-.0073206-3.28809707-2.708116-5.92138518-6.0573473-5.92879968-3.01496559-.00667449-5.57979565 2.75618982-5.9351136 5.84828768-.06918153.6020412-.08600888 1.1580127-.05182446 1.711127l.03714677.4805247c.14675163 1.5269841.58820704 2.7861948 2.66881921 8.2164168.13183772.3440853-.04134125.7280538-.38680606.8576177-.3454648.1295639-.73239495-.04434-.86423267-.3884253l-1.11185485-2.9244284c-1.32509844-3.5359351-1.56844943-4.497919-1.67254369-6.0561935l-.00704831-.1097242c-.03909509-.6325704-.01991573-1.2662515.05794918-1.9438585.42687215-3.71478693 3.50549082-7.03111022 7.26254418-7.02280851z" transform="matrix(.94551858 -.32556815 .32556815 .94551858 -3.427294 4.927949)"/><path d="m12.5576461 7.10607183c2.0757997.00460619 3.7884905 1.70326067 3.7276245 3.75637497-.0876898 2.9579281.873409 5.1449913 2.8895919 6.6364444.2973015.219926.3600784.6370661.1402163.9317083-.2198622.2946423-.6391061.3552118-.9364076.1352857-2.3858853-1.764937-3.5319384-4.3728795-3.4318636-7.7485728.0382776-1.29117048-1.0563596-2.37683668-2.3861972-2.37978066-1.4159445-.0031346-2.4607566.99415921-2.68713749 2.77383196-.11505992.9045332.18361069 2.293311.85039929 4.198693l.1145321.3223525c.0952282.2641818.1963883.5364104.3073044.8276342l1.2127295 3.092265c.1307694.3444842-.0436051.7279134-.3894764.856413-.3458712.1284996-.7322647-.0465905-.8630341-.3910747l-.9720702-2.4690811-.24079026-.6235216c-.11336023-.2976653-.21703944-.5766899-.31495845-.8483365l-.23150407-.6609119c-.6541299-1.9280786-.94247008-3.3698691-.80160392-4.4772758.30787792-2.42035457 1.8969141-3.93712093 4.0126453-3.93244797z" transform="matrix(.94551858 -.32556815 .32556815 .94551858 -3.740561 5.304247)"/><path d="m11.6387038 11.5582086c.3538218-.1075982.7285078.0899442.8368848.4412233.7222541 2.3410209 2.1366343 4.0015528 4.7967217 5.9845915.2959139.2205976.3556755.6375891.1334812.9313766s-.642204.3531196-.9381179.132522c-2.8659272-2.1364879-4.4530096-3.9997782-5.2733868-6.6588426-.108377-.3512791.0905953-.7232727.444417-.8308708z"/></g></g></g></svg>