<svg fill="none" height="575" viewBox="0 0 650 575" width="650" xmlns="http://www.w3.org/2000/svg" xmlns:xlink="http://www.w3.org/1999/xlink"><filter id="a" color-interpolation-filters="sRGB" filterUnits="userSpaceOnUse" height="109.487" width="109.866" x=".563437" y="221.051"><feFlood flood-opacity="0" result="BackgroundImageFix"/><feBlend in="SourceGraphic" in2="BackgroundImageFix" mode="normal" result="shape"/><feGaussianBlur result="effect1_foregroundBlur" stdDeviation="2.71828"/></filter><filter id="b" color-interpolation-filters="sRGB" filterUnits="userSpaceOnUse" height="85.6648" width="85.9313" x="542.852" y="390.637"><feFlood flood-opacity="0" result="BackgroundImageFix"/><feBlend in="SourceGraphic" in2="BackgroundImageFix" mode="normal" result="shape"/><feGaussianBlur result="effect1_foregroundBlur" stdDeviation="4.07742"/></filter><filter id="c" color-interpolation-filters="sRGB" filterUnits="userSpaceOnUse" height="220.612" width="186.818" x="307.478" y="135.738"><feFlood flood-opacity="0" result="BackgroundImageFix"/><feColorMatrix in="SourceAlpha" type="matrix" values="0 0 0 0 0 0 0 0 0 0 0 0 0 0 0 0 0 0 127 0"/><feOffset dx="8" dy="9"/><feGaussianBlur stdDeviation="14"/><feColorMatrix type="matrix" values="0 0 0 0 0.0862745 0 0 0 0 0.113725 0 0 0 0 0.192157 0 0 0 0.7 0"/><feBlend in2="BackgroundImageFix" mode="normal" result="effect1_dropShadow"/><feBlend in="SourceGraphic" in2="effect1_dropShadow" mode="normal" result="shape"/></filter><filter id="d" color-interpolation-filters="sRGB" filterUnits="userSpaceOnUse" height="107.09" width="106.341" x="347.798" y="162.812"><feFlood flood-opacity="0" result="BackgroundImageFix"/><feColorMatrix in="SourceAlpha" type="matrix" values="0 0 0 0 0 0 0 0 0 0 0 0 0 0 0 0 0 0 127 0"/><feOffset dx="8" dy="9"/><feGaussianBlur stdDeviation="14"/><feColorMatrix type="matrix" values="0 0 0 0 0.0755213 0 0 0 0 0.582569 0 0 0 0 0.878793 0 0 0 0.229458 0"/><feBlend in2="BackgroundImageFix" mode="normal" result="effect1_dropShadow"/><feColorMatrix in="SourceAlpha" type="matrix" values="0 0 0 0 0 0 0 0 0 0 0 0 0 0 0 0 0 0 127 0"/><feOffset dy="2"/><feGaussianBlur stdDeviation="7.5"/><feColorMatrix type="matrix" values="0 0 0 0 0.503982 0 0 0 0 0.700178 0 0 0 0 1 0 0 0 0.233829 0"/><feBlend in2="effect1_dropShadow" mode="normal" result="effect2_dropShadow"/><feBlend in="SourceGraphic" in2="effect2_dropShadow" mode="normal" result="shape"/></filter><linearGradient id="e" gradientUnits="userSpaceOnUse" x1="299.098" x2="299.098" y1="320.699" y2="251.956"><stop offset="0" stop-color="#ff8c19"/><stop offset="1" stop-color="#ffc967"/></linearGradient><linearGradient id="f" gradientUnits="userSpaceOnUse" x1="290.964" x2="290.964" y1="293.294" y2="261.963"><stop offset="0" stop-color="#f8fdff"/><stop offset="1" stop-color="#aad4ff"/></linearGradient><linearGradient id="g"><stop offset="0" stop-color="#fdc6c6"/><stop offset="1" stop-color="#ffcca1"/></linearGradient><linearGradient id="h" gradientUnits="userSpaceOnUse" x1="502.994" x2="507.069" xlink:href="#g" y1="290.908" y2="361.835"/><linearGradient id="i"><stop offset="0" stop-color="#fdc6c6"/><stop offset="1" stop-color="#fab2b2"/></linearGradient><linearGradient id="j" gradientUnits="userSpaceOnUse" x1="512.463" x2="514.125" xlink:href="#i" y1="538.098" y2="557.265"/><linearGradient id="k" gradientUnits="userSpaceOnUse" x1="462.622" x2="464.195" xlink:href="#i" y1="536.167" y2="556.674"/><linearGradient id="l" gradientUnits="userSpaceOnUse" x1="462.262" x2="465.66" xlink:href="#g" y1="204.745" y2="250.978"/><linearGradient id="m" gradientUnits="userSpaceOnUse" x1="386.111" x2="396.752" xlink:href="#g" y1="205.324" y2="292.76"/><mask id="n" height="433" maskUnits="userSpaceOnUse" width="204" x="216" y="128"><path clip-rule="evenodd" d="m216.477 146.66c0-10.229 8.292-18.522 18.522-18.522h30.889c.813 0 1.478.646 1.502 1.459.169 5.822 4.938 10.454 10.763 10.454h80.131c5.824 0 10.593-4.632 10.763-10.454.023-.813.689-1.459 1.501-1.459h30.89c10.229 0 18.522 8.293 18.522 18.522v395.445c0 10.229-8.293 18.522-18.522 18.522h-166.439c-10.23 0-18.522-8.293-18.522-18.522z" fill="#fff" fill-rule="evenodd"/></mask><mask id="o" height="24" maskUnits="userSpaceOnUse" width="23" x="154" y="237"><path clip-rule="evenodd" d="m176.099 257.505v-17.047c0-1.811-1.385-3.196-3.196-3.196h-5.328c-.64 0-1.066.426-1.066 1.065s.426 1.066 1.066 1.066h5.328c.639 0 1.065.426 1.065 1.065v17.047c0 .639-.426 1.065-1.065 1.065h-5.328c-.64 0-1.066.426-1.066 1.066 0 .639.426 1.065 1.066 1.065h5.328c1.811 0 3.196-1.385 3.196-3.196zm-6.5-8.95c.107.32.107.639 0 .853 0 .106-.106.213-.213.319l-4.262 4.262c-.214.213-.533.319-.746.319s-.533-.106-.746-.319c-.427-.426-.427-1.066 0-1.492l2.451-2.45h-10.23c-.64 0-1.066-.426-1.066-1.066 0-.639.426-1.065 1.066-1.065h10.23l-2.451-2.451c-.427-.426-.427-1.065 0-1.491.426-.426 1.065-.426 1.492 0l4.262 4.262c.053.053.08.106.107.159.026.054.053.107.106.16z" fill="#fff" fill-rule="evenodd"/></mask><mask id="p" height="29" maskUnits="userSpaceOnUse" width="26" x="188" y="393"><path clip-rule="evenodd" d="m209.841 405.159h-1.243v-3.729c0-4.102-3.357-7.458-7.46-7.458-4.102 0-7.459 3.356-7.459 7.458v3.729h-1.243c-2.114 0-3.73 1.615-3.73 3.729v8.701c0 2.113 1.616 3.728 3.73 3.728h17.405c2.113 0 3.729-1.615 3.729-3.728v-8.701c0-2.114-1.616-3.729-3.729-3.729zm-13.676-3.729c0-2.735 2.238-4.972 4.973-4.972s4.973 2.237 4.973 4.972v3.729h-9.946zm13.676 17.401c.746 0 1.243-.497 1.243-1.242v-8.701c0-.746-.497-1.243-1.243-1.243h-17.405c-.746 0-1.244.497-1.244 1.243v8.701c0 .745.498 1.242 1.244 1.242z" fill="#fff" fill-rule="evenodd"/></mask><mask id="q" height="63" maskUnits="userSpaceOnUse" width="75" x="229" y="179"><path d="m229.265 185.646c0-3.313 2.686-6 6-6h62.175c3.314 0 6 2.687 6 6v49.73c0 3.314-2.686 6-6 6h-62.175c-3.314 0-6-2.686-6-6z" fill="#fff"/></mask><path clip-rule="evenodd" d="m650 173.93c0-96.0591-78.171-173.93-174.598-173.93-96.428 0-174.598 77.8709-174.598 173.93 0 96.058 78.17 173.929 174.598 173.929 96.427 0 174.598-77.871 174.598-173.929zm-283.926 0c0-60.149 48.948-108.9096 109.328-108.9096s109.327 48.7606 109.327 108.9096c0 60.148-48.947 108.909-109.327 108.909s-109.328-48.761-109.328-108.909z" fill="#7367f0" fill-rule="evenodd" opacity=".052827"/><g filter="url(#a)" opacity=".14102"><path clip-rule="evenodd" d="m104.993 275.795c0-27.232-22.1602-49.307-49.4964-49.307s-49.4966 22.075-49.4966 49.307 22.1604 49.307 49.4966 49.307 49.4964-22.075 49.4964-49.307zm-66.3579 0c0-9.277 7.5492-16.797 16.8615-16.797 9.3124 0 16.8615 7.52 16.8615 16.797s-7.5491 16.797-16.8615 16.797c-9.3123 0-16.8615-7.52-16.8615-16.797z" fill="#8bf78f" fill-rule="evenodd"/></g><ellipse cx="208.338" cy="433.469" fill="#7367f0" fill-opacity=".061216" rx="97.9054" ry="97.5306"/><ellipse cx="175.702" cy="92.1121" fill="#cef5ff" opacity=".14102" rx="34.8108" ry="34.6776"/><g filter="url(#b)"><ellipse cx="585.818" cy="433.469" fill="#7367f0" fill-opacity=".135927" rx="34.8108" ry="34.6776"/></g><path clip-rule="evenodd" d="m208.539 144.137c0-13.883 11.254-25.137 25.137-25.137h169.805c13.883 0 25.137 11.254 25.137 25.137v403.199c0 13.882-11.254 25.137-25.137 25.137h-169.805c-13.883 0-25.137-11.255-25.137-25.137z" fill="#c4e3e7" fill-rule="evenodd"/><path clip-rule="evenodd" d="m216.477 146.66c0-10.229 8.292-18.522 18.522-18.522h30.889c.813 0 1.478.646 1.502 1.459.169 5.822 4.938 10.454 10.763 10.454h80.131c5.824 0 10.593-4.632 10.763-10.454.023-.813.689-1.459 1.501-1.459h30.89c10.229 0 18.522 8.293 18.522 18.522v395.445c0 10.229-8.293 18.522-18.522 18.522h-166.439c-10.23 0-18.522-8.293-18.522-18.522z" fill="#161d31" fill-rule="evenodd"/><g mask="url(#n)"><ellipse cx="293.623" cy="391.368" fill="#7367f0" opacity=".098772" rx="17.453" ry="17.3276"/><g clip-rule="evenodd" fill-rule="evenodd"><path d="m398.068 374.04c46.538 0 84.265 37.456 84.265 83.66s-37.727 83.659-84.265 83.659-84.265-37.455-84.265-83.659 37.727-83.66 84.265-83.66zm0 36.55c-26.206 0-47.45 21.092-47.45 47.11 0 26.017 21.244 47.109 47.45 47.109s47.45-21.092 47.45-47.109c0-26.018-21.244-47.11-47.45-47.11z" fill="#c8f5d0" opacity=".14102"/><path d="m241.264 208.075c0-3.141 2.545-5.686 5.685-5.686h144.07c3.14 0 5.685 2.545 5.685 5.686 0 3.14-2.545 5.685-5.685 5.685h-144.07c-3.14 0-5.685-2.545-5.685-5.685z" fill="#68de9e" fill-opacity=".642073"/></g></g><path d="m330.508 126.939c1.882 0 3.408 1.455 3.408 3.249 0 1.754-1.459 3.184-3.284 3.247l-.124.002h-38.546c-1.882 0-3.408-1.455-3.408-3.249 0-1.755 1.459-3.184 3.284-3.247l.124-.002z" fill="#56cdd9"/><path d="m344.322 126.397c1.883 0 3.409 1.516 3.409 3.385 0 1.827-1.459 3.317-3.284 3.382l-.125.002h-.179c-1.882 0-3.409-1.515-3.409-3.384 0-1.828 1.459-3.317 3.284-3.382l.125-.003z" fill="#56cdd9"/><path clip-rule="evenodd" d="m222.72 276.463c0-2.209 1.791-4 4-4h7.593c2.21 0 4 1.791 4 4v3.503c0 .673.546 1.219 1.22 1.219h50.009c2.209 0 4 1.791 4 4v42.698c0 2.209-1.791 4-4 4h-62.822c-2.209 0-4-1.791-4-4z" fill="url(#e)" fill-rule="evenodd"/><path clip-rule="evenodd" d="m239.536 277.616c.095-.591.605-1.026 1.203-1.026h54.322c.751 0 1.323.671 1.204 1.413l-8.16 50.791c-.095.591-.605 1.026-1.204 1.026h-54.322c-.75 0-1.323-.671-1.204-1.412z" fill="url(#f)" fill-rule="evenodd"/><path clip-rule="evenodd" d="m298.086 290.108c2.518 0 4.41 2.298 3.926 4.769l-6.113 31.214c-.736 3.754-4.026 6.463-7.851 6.463h-60.469c-2.518 0-4.409-2.298-3.925-4.769l6.113-31.215c.735-3.754 4.025-6.462 7.85-6.462z" fill="#ffcc7b" fill-rule="evenodd"/><path clip-rule="evenodd" d="m142 222.468c0-3.314 2.686-6 6-6h33.667l12.692 12.995v42.734c0 3.314-2.686 6-6 6h-40.359c-3.314 0-6-2.686-6-6z" fill="#b7b1fb" fill-rule="evenodd"/><path clip-rule="evenodd" d="m176.099 257.505v-17.047c0-1.811-1.385-3.196-3.196-3.196h-5.328c-.64 0-1.066.426-1.066 1.065s.426 1.066 1.066 1.066h5.328c.639 0 1.065.426 1.065 1.065v17.047c0 .639-.426 1.065-1.065 1.065h-5.328c-.64 0-1.066.426-1.066 1.066 0 .639.426 1.065 1.066 1.065h5.328c1.811 0 3.196-1.385 3.196-3.196zm-6.5-8.95c.107.32.107.639 0 .853 0 .106-.106.213-.213.319l-4.262 4.262c-.214.213-.533.319-.746.319s-.533-.106-.746-.319c-.427-.426-.427-1.066 0-1.492l2.451-2.45h-10.23c-.64 0-1.066-.426-1.066-1.066 0-.639.426-1.065 1.066-1.065h10.23l-2.451-2.451c-.427-.426-.427-1.065 0-1.491.426-.426 1.065-.426 1.492 0l4.262 4.262c.053.053.08.106.107.159.026.054.053.107.106.16z" fill="#000" fill-rule="evenodd"/><g mask="url(#o)"><path d="m152.656 236.196h25.5748v25.5701h-25.5748z" fill="#fff"/></g><path d="m194.358 229.463h-9.692c-1.657 0-3-1.343-3-3v-9.995z" fill="#7367f0" opacity=".33996"/><path clip-rule="evenodd" d="m164.907 382.748c0-3.314 2.687-6 6-6h62.175c3.314 0 6 2.686 6 6v49.729c0 3.314-2.686 6-6 6h-62.175c-3.313 0-6-2.686-6-6z" fill="#6fd9e6" fill-rule="evenodd"/><path clip-rule="evenodd" d="m209.841 405.159h-1.243v-3.729c0-4.102-3.357-7.458-7.46-7.458-4.102 0-7.459 3.356-7.459 7.458v3.729h-1.243c-2.114 0-3.73 1.615-3.73 3.729v8.701c0 2.113 1.616 3.728 3.73 3.728h17.405c2.113 0 3.729-1.615 3.729-3.728v-8.701c0-2.114-1.616-3.729-3.729-3.729zm-13.676-3.729c0-2.735 2.238-4.972 4.973-4.972s4.973 2.237 4.973 4.972v3.729h-9.946zm13.676 17.401c.746 0 1.243-.497 1.243-1.242v-8.701c0-.746-.497-1.243-1.243-1.243h-17.405c-.746 0-1.244.497-1.244 1.243v8.701c0 .745.498 1.242 1.244 1.242z" fill="#000" fill-rule="evenodd"/><g mask="url(#p)"><path d="m186.22 392.729h29.8373v29.8318h-29.8373z" fill="#fff"/></g><path d="m229.265 185.646c0-3.313 2.686-6 6-6h62.175c3.314 0 6 2.687 6 6v49.73c0 3.314-2.686 6-6 6h-62.175c-3.314 0-6-2.686-6-6z" fill="#baf3c4"/><g mask="url(#q)"><ellipse cx="261.989" cy="202.389" fill="#fff" rx="9.8173" ry="9.74675"/><ellipse cx="239.627" cy="252.747" fill="#28c76f" rx="35.4514" ry="35.1966"/><ellipse cx="303.986" cy="244.625" fill="#69e09e" rx="41.9962" ry="41.153"/></g><g filter="url(#c)"><path clip-rule="evenodd" d="m327.477 164.778c-.022-5.539 4.462-10.04 10-10.04h110.243c5.507 0 9.978 4.453 10 9.96l.575 144.612c.022 5.538-4.462 10.04-10 10.04h-110.243c-5.507 0-9.978-4.453-10-9.96z" fill="#313a53" fill-rule="evenodd"/></g><path d="m368.889 259.786c0-1.794 1.454-3.249 3.249-3.249h41.497c1.795 0 3.249 1.455 3.249 3.249 0 1.795-1.454 3.249-3.249 3.249h-41.497c-1.795 0-3.249-1.454-3.249-3.249z" fill="#7367f0" opacity=".33996"/><path d="m357.98 277.114c0-1.794 1.455-3.249 3.249-3.249h63.314c1.795 0 3.249 1.455 3.249 3.249 0 1.794-1.454 3.249-3.249 3.249h-63.314c-1.794 0-3.249-1.455-3.249-3.249z" fill="#7367f0" opacity=".33996"/><g filter="url(#d)"><ellipse cx="392.968" cy="207.357" fill="#fff" rx="25.1704" ry="25.5449"/></g><g clip-rule="evenodd" fill-rule="evenodd"><path d="m393.443 206.51c3.556 0 6.439-2.862 6.439-6.393 0-3.53-2.883-6.392-6.439-6.392s-6.439 2.862-6.439 6.392c0 3.531 2.883 6.393 6.439 6.393zm-.812 1.81c-5.281 0-9.562 4.281-9.562 9.561 0 .604.49 1.093 1.093 1.093h18.562c.603 0 1.093-.489 1.093-1.093 0-5.28-4.281-9.561-9.562-9.561z" fill="#7367f0"/><path d="m517.545 340.072s-12.198 11.98-11.45 13.151c.748 1.18 6.895-1.56 6.895-1.56s-7.669 12.584-6.091 13.551c1.577.967 9.646-.991 12.12-3.585 2.475-2.594 6.293-15.684 6.293-15.684l18.553-34.495-13.455-4.623z" fill="url(#h)"/><path d="m505.088 276.306c5.123 7.902 22.367 30.423 22.367 30.423l-1.257 4.493 15.847 10.786s4.502-12.348 4.893-14.085c1.288-5.73-24.746-42.297-30.576-47.581-9.178-8.32-19.102 3.887-11.274 15.964z" fill="#fd8715"/><path d="m531.576 312.707c.296-.572-4.096-6.059-4.096-6.059l-.744 2.668s4.545 3.964 4.84 3.391z" fill="#000" fill-opacity=".159856"/><path d="m526.1 309.714 16.836 12.765-3.752 8.255-14.72-16.256z" fill="#ffedc2"/><path d="m515.472 542.024-.935 15.818 11.987.31-2.253-16.128z" fill="url(#j)"/><path d="m527.092 548.256s-.336 9.526 1.651 12.852c2 3.325 2.605 5.904 2.694 7.893.094 2.132-.109 4.064-.109 4.064h-19.84s-.497-10.023.817-11.913c1.314-1.889 2.176-1.922 2.176-3.592.011-1.67.295-9.242.295-9.242z" fill="#391b0b"/><path d="m473.239 330.841 31.097-3.356.457.421c2.216 2.097 11.848 11.833 14.615 25.142 5.225 25.125-1.768 71.53-1.613 81.705.148 10.176 4.991 16.316 7.004 30.703 2.012 14.387 2.202 78.687 2.202 78.687-5.336 3.14-10.031 3.364-16.394-.188z" fill="#4e3319"/><path d="m501.016 489.256-27.777-158.415 17.29-1.866c.77 55.033 11.523 129.422 10.487 160.281z" fill="#fff" fill-opacity=".192499"/><path d="m479.609 540.361-10.222.165s.672 10.534-3.259 14.102l-.215.187c-4.745 3.949 13.563 2.524 13.563 2.524z" fill="url(#k)"/><path d="m480.151 548.573-.294 24.483-7.279.005-.063-6.033s-2.296 5.625-5.805 5.95c-3.519.325-19.201.126-19.201.126s-1.303-5.648 6.503-8.213c6.493-2.132 13.672-16.318 13.672-16.318z" fill="#391b0b"/><path d="m457.814 333.019 34.919-1.175.261.479c1.694 3.191 10.978 21.872 8.112 43.105-4.024 29.804-14.253 64.743-14.754 70.081-.893 9.516.893 16.406 1.625 26.235s-2.792 71.647-2.792 71.647c-5.182 3.094-11.348 3.701-19.187.093 0 0-7.077-83.966-7.129-97.255-.052-13.288-1.055-113.21-1.055-113.21z" fill="#604021"/><path d="m465 365.255-.232 2.208c-2.327 23.285-2.31 72.735-1.408 80.361l.123.983c1 8.605 1.032 30.453.097 65.543l-1.216-15.142c-2.306-29.136-3.471-46.796-3.495-52.979l-.042-6.399c-.201-25.874-1.013-106.812-1.013-106.812l7.365-.247c.787 12.776.727 23.604-.179 32.484z" fill="#fff" fill-opacity=".192499"/><path d="m471.13 222.653c-4.296.467-3.992 7.966 1.238 8.358 1.069 7.229 4.882 10.673 9.53 11.072l-.258 10.935 20.559-.012s-5.789-7.725-5.5-18.3c.288-10.576-.194-20.51-.194-20.51l-26.629.474z" fill="url(#l)"/><path d="m470.195 223.215c5.004-1.965 8.701 6.494 12.53 12.374 3.829 5.879 13.749 4.88 15.116 0 5.176-10.69 9.637-25.222 3.597-26.415-.851-15.448-41.579-11.801-31.243 14.041z" fill="#8b5030"/><path d="m498.141 203.079h-8.86-.112l-.074.083c-7.849 8.698-9.595 21.519-5.904 33.073.256.321.533.618.826.891-4.085-11.645-2.504-24.745 5.375-33.547h9.342c-.19-.173-.388-.339-.593-.5z" fill="#000" fill-opacity=".199355"/></g><ellipse cx="492.697" cy="203.329" fill="#fb9934" rx="4.90865" ry="4.87338"/><path clip-rule="evenodd" d="m465.736 255.135c-4.587 6.69-12.231 29.395-12.665 34.502-.488 5.892 5.874 15.278 5.978 23.807.093 8.53-4.745 34.214-3.291 36.614 1.442 2.399 42.796 13.021 45.494 12.964 2.687-.058 19.649-14.515 17.521-19.511-2.14-4.996-12.073-17.412-11.061-24.219 1-6.807 6.809-31.932 9.693-40.483 2.873-8.552 1.915-17.53-3.446-21.209-2.654-1.821-9.733-6.994-22.34-6.97s-25.527 3.987-25.883 4.505z" fill="#fd8715" fill-rule="evenodd"/><path clip-rule="evenodd" d="m479.971 250.141s-.531 2.877 1.792 2.877c2.322 0 17.902.509 20.011-.401 2.11-.909 1.477-2.476 1.477-2.476z" fill="#fff6e1" fill-rule="evenodd"/><path clip-rule="evenodd" d="m459.078 269.604.141-.071c8.495-4.21 13.598-4.396 15.308-.558 2.211 4.962-3.523 16.883-17.2 35.765-1.879-5.727-4.581-11.187-4.256-15.103.251-2.956 2.917-11.805 6.007-20.033z" fill="#000" fill-opacity=".159856" fill-rule="evenodd"/><path clip-rule="evenodd" d="m402.413 255.658s-1.53-3.298-3.936-4.19c-2.405-.892-6.084-6.803-5.515-8.519s5.545-6.476 5.545-6.476-4.399-11.72-2.451-13.043c1.721-1.169 8.235 13.593 8.235 13.593s3.83.573 4.713 2.083c2.228 3.804.544 12.362.544 12.362l22.608 32.799-10.374 13.205z" fill="url(#m)" fill-rule="evenodd"/><path clip-rule="evenodd" d="m460.125 258.201c-7.646 6.744-26.348 24.635-26.348 24.635s-2.778-4.227-2.778-4.227l-13.986 14.219s10.55 15.536 13.986 15.645c8.951.283 24.99-16.497 40.069-29.599 13.52-11.748 3.309-33.243-10.943-20.673z" fill="#fd8715" fill-rule="evenodd"/><path clip-rule="evenodd" d="m433.832 282.857s-5.246 6.024-5.679 5.367 3.957-7.98 3.957-7.98z" fill="#000" fill-opacity=".159856" fill-rule="evenodd"/><path clip-rule="evenodd" d="m432.673 279.567-16.221 17.905-4.998-10.218 18.133-11.297z" fill="#ffedc2" fill-rule="evenodd"/><path clip-rule="evenodd" d="m491.835 199.45s4.594-5.94 9.898-4.381c5.304 1.558 10.101 11.111 7.823 20.09-2.266 8.981-.397 14.103 2.353 20.156 7.386 16.28-18.188 26.618-18.188 26.618s1.996-12.064-1.886-19.349c-3.997-7.502-6.267-17.123-6.267-23.01 0-10.238 6.267-20.124 6.267-20.124z" fill="#8b5030" fill-rule="evenodd"/><path clip-rule="evenodd" d="m434.338 134.277c18.48-10.572 37.212-9.946 56.155 0l-1.2 13.269c-1.627 17.983-11.571 34.17-26.878 43.749-15.969-9.512-26.202-26.306-27.335-44.86z" fill="#28c76f" fill-rule="evenodd"/><ellipse cx="462.416" cy="155.723" fill="#1ca258" rx="15.315" ry="15.2049"/><path clip-rule="evenodd" d="m462.197 144.922c4.871 0 9.087 3.259 10.31 7.856.095.355-.119.719-.476.813-.358.094-.725-.118-.819-.473-1.069-4.016-4.756-6.866-9.015-6.866-5.149 0-9.322 4.129-9.322 9.22 0 2.874.949 5.457 2.859 7.775.235.284.193.703-.094.936-.286.232-.708.191-.943-.094-2.104-2.552-3.162-5.433-3.162-8.617 0-5.827 4.774-10.55 10.662-10.55z" fill="#fff" fill-rule="evenodd"/><path clip-rule="evenodd" d="m459.827 148.663c3.792-1.296 7.886.58 9.285 4.249l.076.21c.719 2.073 1.697 3.011 2.948 2.995.37-.005.674.289.678.657.005.367-.291.669-.661.673-1.865.024-3.25-1.244-4.142-3.64l-.09-.252c-1.078-3.107-4.489-4.717-7.658-3.634-2.853.975-4.378 4.423-3.707 7.462.13.592.295 1.123.508 1.635l.191.442c.636 1.396 1.463 2.443 5.199 6.9.236.283.198.702-.087.937-.284.235-.707.196-.944-.086l-2.003-2.403c-2.404-2.912-2.947-3.742-3.553-5.182l-.042-.101c-.243-.586-.432-1.191-.579-1.857-.805-3.651 1.026-7.789 4.581-9.005z" fill="#fff" fill-rule="evenodd"/><path clip-rule="evenodd" d="m461.375 152.255c1.964-.672 4.137.377 4.747 2.338.881 2.825 2.501 4.58 4.893 5.334.353.111.548.485.436.835s-.489.544-.841.433c-2.831-.892-4.763-2.985-5.768-6.209-.384-1.233-1.772-1.903-3.031-1.473-1.34.458-2.003 1.741-1.637 3.497.185.893.92 2.109 2.171 3.693l.213.268c.176.219.36.443.56.682l2.153 2.529c.236.283.196.703-.089.937s-.708.194-.944-.089l-1.722-2.018-.431-.511c-.204-.245-.393-.475-.574-.7l-.434-.549c-1.246-1.61-1.988-2.88-2.216-3.973-.497-2.388.512-4.34 2.514-5.024z" fill="#fff" fill-rule="evenodd"/><path clip-rule="evenodd" d="m462.568 155.878c.354-.108.728.09.837.441.722 2.341 2.136 4.002 4.796 5.985.296.22.356.637.134.931s-.642.353-.938.133c-2.866-2.137-4.453-4-5.274-6.659-.108-.351.091-.723.445-.831z" fill="#fff" fill-rule="evenodd"/></svg>