<svg fill="none" height="547" viewBox="0 0 747 547" width="747" xmlns="http://www.w3.org/2000/svg" xmlns:xlink="http://www.w3.org/1999/xlink"><filter id="a" color-interpolation-filters="sRGB" filterUnits="userSpaceOnUse" height="107.428" width="191.801" x="70.8555" y="85.0081"><feFlood flood-opacity="0" result="BackgroundImageFix"/><feColorMatrix in="SourceAlpha" type="matrix" values="0 0 0 0 0 0 0 0 0 0 0 0 0 0 0 0 0 0 127 0"/><feOffset dx="8" dy="9"/><feGaussianBlur stdDeviation="14"/><feColorMatrix type="matrix" values="0 0 0 0 0.0862745 0 0 0 0 0.113725 0 0 0 0 0.192157 0 0 0 0.7 0"/><feBlend in2="BackgroundImageFix" mode="normal" result="effect1_dropShadow"/><feBlend in="SourceGraphic" in2="effect1_dropShadow" mode="normal" result="shape"/></filter><filter id="b" color-interpolation-filters="sRGB" filterUnits="userSpaceOnUse" height="198.68" width="224.949" x="70.8555" y="143.592"><feFlood flood-opacity="0" result="BackgroundImageFix"/><feColorMatrix in="SourceAlpha" type="matrix" values="0 0 0 0 0 0 0 0 0 0 0 0 0 0 0 0 0 0 127 0"/><feOffset dx="8" dy="9"/><feGaussianBlur stdDeviation="14"/><feColorMatrix type="matrix" values="0 0 0 0 0.0862745 0 0 0 0 0.113725 0 0 0 0 0.192157 0 0 0 0.7 0"/><feBlend in2="BackgroundImageFix" mode="normal" result="effect1_dropShadow"/><feBlend in="SourceGraphic" in2="effect1_dropShadow" mode="normal" result="shape"/></filter><filter id="c" color-interpolation-filters="sRGB" filterUnits="userSpaceOnUse" height="97.3127" width="161.424" x="96.5059" y="204.89"><feFlood flood-opacity="0" result="BackgroundImageFix"/><feColorMatrix in="SourceAlpha" type="matrix" values="0 0 0 0 0 0 0 0 0 0 0 0 0 0 0 0 0 0 127 0"/><feOffset dy="13"/><feGaussianBlur stdDeviation="7.5"/><feColorMatrix type="matrix" values="0 0 0 0 0 0 0 0 0 0 0 0 0 0 0 0 0 0 0.144395 0"/><feBlend in2="BackgroundImageFix" mode="normal" result="effect1_dropShadow"/><feBlend in="SourceGraphic" in2="effect1_dropShadow" mode="normal" result="shape"/></filter><filter id="d" color-interpolation-filters="sRGB" filterUnits="userSpaceOnUse" height="197.485" width="272.181" x="276.232" y="107.237"><feFlood flood-opacity="0" result="BackgroundImageFix"/><feColorMatrix in="SourceAlpha" type="matrix" values="0 0 0 0 0 0 0 0 0 0 0 0 0 0 0 0 0 0 127 0"/><feOffset dx="6" dy="6"/><feGaussianBlur stdDeviation="8"/><feColorMatrix type="matrix" values="0 0 0 0 0.0862745 0 0 0 0 0.113725 0 0 0 0 0.192157 0 0 0 0.7 0"/><feBlend in2="BackgroundImageFix" mode="normal" result="effect1_dropShadow"/><feBlend in="SourceGraphic" in2="effect1_dropShadow" mode="normal" result="shape"/></filter><linearGradient id="e"><stop offset="0" stop-color="#ffafaf"/><stop offset="1" stop-color="#f07777"/></linearGradient><linearGradient id="f" gradientUnits="userSpaceOnUse" x1="554.833" x2="543.753" xlink:href="#e" y1="313.939" y2="363.416"/><linearGradient id="g"><stop offset="0" stop-color="#fdc6c6"/><stop offset="1" stop-color="#fab2b2"/></linearGradient><linearGradient id="h" gradientUnits="userSpaceOnUse" x1="553.973" x2="547.325" xlink:href="#g" y1="304.545" y2="337.064"/><linearGradient id="i" gradientUnits="userSpaceOnUse" x1="506.962" x2="505.369" xlink:href="#g" y1="507.352" y2="537.133"/><linearGradient id="j" gradientUnits="userSpaceOnUse" x1="475.89" x2="427.815" y1="545.704" y2="453.427"><stop offset="0" stop-color="#28324f"/><stop offset="1" stop-color="#222735"/></linearGradient><linearGradient id="k" gradientUnits="userSpaceOnUse" x1="470.77" x2="468.618" xlink:href="#g" y1="342.915" y2="371.518"/><linearGradient id="l" gradientUnits="userSpaceOnUse" x1="549.733" x2="549.102" xlink:href="#g" y1="372.46" y2="390.93"/><linearGradient id="m" gradientUnits="userSpaceOnUse" x1="242.334" x2="232.445" y1="204.269" y2="205.194"><stop offset="0" stop-color="#4d63a0"/><stop offset="1" stop-color="#222735"/></linearGradient><linearGradient id="n"><stop offset="0" stop-color="#fe62be"/><stop offset="1" stop-color="#fdb3a8"/></linearGradient><linearGradient id="o" gradientUnits="userSpaceOnUse" x1="127.011" x2="127.011" xlink:href="#n" y1="403.433" y2="419.998"/><linearGradient id="p" gradientUnits="userSpaceOnUse" x1="103.291" x2="105.022" xlink:href="#n" y1="390.795" y2="407.27"/><linearGradient id="q" gradientUnits="userSpaceOnUse" x1="664.727" x2="663.131" xlink:href="#g" y1="505.858" y2="535.708"/><linearGradient id="r" gradientUnits="userSpaceOnUse" x1="660.095" x2="655.855" xlink:href="#g" y1="333.529" y2="394.079"/><linearGradient id="s" gradientUnits="userSpaceOnUse" x1="714.441" x2="703.216" xlink:href="#e" y1="309.528" y2="359.065"/><linearGradient id="t" gradientUnits="userSpaceOnUse" x1="713.685" x2="707.025" xlink:href="#g" y1="300.112" y2="332.709"/><linearGradient id="u" gradientUnits="userSpaceOnUse" x1="629.45" x2="627.889" xlink:href="#g" y1="507.061" y2="540.334"/><linearGradient id="v" gradientUnits="userSpaceOnUse" x1="739.378" x2="737.871" xlink:href="#g" y1="366.401" y2="405.785"/><linearGradient id="w"><stop offset="0" stop-color="#9ff6ec"/><stop offset="1" stop-color="#7d9dff"/></linearGradient><linearGradient id="x" gradientUnits="userSpaceOnUse" x1="586.221" x2="598.146" xlink:href="#w" y1="336.275" y2="384.102"/><linearGradient id="y"><stop offset="0" stop-color="#fdc6c6"/><stop offset="1" stop-color="#a47070"/></linearGradient><linearGradient id="z" gradientUnits="userSpaceOnUse" x1="291.949" x2="303.7" xlink:href="#y" y1="392.304" y2="418.424"/><linearGradient id="A" gradientUnits="userSpaceOnUse" x1="322.015" x2="318.539" xlink:href="#y" y1="293.839" y2="340.739"/><linearGradient id="B" gradientUnits="userSpaceOnUse" x1="407.317" x2="404.967" xlink:href="#y" y1="345.096" y2="377.735"/><linearGradient id="C" gradientUnits="userSpaceOnUse" x1="552.738" x2="552.738" xlink:href="#w" y1="395.207" y2="398.386"/><linearGradient id="D" gradientUnits="userSpaceOnUse" x1="559.031" x2="559.031" xlink:href="#w" y1="347.282" y2="395.909"/><linearGradient id="E"><stop offset="0" stop-color="#fdc6c6"/><stop offset="1" stop-color="#ffcca1"/></linearGradient><linearGradient id="F" gradientUnits="userSpaceOnUse" x1="422.208" x2="442.753" xlink:href="#E" y1="370.874" y2="417.819"/><linearGradient id="G" gradientUnits="userSpaceOnUse" x1="460.365" x2="457.668" xlink:href="#g" y1="498.881" y2="527.059"/><linearGradient id="H" gradientUnits="userSpaceOnUse" x1="526.04" x2="523.808" xlink:href="#g" y1="498.123" y2="524.105"/><linearGradient id="I" gradientUnits="userSpaceOnUse" x1="459.153" x2="456.055" xlink:href="#E" y1="304.686" y2="346.483"/><linearGradient id="J" gradientUnits="userSpaceOnUse" x1="537.824" x2="534.833" xlink:href="#E" y1="345.73" y2="399.408"/><mask id="K" height="144" maskUnits="userSpaceOnUse" width="170" x="90" y="162"><path clip-rule="evenodd" d="m90.8555 167.592c0-2.762 2.2385-5 5-5h158.9495c2.761 0 5 2.238 5 5v132.679c0 2.762-2.239 5-5 5h-158.9495c-2.7615 0-5-2.238-5-5z" fill="#fff" fill-rule="evenodd"/></mask><mask id="L" height="73" maskUnits="userSpaceOnUse" width="35" x="102" y="469"><path clip-rule="evenodd" d="m102.024 471.762c-.103-1.178.825-2.191 2.008-2.191h30.652c1.182 0 2.111 1.013 2.008 2.191l-5.907 67.593c-.091 1.041-.963 1.84-2.008 1.84h-18.838c-1.046 0-1.918-.799-2.009-1.84z" fill="#fff" fill-rule="evenodd"/></mask><path d="m674.32 166.249c9.378-12.518 27.133-15.069 39.659-5.697 12.4 9.278 15.026 26.763 5.978 39.258l-.278.377-74.3 99.187c-9.463 12.633-27.039 15.836-40.339 7.428l-.401-.258-46.774-30.596-47.16 68.645c-8.768 12.763-26.141 16.101-39.003 7.578l-.389-.262c-12.77-8.763-16.109-26.126-7.581-38.981l.262-.388 61.799-89.954c9.206-13.401 27.348-17.094 41.048-8.442l.414.266 47.643 31.165z" fill="#7367f0" opacity=".084542"/><path d="m431.118 5.29424c2.378-3.4544 7.114-4.332956 10.578-1.9623 3.419 2.33945 4.322 6.96896 2.06 10.41016l-.092.137-18.516 26.8999c-2.715 3.7908-7.967 4.7039-11.803 2.0816l-.137-.0952-10.634-7.5708-11.526 18.2592c-2.209 3.4998-6.814 4.583-10.352 2.4647l-.139-.0853c-3.51-2.2027-4.597-6.794-2.472-10.3223l.085-.1387 15.285-24.2142c2.518-3.989 7.802-5.1875 11.803-2.6768l.209.1356.206.1416 10.857 7.7299z" fill="#7367f0" opacity=".084542"/><path clip-rule="evenodd" d="m633.404 131.308c1.38 0 2.5-1.119 2.5-2.5v-17.977h17.989c1.38 0 2.5-1.119 2.5-2.5v-8.6549c0-1.3807-1.12-2.5-2.5-2.5h-17.989v-18.1097c0-1.3807-1.12-2.5-2.5-2.5h-8.796c-1.381 0-2.5 1.1193-2.5 2.5v18.1097h-17.989c-1.381 0-2.5 1.1193-2.5 2.5v8.6549c0 1.381 1.119 2.5 2.5 2.5h17.989v17.977c0 1.381 1.119 2.5 2.5 2.5z" fill="#00cfe8" fill-rule="evenodd" opacity=".070266"/><path clip-rule="evenodd" d="m92.602 22c50.591 0 91.604 40.9886 91.604 91.551 0 50.562-41.013 91.55-91.604 91.55-50.5915 0-91.603953-40.988-91.603953-91.55 0-50.5624 41.012453-91.551 91.603953-91.551zm0 45.3034c-25.5565 0-46.2742 20.7055-46.2742 46.2476 0 25.541 20.7177 46.247 46.2742 46.247 25.557 0 46.274-20.706 46.274-46.247 0-25.5421-20.717-46.2476-46.274-46.2476z" fill="#00cfe8" fill-rule="evenodd" opacity=".07394"/><path clip-rule="evenodd" d="m61.5957 103c0-8.8366 7.1634-16 16-16h470.1283c8.837 0 16 7.1634 16 16v204.224c0 8.837-7.163 16-16 16h-470.1283c-8.8365 0-16-7.163-16-16z" fill="#141a2b" fill-rule="evenodd"/><path clip-rule="evenodd" d="m69.1465 103c0-8.8366 7.1634-16 16-16h462.5775c8.837 0 16 7.1634 16 16v204.224c0 8.837-7.163 16-16 16h-462.5775c-8.8365 0-16-7.163-16-16z" fill="#181f33" fill-rule="evenodd"/><path clip-rule="evenodd" d="m76.6973 104.559c0-5.5228 4.4771-9.9999 10-9.9999h459.4757c5.523 0 10 4.4771 10 9.9999v201.106c0 5.523-4.477 10-10 10h-459.4757c-5.5229 0-10-4.477-10-10z" fill="#283046" fill-rule="evenodd"/><path clip-rule="evenodd" d="m275.85 301.823c0-3.314 2.686-6 6-6h69.171c3.313 0 6 2.686 6 6v13.842h-81.171z" fill="#d4efff" fill-rule="evenodd"/><path d="m283.4 301.823c0-3.314 2.687-6 6-6h69.172c3.313 0 6 2.686 6 6v21.402h-81.172z" fill="#91d6ff"/><g filter="url(#a)"><path clip-rule="evenodd" d="m90.8555 109.397c0-2.976 2.4126-5.389 5.3887-5.389h125.0238c2.976 0 5.389 2.413 5.389 5.389v40.65c0 2.976-2.413 5.389-5.389 5.389h-125.0238c-2.9761 0-5.3887-2.413-5.3887-5.389z" fill="#313a53" fill-rule="evenodd"/></g><path clip-rule="evenodd" d="m131.037 134.559c0-.844.684-1.528 1.528-1.528h25.427c.844 0 1.528.684 1.528 1.528 0 .844-.684 1.528-1.528 1.528h-25.427c-.844 0-1.528-.684-1.528-1.528z" fill="#c7c1ff" fill-rule="evenodd" opacity=".454078"/><path clip-rule="evenodd" d="m131.037 125.903c0-.844.684-1.528 1.528-1.528h15.255c.843 0 1.527.684 1.527 1.528 0 .844-.684 1.528-1.527 1.528h-15.255c-.844 0-1.528-.684-1.528-1.528z" fill="#8478ff" fill-rule="evenodd"/><path clip-rule="evenodd" d="m205.813 122.284c2.17-2.855 6.24-3.408 9.091-1.235.656.499 1.211 1.12 1.635 1.827.219.365.1.838-.264 1.057-.364.218-.836.1-1.055-.265-.323-.54-.747-1.013-1.247-1.394-2.131-1.623-5.154-1.252-6.833.811l-.103.131-2.385 3.137c-3.725 4.901-10.028 7.061-15.959 5.495l-.254-.069-1.918-.542c-.124-.035-.248-.066-.374-.094-3.508-.774-6.979 1.398-7.838 4.868l-.04.171-.396 1.798c-.14.637-.411 1.237-.797 1.761-1.525 2.076-4.443 2.521-6.517.994-.342-.252-.415-.734-.163-1.076.251-.343.733-.416 1.075-.164 1.389 1.023 3.344.725 4.366-.666.226-.308.394-.654.495-1.021l.039-.159.396-1.798c.968-4.4 5.316-7.181 9.711-6.212l.231.055.229.061 1.919.542c5.315 1.502 11-.351 14.415-4.675l.156-.201z" fill="#8478ff" fill-rule="evenodd"/><path clip-rule="evenodd" d="m198.882 121.353c1.57-3.496 5.675-5.057 9.167-3.484.702.315 1.346.746 1.907 1.273 1.319 1.242 2.541 3.205 3.686 5.893.166.391-.015.843-.406 1.01s-.842-.015-1.009-.406c-1.069-2.509-2.184-4.301-3.325-5.375-.436-.41-.937-.745-1.483-.991-2.669-1.201-5.796-.053-7.066 2.565l-.068.146-.495 1.102c-.115.257-.248.505-.396.744-1.828 2.936-5.687 3.833-8.62 2.004-.349-.218-.732-.376-1.133-.468-1.952-.447-3.896.736-4.411 2.656l-.033.135-.856 3.742c-.258 1.127-.806 2.168-1.588 3.018-2.441 2.654-6.539 2.868-9.24.517l-.144-.129-3.486-3.213c-.313-.288-.333-.775-.045-1.088.269-.292.71-.329 1.022-.099l.065.054 3.486 3.214c2.073 1.91 5.302 1.777 7.21-.299.555-.603.956-1.331 1.171-2.12l.049-.199.856-3.742c.647-2.828 3.462-4.596 6.287-3.948.497.114.974.3 1.416.551l.188.111c2.212 1.38 5.122.703 6.5-1.511.075-.12.144-.244.208-.37l.091-.191z" fill="#c7c1ff" fill-rule="evenodd"/><ellipse cx="113.489" cy="130.231" fill="#8478ff" rx="10.4267" ry="10.4383"/><g filter="url(#b)"><path clip-rule="evenodd" d="m90.8555 167.592c0-2.762 2.2385-5 5-5h158.9495c2.761 0 5 2.238 5 5v132.679c0 2.762-2.239 5-5 5h-158.9495c-2.7615 0-5-2.238-5-5z" fill="#313a53" fill-rule="evenodd"/></g><g mask="url(#K)"><g filter="url(#c)"><path d="m113.508 272.2s20.085-5.774 28.941-17.561c8.856-11.786 11.842-23.211 27.073-23.211 15.232 0 17.184 17.498 33.65 17.498s17.366-22.314 22.839-31.174c5.472-8.86 14.917-8.86 14.917-8.86" stroke="#8eeaf6" stroke-linecap="round" stroke-width="4.004"/></g><path clip-rule="evenodd" d="m113.508 270.982s20.085-5.75 28.941-17.485c8.856-11.736 11.842-23.111 27.073-23.111 15.232 0 17.184 17.422 33.65 17.422s17.366-22.218 22.839-31.039c5.472-8.822 14.917-8.822 14.917-8.822v74.401c0 1.701-1.379 3.08-3.08 3.08h-121.26c-1.701 0-3.08-1.379-3.08-3.08z" fill="#cef9ff" fill-rule="evenodd" opacity=".414737"/><g fill="#8eeaf6"><rect height="5.66939" rx="2.83469" width="52.8556" x="104.07" y="176.765"/><path clip-rule="evenodd" d="m104.07 193.773c0-1.565 1.269-2.834 2.835-2.834h18.871c1.565 0 2.834 1.269 2.834 2.834 0 1.566-1.269 2.835-2.834 2.835h-18.871c-1.566 0-2.835-1.269-2.835-2.835z" fill-opacity=".401934" fill-rule="evenodd"/><ellipse cx="227.241" cy="180.073" fill-opacity=".451705" rx="3.30348" ry="3.30714"/><ellipse cx="236.68" cy="180.073" fill-opacity=".451705" rx="3.30348" ry="3.30714"/><ellipse cx="246.118" cy="180.073" fill-opacity=".451705" rx="3.30348" ry="3.30714"/></g></g><g filter="url(#d)"><path clip-rule="evenodd" d="m286.232 124.721c0-4.133 3.351-7.484 7.485-7.484h225.212c4.134 0 7.485 3.351 7.485 7.484v150.516c0 4.134-3.351 7.484-7.485 7.484h-225.212c-4.134 0-7.485-3.35-7.485-7.484z" fill="#313a53" fill-rule="evenodd"/></g><g clip-rule="evenodd" fill-rule="evenodd"><path d="m326.852 202.101v59.186h-8.831v-59.186z" fill="#e7e4ff"/><path d="m326.852 216.245v45.042h-8.831v-45.042z" fill="#c7c1ff"/><path d="m326.852 244.533v16.754h-8.831v-16.754z" fill="#8478ff"/><path d="m348.043 187.957v73.33h-8.83v-73.33z" fill="#e7e4ff"/><path d="m348.043 209.173v52.114h-8.83v-52.114z" fill="#c7c1ff"/><path d="m348.043 244.533v16.754h-8.83v-16.754z" fill="#8478ff"/><path d="m369.236 198.565v62.722h-8.83v-62.722z" fill="#e7e4ff"/><path d="m369.236 219.781v41.506h-8.83v-41.506z" fill="#c7c1ff"/><path d="m369.236 248.069v13.218h-8.83v-13.218z" fill="#8478ff"/><path d="m390.428 180.885v80.402h-8.83v-80.402z" fill="#e7e4ff"/><path d="m390.428 202.101v59.186h-8.83v-59.186z" fill="#c7c1ff"/><path d="m390.428 230.389v30.898h-8.83v-30.898z" fill="#8478ff"/><path d="m411.621 166.741v94.546h-8.83v-94.546z" fill="#e7e4ff"/><path d="m411.621 195.029v66.258h-8.83v-66.258z" fill="#c7c1ff"/><path d="m411.621 237.461v23.826h-8.83v-23.826z" fill="#8478ff"/><path d="m432.815 187.957v73.33h-8.831v-73.33z" fill="#e7e4ff"/><path d="m432.815 209.173v52.114h-8.831v-52.114z" fill="#c7c1ff"/><path d="m432.815 241.704v19.583h-8.831v-19.583z" fill="#8478ff"/><path d="m454.006 195.029v66.258h-8.83v-66.258z" fill="#e7e4ff"/><path d="m454.006 209.173v52.114h-8.83v-52.114z" fill="#c7c1ff"/><path d="m454.006 236.754v24.533h-8.83v-24.533z" fill="#8478ff"/><path d="m475.199 180.885v80.402h-8.83v-80.402z" fill="#e7e4ff"/><path d="m475.199 209.173v52.114h-8.83v-52.114z" fill="#c7c1ff"/><path d="m475.199 243.825v17.462h-8.83v-17.462z" fill="#8478ff"/><path d="m496.391 195.029v66.258h-8.83v-66.258z" fill="#e7e4ff"/><path d="m496.391 209.173v52.114h-8.83v-52.114z" fill="#c7c1ff"/><path d="m496.391 243.826v17.461h-8.83v-17.461z" fill="#8478ff"/><path d="m315.195 147.647c0-1.172.95-2.122 2.122-2.122h70.637c1.171 0 2.121.95 2.121 2.122 0 1.171-.95 2.121-2.121 2.121h-70.637c-1.172 0-2.122-.95-2.122-2.121z" fill="#8c81ff" opacity=".57573"/></g><rect fill="#8478ff" height="4.2432" rx="2.1216" width="39.5593" x="315.195" y="133.502"/><path clip-rule="evenodd" d="m559.039 451.882 11.443 90.408-5.999-.08-11.443-89.482z" fill="#bfe7ff" fill-rule="evenodd"/><path clip-rule="evenodd" d="m481.617 466.093c-5.216 0-9.445-4.229-9.445-9.445 0-5.217 4.229-9.445 9.445-9.445h37.762c5.722 0 10.504-4.354 11.04-10.05l6.038-64.193c.535-5.697 5.317-10.05 11.039-10.05h23.7c6.458 0 11.55 5.498 11.055 11.938l-6.224 81.006c-.444 5.778-5.261 10.239-11.055 10.239z" fill="#91d6ff" fill-rule="evenodd"/><path clip-rule="evenodd" d="m472.174 456.567c.052.001.104.001.156.001h83.13c5.793 0 10.61-4.46 11.055-10.236l6.22-80.718c.067-.88.031-1.742-.099-2.576-.552-.084-1.117-.128-1.694-.128h-23.589c-5.72 0-10.501 4.352-11.039 10.047l-6.033 63.959c-.537 5.695-5.318 10.047-11.039 10.047h-37.649c-5.203 0-9.421 4.218-9.421 9.421 0 .061 0 .122.002.183z" fill="#bfe7ff" fill-rule="evenodd"/><path clip-rule="evenodd" d="m546.276 347.34c12.198-2.842 13.001-19.594 3.727-25.405 9.564-20.06-12.553-39.977-27.703-27.694-9.932-4.254-18.186 12.345-8.944 25.237-3.875 22.135 4.012 27.857 18.228 28.1z" fill="#422851" fill-rule="evenodd"/><path clip-rule="evenodd" d="m546.123 343.339s-5.934-1.393-6.14-11.122c-.205-9.728-.061-13.048-.061-13.048l-13.07-.236s-.143 10.841-.145 14.763c-.005 10.533-7.34 9.643-7.34 9.643s1.524 8.541 13.368 9.207c9.247.521 13.388-9.207 13.388-9.207z" fill="url(#f)" fill-rule="evenodd"/><path clip-rule="evenodd" d="m542.97 314.311c5.831-.226 4.88 8.315-1.177 8.303 0 0-3.518 12.132-15.732 12.132-9.92 0-10.565-14.14-10.655-16.961-.097-3.008-.109-12.888-.109-12.888l27.9-.013z" fill="url(#h)" fill-rule="evenodd"/><path d="m528.416 326.596s-2.909 2.464-6.279.156" stroke="#f77b7b" stroke-linecap="round" stroke-width="1.5"/><path d="m526.494 329.45c-.905.418-1.777.448-2.555.032" stroke="#f49494" stroke-linecap="round"/><path d="m542.375 318.904c-.06-1.37.357-2.458 1.754-2.677" stroke="#f77b7b" stroke-linecap="round"/><path clip-rule="evenodd" d="m543.892 313.256s-3.196 4.29-3.843 4.313-.874-5.58-.874-5.58c-3.921-.3-13.842-2.277-16.274-6.882-1.701 4.063-4.953 5.868-7.089 5.522l-.405 8.632-.997-17.355h30.264z" fill="#422851" fill-rule="evenodd"/><path clip-rule="evenodd" d="m486.404 514.891s5.231 10.571.943 13.902c-4.295 3.332-15.639 9.575-15.639 9.575l30.054-1.89-6.681-23.054z" fill="url(#i)" fill-rule="evenodd"/><path clip-rule="evenodd" d="m498.854 524.951c-1.483.174.101 5.17-3.11 5.55-3.205.379-4.763-4.354-8.399-2.854-3.637 1.501-16.901 9.259-17.423 12.431-.529 3.171 4.413 4.104 11.19 3.388s8.026-3.129 13.114-2.157c5.081.971 8.887-.577 8.72-4.292-.168-3.714-2.609-12.239-4.092-12.066z" fill="#222d4e" fill-rule="evenodd"/><path clip-rule="evenodd" d="m485.685 528.417.66.99c.324.486.165 1.144-.344 1.428l-8.966 5.006c-.291.162-.643.169-.94.019l-1.392-.707c2.186-1.584 3.973-2.774 5.949-3.943 1.516-.897 3.195-1.822 5.033-2.793z" fill="#fff" fill-opacity=".540975" fill-rule="evenodd"/><path clip-rule="evenodd" d="m531.675 421.725c-9.099.406-59.738 11.613-68.939 13.517-9.2 1.904-16.979 12.206-9.963 24.135 7.88 13.391 28.211 51.422 33.148 59.996 2.443 4.243 14.769 1.864 11.873-5.258-5.397-13.277-7.903-46.63-21.664-58.791 0 0 46.277 8.058 66.266-1.172 14.528-6.71 11.242-33.41-10.721-32.427z" fill="url(#j)" fill-rule="evenodd"/><path clip-rule="evenodd" d="m467.208 367.893s.103-7.407-2.486-11.278c-2.59-3.871-2.693-7.983-4.653-7.849-1.96.135-.019 9.692-.019 9.692s-2.487-.95-4.273-2.152c-1.787-1.203-7.204-7.13-8.469-6.08-2.147 1.79 1.31 11.885 3.193 13.903 1.889 2.019 12.209 8.658 12.209 8.658z" fill="url(#k)" fill-rule="evenodd"/><path clip-rule="evenodd" d="m523.122 363.454c-4.233 9.822-11.982 27.866-15.177 33.249-4.004 6.741-10.317 9.711-17.709 4.71-7.768-5.256-29.155-25.756-29.782-30.399-.622-4.644 4.613-10.215 9.35-7.331 4.736 2.885 24.418 19.273 24.418 19.273s7.943-20.373 14.333-32.174c5.533-10.21 21.009-2.259 14.567 12.672z" fill="#6a5ee3" fill-rule="evenodd"/><path clip-rule="evenodd" d="m494.141 382.966s-2.134 7.24-2.632 6.821c-.499-.419.381-8.713.381-8.713z" fill="#000" fill-opacity=".302803" fill-rule="evenodd"/><path clip-rule="evenodd" d="m565.42 351.62s-10.199 34.171-10.502 40.639c-.302 6.469 8.342 25.481 6.871 30.286-3.394 11.105-46.717 15.886-48.372.948-.772-6.967.834-13.22-1.017-21.429-1.844-8.209-9.258-20.407-5.053-31.876s3.078-22.079 6.086-24.085c3.008-2.005 10.039-4.135 10.039-4.135 3.419 5.034 14.962 4.961 20.469-.355 0 0 13.683 2.656 21.479 10.007z" fill="#7367f0" fill-rule="evenodd"/><path clip-rule="evenodd" d="m556.28 357.154c-6.799 10.795-6.779 29.591-10.43 32.052-3.651 2.462-17.863.046-17.863 1.996 0 1.949 19.639 19.814 16.415 28.355-1.688 4.472-1.23 8.472 1.374 12.002l.85-.186c7.738-1.749 13.959-4.891 15.162-8.828 1.472-4.805-8.169-23.817-7.867-30.286.256-5.491 8.363-30.944 10.808-38.512-1.991-3.513-4.807-2.377-8.449 3.407z" fill="#000" fill-opacity=".199355" fill-rule="evenodd"/><path clip-rule="evenodd" d="m544.688 385.794s-8.591-7.607-11.221-8.49-18.033-1.944-17.935.051c.11 2.138 8.383 2.015 9.24 3.066s1.052 8.238 4.292 9.044c3.234.807 12.929 2.198 12.929 2.198z" fill="url(#l)" fill-rule="evenodd"/><path clip-rule="evenodd" d="m567.542 353.583c9.051 12.781 16.778 32.25 19.745 39.84 2.966 7.59-.026 19.039-13.069 16.791-13.02-2.241-33.736-14.422-36.028-17.975s1.19-10.018 5.575-9.172c4.063.783 24.213 9.356 24.213 9.356s-12.963-22.991-16.129-29.154c-5.288-10.293 7.72-20.947 15.693-9.686z" fill="#6a5ee3" fill-rule="evenodd"/><path clip-rule="evenodd" d="m567.774 392.266s6.79 3.375 5.962 1.959c-.828-1.415-8.553-6.388-8.553-6.388z" fill="#000" fill-opacity=".302803" fill-rule="evenodd"/><path clip-rule="evenodd" d="m235.062 511.194s-.136 8.712 5.21 11.806c5.346 3.095 13.629 8.844 13.629 8.844l-31.508 1.069.898-21.797z" fill="#f8cfcf" fill-rule="evenodd"/><path clip-rule="evenodd" d="m221.292 520.794-.513 14.132h7.319l.501-1.821s2.756-.113 4.348.674c1.683.831 1.909 1.235 1.909 1.235l23.214.049s1.145-4.568-5.931-7.872-12.229-7.994-13.207-8.474c-.986-.484-2.975-.757-4.376.379-1.4 1.136-2.508 4.123-5.682 4.216-4.085.121-6.432-4.908-7.582-2.518z" fill="#4b4b4b" fill-rule="evenodd"/><path d="m241.131 520.25-2.406 2.327" stroke="#fff" stroke-linecap="round" stroke-width="2"/><path d="m244.639 522.014-2.407 2.328" stroke="#fff" stroke-linecap="round" stroke-width="2"/><path d="m248.149 523.779-2.407 2.328" stroke="#fff" stroke-linecap="round" stroke-width="2"/><path clip-rule="evenodd" d="m212 323s8.753 96.38 9.026 103.079c.272 6.7-2.812 18.263-2.752 30.795s1.126 56.701 1.126 56.701l19.31.409s8.115-79.817 8.203-91.786c.087-11.969.831-98.046.831-98.046z" fill="#383838" fill-rule="evenodd"/><path clip-rule="evenodd" d="m225.919 429.079.021.239c.291 4.086-2.247 17.528-7.613 40.327l-.053-12.771c-.059-12.309 2.915-23.682 2.763-30.431l-.011-.364c-.092-2.257-1.147-14.7-2.505-30.207l.634 2.271c3.723 13.452 5.977 23.765 6.764 30.936z" fill="#fff" fill-opacity=".192499" fill-rule="evenodd" opacity=".283552"/><path clip-rule="evenodd" d="m188.478 509.966-3.724 22.559 13.728-.069.434-22.843z" fill="#f8cfcf" fill-rule="evenodd"/><path clip-rule="evenodd" d="m187.001 519.724c-1.344.291-2.318 1.458-2.363 2.832l-.111 3.354c-1.942 2.154-2.859 8.377-2.956 9.067-.006.043-.01.084-.005.128.285 3.049 20.254 3.011 22.129.144.085-.131.091-.286.066-.44-.21-1.271-1.326-7.424-3.471-9.102l-.013-3.323c-.005-1.353-.915-2.535-2.222-2.886l-2.063-.554c-2.007-2.927-4.742-2.823-7.085.366z" fill="#4b4b4b" fill-rule="evenodd"/><path d="m189.686 521.748h5.557" stroke="#fff" stroke-linecap="round" stroke-width="2"/><path d="m189.686 524.393h5.557" stroke="#fff" stroke-linecap="round" stroke-width="2"/><path d="m190.568 527.037h3.79" stroke="#fff" stroke-linecap="round" stroke-width="2"/><path clip-rule="evenodd" d="m195.401 324.265s-6.133 66.066-6.05 78.717c.083 12.653 1.888 18.209-.68 27.285-2.569 9.076-4.759 81.519-4.759 81.519l18.991 2.078s12.133-77.518 13.452-88.265c1.319-10.748 17.625-102.246 17.625-102.246z" fill="#2e2e2e" fill-rule="evenodd"/><path clip-rule="evenodd" d="m200.53 369.105-1.158 4.193c-3.392 12.376-6.523 25.463-5.703 44.157l.04.854c.201 4.049-2.375 27.552-7.729 70.508l-.509 3.019c-.525 3.079-.993 5.706-1.403 7.881l.117-3.804c.682-20.998 2.519-58.697 4.485-65.646 2.568-9.076.764-14.632.68-27.284-.058-8.857 2.93-43.886 4.728-64.106l1.323-14.612 8.016-.189.02 2.25c.141 20.773-.828 35.032-2.907 42.779z" fill="#fff" fill-opacity=".192499" fill-rule="evenodd" opacity=".283552"/><path clip-rule="evenodd" d="m288.834 242.566s-1.585-8.738-1.015-10.508c.487-1.529 5.089-3.734 5.089-3.734s8.004-12.506 9.756-11.233c1.425 1.032-4.168 10.252-4.168 10.252s5.1 5.293 5.029 7.659-8.325 9.772-8.325 9.772z" fill="#f8cfcf" fill-rule="evenodd"/><path clip-rule="evenodd" d="m293.08 228.198s3.545-.477 4.109.614c.481.93-2.464 3.567-2.464 4.308s.042 6.351.279 6.402 3.551-9.155 2.844-11.102c-.582-1.599-4.768-.222-4.768-.222z" fill="#f28585" fill-rule="evenodd"/><path clip-rule="evenodd" d="m246.546 253.684c-9.285-8.022-23.228 6.44-7.681 19.885 5.932 5.13 24.563 17.924 29.131 20.738 7.271 4.478 13.246.437 15.701-6.61 2.083-5.974 14.542-37.954 12.956-42.651-1.033-3.064-6.582-6.045-9.367-3.634-4.07 3.523-16.52 34.427-16.52 34.427s-13.662-13.034-24.22-22.155z" fill="#877bff" fill-rule="evenodd"/><path clip-rule="evenodd" d="m270.766 275.839s4.077 4.947 4.372 4.191c.294-.755-3.234-7.112-3.234-7.112z" fill="#000" fill-opacity=".159856" fill-rule="evenodd"/><path d="m286.203 243.393c3.24-1.5 6.779.355 8.729 3.331" stroke="#5386bf" stroke-linecap="round"/><path clip-rule="evenodd" d="m206.742 244.431s5.338-1.228 5.524-9.803c.185-8.575.055-11.503.055-11.503l12.656-.208s.127 9.557.13 13.014c.004 7.525 5.705 9.559 5.705 9.559s-.473 8.228-11.128 8.816c-8.319.459-12.942-9.875-12.942-9.875z" fill="#f8c5c5" fill-rule="evenodd"/><path clip-rule="evenodd" d="m236.249 213.882-.282 8.104c2.391-2.756 4.007-6.172 4.485-10.553z" fill="url(#m)" fill-rule="evenodd"/><path clip-rule="evenodd" d="m211.157 218.791c-5.245-.199-4.389 7.329 1.06 7.319 0 0 5.856 11.544 15.05 11.574 4.429.014 5.874-3.853 7.202-6.568s2.302-6.776 2.383-9.262c.087-2.652.098-11.361.098-11.361l-25.997-.012z" fill="#f8cfcf" fill-rule="evenodd"/><path clip-rule="evenodd" d="m236.95 214.489h-18.283c-.192 3.239-1.29 5.928-4.076 7.912.079 4.745 1.698 8.199 4.506 10.622 2.444-6.868 17.397-4.989 16.309-.508-2.285 9.414-23.7 9.627-22.401-12.039-.854-1.142-3.909-1.356-4.915-.214-1.718-4.733-.985-11.43 3.983-12.398-3.9-10.087 49.122-12.221 24.877 6.625z" fill="#424242" fill-rule="evenodd"/><path d="m225.234 232.099s2.383 1.716 5.518-.16" stroke="#cc6969" stroke-linecap="round"/><path d="m211.975 223.089c.054-1.208-.322-2.167-1.579-2.36" stroke="#de6767" stroke-linecap="round"/><path clip-rule="evenodd" d="m209.089 243 15.103 9.796 6.81-7.909s14.346 4.44 17.008 9.631c3.84 7.49-1.22 67.504.986 71.125 4.701 7.717-1.549 13.015-22.239 14.961s-39.045.353-35.715-9.946c3.332-10.299-9.523-77.511 1.81-81.213 3.541-1.157 16.237-6.445 16.237-6.445z" fill="#7367f0" fill-rule="evenodd"/><path clip-rule="evenodd" d="m198.897 261.529c.915 1.615.443 7.208-1.414 16.78-1.583 8.155.227 16.59 5.004 23.396l.269.376c1.615 2.23 3.105 5.166 4.468 8.808 3.344 8.931-4.368 16.377 1.542 30.35l-.715-.034c-11.596-.599-19.261-3.582-17.009-10.547 2.732-8.444-5.418-55.148-2.195-73.737 5.579 1.094 8.929 2.63 10.05 4.608z" fill="#000" fill-opacity=".159856" fill-rule="evenodd"/><path clip-rule="evenodd" d="m209.089 243 13.509 8.795c-1.98 2.298-3.042 4.971-3.443 7.914-5.192-4.053-10.588-9.717-12.26-15.807z" fill="#5e54c7" fill-rule="evenodd"/><path clip-rule="evenodd" d="m225.26 251.566c2.284 1.542 4.106 4.273 5.59 7.378 1.778-3.568 2.459-8.28 2.459-13.305l-2.231-.88z" fill="#5e54c7" fill-rule="evenodd"/><path clip-rule="evenodd" d="m222.598 251.794.176.099c.81.451 1.82.318 2.485-.327 5.093 18.641 8.675 39.158 9.758 60.01l-5.315 8.814-6.217-8.249c.81-21.671.804-42.802-.887-60.347z" fill="#cbc6ff" fill-rule="evenodd"/><path d="m236.081 298.99c.147-1.392 1.422-2.383 2.807-2.18l12.306 1.799c1.308.191 2.233 1.381 2.094 2.695l-2.208 21.014c-.147 1.392-1.422 2.383-2.807 2.181l-12.306-1.799c-1.308-.191-2.232-1.381-2.094-2.696z" fill="#6182ec"/><path clip-rule="evenodd" d="m237.549 298.567c.151-1.439 1.504-2.439 2.924-2.16l12.867 2.523 8.805-.147c1.479-.025 2.647 1.25 2.492 2.721l-2.205 20.982c-.13 1.238-1.164 2.185-2.409 2.206l-9.407.157-13.298-2.608c-1.252-.246-2.11-1.407-1.976-2.676z" fill="#96effa" fill-rule="evenodd"/><path d="m239.872 303.487c.098-.927.963-1.574 1.879-1.407l5.906 1.081c.823.151 1.391.909 1.303 1.741l-.252 2.394c-.097.927-.962 1.575-1.879 1.407l-5.905-1.081c-.823-.15-1.391-.909-1.303-1.741z" fill="#74cfdb"/><path d="m252.356 299.631c.046-.439.44-.758.879-.712l.517.055c.439.046.758.439.712.879l-2.548 24.244c-.046.439-.44.758-.879.712l-.517-.055c-.44-.046-.758-.439-.712-.879z" fill="#eaefff"/><path d="m253.059 299.705c.046-.439.44-.758.879-.712l.517.055c.44.046.758.439.712.879l-2.548 24.244c-.046.439-.44.758-.879.712l-.517-.055c-.44-.046-.758-.439-.712-.879z" fill="#7ad2dd"/><path clip-rule="evenodd" d="m222.89 308.414s4.586-.916 6.463-2.381c1.877-1.464 7.562-2.499 7.562-2.499l-1.819 3.806s13.932-1.3 14.262.066c.331 1.365-3.699 2.85-3.699 2.85s-1.987 3.688-3.911 5.826c-1.82 2.023-10.864 1.782-14.034.52-2.739-1.091-5.718-.546-5.718-.546z" fill="#f8cfcf" fill-rule="evenodd"/><path clip-rule="evenodd" d="m186.002 255.239c4.982-10.697 22.04-3.49 17.741 7.97-4.164 11.101-14.253 37.021-14.253 37.021s31.972 4.033 34.464 5.914c3.326 2.509 1.27 9.669-1.556 10.944-2.391 1.078-20.153 1.708-37.532.347-8.597-.673-14.955-4.343-15.842-13.876-.622-6.676 12.178-38.015 16.978-48.32z" fill="#877bff" fill-rule="evenodd"/><path clip-rule="evenodd" d="m189.502 300.224s-2.657 5.019-1.898 5.121c.76.103 4.621-4.754 4.621-4.754z" fill="#000" fill-opacity=".159856" fill-rule="evenodd"/><path d="m221.703 305.599c.986 3.128.293 6.796-1.075 9.389" stroke="#5386bf" stroke-linecap="round"/><path clip-rule="evenodd" d="m86.3628 445.346c8.266-3.712 17.9732.015 21.6332 8.304l2.862 6.485c-8.266 3.712-17.9733-.015-21.6325-8.304z" fill="#02d3af" fill-rule="evenodd"/><path clip-rule="evenodd" d="m98.1752 449.302c8.2498 5.87 13.5988 12.412 16.0638 19.624 2.477 7.247 3.492 19.395 3.031 36.421-.007.263.199.483.46.49.262.007.48-.2.487-.464.464-17.132-.559-29.377-3.083-36.759-2.535-7.417-8.012-14.114-16.4129-20.093-.2137-.152-.5091-.1-.6598.115-.1508.216-.0998.514.1139.666z" fill="#02b596" fill-rule="evenodd"/><path clip-rule="evenodd" d="m156.488 441.32c-8.134-3.826-17.829-.298-21.602 7.862l-3.213 6.951c8.134 3.826 17.829.298 21.602-7.862z" fill="#02d3af" fill-rule="evenodd"/><path d="m91.4961 425.385c7.8439-1.667 15.5539 3.34 17.2219 11.184l1.349 6.35c-7.844 1.667-15.5539-3.34-17.2212-11.184z" fill="#02d3af"/><path clip-rule="evenodd" d="m97.2643 430.452c6.0457 4.22 10.1347 8.771 12.2797 13.647l.132.307.133.323c2.198 5.456 5.836 19.746 10.896 42.816.056.257.309.421.565.365.255-.056.416-.311.36-.568l-.627-2.846-.732-3.294c-4.571-20.441-7.853-32.921-9.861-37.487-2.223-5.053-6.429-9.734-12.6081-14.048-.2154-.15-.5103-.096-.6588.12-.1484.217-.0942.514.1212.665z" fill="#02b596" fill-rule="evenodd"/><path clip-rule="evenodd" d="m144.623 420.56c-8.645-.152-15.776 6.734-15.925 15.38l-.134 7.713c8.645.152 15.776-6.734 15.926-15.38z" fill="#02d3af" fill-rule="evenodd"/><path clip-rule="evenodd" d="m138.951 423.662c-5.561 8.16-9.625 16.037-12.188 23.631-2.56 7.581-5.113 19.288-7.663 35.131-.042.26.133.506.391.548.259.042.502-.135.544-.395l.313-1.926.215-1.298c2.367-14.167 4.733-24.753 7.096-31.752 2.534-7.506 6.558-15.306 12.072-23.398.148-.218.094-.515-.122-.664-.215-.15-.51-.095-.658.123z" fill="#02b596" fill-rule="evenodd"/><path clip-rule="evenodd" d="m126.905 418.316s-4.51 12.848-6.504 31.773c-1.993 18.924-.83 37.849-.83 37.849l2.201.2s-1.182-22.088.237-37.966c1.42-15.878 5.996-31.756 5.996-31.756z" fill="#02b596" fill-rule="evenodd"/><ellipse cx="129.201" cy="411.952" fill="#c2fff4" rx="7.26372" ry="11.1372" transform="matrix(.97029573 .2419219 -.2419219 .97029573 103.498031 -19.019816)"/><ellipse cx="129.347" cy="412.624" fill="#02d3af" rx="5.05298" ry="7.26093" transform="matrix(.97029573 .2419219 -.2419219 .97029573 103.664939 -19.035175)"/><path clip-rule="evenodd" d="m128.726 419.005 4.057-12.664c.242-.753-.168-1.56-.914-1.803-.747-.244-1.548.169-1.789.922l-4.058 12.664c-.241.753.169 1.561.915 1.804.747.243 1.547-.17 1.789-.923z" fill="url(#o)" fill-rule="evenodd"/><path clip-rule="evenodd" d="m104.95 405.586s5.828 12.306 9.789 30.919c3.961 18.612 4.782 37.555 4.782 37.555l-2.167.429s-1.134-22.09-4.205-37.733c-3.072-15.643-9.282-30.955-9.282-30.955z" fill="#02b596" fill-rule="evenodd"/><ellipse fill="#c2fff4" rx="7.26372" ry="11.1372" transform="matrix(-.939693 .34202 .34202 .939693 102.001 399.496)"/><ellipse fill="#02d3af" rx="5.05298" ry="7.26093" transform="matrix(-.939693 .34202 .34202 .939693 101.927 400.181)"/><path clip-rule="evenodd" d="m103.214 406.462-5.3598-12.171c-.3186-.723.0043-1.569.7213-1.889.7169-.32 1.5565.007 1.8755.731l5.359 12.17c.318.724-.004 1.57-.721 1.89s-1.557-.008-1.875-.731z" fill="url(#p)" fill-rule="evenodd"/><path clip-rule="evenodd" d="m152.02 443.348c-11.228 4.394-19.056 9.471-23.483 15.251-4.426 5.779-7.351 14.742-8.793 26.891-.031.262.154.5.413.531.26.032.496-.155.527-.417 1.424-11.993 4.298-20.801 8.603-26.421 4.304-5.62 11.995-10.608 23.075-14.944.244-.096.365-.372.27-.618-.094-.246-.368-.368-.612-.273z" fill="#02b596" fill-rule="evenodd"/><path clip-rule="evenodd" d="m121.93 478.595c-5.331-18.997-26.3831-13.438-26.3831-13.438s15.7611 5.151 23.7991 13.438z" fill="#02b596" fill-rule="evenodd"/><path clip-rule="evenodd" d="m121.875 475.677c5.331-18.998 23.1-16.22 23.1-16.22s-10.792 8.871-20.517 16.22z" fill="#02b596" fill-rule="evenodd"/><path clip-rule="evenodd" d="m121.835 479.453c-4.766-16.854 6.351-31.361 6.351-31.361s-.563 19.96-4.427 30.13z" fill="#02b596" fill-rule="evenodd"/><path clip-rule="evenodd" d="m117.172 475.677c-2.107-6.09-4.203-14.595-5.774-22.84 7.763 3.122 10.257 15.56 7.763 22.84z" fill="#02d3af" fill-rule="evenodd"/><path clip-rule="evenodd" d="m102.024 471.762c-.103-1.178.825-2.191 2.008-2.191h30.652c1.182 0 2.111 1.013 2.008 2.191l-5.907 67.593c-.091 1.041-.963 1.84-2.008 1.84h-18.838c-1.046 0-1.918-.799-2.009-1.84z" fill="#7569ec" fill-rule="evenodd"/><g mask="url(#L)"><path clip-rule="evenodd" d="m97.4102 465.099h12.9438c-8.021 30.453 16.126 51.389 0 81.842h-12.9438z" fill="#8175ff" fill-rule="evenodd"/></g><path clip-rule="evenodd" d="m679.746 451.882-11.443 90.408 5.999-.08 11.443-89.482z" fill="#91d6ff" fill-rule="evenodd"/><path clip-rule="evenodd" d="m646.447 451.882-11.443 90.408 5.999-.08 11.443-89.482z" fill="#91d6ff" fill-rule="evenodd"/><path clip-rule="evenodd" d="m719.493 451.882 11.443 90.408-6-.08-11.443-89.482z" fill="#bfe7ff" fill-rule="evenodd"/><path clip-rule="evenodd" d="m642.07 466.093c-5.216 0-9.445-4.229-9.445-9.445 0-5.217 4.229-9.445 9.445-9.445h37.763c5.721 0 10.503-4.354 11.039-10.05l6.038-64.193c.535-5.697 5.317-10.05 11.039-10.05h23.7c6.459 0 11.55 5.498 11.056 11.938l-6.225 81.006c-.444 5.778-5.261 10.239-11.055 10.239z" fill="#91d6ff" fill-rule="evenodd"/><path clip-rule="evenodd" d="m632.627 456.567c.052.001.104.001.156.001h83.13c5.793 0 10.61-4.46 11.055-10.236l6.22-80.718c.068-.88.031-1.742-.099-2.576-.552-.084-1.117-.128-1.694-.128h-23.588c-5.721 0-10.502 4.352-11.039 10.047l-6.033 63.959c-.538 5.695-5.319 10.047-11.039 10.047h-37.65c-5.203 0-9.421 4.218-9.421 9.421 0 .061.001.122.002.183z" fill="#bfe7ff" fill-rule="evenodd"/><path clip-rule="evenodd" d="m644.11 513.415s5.246 10.595.945 13.934c-4.307 3.339-15.683 9.597-15.683 9.597l30.14-1.894-6.7-23.108z" fill="url(#q)" fill-rule="evenodd"/><path clip-rule="evenodd" d="m656.525 523.003c-.949.452.611 4.709-2.726 4.41-3.336-.298-5.431-4.699-7.891-4.413-2.461.285-4.023 4.717-8.708 7.803-4.683 3.087-11.628 6.769-11.163 9.872.465 3.104 11.394 3.935 16.931 2.907 5.537-1.026 8.121-3.252 11.713-3.075 3.592.178 5.85-.262 6.976-2.568 1.125-2.307-4.038-15.459-5.132-14.936z" fill="#eedfe8" fill-rule="evenodd"/><path clip-rule="evenodd" d="m656.258 537.167-.307-.018c-4.452-.375-7.506 2.425-11.743 3.214-4.238.79-15.413 1.063-17.198-1.588-.085-.125-.163-.254-.236-.384-.6.737-.882 1.526-.737 2.445.465 2.953 11.395 3.744 16.932 2.767s8.122-3.096 11.714-2.927l.639.024c3.223.088 5.279-.406 6.338-2.468.257-.503.199-1.583-.059-2.949-1.503 1.028-3.399 1.943-5.343 1.884z" fill="#ec7aa5" fill-rule="evenodd"/><path clip-rule="evenodd" d="m689.511 420.032c-9.124.407-59.91 11.64-69.136 13.548-9.227 1.908-17.028 12.234-9.992 24.192 7.902 13.422 28.292 51.542 33.243 60.135 2.45 4.253 14.811 1.868 11.908-5.271-5.413-13.307-7.927-46.738-21.727-58.927 0 0 46.41 8.077 66.457-1.175 14.569-6.726 11.273-33.487-10.753-32.502z" fill="#413c75" fill-rule="evenodd"/><path clip-rule="evenodd" d="m625.859 363.074s.104-5.424-2.494-9.304c-2.597-3.88-2.7-8.002-4.665-7.867-1.966.135-.02 9.715-.02 9.715s-2.493-.953-4.285-2.158c-1.791-1.205-7.224-7.146-8.494-6.093-2.152 1.794 1.315 11.912 3.203 13.935 1.895 2.024 11.244 7.678 11.244 7.678l27.535 27.739 4.117-14.725z" fill="url(#r)" fill-rule="evenodd"/><path clip-rule="evenodd" d="m680.934 360.625c-4.245 9.845-12.017 27.931-15.221 33.326-4.015 6.757-10.347 9.735-17.76 4.721-1.551-1.049-6.005-4.718-6.005-4.718.659-6.422 3.058-11.79 7.194-16.105l2.809 2.323s7.966-20.42 14.374-32.248c5.549-10.234 21.07-2.265 14.609 12.701z" fill="#ea5455" fill-rule="evenodd"/><path clip-rule="evenodd" d="m651.869 380.183s-2.139 7.257-2.639 6.836c-.501-.42.382-8.733.382-8.733z" fill="#000" fill-opacity=".159856" fill-rule="evenodd"/><path clip-rule="evenodd" d="m699.278 322.411v8.712l6.397-5.151s1.967-8.346 3.566-14.545c1.003-3.888 3.446-17.043-6.39-16.427-8.058-14.204-31.524-5.413-31.711 11.94-.224 20.871-.041 28.997-.041 28.997 13.27.761 20.738-1.157 28.179-13.526z" fill="#422851" fill-rule="evenodd"/><path clip-rule="evenodd" d="m705.812 338.997s-5.95-1.397-6.157-11.147c-.206-9.751-.061-13.08-.061-13.08l-13.108-.236s-.143 10.867-.145 14.798c-.006 9.557-7.034 10.34-7.034 10.34s1.201 7.886 13.079 8.554c9.273.522 13.426-9.229 13.426-9.229z" fill="url(#s)" fill-rule="evenodd"/><path clip-rule="evenodd" d="m702.65 309.901c5.848-.226 4.894 8.334-1.18 8.323 0 0-3.528 12.16-15.778 12.16-9.948 0-10.595-14.173-10.685-17.001-.097-3.014-.109-12.918-.109-12.918l27.98-.013z" fill="url(#t)" fill-rule="evenodd"/><path clip-rule="evenodd" d="m703.103 309.845c-2.423.4-2.129 2.004-2.788 1.864-3.346-.712-16.89.227-18.634-7.221-2.17 4.653-2.701 5.797-7.479 7.046v-13.635l30.222-2.899s-.469 14.704-1.321 14.845z" fill="#422851" fill-rule="evenodd"/><path d="m688.055 322.215s-2.918 2.47-6.297.157" stroke="#f77b7b" stroke-linecap="round" stroke-width="1.5"/><path d="m686.129 325.075c-.908.419-1.782.45-2.562.032" stroke="#f49494" stroke-linecap="round"/><path d="m702.053 314.505c-.06-1.373.359-2.464 1.759-2.683" stroke="#f77b7b" stroke-linecap="round"/><path clip-rule="evenodd" d="m704.484 338c-7.468 4.574-16.102 6.251-24.139 1.284-13.115 25.861-16.384 56.718-13.229 90.822 19.125 7.572 35.199 6.083 48.884-2.572z" fill="#ffe4f4" fill-rule="evenodd"/><path clip-rule="evenodd" d="m611.415 513.84s.158 12.471-10.118 17.133c-10.269 4.662-17.586 4.382-16.654 7.986.931 3.604 27.661 3.459 30.157.64 2.128-2.398 6.754-24.727 8.028-23.02z" fill="url(#u)" fill-rule="evenodd"/><path clip-rule="evenodd" d="m618.879 531.452c-1.575-1.133-2.899 5.401-7.176 3.584-4.278-1.817-.905-7.823-3.597-8.931-2.692-1.107-7.89 4.848-14.794 6.296-6.904 1.446-12.509 2.713-14.102 5.4-1.372 2.31 0 3.048 0 3.048s6.646 3.319 10.776 4.05c6 1.061 23.339 1.768 25.239-.167 1.167-1.187 4.442-12.713 3.654-13.28z" fill="#eedfe8" fill-rule="evenodd"/><path clip-rule="evenodd" d="m578.835 538.073c-1.302 2.123.752 3.227.998 3.349l.991.422c1.88.782 6.122 2.458 9.257 3.057 5.748 1.099 23.547 1.75 25.462-.139.336-.332.752-1.545 1.154-3.121l-1.221.133c-5.878.623-18.999 1.749-25.474.224-5.748-1.354-8.894-3.581-10.329-4.882-.349.3-.631.618-.838.957z" fill="#ec7aa5" fill-rule="evenodd"/><path clip-rule="evenodd" d="m718.102 416.177s13.266 28.015-5.377 37.635c-18.029 9.303-72.001-1.7-72.001-1.7s.965 7.765 0 14.69c-2.518 18.087-14.498 48.221-17.032 52.007-3.505 5.237-14.182 1.288-14.383-3.072-.202-4.36 8.048-60.044 9.303-70.662 1.248-10.619 5.188-12.162 16.697-15.065 2.644-.667 33.911-8.437 36.775-8.21 24.611 1.946 46.018-5.623 46.018-5.623z" fill="#524d87" fill-rule="evenodd"/><path clip-rule="evenodd" d="m703.56 450.921c-17.849 2-65.104-2.123-67.002-.25-1.812 1.789-1.509 32.904-5.574 50.914l.618-1.701c3.823-10.617 7.792-23.53 9.122-33.082.965-6.925 0-14.69 0-14.69l2.177.421c10.259 1.927 53.959 9.466 69.824 1.279 8.597-4.436 12.105-11.806 10.524-22.109-2.722 11.646-9.285 18.052-19.689 19.218z" fill="#fff" fill-opacity=".056108" fill-rule="evenodd"/><path clip-rule="evenodd" d="m704.157 338.021c-12.369 40.517-19.786 97.958 18.842 87.965-20.519-37.78 7.376-54.784 1.053-74.31-2.162-6.676-19.734-14.179-19.895-13.655z" fill="#ea5455" fill-rule="evenodd"/><path clip-rule="evenodd" d="m718.107 354.845c-13.979 2.11-2.455 26.517-7.07 30.194-4.614 3.677-12.646 4.074-13.512 6.32-1.74 4.515 6.674 15.912 25.242 34.192l.233.435c-17.875-32.91.988-50.055 1.969-66.835-2.071-3.248-4.359-4.683-6.862-4.306z" fill="#000" fill-opacity=".159856" fill-rule="evenodd"/><path clip-rule="evenodd" d="m681 339c-4.72 11.838-6.989 21.127-9.106 38.503-1.765 14.472-.881 44.337-.881 44.337l-5.833 1.147s-4.17-46.139-2.776-52.08c2.34-9.969 3.925-15.794 7.014-24.907 1.702-5.002 11.582-7 11.582-7z" fill="#ea5455" fill-rule="evenodd"/><path clip-rule="evenodd" d="m701.56 384.017s-7.616-7.625-10.253-8.51c-2.638-.885-17.085-1.948-16.987.052.111 2.142 9.407 2.019 10.267 3.073.859 1.053 2.055 9.256 5.304 10.065 3.243.809 9.966 3.203 9.966 3.203l29.924 15.461-3.188-15.46z" fill="url(#v)" fill-rule="evenodd"/><path clip-rule="evenodd" d="m724.48 351.731c9.077 12.811 16.827 32.325 19.802 39.933 2.974 7.608-.026 19.083-13.107 16.83-1.557-.268-4.091-1.254-4.091-1.254-4.809-6.593-5.653-12.253-3.858-17.293 0 0 1.692.714 1.692.714s-13.001-23.044-16.176-29.222c-5.302-10.317 7.743-20.995 15.738-9.708z" fill="#ea5455" fill-rule="evenodd"/><path clip-rule="evenodd" d="m724.919 390.661s6.604 3.225 5.773 1.807c-.83-1.419-8.288-6.286-8.288-6.286z" fill="#000" fill-opacity=".159856" fill-rule="evenodd"/><path clip-rule="evenodd" d="m586.967 348.045c-.329-1.321.474-2.658 1.795-2.987l23.469-5.852c1.321-.329 2.658.474 2.987 1.795l8.522 34.18c.329 1.32-.474 2.658-1.794 2.987l-23.47 5.851c-1.32.33-2.658-.474-2.987-1.794z" fill="url(#x)" fill-rule="evenodd"/><path clip-rule="evenodd" d="m587.883 348.595c-.329-1.32.475-2.657 1.795-2.987l23.469-5.851c1.321-.329 2.658.474 2.987 1.795l8.522 34.18c.329 1.32-.474 2.657-1.794 2.987l-23.47 5.851c-1.32.329-2.658-.474-2.987-1.795z" fill="#518df8" fill-rule="evenodd"/><path d="m588.884 348.896c-.296-1.188.427-2.392 1.615-2.688l22.072-5.503c1.189-.297 2.392.427 2.689 1.615l7.705 30.903c.296 1.188-.427 2.392-1.616 2.688l-22.072 5.503c-1.188.296-2.392-.427-2.688-1.615z" fill="#fff"/><path clip-rule="evenodd" d="m384.205 397.871h11.417v144.88h-11.417z" fill="#e9e9e9" fill-rule="evenodd"/><path clip-rule="evenodd" d="m272.375 402.634h90.189v26.908h-75.161v113.209h-15.028z" fill="#d3d3d3" fill-rule="evenodd"/><path clip-rule="evenodd" d="m271.791 402.634h8v140.117h-8z" fill="#dbdbdb" fill-rule="evenodd"/><path clip-rule="evenodd" d="m664.43 402.634h16v140.117h-16z" fill="#e9e9e9" fill-rule="evenodd"/><path clip-rule="evenodd" d="m664.43 397.871h10v144.88h-10z" fill="#dbdbdb" fill-rule="evenodd"/><path clip-rule="evenodd" d="m532.006 402.634h139v26.556h-120.293v113.561h-18.707z" fill="#d3d3d3" fill-rule="evenodd"/><path clip-rule="evenodd" d="m283.59 397.871h248.889v40.23h-248.889z" fill="#dbdbdb" fill-rule="evenodd"/><path clip-rule="evenodd" d="m526.771 402.634h11.417v35.467h-11.417z" fill="#e9e9e9" fill-rule="evenodd"/><path clip-rule="evenodd" d="m532.041 402.634h9v140.117h-9z" fill="#dbdbdb" fill-rule="evenodd"/><path clip-rule="evenodd" d="m533.477 405.015c0-3.945 3.198-7.144 7.143-7.144h145.126c3.945 0 7.143 3.199 7.143 7.144 0 3.945-3.198 7.143-7.143 7.143h-145.126c-3.945 0-7.143-3.198-7.143-7.143z" fill="#e9e9e9" fill-rule="evenodd"/><path clip-rule="evenodd" d="m280.736 400.729h248.89v14.287h-248.89z" fill="#e9e9e9" fill-rule="evenodd"/><path clip-rule="evenodd" d="m259.805 405.015c0-3.945 3.198-7.144 7.143-7.144h276.464c3.946 0 7.144 3.199 7.144 7.144 0 3.945-3.198 7.143-7.144 7.143h-276.464c-3.945 0-7.143-3.198-7.143-7.143z" fill="#dbdbdb" fill-rule="evenodd"/><path clip-rule="evenodd" d="m304.388 507.181-7.898 25.643 16.567.601s-1.871-8.772.8-16.995c2.143-6.601 3.891-9.895 3.891-9.895z" fill="#92691f" fill-rule="evenodd"/><path clip-rule="evenodd" d="m312.622 526.378s6.323 5.86 12.404 8.031 8.409 2.195 8.842 3.012l.079.156c1.251 2.582.492 6.012-13.369 6.202-3.369.046-6.872-1.911-16.17-3.982l-.672 3.62c-5.204-.069-8.24-.889-9.109-2.461-1.31-2.351.916-13.945 2.452-14.165 1.535-.22 1.839 4.496 5.962 4.599 4.129.103 9.581-5.012 9.581-5.012z" fill="#391b0b" fill-rule="evenodd"/><path clip-rule="evenodd" d="m324.881 534.356c-.188.163-.415.335-.681.498-.924.567-2.317 1.018-4.189.591-.952-.218-2.012-.826-3.054-1.593-1.047-.77-2.096-1.715-3.029-2.631s-1.753-1.805-2.338-2.466c-.294-.33-.528-.603-.69-.794-.026-.03-.05-.058-.071-.084.137-.106.269-.209.394-.309.018.022.037.045.058.07.16.188.392.458.683.786.58.654 1.392 1.535 2.314 2.441.924.906 1.955 1.834 2.975 2.584 1.026.755 2.02 1.314 2.869 1.508 1.731.395 2.99-.022 3.817-.529.148-.091.283-.185.404-.278.179.072.358.141.538.206z" fill="#81411e" fill-rule="evenodd"/><path clip-rule="evenodd" d="m266.629 426.913s65.793 5.261 74.858 5.542c9.065.28 15.991 13.219 8.971 25.162-7.884 13.407-29.305 52.004-33.493 60.928-3.542 7.545-19.64 4.453-16.743-7.072 3.459-13.794 9.904-44.74 23.673-56.915 0 0-33.487 12.141-52.349.366-10.761-6.717-4.917-28.011-4.917-28.011z" fill="#7a3636" fill-rule="evenodd"/><path clip-rule="evenodd" d="m350.46 457.617-1.026 1.759c-3.99 6.896-10.433 18.547-16.584 29.894l.323-1.039c4.758-15.139 12.149-32.973 15.309-38.414 1.108-1.907 2.616-3.851 4.524-5.832.81 4.155.195 8.969-2.546 13.632z" fill="#fff" fill-opacity=".192499" fill-rule="evenodd"/><path clip-rule="evenodd" d="m375.987 507.48s4.398 19.558 10.123 21.651c2.204.806-16.892 3.107-16.892 3.107l-4.794-18.764z" fill="#92691f" fill-rule="evenodd"/><path clip-rule="evenodd" d="m366.46 525.631-.319 16.511 6.582.05.067-3.712s5.13 3.076 8.604 4.158c4.672 1.459 23.131.695 25.216-1.528 2.086-2.233 2.131-5.786-2.151-6.223-4.281-.436-11.361-1.736-14.409-4.069-3.687-2.811-5.09-7.271-6.161-7.275-1.639-.006-1.766 5.241-10.085 5.315-3.167.028-7.344-3.227-7.344-3.227z" fill="#391b0b" fill-rule="evenodd"/><path clip-rule="evenodd" d="m382.186 525.015s4.245 6.624 6.768 7.583c2.524.949 4.558-.116 4.558-.116s-4.352-1.734-6.033-4.76c-3.807-6.855-4.569-3.368-5.293-2.707z" fill="#81411e" fill-rule="evenodd"/><path clip-rule="evenodd" d="m272.075 432.228s-.092 21.02 14.031 26.304c14.124 5.283 60.114 3.295 60.114 3.295s14.594 53.698 18.091 58.928c3.497 5.231 20.079 5.772 19.182-6.274-.903-12.046-7.374-56.768-8.626-67.374-1.245-10.607-5.177-13.147-16.659-15.047-4.036-.668-2.323-1.738-28.267-2.953-5.572-.261-14.921 1.825-23.512 2.77-8.592.945-34.354.351-34.354.351z" fill="#7a3636" fill-rule="evenodd"/><path clip-rule="evenodd" d="m317.977 432.681v-2.441l1.15-.172c4.182-.621 7.984-1.093 10.813-.961l2.983.145c22.833 1.155 21.41 2.167 25.284 2.808l.746.126c10.663 1.847 14.521 4.428 15.827 14.233l.366 2.951c1.728 13.592 7.498 53.788 8.347 65.111.067.906.036 1.741-.082 2.509l-3.361-16.928c-4.954-25.096-7.73-39.966-8.328-44.61l-.125-.965c-1.119-8.243-4.047-18.471-13.496-17.804l-.816.069c-6.653.506-19.269-.77-37.849-3.829z" fill="#fff" fill-opacity=".192499" fill-rule="evenodd"/><ellipse cx="385.32" cy="448.912" fill="#fff" fill-opacity=".192499" rx="3.77561" ry="6.61391" transform="matrix(.97437006 .22495105 -.22495105 .97437006 110.858954 -75.172555)"/><path clip-rule="evenodd" d="m282.263 404.315s15.391 3.563 15.235 4.961c-.153 1.406-6.929 1.622-6.929 1.622s12.526 8.089 11.529 9.667-9.164 3.356-12.553 2.083c-3.391-1.273-12.178-10.536-12.178-10.536z" fill="url(#z)" fill-rule="evenodd"/><path clip-rule="evenodd" d="m282.402 358.716c-5.155 6.362-22.733 25.797-22.733 25.797s17.578 12.519 22.004 15.168c7.258 4.34-.123 15.855-5.446 14.576-7.213-1.737-25.421-14.298-33.977-19.382-8.555-5.083-5.282-13.291 1.048-20.78 4.863-5.753 15.433-17.538 22.87-27.884 7.4-10.294 26.238.159 16.234 12.505z" fill="#ea5455" fill-rule="evenodd"/><path clip-rule="evenodd" d="m259.67 384.513s-4.949 4.768-4.435 5.137c.515.369 6.478-3.671 6.478-3.671z" fill="#000" fill-opacity=".159856" fill-rule="evenodd"/><path clip-rule="evenodd" d="m313.093 312.007c4.323.473 4.016 8.082-1.246 8.479-1.076 7.335-4.911 10.829-9.588 11.233l.259 11.094-20.685-.012s5.825-7.837 5.535-18.566c-.291-10.729.194-20.808.194-20.808l26.793.481z" fill="url(#A)" fill-rule="evenodd"/><path clip-rule="evenodd" d="m304.63 291.313c15.937 4.023 9.362 21.015 9.362 21.015-4.815-.657-9.449 5.186-11.206 10.916-5.081 5.223-11.662 5.214-16.038 2.172 0 0-6.021-18.623-4.052-24.824 1.97-6.201 7.408-12.945 21.934-9.279z" fill="#2c272e" fill-rule="evenodd"/><path clip-rule="evenodd" d="m266.957 345.288c-1.431 2.436-2.456 12.248 0 51.12 1.272 20.129-4.138 39.968-2.74 48.701 1.398 8.734 11.006 9.777 11.006 9.777l5.603-18.229 2.636 18.229s39.734-3.715 43.216-12.761c3.489-9.065-.893-30.375-1.935-50.442-1.046-20.146-.261-40.825-2.187-43.959-3.843-6.256-13.735-9.178-19.874-10.114-7.791-1.187-17.849-1.233-23.828.663-5.979 1.895-10.466 4.579-11.897 7.015z" fill="#ea5455" fill-rule="evenodd"/><path clip-rule="evenodd" d="m307.385 359.131c3.136 23.134 7.329 39.367 12.579 48.699 2.171 3.858 4.376 5.449 6.616 4.772l-.532-5.127c-.53-5.188-1.033-10.533-1.306-15.792-.191-3.667-.32-7.352-.417-10.946z" fill="#000" fill-opacity=".159856" fill-rule="evenodd"/><path clip-rule="evenodd" d="m278.854 338.273c-.362.115-.713.234-1.052.358 8.585 3.743 22.76 3.243 30.466.194-2.008-.567-3.933-.963-5.586-1.215-7.791-1.187-17.848-1.233-23.828.663z" fill="#e5aa41" fill-rule="evenodd"/><path clip-rule="evenodd" d="m384.153 379.168s12.785-8.535 15.044-10.249c2.252-1.707 5.079-14.651 3.327-16.467-.846-.878-7.242 5.034-8.383 5.826-1.134.784-6.933 4.278-6.933 4.278s1.641-9.907.228-10.706c-1.045-.582-3.136 1.968-3.415 4.663-.28 2.695-3.187 6.21-3.562 10.3-.17 1.787-1.929 5.2-1.929 5.2z" fill="url(#B)" fill-rule="evenodd"/><path clip-rule="evenodd" d="m308.013 362.801c4.899 10.179 13.219 25.062 17.789 33.788 5.408 10.326 11.852 14.701 24.849 7.039 10.885-6.417 26.581-16.738 34.691-22.347 7.547-5.22-1.374-18.106-8.504-13.752-9.458 5.768-33.646 17.199-33.646 17.199s-12.447-22.737-17.615-33.653c-6.574-13.874-27.045-7.974-17.564 11.726z" fill="#ea5455" fill-rule="evenodd"/><path clip-rule="evenodd" d="m343.193 384.728s2.276 8.016 2.813 7.7c.537-.317-.377-8.849-.377-8.849z" fill="#000" fill-opacity=".159856" fill-rule="evenodd"/><path clip-rule="evenodd" d="m292.769 463.221-11.443 80.958 6-.079 11.443-80.033z" fill="#bfe7ff" fill-rule="evenodd"/><path clip-rule="evenodd" d="m330.93 463.221 11.443 80.958-5.999-.079-11.443-80.033z" fill="#91d6ff" fill-rule="evenodd"/><path clip-rule="evenodd" d="m257.884 463.221-11.443 80.958 6-.079 11.443-80.033z" fill="#bfe7ff" fill-rule="evenodd"/><path clip-rule="evenodd" d="m335.307 467.983c5.216 0 9.445-4.229 9.445-9.445 0-5.217-4.229-9.445-9.445-9.445h-37.763c-5.721 0-10.503-4.354-11.039-10.05l-6.038-64.193c-.536-5.697-5.318-10.05-11.039-10.05h-23.7c-6.459 0-11.55 5.498-11.056 11.938l6.225 81.006c.444 5.778 5.261 10.239 11.055 10.239z" fill="#bfe7ff" fill-rule="evenodd"/><path clip-rule="evenodd" d="m344.75 458.457c-.052.001-.104.001-.156.001h-51.983c-5.793 0-10.61-4.46-11.055-10.236l-6.308-81.859c2.944 1.758 5.018 4.847 5.361 8.484l6.033 63.959c.538 5.695 5.319 10.047 11.039 10.047h37.65c5.203 0 9.421 4.218 9.421 9.421 0 .061-.001.122-.002.183z" fill="#91d6ff" fill-rule="evenodd"/><path clip-rule="evenodd" d="m558.982 396.543c0-.413-.334-.747-.746-.747h-84.136c-.413 0-.747.334-.747.747v1.096c0 .413.334.747.747.747h84.136c.412 0 .746-.334.746-.747z" fill="url(#C)" fill-rule="evenodd"/><path clip-rule="evenodd" d="m558.99 396.543c0-.413-.334-.747-.746-.747h-32.327c-.412 0-.747.334-.747.747v1.096c0 .413.335.747.747.747h32.327c.412 0 .746-.334.746-.747z" fill="#518df8" fill-rule="evenodd"/><path clip-rule="evenodd" d="m565.094 360.353c.275-2.152-1.401-4.057-3.571-4.057h-55.811c-1.812 0-3.341 1.346-3.571 3.143l-4.151 32.413c-.276 2.152 1.401 4.057 3.571 4.057h55.811c1.811 0 3.341-1.346 3.571-3.143z" fill="#518df8" fill-rule="evenodd"/><path clip-rule="evenodd" d="m563.394 360.353c.276-2.152-1.401-4.057-3.57-4.057h-54.632c-1.811 0-3.341 1.346-3.571 3.143l-4.151 32.413c-.275 2.152 1.401 4.057 3.571 4.057h54.632c1.811 0 3.34-1.346 3.571-3.143z" fill="url(#D)" fill-rule="evenodd"/><path d="m561.445 361.821c.248-1.937-1.261-3.651-3.214-3.651h-51.758c-1.631 0-3.007 1.211-3.214 2.829l-3.74 29.237c-.248 1.937 1.261 3.651 3.214 3.651h51.758c1.631 0 3.007-1.212 3.214-2.829z" fill="#fff"/><path clip-rule="evenodd" d="m424.644 406.22s13.601 3.173 13.463 4.418c-.135 1.252-6.123 1.444-6.123 1.444s11.069 7.203 10.188 8.608-8.098 2.988-11.093 1.855c-2.997-1.133-10.762-9.381-10.762-9.381l-21.787-11.701 7.282-9.604z" fill="url(#F)" fill-rule="evenodd"/><path clip-rule="evenodd" d="m424.768 365.617c-4.556 5.665-20.089 22.97-20.089 22.97s3.066 2.301 3.066 2.301l-9.972 12.097s-6.368-3.902-8.487-5.17c-7.561-4.527-4.668-11.835.926-18.504 4.297-5.122 13.638-15.616 20.21-24.829 6.54-9.166 23.187.141 14.346 11.135z" fill="#ffb66f" fill-rule="evenodd"/><path clip-rule="evenodd" d="m404.679 388.587s-4.374 4.246-3.919 4.575 5.724-3.269 5.724-3.269z" fill="#000" fill-opacity=".159856" fill-rule="evenodd"/><path clip-rule="evenodd" d="m407.127 389.623-12.998 12.868 6.499 4.253 8.929-15.285z" fill="#ffedc2" fill-rule="evenodd"/><path clip-rule="evenodd" d="m448.635 505.233-7.031 22.649 11.818.531s-1.666-7.748.712-15.01c1.907-5.831 3.464-8.74 3.464-8.74z" fill="url(#G)" fill-rule="evenodd"/><path clip-rule="evenodd" d="m453.518 521.78s-.247 5.766 1.767 7.589c2.013 1.821 12.693 8.548 13.588 9.903.895 1.356-.418 3.011-.418 3.011s-10.904 1.71-16.048-.929c-3.713-1.906-6.366-3.463-6.366-3.463l-1.14 2.929-5.954-.855s-1.835-4.649-1.047-6.961c.789-2.312 4.858-13.115 4.858-13.115s10.76 1.891 10.76 1.891z" fill="#391b0b" fill-rule="evenodd"/><path clip-rule="evenodd" d="m414.247 428.031c8.889.867 52.673 11.295 61.688 13.147s16.637 11.873 9.763 23.476c-7.722 13.025-29.549 53.504-29.549 53.504-.135.033-.267.091-.403.091-4.44 0-8.398-.608-12.209-3.264 0 0 5.791-42.445 19.274-54.273 0 0-34.818 12.519-52.23-1.141-10.272-8.058-6.13-32.496 3.666-31.54z" fill="#33373e" fill-rule="evenodd"/><path clip-rule="evenodd" d="m482.573 444.255-2.391 30.023c.197-.35.392-.696.584-1.038l2.278-28.603c-.154-.131-.311-.258-.471-.382z" fill="#fff" fill-opacity=".192499" fill-rule="evenodd"/><path clip-rule="evenodd" d="m514.095 503.444s3.877 17.27 8.922 19.118c1.943.711-11.986 2.743-11.986 2.743l-4.225-16.568z" fill="url(#H)" fill-rule="evenodd"/><path clip-rule="evenodd" d="m509.257 520.544 3.678 21.621 6.376-1.008-.787-5.346s2.796 4.657 5.915 4.456c3.128-.202 18.77-2.56 18.77-2.56s.352-5.178-6.843-6.361c-5.985-.983-16.19-12.537-16.19-12.537z" fill="#391b0b" fill-rule="evenodd"/><path clip-rule="evenodd" d="m421.706 425.171s-12.832 27.179 5.201 36.511c17.439 9.025 63.843-2.619 63.843-2.619s-.933 7.533 0 14.251c2.436 17.547 14.418 39.135 15.508 42.693.549 1.791 13.913-.856 13.913-2.981s-6.818-50.489-8.032-60.79c-1.207-10.302-5.019-11.798-16.151-14.614-2.558-.647-35.704-8.186-38.475-7.966-23.806 1.888-35.807-4.485-35.807-4.485z" fill="#42474f" fill-rule="evenodd"/><path clip-rule="evenodd" d="m457.513 429.656c2.771-.22 35.917 7.319 38.475 7.966l1.827.469c9.496 2.484 13.015 4.337 14.238 13.456l.329 2.618c1.002 7.639 3.71 25.604 5.853 40.56-2.418-5.497-4.419-11.596-6.003-18.298-3.692-15.619-2.902-28.445-3.893-30.691-.992-2.246-49.48-9.416-57.811-10.896-3.627-.644-5.672-2.241-6.137-4.792 4.026.113 8.4-.017 13.122-.392z" fill="#fff" fill-opacity=".192499" fill-rule="evenodd"/><path clip-rule="evenodd" d="m451.202 320.877c3.852.422 3.579 7.203-1.11 7.557-.958 6.536-4.376 9.65-8.543 10.01l.231 9.887-18.433-.011s5.191-6.984 4.932-16.545c-.259-9.562.174-18.544.174-18.544l23.874.429z" fill="url(#I)" fill-rule="evenodd"/><path clip-rule="evenodd" d="m452.042 321.385c-4.487-1.776-7.801 5.872-11.234 11.188-3.433 5.315-12.326 4.412-13.552 0-4.641-9.665-8.64-22.804-3.225-23.882.763-13.968 37.277-10.67 28.011 12.694z" fill="#9e5229" fill-rule="evenodd"/><path clip-rule="evenodd" d="m427.018 303.156h7.913.111l.075.083c7.029 7.856 8.603 19.425 5.318 29.86-.254.328-.53.628-.826.902 3.679-10.53 2.27-22.383-4.791-30.345h-8.388c.187-.173.383-.34.588-.5z" fill="#000" fill-opacity=".199355" fill-rule="evenodd"/><ellipse fill="#fb9934" rx="4.4008" ry="4.40615" transform="matrix(-1 0 0 1 431.867 303.406)"/><path clip-rule="evenodd" d="m455.71 350.001c4.08 5.986 10.881 26.302 11.267 30.872.434 5.272-5.226 13.671-5.319 21.303-.082 7.633 4.222 26.739 2.929 28.886-1.284 2.147-43.897 14.559-46.297 13.539-2.401-1.02-10.688-12.02-8.794-16.49 1.904-4.471 9.77-14.611 8.869-20.703-.889-6.09-6.057-28.572-8.623-36.224-2.556-7.652-1.704-15.685 3.066-18.978 2.361-1.629 8.659-6.258 19.875-6.236 11.216.021 22.71 3.567 23.027 4.031z" fill="#ff9f43" fill-rule="evenodd"/><path clip-rule="evenodd" d="m464.857 375.966-19.555-14.05.006 2.567c.072 15.847 1.07 24.242 17.667 50.212l-.384-2.647c-.541-3.842-.96-7.44-.933-9.872.058-4.815 2.333-9.935 3.895-14.383z" fill="#000" fill-opacity=".159856" fill-rule="evenodd"/><path clip-rule="evenodd" d="m443.045 345.532s.472 2.574-1.594 2.574c-2.067 0-15.927.456-17.804-.358-1.876-.814-1.313-2.216-1.313-2.216z" fill="#fff6e1" fill-rule="evenodd"/><path clip-rule="evenodd" d="m512.124 380.861s11.286-7.533 13.281-9.046c1.988-1.506 4.483-12.93 2.937-14.532-.747-.776-6.394 4.442-7.401 5.141-1 .692-6.121 3.776-6.121 3.776s1.449-8.744.202-9.449c-.923-.513-2.768 1.737-3.015 4.115-.247 2.379-2.813 5.481-3.145 9.09-.149 1.577-.733 3.621-.733 3.621l-31.316 13.448 3.277 14.623z" fill="url(#J)" fill-rule="evenodd"/><path clip-rule="evenodd" d="m444.908 366.415c4.324 8.985 11.67 22.119 15.704 29.82 4.774 9.114 10.463 12.975 21.937 6.212 1.343-.791 4.248-2.555 4.248-2.555l-7.104-15.772s-3.728 1.647-3.728 1.647-10.989-20.066-15.551-29.7c-5.804-12.245-23.876-7.038-15.506 10.348z" fill="#ffb66f" fill-rule="evenodd"/><path clip-rule="evenodd" d="m475.964 385.768s2.009 7.074 2.484 6.795c.474-.28-.333-7.81-.333-7.81z" fill="#000" fill-opacity=".159856" fill-rule="evenodd"/><path clip-rule="evenodd" d="m479.591 383.423 4.948 19.635 7.361-3.981-9.66-17.183z" fill="#ffedc2" fill-rule="evenodd"/><path clip-rule="evenodd" d="m432.339 300.15s-4.148-5.31-8.938-3.917c-4.791 1.393-9.124 9.932-7.067 17.958 2.047 8.028.359 12.606-2.124 18.016-6.672 14.553 16.426 23.793 16.426 23.793s-1.802-10.783 1.703-17.295c3.611-6.706 5.661-15.306 5.661-20.568 0-9.151-5.661-17.987-5.661-17.987z" fill="#9e5229" fill-rule="evenodd"/><path clip-rule="evenodd" d="m431.657 463.221 11.443 80.958-6-.079-11.443-80.033z" fill="#91d6ff" fill-rule="evenodd"/><path clip-rule="evenodd" d="m464.955 463.221 11.443 80.958-5.999-.079-11.443-80.033z" fill="#91d6ff" fill-rule="evenodd"/><path clip-rule="evenodd" d="m391.91 463.221-11.443 80.958 5.999-.079 11.443-80.033z" fill="#bfe7ff" fill-rule="evenodd"/><path clip-rule="evenodd" d="m469.332 467.983c5.217 0 9.445-4.229 9.445-9.445 0-5.217-4.228-9.445-9.445-9.445h-37.762c-5.722 0-10.504-4.354-11.039-10.05l-6.038-64.193c-.536-5.697-5.318-10.05-11.04-10.05h-23.7c-6.458 0-11.55 5.498-11.055 11.938l6.224 81.006c.444 5.778 5.261 10.239 11.056 10.239z" fill="#bfe7ff" fill-rule="evenodd"/><path clip-rule="evenodd" d="m478.776 458.457c-.052.001-.104.001-.157.001h-51.983c-5.793 0-10.61-4.46-11.055-10.236l-6.307-81.859c2.944 1.758 5.018 4.847 5.361 8.484l6.033 63.959c.537 5.695 5.318 10.047 11.039 10.047h37.65c5.203 0 9.42 4.218 9.42 9.421 0 .061 0 .122-.001.183z" fill="#91d6ff" fill-rule="evenodd"/></svg>