<svg height="482" viewBox="0 0 546 482" width="546" xmlns="http://www.w3.org/2000/svg" xmlns:xlink="http://www.w3.org/1999/xlink"><defs><filter id="a" height="114.5%" width="114.5%" x="-7.2%" y="-7.3%"><feGaussianBlur in="SourceGraphic" stdDeviation="2"/></filter><filter id="b" height="131%" width="130.8%" x="-15.4%" y="-15.5%"><feGaussianBlur in="SourceGraphic" stdDeviation="3"/></filter><path id="c" d="m18.522 0h21.2907561c1.6227673 0 2.951373 1.29038864 2.9987227 2.91246493l.0605973 2.07590394c.0810989 2.77823598 2.3566887 4.98836887 5.1361081 4.98836887h74.8894778c2.77942 0 5.05501-2.21013289 5.136109-4.98836887l.060597-2.07590394c.04735-1.62207629 1.375955-2.91246493 2.998723-2.91246493h21.290756c10.229418 0 18.522 8.29258186 18.522 18.522v325.160103c0 10.229418-8.292582 18.522-18.522 18.522h-133.861847c-10.22941814 0-18.522-8.292582-18.522-18.522v-325.160103c0-10.22941814 8.29258186-18.522 18.522-18.522z"/><linearGradient id="d" x1="50%" x2="50%" y1="81.176763%" y2="-34.513079%"><stop offset="0" stop-color="#ff8c19"/><stop offset="1" stop-color="#ffc967"/></linearGradient><linearGradient id="e" x1="62.110065%" x2="62.110065%" y1="31.380909%" y2="-27.477988%"><stop offset="0" stop-color="#f8fdff"/><stop offset="1" stop-color="#aad4ff"/></linearGradient><path id="f" d="m19.6902887 3.56910623v14.27642487c0 1.5168702-1.163517 2.6768297-2.6850394 2.6768297h-4.4750656c-.5370078 0-.8950131-.3569106-.8950131-.8922766 0-.5353659.3580053-.8922765.8950131-.8922765h4.4750656c.5370079 0 .8950132-.3569106.8950132-.8922766v-14.27642487c0-.53536594-.3580053-.89227656-.8950132-.89227656h-4.4750656c-.5370078 0-.8950131-.35691062-.8950131-.89227656 0-.53536593.3580053-.89227655.8950131-.89227655h4.4750656c1.5215224 0 2.6850394 1.15995952 2.6850394 2.67682967zm-5.45958 7.49512307c.0895013-.1784553.0895013-.4461383 0-.7138212-.0895014-.0892277-.0895014-.1784554-.1790027-.267683l-3.5800525-3.56910624c-.3580052-.35691062-.89501308-.35691062-1.25301833 0-.35800525.35691063-.35800525.89227656 0 1.24918718l2.05853023 2.05223608h-8.59212603c-.53700787 0-.89501312.35691058-.89501312.89227658 0 .5353659.35800525.8922765.89501312.8922765h8.59212603l-2.05853023 2.0522361c-.35800525.3569106-.35800525.8922766 0 1.2491872.17900263.1784553.44750656.267683.62650919.267683.17900264 0 .44750654-.0892277.62650914-.267683l3.5800525-3.5691062c.0895013-.0892277.1790027-.1784553.1790027-.267683z"/><path id="g" d="m19.8394576 10.4098932h-1.044182v-3.12296799c0-3.43526474-2.8192913-6.24593589-6.2650919-6.24593589-3.4458005 0-6.26509184 2.81067115-6.26509184 6.24593589v3.12296799h-1.04418197c-1.77510937 0-3.13254594 1.3532861-3.13254594 3.1229679v7.2869252c0 1.7696819 1.35743657 3.122968 3.13254594 3.122968h14.61854771c1.7751093 0 3.1325459-1.3532861 3.1325459-3.122968v-7.2869252c0-1.7696818-1.3574366-3.1229679-3.1325459-3.1229679zm-11.48600178-3.12296799c0-2.29017649 1.87952758-4.16395726 4.17672788-4.16395726 2.2972004 0 4.1767279 1.87378077 4.1767279 4.16395726v3.12296799h-8.35345578zm12.53018368 13.53286109c0 .6245936-.4176727 1.0409893-1.0441819 1.0409893h-14.61854771c-.62650919 0-1.04418198-.4163957-1.04418198-1.0409893v-7.2869252c0-.6245936.41767279-1.0409893 1.04418198-1.0409893h14.61854771c.6265092 0 1.0441819.4163957 1.0441819 1.0409893z"/><path id="h" d="m6 0h50.2998321c3.3137085 0 6 2.6862915 6 6v39.697641c0 3.3137085-2.6862915 6-6 6h-50.2998321c-3.3137085 0-6-2.6862915-6-6v-39.697641c0-3.3137085 2.6862915-6 6-6z"/><path id="i" d="m10.0399535 0h89.3910167c5.5072818 0 9.9779608 4.45288786 9.9999208 9.96012632l.469956 117.86037568c.022022 5.522804-4.437243 10.017773-9.9600467 10.039795-.0132911.000053-.0265824.000079-.0398737.000079h-89.3910167c-5.50728224 0-9.97796094-4.452888-9.9999205-9.960126l-.46995641-117.8603763c-.02202163-5.52280362 4.43724323-10.01777258 9.96004681-10.0397942.0132912-.000053.0265824-.0000795.0398737-.0000795z"/><filter id="j" height="167.5%" width="184.5%" x="-35%" y="-27.2%"><feOffset dx="8" dy="9" in="SourceAlpha" result="shadowOffsetOuter1"/><feGaussianBlur in="shadowOffsetOuter1" result="shadowBlurOuter1" stdDeviation="14"/><feColorMatrix in="shadowBlurOuter1" result="shadowMatrixOuter1" type="matrix" values="0 0 0 0 0.0755212756   0 0 0 0 0.582569014   0 0 0 0 0.878793025  0 0 0 0.229458042 0"/><feOffset dx="0" dy="2" in="SourceAlpha" result="shadowOffsetOuter2"/><feGaussianBlur in="shadowOffsetOuter2" result="shadowBlurOuter2" stdDeviation="7.5"/><feColorMatrix in="shadowBlurOuter2" result="shadowMatrixOuter2" type="matrix" values="0 0 0 0 0.50398247   0 0 0 0 0.700178215   0 0 0 0 1  0 0 0 0.233828671 0"/><feMerge><feMergeNode in="shadowMatrixOuter1"/><feMergeNode in="shadowMatrixOuter2"/></feMerge></filter><ellipse id="k" cx="21.140681" cy="21.393518" rx="21.140681" ry="21.393518"/><filter id="l" height="317.4%" width="320%" x="-91.1%" y="-87.6%"><feOffset dx="8" dy="9" in="SourceAlpha" result="shadowOffsetOuter1"/><feGaussianBlur in="shadowOffsetOuter1" result="shadowBlurOuter1" stdDeviation="14"/><feColorMatrix in="shadowBlurOuter1" result="shadowMatrixOuter1" type="matrix" values="0 0 0 0 0.0755212756   0 0 0 0 0.582569014   0 0 0 0 0.878793025  0 0 0 0.229458042 0"/><feOffset dx="0" dy="2" in="SourceAlpha" result="shadowOffsetOuter2"/><feGaussianBlur in="shadowOffsetOuter2" result="shadowBlurOuter2" stdDeviation="7.5"/><feColorMatrix in="shadowBlurOuter2" result="shadowMatrixOuter2" type="matrix" values="0 0 0 0 0.50398247   0 0 0 0 0.700178215   0 0 0 0 1  0 0 0 0.233828671 0"/><feMerge><feMergeNode in="shadowMatrixOuter1"/><feMergeNode in="shadowMatrixOuter2"/></feMerge></filter><linearGradient id="m"><stop offset="0" stop-color="#fdc6c6"/><stop offset="1" stop-color="#ffcca1"/></linearGradient><linearGradient id="n" x1="47.237279%" x2="50%" xlink:href="#m" y1="-28.185925%" y2="91.050481%"/><linearGradient id="o"><stop offset="0" stop-color="#fdc6c6"/><stop offset="1" stop-color="#fab2b2"/></linearGradient><linearGradient id="p" x1="45.729794%" x2="50%" xlink:href="#o" y1="-28.185925%" y2="91.050481%"/><linearGradient id="q" x1="44.538511%" x2="50%" xlink:href="#o" y1="-28.185925%" y2="91.050481%"/><linearGradient id="r" x1="44.054883%" x2="50%" xlink:href="#m" y1="-28.185925%" y2="91.050481%"/><linearGradient id="s" x1="47.831349%" x2="50%" xlink:href="#m" y1="-28.185925%" y2="91.050481%"/><mask id="t" fill="#fff"><use fill="#fff" fill-rule="evenodd" xlink:href="#c"/></mask><mask id="u" fill="#fff"><use fill="#fff" fill-rule="evenodd" xlink:href="#f"/></mask><mask id="v" fill="#fff"><use fill="#fff" fill-rule="evenodd" xlink:href="#g"/></mask><mask id="w" fill="#fff"><use fill="#fff" fill-rule="evenodd" xlink:href="#h"/></mask></defs><g fill="none" fill-rule="evenodd"><g transform="translate(6)"><path d="m393.597973 0c80.855607 0 146.402027 65.2590662 146.402027 145.760204 0 80.501138-65.54642 145.760204-146.402027 145.760204s-146.402027-65.259066-146.402027-145.760204c0-80.5011378 65.54642-145.760204 146.402027-145.760204zm0 54.4897959c-50.629212 0-91.672297 40.8631536-91.672297 91.2704081 0 50.407255 41.043085 91.270408 91.672297 91.270408s91.672297-40.863153 91.672297-91.270408c0-50.4072545-41.043085-91.2704081-91.672297-91.2704081z" fill="#7367f0" fill-rule="nonzero" opacity=".052827"/><path d="m41.5033784 189.806122c22.9216829 0 41.5033784 18.500234 41.5033784 41.321429s-18.5816955 41.321429-41.5033784 41.321429c-22.921683 0-41.5033784-18.500234-41.5033784-41.321429s18.5816954-41.321429 41.5033784-41.321429zm0 27.244898c-7.8084854 0-14.1385135 6.302278-14.1385135 14.076531s6.3300281 14.076531 14.1385135 14.076531 14.1385135-6.302278 14.1385135-14.076531-6.3300281-14.076531-14.1385135-14.076531z" fill="#8bf78f" fill-rule="nonzero" filter="url(#a)" opacity=".14102"/><ellipse cx="169.662162" cy="363.265306" fill="#7367f0" fill-opacity=".061216" rx="82.094595" ry="81.734694"/><ellipse cx="142.297297" cy="77.193878" fill="#cef5ff" opacity=".14102" rx="29.189189" ry="29.061225"/><ellipse cx="486.182432" cy="363.265306" fill="#7367f0" fill-opacity=".135927" filter="url(#b)" rx="29.189189" ry="29.061225"/></g><g transform="translate(174.886614 100)"><path d="m25.137 0h134.570976c13.882782 0 25.137 11.2542182 25.137 25.137v329.503673c0 13.882782-11.254218 25.137-25.137 25.137h-134.570976c-13.8827818 0-25.137-11.254218-25.137-25.137v-329.503673c0-13.8827818 11.2542182-25.137 25.137-25.137z" fill="#c4e3e7"/><g transform="translate(6.66654 7.653065)"><use fill="#fff" xlink:href="#c"/><ellipse cx="64.795032" cy="220.451439" fill="#7367f0" mask="url(#t)" opacity=".098772" rx="14.658784" ry="14.511619"/><path d="m152.518693 205.93982c39.087644 0 70.774441 31.368681 70.774441 70.063909s-31.686797 70.063908-70.774441 70.063908c-39.087645 0-70.774442-31.36868-70.774442-70.063908s31.686797-70.063909 70.774442-70.063909zm0 30.610446c-22.010519 0-39.853569 17.663917-39.853569 39.453463s17.84305 39.453463 39.853569 39.453463c22.010518 0 39.853569-17.663917 39.853569-39.453463s-17.843051-39.453463-39.853569-39.453463z" fill="#c8f5d0" mask="url(#t)" opacity=".14102"/><path d="m25.5803047 62.1840994h121.0315453c2.629773 0 4.761625 2.131852 4.761625 4.7616248s-2.131852 4.7616248-4.761625 4.7616248h-121.0315453c-2.6297727 0-4.7616248-2.131852-4.7616248-4.7616248s2.1318521-4.7616248 4.7616248-4.7616248z" fill="#68de9e" fill-opacity=".642073" mask="url(#t)"/></g><g fill="#56cdd9" fill-rule="nonzero"><path d="m102.441789 6.64870702c1.581215 0 2.863043 1.21820118 2.863043 2.72092848 0 1.4693334-1.225491 2.6666457-2.758083 2.719134l-.10496.0017945h-32.37401c-1.5812154 0-2.8630438-1.2182012-2.8630438-2.7209285 0-1.46933336 1.2254912-2.66664569 2.7580837-2.71913398l.1049601-.0017945z"/><path d="m114.044131 6.19521895c1.581215 0 2.863044 1.26895955 2.863044 2.83430049 0 1.53055556-1.225491 2.77775596-2.758084 2.83243126l-.10496.0018692h-.150167c-1.581216 0-2.863044-1.2689595-2.863044-2.83430046 0-1.53055559 1.225491-2.77775593 2.758084-2.83243123l.10496-.00186926z"/></g></g><g transform="translate(186.796876 227.883638)"><path d="m4 .63996238h5.44506387c2.01699343 0 3.65208963 1.63509622 3.65208963 3.65208964v2.43281284c0 .67338798.5458888 1.2192768 1.2192768 1.2192768h41.1675315c2.209139 0 4 1.790861 4 4.00000004v34.4592951c0 2.209139-1.790861 4-4 4h-51.4839618c-2.209139 0-4-1.790861-4-4v-41.76347442c0-2.209139 1.790861-4 4-4z" fill="url(#d)"/><path d="m15.3003731 4.09575921h45.2294684c.673388 0 1.2192768.54588882 1.2192768 1.2192768 0 .06496084-.0051915.12981779-.0155249.19395149l-6.7898984 42.1412256c-.0952072.5908999-.6052311 1.0253253-1.2037519 1.0253253h-45.22946835c-.67338798 0-1.2192768-.5458888-1.2192768-1.2192768 0-.0649608.00519148-.1298178.01552486-.1939515l6.78989839-42.14122557c.0952073-.59089992.6052312-1.02532532 1.2037519-1.02532532z" fill="url(#e)"/><path d="m66.4448037 20.1880175-4.7762506 24.3185872c-.7369396 3.7521756-4.0261685 6.4582286-7.8500281 6.4582286h-48.95649329c-2.209139 0-4-1.790861-4-4 0-.2587825.02511301-.5169544.07498595-.7708857l4.77625062-24.3185872c.73693966-3.7521756 4.02616848-6.4582286 7.85002812-6.4582286h48.9564933c2.209139 0 4 1.790861 4 4 0 .2587826-.025113.5169544-.074986.7708857z" fill="#ffcc7b"/></g><g transform="translate(119 181.627854)"><path d="m6 0h27.3159524l10.6603997 10.8837139v34.8139271c0 3.3137085-2.6862915 6-6 6h-31.9763521c-3.3137085 0-6-2.6862915-6-6v-39.697641c0-3.3137085 2.6862915-6 6-6z" fill="#b7b1fb"/><g transform="translate(8.950131 16.522567)"><use fill="#000" fill-rule="nonzero" xlink:href="#f"/><g fill="#fff" mask="url(#u)"><path d="m0 0h21.480315v21.414637h-21.480315z"/></g></g><path d="m43.9763521 10.8837139h-7.6603997c-1.6568543 0-3-1.34314575-3-3v-7.8837139z" fill="#7367f0" fill-rule="nonzero" opacity=".33996"/></g><g transform="translate(138.239654 315.860326)"><path d="m6 0h50.2998321c3.3137085 0 6 2.6862915 6 6v39.697641c0 3.3137085-2.6862915 6-6 6h-50.2998321c-3.3137085 0-6-2.6862915-6-6v-39.697641c0-3.3137085 2.6862915-6 6-6z" fill="#6fd9e6"/><g transform="translate(17.900262 13.384148)"><use fill="#000" fill-rule="nonzero" xlink:href="#g"/><g fill="#fff" mask="url(#v)"><path d="m0 0h25.060368v24.983744h-25.060368z"/></g></g></g><g transform="translate(192.29392 150.790665)"><use fill="#baf3c4" fill-rule="nonzero" xlink:href="#h"/><ellipse cx="27.48522" cy="19.046499" fill="#fff" mask="url(#w)" rx="8.245566" ry="8.162785"/><ellipse cx="8.703653" cy="61.220891" fill="#28c76f" mask="url(#w)" rx="29.775655" ry="29.476725"/><ellipse cx="62.757919" cy="54.41857" fill="#69e09e" mask="url(#w)" rx="35.272699" ry="34.465094"/></g><g transform="translate(274.74958 129.930213)"><use fill="#000" filter="url(#j)" xlink:href="#i"/><use fill="#fff" fill-rule="evenodd" xlink:href="#i"/><path d="m37.5355405 85.2557589h34.8697991c1.5027273 0 2.7209285 1.2182012 2.7209285 2.7209285s-1.2182012 2.7209284-2.7209285 2.7209284h-34.8697991c-1.5027273 0-2.7209285-1.2182011-2.7209285-2.7209284s1.2182012-2.7209285 2.7209285-2.7209285z" fill="#7367f0" fill-rule="nonzero" opacity=".33996"/><path d="m28.3738005 99.7673774h53.1932791c1.5027273 0 2.7209285 1.2182016 2.7209285 2.7209286s-1.2182012 2.720928-2.7209285 2.720928h-53.1932791c-1.5027273 0-2.7209285-1.218201-2.7209285-2.720928s1.2182012-2.7209286 2.7209285-2.7209286z" fill="#7367f0" fill-rule="nonzero" opacity=".33996"/><g transform="translate(33.898438 22.674404)"><use fill="#000" filter="url(#l)" xlink:href="#k"/><use fill="#fff" fill-rule="evenodd" xlink:href="#k"/></g><path d="m12.9643112 12.2230749c2.4639671 0 4.4614072 1.99744 4.4614072 4.4614072v3.1496763c0 .724449-.5872819 1.3117309-1.3117309 1.3117309h-14.80225667c-.72444893 0-1.31173083-.5872819-1.31173083-1.3117309v-3.1496763c0-2.4639672 1.99744004-4.4614072 4.4614072-4.4614072zm-4.25145202-12.2230749c2.98674572 0 5.40798152 2.39692805 5.40798152 5.35368864s-2.4212358 5.35368866-5.40798152 5.35368866c-2.98674574 0-5.40798156-2.39692807-5.40798156-5.35368866s2.42123582-5.35368864 5.40798156-5.35368864z" fill="#7367f0" transform="translate(46.724874 32.651142)"/></g><g transform="translate(420.992151 215.512693)"><path d="m13.5891936 69.9310316s-9.73059109 10.5328342-9.05409097 11.4815397c.67716459.9549489 5.71909107-1.5950152 5.71909107-1.5950152s-5.9067095 10.8482955-4.54244207 11.5906135c1.3635998.7423184 8.05028537-1.2340486 10.01695077-3.5077472 1.9673331-2.2736989 4.6223822-13.3831253 4.6223822-13.3831253l14.118025-29.6323213-11.4804371-3.3016233z" fill="url(#n)" transform="matrix(.99874879 .05000849 -.05000849 .99874879 3.353704 -.891129)"/><path d="m2.96635485 16.2288314c4.30241753 6.6181129 18.78548935 25.4790187 18.78548935 25.4790187s-.3517745 1.2542949-1.0553236 3.7628845l13.3097689 9.0329051c2.5207491-6.8937496 3.8904898-10.8255579 4.1092223-11.795425 1.0820677-4.798825-20.7841946-35.42325055-25.6801605-39.84830042-7.7091264-6.96789394-16.04434862 3.2551268-9.46899645 13.36891712z" fill="#fd8715"/><path d="m25.2135683 46.7147004c.1654883-.3195862-.9812382-2.0111085-3.4401797-5.074567l-.6249397 2.2346814c2.5445914 2.2128432 3.8996312 3.1594718 4.0651194 2.8398856z" fill="#000" fill-opacity=".159856"/><path d="m20.613915 44.208183 14.1403669 10.6898174-3.1509238 6.9134878-12.3637041-13.6138572z" fill="#ffedc2"/></g><g transform="translate(397.208623 274.603253)"><path d="m35.4715016 179.674227-.7853686 13.247626 10.0680723.259552-1.8923642-13.507178z" fill="url(#p)"/><path d="m35.7177371 184.893202s.282551 7.977831-1.386266 10.76319c-1.6794127 2.78536-2.1883555 4.944746-2.2625252 6.610457-.0794675 1.785578.0909461 3.403342.0909461 3.403342h16.664167s.4171137-8.393371-.6866012-9.976507c-1.103715-1.582247-1.8277521-1.609772-1.8277521-3.008223-.0088297-1.398452-.2472321-7.739873-.2472321-7.739873z" fill="#391b0b" transform="matrix(-1 0 0 1 80.94918 0)"/><path d="m0 2.8106518 26.1179377-2.8106518.384011.35301849c1.8614742 1.75584138 9.9510495 9.91021131 12.2754738 21.05585261 4.3883303 21.0420948-1.4848461 59.9054564-1.3549355 68.4273831.1240056 8.5219267 4.1918668 13.6637888 5.8823024 25.7130928 1.6904355 12.049304 1.850063 65.899364 1.850063 65.899364-4.481916 2.629416-8.4255798 2.817649-13.76963-.157835z" fill="#4e3319"/><path d="m23.3301274 135.481285-23.3301274-132.6706332 14.5216393-1.56285916c.6470192 46.08947476 9.6778322 108.38988736 8.8084881 134.23349236z" fill="#fff" fill-opacity=".192499"/></g><g transform="translate(374.927108 278.253938)"><path d="m27.6314708 174.6305-8.5859103.13796c.3763791 5.881612-.5358496 9.818614-2.7366862 11.811004l-.1803975.156405c-3.9858938 3.306937 11.3907985 2.113236 11.3907985 2.113236z" fill="url(#q)"/><path d="m.60161252 181.507638.24707675 20.504573 6.11360983.004463.05294502-5.052541s1.92828783 4.710593 4.87556048 4.982856c2.9560967.272263 16.1275026.105335 16.1275026.105335s1.094197-4.730232-5.462161-6.877984c-5.4533367-1.78533-11.4833029-13.666702-11.4833029-13.666702z" fill="#391b0b" transform="matrix(-1 0 0 1 28.688446 0)"/><path d="m9.32588481.98383885 29.32812549-.98383885.2191373.40164097c1.4230884 2.67203024 9.2207841 18.31685843 6.8129863 36.09942983-3.3796879 24.9603781-11.9711112 54.2218157-12.3917415 58.691905-.7499385 7.9696882.7499385 13.7404052 1.3649561 21.9720822.6150176 8.231676-2.3451907 60.003098-2.3451907 60.003098-4.3520054 2.591419-9.5307148 3.099998-16.1148207.078333-3.9624908-46.880838-5.9583742-74.030876-5.98765-81.4501131-.0439139-11.1288561-.88580229-94.81253705-.88580229-94.81253705z" fill="#604021"/><path d="m15.3607105 27.9815014-.1945952 1.8493611c-1.9545389 19.5010559-1.9397348 60.9141559-1.1828722 67.3010353l.1038625.8231783c.8394625 7.2071029.8666825 25.5042849.0816601 54.8915479l-1.0218357-12.681046c-1.9363839-24.401275-2.9148099-39.190969-2.9352429-44.3692021l-.0354736-5.3590631c-.1683991-21.6696924-.85032869-89.45347395-.85032869-89.45347395l6.18520849-.2072646c.6611011 10.70006245.6109735 19.76837155-.1503828 27.20492715z" fill="#fff" fill-opacity=".192499"/></g><g transform="translate(392.815725 166.543156)"><path d="m2.62056446 20.2649112c-3.60868771.3908376-3.35284791 6.6714332 1.04005611 6.9993529.89786305 6.0545176 4.09990013 8.9391446 8.00374623 9.2729296l-.2165213 9.1577577 17.26784-.0101308s-4.862572-6.4693494-4.6201975-15.3258476c.2423745-8.8570313-.1626603-17.1771275-.1626603-17.1771275l-22.36578461.397236z" fill="url(#r)"/><path d="m29.105043 20.7354669c-4.2030294-1.6454414-7.3078331 5.4389611-10.5237645 10.3628275-3.2159314 4.9238663-11.5478842 4.0872618-12.69622539 0-4.34753101-8.9520569-8.0941252-21.12272407-3.02073381-22.1216391.71412844-12.93817649 34.9216861-9.88363146 26.2407237 11.7588116z" fill="#8b5030" transform="matrix(-1 0 0 1 30.940306 0)"/><path d="m25.5641294 4.08017839c1.4644454 1.23229567 2.3998821 2.86778945 2.5118564 4.89647691 5.0733914.99891503 1.3267972 13.1695822-3.0207338 22.1216391-1.0678684 3.800837-8.3478081 4.7906486-11.9489937.9511529-3.28410229-9.7402488-1.8811572-20.6306767 4.7591347-27.96805459z" fill="#000" fill-opacity=".199355"/><ellipse cx="20.734217" cy="4.081393" fill="#fb9934" rx="4.122783" ry="4.081393"/></g><g transform="translate(380.245996 209.331189)"><path d="m44.7301049 4.68057864c3.852422 5.60248776 10.2729869 24.61712696 10.6371397 28.89481046.4102828 4.934322-4.9331627 12.7945966-5.0210804 19.9377355-.0781491 7.1441119 3.9856047 28.6542915 2.7645248 30.6636338-1.2113112 2.0093423-35.9444636 10.905475-38.2107878 10.8577957-2.2565556-.0486523-16.50335871-12.1568136-14.71569779-16.3409162 1.79742956-4.1841026 10.13984719-14.5820841 9.2899756-20.2831672-.84010294-5.70011-5.71880987-26.7422539-8.14143232-33.9038807-2.41285381-7.1616268-1.60829095-14.68055439 2.89505159-17.76219461 2.22827706-1.52481144 8.17428792-5.85681179 18.76307312-5.83741923 10.5887852.02032613 21.4404818 3.3391348 21.7392335 3.77360248z" fill="#fd8715" transform="matrix(-1 0 0 1 55.389714 0)"/><path d="m22.6155997.49769986c-.2970847 1.6061451.2046356 2.40921765 1.5051609 2.40921765 1.9507879 0 15.0357034.4265993 16.8076982-.33518894 1.1813299-.50785883 1.5947617-1.19920173 1.2402953-2.07402871z" fill="#fff6e1"/><path d="m5.06823071 16.7976574.11857979-.0591671c7.1346643-3.5258176 11.4202438-3.6815549 12.8567385-.4672118 1.8569355 4.155134-2.9585584 14.1392324-14.44648188 29.9522951-1.57790845-4.7957895-3.8473119-9.3683603-3.57459853-12.6481845.21074223-2.4755775 2.44987318-9.886796 5.04576212-16.7777317z" fill="#000" fill-opacity=".159856"/></g><g transform="translate(329.72002 187.403607)"><path d="m8.00117015 27.046029s-1.28529436-2.7620613-3.30569489-3.5093759c-2.0198264-.7473147-5.10963718-5.6971547-4.63195226-7.1345598.47768492-1.437405 4.65685386-5.4238385 4.65685386-5.4238385s-3.69459433-9.81537443-2.05829381-10.92303184c1.44568586-.9790445 6.916671 11.38422524 6.916671 11.38422524s3.21633525.4798904 3.95869895 1.743923c1.8705499 3.1864273.456596 10.3532819.456596 10.3532819l18.988215 27.4684894-8.7127624 11.0593486z" fill="url(#s)"/><path d="m56.4730007 29.1759665c-6.4218483 5.6476839-22.1293349 20.6312152-22.1293349 20.6312152s-.7779325-1.18003-2.3337976-3.54009l-11.7468161 11.9082031c5.9074812 8.6743057 9.8230866 13.0417607 11.7468161 13.1023651 7.5184585.236742 20.9896359-13.8158173 33.6545139-24.7885973 11.3555169-9.8386577 2.7792282-27.8406518-9.1913814-17.3130961z" fill="#fd8715"/><path d="m34.3905249 49.8247774c-2.9375641 3.3633712-4.5275411 4.861671-4.7699311 4.4948995-.24239-.3667716.865531-2.5944928 3.323763-6.6831637z" fill="#000" fill-opacity=".159856"/><path d="m33.4161859 47.0691779-13.6239782 14.9953132-4.1975613-8.5574435 15.229601-9.4611526z" fill="#ffedc2"/></g><path d="m95.827808 3.88785188s-3.8578052-4.97475264-8.3126408-3.66959798c-4.4548357 1.30515465-8.4844809 9.30555791-6.5711242 16.8257811 1.9036933 7.5211973.3337693 11.8109669-1.9757875 16.8796422-6.2039143 13.6349702 15.2756534 22.2923627 15.2756534 22.2923627-1.1173015-6.7355918-.5893352-12.1369905 1.5838991-16.2041963 3.3572623-6.283113 5.263932-14.3403921 5.263932-19.270984 0-8.5741572-5.263932-16.85300772-5.263932-16.85300772z" fill="#8b5030" transform="matrix(-1 0 0 1 508.655098 163.488331)"/><g transform="translate(364.534632 106.348833)"><path d="m0 6.44541945c15.5212214-8.853982 31.2546269-8.32980771 47.1646376 0l-1.0034954 11.06343325c-1.3686843 15.0896039-9.7247278 28.6675356-22.5788234 36.6888615-13.4108481-7.9657267-22.00901791-22.0534477-22.96216542-37.6224925z" fill="#28c76f"/><ellipse cx="23.582319" cy="24.406728" fill="#1ca258" rx="12.863083" ry="12.733945"/><g fill="#fff" transform="translate(13.935007 14.856269)"><path d="m9.46378465.504052c4.09103205 0 7.63228425 2.73002465 8.65984405 6.57932797.0794091.29747143-.0998109.6023472-.4002991.68095907-.3004881.07861188-.6084557-.09880886-.6878648-.3962803-.8976738-3.36274233-3.9940288-5.74978653-7.57168015-5.74978653-4.32428883 0-7.82910119 3.45754986-7.82910119 7.72150213 0 2.40685846.79710688 4.57055846 2.40146406 6.51122066.19684501.2381076.16143756.5891043-.07908476.7839731-.24052231.1948688-.59507858.1598168-.79192358-.0782908-1.76726918-2.1377237-2.65597548-4.5500649-2.65597548-7.21690296 0-4.88019044 4.0096015-8.83572234 8.95462095-8.83572234z"/><path d="m9.94064035 2.894597c3.36472195.01043515 6.10453595 2.61540561 6.21480915 5.90338235l.0034201.1868285c.0057316 1.83795935.5265289 2.84818485 1.5243844 3.17787775.2951117.0975053.4561567.4134021.3597039.7055752-.0964528.2921732-.4138786.4499826-.7089903.3524772-1.4872548-.491391-2.2412175-1.8741184-2.2962203-4.01521585l-.0031981-.22419263c-.00859-2.7545773-2.2782576-4.96259602-5.09043051-4.97129608-2.53150766-.00783177-4.68300305 2.30482554-4.97904663 4.89493691-.05764061.50430284-.07135651.97005015-.04224272 1.43344175l.03154718.4025825c.12435399 1.2793254.49595575 2.3345451 2.24696758 6.8852075.11095264.2883522-.03417102.6098895-.32414276.7181737s-.61498516-.0376897-.7259378-.3260418l-.93573706-2.4507381c-1.11524048-2.9631803-1.32028388-3.7692539-1.40884405-5.0747608l-.00599961-.0919256c-.03329605-.52995886-.01766305-1.06080493.04721239-1.6284058.35566106-3.11170998 2.93814556-5.88764048 6.09274514-5.8779067z" transform="matrix(.94551858 -.32556815 .32556815 .94551858 -2.867851 4.137124)"/><path d="m10.5420754 5.94833445c1.7429396.00540993 3.1822551 1.42971432 3.1326748 3.14964625-.0714305 2.4779112.737177 4.310817 2.4311644 5.5617658.2497913.1844619.3028116.5339637.1184243.7806341-.1843874.2466704-.5363587.2971004-.78615.1126385-2.0046097-1.4803322-2.9688259-3.665963-2.8873069-6.49384388.0311803-1.08163745-.8887338-1.99195745-2.0053283-1.99541187-1.18889393-.0036781-2.06542484.83101903-2.25418215 2.3217549-.09593744.75767865.15587193 1.92133605.71715387 3.51804735l.09640591.2701329c.08015424.2213865.16529519.4495187.25864175.6935711l1.02056082 2.5914169c.1100558.2886856-.0360721.6097702-.3263858.7171625-.29031381.1073924-.61487754-.0395748-.72493342-.3282604l-.81802918-2.0691717-.20264179-.5225283c-.0954036-.2494505-.18266472-.4832778-.26508384-.7109199l-.19487247-.5538447c-.55066997-1.6157157-.79384486-2.8237764-.67639006-3.75139121.2567099-2.02740048 1.58981011-3.29687646 3.36627806-3.29139834z" transform="matrix(.94551858 -.32556815 .32556815 .94551858 -3.130328 4.45323)"/><path d="m9.77536455 9.67985686c.29717535-.09011214.61187475.07532722.70290075.36951914.6066223 1.960576 1.7945623 3.351251 4.0287736 5.0120214.2485386.1847478.2987325.533973.1121111.7800164-.1866213.2460434-.5393881.2957333-.7879266.1109856-2.4070965-1.7892823-3.7400894-3.3497649-4.42912536-5.5766985-.09102598-.2941919.07609113-.6057319.37326651-.69584404z"/></g></g></g></svg>