<svg fill="none" height="484" viewBox="0 0 548 484" width="548" xmlns="http://www.w3.org/2000/svg" xmlns:xlink="http://www.w3.org/1999/xlink"><filter id="a" color-interpolation-filters="sRGB" filterUnits="userSpaceOnUse" height="93.8874" width="94.1873" x=".563437" y="185.223"><feFlood flood-opacity="0" result="BackgroundImageFix"/><feBlend in="SourceGraphic" in2="BackgroundImageFix" mode="normal" result="shape"/><feGaussianBlur result="effect1_foregroundBlur" stdDeviation="2.71828"/></filter><filter id="b" color-interpolation-filters="sRGB" filterUnits="userSpaceOnUse" height="74.6934" width="74.9043" x="456.531" y="327.551"><feFlood flood-opacity="0" result="BackgroundImageFix"/><feBlend in="SourceGraphic" in2="BackgroundImageFix" mode="normal" result="shape"/><feGaussianBlur result="effect1_foregroundBlur" stdDeviation="4.07742"/></filter><filter id="c" color-interpolation-filters="sRGB" filterUnits="userSpaceOnUse" height="194.222" width="166.183" x="256.246" y="112.009"><feFlood flood-opacity="0" result="BackgroundImageFix"/><feColorMatrix in="SourceAlpha" type="matrix" values="0 0 0 0 0 0 0 0 0 0 0 0 0 0 0 0 0 0 127 0"/><feOffset dx="8" dy="9"/><feGaussianBlur stdDeviation="14"/><feColorMatrix type="matrix" values="0 0 0 0 0.0862745 0 0 0 0 0.113725 0 0 0 0 0.192157 0 0 0 0.7 0"/><feBlend in2="BackgroundImageFix" mode="normal" result="effect1_dropShadow"/><feBlend in="SourceGraphic" in2="effect1_dropShadow" mode="normal" result="shape"/></filter><filter id="d" color-interpolation-filters="sRGB" filterUnits="userSpaceOnUse" height="98.8993" width="98.4054" x="290.204" y="134.743"><feFlood flood-opacity="0" result="BackgroundImageFix"/><feColorMatrix in="SourceAlpha" type="matrix" values="0 0 0 0 0 0 0 0 0 0 0 0 0 0 0 0 0 0 127 0"/><feOffset dx="8" dy="9"/><feGaussianBlur stdDeviation="14"/><feColorMatrix type="matrix" values="0 0 0 0 0.0755213 0 0 0 0 0.582569 0 0 0 0 0.878793 0 0 0 0.229458 0"/><feBlend in2="BackgroundImageFix" mode="normal" result="effect1_dropShadow"/><feColorMatrix in="SourceAlpha" type="matrix" values="0 0 0 0 0 0 0 0 0 0 0 0 0 0 0 0 0 0 127 0"/><feOffset dy="2"/><feGaussianBlur stdDeviation="7.5"/><feColorMatrix type="matrix" values="0 0 0 0 0.503982 0 0 0 0 0.700178 0 0 0 0 1 0 0 0 0.233829 0"/><feBlend in2="effect1_dropShadow" mode="normal" result="effect2_dropShadow"/><feBlend in="SourceGraphic" in2="effect2_dropShadow" mode="normal" result="shape"/></filter><linearGradient id="e" gradientUnits="userSpaceOnUse" x1="252.335" x2="252.335" y1="270.363" y2="212.641"><stop offset="0" stop-color="#ff8c19"/><stop offset="1" stop-color="#ffc967"/></linearGradient><linearGradient id="f" gradientUnits="userSpaceOnUse" x1="245.482" x2="245.482" y1="247.352" y2="221.044"><stop offset="0" stop-color="#f8fdff"/><stop offset="1" stop-color="#aad4ff"/></linearGradient><linearGradient id="g"><stop offset="0" stop-color="#fdc6c6"/><stop offset="1" stop-color="#ffcca1"/></linearGradient><linearGradient id="h" gradientUnits="userSpaceOnUse" x1="424.08" x2="427.481" xlink:href="#g" y1="245.344" y2="304.907"/><linearGradient id="i"><stop offset="0" stop-color="#fdc6c6"/><stop offset="1" stop-color="#fab2b2"/></linearGradient><linearGradient id="j" gradientUnits="userSpaceOnUse" x1="432.065" x2="433.457" xlink:href="#i" y1="452.911" y2="469.005"/><linearGradient id="k" gradientUnits="userSpaceOnUse" x1="390.081" x2="391.397" xlink:href="#i" y1="451.289" y2="468.509"/><linearGradient id="l" gradientUnits="userSpaceOnUse" x1="389.777" x2="392.621" xlink:href="#g" y1="172.999" y2="211.821"/><linearGradient id="m" gradientUnits="userSpaceOnUse" x1="325.63" x2="334.537" xlink:href="#g" y1="173.485" y2="246.91"/><mask id="n" height="364" maskUnits="userSpaceOnUse" width="173" x="182" y="108"><path clip-rule="evenodd" d="m182.737 127.195c0-10.229 8.293-18.522 18.522-18.522h23.105c.682 0 1.241.543 1.261 1.225.143 4.889 4.147 8.778 9.038 8.778h67.556c4.891 0 8.895-3.889 9.038-8.778.02-.682.578-1.225 1.261-1.225h23.104c10.23 0 18.522 8.293 18.522 18.522v326.111c0 10.229-8.292 18.522-18.522 18.522h-134.363c-10.229 0-18.522-8.293-18.522-18.522z" fill="#fff" fill-rule="evenodd"/></mask><mask id="o" height="20" maskUnits="userSpaceOnUse" width="19" x="130" y="200"><path clip-rule="evenodd" d="m146.031 219.984c1.526 0 2.693-1.163 2.693-2.684v-14.314c0-1.521-1.167-2.684-2.693-2.684h-4.488c-.538 0-.897.358-.897.895s.359.895.897.895h4.488c.539 0 .898.358.898.894v14.314c0 .537-.359.895-.898.895h-4.488c-.538 0-.897.358-.897.894 0 .537.359.895.897.895zm-2.782-10.199c.089.269.089.537 0 .716 0 .09-.09.179-.18.269l-3.59 3.578c-.18.179-.449.268-.629.268-.179 0-.449-.089-.628-.268-.359-.358-.359-.895 0-1.252l2.064-2.058h-8.617c-.538 0-.898-.358-.898-.895 0-.536.36-.894.898-.894h8.617l-2.064-2.058c-.359-.358-.359-.895 0-1.252.359-.358.898-.358 1.257 0l3.59 3.578c.045.045.067.09.09.134.022.045.045.09.09.134z" fill="#fff" fill-rule="evenodd"/></mask><mask id="p" height="24" maskUnits="userSpaceOnUse" width="22" x="159" y="331"><path clip-rule="evenodd" d="m177.147 341.283h-1.047v-3.131c0-3.444-2.828-6.262-6.284-6.262s-6.283 2.818-6.283 6.262v3.131h-1.048c-1.78 0-3.141 1.357-3.141 3.132v7.306c0 1.774 1.361 3.131 3.141 3.131h14.662c1.78 0 3.142-1.357 3.142-3.131v-7.306c0-1.775-1.362-3.132-3.142-3.132zm-11.52-3.131c0-2.296 1.885-4.175 4.189-4.175s4.189 1.879 4.189 4.175v3.131h-8.378zm11.52 14.612c.628 0 1.047-.417 1.047-1.043v-7.306c0-.627-.419-1.044-1.047-1.044h-14.662c-.628 0-1.047.417-1.047 1.044v7.306c0 .626.419 1.043 1.047 1.043z" fill="#fff" fill-rule="evenodd"/></mask><mask id="q" height="53" maskUnits="userSpaceOnUse" width="63" x="193" y="151"><path d="m193.509 157.924c0-3.314 2.686-6 6-6h50.482c3.314 0 6 2.686 6 6v39.833c0 3.314-2.686 6-6 6h-50.482c-3.314 0-6-2.686-6-6z" fill="#fff"/></mask><path clip-rule="evenodd" d="m548 146.415c0-80.8626-65.789-146.415-146.944-146.415s-146.945 65.5524-146.945 146.415c0 80.863 65.79 146.416 146.945 146.416s146.944-65.553 146.944-146.416zm-238.956 0c0-50.6335 41.195-91.6803 92.012-91.6803 50.816 0 92.011 41.0468 92.011 91.6803 0 50.634-41.195 91.681-92.011 91.681-50.817 0-92.012-41.047-92.012-91.681z" fill="#7367f0" fill-rule="evenodd" opacity=".052827"/><g filter="url(#a)" opacity=".14102"><path clip-rule="evenodd" d="m89.3142 232.166c0-22.923-18.6505-41.507-41.6571-41.507s-41.6571 18.584-41.6571 41.507c0 22.924 18.6505 41.507 41.6571 41.507s41.6571-18.583 41.6571-41.507zm-55.848 0c0-7.809 6.3535-14.139 14.1909-14.139s14.1909 6.33 14.1909 14.139c0 7.81-6.3535 14.14-14.1909 14.14s-14.1909-6.33-14.1909-14.14z" fill="#8bf78f" fill-rule="evenodd"/></g><ellipse cx="176.29" cy="364.898" fill="#7367f0" fill-opacity=".061216" rx="82.3987" ry="82.102"/><ellipse cx="148.825" cy="77.5407" fill="#cef5ff" opacity=".14102" rx="29.2973" ry="29.1918"/><g filter="url(#b)"><ellipse cx="493.983" cy="364.898" fill="#7367f0" fill-opacity=".135927" rx="29.2973" ry="29.1918"/></g><path clip-rule="evenodd" d="m176.051 126.137c0-13.883 11.254-25.137 25.137-25.137h135.113c13.883 0 25.137 11.254 25.137 25.137v330.5c0 13.883-11.254 25.137-25.137 25.137h-135.113c-13.883 0-25.137-11.254-25.137-25.137z" fill="#c4e3e7" fill-rule="evenodd"/><path clip-rule="evenodd" d="m182.737 127.195c0-10.229 8.293-18.522 18.522-18.522h23.105c.682 0 1.241.543 1.261 1.225.143 4.889 4.147 8.778 9.038 8.778h67.556c4.891 0 8.895-3.889 9.038-8.778.02-.682.578-1.225 1.261-1.225h23.104c10.23 0 18.522 8.293 18.522 18.522v326.111c0 10.229-8.292 18.522-18.522 18.522h-134.363c-10.229 0-18.522-8.293-18.522-18.522z" fill="#161d31" fill-rule="evenodd"/><g mask="url(#n)"><ellipse cx="247.722" cy="329.703" fill="#7367f0" opacity=".098772" rx="14.7018" ry="14.5497"/><g clip-rule="evenodd" fill-rule="evenodd"><path d="m335.704 315.153c39.202 0 70.982 31.451 70.982 70.248s-31.78 70.248-70.982 70.248c-39.203 0-70.982-31.451-70.982-70.248s31.779-70.248 70.982-70.248zm0 30.691c-22.075 0-39.971 17.711-39.971 39.557 0 21.847 17.896 39.557 39.971 39.557s39.97-17.71 39.97-39.557c0-21.846-17.895-39.557-39.97-39.557z" fill="#c8f5d0" opacity=".14102"/><path d="m203.617 175.795c0-2.637 2.138-4.774 4.774-4.774h121.39c2.636 0 4.774 2.137 4.774 4.774 0 2.636-2.138 4.774-4.774 4.774h-121.39c-2.636 0-4.774-2.138-4.774-4.774z" fill="#68de9e" fill-opacity=".642073"/></g></g><path d="m278.793 107.666c1.585 0 2.871 1.222 2.871 2.728 0 1.474-1.229 2.674-2.766 2.727l-.105.001h-32.469c-1.586 0-2.872-1.221-2.872-2.728 0-1.473 1.229-2.673 2.766-2.726l.106-.002z" fill="#56cdd9"/><path d="m290.429 107.211c1.586 0 2.872 1.273 2.872 2.842 0 1.535-1.229 2.785-2.766 2.84l-.106.002h-.15c-1.586 0-2.872-1.272-2.872-2.842 0-1.534 1.229-2.785 2.766-2.84l.106-.002z" fill="#56cdd9"/><path clip-rule="evenodd" d="m187.996 233.861c0-2.209 1.791-4 4-4h5.136c2.209 0 4 1.791 4 4v2.104c0 .673.546 1.219 1.219 1.219h41.303c2.21 0 4 1.791 4 4v34.571c0 2.209-1.79 4-4 4h-51.658c-2.209 0-4-1.791-4-4z" fill="url(#e)" fill-rule="evenodd"/><path clip-rule="evenodd" d="m202.134 234.351c.096-.591.606-1.025 1.204-1.025h45.369c.751 0 1.324.672 1.204 1.413l-6.811 42.258c-.095.591-.605 1.025-1.203 1.025h-45.37c-.751 0-1.323-.672-1.204-1.413z" fill="url(#f)" fill-rule="evenodd"/><path clip-rule="evenodd" d="m250.713 244.677c2.519 0 4.411 2.299 3.925 4.771l-4.796 24.412c-.737 3.752-4.026 6.458-7.85 6.458h-49.134c-2.518 0-4.41-2.3-3.925-4.771l4.797-24.412c.737-3.752 4.026-6.458 7.849-6.458z" fill="#ffcc7b" fill-rule="evenodd"/><path clip-rule="evenodd" d="m120 188.842c0-3.314 2.686-6 6-6h27.414l10.691 10.912v34.921c0 3.314-2.686 6-6 6h-32.105c-3.314 0-6-2.686-6-6z" fill="#b7b1fb" fill-rule="evenodd"/><path clip-rule="evenodd" d="m146.031 219.984c1.526 0 2.693-1.163 2.693-2.684v-14.314c0-1.521-1.167-2.684-2.693-2.684h-4.488c-.538 0-.897.358-.897.895s.359.895.897.895h4.488c.539 0 .898.358.898.894v14.314c0 .537-.359.895-.898.895h-4.488c-.538 0-.897.358-.897.894 0 .537.359.895.897.895zm-2.782-10.199c.089.269.089.537 0 .716 0 .09-.09.179-.18.269l-3.59 3.578c-.18.179-.449.268-.629.268-.179 0-.449-.089-.628-.268-.359-.358-.359-.895 0-1.252l2.064-2.058h-8.617c-.538 0-.898-.358-.898-.895 0-.536.36-.894.898-.894h8.617l-2.064-2.058c-.359-.358-.359-.895 0-1.252.359-.358.898-.358 1.257 0l3.59 3.578c.045.045.067.09.09.134.022.045.045.09.09.134z" fill="#000" fill-rule="evenodd"/><g mask="url(#o)"><path d="m128.977 199.408h21.5433v21.4708h-21.5433z" fill="#fff"/></g><path d="m164.106 193.754h-7.692c-1.657 0-3-1.343-3-3v-7.912z" fill="#7367f0" opacity=".33996"/><path clip-rule="evenodd" d="m139.296 323.427c0-3.314 2.686-6 6-6h50.482c3.314 0 6 2.686 6 6v39.833c0 3.314-2.686 6-6 6h-50.482c-3.314 0-6-2.686-6-6z" fill="#6fd9e6" fill-rule="evenodd"/><path clip-rule="evenodd" d="m177.147 341.283h-1.047v-3.131c0-3.444-2.828-6.262-6.284-6.262s-6.283 2.818-6.283 6.262v3.131h-1.048c-1.78 0-3.141 1.357-3.141 3.132v7.306c0 1.774 1.361 3.131 3.141 3.131h14.662c1.78 0 3.142-1.357 3.142-3.131v-7.306c0-1.775-1.362-3.132-3.142-3.132zm-11.52-3.131c0-2.296 1.885-4.175 4.189-4.175s4.189 1.879 4.189 4.175v3.131h-8.378zm11.52 14.612c.628 0 1.047-.417 1.047-1.043v-7.306c0-.627-.419-1.044-1.047-1.044h-14.662c-.628 0-1.047.417-1.047 1.044v7.306c0 .626.419 1.043 1.047 1.043z" fill="#000" fill-rule="evenodd"/><g mask="url(#p)"><path d="m157.249 330.846h25.1339v25.0493h-25.1339z" fill="#fff"/></g><path d="m193.509 157.924c0-3.314 2.686-6 6-6h50.482c3.314 0 6 2.686 6 6v39.833c0 3.314-2.686 6-6 6h-50.482c-3.314 0-6-2.686-6-6z" fill="#baf3c4"/><g mask="url(#q)"><ellipse cx="221.074" cy="171.021" fill="#fff" rx="8.26975" ry="8.18421"/><ellipse cx="202.238" cy="213.306" fill="#28c76f" rx="29.863" ry="29.5541"/><ellipse cx="256.45" cy="206.485" fill="#69e09e" rx="35.3761" ry="34.5556"/></g><g filter="url(#c)"><path clip-rule="evenodd" d="m276.246 141.049c-.022-5.539 4.462-10.04 10-10.04h89.712c5.507 0 9.978 4.453 10 9.96l.471 118.222c.022 5.538-4.461 10.04-10 10.04h-89.711c-5.508 0-9.978-4.453-10-9.96z" fill="#313a53" fill-rule="evenodd"/></g><path d="m311.123 219.216c0-1.506 1.221-2.728 2.728-2.728h34.974c1.507 0 2.728 1.222 2.728 2.728 0 1.507-1.221 2.728-2.728 2.728h-34.974c-1.507 0-2.728-1.221-2.728-2.728z" fill="#7367f0" opacity=".33996"/><path d="m301.935 233.766c0-1.507 1.221-2.728 2.728-2.728h53.351c1.506 0 2.728 1.221 2.728 2.728 0 1.507-1.222 2.728-2.728 2.728h-53.351c-1.507 0-2.728-1.221-2.728-2.728z" fill="#7367f0" opacity=".33996"/><g filter="url(#d)"><ellipse cx="331.407" cy="175.192" fill="#fff" rx="21.2027" ry="21.4497"/></g><g clip-rule="evenodd" fill-rule="evenodd"><path d="m331.807 174.481c2.995 0 5.424-2.403 5.424-5.368 0-2.964-2.429-5.367-5.424-5.367-2.996 0-5.424 2.403-5.424 5.367 0 2.965 2.428 5.368 5.424 5.368zm-.71 1.52c-4.434 0-8.029 3.594-8.029 8.028 0 .507.411.918.918.918h15.642c.506 0 .917-.411.917-.918 0-4.434-3.594-8.028-8.028-8.028z" fill="#7367f0"/><path d="m436.346 286.631s-10.275 10.059-9.645 11.043c.63.99 5.808-1.311 5.808-1.311s-6.46 10.567-5.131 11.379 8.126-.832 10.21-3.01 5.301-13.17 5.301-13.17l15.628-28.965-11.334-3.882z" fill="url(#h)"/><path d="m425.853 233.087c4.315 6.636 18.84 25.546 18.84 25.546l-1.058 3.773 13.349 9.057s3.792-10.368 4.121-11.827c1.085-4.811-20.845-35.516-25.755-39.953-7.732-6.986-16.092 3.264-9.497 13.404z" fill="#fd8715"/><path d="m448.166 263.653c.249-.48-3.45-5.088-3.45-5.088l-.627 2.241s3.828 3.328 4.077 2.847z" fill="#000" fill-opacity=".159856"/><path d="m443.552 261.14 14.182 10.718-3.16 6.932-12.4-13.65z" fill="#ffedc2"/><path d="m434.6 456.208-.788 13.282 10.098.26-1.898-13.542z" fill="url(#j)"/><path d="m444.389 461.44s-.284 7.999 1.39 10.792c1.684 2.792 2.195 4.957 2.269 6.627.08 1.791-.091 3.413-.091 3.413h-16.713s-.418-8.416.689-10.003c1.106-1.586 1.833-1.614 1.833-3.016.008-1.402.248-7.76.248-7.76z" fill="#391b0b"/><path d="m399.024 278.88 26.195-2.818.385.354c1.867 1.76 9.98 9.936 12.312 21.111 4.401 21.097-1.49 60.062-1.359 68.607.124 8.544 4.204 13.699 5.899 25.78 1.696 12.081 1.856 66.073 1.856 66.073-4.495 2.636-8.451 2.825-13.81-.159z" fill="#4e3319"/><path d="m422.423 411.899-23.399-133.019 14.565-1.567c.649 46.21 9.706 108.674 8.834 134.586z" fill="#fff" fill-opacity=".192499"/><path d="m404.39 454.811-8.611.138s.566 8.846-2.745 11.842l-.181.157c-3.997 3.315 11.424 2.119 11.424 2.119z" fill="url(#k)"/><path d="m404.847 461.706-.248 20.558-6.132.005-.053-5.066s-1.934 4.723-4.89 4.996c-2.964.273-16.174.105-16.174.105s-1.098-4.742 5.478-6.896c5.469-1.79 11.517-13.702 11.517-13.702z" fill="#391b0b"/><path d="m386.031 280.708 29.414-.986.22.402c1.427 2.68 9.248 18.365 6.833 36.195-3.389 25.026-12.006 54.364-12.428 58.846-.752 7.99.752 13.776 1.369 22.029.617 8.254-2.352 60.161-2.352 60.161-4.365 2.598-9.559 3.108-16.162.079 0 0-5.961-70.506-6.005-81.664s-.889-95.062-.889-95.062z" fill="#604021"/><path d="m392.084 307.777-.195 1.854c-1.961 19.552-1.946 61.074-1.187 67.478l.104.825c.842 7.226.87 25.571.082 55.036l-1.024-12.715c-1.943-24.465-2.924-39.294-2.944-44.485l-.036-5.374c-.169-21.726-.853-89.688-.853-89.688l6.204-.208c.663 10.729.612 19.821-.151 27.277z" fill="#fff" fill-opacity=".192499"/><path d="m397.247 188.036c-3.619.392-3.363 6.689 1.043 7.018.9 6.07 4.112 8.962 8.027 9.297l-.217 9.182 17.318-.01s-4.876-6.487-4.633-15.366c.243-8.881-.163-17.223-.163-17.223l-22.432.399z" fill="url(#l)"/><path d="m396.459 188.508c4.215-1.65 7.329 5.453 10.554 10.39 3.226 4.937 11.582 4.098 12.734 0 4.36-8.976 8.118-21.178 3.029-22.18-.716-12.972-35.024-9.909-26.317 11.79z" fill="#8b5030"/><path d="m419.947 171.56h-7.411-.111l-.075.082c-6.6 7.291-8.084 18.023-5.013 27.71.253.327.53.624.827.894-3.467-9.779-2.148-20.79 4.483-28.186h7.895c-.188-.174-.387-.341-.595-.5z" fill="#000" fill-opacity=".199355"/></g><ellipse cx="415.413" cy="171.81" fill="#fb9934" rx="4.13487" ry="4.0921"/><path clip-rule="evenodd" d="m392.702 215.311c-3.864 5.617-10.303 24.682-10.668 28.971-.412 4.947 4.947 12.828 5.036 19.99.078 7.163-3.998 28.729-2.773 30.744 1.215 2.015 36.05 10.934 38.323 10.886 2.263-.049 16.552-12.188 14.759-16.384-1.803-4.195-10.17-14.62-9.317-20.336.842-5.715 5.735-26.812 8.165-33.993 2.42-7.18 1.613-14.719-2.904-17.809-2.235-1.528-8.198-5.872-18.818-5.852s-21.503 3.347-21.803 3.783z" fill="#fd8715" fill-rule="evenodd"/><path clip-rule="evenodd" d="m404.693 211.117s-.446 2.416 1.51 2.416c1.957 0 15.08.427 16.857-.336 1.777-.764 1.244-2.08 1.244-2.08z" fill="#fff6e1" fill-rule="evenodd"/><path clip-rule="evenodd" d="m387.095 227.46.119-.059c7.155-3.536 11.453-3.692 12.894-.469 1.863 4.166-2.967 14.176-14.489 30.031-1.582-4.808-3.858-9.393-3.585-12.681.212-2.482 2.457-9.913 5.061-16.822z" fill="#000" fill-opacity=".159856" fill-rule="evenodd"/><path clip-rule="evenodd" d="m339.362 215.75s-1.289-2.769-3.315-3.519c-2.026-.749-5.125-5.712-4.646-7.153s4.671-5.438 4.671-5.438-3.706-9.841-2.065-10.952c1.45-.981 6.937 11.415 6.937 11.415s3.226.481 3.971 1.748c1.876 3.195.458 10.38.458 10.38l19.043 27.541-8.738 11.088z" fill="url(#m)" fill-rule="evenodd"/><path clip-rule="evenodd" d="m387.976 217.886c-6.44 5.662-22.194 20.685-22.194 20.685s-2.341-3.549-2.341-3.549l-11.781 11.939s8.887 13.046 11.781 13.137c7.541.237 21.052-13.852 33.754-24.854 11.388-9.864 2.787-27.914-9.219-17.358z" fill="#fd8715" fill-rule="evenodd"/><path clip-rule="evenodd" d="m365.829 238.589s-4.419 5.058-4.784 4.506c-.364-.551 3.334-6.7 3.334-6.7z" fill="#000" fill-opacity=".159856" fill-rule="evenodd"/><path clip-rule="evenodd" d="m364.852 235.826-13.664 15.035-4.209-8.58 15.274-9.486z" fill="#ffedc2" fill-rule="evenodd"/><path clip-rule="evenodd" d="m414.689 168.553s3.869-4.988 8.337-3.679c4.468 1.308 8.51 9.33 6.591 16.87-1.91 7.541-.335 11.842 1.981 16.924 6.222 13.671-15.32 22.351-15.32 22.351s1.681-10.13-1.589-16.247c-3.367-6.3-5.279-14.378-5.279-19.322 0-8.596 5.279-16.897 5.279-16.897z" fill="#8b5030" fill-rule="evenodd"/><path clip-rule="evenodd" d="m366.255 113.828c15.567-8.877 31.346-8.352 47.303 0l-1.006 11.087c-1.373 15.132-9.754 28.748-22.646 36.79-13.45-7.986-22.073-22.113-23.029-37.726z" fill="#28c76f" fill-rule="evenodd"/><ellipse cx="389.907" cy="131.836" fill="#1ca258" rx="12.9008" ry="12.7674"/><path clip-rule="evenodd" d="m389.722 122.766c4.103 0 7.655 2.737 8.685 6.597.08.298-.1.604-.401.682-.302.079-.61-.099-.69-.397-.9-3.371-4.006-5.765-7.594-5.765-4.337 0-7.852 3.467-7.852 7.742 0 2.413.799 4.583 2.409 6.528.197.239.161.591-.08.786-.241.196-.597.161-.794-.078-1.772-2.143-2.664-4.562-2.664-7.236 0-4.893 4.022-8.859 8.981-8.859z" fill="#fff" fill-rule="evenodd"/><path clip-rule="evenodd" d="m387.726 125.908c3.195-1.089 6.643.487 7.821 3.568l.065.176c.605 1.74 1.429 2.528 2.483 2.515.312-.004.567.243.571.551.004.309-.245.562-.557.566-1.571.019-2.737-1.045-3.488-3.057l-.077-.212c-.907-2.608-3.78-3.961-6.45-3.051-2.403.819-3.688 3.714-3.123 6.266.11.497.249.943.428 1.373l.161.371c.536 1.172 1.233 2.051 4.379 5.794.199.237.167.589-.073.786-.24.198-.595.165-.795-.072l-1.687-2.018c-2.025-2.445-2.483-3.142-2.993-4.351l-.036-.085c-.205-.491-.363-1-.487-1.559-.679-3.066.864-6.541 3.858-7.561z" fill="#fff" fill-rule="evenodd"/><path clip-rule="evenodd" d="m389.03 128.924c1.654-.564 3.484.316 3.999 1.963.741 2.372 2.107 3.846 4.121 4.479.297.093.462.407.368.701-.095.294-.412.457-.709.364-2.384-.749-4.012-2.507-4.859-5.214-.323-1.036-1.493-1.598-2.553-1.237-1.128.384-1.687 1.462-1.379 2.937.156.749.775 1.77 1.829 3.101l.179.224c.148.184.304.372.472.573l1.814 2.124c.198.238.165.59-.075.786-.241.197-.597.163-.795-.074l-1.451-1.695-.363-.429c-.172-.205-.331-.399-.484-.587l-.365-.462c-1.05-1.352-1.675-2.418-1.867-3.335-.418-2.006.431-3.645 2.118-4.219z" fill="#fff" fill-rule="evenodd"/><path clip-rule="evenodd" d="m390.034 131.966c.298-.09.614.076.705.371.608 1.965 1.8 3.36 4.041 5.025.249.185.299.535.112.782-.187.246-.541.296-.79.111-2.414-1.794-3.751-3.359-4.442-5.591-.092-.295.076-.608.374-.698z" fill="#fff" fill-rule="evenodd"/></svg>