<svg fill="none" height="586" viewBox="0 0 728 586" width="728" xmlns="http://www.w3.org/2000/svg" xmlns:xlink="http://www.w3.org/1999/xlink"><filter id="a" color-interpolation-filters="sRGB" filterUnits="userSpaceOnUse" height="145.436" width="145.436" x="200.73" y=".358094"><feFlood flood-opacity="0" result="BackgroundImageFix"/><feBlend in="SourceGraphic" in2="BackgroundImageFix" mode="normal" result="shape"/><feGaussianBlur result="effect1_foregroundBlur" stdDeviation="4.07742"/></filter><filter id="b" color-interpolation-filters="sRGB" filterUnits="userSpaceOnUse" height="108.289" width="206.869" x="85.5" y="301"><feFlood flood-opacity="0" result="BackgroundImageFix"/><feColorMatrix in="SourceAlpha" type="matrix" values="0 0 0 0 0 0 0 0 0 0 0 0 0 0 0 0 0 0 127 0"/><feOffset dx="7" dy="8"/><feGaussianBlur stdDeviation="12.5"/><feColorMatrix type="matrix" values="0 0 0 0 0.101961 0 0 0 0 0.121569 0 0 0 0 0.223529 0 0 0 0.7 0"/><feBlend in2="BackgroundImageFix" mode="normal" result="effect1_dropShadow"/><feBlend in="SourceGraphic" in2="effect1_dropShadow" mode="normal" result="shape"/></filter><filter id="c" color-interpolation-filters="sRGB" filterUnits="userSpaceOnUse" height="188.215" width="212.477" x="83.5" y="148"><feFlood flood-opacity="0" result="BackgroundImageFix"/><feColorMatrix in="SourceAlpha" type="matrix" values="0 0 0 0 0 0 0 0 0 0 0 0 0 0 0 0 0 0 127 0"/><feOffset dx="8" dy="9"/><feGaussianBlur stdDeviation="14"/><feColorMatrix type="matrix" values="0 0 0 0 0.101961 0 0 0 0 0.121569 0 0 0 0 0.223529 0 0 0 0.7 0"/><feBlend in2="BackgroundImageFix" mode="normal" result="effect1_dropShadow"/><feBlend in="SourceGraphic" in2="effect1_dropShadow" mode="normal" result="shape"/></filter><filter id="d" color-interpolation-filters="sRGB" filterUnits="userSpaceOnUse" height="75.0731" width="134.39" x="116.113" y="207.414"><feFlood flood-opacity="0" result="BackgroundImageFix"/><feColorMatrix in="SourceAlpha" type="matrix" values="0 0 0 0 0 0 0 0 0 0 0 0 0 0 0 0 0 0 127 0"/><feOffset dy="6"/><feGaussianBlur stdDeviation="3.5"/><feColorMatrix type="matrix" values="0 0 0 0 0 0 0 0 0 0 0 0 0 0 0 0 0 0 0.144395 0"/><feBlend in2="BackgroundImageFix" mode="normal" result="effect1_dropShadow"/><feBlend in="SourceGraphic" in2="effect1_dropShadow" mode="normal" result="shape"/></filter><linearGradient id="e" gradientUnits="userSpaceOnUse" x1="73.4904" x2="73.4904" y1="161.402" y2="583.951"><stop offset="0" stop-color="#a2ffea"/><stop offset="1" stop-color="#8ca5ff"/></linearGradient><linearGradient id="f"><stop offset="0" stop-color="#fdc6c6"/><stop offset="1" stop-color="#fab2b2"/></linearGradient><linearGradient id="g" gradientUnits="userSpaceOnUse" x1="398.226" x2="396.63" xlink:href="#f" y1="530.858" y2="560.708"/><linearGradient id="h" gradientUnits="userSpaceOnUse" x1="393.595" x2="389.355" xlink:href="#f" y1="358.529" y2="419.079"/><linearGradient id="i"><stop offset="0" stop-color="#ffafaf"/><stop offset="1" stop-color="#f07777"/></linearGradient><linearGradient id="j" gradientUnits="userSpaceOnUse" x1="447.942" x2="436.717" xlink:href="#i" y1="334.528" y2="384.065"/><linearGradient id="k" gradientUnits="userSpaceOnUse" x1="447.185" x2="440.525" xlink:href="#f" y1="325.112" y2="357.709"/><linearGradient id="l" gradientUnits="userSpaceOnUse" x1="362.95" x2="361.389" xlink:href="#f" y1="532.061" y2="565.334"/><linearGradient id="m" gradientUnits="userSpaceOnUse" x1="472.879" x2="471.372" xlink:href="#f" y1="391.401" y2="430.785"/><linearGradient id="n" gradientUnits="userSpaceOnUse" x1="268.738" x2="247.712" y1="412.373" y2="412.373"><stop offset="0" stop-color="#f16b79"/><stop offset="1" stop-color="#f69d88"/></linearGradient><linearGradient id="o" gradientUnits="userSpaceOnUse" x1="586.58" x2="586.58" y1="334.59" y2="385.354"><stop offset="0" stop-color="#9ff6ec"/><stop offset="1" stop-color="#7d9dff"/></linearGradient><linearGradient id="p" gradientUnits="userSpaceOnUse" x1="105.891" x2="116.403" xlink:href="#i" y1="269.408" y2="316.669"/><linearGradient id="q" gradientUnits="userSpaceOnUse" x1="106.719" x2="113.026" xlink:href="#f" y1="260.44" y2="291.5"/><linearGradient id="r" gradientUnits="userSpaceOnUse" x1="184.593" x2="195.866" xlink:href="#f" y1="274.663" y2="304.016"/><linearGradient id="s" gradientUnits="userSpaceOnUse" x1="126.644" x2="128.06" xlink:href="#f" y1="553.829" y2="572.083"/><linearGradient id="t" gradientUnits="userSpaceOnUse" x1="85.6065" x2="87.1178" xlink:href="#f" y1="555.722" y2="572.714"/><linearGradient id="u" gradientUnits="userSpaceOnUse" x1="118.948" x2="120.705" xlink:href="#f" y1="361.043" y2="376.046"/><mask id="v" height="133" maskUnits="userSpaceOnUse" width="157" x="103" y="167"><path clip-rule="evenodd" d="m103.5 175c0-4.418 3.582-8 8-8h140.477c4.418 0 8 3.582 8 8v116.215c0 4.418-3.582 8-8 8h-140.477c-4.418 0-8-3.582-8-8z" fill="#fff" fill-rule="evenodd"/></mask><mask id="w" height="38" maskUnits="userSpaceOnUse" width="37" x="586" y="345"><path d="m593.903 346.293c.07-.332.364-.57.704-.57h27.604c.458 0 .8.422.705.87l-7.577 35.606c-.071.333-.365.57-.705.57h-27.604c-.458 0-.8-.422-.704-.87z" fill="#fff"/></mask><path clip-rule="evenodd" d="m524.946 244.08c-3.917-3.907-3.917-10.253 0-14.16l90.492-90.27c3.903-3.894 10.222-3.894 14.125 0l90.492 90.27c3.917 3.907 3.917 10.253 0 14.16l-90.492 90.27c-3.903 3.894-10.222 3.894-14.125 0z" fill="#bfe7ff" fill-rule="evenodd" opacity=".150019"/><g filter="url(#a)" opacity=".037574"><path clip-rule="evenodd" d="m215.964 80.1557c-3.916-3.9072-3.916-10.2523 0-14.1595l50.421-50.2971c3.903-3.8937 10.222-3.8937 14.125 0l50.421 50.2971c3.917 3.9072 3.917 10.2523 0 14.1595l-50.421 50.2973c-3.903 3.893-10.222 3.893-14.125 0z" fill="#7367f0" fill-rule="evenodd"/></g><path clip-rule="evenodd" d="m268.439 249.15c-3.917-3.908-3.917-10.253 0-14.16l188.039-187.5769c3.903-3.8937 10.221-3.8937 14.124-.0001l188.039 187.577c3.917 3.907 3.917 10.252 0 14.16l-188.039 187.577c-3.903 3.893-10.221 3.893-14.124 0z" fill="#7367f0" fill-rule="evenodd" opacity=".065941"/><path clip-rule="evenodd" d="m143.744 244.969c-4.235-4.236-11.111-4.227-15.357.019l-119.93519 119.935c-4.24604 4.246-4.25449 11.122-.01887 15.357l119.64106 119.641c4.235 4.236 11.111 4.227 15.357-.019l119.935-119.935c4.246-4.246 4.254-11.122.019-15.357zm-81.5509 127.566 73.8059-73.806 73.625 73.625-73.806 73.806z" fill="#7367f0" fill-rule="evenodd" opacity=".089565"/><path clip-rule="evenodd" d="m201.293 351-.001 143.767.147-.142-.034 7.132 82.668 82.194h-11.02l-71.761-71.384.001 71.345h-8.705v-68.623l-68.98 68.662h-12.108l81.088-80.643v-152.308z" fill="url(#e)" fill-rule="evenodd"/><path clip-rule="evenodd" d="m217.613 496.4c0-2.761-2.238-5-5-5h-30.258c-2.761 0-5 2.239-5 5v7.414c0 2.761 2.239 5 5 5h30.258c2.762 0 5-2.239 5-5z" fill="#c8daff" fill-rule="evenodd"/><path clip-rule="evenodd" d="m129.25 148h152.551c2.854 0 5.166 2.304 5.166 5.146v254.454c0 2.763-2.186 5.018-4.929 5.141l-.257.006-152.551-.591c-2.845-.011-5.146-2.312-5.146-5.147v-253.863c0-2.842 2.313-5.146 5.166-5.146z" fill="#afa7ff" fill-rule="evenodd"/><path clip-rule="evenodd" d="m121.778 148h152.552c2.853 0 5.166 2.304 5.166 5.146v254.454c0 2.763-2.186 5.018-4.93 5.141l-.256.006-152.552-.591c-2.845-.011-5.146-2.312-5.146-5.147v-253.863c0-2.842 2.313-5.146 5.166-5.146z" fill="#141a2b" fill-rule="evenodd"/><path clip-rule="evenodd" d="m129.142 153.317h137.614c3.264 0 5.91 2.636 5.91 5.887v240.232c0 3.252-2.646 5.887-5.91 5.887h-137.614c-3.265 0-5.911-2.635-5.911-5.887v-240.232c0-3.251 2.646-5.887 5.911-5.887z" fill="#283046" fill-rule="evenodd"/><path clip-rule="evenodd" d="m172.331 397.88h41.628c2.358 0 4.27 1.904 4.27 4.253v13.824h-45.898c-2.358 0-4.269-1.905-4.269-4.254v-9.57c0-2.349 1.911-4.253 4.269-4.253z" fill="#a7c3ff" fill-rule="evenodd"/><path clip-rule="evenodd" d="m217.161 411.703h4.27v4.254h-4.27z" fill="#a7c3ff" fill-rule="evenodd"/><path clip-rule="evenodd" d="m170.196 397.88h41.628c2.358 0 4.27 1.904 4.27 4.253v9.57c0 2.349-1.912 4.254-4.27 4.254h-41.628c-2.358 0-4.269-1.905-4.269-4.254v-9.57c0-2.349 1.911-4.253 4.269-4.253z" fill="#c8daff" fill-rule="evenodd"/><rect fill="#91d6ff" height="77.7504" rx="6" width="67.6534" x="349.771" y="179"/><rect fill="#e3f4ff" height="77.7504" rx="6" width="67.6534" x="344.5" y="179"/><path clip-rule="evenodd" d="m352.407 192.173c0-2.209 1.791-4 4-4h43.839c2.209 0 4 1.791 4 4v51.841c0 2.21-1.791 4-4 4h-43.839c-2.209 0-4-1.79-4-4z" fill="#313a53" fill-rule="evenodd"/><path d="m352.407 192.173c0-2.209 1.791-4 4-4h1.272v59.841h-1.272c-2.209 0-4-1.79-4-4z" fill="#91d6ff"/><path clip-rule="evenodd" d="m394.764 231.879c.31 0 .504-.335.349-.604l-17.308-30.157c-.156-.273-.551-.27-.703.006l-16.6 30.157c-.148.269.046.598.353.598z" fill="#83f2d5" fill-rule="evenodd"/><path clip-rule="evenodd" d="m396.94 220.134c.311 0 .505-.336.35-.605l-9.385-16.25c-.157-.271-.55-.268-.702.007l-9.001 16.25c-.149.268.045.598.352.598z" fill="#63cbe8" fill-rule="evenodd" opacity=".44687"/><rect fill="#91d6ff" height="77.7504" rx="6" width="67.6534" x="446.771" y="179"/><rect fill="#e3f4ff" height="77.7504" rx="6" width="67.6534" x="441.5" y="179"/><path clip-rule="evenodd" d="m449.407 192.173c0-2.209 1.791-4 4-4h43.839c2.209 0 4 1.791 4 4v51.841c0 2.21-1.791 4-4 4h-43.839c-2.209 0-4-1.79-4-4z" fill="#313a53" fill-rule="evenodd"/><rect fill="#83f2d5" height="25.7712" rx=".4032" width="25.9191" x="461.708" y="207.829"/><rect fill="#63cbe8" height="19.656" opacity=".44687" rx=".4032" width="19.7688" x="475.766" y="197.782"/><path d="m449.407 192.173c0-2.209 1.791-4 4-4h1.272v59.841h-1.272c-2.209 0-4-1.79-4-4z" fill="#91d6ff"/><rect fill="#91d6ff" height="77.7504" rx="6" width="67.6534" x="542.771" y="179"/><rect fill="#e3f4ff" height="77.7504" rx="6" width="67.6534" x="537.5" y="179"/><path clip-rule="evenodd" d="m545.407 192.173c0-2.209 1.791-4 4-4h43.839c2.209 0 4 1.791 4 4v51.841c0 2.21-1.791 4-4 4h-43.839c-2.209 0-4-1.79-4-4z" fill="#313a53" fill-rule="evenodd"/><ellipse cx="571.985" cy="220.714" fill="#83f2d5" rx="18.2313" ry="18.1272"/><ellipse cx="580.772" cy="206.3" fill="#63cbe8" opacity=".44687" rx="9.44511" ry="9.3912"/><path d="m545.407 192.173c0-2.209 1.791-4 4-4h1.272v59.841h-1.272c-2.209 0-4-1.79-4-4z" fill="#91d6ff"/><g filter="url(#b)"><path clip-rule="evenodd" d="m103.5 323.389c0-2.976 2.413-5.389 5.389-5.389h146.092c2.976 0 5.388 2.413 5.388 5.389v47.511c0 2.976-2.412 5.389-5.388 5.389h-146.092c-2.976 0-5.389-2.413-5.389-5.389z" fill="#313a53" fill-rule="evenodd"/></g><path d="m154.614 352.149c0-.976.791-1.766 1.767-1.766h29.368c.976 0 1.767.79 1.767 1.766 0 .975-.791 1.766-1.767 1.766h-29.368c-.976 0-1.767-.791-1.767-1.766z" fill="#ffbf29" opacity=".465472"/><path d="m154.614 342.14c0-.976.791-1.767 1.767-1.767h17.618c.975 0 1.766.791 1.766 1.767 0 .975-.791 1.766-1.766 1.766h-17.618c-.976 0-1.767-.791-1.767-1.766z" fill="#ffbf29"/><path d="m212.343 340.535c.504-1.11 1.811-1.6 2.918-1.094.366.167.679.431.905.763l.081.127 4.32 7.364c.042.07.132.093.202.052l.018-.013.017-.016 2.299-2.605c.806-.914 2.199-.999 3.11-.191.06.053.117.109.171.168l.078.091 3.372 4.15c.051.063.143.072.206.021l.018-.017.014-.02 5.326-8.624c.64-1.037 1.998-1.357 3.033-.716.16.1.307.219.436.356l.094.105 2.481 2.972c.365.437.307 1.086-.129 1.451-.411.345-1.012.313-1.385-.059l-.063-.07-2.481-2.972c-.01-.012-.022-.022-.035-.03-.058-.036-.13-.027-.177.017l-.025.03-5.326 8.625c-.129.209-.292.395-.482.55-.911.743-2.237.636-3.018-.223l-.082-.095-3.372-4.149c-.005-.007-.01-.012-.016-.018-.051-.045-.124-.048-.178-.013l-.03.026-2.299 2.605c-.153.174-.333.323-.533.44-1.014.598-2.31.29-2.952-.681l-.064-.103-4.321-7.363c-.015-.027-.038-.047-.066-.06-.061-.028-.132-.01-.173.04l-.021.033-4.21 9.258c-.157.345-.399.643-.703.866l-.117.08-4.992 3.189c-.478.306-1.114.165-1.419-.315-.289-.453-.179-1.046.237-1.369l.077-.054 4.991-3.189c.016-.01.03-.023.041-.038l.014-.025z" fill="#ffbf29"/><ellipse cx="132.582" cy="347.733" fill="#ffbf29" rx="12.0443" ry="12.0698"/><g filter="url(#c)"><path clip-rule="evenodd" d="m103.5 175c0-4.418 3.582-8 8-8h140.477c4.418 0 8 3.582 8 8v116.215c0 4.418-3.582 8-8 8h-140.477c-4.418 0-8-3.582-8-8z" fill="#313a53" fill-rule="evenodd"/></g><g mask="url(#v)"><path clip-rule="evenodd" d="m124.434 267.043s18.56-5.307 26.744-16.139c8.184-10.831 10.943-21.33 25.019-21.33s15.88 16.08 31.096 16.08 16.048-20.507 21.106-28.649c5.057-8.143 13.785-8.143 13.785-8.143v69.755c0 .972-.788 1.76-1.76 1.76h-114.23c-.972 0-1.76-.788-1.76-1.76z" fill="#ffe3b5" fill-rule="evenodd" opacity=".414737"/><g filter="url(#d)"><path d="m124.434 268.167s18.56-5.33 26.744-16.208c8.184-10.879 10.943-21.424 25.019-21.424s15.88 16.15 31.096 16.15 16.048-20.595 21.106-28.773c5.057-8.178 13.785-8.178 13.785-8.178" stroke="#ffbf29" stroke-linecap="round" stroke-width="2.64"/></g><rect fill="#ffbf29" height="5.23279" rx="2.61639" width="48.8444" x="115.711" y="180.082"/><path d="m115.711 195.78c0-1.445 1.171-2.616 2.616-2.616h17.445c1.445 0 2.617 1.171 2.617 2.616 0 1.445-1.172 2.617-2.617 2.617h-17.445c-1.445 0-2.616-1.172-2.616-2.617z" fill="#ffbf29" opacity=".465472"/><g fill="#fff"><ellipse cx="229.536" cy="183.134" rx="3.05278" ry="3.05246"/><ellipse cx="238.258" cy="183.134" rx="3.05278" ry="3.05246"/><ellipse cx="246.981" cy="183.134" rx="3.05278" ry="3.05246"/></g></g><path clip-rule="evenodd" d="m470.067 570.984c0-.892-.697-1.629-1.587-1.678l-40.026-2.198h-12.274l-40.187 2.199c-.891.049-1.589.785-1.589 1.677v2.981h95.663z" fill="#bfe7ff" fill-rule="evenodd"/><path clip-rule="evenodd" d="m426.792 498.996h-9.111v68.569h9.111z" fill="#bfe7ff" fill-rule="evenodd"/><rect fill="#91d6ff" height="15.9994" rx=".84" transform="matrix(-1 0 0 1 429.069 557.966)" width="13.6662"/><path clip-rule="evenodd" d="m433.625 494.808c0-.464-.376-.84-.84-.84h-21.097c-.464 0-.84.376-.84.84v7.277c0 .343.209.652.527.78l5.017 2.013c.099.04.205.061.313.061h11.063c.108 0 .214-.021.313-.061l5.017-2.013c.318-.128.527-.437.527-.78z" fill="#91d6ff" fill-rule="evenodd"/><rect fill="#91d6ff" height="9.14254" rx="2.1" transform="matrix(-1 0 0 1 472.346 573.965)" width="9.11077"/><rect fill="#91d6ff" height="9.14254" rx="2.1" transform="matrix(-1 0 0 1 381.238 573.965)" width="9.11077"/><rect fill="#91d6ff" height="9.14254" rx="2.1" transform="matrix(-1 0 0 1 426.792 573.965)" width="9.11077"/><path clip-rule="evenodd" d="m433.169 488.482c0-4.039-3.275-7.314-7.314-7.314h-57.347c-4.04 0-7.314 3.275-7.314 7.314 0 4.04 3.274 7.314 7.314 7.314h57.347c4.039 0 7.314-3.274 7.314-7.314z" fill="#bfe7ff" fill-rule="evenodd"/><path clip-rule="evenodd" d="m468.701 413.513h-12.755v36.571c0 18.285-20.499 36.57-20.499 36.57h16.855s16.399-15.572 16.399-36.57c0-18.285 0-36.571 0-36.571z" fill="#91d6ff" fill-rule="evenodd"/><path clip-rule="evenodd" d="m463.234 413.513h-12.755v36.571c0 18.285-20.499 36.57-20.499 36.57h15.033s18.221-15.144 18.221-36.57c0-18.285 0-36.571 0-36.571z" fill="#bfe7ff" fill-rule="evenodd"/><path clip-rule="evenodd" d="m500.589 395.4c0-4.639-3.761-8.4-8.4-8.4h-65.684c-4.639 0-8.4 3.761-8.4 8.4v37.015c0 4.639 3.761 8.4 8.4 8.4h65.684c4.639 0 8.4-3.761 8.4-8.4z" fill="#bfe7ff" fill-rule="evenodd"/><path clip-rule="evenodd" d="m500.982 392.907c0-3.262-2.644-5.907-5.906-5.907-3.262 0-5.907 2.645-5.907 5.907v42.001c0 3.263 2.645 5.907 5.907 5.907 3.262 0 5.906-2.644 5.906-5.906z" fill="#91d6ff" fill-rule="evenodd"/><path clip-rule="evenodd" d="m477.812 488.482c0-4.039-3.275-7.314-7.315-7.314h-55.524c-4.04 0-7.314 3.275-7.314 7.314 0 4.04 3.274 7.314 7.314 7.314h55.524c4.04 0 7.315-3.274 7.315-7.314z" fill="#91d6ff" fill-rule="evenodd"/><path clip-rule="evenodd" d="m377.609 538.415s5.246 10.595.945 13.934c-4.307 3.339-15.683 9.597-15.683 9.597l30.14-1.894-6.7-23.108z" fill="url(#g)" fill-rule="evenodd"/><path clip-rule="evenodd" d="m390.025 548.003c-.949.452.611 4.709-2.726 4.41-3.336-.298-5.431-4.699-7.891-4.413-2.461.285-4.023 4.717-8.708 7.803-4.683 3.087-11.628 6.769-11.163 9.872.465 3.104 11.394 3.935 16.931 2.907 5.537-1.026 8.121-3.252 11.713-3.075 3.592.178 5.85-.262 6.976-2.568 1.125-2.307-4.038-15.459-5.132-14.936z" fill="#eedfe8" fill-rule="evenodd"/><path clip-rule="evenodd" d="m389.759 562.167-.307-.018c-4.452-.375-7.506 2.425-11.743 3.214-4.238.79-15.413 1.063-17.198-1.588-.085-.125-.163-.254-.236-.384-.6.737-.882 1.526-.737 2.445.465 2.953 11.395 3.744 16.932 2.767s8.122-3.096 11.714-2.927l.639.024c3.223.088 5.279-.406 6.338-2.468.257-.503.199-1.583-.059-2.949-1.503 1.028-3.399 1.943-5.343 1.884z" fill="#ec7aa5" fill-rule="evenodd"/><path clip-rule="evenodd" d="m423.011 445.032c-9.124.407-59.91 11.64-69.136 13.548-9.227 1.908-17.028 12.234-9.992 24.192 7.902 13.422 28.292 51.542 33.243 60.135 2.45 4.253 14.811 1.868 11.908-5.271-5.413-13.307-7.927-46.738-21.727-58.927 0 0 46.41 8.077 66.457-1.175 14.569-6.726 11.273-33.487-10.753-32.502z" fill="#413c75" fill-rule="evenodd"/><path clip-rule="evenodd" d="m359.359 388.074s.104-5.424-2.494-9.304c-2.597-3.88-2.7-8.002-4.665-7.867-1.966.135-.02 9.715-.02 9.715s-2.493-.953-4.285-2.158c-1.791-1.205-7.224-7.146-8.494-6.093-2.152 1.794 1.315 11.912 3.203 13.935 1.895 2.024 11.244 7.678 11.244 7.678l27.535 27.739 4.117-14.725z" fill="url(#h)" fill-rule="evenodd"/><path clip-rule="evenodd" d="m414.434 385.625c-4.245 9.845-12.017 27.931-15.221 33.326-4.015 6.757-10.347 9.735-17.76 4.721-1.551-1.049-6.005-4.718-6.005-4.718.659-6.422 3.058-11.79 7.194-16.105l2.809 2.323s7.966-20.42 14.374-32.248c5.549-10.234 21.07-2.265 14.609 12.701z" fill="#ea5455" fill-rule="evenodd"/><path clip-rule="evenodd" d="m385.368 405.183s-2.139 7.257-2.639 6.836c-.501-.42.382-8.733.382-8.733z" fill="#000" fill-opacity=".159856" fill-rule="evenodd"/><path clip-rule="evenodd" d="m432.778 347.411v8.712l6.397-5.151s1.967-8.346 3.566-14.545c1.003-3.888 3.446-17.043-6.39-16.427-8.058-14.204-31.524-5.413-31.711 11.94-.224 20.871-.041 28.997-.041 28.997 13.27.761 20.738-1.157 28.179-13.526z" fill="#422851" fill-rule="evenodd"/><path clip-rule="evenodd" d="m439.313 363.997s-5.95-1.397-6.157-11.147c-.206-9.751-.061-13.08-.061-13.08l-13.108-.236s-.143 10.867-.145 14.798c-.006 9.557-7.034 10.34-7.034 10.34s1.201 7.886 13.079 8.554c9.273.522 13.426-9.229 13.426-9.229z" fill="url(#j)" fill-rule="evenodd"/><path clip-rule="evenodd" d="m436.15 334.901c5.848-.226 4.894 8.334-1.18 8.323 0 0-3.528 12.16-15.778 12.16-9.948 0-10.595-14.173-10.685-17.001-.097-3.014-.109-12.918-.109-12.918l27.98-.013z" fill="url(#k)" fill-rule="evenodd"/><path clip-rule="evenodd" d="m436.603 334.845c-2.423.4-2.129 2.004-2.788 1.864-3.346-.712-16.89.227-18.634-7.221-2.17 4.653-2.701 5.797-7.479 7.046v-13.635l30.222-2.899s-.469 14.704-1.321 14.845z" fill="#422851" fill-rule="evenodd"/><path d="m421.554 347.215s-2.918 2.47-6.297.157" stroke="#f77b7b" stroke-linecap="round" stroke-width="1.5"/><path d="m419.628 350.075c-.908.419-1.782.45-2.562.032" stroke="#f49494" stroke-linecap="round"/><path d="m435.554 339.505c-.06-1.373.359-2.464 1.759-2.683" stroke="#f77b7b" stroke-linecap="round"/><g clip-rule="evenodd" fill-rule="evenodd"><path d="m437.984 363c-7.468 4.574-16.102 6.251-24.139 1.284-13.115 25.861-16.384 56.718-13.229 90.822 19.125 7.572 35.199 6.083 48.884-2.572z" fill="#ffe4f4"/><path d="m344.916 538.84s.158 12.471-10.118 17.133c-10.269 4.662-17.586 4.382-16.654 7.986.931 3.604 27.661 3.459 30.157.64 2.128-2.398 6.754-24.727 8.028-23.02z" fill="url(#l)"/><path d="m352.379 556.452c-1.575-1.133-2.899 5.401-7.176 3.584-4.278-1.817-.905-7.823-3.597-8.931-2.692-1.107-7.89 4.848-14.794 6.296-6.904 1.446-12.509 2.713-14.102 5.4-1.372 2.31 0 3.048 0 3.048s6.646 3.319 10.776 4.05c6 1.061 23.339 1.768 25.239-.167 1.167-1.187 4.442-12.713 3.654-13.28z" fill="#eedfe8"/><path d="m312.335 563.073c-1.302 2.123.752 3.227.998 3.349l.991.422c1.88.782 6.122 2.458 9.257 3.057 5.748 1.099 23.547 1.75 25.462-.139.336-.332.752-1.545 1.154-3.121l-1.221.133c-5.878.623-18.999 1.749-25.474.224-5.748-1.354-8.894-3.581-10.329-4.882-.349.3-.631.618-.838.957z" fill="#ec7aa5"/><path d="m451.602 441.177s13.266 28.015-5.377 37.635c-18.029 9.303-72.001-1.7-72.001-1.7s.965 7.765 0 14.69c-2.518 18.087-14.498 48.221-17.032 52.007-3.505 5.237-14.182 1.288-14.383-3.072-.202-4.36 8.048-60.044 9.303-70.662 1.248-10.619 5.188-12.162 16.697-15.065 2.644-.667 33.911-8.437 36.775-8.21 24.611 1.946 46.018-5.623 46.018-5.623z" fill="#524d87"/><path d="m437.06 475.921c-17.849 2-65.104-2.123-67.002-.25-1.812 1.789-1.509 32.904-5.574 50.914l.618-1.701c3.823-10.617 7.792-23.53 9.122-33.082.965-6.925 0-14.69 0-14.69l2.177.421c10.259 1.927 53.959 9.466 69.824 1.279 8.597-4.436 12.105-11.806 10.524-22.109-2.722 11.646-9.285 18.052-19.689 19.218z" fill="#fff" fill-opacity=".056108"/><path d="m437.658 363.021c-12.369 40.517-19.786 97.958 18.842 87.965-20.519-37.78 7.376-54.784 1.053-74.31-2.162-6.676-19.734-14.179-19.895-13.655z" fill="#ea5455"/><path d="m451.607 379.845c-13.979 2.11-2.455 26.517-7.07 30.194-4.614 3.677-12.646 4.074-13.512 6.32-1.74 4.515 6.674 15.912 25.242 34.192l.233.435c-17.875-32.91.988-50.055 1.969-66.835-2.071-3.248-4.359-4.683-6.862-4.306z" fill="#000" fill-opacity=".159856"/><path d="m414.5 364c-4.72 11.838-6.989 21.127-9.106 38.503-1.765 14.472-.881 44.337-.881 44.337l-5.833 1.147s-4.17-46.139-2.776-52.08c2.34-9.969 3.925-15.794 7.014-24.907 1.702-5.002 11.582-7 11.582-7z" fill="#ea5455"/><path d="m435.06 409.017s-7.615-7.625-10.253-8.51c-2.637-.885-17.084-1.948-16.986.052.111 2.142 9.407 2.019 10.267 3.073.859 1.053 2.055 9.256 5.304 10.065 3.243.809 9.966 3.203 9.966 3.203l29.924 15.461-3.188-15.46z" fill="url(#m)"/><path d="m457.981 376.731c9.077 12.811 16.827 32.325 19.802 39.933 2.974 7.608-.026 19.083-13.107 16.83-1.557-.268-4.091-1.254-4.091-1.254-4.809-6.593-5.653-12.253-3.858-17.293 0 0 1.692.714 1.692.714s-13.001-23.044-16.176-29.222c-5.303-10.317 7.743-20.995 15.738-9.708z" fill="#ea5455"/><path d="m458.418 415.661s6.604 3.225 5.773 1.807c-.83-1.419-8.288-6.286-8.288-6.286z" fill="#000" fill-opacity=".159856"/><path d="m288.638 436.555h12v147.58h-12z" fill="#dbdbdb"/><path d="m286.638 436.555h8v147.58h-8z" fill="#efefef"/><path d="m211.475 436.555h12v147.58h-12z" fill="#dbdbdb"/><path d="m209.475 436.555h8v147.58h-8z" fill="#efefef"/><path d="m493.133 436.555h12v147.58h-12z" fill="#dbdbdb"/><path d="m491.133 436.555h8v147.58h-8z" fill="#efefef"/><path d="m410.97 436.555h12v147.58h-12z" fill="#dbdbdb"/><path d="m408.97 436.555h8v147.58h-8z" fill="#efefef"/><path d="m292.269 433.68c0-.928.752-1.68 1.68-1.68h213.003c.928 0 1.68.752 1.68 1.68v15.64c0 .928-.752 1.68-1.68 1.68h-213.003c-.928 0-1.68-.752-1.68-1.68z" fill="#dbdbdb"/><path d="m200.976 433.68c0-.928.752-1.68 1.68-1.68h212.09c.928 0 1.68.752 1.68 1.68v15.64c0 .928-.752 1.68-1.68 1.68h-212.09c-.928 0-1.68-.752-1.68-1.68z" fill="#dbdbdb"/></g><rect fill="#efefef" height="9.76056" rx="4.88028" width="338" x="182.5" y="432"/><path clip-rule="evenodd" d="m258.854 400.469v-4.188l5.284-.001v-2.22c0-1.227.986-2.222 2.201-2.222 1.216 0 2.202.995 2.202 2.222v4.632c0 .982-.789 1.777-1.761 1.777z" fill="#02b596" fill-rule="evenodd"/><path clip-rule="evenodd" d="m244.199 402.881v-3.998c0-1.227.986-2.221 2.202-2.221s2.201.994 2.201 2.221v2.22h2.641l.001-10.216c0-2.699 2.168-4.887 4.843-4.887s4.843 2.188 4.843 4.887v25.321h-9.686l-.001-10.663-4.402.001c-1.459 0-2.642-1.193-2.642-2.665z" fill="#02d3af" fill-rule="evenodd"/><path clip-rule="evenodd" d="m244.618 409.269h22.364l-1.599 21.521c-.044.588-.53 1.043-1.115 1.043h-16.935c-.585 0-1.071-.455-1.115-1.043z" fill="url(#n)" fill-rule="evenodd"/><path clip-rule="evenodd" d="m244.618 409.269h22.364c.618 0 1.119.505 1.119 1.128v4.513c0 .623-.501 1.129-1.119 1.129h-22.364c-.617 0-1.118-.506-1.118-1.129v-4.513c0-.623.501-1.128 1.118-1.128z" fill="#ffb3a4" fill-rule="evenodd"/><path clip-rule="evenodd" d="m317.174 431.027c0-.832.675-1.507 1.507-1.507h105.257c.832 0 1.507.675 1.507 1.507 0 .833-.675 1.508-1.507 1.508h-105.257c-.832 0-1.507-.675-1.507-1.508z" fill="#8f84ff" fill-rule="evenodd"/><path clip-rule="evenodd" d="m388.496 431.027c0-.832.675-1.507 1.508-1.507h33.933c.833 0 1.508.675 1.508 1.507 0 .833-.675 1.508-1.508 1.508h-33.933c-.833 0-1.508-.675-1.508-1.508z" fill="#7367f0" fill-rule="evenodd"/><path clip-rule="evenodd" d="m312.019 388.056c-.276-2.151 1.401-4.056 3.57-4.056h66.269c1.812 0 3.341 1.346 3.571 3.144l4.915 38.449c.275 2.152-1.402 4.057-3.571 4.057h-66.268c-1.812 0-3.342-1.347-3.571-3.144z" fill="#7367f0" fill-rule="evenodd"/><path clip-rule="evenodd" d="m312.019 388.056c-.276-2.151 1.401-4.056 3.57-4.056h63.935c1.811 0 3.341 1.346 3.571 3.144l4.915 38.449c.275 2.152-1.402 4.057-3.571 4.057h-63.934c-1.812 0-3.342-1.347-3.571-3.144z" fill="#b1a9ff" fill-rule="evenodd"/><ellipse cx="348.815" cy="407.551" fill="#fff" rx="4.64831" ry="5.07496" transform="matrix(.79863551 -.60181502 .60181502 .79863551 -175.03136 291.988407)"/><path clip-rule="evenodd" d="m438.5 422c0-.552.448-1 1-1h45.5c3.038 0 5.5 2.462 5.5 5.5 0 3.038-2.462 5.5-5.5 5.5h-45.5c-.552 0-1-.448-1-1z" fill="#f16b79" fill-rule="evenodd"/><path d="m438.5 424.2c0-.552.448-1 1-1h26.033c1.823 0 3.3 1.477 3.3 3.3 0 1.822-1.477 3.3-3.3 3.3h-26.033c-.552 0-1-.448-1-1z" fill="#eaefff"/><rect fill="#91d6ff" height="198.348" rx="7.68" transform="matrix(-1 0 0 1 673.5 386)" width="131.195"/><rect fill="#bfe7ff" height="198.348" rx="7.68" transform="matrix(-1 0 0 1 638.099 386)" width="95.7932"/><path clip-rule="evenodd" d="m629.769 527.304c0-4.242-3.439-7.68-7.68-7.68h-63.774c-4.242 0-7.68 3.438-7.68 7.68v41.012c0 4.242 3.438 7.68 7.68 7.68h63.774c4.241 0 7.68-3.438 7.68-7.68z" fill="#e3f4ff" fill-rule="evenodd"/><path d="m602.696 519.624h-24.989v6.599c0 2.121 1.719 3.84 3.84 3.84h17.309c2.121 0 3.84-1.719 3.84-3.84z" fill="#91d6ff"/><path clip-rule="evenodd" d="m629.769 407.226c0-1.105-.896-2-2-2h-69.454c-4.242 0-7.68 3.438-7.68 7.68v30.138c0 4.242 3.438 7.68 7.68 7.68h69.454c1.104 0 2-.895 2-2z" fill="#91d6ff" fill-rule="evenodd"/><path clip-rule="evenodd" d="m612.414 402.032c0-4.242-3.438-7.68-7.68-7.68h-63.773c-4.242 0-7.68 3.438-7.68 7.68v41.012c0 4.242 3.438 7.68 7.68 7.68h63.773c4.242 0 7.68-3.438 7.68-7.68z" fill="#e3f4ff" fill-rule="evenodd"/><path clip-rule="evenodd" d="m629.769 464.668c0-4.242-3.439-7.68-7.68-7.68h-63.774c-4.242 0-7.68 3.438-7.68 7.68v41.012c0 4.242 3.438 7.68 7.68 7.68h63.774c4.241 0 7.68-3.438 7.68-7.68z" fill="#e3f4ff" fill-rule="evenodd"/><path d="m602.696 456.988h-24.989v6.599c0 2.121 1.719 3.84 3.84 3.84h17.309c2.121 0 3.84-1.719 3.84-3.84z" fill="#91d6ff"/><path d="m585.343 394.352h-24.99v6.599c0 2.121 1.719 3.84 3.84 3.84h17.31c2.121 0 3.84-1.719 3.84-3.84z" fill="#91d6ff"/><path clip-rule="evenodd" d="m612.861 364.677h7.04l7.599 20.677h-7.04z" fill="#7367f0" fill-rule="evenodd"/><path clip-rule="evenodd" d="m593.925 344.633c.079-.369.405-.633.782-.633h31.805c.508 0 .888.469.782.967l-8.459 39.753c-.079.37-.405.634-.783.634h-31.804c-.509 0-.888-.469-.783-.967z" fill="#a7c3ff" fill-rule="evenodd"/><path clip-rule="evenodd" d="m592.165 344.633c.079-.369.405-.633.783-.633h31.804c.509 0 .888.469.782.967l-8.459 39.753c-.079.37-.405.634-.783.634h-31.804c-.509 0-.888-.469-.782-.967z" fill="url(#o)" fill-rule="evenodd"/><path d="m593.903 346.293c.07-.332.364-.57.704-.57h27.604c.458 0 .8.422.705.87l-7.577 35.606c-.071.333-.365.57-.705.57h-27.604c-.458 0-.8-.422-.704-.87z" fill="#b3ffeb"/><g mask="url(#w)"><ellipse cx="602.75" cy="356.385" fill="#fff" rx="3.85" ry="3.76923"/><ellipse cx="591.476" cy="384.654" fill="#6de9c9" rx="17.875" ry="17.5"/><ellipse cx="619.526" cy="379.538" fill="#83f2d5" rx="21.175" ry="20.4615"/></g><path clip-rule="evenodd" d="m114.116 301.293c-11.723-2.713-12.495-18.705-3.582-24.252-9.192-19.149 12.064-38.162 26.625-26.436 9.545-4.061 17.478 11.784 8.596 24.09 3.724 21.131-3.856 26.592-17.519 26.824z" fill="#422851" fill-rule="evenodd"/><path clip-rule="evenodd" d="m114.262 297.474s5.703-1.331 5.9-10.617c.198-9.287.059-12.457.059-12.457l12.562-.225s.137 10.35.139 14.093c.005 10.055 7.055 9.206 7.055 9.206s-1.465 8.152-12.848 8.788c-8.887.498-12.867-8.788-12.867-8.788z" fill="url(#p)" fill-rule="evenodd"/><path clip-rule="evenodd" d="m117.294 269.763c-5.604-.215-4.69 7.937 1.131 7.926 0 0 3.382 11.581 15.12 11.581 9.534 0 10.154-13.498 10.24-16.191.093-2.871.105-12.303.105-12.303l-26.814-.012z" fill="url(#q)" fill-rule="evenodd"/><path d="m131.282 281.49s2.796 2.353 6.034.15" stroke="#f77b7b" stroke-linecap="round" stroke-width="1.5"/><path d="m133.128 284.215c.87.399 1.707.428 2.455.03" stroke="#f49494" stroke-linecap="round"/><path d="m117.865 274.148c.057-1.308-.344-2.347-1.686-2.555" stroke="#f77b7b" stroke-linecap="round"/><path clip-rule="evenodd" d="m116.407 268.756s3.071 4.096 3.693 4.118c.622.021.84-5.327.84-5.327 3.768-.286 13.304-2.174 15.641-6.57 1.635 3.879 4.76 5.602 6.813 5.271l.389 8.241.958-16.567h-29.086z" fill="#422851" fill-rule="evenodd"/><path clip-rule="evenodd" d="m189.552 302.329s-1.674-9.341-1.072-11.232c.514-1.635 5.372-3.993 5.372-3.993s8.451-13.368 10.3-12.007c1.504 1.104-4.401 10.96-4.401 10.96s5.385 5.657 5.31 8.186-8.789 10.446-8.789 10.446z" fill="url(#r)" fill-rule="evenodd"/><path clip-rule="evenodd" d="m194.034 286.97s3.743-.51 4.338.657c.508.994-2.601 3.812-2.601 4.605 0 .792.044 6.789.294 6.844.25.054 3.749-9.787 3.003-11.869-.614-1.708-5.034-.237-5.034-.237z" fill="#f28585" fill-rule="evenodd"/><path clip-rule="evenodd" d="m145.05 301.224c-5.617-2.335-12.418 4.368-8.275 10.767 6.62 10.232 31.058 37.097 42.322 37.137 10.118.035 19.413-40.209 19.2-43.416-.213-3.208-8.426-7.222-11.409-4.956-2.991 2.266-12.45 28.813-12.45 28.813s-23.683-25.971-29.388-28.345z" fill="#7367f0" fill-rule="evenodd"/><path clip-rule="evenodd" d="m174.438 329.569s3.196 5.503 3.491 4.68-2.332-7.916-2.332-7.916z" fill="#000" fill-opacity=".302803" fill-rule="evenodd"/><path clip-rule="evenodd" d="m137.846 557.709s-1.12 9.206 3.057 12.722c4.176 3.515-11.936 2.246-11.936 2.246l-.117-15.115z" fill="url(#s)" fill-rule="evenodd"/><path clip-rule="evenodd" d="m128.814 565.868c1.435.077 1.206 4.392 3.131 4.212 1.924-.181 5.178-4.482 7.968-3.036 2.896 1.505 18.768 11.558 19.702 14.142 1.046 2.88-5.723 3.095-10.562 2.885-4.845-.211-7.078-2.391-9.43-2.337-2.357.054-2.914 1.523-4.677 1.928-1.789.411-6.262.349-6.677-.938-.433-1.336-.884-16.934.545-16.856z" fill="#222d4e" fill-rule="evenodd"/><path clip-rule="evenodd" d="m112.5 370s9.63 92.719 10.416 101.191-.786 14.606-1.43 23.357c-.645 8.75 2.457 63.784 2.457 63.784 4.56 2.754 9.987 3.295 16.886.083 0 0 6.336-68.559 6.274-84.174-.037-9.315.928-103.195.928-103.195z" fill="#2b256a" fill-rule="evenodd"/><path clip-rule="evenodd" d="m127.888 471.952c.791 5.866-1.334 16.976-6.375 33.331l-.063-2.689c-.072-3.556-.075-6.329.023-7.868l.012-.178c.623-8.459 2.113-14.473 1.502-22.517l-.133-1.487c-.33-3.428-1.356-13.486-2.642-25.991l.706 2.043c3.905 11.406 6.228 19.858 6.97 25.356z" fill="#fff" fill-opacity=".077169" fill-rule="evenodd"/><path clip-rule="evenodd" d="m141.595 568.068-.648.988c-.312.477-.163 1.119.328 1.409l9.566 5.651c.294.173.655.185.959.031l1.277-.644c-3.72-2.706-7.447-5.127-11.482-7.435z" fill="#fff" fill-opacity=".540975" fill-rule="evenodd"/><path clip-rule="evenodd" d="m96.9589 559.204.8087 14.03-10.3672.274 1.9486-14.304z" fill="url(#t)" fill-rule="evenodd"/><path clip-rule="evenodd" d="m87.3035 568.367c7.3473 5.541 10.1666-1.392 10.7929-.704 1.1917 1.307 3.4476 14.328 2.2196 16.153-1.0826 1.616-15.8156 1.643-16.6304.121-1.0701-2.016 2.8008-16.186 3.6179-15.57z" fill="#222d4e" fill-rule="evenodd"/><path clip-rule="evenodd" d="m90.5776 572.806c.0792-.484.497-.839.9869-.839h2.0743c.49 0 .9078.355.9869.839l.616 3.763c.0997.609-.3701 1.161-.9868 1.161h-3.3064c-.6168 0-1.0865-.552-.9869-1.161z" fill="#fff" fill-opacity=".540975" fill-rule="evenodd"/><path clip-rule="evenodd" d="m106.591 367s-10.3247 9.305-13.0354 22.673c-4.5187 22.284-2.2446 63.442-2.3784 72.467-.1277 9.025-3.373 14.471-5.1137 27.232-1.7406 12.76-.0182 69.79-.0182 69.79 4.6151 2.785 9.6193 2.984 15.1217-.167l32.318-189.018z" fill="#38308b" fill-rule="evenodd"/><path clip-rule="evenodd" d="m99.713 375.305 4.033.555c-3.543 6.778-5.3336 22.237-5.3705 46.375l-.0006.765c0 36.496-6.5883 49.353-9.2389 65.064l-.0791.477c-1.5877 9.743-2.7769 25.356-3.5678 46.839l-.0804-5.326c-.2201-16.23-.2249-34.233.6548-40.682 1.7407-12.761 4.986-18.207 5.1137-27.232l.0058-.897c-.0023-10.58-2.0105-49.954 2.3726-71.57 1.1448-5.646 3.6477-10.567 6.1574-14.368z" fill="#fff" fill-opacity=".077169" fill-rule="evenodd"/><path clip-rule="evenodd" d="m95.5 304.703s9.888 33.134 10.181 39.406c.292 6.272-8.0876 24.707-6.6608 29.366 3.2898 10.768 45.2888 15.404 49.7938.92 1.925-6.186-1.776-12.819.019-20.778 1.788-7.96 7.042-19.789 2.966-30.909-4.077-11.121-2.985-21.409-5.901-23.354s-9.732-4.01-9.732-4.01c-3.314 4.882-14.504 4.811-19.844-.344 0 0-13.264 2.575-20.822 9.703z" fill="#7367f0" fill-rule="evenodd"/><path clip-rule="evenodd" d="m104.36 310.07c6.591 10.467 6.571 28.692 10.111 31.079s17.317.044 17.317 1.935c0 1.89-19.039 19.213-15.914 27.494 1.637 4.336 1.193 8.215-1.331 11.638l-.824-.18c-7.502-1.697-13.533-4.743-14.6992-8.56-1.4268-4.66 6.9532-23.095 6.6602-29.367-.248-5.307-7.3648-29.845-9.5491-37.271 1.9303-3.493 4.6731-2.416 8.2291 3.232z" fill="#000" fill-opacity=".05649" fill-rule="evenodd"/><path clip-rule="evenodd" d="m125.217 364.039s6.434-2.852 8.516-2.844c2.083.008 3.676.076 3.676.076l.006 2.884s10.572.961 11.687.923c1.122-.037-4.078 7.784-7.579 9.2-3.868 1.564-17.012-3.075-17.012-3.075z" fill="url(#u)" fill-rule="evenodd"/><path clip-rule="evenodd" d="m96.0645 303.761c-8.1062 5.914-28.7994 56.656-18.9703 63.773 8.3789 6.068 43.9768 6.86 46.6108 4.924 2.194-1.617 3.427-6.536 1.363-9.223-2.739-3.583-33.6268-8.758-33.6268-8.758s11.1058-26.569 13.4238-31.226c7.951-15.985 2.683-27.865-8.8005-19.49z" fill="#7367f0" fill-rule="evenodd"/><path clip-rule="evenodd" d="m91.4844 354.445s-3.5352 5.538-2.8074 5.676 5.4723-5.171 5.4723-5.171z" fill="#000" fill-opacity=".302803" fill-rule="evenodd"/></svg>