<svg height="591" viewBox="0 0 728 591" width="728" xmlns="http://www.w3.org/2000/svg" xmlns:xlink="http://www.w3.org/1999/xlink"><defs><filter id="a" height="119.7%" width="119.7%" x="-9.8%" y="-9.8%"><feGaussianBlur in="SourceGraphic" stdDeviation="3"/></filter><linearGradient id="b" x1="68.669473%" x2="68.669473%" y1="-81.389333%" y2="100%"><stop offset="0" stop-color="#a2ffea"/><stop offset="1" stop-color="#8ca5ff"/></linearGradient><path id="c" d="m5.388768 0h146.091746c2.976134 0 5.388768 2.41263361 5.388768 5.388768v47.5109712c0 2.9761344-2.412634 5.388768-5.388768 5.388768h-146.091746c-2.97613439 0-5.388768-2.4126336-5.388768-5.388768v-47.5109712c0-2.97613439 2.41263361-5.388768 5.388768-5.388768z"/><filter id="d" height="242.4%" width="152.9%" x="-22%" y="-57.5%"><feOffset dx="7" dy="8" in="SourceAlpha" result="shadowOffsetOuter1"/><feGaussianBlur in="shadowOffsetOuter1" result="shadowBlurOuter1" stdDeviation="12.5"/><feColorMatrix in="shadowBlurOuter1" result="shadowMatrixOuter1" type="matrix" values="0 0 0 0 0.0755212756   0 0 0 0 0.582569014   0 0 0 0 0.878793025  0 0 0 0.229458042 0"/><feOffset dx="0" dy="2" in="SourceAlpha" result="shadowOffsetOuter2"/><feGaussianBlur in="shadowOffsetOuter2" result="shadowBlurOuter2" stdDeviation="7"/><feColorMatrix in="shadowBlurOuter2" result="shadowMatrixOuter2" type="matrix" values="0 0 0 0 0.50398247   0 0 0 0 0.700178215   0 0 0 0 1  0 0 0 0.233828671 0"/><feMerge><feMergeNode in="shadowMatrixOuter1"/><feMergeNode in="shadowMatrixOuter2"/></feMerge></filter><path id="e" d="m8 0h140.476667c4.418278 0 8 3.581722 8 8v116.215082c0 4.418278-3.581722 8-8 8h-140.476667c-4.418278 0-8-3.581722-8-8v-116.215082c0-4.418278 3.581722-8 8-8z"/><filter id="f" height="170.3%" width="159.4%" x="-24.6%" y="-28.4%"><feOffset dx="8" dy="9" in="SourceAlpha" result="shadowOffsetOuter1"/><feGaussianBlur in="shadowOffsetOuter1" result="shadowBlurOuter1" stdDeviation="14"/><feColorMatrix in="shadowBlurOuter1" result="shadowMatrixOuter1" type="matrix" values="0 0 0 0 0.0755212756   0 0 0 0 0.582569014   0 0 0 0 0.878793025  0 0 0 0.229458042 0"/><feOffset dx="0" dy="2" in="SourceAlpha" result="shadowOffsetOuter2"/><feGaussianBlur in="shadowOffsetOuter2" result="shadowBlurOuter2" stdDeviation="7.5"/><feColorMatrix in="shadowBlurOuter2" result="shadowMatrixOuter2" type="matrix" values="0 0 0 0 0.50398247   0 0 0 0 0.700178215   0 0 0 0 1  0 0 0 0.233828671 0"/><feMerge><feMergeNode in="shadowMatrixOuter1"/><feMergeNode in="shadowMatrixOuter2"/></feMerge></filter><path id="g" d="m20.9333333 101.167213c12.373886-3.5531906 21.28881-8.9560124 26.744772-16.2084653 8.1839431-10.8786793 10.943024-21.4232272 25.0186044-21.4232272s15.8802556 16.1496933 31.0962923 16.1496933c15.216037 0 16.048167-20.5951997 21.105411-28.7729937 3.371496-5.4518626 7.96647-8.1777939 13.78492-8.1777939"/><filter id="h" height="151.3%" width="125.4%" x="-12.9%" y="-15.1%"><feMorphology in="SourceAlpha" operator="dilate" radius="1.32" result="shadowSpreadOuter1"/><feOffset dx="0" dy="6" in="shadowSpreadOuter1" result="shadowOffsetOuter1"/><feMorphology in="SourceAlpha" operator="erode" radius="1.32" result="shadowInner"/><feOffset dx="0" dy="6" in="shadowInner" result="shadowInner"/><feComposite in="shadowOffsetOuter1" in2="shadowInner" operator="out" result="shadowOffsetOuter1"/><feGaussianBlur in="shadowOffsetOuter1" result="shadowBlurOuter1" stdDeviation="3.5"/><feColorMatrix in="shadowBlurOuter1" type="matrix" values="0 0 0 0 0   0 0 0 0 0   0 0 0 0 0  0 0 0 0.144394668 0"/></filter><linearGradient id="i"><stop offset="0" stop-color="#fdc6c6"/><stop offset="1" stop-color="#fab2b2"/></linearGradient><linearGradient id="j" x1="42.314264%" x2="50%" xlink:href="#i" y1="-3.801552%" y2="78.24779%"/><linearGradient id="k" x1="43.487456%" x2="50%" xlink:href="#i" y1="-28.185925%" y2="91.050481%"/><linearGradient id="l"><stop offset="0" stop-color="#ffafaf"/><stop offset="1" stop-color="#f07777"/></linearGradient><linearGradient id="m" x1="45.248892%" x2="61.738507%" xlink:href="#l" y1="-28.185925%" y2="121.546626%"/><linearGradient id="n" x1="31.713261%" x2="55.144278%" xlink:href="#i" y1="-6.145321%" y2="90.676284%"/><linearGradient id="o" x1="42.314264%" x2="50%" xlink:href="#i" y1="8.581204%" y2="71.746388%"/><linearGradient id="p" x1="42.314264%" x2="50%" xlink:href="#i" y1="22.418294%" y2="64.481408%"/><linearGradient id="q" x1="107.85141%" x2="13.834568%" y1="60.763011%" y2="60.763011%"><stop offset="0" stop-color="#f16b79"/><stop offset="1" stop-color="#f69d88"/></linearGradient><linearGradient id="r" x1="68.669473%" x2="68.669473%" y1="-22.754103%" y2="100%"><stop offset="0" stop-color="#9ff6ec"/><stop offset="1" stop-color="#7d9dff"/></linearGradient><path id="s" d="m8.90624038 0h27.60442402c.397645 0 .72.32235498.72.72 0 .05036697-.005285.10059492-.0157683.14985884l-7.5769048 35.60615386c-.070744.3324478-.3643401.5701411-.7042317.5701411h-27.60442398c-.39764502 0-.72-.3223549-.72-.72 0-.0503669.00528503-.1005949.01576827-.1498588l7.57690476-35.60615383c.0707441-.33244779.36434019-.57014117.70423173-.57014117z"/><linearGradient id="t" x1="45.06959%" x2="62.181507%" xlink:href="#l" y1="-28.185925%" y2="121.546626%"/><linearGradient id="u" x1="31.713261%" x2="55.144278%" xlink:href="#i" y1="-5.45003%" y2="90.172558%"/><linearGradient id="v" x1="44.205766%" x2="51.629987%" xlink:href="#i" y1="-12.849681%" y2="95.533473%"/><linearGradient id="w" x1="44.693329%" x2="50%" xlink:href="#i" y1="-28.185925%" y2="91.050481%"/><linearGradient id="x" x1="45.96304%" x2="50%" xlink:href="#i" y1="-28.185925%" y2="91.050481%"/><linearGradient id="y" x1="31.713261%" x2="55.144278%" xlink:href="#i" y1="31.557251%" y2="63.361443%"/><mask id="z" fill="#fff"><use fill="#fff" fill-rule="evenodd" xlink:href="#e"/></mask><mask id="A" fill="#fff"><use fill="#fff" fill-rule="evenodd" xlink:href="#s"/></mask></defs><g fill="none" fill-rule="evenodd"><path d="m558.524599 155.012318 127.818313.157066c5.513248.006775 9.980929 4.474456 9.987704 9.987704l.157066 127.818313c.006786 5.522843-4.464861 10.005494-9.987705 10.012281-.008192.00001-.016384.00001-.024576 0l-127.818313-.157066c-5.513248-.006775-9.980929-4.474456-9.987704-9.987704l-.157066-127.818313c-.006786-5.522843 4.464861-10.005494 9.987705-10.012281.008192-.00001.016384-.00001.024576 0z" fill="#bfe7ff" opacity=".150019" transform="matrix(.70710678 -.70710678 .70710678 .70710678 20.398576 520.246518)"/><g fill="#7367f0"><path d="m237.807146 19.4230043 71.218336.0875143c5.513248.0067747 9.980929 4.4744561 9.987704 9.9877043l.087514 71.2183361c.006787 5.522843-4.464861 10.005494-9.987704 10.012281-.008192.00001-.016384.00001-.024576 0l-71.218337-.087515c-5.513248-.006775-9.980929-4.474456-9.987704-9.987704l-.087514-71.2183361c-.006787-5.5228434 4.464861-10.0054941 9.987704-10.0122806.008192-.0000101.016384-.0000101.024577 0z" filter="url(#a)" opacity=".037574" transform="matrix(.70710678 -.70710678 .70710678 .70710678 34.075376 225.417078)"/><path d="m330.588761 91.1063585 265.600364.3263743c5.513248.0067747 9.980929 4.4744561 9.987704 9.9877042l.326374 265.600363c.006787 5.522843-4.464861 10.005494-9.987704 10.012281-.008192.00001-.016384.00001-.024576 0l-265.600364-.326375c-5.513248-.006774-9.980929-4.474456-9.987704-9.987704l-.326374-265.600363c-.006787-5.5228432 4.464861-10.005494 9.987704-10.0122805.008192-.0000101.016384-.0000101.024576 0z" opacity=".065941" transform="matrix(.70710678 -.70710678 .70710678 .70710678 -29.74461 409.329599)"/><path d="m220.715308 269.000314c6.004812 0 10.872675 4.855914 10.872675 10.845987v169.197397c0 5.990074-4.867863 10.845987-10.872675 10.845987h-169.6137343c-6.0048128 0-10.8726753-4.855913-10.8726753-10.845987v-169.197397c0-5.990073 4.8678625-10.845987 10.8726753-10.845987zm-32.618026 43.383634h-104.3776826v104.121475h104.3776826z" fill-rule="nonzero" opacity=".089565" transform="matrix(.70710678 -.70710678 .70710678 .70710678 -217.89487 215.845249)"/></g><g transform="translate(111.5 356)"><path d="m89.7928662 0-.0004259 143.767423.1463385-.142-.0342694 7.131526 82.6686626 82.194372h-11.019683l-71.7610487-71.384661.0004259 71.344968h-8.7044025l-.000426-68.622949-68.980304 68.662642h-12.1077337l81.0880377-80.643442.000426-152.307879z" fill="url(#b)"/><path d="m70.8557593 140.4h30.2578617c2.761424 0 5 2.238576 5 5v7.413953c0 2.761424-2.238576 5-5 5h-30.2578617c-2.7614237 0-5-2.238576-5-5v-7.413953c0-2.761424 2.2385763-5 5-5z" fill="#c8daff" transform="matrix(-1 0 0 1 171.96938 0)"/></g><g transform="translate(116.5 153)"><path d="m12.7499354 0h152.5511696c2.853191 0 5.16616 2.30415222 5.16616 5.14646802v254.45366098c0 2.763363-2.186255 5.018045-4.929683 5.141173l-.256557.005256-152.5511694-.590679c-2.8453317-.011017-5.14608074-2.311922-5.14608074-5.146429v-253.86298198c0-2.8423158 2.31296884-5.14646802 5.16616054-5.14646802z" fill="#afa7ff"/><path d="m5.27821562 0h152.55116938c2.853192 0 5.166161 2.30415222 5.166161 5.14646802v254.45366098c0 2.763363-2.186256 5.018045-4.929683 5.141173l-.256558.005256-152.55116919-.590679c-2.84533165-.011017-5.1460807-2.311922-5.1460807-5.146429v-253.86298198c0-2.8423158 2.31296885-5.14646802 5.16616051-5.14646802z" fill="#d5d1ff"/><path d="m12.6411704 5.31659919h137.6142196c3.264051 0 5.910088 2.63595013 5.910088 5.88755941v240.2316824c0 3.25161-2.646037 5.88756-5.910088 5.88756h-137.6142196c-3.26405124 0-5.9100876-2.63595-5.9100876-5.88756v-240.2316824c0-3.25160928 2.64603636-5.88755941 5.9100876-5.88755941z" fill="#fff"/><path d="m55.8309554 249.880162h41.6281529c2.3580096 0 4.2695537 1.904258 4.2695537 4.253279v13.823158h-45.8977066c-2.3580096 0-4.2695541-1.904258-4.2695541-4.253279v-9.569879c0-2.349021 1.9115445-4.253279 4.2695541-4.253279z" fill="#a7c3ff"/><path d="m100.661274 263.70332h4.269554v4.253279h-4.269554z" fill="#a7c3ff"/><path d="m53.6961783 249.880162h41.6281529c2.3580097 0 4.2695542 1.904258 4.2695542 4.253279v9.569879c0 2.349021-1.9115445 4.253279-4.2695542 4.253279h-41.6281529c-2.3580096 0-4.2695541-1.904258-4.2695541-4.253279v-9.569879c0-2.349021 1.9115445-4.253279 4.2695541-4.253279z" fill="#c8daff"/></g><g transform="translate(344.5 184)"><path d="m5.27169 0h67.653349v77.7504h-67.653349z" fill="#91d6ff"/><path d="m0 0h67.653349v77.7504h-67.653349z" fill="#e3f4ff"/><path d="m11.9075343 9.1728h43.8382806c2.209139 0 4 1.790861 4 4v51.8416c0 2.209139-1.790861 4-4 4h-43.8382806c-2.20913897 0-3.99999997-1.790861-3.99999997-4v-51.8416c0-2.209139 1.790861-4 3.99999997-4z" fill="#fff"/><path d="m11.9075343 9.1728h1.2716896v59.8416h-1.2716896c-2.20913897 0-3.99999997-1.790861-3.99999997-4v-51.8416c0-2.209139 1.790861-4 3.99999997-4z" fill="#91d6ff"/><path d="m50.6130761 52.2751683-17.3079846-30.1575256c-.1108432-.1931339-.3572654-.2598436-.5503992-.1490004-.0641119.0367951-.1168748.0905068-.1525215.1552642l-16.6006525 30.1575256c-.1073838.1950785-.0362932.4402727.1587853.5476566.0595615.0327864.1264466.0499791.1944357.0499791h33.908637c.2226812 0 .4032-.1805188.4032-.4032 0-.0704241-.0184454-.1396199-.0535002-.2006995z" fill="#83f2d5"/><path d="m52.7894527 40.529368-9.3848136-16.249912c-.1113667-.1928326-.3579688-.2588738-.5508014-.1475071-.0633756.0366013-.1155941.0897619-.1510565.1537818l-9.0012809 16.249912c-.1079012.1947929-.0374616.4401749.1573313.5480761.0597912.03312.1270208.0504963.1953724.0504963h18.3860945c.2226812 0 .4032-.1805187.4032-.4032 0-.0707948-.0186401-.1403417-.0540458-.2016471z" fill="#63cbe8" opacity=".44687"/></g><g transform="translate(441.5 184)"><path d="m5.27169 0h67.653349v77.7504h-67.653349z" fill="#91d6ff"/><path d="m0 0h67.653349v77.7504h-67.653349z" fill="#e3f4ff"/><path d="m11.9075343 9.1728h43.8382806c2.209139 0 4 1.790861 4 4v51.8416c0 2.209139-1.790861 4-4 4h-43.8382806c-2.20913897 0-3.99999997-1.790861-3.99999997-4v-51.8416c0-2.209139 1.790861-4 3.99999997-4z" fill="#fff"/><path d="m20.208143 28.8288h25.91914v25.7712h-25.91914z" fill="#83f2d5"/><path d="m34.265982 18.7824h19.768836v19.656h-19.768836z" fill="#63cbe8" opacity=".44687"/><path d="m11.9075343 9.1728h1.2716896v59.8416h-1.2716896c-2.20913897 0-3.99999997-1.790861-3.99999997-4v-51.8416c0-2.209139 1.790861-4 3.99999997-4z" fill="#91d6ff"/></g><g transform="translate(537.5 184)"><path d="m5.27169 0h67.653349v77.7504h-67.653349z" fill="#91d6ff"/><path d="m0 0h67.653349v77.7504h-67.653349z" fill="#e3f4ff"/><path d="m11.9075343 9.1728h43.8382806c2.209139 0 4 1.790861 4 4v51.8416c0 2.209139-1.790861 4-4 4h-43.8382806c-2.20913897 0-3.99999997-1.790861-3.99999997-4v-51.8416c0-2.209139 1.790861-4 3.99999997-4z" fill="#fff"/><ellipse cx="34.485636" cy="41.7144" fill="#83f2d5" rx="18.23126" ry="18.1272"/><ellipse cx="43.271785" cy="27.3" fill="#63cbe8" opacity=".44687" rx="9.44511" ry="9.3912"/><path d="m11.9075343 9.1728h1.2716896v59.8416h-1.2716896c-2.20913897 0-3.99999997-1.790861-3.99999997-4v-51.8416c0-2.209139 1.790861-4 3.99999997-4z" fill="#91d6ff"/></g><g transform="translate(103.5 323)"><use fill="#000" filter="url(#d)" xlink:href="#c"/><use fill="#fff" fill-rule="evenodd" xlink:href="#c"/><g fill="#ffbf29" fill-rule="nonzero"><path d="m52.8810282 32.382504h29.3687856c.9755107 0 1.7663184.7908077 1.7663184 1.7663184s-.7908077 1.7663184-1.7663184 1.7663184h-29.3687856c-.9755107 0-1.7663184-.7908077-1.7663184-1.7663184s.7908077-1.7663184 1.7663184-1.7663184z" opacity=".465472"/><path d="m52.8810282 22.3733664h17.6182776c.9755107 0 1.7663184.7908077 1.7663184 1.7663184s-.7908077 1.7663184-1.7663184 1.7663184h-17.6182776c-.9755107 0-1.7663184-.7908077-1.7663184-1.7663184s.7908077-1.7663184 1.7663184-1.7663184z"/><path d="m108.842296 22.5346013c.504562-1.1096138 1.811205-1.5992366 2.918468-1.0936031.36621.1672306.67882.431349.904944.762661l.080678.1273336 4.320811 7.3637169c.041118.0700755.131138.0934793.201065.0522737l.018941-.0132756.016629-.016089 2.299092-2.6048722c.806157-.9133763 2.198546-.9989071 3.109987-.1910384.059898.0530917.116845.1093922.170596.168645l.078197.0910612 3.371578 4.1494105c.051221.0630376.143738.0725289.206642.0211992l.017607-.0169968.01455-.019688 5.325609-8.6243764c.640299-1.0369102 1.998164-1.3573252 3.032878-.715667.160219.0993567.306891.2187943.436524.35528l.093976.1055134 2.480993 2.9719525c.364356.4364582.306655 1.0862737-.128878 1.4514035-.411337.3448448-1.012581.3124261-1.385057-.0599219l-.063272-.0692295-2.480992-2.9719526c-.010075-.0120683-.022015-.0224398-.035367-.0307195-.057484-.0356477-.129929-.0267549-.177183.0172038l-.025009.0305073-5.325608 8.6243765c-.129094.209057-.292124.3950395-.48236.5502721-.911026.7433947-2.236132.6363096-3.017978-.2230418l-.081646-.0949475-3.371579-4.1494105c-.005049-.006214-.010596-.0120045-.016586-.0173137-.050636-.0448816-.123537-.0484021-.177533-.0130906l-.0298.0258265-2.299092 2.6048722c-.153612.1740423-.333675.3226947-.533542.4404694-1.013943.5974805-2.309522.289354-2.951897-.6813364l-.064084-.1027698-4.320811-7.3637168c-.015299-.0260735-.038242-.0467907-.065708-.059333-.061514-.0280908-.13226-.0101048-.173599.03948l-.020965.0334269-4.2097 9.2578103c-.156908.3450665-.399501.6430729-.703578.866109l-.116863.0800699-4.99128 3.188995c-.478807.3059163-1.1144255.1649365-1.4196936-.3148872-.2883088-.4531669-.1788419-1.0465026.2375682-1.3687404l.0766519-.0539677 4.9912795-3.1889951c.015954-.0101928.029715-.0233279.040603-.0386203l.014093-.0244583z"/><ellipse cx="29.082507" cy="29.733026" rx="12.044271" ry="12.069842"/></g></g><g transform="translate(103.5 172)"><use fill="#000" filter="url(#f)" xlink:href="#e"/><use fill="#fff" fill-rule="evenodd" xlink:href="#e"/><path d="m20.9333333 100.042737c12.373886-3.5378461 21.28881-8.9173356 26.744772-16.1384684 8.1839431-10.8316991 10.943024-21.3307098 25.0186044-21.3307098s15.8802556 16.07995 31.0962923 16.07995c15.216037 0 16.048167-20.5062583 21.105411-28.648736 3.371496-5.4283185 7.96647-8.1424777 13.78492-8.1424777v69.7547539c0 .972021-.787979 1.76-1.76 1.76h-114.2299997c-.9720211 0-1.76-.787979-1.76-1.76z" fill="#ffe3b5" mask="url(#z)" opacity=".414737"/><g mask="url(#z)" stroke-linecap="round"><use fill="#000" filter="url(#h)" xlink:href="#g"/><use stroke="#ffbf29" stroke-width="2.64" xlink:href="#g"/></g><path d="m12.211111 13.081967h48.844444v5.232787h-48.844444z" fill="#ffbf29" fill-rule="nonzero" mask="url(#z)"/><path d="m14.8275046 26.1639344h17.4449908c1.4449942 0 2.6163935 1.1713993 2.6163935 2.6163935s-1.1713993 2.6163934-2.6163935 2.6163934h-17.4449908c-1.4449942 0-2.6163935-1.1713992-2.6163935-2.6163934s1.1713993-2.6163935 2.6163935-2.6163935z" fill="#ffbf29" fill-rule="nonzero" mask="url(#z)" opacity=".465472"/><g fill="#fff"><path d="m126.036111 19.1868852c1.686003 0 3.052778-1.3666324 3.052778-3.052459 0-1.6858265-1.366775-3.052459-3.052778-3.052459s-3.052778 1.3666325-3.052778 3.052459c0 1.6858266 1.366775 3.052459 3.052778 3.052459z" mask="url(#z)"/><path d="m134.758333 19.1868852c1.686003 0 3.052778-1.3666324 3.052778-3.052459 0-1.6858265-1.366775-3.052459-3.052778-3.052459-1.686002 0-3.052777 1.3666325-3.052777 3.052459 0 1.6858266 1.366775 3.052459 3.052777 3.052459z" mask="url(#z)"/><path d="m143.480556 19.1868852c1.686002 0 3.052777-1.3666324 3.052777-3.052459 0-1.6858265-1.366775-3.052459-3.052777-3.052459-1.686003 0-3.052778 1.3666325-3.052778 3.052459 0 1.6858266 1.366775 3.052459 3.052778 3.052459z" mask="url(#z)"/></g></g><g transform="matrix(-1 0 0 1 501.5 392)"><path d="m33.020018 182.306488 40.0255629-2.198422h12.2740336l40.1873955 2.198741c.890846.04874 1.588221.785313 1.588221 1.677491v2.980674h-95.6630772v-2.981013c0-.89204.6971665-1.62855 1.5878642-1.677471z" fill="#bfe7ff"/><path d="m74.7083077 111.996133h9.1107692v68.56906h-9.1107692z" fill="#bfe7ff"/><g fill="#91d6ff"><path d="m72.430615 170.965525h13.666154v15.999448h-13.666154z"/><path d="m68.7152308 106.967735h21.096923c.4639192 0 .84.376081.84.84v7.277442c0 .343112-.2086768.651734-.5270946.779545l-5.0165236 2.013607c-.0994884.039935-.2057014.060456-.3129053.060456h-11.0638759c-.107204 0-.213417-.020521-.3129054-.060456l-5.0165236-2.013607c-.3184178-.127811-.5270946-.436433-.5270946-.779545v-7.277442c0-.463919.3760808-.84.84-.84z"/><path d="m29.154462 186.964972h9.110769v9.142541h-9.110769z"/><path d="m120.262154 186.964972h9.110769v9.142541h-9.110769z"/><path d="m74.708308 186.964972h9.110769v9.142541h-9.110769z"/></g><path d="m75.6448024 94.1681768h57.3470106c4.039429 0 7.314033 3.2746042 7.314033 7.3140332s-3.274604 7.314033-7.314033 7.314033h-57.3470106c-4.039429 0-7.3140332-3.274604-7.3140332-7.314033s3.2746042-7.3140332 7.3140332-7.3140332z" fill="#bfe7ff"/><path d="m32.7987692 26.5133702h12.755077v36.5701657c0 12.1900553 6.8330769 24.3801105 20.4992307 36.5701658h-16.8549231c-10.932923-10.3808466-16.3993846-22.5709018-16.3993846-36.5701658 0-12.1900552 0-24.3801105 0-36.5701657z" fill="#91d6ff"/><path d="m38.2652308 26.5133702h12.7550769v36.5701657c0 12.1900553 6.8330769 24.3801105 20.4992308 36.5701658h-15.0327693c-12.1476923-10.0958522-18.2215384-22.2859074-18.2215384-36.5701658 0-12.1900552 0-24.3801105 0-36.5701657z" fill="#bfe7ff"/><path d="m9.31107692 0h65.68380258c4.6391919 0 8.4 3.7608081 8.4 8.4v37.0151931c0 4.6391919-3.7608081 8.4-8.4 8.4h-65.68380258c-4.6391919 0-8.4-3.7608081-8.4-8.4v-37.0151931c0-4.6391919 3.7608081-8.4 8.4-8.4z" fill="#bfe7ff"/><path d="m6.4241856 0c3.26217697 0 5.9066939 2.64451694 5.9066939 5.90669391v42.00180529c0 3.262177-2.64451693 5.9066939-5.9066939 5.9066939s-5.90669391-2.6445169-5.90669391-5.9066939v-42.00180529c0-3.26217697 2.64451694-5.90669391 5.90669391-5.90669391z" fill="#91d6ff"/><path d="m31.0020331 94.1681768h55.5248568c4.039429 0 7.3140332 3.2746042 7.3140332 7.3140332s-3.2746042 7.314033-7.3140332 7.314033h-55.5248568c-4.0394289 0-7.3140331-3.274604-7.3140331-7.314033s3.2746042-7.3140332 7.3140331-7.3140332z" fill="#91d6ff"/></g><g transform="matrix(-1 0 0 1 443.5 450)"><path d="m65.8908818 93.4149994s-5.2458614 10.5952026-.9454414 13.9340096c4.3068867 3.339454 15.6832714 9.597373 15.6832714 9.597373l-30.1398066-1.894125 6.6996016-23.1078072z" fill="url(#j)"/><path d="m53.4746784 103.00254c.9484452.452753-.6109667 4.709876 2.7260334 4.410582 3.3360857-.298341 5.4308372-4.698766 7.8910747-4.412816 2.4611518.284997 4.0229227 4.716331 8.7075222 7.80268 4.6836852 3.087303 11.6286592 6.768687 11.1633077 9.872193-.4653515 3.103507-11.3942551 3.934667-16.9309324 2.907155-5.5366773-1.026559-8.1212524-3.252201-11.7133272-3.074912s-5.8493496-.26212-6.9757014-2.56878c-1.1254375-2.306661 4.0375362-15.458571 5.132023-14.936102z" fill="#eedfe8"/><path d="m53.7411757 117.167073.3072085-.017588c4.4517259-.375439 7.505892 2.424367 11.7428214 3.213612 4.2378513.790157 15.4137206 1.063287 17.1984672-1.587623.0845621-.125536.1630686-.254133.235951-.384824.5994398.737833.8818394 1.52597.7369955 2.445205-.4653871 2.953526-11.3951279 3.74452-16.9322292 2.766663-5.5371014-.976949-8.1218744-3.095034-11.7142244-2.926313l-.6384902.023945c-3.2233354.087561-5.2795764-.40644-6.3377455-2.468586-.2575996-.502415-.1998225-1.583031.0588291-2.948473 1.5024504 1.027973 3.3989176 1.94328 5.3424166 1.883982z" fill="#ec7aa5"/><path d="m20.4884247.031617c9.1246504.4074082 59.9098838 11.6399899 69.1367012 13.5483269 9.2268174 1.9083371 17.0274941 12.2344846 9.9916191 24.191592-7.9024257 13.4224836-28.2921312 51.5420259-33.2425933 60.1351137-2.4502714 4.2532184-14.8114789 1.8685434-11.9078871-5.2701623 5.4128161-13.3078282 7.9265332-46.7383609 21.7266777-58.9276264 0 0-46.4097335 8.0770739-66.45680382-1.1749724-14.56969336-6.7254687-11.2736239-33.48716467 10.75228622-32.5022715z" fill="#413c75"/></g><g transform="matrix(-1 0 0 1 415.98 373.32)"><path d="m56.620558 19.7542764s-.1031089-5.4244253 2.4939451-9.3044654c2.597054-3.88004001 2.7001629-8.0014933 4.6656752-7.8665859 1.9655123.13490739.0193329 9.7146237.0193329 9.7146237s2.4939452-.9527432 4.2854613-2.1578729c1.7915162-1.20512976 7.2240634-7.1462192 8.493591-6.0934251 2.1523971 1.79381655-1.3146377 11.9125169-3.2028184 13.9354824-1.894625 2.023611-11.2441752 7.6779668-11.2441752 7.6779668l-27.5346006 27.7391758-4.1169693-14.725799z" fill="url(#k)"/><path d="m1.54663565 17.3054119c4.24457031 9.8448164 12.01648435 27.9300957 15.22048825 33.3257558 4.015293 6.7572149 10.346875 9.734293 17.7601758 4.7207618 1.0339832-.6992848 3.0357515-2.271924 6.005305-4.7179176-.659071-6.4220445-3.0584914-11.7897384-7.1943938-16.1054247-1.8723783 1.5490667-2.8085674 2.3236001-2.8085674 2.3236001s-7.965918-20.419793-14.3739258-32.24874027c-5.5496875-10.234-21.07000002-2.26455469-14.60908205 12.70196487z" fill="#ea5455"/><path d="m30.6119482 36.8627693c1.4263262 4.8378329 2.3062025 7.116693 2.6396289 6.8365801.3334263-.2801129.20605-3.1911513-.3821289-8.7331153z" fill="#000" fill-opacity=".159856"/></g><g transform="matrix(-1 0 0 1 444.5 317)"><path d="m11.7218772 35.4114385v8.7111819l-6.3970555-5.1506982s-1.96624316-8.3462071-3.56540249-14.5451813c-1.00280939-3.887286-3.44610838-17.04316909 6.38998645-16.4267409 8.05752984-14.20365389 31.52344764-5.41278857 31.71031994 11.9399601.2247593 20.870883.041338 28.9968246.041338 28.9968246-13.269498.7615225-20.7383464-1.1569602-28.1791864-13.5253462z" fill="#422851"/><path d="m5.18659098 51.997375s5.95087032-1.3970321 6.15731562-11.1478133c.2064453-9.7507813.0615234-13.0791993.0615234-13.0791993l13.1080078-.2365234s.1426727 10.8670894.1449219 14.7977539c.0054687 9.5572266 7.0338178 10.3407743 7.0338178 10.3407743s-1.2013959 7.8852023-13.0788373 8.5530734c-9.27363286.5222656-13.42674922-9.2280656-13.42674922-9.2280656z" fill="url(#m)"/><path d="m8.34980463 22.9012472c-5.84746094-.2262696-4.89367211 8.3339455 1.18074195 8.3223244 0 0 3.52811232 12.1602928 15.77726582 12.1602928 9.9478923 0 10.5950196-14.1730469 10.6852539-17.0003907.0970704-3.0146484.109375-12.9185547.109375-12.9185547l-27.98027339-.0129882z" fill="url(#n)"/><path d="m7.89727546 22.8450133c2.42330524.3995833 2.12926404 2.003971 2.78832194 1.8637132 3.3459863-.7113794 16.890053.2270463 18.6340216-7.2207433 2.1699287 4.6530298 2.7003658 5.7969206 7.4786067 7.0458558v-13.6349551l-30.22177544-2.8988839s.46911959 14.7037464 1.3208252 14.8450133z" fill="#422851"/><g stroke-linecap="round"><path d="m23.1629909 34.2395688s2.0113931 3.2510856 5.9398591 2.0952113" stroke="#f77b7b" stroke-width="1.5" transform="matrix(.95105652 -.30901699 .30901699 .95105652 -9.6637 9.808676)"/><path d="m24.8673644 38.1201267c.9218822.3869044 1.7962883.3869044 2.561443-.0577073" stroke="#f49494" transform="matrix(.99939083 .0348995 -.0348995 .99939083 1.350239 -.889265)"/><path d="m8.61933251 27.6491329c.36746426-1.3244108.20463685-2.4811907-1.11064158-3.0097341" stroke="#f77b7b" transform="matrix(.97437006 -.22495105 .22495105 .97437006 -5.672311 2.503293)"/></g></g><g transform="matrix(-1 0 0 1 459.5 367)"><path d="m21.5158423 1c7.4681307 4.57401367 16.1017601 6.25091256 24.1387928 1.28384364 13.1157752 25.86159846 16.3843753 56.71797476 13.2295556 90.82244466-19.1254483 7.5717017-35.1995135 6.0826069-48.8841907-2.5717923z" fill="#ffe4f4"/><g transform="translate(2 79)"><path d="m112.584626 97.840369s-.158146 12.470571 10.117594 17.133132c10.269273 4.661913 17.585799 4.381254 16.65458 7.985847-.931219 3.603946-27.661176 3.458445-30.157359.639568-2.127577-2.397888-6.754108-24.7270908-8.028067-23.019856z" fill="url(#o)"/><path d="m105.12081 115.451758c1.574718-1.133175 2.898955 5.401406 7.17648 3.583996 4.277524-1.816468.904396-7.822578 3.59632-8.930342 2.691924-1.107763 7.890168 4.847993 14.794065 6.29552 6.903897 1.446587 12.509449 2.713398 14.102585 5.400453 1.372123 2.309645 0 3.048008 0 3.048008s-6.646464 3.318869-10.776338 4.049408c-5.999506 1.061261-23.339237 1.767999-25.239029-.167058-1.166765-1.186822-4.441442-12.712456-3.654083-13.279985z" fill="#eedfe8"/><path d="m145.164844 122.072983c1.301628 2.122576-.752264 3.226792-.998403 3.349355l-.990353.421941c-1.880682.781281-6.12215 2.457648-9.257005 3.056906-5.748151 1.098815-23.547645 1.749907-25.462468-.139565-.336415-.331514-.751555-1.54458-1.154272-3.120676l1.221554.13324c5.877934.62241 18.998667 1.749337 25.47395.223881 5.747469-1.353997 8.893916-3.581499 10.328584-4.881551.348987.29928.630737.617129.838413.956469z" fill="#ec7aa5"/><path d="m5.89797632.17646042c-8.8437156 18.67697358-7.0514277 31.22210398 5.37686368 37.63539118 18.0287738 9.3032662 72.0007803-1.7 72.0007803-1.7s-.9644331 7.7647911 0 14.690049c2.5188621 18.0870705 14.4983382 48.2210542 17.0328987 52.0074624 3.505004 5.236166 14.181945 1.287286 14.38306-3.0726438.201115-4.3599294-8.048822-60.0435706-9.303381-70.662051-1.248091-10.6191272-5.188459-12.161594-16.6972691-15.0644033-2.6439884-.66688-33.9107727-8.4371818-36.7750785-8.2107007-16.4073712 1.29733333-31.7466625-.57703459-46.01787408-5.62310378z" fill="#524d87"/><path d="m20.44 34.9205711c17.8490882 2 65.1038118-2.1225581 67.0016672-.2492627 1.8119313 1.7884831 1.5096151 32.9040865 5.574195 50.9135261l-.618153-1.7006498c-3.8225815-10.6169499-7.7917742-23.5297581-9.1220889-33.0822841-.9644331-6.9252579 0-14.690049 0-14.690049l-2.1762171.4212377c-10.2594819 1.9271321-53.9592423 9.4656366-69.8245632 1.2787623-8.59637389-4.4359287-12.10428959-11.8054431-10.5237471-22.1085433 2.72161485 11.6454373 9.2845668 18.0514509 19.6889071 19.2172628z" fill="#fff" fill-opacity=".056108"/></g><path d="m21.8425791 1.02073112c12.3683457 40.51668028 19.7858021 97.95837938-18.8425791 87.96510288 20.5197512-37.7803109-7.37555616-54.7842828-1.05282787-74.3100256 2.16172685-6.6758084 19.73399307-14.1788235 19.89540697-13.65507728z" fill="#ea5455"/><path d="m7.89213813 17.8454787c13.97939717 2.1095481 2.45573867 26.5169265 7.07007057 30.1938631s12.6459214 4.0736282 13.5119538 6.3200262c1.7405557 4.5148203-6.6732935 15.9119147-25.2415476 34.1912831l-.2326149.4351829c17.8745494-32.9100497-.9881377-50.0550606-1.9691488-66.8346427 2.07108583-3.2485239 4.35830916-4.6834222 6.86128693-4.3057126z" fill="#000" fill-opacity=".159856"/><path d="m45 2c4.7198862 11.8383269 6.9886728 21.1267812 9.1055316 38.5033862 1.1768249 9.6480335 1.4707538 24.4268307.8817868 44.3363916l5.8326877 1.1469758c2.7798165-30.7593619 3.70513-48.1193249 2.7759405-52.079889-2.3396861-9.9689007-3.9247295-15.7934117-7.0139254-24.9068646-1.7015899-5.00195048-11.5820212-7-11.5820212-7z" fill="#ea5455"/></g><g transform="matrix(-1 0 0 1 479.5 376.9)"><path d="m44.44 37.1174069s7.6155701-7.6252969 10.2529895-8.5102031 17.0842314-1.9479554 16.9865492.0516357c-.1107065 2.1422346-9.4071814 2.0189545-10.2667847 3.0729675-.8596034 1.0533676-2.0549678 9.2565428-5.304529 10.0652864-3.2430491.8087436-9.9656841 3.2029066-9.9656841 3.2029066l-29.9242804 15.4615348 3.188124-15.4603415z" fill="url(#p)"/><path d="m21.5191872 4.83146563c-9.0770312 12.81072457-16.8267773 32.32458207-19.80150386 39.93247457-2.97472656 7.6078926.02603516 19.0830137 13.10660156 16.8302168 1.0382922-.1786741 2.4018968-.5966443 4.0908139-1.2539105 4.8096523-6.5930805 5.6532318-12.2534386 3.8582484-17.2932719-1.1278124.4760695-1.6917185.7141043-1.6917185.7141043s13.0007812-23.0442207 16.1753906-29.2217754c5.3027734-10.31689256-7.7425196-20.99533787-15.7378321-9.70783787z" fill="#ea5455"/><path d="m21.0816287 43.7610789c-4.402396 2.1503252-6.326758 2.7525491-5.773086 1.8066719.553672-.9458773 3.3164936-3.0412056 8.2884646-6.2859851z" fill="#000" fill-opacity=".159856"/></g><g transform="translate(208.975884 441.55493)"><path d="m79.6619936 0h12v147.579718h-12z" fill="#dbdbdb"/><path d="m77.6619936 0h8v147.579718h-8z" fill="#efefef"/><path d="m2.49864952 0h11.99999998v147.579718h-11.99999998z" fill="#dbdbdb"/><path d="m.49864952 0h8v147.579718h-8z" fill="#efefef"/></g><g transform="translate(182.5 437)"><path d="m310.633312 4.55492958h12v147.57971842h-12z" fill="#dbdbdb"/><path d="m308.633312 4.55492958h8v147.57971842h-8z" fill="#efefef"/><path d="m228.469968 4.55492958h12v147.57971842h-12z" fill="#dbdbdb"/><path d="m226.469968 4.55492958h8v147.57971842h-8z" fill="#efefef"/><path d="m111.448489 0h213.003472c.927839 0 1.68.75216162 1.68 1.68v15.64c0 .9278384-.752161 1.68-1.68 1.68h-213.003472c-.927839 0-1.68-.7521616-1.68-1.68v-15.64c0-.92783838.752161-1.68 1.68-1.68z" fill="#dbdbdb"/><path d="m20.1558842 0h212.0905468c.927838 0 1.68.75216162 1.68 1.68v15.64c0 .9278384-.752162 1.68-1.68 1.68h-212.0905468c-.9278383 0-1.68-.7521616-1.68-1.68v-15.64c0-.92783838.7521617-1.68 1.68-1.68z" fill="#dbdbdb"/><path d="m0 0h338v9.760563h-338z" fill="#efefef"/></g><g transform="translate(244.19888 391)"><path d="m14.6555829 14.4692915v-4.1884791l5.2834167-.0002799.0001161-2.22088331c0-1.22671454.9856326-2.22116316 2.201472-2.22116316s2.201472.99444862 2.201472 2.22116316v4.63271171c0 .9813717-.788506 1.7769306-1.7611776 1.7769306z" fill="#02b596"/><path d="m0 16.88084v-3.9980937c0-1.2267145.98563259-2.2211631 2.201472-2.2211631s2.201472.9944486 2.201472 2.2211631l-.00027733 2.220649h2.64116666l.00087707-10.21683634c0-2.69877199 2.16839169-4.88655896 4.8432384-4.88655896 2.6748467 0 4.8432384 2.18778697 4.8432384 4.88655896v25.32126004h-9.6864768l-.00087707-10.6623771-4.40206693.0007939c-1.4590073 0-2.6417664-1.1933383-2.6417664-2.6653958z" fill="#02d3af"/></g><g transform="translate(243.5 414.269328)"><path d="m1.118208 0h22.36416l-1.5997187 21.5203661c-.0437616.5887069-.5299497 1.0438311-1.1150762 1.0438311h-16.93457015c-.58512658 0-1.07131466-.4551242-1.11507625-1.0438311z" fill="url(#q)"/><path d="m1.118208 0h22.36416c.6175692 0 1.118208.50511676 1.118208 1.12820986v4.51283944c0 .6230931-.5006388 1.12820986-1.118208 1.12820986h-22.36416c-.61756923 0-1.118208-.50511676-1.118208-1.12820986v-4.51283944c0-.6230931.50063877-1.12820986 1.118208-1.12820986z" fill="#ffb3a4"/></g><g transform="translate(311.5 389)"><path d="m7.18087287 45.5196672h105.25617413c.832571 0 1.507503.6749322 1.507503 1.5075033 0 .832571-.674932 1.5075032-1.507503 1.5075032h-105.25617413c-.83257107 0-1.50750327-.6749322-1.50750327-1.5075032 0-.8325711.6749322-1.5075033 1.50750327-1.5075033z" fill="#8f84ff"/><path d="m78.5032336 45.5196672h33.9338134c.832571 0 1.507503.6749322 1.507503 1.5075033 0 .832571-.674932 1.5075032-1.507503 1.5075032h-33.9338134c-.8325711 0-1.5075033-.6749322-1.5075033-1.5075032 0-.8325711.6749322-1.5075033 1.5075033-1.5075033z" fill="#7367f0"/><path d="m4.08948722 0h66.26828128c1.8117422 0 3.3412141 1.34640321 3.5709421 3.14352164l4.9150802 38.44972336c.252106 1.9721769-1.1422869 3.7753145-3.1144638 4.0274205-.1513896.0193523-.3038568.0290579-.4564783.0290579h-66.26828134c-1.81174216 0-3.34121403-1.3464032-3.57094211-3.1435216l-4.91508014-38.44972344c-.25210603-1.97217687 1.14228688-3.77531443 3.11446375-4.02742046.15138967-.01935235.30385678-.0290579.45647836-.0290579z" fill="#7367f0"/><path d="m4.08948722 0h63.93409498c1.8117421 0 3.341214 1.34640321 3.5709421 3.14352164l4.9150801 38.44972336c.2521061 1.9721769-1.1422869 3.7753145-3.1144637 4.0274205-.1513897.0193523-.3038568.0290579-.4564784.0290579h-63.93409494c-1.81174216 0-3.34121403-1.3464032-3.57094211-3.1435216l-4.91508014-38.44972344c-.25210603-1.97217687 1.14228688-3.77531443 3.11446375-4.02742046.15138967-.01935235.30385678-.0290579.45647836-.0290579z" fill="#b1a9ff"/><ellipse cx="37.315147" cy="23.551241" fill="#fff" rx="4.648306" ry="5.07496" transform="matrix(.79863551 -.60181502 .60181502 .79863551 -6.659545 27.1992)"/></g><g transform="translate(438.5 426)"><path d="m1 0h45.5c3.0375661 0 5.5 2.46243388 5.5 5.5s-2.4624339 5.5-5.5 5.5h-45.5c-.55228475 0-1-.4477153-1-1v-9c0-.55228475.44771525-1 1-1z" fill="#f16b79"/><path d="m1 2.2h26.0333333c1.8225397 0 3.3 1.47746033 3.3 3.3s-1.4774603 3.3-3.3 3.3h-26.0333333c-.55228475 0-1-.44771525-1-1v-4.6c0-.55228475.44771525-1 1-1z" fill="#eaefff" fill-rule="nonzero"/></g><g transform="matrix(-1 0 0 1 673.5 391)"><path d="m0 0h131.195077v198.347541h-131.195077z" fill="#91d6ff"/><path d="m35.401846 0h95.793231v198.347541h-95.793231z" fill="#bfe7ff"/><path d="m51.4116923 133.623607h63.7735387c4.241547 0 7.68 3.438453 7.68 7.68v41.012459c0 4.241546-3.438453 7.68-7.68 7.68h-63.7735387c-4.2415469 0-7.68-3.438454-7.68-7.68v-41.012459c0-4.241547 3.4384531-7.68 7.68-7.68z" fill="#e3f4ff"/><path d="m70.8036923 133.623607h24.9895385v6.599344c0 2.120773-1.7192266 3.84-3.84 3.84h-17.3095385c-2.1207734 0-3.84-1.719227-3.84-3.84z" fill="#91d6ff"/><path d="m45.7316923 19.2257923h69.4535387c4.241547 0 7.68 3.4384532 7.68 7.68v30.1381421c0 4.2415469-3.438453 7.68-7.68 7.68h-69.4535387c-1.1045695 0-2-.8954305-2-2v-41.4981421c0-1.1045694.8954305-2 2-2z" fill="#91d6ff"/><path d="m68.7655385 8.35147541h63.7735385c4.241547 0 7.68 3.43845309 7.68 7.67999999v41.012459c0 4.2415469-3.438453 7.68-7.68 7.68h-63.7735385c-4.2415469 0-7.68-3.4384531-7.68-7.68v-41.012459c0-4.2415469 3.4384531-7.67999999 7.68-7.67999999z" fill="#e3f4ff"/><path d="m51.4116923 70.987541h63.7735387c4.241547 0 7.68 3.4384531 7.68 7.68v41.012459c0 4.241547-3.438453 7.68-7.68 7.68h-63.7735387c-4.2415469 0-7.68-3.438453-7.68-7.68v-41.012459c0-4.2415469 3.4384531-7.68 7.68-7.68z" fill="#e3f4ff"/><g fill="#91d6ff"><path d="m70.8036923 70.987541h24.9895385v6.5993442c0 2.1207735-1.7192266 3.84-3.84 3.84h-17.3095385c-2.1207734 0-3.84-1.7192265-3.84-3.84z"/><path d="m88.1575385 8.35147541h24.9895385v6.59934429c0 2.1207734-1.719227 3.84-3.84 3.84h-17.3095385c-2.1207735 0-3.84-1.7192266-3.84-3.84z"/></g></g><g transform="translate(583.5 349)"><path d="m29.3617629 20.6769231h7.04l7.5982371 20.6769231h-7.04z" fill="#7367f0"/><path d="m11.2076745 0h31.8041748c.4418278 0 .8.3581722.8.8 0 .0559633-.0058722.11177213-.0175203.16650982l-8.4595238 39.75384618c-.0786046.3693864-.4048224.6334902-.7824797.6334902h-31.80417481c-.4418278 0-.8-.3581722-.8-.8 0-.0559633.00587225-.1117722.0175203-.1665099l8.45952381-39.75384612c.0786046-.36938643.4048224-.63349018.7824797-.63349018z" fill="#a7c3ff"/><path d="m9.4476745 0h31.8041748c.4418278 0 .8.3581722.8.8 0 .0559633-.0058722.11177213-.0175203.16650982l-8.4595238 39.75384618c-.0786046.3693864-.4048224.6334902-.7824797.6334902h-31.80417481c-.4418278 0-.8-.3581722-.8-.8 0-.0559633.00587225-.1117722.0175203-.1665099l8.45952381-39.75384612c.07860455-.36938643.40482243-.63349018.7824797-.63349018z" fill="url(#r)"/><g transform="translate(2.2 1.723077)"><use fill="#b3ffeb" fill-rule="nonzero" xlink:href="#s"/><g mask="url(#A)"><g transform="translate(-12.1 6.892308)"><ellipse cx="29.15" cy="3.769231" fill="#fff" rx="3.85" ry="3.769231"/><ellipse cx="17.875" cy="32.038461" fill="#6de9c9" rx="17.875" ry="17.5"/><ellipse cx="45.925" cy="26.923077" fill="#83f2d5" rx="21.175" ry="20.461539"/></g></g></g></g><g transform="translate(104.5 252)"><path d="m9.61629772 54.292968c-11.72348633-2.7131696-12.49558106-18.7049107-3.58251954-24.2521763-9.19195149-19.1490327 12.06451822-38.16153273 26.62500812-26.43621651 9.5455241-4.06052828 17.4779785 11.78448661 8.5958008 24.09073661 3.724137 21.1301897-3.8552327 26.5921317-17.518221 26.8241629z" fill="#422851"/><path d="m9.76214969 50.4736905s5.70291731-1.3305068 5.90076081-10.6169651c.1978434-9.2864583.0589599-12.4563802.0589599-12.4563802l12.5618408-.2252604s.1369322 10.3496088.1388835 14.0930989c.0052409 10.0545015 7.0548907 9.2055068 7.0548907 9.2055068s-1.4654864 8.1525661-12.8480344 8.7886339c-8.8872315.4973958-12.86730131-8.7886339-12.86730131-8.7886339z" fill="url(#t)"/><path d="m12.7935628 22.7630925c-5.60381676-.2154948-4.68976914 7.937091 1.1315443 7.9260233 0 0 3.3811077 11.5812312 15.1198798 11.5812312 9.5333967 0 10.1535604-13.4981399 10.240035-16.1908482.0930257-2.8710938.1048177-12.3033854.1048177-12.3033854l-26.8144287-.0123698z" fill="url(#u)"/><g stroke-linecap="round"><path d="m26.9887377 33.55577s1.9321291 3.1016386 5.692654 2.0070212" stroke="#f77b7b" stroke-width="1.5" transform="matrix(.95105652 -.30901699 .30901699 .95105652 -9.255322 10.916719)"/><path d="m28.6229283 37.2575297c.8833834.3682918 1.7213496.3681102 2.4547095-.0554915" stroke="#f49494" transform="matrix(.99939083 .0348995 -.0348995 .99939083 1.322189 -1.018998)"/><path d="m13.0536757 27.2861215c.3503147-1.2612632.1928116-2.3635192-1.067957-2.8687691" stroke="#f77b7b" transform="matrix(.97437006 -.22495105 .22495105 .97437006 -5.492418 3.497137)"/></g><path d="m11.906939 21.7558029s3.0715264 4.0958789 3.6937012 4.1176339c.6221747.021755.840039-5.3268973.840039-5.3268973 3.7678223-.2860491 13.3034001-2.1731152 15.640861-6.5692895 1.634654 3.8789314 4.7594727 5.6018788 6.8125895 5.2710194l.3891358 8.2407924.9583333-16.5674949h-29.0859321z" fill="#422851"/></g><g transform="translate(135.5 280)"><g transform="translate(52.849275)"><path d="m1.20251955 27.3289525s-1.67375054-9.3408901-1.07195259-11.2324219c.51403574-1.6347656 5.3723004-3.9921178 5.3723004-3.9921178s8.45024614-13.36816403 10.29952104-12.00711492c1.5044949 1.10365513-4.4006474 10.95933312-4.4006474 10.95933312s5.3848378 5.6576451 5.3096131 8.186384c-.0752248 2.5293666-8.7887575 10.4464285-8.7887575 10.4464285z" fill="url(#v)"/><path d="m5.68466049 11.9700657s3.74243097-.5097656 4.33796021.6566686c.507767.9937918-2.60152239 3.8125229-2.60152239 4.6048409 0 .7923181.04444326 6.7896732.29463025 6.8441685s3.74869974-9.786621 3.00272104-11.8683733c-.6143354-1.7088448-5.03378911-.2373047-5.03378911-.2373047z" fill="#f28585"/></g><path d="m9.55009 26.2240417c-5.61678083-2.3353794-12.41835135 4.3681641-8.27472175 10.7672294 6.6197774 10.2317243 31.05718105 37.0970728 42.32208635 37.1366696 10.117728.0351103 19.4123529-40.2090747 19.1992161-43.4164548-.2131368-3.2080078-8.4251712-7.2214704-11.4090861-4.9557756-2.9901835 2.2656947-12.4496949 28.813058-12.4496949 28.813058s-23.6832567-25.9704241-29.3877997-28.3447266z" fill="#7367f0"/><path d="m38.9378897 54.5687683c2.1311661 3.6686964 3.29506 5.228755 3.4916818 4.6801758s-.5807006-3.1871814-2.3319671-7.9158064z" fill="#000" fill-opacity=".302803"/></g><g transform="translate(112.5 375)"><path d="m25.3464375 187.709033s-1.1199375 9.205553 3.056625 12.721486c4.1765625 3.515311-11.9356875 2.246393-11.9356875 2.246393l-.1175625-15.114532z" fill="url(#w)"/><path d="m16.313625 195.867813c1.4355.077055 1.2065625 4.392119 3.130875 4.211911 1.9243125-.18083 5.178-4.481904 7.9685625-3.035263 2.89575 1.504431 18.767625 11.557267 19.7019375 14.141085 1.0456875 2.880231-5.7234375 3.095239-10.5620625 2.885203-4.8448125-.210658-7.0785-2.391182-9.42975-2.33712-2.3574375.054684-2.9143125 1.523695-4.67775 1.928233-1.7881875.411372-6.26175.349231-6.6763125-.937707-.433125-1.336651-.8848125-16.934018.5445-16.856342z" fill="#222d4e"/><path d="m0 0s9.6301875 92.7193077 10.416 101.191173c.7858125 8.471865-.7858125 14.606201-1.43025 23.356563s2.457375 63.783948 2.457375 63.783948c4.5601875 2.754707 9.986625 3.295333 16.8856875.083269 0 0 6.336-68.558818 6.274125-84.174206-.037125-9.3149215.928125-103.19491556.928125-103.19491556z" fill="#2b256a"/><g fill="#fff"><path d="m15.3878116 101.952365c.7909893 5.865186-1.3338509 16.975339-6.37452049 33.330459l-.0634974-2.689147c-.07201701-3.5557-.0742173-6.328525.02372108-7.867247l.01223521-.178694c.62295625-8.458683 2.1123177-14.472836 1.5010948-22.516985l-.1322202-1.486648c-.3302051-3.4283411-1.35650196-13.4856187-2.64244026-25.9910996l.70561794 2.0434916c3.90542502 11.4060196 6.22855892 19.8580155 6.97000932 25.35587z" fill-opacity=".077169"/><path d="m29.0943827 198.068388-.6473227.987598c-.3027568.461906-.1737413 1.081787.2881642 1.384544.0130125.008529.0262222.016753.0396183.024666l9.5661205 5.650341c.2933623.173278.654763.185266.9589638.031811l1.276871-.644124c-3.7201266-2.705995-7.4467975-5.126907-11.4824151-7.434836z" fill-opacity=".540975"/></g></g><g transform="translate(83.5 372)"><path d="m13.4593149 192.203698.8087043 14.0298-10.36722435.274876 1.94859188-14.304676z" fill="url(#x)"/><path d="m3.80350712 201.367438c7.34729148 5.540836 10.16656838-1.392031 10.79285818-.704842 1.1917748 1.307516 3.4476342 14.32792 2.2193765 16.152995-1.0823261 1.616442-15.81533757 1.643681-16.63012236.121341-1.0701651-2.015754 2.80076331-16.185714 3.61788768-15.569494z" fill="#222d4e"/><path d="m8.0641315 204.967266h2.0743549c.4899335 0 .9077195.354957.9868654.838455l.6160076 3.763158c.0892184.545031-.2802904 1.059192-.8253212 1.14841-.053404.008742-.1074295.013135-.1615443.013135h-3.30636998c-.55228475 0-1-.447716-1-1 0-.054115.0043926-.108141.01313453-.161545l.61600759-3.763158c.07914595-.483498.49693191-.838455.98686546-.838455z" fill="#fff" fill-opacity=".540975"/><path d="m23.0908007 0s-10.3249361 9.30484988-13.0356353 22.6729048c-4.51872049 22.2844731-2.24461966 63.4424254-2.3783903 72.4675082-.12769015 9.025083-3.37302323 14.470533-5.11368662 27.231259-1.74066338 12.760725-.01824145 69.790228-.01824145 69.790228 4.61508697 2.784664 9.61932487 2.984011 15.12216247-.167154l32.3177697-189.01814624z" fill="#38308b"/><path d="m16.2125557 8.30473344 4.0334787.55523675c-3.543754 6.77856641-5.3340881 22.23677251-5.3710022 46.37461841l-.0005829.7651329c0 36.4962231-6.58833596 49.3528285-9.23892096 65.0643255l-.0791046.477007c-1.587648 9.743412-2.776903 25.356475-3.56776501 46.83919l-.08040345-5.326004c-.22005603-16.229889-.22492874-34.233073.6548332-40.682568 1.74066339-12.760726 4.98599647-18.206176 5.11368662-27.231259l.00578652-.897639c-.00234839-10.5799348-2.01055509-49.9539303 2.37260378-71.5698692 1.144809-5.6457273 3.6477116-10.5667316 6.1573903-14.36817136z" fill="#fff" fill-opacity=".077169"/></g><g transform="translate(95.5 300)"><path d="m0 9.70312373s9.88775391 33.13353007 10.1805859 39.40545667c.2928321 6.2725501-8.0871484 24.7073628-6.66037106 29.3668824 3.2896875 10.767462 45.28927736 15.4039116 49.79390626.9190595 1.9252148-6.1852581-1.7756836-12.8181993.0186914-20.7779781 1.7881445-7.9597787 7.0424017-19.7881212 2.9657031-30.9088323-4.0766985-11.1207112-2.9843945-21.4090981-5.9002539-23.35371415s-9.7319922-4.00981806-9.7319922-4.00981806c-3.3146093 4.88149053-14.5045312 4.81040994-19.8440429-.34417969 0 0-13.26466801 2.57511252-20.8222266 9.70312373z" fill="#7367f0"/><path d="m8.86064871 15.0694531c6.59093479 10.4675334 6.57111959 28.6924908 10.11092619 31.0793342 3.5398067 2.3868434 17.3170698.0445545 17.3170698 1.9347826s-19.039311 19.2130978-15.9137393 27.4942401c1.6366072 4.3361597 1.1926662 8.2153862-1.3318232 11.6376795l-.8240319-.1797025c-7.5016434-1.6966186-13.53262959-4.7432208-14.69883546-8.5603242-1.42677734-4.6595196 6.95320316-23.0943323 6.66037106-29.3668824-.24777434-5.306874-7.36492099-29.8449993-9.54926577-37.2706507 1.93035073-3.49299523 4.67339641-2.415906 8.22932858 3.2315234z" fill="#000" fill-opacity=".05649"/></g><g transform="translate(74.5 306)"><path d="m50.7171668 63.0388937s6.4338567-2.8520009 8.5161884-2.84386c2.0823318.0075483 3.6750677.0759535 3.6750677.0759535l.0061974 2.8836836s10.5718524.9611329 11.6873873.9234787c1.1217323-.0370267-4.0778997 7.7837495-7.5794396 9.2001747-3.8671875 1.5639042-17.0119066-3.0750925-17.0119066-3.0750925z" fill="url(#y)"/><path d="m21.5645226 2.76143226c-8.1062199 5.91359118-28.79939152 56.65575554-18.97028995 63.77239824 8.37890625 6.0686009 43.97686295 6.8599666 46.61076475 4.9239134 2.1938852-1.61662 3.4271709-6.5355129 1.3634315-9.2227672-2.7392579-3.5834242-33.6271785-8.7583656-33.6271785-8.7583656s11.1057692-26.5681717 13.4236027-31.225368c7.9512846-15.98546051 2.6834811-27.86535874-8.8003305-19.48981084z" fill="#7367f0"/><path d="m16.9846323 53.4452326c-2.3568151 3.6919619-3.2926249 5.583876-2.8074294 5.6757422s2.3093016-1.6318591 5.4723182-5.171176z" fill="#000" fill-opacity=".302803"/></g></g></svg>