<svg fill="none" height="573" viewBox="0 0 637 573" width="637" xmlns="http://www.w3.org/2000/svg" xmlns:xlink="http://www.w3.org/1999/xlink"><filter id="a" color-interpolation-filters="sRGB" filterUnits="userSpaceOnUse" height="243.659" width="241.934" x=".563437" y="153.777"><feFlood flood-opacity="0" result="BackgroundImageFix"/><feBlend in="SourceGraphic" in2="BackgroundImageFix" mode="normal" result="shape"/><feGaussianBlur result="effect1_foregroundBlur" stdDeviation="2.71828"/></filter><filter id="b" color-interpolation-filters="sRGB" filterUnits="userSpaceOnUse" height="176.768" width="248.702" x="173.229" y="335.513"><feFlood flood-opacity="0" result="BackgroundImageFix"/><feColorMatrix in="SourceAlpha" type="matrix" values="0 0 0 0 0 0 0 0 0 0 0 0 0 0 0 0 0 0 127 0"/><feOffset dx="5" dy="5"/><feGaussianBlur stdDeviation="10"/><feColorMatrix type="matrix" values="0 0 0 0 0.0862745 0 0 0 0 0.113725 0 0 0 0 0.192157 0 0 0 0.7 0"/><feBlend in2="BackgroundImageFix" mode="normal" result="effect1_dropShadow"/><feBlend in="SourceGraphic" in2="effect1_dropShadow" mode="normal" result="shape"/></filter><filter id="c" color-interpolation-filters="sRGB" filterUnits="userSpaceOnUse" height="154.821" width="244.004" x="177.964" y="196.351"><feFlood flood-opacity="0" result="BackgroundImageFix"/><feColorMatrix in="SourceAlpha" type="matrix" values="0 0 0 0 0 0 0 0 0 0 0 0 0 0 0 0 0 0 127 0"/><feOffset dx="6" dy="4"/><feGaussianBlur stdDeviation="7"/><feColorMatrix type="matrix" values="0 0 0 0 0.0189934 0 0 0 0 0.0189934 0 0 0 0 0.0189934 0 0 0 0.11 0"/><feBlend in2="BackgroundImageFix" mode="normal" result="effect1_dropShadow"/><feBlend in="SourceGraphic" in2="effect1_dropShadow" mode="normal" result="shape"/></filter><linearGradient id="d"><stop offset="0" stop-color="#fdc6c6"/><stop offset="1" stop-color="#fab2b2"/></linearGradient><linearGradient id="e" gradientUnits="userSpaceOnUse" x1="121.964" x2="123.277" xlink:href="#d" y1="535.908" y2="565.378"/><linearGradient id="f" gradientUnits="userSpaceOnUse" x1="53.7233" x2="56.1143" xlink:href="#d" y1="538.516" y2="564.585"/><linearGradient id="g"><stop offset="0" stop-color="#ffafaf"/><stop offset="1" stop-color="#f07777"/></linearGradient><linearGradient id="h" gradientUnits="userSpaceOnUse" x1="72.0354" x2="82.8045" xlink:href="#g" y1="210.658" y2="260.315"/><linearGradient id="i" gradientUnits="userSpaceOnUse" x1="74.7419" x2="81.6567" xlink:href="#d" y1="201.187" y2="234.798"/><linearGradient id="j" gradientUnits="userSpaceOnUse" x1="180.59" x2="180.945" xlink:href="#d" y1="240.179" y2="275.552"/><linearGradient id="k" gradientUnits="userSpaceOnUse" x1="53.8743" x2="54.9351" xlink:href="#d" y1="323.088" y2="350.188"/><linearGradient id="l" gradientUnits="userSpaceOnUse" x1="503.342" x2="492.262" xlink:href="#g" y1="336.992" y2="386.47"/><linearGradient id="m" gradientUnits="userSpaceOnUse" x1="502.48" x2="495.832" xlink:href="#d" y1="327.599" y2="360.118"/><linearGradient id="n" gradientUnits="userSpaceOnUse" x1="455.471" x2="453.878" xlink:href="#d" y1="530.406" y2="560.187"/><linearGradient id="o" gradientUnits="userSpaceOnUse" x1="424.4" x2="376.326" y1="568.758" y2="476.481"><stop offset="0" stop-color="#28324f"/><stop offset="1" stop-color="#222735"/></linearGradient><linearGradient id="p" gradientUnits="userSpaceOnUse" x1="419.28" x2="417.128" xlink:href="#d" y1="365.969" y2="394.571"/><linearGradient id="q" gradientUnits="userSpaceOnUse" x1="498.241" x2="497.611" xlink:href="#d" y1="395.514" y2="413.984"/><linearGradient id="r" gradientUnits="userSpaceOnUse" x1="421.293" x2="419.735" xlink:href="#d" y1="531.606" y2="564.802"/><mask id="s" height="399" maskUnits="userSpaceOnUse" width="187" x="176" y="161"><path clip-rule="evenodd" d="m176.237 179.934c0-10.229 8.293-18.522 18.522-18.522h26.68c.748 0 1.36.595 1.382 1.343.155 5.36 4.544 9.624 9.906 9.624h73.199c5.362 0 9.752-4.264 9.907-9.624.021-.748.634-1.343 1.382-1.343h26.679c10.23 0 18.522 8.293 18.522 18.522v361.099c0 10.23-8.292 18.522-18.522 18.522h-149.135c-10.229 0-18.522-8.292-18.522-18.522z" fill="#fff" fill-rule="evenodd"/></mask><mask id="t" height="138" maskUnits="userSpaceOnUse" width="209" x="188" y="350"><path clip-rule="evenodd" d="m188.229 359.27c0-4.836 3.921-8.757 8.757-8.757h191.189c4.836 0 8.756 3.921 8.756 8.757v119.254c0 4.837-3.92 8.757-8.756 8.757h-191.189c-4.836 0-8.757-3.92-8.757-8.757z" fill="#fff" fill-rule="evenodd"/></mask><mask id="u" height="44" maskUnits="userSpaceOnUse" width="38" x="599" y="523"><path clip-rule="evenodd" d="m605.059 523h24.946c1.165 0 2.11.925 2.11 2.067v.059c0 1.262.613 2.448 1.652 3.196l.646.466c1.038.747 1.652 1.934 1.652 3.196v30.888c0 2.191-1.814 3.967-4.051 3.967h-28.963c-2.237 0-4.051-1.776-4.051-3.967v-30.888c0-1.262.613-2.449 1.651-3.196l.647-.466c.969-.698 1.568-1.778 1.643-2.945l.009-.31c0-1.142.944-2.067 2.109-2.067z" fill="#fff" fill-rule="evenodd"/></mask><g filter="url(#a)" opacity=".1"><ellipse cx="121.531" cy="275.607" fill="#7367f0" rx="115.531" ry="116.393"/></g><path clip-rule="evenodd" d="m380.75 177.185c0-60.751 49.249-109.9998 110-109.9998s110 49.2488 110 109.9998c0 60.752-49.249 110-110 110s-110-49.248-110-110zm173-.5c0-34.518-27.982-62.5-62.5-62.5s-62.5 27.982-62.5 62.5 27.982 62.5 62.5 62.5 62.5-27.982 62.5-62.5z" fill="#00cfe8" fill-rule="evenodd" opacity=".05"/><ellipse cx="312.382" cy="53.0407" opacity=".1" rx="37.9439" ry="38.0407" stroke="#7367f0" stroke-width="30"/><path d="m491.165 67.1853c60.522 0 109.585 49.2487 109.585 109.9997 0 60.752-49.063 110-109.585 110-36.461 0-69.928-18.032-90.242-47.58-7.393-10.753-4.702-25.485 6.01-32.906 10.605-7.346 25.096-4.772 32.558 5.714l.224.32c11.606 16.881 30.647 27.14 51.45 27.14 34.491 0 62.452-28.066 62.452-62.688 0-34.275-27.404-62.126-61.419-62.679l-1.033-.009c-13.015 0-23.567-10.591-23.567-23.6558s10.552-23.6559 23.567-23.6559z" fill="#00cfe8" opacity=".1"/><path clip-rule="evenodd" d="m168.975 178.137c0-13.883 11.254-25.137 25.137-25.137h151.089c13.883 0 25.137 11.254 25.137 25.137v367.186c0 13.883-11.254 25.137-25.137 25.137h-151.089c-13.883 0-25.137-11.254-25.137-25.137z" fill="#8ee9f4" fill-rule="evenodd"/><path clip-rule="evenodd" d="m176.237 179.934c0-10.229 8.293-18.522 18.522-18.522h26.68c.748 0 1.36.595 1.382 1.343.155 5.36 4.544 9.624 9.906 9.624h73.199c5.362 0 9.752-4.264 9.907-9.624.021-.748.634-1.343 1.382-1.343h26.679c10.23 0 18.522 8.293 18.522 18.522v361.099c0 10.23-8.292 18.522-18.522 18.522h-149.135c-10.229 0-18.522-8.292-18.522-18.522z" fill="#262e43" fill-rule="evenodd"/><g fill="#e97eff" fill-opacity=".548951" mask="url(#s)"><ellipse cx="246.822" cy="403.737" rx="15.9688" ry="15.9515"/><path clip-rule="evenodd" d="m198.916 235.001c0-2.891 2.343-5.234 5.234-5.234h131.754c2.89 0 5.234 2.343 5.234 5.234 0 2.89-2.344 5.234-5.234 5.234h-131.754c-2.891 0-5.234-2.344-5.234-5.234z" fill-rule="evenodd"/></g><path d="m280.572 160.308c1.722 0 3.118 1.339 3.118 2.991 0 1.615-1.335 2.931-3.004 2.989l-.114.002h-35.268c-1.722 0-3.118-1.339-3.118-2.991 0-1.615 1.335-2.931 3.004-2.989l.114-.002z" fill="#00cfe8"/><path d="m293.21 159.81c1.723 0 3.119 1.395 3.119 3.115 0 1.683-1.335 3.054-3.004 3.114l-.115.002h-.163c-1.723 0-3.119-1.395-3.119-3.116 0-1.682 1.335-3.053 3.004-3.113l.115-.002z" fill="#00cfe8"/><g filter="url(#b)"><path clip-rule="evenodd" d="m188.229 359.27c0-4.836 3.921-8.757 8.757-8.757h191.189c4.836 0 8.756 3.921 8.756 8.757v119.254c0 4.837-3.92 8.757-8.756 8.757h-191.189c-4.836 0-8.757-3.92-8.757-8.757z" fill="#313a53" fill-rule="evenodd"/></g><g mask="url(#t)"><path clip-rule="evenodd" d="m183.547 345.15h218.735v40.226h-218.735z" fill="#a8edf6" fill-rule="evenodd"/><path clip-rule="evenodd" d="m205.621 374.649c0-1.111.901-2.011 2.011-2.011h66.883c1.111 0 2.011.9 2.011 2.011 0 1.111-.9 2.011-2.011 2.011h-66.883c-1.11 0-2.011-.9-2.011-2.011z" fill="#6fa3ff" fill-rule="evenodd" opacity=".365606"/><rect fill="#fff" height="4.02258" rx="2.01129" width="37.4593" x="205.621" y="361.24"/><rect fill="#ea5455" height="4.69301" rx="2.3465" width="37.4593" x="212.311" y="452.419"/><path clip-rule="evenodd" d="m212.311 468.174c0-1.296 1.05-2.347 2.346-2.347h19.388c1.296 0 2.347 1.051 2.347 2.347 0 1.296-1.051 2.346-2.347 2.346h-19.388c-1.296 0-2.346-1.05-2.346-2.346z" fill="#f8f9fa" fill-rule="evenodd"/><rect fill="#ff9f43" height="4.69301" rx="2.3465" width="37.4593" x="271.844" y="452.419"/><path clip-rule="evenodd" d="m271.844 468.174c0-1.296 1.05-2.347 2.346-2.347h19.388c1.296 0 2.347 1.051 2.347 2.347 0 1.296-1.051 2.346-2.347 2.346h-19.388c-1.296 0-2.346-1.05-2.346-2.346z" fill="#f8f9fa" fill-rule="evenodd"/><rect fill="#28c76f" height="4.69301" rx="2.3465" width="37.4593" x="333.385" y="452.419"/><g clip-rule="evenodd" fill-rule="evenodd"><path d="m333.385 468.174c0-1.296 1.05-2.347 2.346-2.347h19.388c1.296 0 2.347 1.051 2.347 2.347 0 1.296-1.051 2.346-2.347 2.346h-19.388c-1.296 0-2.346-1.05-2.346-2.346z" fill="#f8f9fa"/><path d="m352.114 438.843c10.621 0 19.231-8.63 19.231-19.275s-8.61-19.275-19.231-19.275-19.231 8.63-19.231 19.275 8.61 19.275 19.231 19.275zm0-7.71c-6.373 0-11.539-5.178-11.539-11.565s5.166-11.565 11.539-11.565 11.539 5.178 11.539 11.565-5.166 11.565-11.539 11.565z" fill="#f2f2f2"/><path d="m371.345 419.568c0-10.645-8.61-19.275-19.231-19.275-2.124 0-3.846 1.726-3.846 3.855s1.722 3.855 3.846 3.855c6.3 0 11.421 5.061 11.537 11.348l.002.217c0 2.129 1.722 3.855 3.846 3.855s3.846-1.726 3.846-3.855z" fill="#28c76f"/><path d="m291.911 438.843c10.621 0 19.231-8.63 19.231-19.275s-8.61-19.275-19.231-19.275-19.231 8.63-19.231 19.275 8.61 19.275 19.231 19.275zm0-7.71c-6.373 0-11.539-5.178-11.539-11.565s5.166-11.565 11.539-11.565 11.539 5.178 11.539 11.565-5.166 11.565-11.539 11.565z" fill="#f2f2f2"/></g><path d="m291.911 438.843c10.621 0 19.231-8.63 19.231-19.275s-8.61-19.275-19.231-19.275c-2.125 0-3.847 1.726-3.847 3.855s1.722 3.855 3.847 3.855c6.372 0 11.539 5.178 11.539 11.565 0 6.314-5.05 11.447-11.323 11.563l-.216.002c-2.125 0-3.847 1.726-3.847 3.855s1.722 3.855 3.847 3.855z" fill="#ff9f43"/><path clip-rule="evenodd" d="m231.709 438.843c10.621 0 19.231-8.63 19.231-19.275s-8.61-19.275-19.231-19.275-19.231 8.63-19.231 19.275 8.61 19.275 19.231 19.275zm0-7.71c-6.373 0-11.539-5.178-11.539-11.565s5.166-11.565 11.539-11.565 11.539 5.178 11.539 11.565-5.166 11.565-11.539 11.565z" fill="#f2f2f2" fill-rule="evenodd"/><path clip-rule="evenodd" d="m212.478 419.568c0 10.645 8.61 19.275 19.231 19.275s19.231-8.63 19.231-19.275-8.61-19.275-19.231-19.275c-2.124 0-3.846 1.726-3.846 3.855s1.722 3.855 3.846 3.855c6.373 0 11.539 5.178 11.539 11.565s-5.166 11.565-11.539 11.565-11.539-5.178-11.539-11.565c0-2.129-1.722-3.855-3.846-3.855s-3.846 1.726-3.846 3.855z" fill="#ea5455" fill-rule="evenodd"/></g><g filter="url(#c)"><path clip-rule="evenodd" d="m190.441 206.351h207.05c2.473 0 4.477 2.01 4.477 4.49v117.842c0 2.48-2.004 4.489-4.477 4.489h-207.05c-2.473 0-4.477-2.009-4.477-4.489v-117.842c0-2.48 2.004-4.49 4.477-4.49z" fill="#bfb9ff" fill-rule="evenodd"/></g><ellipse cx="343.993" cy="239.357" fill="#8e83ff" rx="12.9826" ry="12.9349"/><ellipse cx="361.901" cy="239.357" fill="#ffbb7a" rx="12.9826" ry="12.9349"/><path clip-rule="evenodd" d="m352.83 230.104.119-.112c2.481 2.356 4.027 5.681 4.027 9.365 0 3.685-1.546 7.01-4.027 9.366-2.484-2.355-4.031-5.681-4.031-9.366 0-3.626 1.498-6.905 3.912-9.253l.119-.112z" fill="#fff" fill-opacity=".416193" fill-rule="evenodd"/><path clip-rule="evenodd" d="m217.972 247.609h27.085c.989 0 1.791.799 1.791 1.784v19.626c0 .985-.802 1.784-1.791 1.784h-27.085c-.989 0-1.79-.799-1.79-1.784v-19.626c0-.985.801-1.784 1.79-1.784z" fill="#9f95ff" fill-rule="evenodd"/><path clip-rule="evenodd" d="m220.211 283.96h22.384c2.225 0 4.029 1.798 4.029 4.015s-1.804 4.014-4.029 4.014h-22.384c-2.225 0-4.029-1.797-4.029-4.014s1.804-4.015 4.029-4.015z" fill="#fff" fill-opacity=".646908" fill-rule="evenodd"/><path clip-rule="evenodd" d="m220.211 304.032h55.959c2.226 0 4.029 1.797 4.029 4.014s-1.803 4.014-4.029 4.014h-55.959c-2.225 0-4.029-1.797-4.029-4.014s1.804-4.014 4.029-4.014z" fill="#fff" fill-opacity=".646908" fill-rule="evenodd"/><path clip-rule="evenodd" d="m347.799 304.032h22.383c2.226 0 4.03 1.797 4.03 4.014s-1.804 4.014-4.03 4.014h-22.383c-2.226 0-4.029-1.797-4.029-4.014s1.803-4.014 4.029-4.014z" fill="#fff" fill-opacity=".646908" fill-rule="evenodd"/><path clip-rule="evenodd" d="m220.211 225.977h22.384c2.225 0 4.029 1.797 4.029 4.014s-1.804 4.014-4.029 4.014h-22.384c-2.225 0-4.029-1.797-4.029-4.014s1.804-4.014 4.029-4.014z" fill="#fff" fill-opacity=".646908" fill-rule="evenodd"/><path clip-rule="evenodd" d="m262.293 283.96h22.384c2.225 0 4.029 1.798 4.029 4.015s-1.804 4.014-4.029 4.014h-22.384c-2.225 0-4.029-1.797-4.029-4.014s1.804-4.015 4.029-4.015z" fill="#fff" fill-opacity=".646908" fill-rule="evenodd"/><path clip-rule="evenodd" d="m305.269 283.96h22.384c2.225 0 4.029 1.798 4.029 4.015s-1.804 4.014-4.029 4.014h-22.384c-2.225 0-4.029-1.797-4.029-4.014s1.804-4.015 4.029-4.015z" fill="#fff" fill-opacity=".646908" fill-rule="evenodd"/><path clip-rule="evenodd" d="m347.351 283.96h22.384c2.225 0 4.029 1.798 4.029 4.015s-1.804 4.014-4.029 4.014h-22.384c-2.225 0-4.029-1.797-4.029-4.014s1.804-4.015 4.029-4.015z" fill="#fff" fill-opacity=".646908" fill-rule="evenodd"/><path clip-rule="evenodd" d="m142.482 542s-.154 9.857 5.899 13.358c6.053 3.502 15.431 10.007 15.431 10.007l-35.675 1.209 1.017-24.663z" fill="url(#e)" fill-rule="evenodd"/><path clip-rule="evenodd" d="m127.761 553.936c2.758.284 2.155 4.274 7.161 4.08 3.647-.142 9.335-6.868 14.014-4.377 7.142 3.803 15.517 8.931 17.57 10.152 2.054 1.222 2.865 5.827-3.203 6.393-5.802.54-13.635.48-15.596.122-1.963-.357-5.602-2.86-8.53-2.46-2.928.401-3.262 1.41-4.898 1.857s-6.575.544-7.087-.835c-.589-1.582-1.178-15.112.569-14.932z" fill="#482b61" fill-rule="evenodd"/><path clip-rule="evenodd" d="m124.996 332.889s13.609 106.816 14.747 116.917c1.137 10.102 7.385 81.965 6.53 91.551-.871 9.761-19.133 9.814-21.583 2.449-3.353-10.081-11.105-60.465-12.387-70.987-1.282-10.521-.832-22.736-5.984-33.51-3.689-7.713-15.8961-103.681-15.8961-103.681z" fill="#2f2b57" fill-rule="evenodd"/><path clip-rule="evenodd" d="m116.998 456.324.048.481c.52 5.579.955 24.061 1.306 55.444l-.783-4.687c-2.456-14.864-4.638-29.588-5.266-34.743-1.255-10.302-.85-22.228-5.669-32.834l-.315-.676c-1.624-3.394-4.897-23.883-8.0534-45.762l.9911 2.654c10.5393 28.342 16.4523 48.383 17.7413 60.123z" fill="#fff" fill-opacity=".192499" fill-rule="evenodd" opacity=".59096"/><path d="m151.575 555.354-1.707 2.553" stroke="#fff" stroke-linecap="round"/><path d="m154.554 556.352-1.706 2.554" stroke="#fff" stroke-linecap="round"/><path clip-rule="evenodd" d="m59.5863 544.261-3.1927 21.556 15.4314-.078-.5052-21.879z" fill="url(#f)" fill-rule="evenodd"/><path clip-rule="evenodd" d="m53.5505 569.305c-.0516-1.258 1.1193-9.415 2.8432-12.645 1.2504-2.342 4.023-2.891 8.0802-2.908 5.2332-.02 9.6068.771 9.6007 2.908-.0184 6.539 1.6398 11.568 1.7512 12.142.3272 1.686-4.3533 2.945-10.7462 2.88-5.2326-.051-11.449-.416-11.5291-2.377z" fill="#482b61" fill-rule="evenodd"/><path clip-rule="evenodd" d="m107.504 336.396s-7.075 47.673-11.358 77.837c-4.2086 29.64-16.6722 118.052-17.9601 127.307-1.1824 8.496-22.7639 8.496-22.5368-1.793.2272-10.29-1.7708-74.412 2.2476-83.906 4.0185-9.493.5201-20.542.6661-29.765.1467-9.223 5.9258-89.064 5.9258-89.064z" fill="#3a3669" fill-rule="evenodd"/><path clip-rule="evenodd" d="m68.7971 398.217-.3378 1.227c-4.0969 14.719-5.5108 16.046-4.3497 39.523l.0119.477c.0404 5.907-2.7687 36.473-8.4274 91.698l-.0256-3.433c-.1984-22.529-1.0285-63.264 2.126-71.612l.102-.256c4.0185-9.493.5202-20.542.6662-29.765.1466-9.223 5.9258-89.063 5.9258-89.063l7.3821-.107.0755 3.657c.5311 28.562-.5186 47.78-3.149 57.654z" fill="#fff" fill-opacity=".192499" fill-rule="evenodd" opacity=".461565"/><path d="m62.6045 558.534h5.6488" stroke="#fff" stroke-linecap="round"/><path d="m62.6045 561.529h5.6488" stroke="#fff" stroke-linecap="round"/><path clip-rule="evenodd" d="m81.0352 240.078s5.911-1.395 6.1161-11.129c.205-9.735.0611-13.058.0611-13.058l14.0136-.236s.142 10.849.144 14.773c.005 10.54 7.312 9.65 7.312 9.65s-1.519 8.546-13.3166 9.213c-9.2116.521-14.3302-9.213-14.3302-9.213z" fill="url(#h)" fill-rule="evenodd"/><path clip-rule="evenodd" d="m85.9259 210.97c-5.8083-.225-4.8609 8.321 1.1729 8.309 0 0 6.4845 13.104 16.6652 13.138 4.904.017 6.505-4.374 7.975-7.455 1.47-3.082 2.549-7.692 2.639-10.515.096-3.01.108-12.897.108-12.897l-28.7862-.013z" fill="url(#i)" fill-rule="evenodd"/><path d="m103.356 226.173c.871.481 1.907.362 2.709 0" stroke="#f49494" stroke-linecap="round"/><path d="m86.8324 215.849c.0597-1.371-.3563-2.459-1.7474-2.678" stroke="#de6767" stroke-linecap="round"/><path clip-rule="evenodd" d="m85.9261 210.971s2.6706 3.098 3.6586 3.183c.9887.086-.1378-8.385 1.3173-9.928 3.1962-3.391 11.548 2.371 20.331.963 3.253-.521 3.195 5.039 3.195 5.039 8.21-7.525 11.187-13.461 1.376-15.939-.078-6.369-3.723-7.967-10.772-5.013-.942-8.603-13.12-7.305-18.6633 3.64-4.0123-3.924-9.652-.756-7.2586 5.148-4.3206 0-2.0691 11.608 3.0226 15.596.6075-1.742 1.7177-2.689 3.7934-2.689z" fill="#422851" fill-rule="evenodd"/><path d="m101.387 223.414s2.765 2.615 6.237.485" stroke="#de6767" stroke-linecap="round"/><g clip-rule="evenodd" fill-rule="evenodd"><path d="m182.553 271.335s1.662-9.24 3.861-12.477c2.199-3.239 2.84-8.679 4.915-8.479 2.075.201-.003 8.886-.003 8.886s9.676-7.26 14.066-9.761c4.005-2.281 1.808 9.522 1.182 11.027-1.491 3.581-18.741 17.099-18.741 17.099s-4.903-5.473-5.28-6.295z" fill="url(#j)"/><path d="m191.326 259.264s-.714 2.971-.358 2.971c.357 0 6.924-7.748 6.924-7.748z" fill="#f28585"/><path d="m126.694 250.655c4.731 10.26 22.427 36.771 22.427 36.771s28.998-18.906 32.688-18.945 8.7 4.857 8.385 8.236-32.065 33.015-42.248 32.766c-15.833-.388-35.688-41.561-37.727-47.064-5.46-14.741 11.86-21.772 16.475-11.764z" fill="#ff5c5d"/><path d="m149.016 287.407s3.348 4.905 3.948 4.583-1.316-5.996-1.316-5.996z" fill="#000" fill-opacity=".159856"/><path d="m56.6569 252.296c-1.4857 7.124 8.6887 43.029 5.8895 59.826-2.214 13.284-4.3275 31.576 1.4107 35.637 5.842 4.135 56.1299 7.418 63.2979-4.061 5.686-9.107 1.031-29.302 0-38.515-2.057-18.379 1.049-50.141-2.441-56.637-2.164-4.03-16.922-9.227-17.476-9.066-.555.161-1.858 5.871-11.1894 5.871-9.3316 0-13.4523-5.871-13.9537-6.032s-24.1935 6.533-25.538 12.977z" fill="#ea5455"/><path d="m82.1719 239.316.0235.003c.5014.161 4.6221 6.032 13.9537 6.032 9.3319 0 10.6349-5.71 11.1889-5.871.2-.058 2.251.582 4.891 1.613l-.012.121c-6.67 11.201-25.0124 12.581-34.8172-.233l-.2221-.296 1.0941-.34c2.0026-.608 3.4357-.974 3.8254-1.023z" fill="#ff9b86"/><path d="m56.6885 257.245.8222.114c8.7222 1.248 13.8377 3.221 15.3465 5.921.99 1.772.5297 7.764-1.3809 17.977l-.2028 1.072c-1.772 9.257.2541 18.834 5.6035 26.559l.3006.428c1.8091 2.531 3.4769 5.863 5.0033 9.998 3.5407 9.589-3.9907 17.669.7792 31.936l-.9738-.072c-8.8666-.679-16.0375-2.009-18.0292-3.419-5.7381-4.061-3.6246-22.353-1.4107-35.637 2.3818-14.292-4.6292-42.418-5.8579-54.877z" fill="#000" fill-opacity=".066761"/><path d="m66.8808 328.606s3.3478 3.95 6.2051 4.441c2.8574.491 14.8153 2.83 15.5452 3.177.6898.327 3.0489 1.569 5.0663 3.562 1.7478 1.726 4.7715 5.82 3.7577 6.524-1.0837.753-4.0096-2.939-5.4777-3.851-1.5393-.958-3.905-1.805-3.905-1.805s5.8518 7.059 5.4797 8.292c-.2716.901-5.2476 2.438-6.3117 2.322-1.064-.115-6.9272-4.408-9.5625-4.907-1.8279-.346-10.0115-2.563-11.7375-4.228-1.7254-1.665-5.6074-5.044-5.6074-5.044z" fill="url(#k)"/><path d="m92.4237 349.765s-6.1238-6.171-6.3793-6.065c-.2556.105 5.336 6.494 5.336 6.494z" fill="#f28585"/><path d="m89.6944 350.778s-4.5874-4.203-4.8872-4c-.2999.202 3.6742 4.343 3.6742 4.343z" fill="#f28585"/><path d="m70.209 246.345c9.4555 6.653 3.1384 18.747-4.7063 29.841-7.328 10.363-18.4348 25.972-18.4348 25.972s20.8847 22.876 22.9021 27.108c2.0173 4.233-3.1344 12.182-9.5389 10.011-6.4052-2.171-42.8535-29.17-35.4415-41.929 11.321-19.489 34.0508-58.862 45.2194-51.003z" fill="#ff5c5d"/><path d="m47.068 302.158s-4.2858-4.534-3.8854-5.059c.4005-.524 5.2306 3.182 5.2306 3.182z" fill="#000" fill-opacity=".159856"/><path d="m390.956 492.784c0-13.316 10.795-24.112 24.111-24.112h81.131v82.46c0 2.209-1.791 4-4 4h-97.242c-2.209 0-4-1.791-4-4z" fill="#86e5f0"/><path d="m400.465 538.065h76.779v17.067h-76.779z" fill="#86e5f0"/><path d="m498.245 554.514 4.843 12.13h-23.413l4.057-12.13z" fill="#86e5f0"/><path d="m418.474 554.514 4.844 12.13h-23.414l4.058-12.13z" fill="#91d6ff"/><path d="m577.018 554.514 4.844 12.13h-23.414l4.058-12.13z" fill="#86e5f0"/><path d="m450.796 403.492c0-13.112 10.479-23.821 23.588-24.105l22.412-.486v97.927h-46z" fill="#91d6ff"/><path d="m459.77 403.012c0-13.316 10.795-24.111 24.111-24.111h76.231c12.062 0 21.84 9.778 21.84 21.84v76.335c0 .965-.783 1.748-1.747 1.748h-120.435z" fill="#c6f9ff"/><path d="m547.805 396.818c0-9.895 8.022-17.917 17.917-17.917 8.963 0 16.23 7.266 16.23 16.229v71.97c0 .965-.783 1.747-1.747 1.747h-32.4z" fill="#86e5f0"/><path d="m400.465 490.474c0-6.959 5.641-12.6 12.6-12.6h78.28v65.754h-90.88z" fill="#c6f9ff"/><path d="m494.783 370.394c12.199-2.842 13.002-19.594 3.728-25.405 9.564-20.06-12.553-39.977-27.703-27.694-9.932-4.254-18.186 12.345-8.944 25.237-3.875 22.135 4.011 27.856 18.228 28.1z" fill="#422851"/><path d="m494.632 366.393s-5.934-1.393-6.14-11.122c-.206-9.728-.061-13.048-.061-13.048l-13.071-.236s-.142 10.841-.144 14.763c-.006 10.533-7.341 9.643-7.341 9.643s1.525 8.541 13.369 9.207c9.247.521 13.388-9.207 13.388-9.207z" fill="url(#l)"/><path d="m491.477 337.365c5.831-.226 4.88 8.314-1.177 8.303 0 0-3.518 12.132-15.732 12.132-9.92 0-10.565-14.14-10.655-16.961-.097-3.008-.109-12.889-.109-12.889l27.9-.012z" fill="url(#m)"/></g><path d="m476.923 349.65s-2.909 2.464-6.279.156" stroke="#f77b7b" stroke-linecap="round" stroke-width="1.5"/><path d="m475.003 352.504c-.905.418-1.777.448-2.555.032" stroke="#f49494" stroke-linecap="round"/><path d="m490.884 341.958c-.06-1.37.357-2.458 1.754-2.677" stroke="#f77b7b" stroke-linecap="round"/><path clip-rule="evenodd" d="m492.4 336.309s-3.196 4.291-3.843 4.314c-.648.023-.874-5.58-.874-5.58-3.921-.3-13.842-2.277-16.275-6.882-1.7 4.063-4.952 5.868-7.088 5.522l-.405 8.632-.997-17.355h30.264z" fill="#422851" fill-rule="evenodd"/><path clip-rule="evenodd" d="m434.913 537.945s5.23 10.571.942 13.902c-4.294 3.332-15.638 9.575-15.638 9.575l30.054-1.89-6.681-23.054z" fill="url(#n)" fill-rule="evenodd"/><path clip-rule="evenodd" d="m447.364 548.005c-1.483.173.101 5.169-3.11 5.549-3.205.38-4.763-4.353-8.4-2.853-3.637 1.501-16.9 9.259-17.423 12.431-.528 3.171 4.413 4.104 11.191 3.388 6.777-.716 8.026-3.129 13.114-2.157 5.081.971 8.887-.577 8.72-4.292-.168-3.714-2.609-12.239-4.092-12.066z" fill="#222d4e" fill-rule="evenodd"/><path clip-rule="evenodd" d="m434.195 551.471.66.99c.324.486.165 1.144-.345 1.428l-8.965 5.006c-.291.162-.643.169-.94.018l-1.392-.706c2.186-1.584 3.973-2.774 5.948-3.943 1.517-.897 3.196-1.822 5.034-2.793z" fill="#fff" fill-opacity=".540975" fill-rule="evenodd"/><path clip-rule="evenodd" d="m480.186 444.779c-9.099.406-59.739 11.613-68.939 13.517s-16.979 12.206-9.963 24.135c7.88 13.391 28.211 51.422 33.147 59.996 2.444 4.243 14.769 1.864 11.874-5.258-5.397-13.277-7.904-46.63-21.664-58.791 0 0 46.276 8.058 66.266-1.172 14.528-6.71 11.241-33.41-10.721-32.427z" fill="url(#o)" fill-rule="evenodd"/><path clip-rule="evenodd" d="m415.718 390.947s.103-7.407-2.487-11.278c-2.589-3.871-2.692-7.983-4.652-7.849-1.96.135-.019 9.692-.019 9.692s-2.487-.95-4.273-2.152c-1.787-1.203-7.204-7.13-8.47-6.08-2.146 1.79 1.311 11.885 3.194 13.903 1.889 2.019 12.209 8.658 12.209 8.658z" fill="url(#p)" fill-rule="evenodd"/><path clip-rule="evenodd" d="m471.632 386.508c-4.233 9.822-11.982 27.866-15.177 33.249-4.004 6.741-10.318 9.711-17.71 4.71-7.767-5.256-29.154-25.756-29.781-30.399-.622-4.644 4.613-10.215 9.35-7.331 4.736 2.885 24.418 19.273 24.418 19.273s7.943-20.373 14.332-32.174c5.534-10.21 21.01-2.259 14.568 12.672z" fill="#6a5ee3" fill-rule="evenodd"/><path clip-rule="evenodd" d="m442.649 406.02s-2.133 7.24-2.632 6.821c-.498-.419.381-8.713.381-8.713z" fill="#000" fill-opacity=".302803" fill-rule="evenodd"/><path d="m388.709 372.331c-.409-1.261.281-2.615 1.541-3.024l11.367-3.694c1.261-.409 2.615.281 3.024 1.541l8.876 27.316c.41 1.261-.28 2.615-1.541 3.025l-11.367 3.693c-1.26.41-2.614-.28-3.024-1.541z" fill="#7596ff"/><rect fill="#93c2f9" height="33.522" rx="2.4" transform="matrix(.95105652 -.30901699 .30901699 .95105652 -95.060545 138.289342)" width="16.7519" x="389.032" y="369.239"/><path d="m392.25 369.453 1.208-.393c.246-.08.508.031.627.251l.037.088c.09.277.388.429.665.339l5.826-1.893c.246-.08.393-.324.36-.572l-.021-.093c-.09-.277.061-.575.338-.665l1.202-.39c.893-.29 1.849.16 2.205 1.012l.051.139 8.401 25.934c.365 1.132-.254 2.346-1.384 2.715l-9.559 3.106c-1.082.354-2.241-.198-2.661-1.237l-.053-.145c0-.001 0-.001.001-.002l-8.399-25.928c-.306-.945.211-1.959 1.156-2.266z" fill="#e6f3ff"/><path clip-rule="evenodd" d="m513.93 374.674s-10.2 34.17-10.502 40.639 8.342 25.481 6.871 30.286c-3.394 11.105-46.717 15.886-48.372.948-.772-6.967.834-13.22-1.017-21.429-1.844-8.209-9.259-20.407-5.053-31.876 4.205-11.469 3.078-22.079 6.086-24.085 3.008-2.005 10.039-4.135 10.039-4.135 3.419 5.034 14.961 4.961 20.469-.355 0 0 13.683 2.655 21.479 10.007z" fill="#7367f0" fill-rule="evenodd"/><path clip-rule="evenodd" d="m504.789 380.208c-6.798 10.795-6.778 29.591-10.429 32.052-3.652 2.462-17.863.046-17.863 1.996 0 1.949 19.639 19.814 16.415 28.355-1.688 4.471-1.23 8.472 1.374 12.002l.85-.186c7.738-1.749 13.959-4.891 15.162-8.828 1.472-4.805-8.169-23.817-7.867-30.286.256-5.491 8.363-30.944 10.807-38.512-1.99-3.513-4.806-2.378-8.449 3.407z" fill="#000" fill-opacity=".199355" fill-rule="evenodd"/><path clip-rule="evenodd" d="m493.196 408.848s-8.591-7.607-11.22-8.49c-2.63-.883-18.033-1.944-17.936.051.111 2.138 8.384 2.015 9.241 3.066s1.052 8.238 4.292 9.044c3.234.807 12.928 2.198 12.928 2.198z" fill="url(#q)" fill-rule="evenodd"/><path clip-rule="evenodd" d="m516.052 376.637c9.051 12.781 16.778 32.25 19.744 39.84 2.967 7.59-.026 19.039-13.069 16.791-13.019-2.241-33.735-14.422-36.027-17.975s1.19-10.019 5.575-9.172c4.062.783 24.213 9.356 24.213 9.356s-12.964-22.991-16.129-29.154c-5.288-10.293 7.72-20.947 15.693-9.686z" fill="#6a5ee3" fill-rule="evenodd"/><path clip-rule="evenodd" d="m516.282 415.319s6.79 3.376 5.962 1.96c-.828-1.415-8.553-6.388-8.553-6.388z" fill="#000" fill-opacity=".302803" fill-rule="evenodd"/><path clip-rule="evenodd" d="m403.31 538.37s.158 12.441-10.089 17.093c-10.24 4.651-17.535 4.371-16.607 7.968.929 3.595 27.582 3.45 30.071.638 2.122-2.393 6.735-24.67 8.005-22.967z" fill="url(#r)" fill-rule="evenodd"/><path clip-rule="evenodd" d="m411.417 552.297c-1.145-2.212-1.217 4.01-5.73 2.639-3.662-1.113-4.914-7.482-7.229-6.087-2.314 1.395-22.687 12.211-22.803 12.276-2.508 1.352-1.807 5.447 2.429 6.162 4.708.794 29.099.26 30.408-.996 1.309-1.255 3.842-12.221 2.925-13.994z" fill="#222d4e" fill-rule="evenodd"/><path clip-rule="evenodd" d="m395.445 552.569c.398 0 .778.5 1.052.981.267.469.019 1.039-.481 1.245l-10.512 4.33c-.34.14-.737.088-.98-.188-.224-.252-.431-.566-.328-.781.198-.415 10.481-5.587 11.249-5.587z" fill="#fff" fill-opacity=".540975" fill-rule="evenodd"/><path clip-rule="evenodd" d="m509.691 440.933s13.228 27.95-5.361 37.548c-17.977 9.281-71.795-1.696-71.795-1.696s.962 7.746 0 14.656c-2.512 18.045-14.457 48.109-16.984 51.886-3.495 5.224-14.141 1.285-14.342-3.065-.2-4.35 8.026-59.904 9.277-70.498 1.244-10.595 5.173-12.134 16.649-15.03 2.637-.665 33.814-8.417 36.67-8.191 24.541 1.941 45.886-5.61 45.886-5.61z" fill="#2c3757" fill-rule="evenodd"/><path clip-rule="evenodd" d="m495.191 475.596c-17.798 1.996-64.918-2.117-66.81-.248-1.807 1.784-1.505 32.827-5.558 50.795l.616-1.697c3.812-10.592 7.77-23.475 9.096-33.005.962-6.91 0-14.656 0-14.656l2.17.42c10.23 1.923 53.805 9.444 69.625 1.276 8.571-4.426 12.069-11.778 10.493-22.057-2.714 11.618-9.258 18.009-19.632 19.172z" fill="#fff" fill-opacity=".192499" fill-rule="evenodd" opacity=".461565"/><path clip-rule="evenodd" d="m476.71 492.784c0-13.316 10.795-24.112 24.111-24.112h81.131v84.713c0 .965-.782 1.747-1.747 1.747h-103.495z" fill="#86e5f0" fill-rule="evenodd"/><path d="m595 508h8c7.732 0 14 6.268 14 14h-8c-7.732 0-14-6.268-14-14z" fill="#2ce780"/><path d="m605 500h6c3.866 0 7 3.134 7 7h-6c-3.866 0-7-3.134-7-7z" fill="#28c76f"/><path d="m636 507h-7c-6.627 0-12 5.373-12 12h7c6.627 0 12-5.373 12-12z" fill="#28c76f"/><path clip-rule="evenodd" d="m627.408 494.212-5.694 2.312c-4.446 1.805-6.594 6.866-4.804 11.317l5.695-2.312c4.445-1.805 6.593-6.865 4.803-11.317z" fill="#2ce780" fill-rule="evenodd"/><path clip-rule="evenodd" d="m612.765 493c3.128 1.983 5.112 5.756 5.229 9.897l.006.389v29.714h-1.605v-29.714c0-3.484-1.576-6.697-4.128-8.458l-.267-.177z" fill="#28c76f" fill-rule="evenodd"/><path clip-rule="evenodd" d="m605.059 523h24.946c1.165 0 2.11.925 2.11 2.067v.059c0 1.262.613 2.448 1.652 3.196l.646.466c1.038.747 1.652 1.934 1.652 3.196v30.888c0 2.191-1.814 3.967-4.051 3.967h-28.963c-2.237 0-4.051-1.776-4.051-3.967v-30.888c0-1.262.613-2.449 1.651-3.196l.647-.466c.969-.698 1.568-1.778 1.643-2.945l.009-.31c0-1.142.944-2.067 2.109-2.067z" fill="#da4e4f" fill-rule="evenodd"/><g mask="url(#u)"><path clip-rule="evenodd" d="m597.987 521.016h10.127c-4.469 17.047 6.416 31.184 0 48.6h-10.127z" fill="#e95b5c" fill-rule="evenodd"/><g fill="#ffdfe2" fill-opacity=".257949"><path d="m599 549.78h37.0645v3.96734h-37.0645z"/><path d="m599 538.869h37.0645v3.96734h-37.0645z"/></g></g><path clip-rule="evenodd" d="m607.37 488.916 4.717 1.359c3.952 1.139 6.237 5.261 5.108 9.216l-4.717-1.36c-3.951-1.138-6.236-5.26-5.108-9.215z" fill="#2ce780" fill-rule="evenodd"/></svg>