<svg height="573" viewBox="0 0 637 573" width="637" xmlns="http://www.w3.org/2000/svg" xmlns:xlink="http://www.w3.org/1999/xlink"><defs><filter id="a" height="105.2%" width="105.2%" x="-2.6%" y="-2.6%"><feGaussianBlur in="SourceGraphic" stdDeviation="2"/></filter><path id="b" d="m18.522 0h25.108258c1.6230718 0 2.9518112 1.29085613 2.9987454 2.91324921l.0743499 2.5700766c.0883397 3.05367279 2.5892967 5.48332579 5.644247 5.48332579h81.4837037c3.05495 0 5.555907-2.429653 5.644247-5.48332579l.074349-2.5700766c.046935-1.62239308 1.375674-2.91324921 2.998746-2.91324921h25.108258c10.229418 0 18.522 8.29258186 18.522 18.522v361.098791c0 10.229419-8.292582 18.522-18.522 18.522h-149.134904c-10.22941814 0-18.522-8.292581-18.522-18.522v-361.098791c0-10.22941814 8.29258186-18.522 18.522-18.522z"/><path id="c" d="m8.756748 0h191.188329c4.836218 0 8.756748 3.92052962 8.756748 8.756748v119.254196c0 4.836218-3.92053 8.756748-8.756748 8.756748h-191.188329c-4.83621838 0-8.756748-3.92053-8.756748-8.756748v-119.254196c0-4.83621838 3.92052962-8.756748 8.756748-8.756748z"/><filter id="d" height="147.5%" width="131.1%" x="-13.2%" y="-20.1%"><feOffset dx="5" dy="5" in="SourceAlpha" result="shadowOffsetOuter1"/><feGaussianBlur in="shadowOffsetOuter1" result="shadowBlurOuter1" stdDeviation="10"/><feColorMatrix in="shadowBlurOuter1" result="shadowMatrixOuter1" type="matrix" values="0 0 0 0 0.0755212756   0 0 0 0 0.582569014   0 0 0 0 0.878793025  0 0 0 0.229458042 0"/><feOffset dx="0" dy="1" in="SourceAlpha" result="shadowOffsetOuter2"/><feGaussianBlur in="shadowOffsetOuter2" result="shadowBlurOuter2" stdDeviation="5.5"/><feColorMatrix in="shadowBlurOuter2" result="shadowMatrixOuter2" type="matrix" values="0 0 0 0 0.50398247   0 0 0 0 0.700178215   0 0 0 0 1  0 0 0 0.233828671 0"/><feMerge><feMergeNode in="shadowMatrixOuter1"/><feMergeNode in="shadowMatrixOuter2"/></feMerge></filter><path id="e" d="m4.4767697 0h207.0505983c2.472452 0 4.47677 2.00990288 4.47677 4.48924372v117.84264728c0 2.479341-2.004318 4.489244-4.47677 4.489244h-207.0505983c-2.47245163 0-4.4767697-2.009903-4.4767697-4.489244v-117.84264728c0-2.47934084 2.00431807-4.48924372 4.4767697-4.48924372z"/><filter id="f" height="137.8%" width="122.2%" x="-8.3%" y="-15.8%"><feOffset dx="6" dy="4" in="SourceAlpha" result="shadowOffsetOuter1"/><feGaussianBlur in="shadowOffsetOuter1" result="shadowBlurOuter1" stdDeviation="7"/><feColorMatrix in="shadowBlurOuter1" type="matrix" values="0 0 0 0 0.018993433   0 0 0 0 0.018993433   0 0 0 0 0.018993433  0 0 0 0.11 0"/></filter><linearGradient id="g"><stop offset="0" stop-color="#fdc6c6"/><stop offset="1" stop-color="#fab2b2"/></linearGradient><linearGradient id="h" x1="42.314264%" x2="50%" xlink:href="#g" y1="12.633956%" y2="69.618545%"/><linearGradient id="i" x1="46.203666%" x2="50%" xlink:href="#g" y1="-28.185925%" y2="91.050481%"/><linearGradient id="j"><stop offset="0" stop-color="#ffafaf"/><stop offset="1" stop-color="#f07777"/></linearGradient><linearGradient id="k" x1="44.81357%" x2="62.81405%" xlink:href="#j" y1="-28.185925%" y2="121.546626%"/><linearGradient id="l" x1="31.713261%" x2="55.144278%" xlink:href="#g" y1="-6.916917%" y2="91.235291%"/><linearGradient id="m" x1="45.012772%" x2="50%" xlink:href="#g" y1="-28.185925%" y2="91.050481%"/><linearGradient id="n" x1="42.314264%" x2="50%" xlink:href="#g" y1="21.162617%" y2="65.140685%"/><linearGradient id="o" x1="45.135929%" x2="62.017602%" xlink:href="#j" y1="-28.185925%" y2="121.546626%"/><linearGradient id="p" x1="31.713261%" x2="55.144278%" xlink:href="#g" y1="-6.206297%" y2="90.72046%"/><linearGradient id="q" x1="42.314264%" x2="50%" xlink:href="#g" y1="-3.859983%" y2="78.278468%"/><linearGradient id="r" x1="28.502916%" x2="77.061497%" y1="98.643102%" y2="9.204311%"><stop offset="0" stop-color="#28324f"/><stop offset="1" stop-color="#222735"/></linearGradient><linearGradient id="s" x1="44.359463%" x2="50%" xlink:href="#g" y1="-28.185925%" y2="91.050481%"/><linearGradient id="t" x1="42.314264%" x2="50%" xlink:href="#g" y1="28.062499%" y2="61.517994%"/><linearGradient id="u" x1="42.314264%" x2="50%" xlink:href="#g" y1="8.536222%" y2="71.770006%"/><path id="v" d="m6.05946623 0h24.94560897c1.165302 0 2.1099659.92520707 2.1099659 2.06650782v.0590297c0 1.26212983.6131642 2.44895488 1.651461 3.19652615l.6465784.46553491c1.0382968.74757126 1.6514609 1.93439631 1.6514609 3.19652614v30.88761768c0 2.1911-1.8135913 3.9673375-4.0507695 3.9673375h-28.96300234c-2.23717826 0-4.05076956-1.7762375-4.05076956-3.9673375v-30.88761768c0-1.26212983.61316415-2.44895488 1.65146097-3.19652614l.64657838-.46553491c.96907703-.69773319 1.56781627-1.77810522 1.64334116-2.94521208l.00811981-.31034377c0-1.14130075.94466391-2.06650782 2.10996591-2.06650782z"/><mask id="w" fill="#fff"><use fill="#fff" fill-rule="evenodd" xlink:href="#b"/></mask><mask id="x" fill="#fff"><use fill="#fff" fill-rule="evenodd" xlink:href="#c"/></mask><mask id="y" fill="#fff"><use fill="#fff" fill-rule="evenodd" xlink:href="#v"/></mask></defs><g fill="none" fill-rule="evenodd"><g transform="translate(6 15)"><ellipse cx="115.530612" cy="260.606928" fill="#7367f0" filter="url(#a)" opacity=".1" rx="115.530612" ry="116.393072"/><path d="m484.75 52.185241c-60.751322 0-110 49.248677-110 110 0 60.751322 49.248678 110 110 110s110-49.248678 110-110c0-60.751323-49.248678-110-110-110zm.5 47c34.517797 0 62.5 27.982203 62.5 62.5s-27.982203 62.5-62.5 62.5-62.5-27.982203-62.5-62.5 27.982203-62.5 62.5-62.5z" fill="#00cfe8" fill-rule="nonzero" opacity=".05"/><ellipse cx="306.382653" cy="38.040663" opacity=".1" rx="37.943878" ry="38.040663" stroke="#7367f0" stroke-width="30"/><path d="m485.165026 52.185241c60.52211 0 109.584974 49.248677 109.584974 110 0 60.751322-49.062864 110-109.584974 110-36.46066 0-69.92838-18.032654-90.242445-47.580065-7.392643-10.752818-4.70157-25.485318 6.010678-32.905958 10.605126-7.346434 25.096021-4.77239 32.557852 5.713275l.223954.320167c11.606212 16.88158 30.646733 27.140753 51.449961 27.140753 34.491095 0 62.451652-28.066451 62.451652-62.688172 0-34.275504-27.404142-62.126188-61.4189-62.6797737l-1.032752-.0083984c-13.015507 0-23.566661-10.5911134-23.566661-23.655914 0-13.0648005 10.551154-23.6559139 23.566661-23.6559139z" fill="#00cfe8" fill-rule="nonzero" opacity=".1"/></g><g transform="translate(168.97491 153)"><path d="m25.137 0h151.089708c13.882782 0 25.137 11.2542182 25.137 25.137v367.18605c0 13.882782-11.254218 25.137-25.137 25.137h-151.089708c-13.8827818 0-25.137-11.254218-25.137-25.137v-367.18605c0-13.8827818 11.2542182-25.137 25.137-25.137z" fill="#8ee9f4"/><g transform="translate(7.262298 8.412419)"><use fill="#fff" xlink:href="#b"/><g fill="#e97eff" fill-opacity=".548951"><ellipse cx="70.585461" cy="242.325116" mask="url(#w)" rx="15.968771" ry="15.951493"/><path d="m27.9132318 68.3541426h131.7537002c2.890704 0 5.234083 2.3433791 5.234083 5.2340837s-2.343379 5.2340837-5.234083 5.2340837h-131.7537002c-2.8907046 0-5.2340837-2.3433791-5.2340837-5.2340837s2.3433791-5.2340837 5.2340837-5.2340837z" mask="url(#w)"/></g></g><g fill="#00cfe8" fill-rule="nonzero"><path d="m111.596533 7.30840637c1.722521 0 3.1189 1.33907377 3.1189 2.99090503 0 1.6151238-1.335007 2.9312361-3.00456 2.9889324l-.11434.0019725h-35.2671239c-1.7225213 0-3.1189006-1.3390737-3.1189006-2.9909049 0-1.6151239 1.3350076-2.93123619 3.0045607-2.98893248l.1143399-.00197255z"/><path d="m124.235722 6.8099222c1.722522 0 3.118901 1.39486852 3.118901 3.11552603 0 1.68242067-1.335008 3.05337097-3.004561 3.11347127l-.11434.0020548h-.163587c-1.722521 0-3.1189-1.3948686-3.1189-3.11552607 0-1.68242068 1.335007-3.05337099 3.00456-3.11347129l.11434-.00205474z"/></g></g><g transform="translate(188.229391 350.513514)"><use fill="#000" filter="url(#d)" xlink:href="#c"/><use fill="#fff" fill-rule="evenodd" xlink:href="#c"/><path d="m-4.68241273-5.36343889h218.73556573v40.22579169h-218.73556573z" fill="#a8edf6" mask="url(#x)"/><path d="m19.4031083 22.1241854h66.8825279c1.1108046 0 2.0112896.900485 2.0112896 2.0112896s-.900485 2.0112896-2.0112896 2.0112896h-66.8825279c-1.1108046 0-2.0112896-.900485-2.0112896-2.0112896s.900485-2.0112896 2.0112896-2.0112896z" fill="#6fa3ff" mask="url(#x)" opacity=".365606"/><path d="m17.391819 10.726878h37.459302v4.022579h-37.459302z" fill="#fff" mask="url(#x)"/><path d="m24.08098 101.905339h37.459302v4.693009h-37.459302z" fill="#ea5455" mask="url(#x)"/><path d="m26.4274843 115.313936h19.3879707c1.2959387 0 2.3465045 1.050566 2.3465045 2.346505 0 1.295938-1.0505658 2.346504-2.3465045 2.346504h-19.3879707c-1.2959387 0-2.3465045-1.050566-2.3465045-2.346504 0-1.295939 1.0505658-2.346505 2.3465045-2.346505z" fill="#f8f9fa" mask="url(#x)"/><path d="m83.614513 101.905339h37.459302v4.693009h-37.459302z" fill="#ff9f43" fill-rule="nonzero" mask="url(#x)"/><path d="m85.9610176 115.313936h19.3879704c1.295939 0 2.346505 1.050566 2.346505 2.346505 0 1.295938-1.050566 2.346504-2.346505 2.346504h-19.3879704c-1.2959387 0-2.3465045-1.050566-2.3465045-2.346504 0-1.295939 1.0505658-2.346505 2.3465045-2.346505z" fill="#f8f9fa" mask="url(#x)"/><path d="m145.154795 101.905339h37.459302v4.693009h-37.459302z" fill="#28c76f" mask="url(#x)"/><path d="m147.501299 115.313936h19.387971c1.295939 0 2.346504 1.050566 2.346504 2.346505 0 1.295938-1.050565 2.346504-2.346504 2.346504h-19.387971c-1.295938 0-2.346504-1.050566-2.346504-2.346504 0-1.295939 1.050566-2.346505 2.346504-2.346505z" fill="#f8f9fa" mask="url(#x)"/><g mask="url(#x)"><g transform="translate(144.653108 49.779417)"><path d="m19.231338 38.549717c10.6211747 0 19.231338-8.6296481 19.231338-19.2748585s-8.6101633-19.2748585-19.231338-19.2748585c-10.62117469 0-19.231338 8.6296481-19.231338 19.2748585s8.61016331 19.2748585 19.231338 19.2748585zm0-7.7099434c-6.3727048 0-11.5388028-5.1777888-11.5388028-11.5649151 0-6.3871262 5.166098-11.56491509 11.5388028-11.56491509s11.5388028 5.17778889 11.5388028 11.56491509c0 6.3871263-5.166098 11.5649151-11.5388028 11.5649151z" fill="#f2f2f2"/><path d="m38.462676 19.2748585c0-10.6452104-8.6101633-19.2748585-19.231338-19.2748585-2.1242349 0-3.8462676 1.72592962-3.8462676 3.8549717 0 2.12904209 1.7220327 3.85497171 3.8462676 3.85497171 6.3002877 0 11.4212357 5.06078049 11.5368073 11.34764649l.0019955.2172686c0 2.1290421 1.7220327 3.8549717 3.8462676 3.8549717 2.124235 0 3.8462676-1.7259296 3.8462676-3.8549717z" fill="#28c76f"/></g></g><g mask="url(#x)"><g transform="translate(84.450658 49.779417)"><path d="m19.231338 38.549717c10.6211747 0 19.231338-8.6296481 19.231338-19.2748585s-8.6101633-19.2748585-19.231338-19.2748585c-10.62117469 0-19.231338 8.6296481-19.231338 19.2748585s8.61016331 19.2748585 19.231338 19.2748585zm0-7.7099434c-6.3727048 0-11.5388028-5.1777888-11.5388028-11.5649151 0-6.3871262 5.166098-11.56491509 11.5388028-11.56491509s11.5388028 5.17778889 11.5388028 11.56491509c0 6.3871263-5.166098 11.5649151-11.5388028 11.5649151z" fill="#f2f2f2" fill-rule="evenodd"/><path d="m19.231338 38.549717c10.6211747 0 19.231338-8.6296481 19.231338-19.2748585s-8.6101633-19.2748585-19.231338-19.2748585c-2.1242349 0-3.8462676 1.72592962-3.8462676 3.8549717 0 2.12904209 1.7220327 3.85497171 3.8462676 3.85497171 6.3727048 0 11.5388028 5.17778889 11.5388028 11.56491509 0 6.3145453-5.0493538 11.4470819-11.3220247 11.5629151l-.2167781.002c-2.1242349 0-3.8462676 1.7259296-3.8462676 3.8549717s1.7220327 3.8549717 3.8462676 3.8549717z" fill="#ff9f43" fill-rule="nonzero"/></g></g><g mask="url(#x)"><g transform="translate(24.248209 49.779417)"><path d="m19.231338 38.549717c10.6211747 0 19.231338-8.6296481 19.231338-19.2748585s-8.6101633-19.2748585-19.231338-19.2748585c-10.62117469 0-19.231338 8.6296481-19.231338 19.2748585s8.61016331 19.2748585 19.231338 19.2748585zm0-7.7099434c-6.3727048 0-11.5388028-5.1777888-11.5388028-11.5649151 0-6.3871262 5.166098-11.56491509 11.5388028-11.56491509s11.5388028 5.17778889 11.5388028 11.56491509c0 6.3871263-5.166098 11.5649151-11.5388028 11.5649151z" fill="#f2f2f2"/><path d="m0 19.2748585c0 10.6452104 8.61016331 19.2748585 19.231338 19.2748585 10.6211747 0 19.231338-8.6296481 19.231338-19.2748585s-8.6101633-19.2748585-19.231338-19.2748585c-2.1242349 0-3.8462676 1.72592962-3.8462676 3.8549717 0 2.12904209 1.7220327 3.85497171 3.8462676 3.85497171 6.3727048 0 11.5388028 5.17778889 11.5388028 11.56491509 0 6.3871263-5.166098 11.5649151-11.5388028 11.5649151s-11.5388028-5.1777888-11.5388028-11.5649151c0-2.1290421-1.72203266-3.8549717-3.8462676-3.8549717s-3.8462676 1.7259296-3.8462676 3.8549717z" fill="#ea5455"/></g></g></g><g transform="translate(185.964158 206.351351)"><use fill="#000" filter="url(#f)" xlink:href="#e"/><use fill="#bfb9ff" fill-rule="evenodd" xlink:href="#e"/></g><g transform="translate(216.182353 226.422691)"><g transform="translate(114.829143)"><ellipse cx="12.982632" cy="12.934864" fill="#8e83ff" rx="12.982632" ry="12.934864"/><ellipse cx="30.889711" cy="12.934864" fill="#ffbb7a" rx="12.982632" ry="12.934864"/><path d="m21.8186717 3.68113534.1190657-.11144362c2.4812686 2.3559055 4.0275268 5.68062917 4.0275268 9.36517198 0 3.6845429-1.5462582 7.0092665-4.0275268 9.365172-2.4839344-2.3549037-4.0306586-5.6800741-4.0306586-9.365172 0-3.62681571 1.4981862-6.90499881 3.9115929-9.25372836l.1190657-.11144362z" fill="#fff" fill-opacity=".416193"/></g><path d="m1.79070788 21.1864147h27.08445672c.9889806 0 1.7907078.7987774 1.7907078 1.7841192v19.6253105c0 .9853417-.8017272 1.7841191-1.7907078 1.7841191h-27.08445672c-.98898065 0-1.79070788-.7987774-1.79070788-1.7841191v-19.6253105c0-.9853418.80172723-1.7841192 1.79070788-1.7841192z" fill="#9f95ff"/></g><g fill="#fff" fill-opacity=".646908" transform="translate(216.182353 225.976662)"><path d="m4.02909273 57.9838719h22.38384847c2.2252065 0 4.0290927 1.797249 4.0290927 4.014268 0 2.2170191-1.8038862 4.0142681-4.0290927 4.0142681h-22.38384847c-2.22520647 0-4.02909273-1.797249-4.02909273-4.0142681 0-2.217019 1.80388626-4.014268 4.02909273-4.014268z"/><path d="m4.02909273 78.0552122h55.95962127c2.2252064 0 4.0290927 1.797249 4.0290927 4.014268s-1.8038863 4.0142681-4.0290927 4.0142681h-55.95962127c-2.22520647 0-4.02909273-1.7972491-4.02909273-4.0142681s1.80388626-4.014268 4.02909273-4.014268z"/><path d="m131.617029 78.0552122h22.383849c2.225206 0 4.029092 1.797249 4.029092 4.014268s-1.803886 4.0142681-4.029092 4.0142681h-22.383849c-2.225206 0-4.029093-1.7972491-4.029093-4.0142681s1.803887-4.014268 4.029093-4.014268z"/><path d="m4.02909273 0h22.38384847c2.2252065 0 4.0290927 1.79724903 4.0290927 4.01426805 0 2.21701903-1.8038862 4.01426806-4.0290927 4.01426806h-22.38384847c-2.22520647 0-4.02909273-1.79724903-4.02909273-4.01426806 0-2.21701902 1.80388626-4.01426805 4.02909273-4.01426805z"/><path d="m46.1107279 57.9838719h22.3838485c2.2252065 0 4.0290927 1.797249 4.0290927 4.014268 0 2.2170191-1.8038862 4.0142681-4.0290927 4.0142681h-22.3838485c-2.2252065 0-4.0290927-1.797249-4.0290927-4.0142681 0-2.217019 1.8038862-4.014268 4.0290927-4.014268z"/><path d="m89.087717 57.9838719h22.383848c2.225207 0 4.029093 1.797249 4.029093 4.014268 0 2.2170191-1.803886 4.0142681-4.029093 4.0142681h-22.383848c-2.2252065 0-4.0290927-1.797249-4.0290927-4.0142681 0-2.217019 1.8038862-4.014268 4.0290927-4.014268z"/><path d="m131.169352 57.9838719h22.383849c2.225206 0 4.029092 1.797249 4.029092 4.014268 0 2.2170191-1.803886 4.0142681-4.029092 4.0142681h-22.383849c-2.225206 0-4.029093-1.797249-4.029093-4.0142681 0-2.217019 1.803887-4.014268 4.029093-4.014268z"/></g><g transform="translate(90.422744 332.889009)"><path d="m52.0591818 209.110904s-.1541377 9.856724 5.8993345 13.357727c6.0527931 3.501686 15.4307521 10.007547 15.4307521 10.007547l-35.6750842 1.208631 1.0171735-24.662624z" fill="url(#h)"/><path d="m37.3380066 221.046391c2.7588623.284585 2.1558917 4.27491 7.1616345 4.080409 3.6470217-.141951 9.3351806-6.868245 14.0143143-4.376595 7.1419429 3.802649 15.5163088 8.93063 17.5696683 10.151545 2.0533595 1.221597 2.8647896 5.827498-3.202942 6.392573-5.8022344.540505-13.6347416.480449-15.5964333.122842-1.9623707-.357608-5.6020202-2.860177-8.5299588-2.460257-2.9279385.400602-3.2613378 1.409971-4.8977784 1.856965s-6.5755424.543918-7.0875242-.834645c-.5880322-1.582617-1.1774224-15.112323.5690196-14.932837z" fill="#482b61"/><path d="m34.5730331 0s13.6089388 106.815408 14.746978 116.917133c1.1373602 10.101726 7.3850324 81.964426 6.530145 91.550215-.871184 9.761862-19.1334537 9.814411-21.5833615 2.449337-3.3530056-10.081252-11.1047094-60.46499-12.386701-70.986426s-.8318007-22.736731-5.984212-33.509994c-3.6891211-7.7131263-15.8958816-103.68156588-15.8958816-103.68156588z" fill="#2f2b57"/><path d="m26.5744759 123.434695.0484378.480661c.5194523 5.579492.9548726 24.061018 1.3062609 55.444575l-.7833772-4.687373c-2.4564369-14.863477-4.6375945-29.587342-5.2657038-34.742299-1.2552835-10.30224-.8498069-22.228495-5.6694151-32.834815l-.3147969-.675179c-1.6235837-3.39455-4.896935-23.8831271-8.0534579-45.7620702l.99110963 2.6534628c10.53891597 28.3417205 16.45275537 48.3830704 17.74094257 60.1230374z" fill="#fff" fill-opacity=".192499" opacity=".59096"/><g stroke="#fff" stroke-linecap="round"><path d="m61.151836 222.464716-1.70679 2.553523"/><path d="m64.131768 223.463053-1.70679 2.553523"/></g></g><g transform="translate(53.167925 335.503115)"><path d="m6.41843806 208.757875-3.19275673 21.556081 15.43143117-.0778-.5051916-21.878883z" fill="url(#i)"/><path d="m.38247102 233.801592c-.05160559-1.257768 1.11933466-9.414854 2.84321031-12.64456 1.25037974-2.342604 4.02305002-2.891569 8.08020047-2.907948 5.2332148-.020474 9.6067891.771176 9.6006779 2.907948-.0183336 6.538619 1.6398357 11.567643 1.7511951 12.142271.3272882 1.685669-4.3532036 2.944119-10.7461863 2.879968-5.23253577-.051867-11.448973-.416298-11.52909748-2.377679z" fill="#482b61"/><path d="m54.3355918.89303954s-7.0753988 47.67301946-11.3579842 77.83692736c-4.2085722 29.6397811-16.6721955 118.0517021-17.9601054 127.3068561-1.1823249 8.496401-22.76385312 8.496401-22.53670691-1.793497.22714622-10.289898-1.77088676-74.411677 2.2475595-83.905333 4.01844627-9.493657.52013009-20.5426322.6661196-29.7653533.14666854-9.2227211 5.92581621-89.06334168 5.92581621-89.06334168z" fill="#3a3669"/><path d="m15.6288809 62.7134015-.3377771 1.2269368c-4.0969175 14.7197839-5.51082546 16.045974-4.3497069 39.5233787l.0119277.477274c.0404232 5.906616-2.76871364 36.472715-8.42741059 91.698299l-.0256087-3.433027c-.19842949-22.529685-1.02844189-63.264106 2.1260169-71.612877l.10203258-.255393c4.01844627-9.493657.52013009-20.5426322.6661196-29.7653533.14666854-9.2227211 5.92581621-89.06334168 5.92581621-89.06334168l7.3821475-.10674002.0754912 3.65753504c.5310804 28.56204276-.5186024 47.77981216-3.1490484 57.65330846z" fill="#fff" fill-opacity=".192499" opacity=".461565"/><g stroke="#fff" stroke-linecap="round"><path d="m9.436452 223.030458h5.648771"/><path d="m9.436452 226.025468h5.648771"/></g></g><g transform="translate(76.241046 183.648649)"><path d="m4.79404779 56.4292197s5.91106321-1.3947085 6.11612751-11.1292722c.2050644-9.7345637.0611119-13.0574459.0611119-13.0574459l14.0136354-.23613s.1419299 10.849015.1439524 14.7731422c.0054322 10.5396678 7.3123811 9.6497059 7.3123811 9.6497059s-1.5189739 8.5459572-13.3169637 9.2127175c-9.2115989.521397-14.33024461-9.2127175-14.33024461-9.2127175z" fill="url(#k)"/><g transform="translate(.582624)"><path d="m9.10191832 27.3218906c-5.80834562-.2258932-4.86093695 8.3200845 1.17284368 8.3084827 0 0 6.4845028 13.1044017 16.6650379 13.1384957 4.9038897.0162879 6.5050212-4.3739567 7.9751016-7.4559316 1.4700805-3.0819749 2.5490449-7.6919705 2.6386756-10.5146118.096421-3.0096345.1086434-12.8970686.1086434-12.8970686l-28.78641618-.0129667z" fill="url(#l)"/><path d="m26.5296251 42.6655931c.9159682.3867213 1.9339516.1603185 2.6937976-.2831295" stroke="#f49494" stroke-linecap="round" transform="matrix(.9945219 .10452846 -.10452846 .9945219 4.608018 -2.680397)"/><path d="m9.68206002 32.3435294c.36655868-1.3222761.20605341-2.4766584-1.100179-3.0027393" stroke="#de6767" stroke-linecap="round" transform="matrix(.97437006 -.22495105 .22495105 .97437006 -6.701734 2.863953)"/><path d="m9.10191832 27.3218906s2.67058958 3.0983539 3.65856518 3.183661c.9886545.0853071-.1378413-8.3853467 1.3173007-9.9283815 3.1961518-3.3911278 11.5478746 2.3711855 20.3305677.963629 2.1692457-.3476537 3.2345363 1.3318506 3.1958717 5.0385128 8.2100429-7.5247686 11.186472-13.4607121 1.3759766-15.9393952-.0787664-6.3686868-3.7237511-7.96700061-10.7719891-5.01264515-.9421416-8.60318818-13.1203832-7.30447001-18.66374524 3.64016822-4.01229976-3.92392258-9.65199493-.75649757-7.25856032 5.14782793-4.32063859 0-2.06911342 11.6082522 3.02255726 15.5960492.60750217-1.7420057 1.71772485-2.6894263 3.79345552-2.6894263z" fill="#422851"/><path d="m24.7641763 38.9618296s1.9945304 3.2420564 5.8994929 2.0835575" stroke="#de6767" stroke-linecap="round" transform="matrix(.96592583 -.25881905 .25881905 .96592583 -9.441733 8.540242)"/></g></g><g transform="translate(109.16583 245.975717)"><g transform="matrix(.99756405 .06975647 -.06975647 .99756405 75.042017 1.688427)"><path d="m0 23.7281795s1.01384208-9.3331752 2.98164493-12.7161135c1.96780285-3.3836208 2.22764689-8.85519731 4.31156233-8.80060077 2.08391544.055279.61670834 8.86396537.61670834 8.86396537s9.1457338-7.91649888 13.3509109-10.71798402c3.8364686-2.55511825 2.4675623 9.37286163 1.9481112 10.91726132-1.2371763 3.6770773-17.50245283 18.3648177-17.50245283 18.3648177s-5.27326947-5.1176488-5.70648487-5.9113461z" fill="url(#m)"/><path d="m7.9099156 11.0754306c-.33703498 2.008953-.38693065 3.0050927-.149687 2.9884191.23724365-.0166737 2.3593952-2.7541348 6.3664546-8.21238336z" fill="#f28585"/></g><path d="m17.5275602 4.67897816c4.7312981 10.26031214 22.4273685 36.77135464 22.4273685 36.77135464s28.9982265-18.9058785 32.6880266-18.9447785c3.6898001-.0389001 8.7002961 4.857045 8.3852303 8.2358886-.3150657 3.3788436-32.06525 33.0151182-42.2478488 32.7660215-15.8334116-.3883179-35.6881427-41.5610398-37.72689408-47.0643853-5.46071311-14.74048817 11.85923218-21.7719597 16.47411748-11.76410094z" fill="#ff5c5d"/><path d="m39.8497189 41.4309771c2.2324478 3.2702816 3.5486122 4.7980848 3.9484931 4.5834098.3998809-.2146751-.0389236-2.2134867-1.3164137-5.9964349z" fill="#000" fill-opacity=".159856"/></g><g transform="translate(56.507974 239.31636)"><path d="m.14909295 12.9797659c-1.48569794 7.1241665 8.68874384 43.0287043 5.88950437 59.8254243-2.21396371 13.2847971-4.32747529 31.5762168 1.41065037 35.6373148 5.84205961 4.134656 56.12972601 7.417853 63.29765841-4.061098 5.6866281-9.1067432 1.0314328-29.3021675 0-38.5146517-2.0567546-18.379244 1.0490874-50.1407833-2.4404015-56.63708953-2.164719-4.02990737-16.9222939-9.22681587-17.4766424-9.06575607-.5543486.1610598-1.857462 5.87112335-11.1890622 5.87112335s-13.452298-5.87112335-13.9537273-6.03218315c-.5014294-.16105981-24.19351818 6.53247644-25.53797975 12.976916z" fill="#ea5455"/><path d="m25.6635824.00003405.0234903.00281585c.5014293.1610598 4.6221271 6.03218315 13.9537273 6.03218315s10.6347136-5.71006355 11.1890622-5.87112335c.2000801-.05813105 2.2504041.58171653 4.8910773 1.61275255l-.0120231.12129024c-6.6697591 11.20022041-25.0125888 12.58067121-34.8174018-.23321702l-.2220671-.29624317 1.0940545-.33936803c2.0026506-.60891998 3.4356873-.9747275 3.8253838-1.02352416z" fill="#ff9b86"/><path d="m.18063751 17.9281805.82219238.1143172c8.72222854 1.2475736 13.83774911 3.2214155 15.34656181 5.9215258.9899548 1.7715831.529646 7.7638031-1.3809264 17.9766599l-.2028188 1.0715582c-1.7719983 9.2574569.2540774 18.8339548 5.6035301 26.5597187l.3006079.4272913c1.8090756 2.5311007 3.4768363 5.8637298 5.0032824 9.9978873 3.5407018 9.5894767-3.990717 17.6698608.7792208 31.9362591l-.9738282-.07145c-8.8666303-.678928-16.03749245-2.009825-18.02921181-3.419443-5.73812566-4.061098-3.62461408-22.3525177-1.41065037-35.6373148 2.38180449-14.2919188-4.62919671-42.4176922-5.85795981-54.8770097z" fill="#000" fill-opacity=".066761"/></g><g transform="translate(24 245.321193)"><g transform="translate(36.332608 83.285204)"><path d="m6.54779948 0s3.34777934 3.9491321 6.20512922 4.44056384c2.8573498.49143173 14.8153107 2.83043817 15.5451342 3.17677824.6898655.32737783 3.0489414 1.56920885 5.0663128 3.56198272 1.7478001 1.7266157 4.7714806 5.8199915 3.7577022 6.5242869-1.0837175.7534323-4.009619-2.9386589-5.4776624-3.8511037-1.5393406-.9574868-3.9050497-1.8050982-3.9050497-1.8050982s5.8518029 7.0593331 5.4796994 8.2925325c-.2716084.9001606-5.2476114 2.4373146-6.3116373 2.3219794s-6.9272351-4.4082498-9.5625155-4.9078082c-1.8279246-.3460056-10.01148563-2.5626252-11.737557-4.2271374-1.72539236-1.6651945-5.6073554-5.04403813-5.6073554-5.04403813z" fill="url(#n)"/><g fill="#f28585"><path d="m32.091012 21.1583032c-4.0825397-4.1135628-6.2089891-6.1352864-6.3793483-6.0651706-.1703593.0701159 1.6083023 2.2349806 5.3359847 6.4945943z"/><path d="m29.361547 22.1716564c-3.0582358-2.802039-4.6873029-4.1355573-4.8872014-4.0005548-.1998985.1350024 1.0248374 1.5826764 3.6742078 4.343022z"/></g></g><path d="m46.208968 1.02322684c9.4555304 6.65337944 3.1384351 18.74777066-4.7062945 29.84178826-7.3279946 10.362424-18.4347411 25.9715759-18.4347411 25.9715759s20.8846489 22.8759518 22.9020202 27.1085488c2.0173714 4.2325971-3.1343609 12.1818538-9.5388869 10.0109587-6.4052051-2.170895-42.8534301-29.1700388-35.44150099-41.929463 11.32100999-19.4887953 34.05086599-58.86214468 45.21940329-51.00340866z" fill="#ff5c5d"/><path d="m23.0679324 56.836591c-2.8571663-3.022654-4.152282-4.7088326-3.8853472-5.0585359.2669348-.3497032 2.0104621.710767 5.2305818 3.1814107z" fill="#000" fill-opacity=".159856"/></g><g transform="translate(372.845878 313.054054)"><g fill="#86e5f0"><path d="m42.2218727 155.618514h81.1306863v82.459837c0 2.209139-1.790861 4-4 4h-97.2420463c-2.209139 0-4-1.790861-4-4v-58.348477c0-13.316337 10.7950235-24.11136 24.11136-24.11136z"/><path d="m27.6188829 225.011524h76.7794751v17.066827h-76.7794751z"/><path d="m125.399122 241.459957 4.843408 12.129983h-23.413493l4.057417-12.129983z"/></g><path d="m45.628238 241.459957 4.8434084 12.129983h-23.4134927l4.0574168-12.129983z" fill="#91d6ff"/><path d="m204.172869 241.459957 4.843409 12.129983h-23.413493l4.057417-12.129983z" fill="#86e5f0"/><path d="m101.538383 66.3327791 22.411365-.486073v97.9275409h-45.9999046v-73.3357769c0-13.1126017 10.4790205-23.8213628 23.5885396-24.105691z" fill="#91d6ff"/><path d="m111.035428 65.8467061h76.230831c12.061899 0 21.84 9.778101 21.84 21.84v76.3356949c0 .964952-.782248 1.7472-1.7472 1.7472h-120.4349912v-75.8115349c0-13.3163364 10.7950236-24.11136 24.1113602-24.11136z" fill="#c6f9ff"/><path d="m192.032737 65.8467061c9.429446 0 17.073522 7.6440761 17.073522 17.0735218v71.1254001c0 .964952-.782248 1.7472-1.7472 1.7472h-32.399844v-72.8726001c0-9.4294457 7.644076-17.0735218 17.073522-17.0735218z" fill="#86e5f0"/><path d="m40.2188829 164.820132h78.2797771v65.753483h-90.8797771v-53.153483c0-6.958788 5.6412122-12.6 12.6-12.6z" fill="#c6f9ff"/><g transform="matrix(-1 0 0 1 131.943495 .465078)"><path d="m10.0056596 56.8752086c-12.19816783-2.8422114-13.00152451-19.5945394-3.72757502-25.4056398-9.56413166-20.0597843 12.55300802-39.97654229 27.70304902-27.69355557 9.9320204-4.25365201 18.1856582 12.34497137 8.943843 25.23652177 3.8749265 22.1351676-4.0113303 27.8568862-18.2275301 28.0999532z" fill="#422851"/><path d="m10.1574171 52.8742814s5.9338272-1.3937873 6.1396813-11.121921c.205854-9.7281337.0613472-13.048821.0613472-13.048821l13.0704671-.2359741s.1424765 10.841849.1445068 14.7633841c.0054531 10.532706 7.3405418 9.643332 7.3405418 9.643332s-1.5248237 8.5403123-13.3682487 9.2066322c-9.2470735.5210526-13.3882955-9.2066322-13.3882955-9.2066322z" fill="url(#o)"/><path d="m13.3115714 23.8457333c-5.83071407-.225744-4.87965685 8.3145888 1.1773604 8.3029947 0 0 3.518008 12.1320488 15.7320805 12.1320488 9.9194019 0 10.5646759-14.140128 10.6546518-16.9609049.0967923-3.0076465.1090618-12.8885496.1090618-12.8885496l-27.9001393-.0129581z" fill="url(#p)"/><g stroke-linecap="round"><path d="m28.0824059 35.1582406s2.0052193 3.2430465 5.9228213 2.0892916" stroke="#f77b7b" stroke-width="1.5" transform="matrix(.95105652 -.30901699 .30901699 .95105652 -9.706264 11.371036)"/><path d="m29.7818223 39.0292407c.9192498.3860229 1.7911523.3860394 2.5541077-.0575248" stroke="#f49494" transform="matrix(.99939083 .0348995 -.0348995 .99939083 1.38495 -1.060095)"/><path d="m13.5801623 28.5824793c.366579-1.3213421.2043508-2.4753841-1.1071341-3.0025294" stroke="#f77b7b" transform="matrix(.97437006 -.22495105 .22495105 .97437006 -5.755893 3.643606)"/></g><path d="m12.3890484 22.7905357s3.1958919 4.290684 3.8432584 4.3134737.874052-5.5802512.874052-5.5802512c3.9203806-.2996539 13.8420519-2.2764712 16.2741562-6.8817329 1.7008408 4.0634181 4.9521827 5.868311 7.0884298 5.5217155l.4048918 8.6327347.997136-17.3554654h-30.2636153z" fill="#422851"/></g><g transform="matrix(-1 0 0 1 127.768894 131.693412)"><path d="m65.7021733 93.1980305s-5.2308374 10.5705935-.9427337 13.9016455c4.294552 3.331698 15.6383554 9.575082 15.6383554 9.575082l-30.0534877-1.889725 6.6804142-23.0541366z" fill="url(#q)"/><path d="m53.2513328 103.257643c1.4831036.173553-.1008256 5.169576 3.110416 5.549586 3.2047933.379364 4.7624269-4.353979 8.3992547-2.853388s16.9005153 9.258852 17.4228257 12.430546c.5287587 3.171048-4.4129677 4.104162-11.1901061 3.388014-6.7771384-.716147-8.0262616-3.128468-13.1139516-2.156831-5.0812417.970993-8.8877598-.576876-8.7201046-4.29181.1676551-3.714287 2.6085624-12.239025 4.0916659-12.066117z" fill="#222d4e"/><path d="m66.4198249 106.723489-.6601181.990447c-.3062948.459567-.1820431 1.08042.277524 1.386715.0218173.014541.0441981.028219.0670905.041l8.9656004 5.005931c.2907415.162336.6432141.1693.9401411.018576l1.3918819-.706537c-2.1858948-1.584061-3.9733569-2.774255-5.9486008-3.942913-1.5164197-.897194-3.1952818-1.822149-5.033519-2.793219z" fill="#fff" fill-opacity=".540975"/><path d="m20.4297468.03154356c9.0985179.40646194 59.7383047 11.61295444 68.9386969 13.51685914s16.9787283 12.2060683 9.9630036 24.1354037c-7.8797936 13.3913081-28.2111039 51.4223126-33.1473881 59.9954418-2.443254 4.2433398-14.7690595 1.8642034-11.8737835-5.2579217 5.3973141-13.2769189 7.903832-46.6298047 21.6644536-58.7907589 0 0-46.2768182 8.0583137-66.26647467-1.1722434-14.52796643-6.709848-11.24133676-33.40938626 10.72149217-32.42678064z" fill="url(#r)"/></g><g transform="matrix(-1 0 0 1 100.32771 56.189189)"><path d="m57.4555354 21.7037492s-.1028136-7.4071811 2.4868026-11.2782093c2.5896161-3.87102809 2.6924297-7.98290875 4.6523129-7.84831469 1.9598832.13459405.0192775 9.69206009.0192775 9.69206009s2.4868026-.9505302 4.273188-2.1528609c1.7863853-1.20233064 7.2033739-7.1296211 8.4692657-6.07927226 2.1462328 1.78965017-1.3108727 11.88484846-3.1936457 13.90311536-1.8891989 2.0189109-12.2091084 8.657811-12.2091084 8.657811z" fill="url(#s)"/><path d="m1.54220616 17.2652177c4.23241406 9.8219505 11.98206974 27.8652243 15.17689754 33.2483523 4.0037933 6.7415203 10.317242 9.7116838 17.7093114 4.7097971 7.7672419-5.255852 29.1545831-25.7552419 29.7818246-30.3987616.6213793-4.6435198-4.6134486-10.2149224-9.3500006-7.3303916s-24.4180311 19.2723792-24.4180311 19.2723792-7.943104-20.3723653-14.3327595-32.1738382c-5.5337935-10.21023015-21.00965654-2.25929495-14.56724234 12.6724628z" fill="#6a5ee3"/><path d="m30.524277 36.7771505c1.4222413 4.8265964 2.2995976 7.1001635 2.6320691 6.8207012.3324714-.2794622.2054599-3.1837394-.3810345-8.7128314z" fill="#000" fill-opacity=".302803"/></g><g transform="matrix(.95105652 -.30901699 .30901699 .95105652 14.231814 55.981034)"><path d="m2.93304014 1.23871603h11.95188556c1.3254834 0 2.4 1.0745166 2.4 2.4v28.72195947c0 1.3254834-1.0745166 2.4-2.4 2.4h-11.95188556c-1.3254834 0-2.4-1.0745166-2.4-2.4v-28.72195947c0-1.3254834 1.0745166-2.4 2.4-2.4z" fill="#7596ff" fill-rule="nonzero"/><path d="m1.794845.798142h16.751886v33.52196h-16.751886z" fill="#93c2f9"/><path d="m4.78912482 1.99535473h1.27048475c.25882859 0 .47409578.18660972.51873752.4326961l.00849442.09482206c0 .29134023.23604977.52751815.52723193.52751815h6.12625406c.2588286 0 .4740958-.18660972.5187375-.4326961l.0084944-.09482205c0-.29134024.2360498-.52751816.527232-.52751816h1.2640719c.9390135 0 1.709124.72355239 1.7837875 1.64382739l.0059322.14844824-.0240952 27.26003934c-.002957 1.189418-.9669439 2.1530756-2.1557186 2.1549851h-10.05113139c-1.13780036.0018194-2.06953635-.8808468-2.14840601-1.999181l-.00540785-.1538999c0-.0006353 0-.0012706.00190479-.0019042l.02408953-27.25362306c.00087829-.99364732.80619797-1.79869191 1.79930655-1.79869191z" fill="#e6f3ff" fill-rule="nonzero"/></g><g transform="matrix(-1 0 0 1 141.083432 51.612781)"><path d="m0 10.0068988s10.1994164 34.1708395 10.5014785 40.6391209c.3020621 6.4689244-8.34205575 25.4808748-6.87030632 30.2862696 3.39337861 11.1045583 46.71679752 15.8861609 48.37200442.9478325.7719355-6.9667583-.8345172-13.2194979 1.0164166-21.428473 1.8445069-8.2089751 9.2586506-20.4076267 5.0534543-31.8764933-4.2051962-11.4688666-3.0784628-22.07935138-6.0862302-24.08484741s-10.038745-4.13535319-10.038745-4.13535319c-3.419086 5.03431506-14.9617148 4.96100915-20.4695282-.3549549 0 0-13.6827709 2.65573141-21.4785441 10.0068988z" fill="#7367f0"/><path d="m9.13993678 15.5412316c6.79868132 10.7952398 6.77824162 29.5907648 10.42962312 32.0523329 3.6513815 2.4615682 17.8629047.0459494 17.8629047 1.9953548s-19.639431 19.814601-16.4153412 28.3550006c1.6881932 4.4719116 1.2302591 8.4725848-1.3738024 12.0020196l-.8500054-.1853284c-7.7380956-1.7497346-13.95917868-4.8917165-15.16214342-8.8283218-1.47174943-4.8053948 8.16950452-23.8173452 7.86744232-30.2862696-.256411-5.4907211-8.36315125-30.9432939-10.80766043-38.5112472 1.99021739-3.51316336 4.8060629-2.37792633 8.44898271 3.4064591z" fill="#000" fill-opacity=".199355"/></g><g transform="matrix(-1 0 0 1 164.662928 58.763197)"><path d="m44.3127259 37.0311967s8.5908955-7.6075861 11.2207615-8.490437 18.032439-1.943431 17.9350366.0515158c-.1103895 2.137259-8.3831037 2.0142652-9.2402452 3.0658301-.8571415 1.050921-1.0519464 8.2373659-4.292201 9.0442311-3.2337611.8068652-12.928551 2.19779-12.928551 2.19779z" fill="url(#t)"/><path d="m21.4575573 4.8202439c-9.0510351 12.78097-16.77858624 32.2495038-19.74479333 39.839726-2.96620708 7.5902223.0259606 19.0386908 13.06906483 16.7911264 13.019656-2.2416992 33.7350405-14.4220713 36.0271097-17.9752408 2.2920691-3.5531695-1.1900001-10.0185202-5.574828-9.1721644-4.062414.7830111-24.2128587 9.3557468-24.2128587 9.3557468s12.9635477-22.9906974 16.1290651-29.1539039c5.2875865-10.29293018-7.7203453-20.94657336-15.6927596-9.6852901z" fill="#6a5ee3"/><path d="m21.2264243 43.5022491c-4.5265694 2.2501233-6.5138109 2.9033447-5.9617245 1.9596644.5520863-.9436803 3.403006-3.0731856 8.5527591-6.3885159z" fill="#000" fill-opacity=".302803"/></g><g transform="matrix(-1 0 0 1 142.725935 127.702703)"><path d="m112.262189 97.6131215s-.157694 12.4416065 10.088617 17.0933375c10.239863 4.651086 17.535434 4.371079 16.606883 7.967299-.928552 3.595576-27.581956 3.450413-30.070991.638083-2.121482-2.392319-6.734763-24.669659-8.005074-22.96639z" fill="url(#u)"/><path d="m104.155506 111.539927c1.144232-2.211973 1.216162 4.010731 5.72939 2.63933 3.662621-1.112934 4.914638-7.482183 7.229075-6.087252 2.314436 1.394932 22.686687 12.211461 22.802756 12.276624 2.508379 1.351647 1.80736 5.447145-2.429158 6.162002-4.707241.793568-29.09803.259363-30.407031-.996153-1.309-1.255515-3.842583-12.220786-2.925032-13.994551z" fill="#222d4e"/><path d="m120.127339 111.812176c-.3404 0-.67093.273868-.991588.821602-.278994.476617-.118818 1.08917.357786 1.368187.03996.023394.081497.043984.124311.061621l10.731958 4.421139c.40874.16835.876579-.026492 1.044959-.43522.086369-.209653.079763-.446101-.018177-.650604-.198726-.41495-10.481719-5.586725-11.249249-5.586725z" fill="#fff" fill-opacity=".540975"/><path d="m5.88108479.17605057c-8.81838761 18.63359383-7.03123274 31.14958643 5.36146461 37.54797783 17.9771402 9.2816582 71.7945734-1.6960515 71.7945734-1.6960515s-.961671 7.7467564 0 14.6559294c2.5116482 18.0450609 14.4568156 48.1090543 16.9841172 51.8866687 3.494966 5.224003 14.141328 1.284295 14.341867-3.0655078.20054-4.3498029-8.02577-59.9041113-9.276735-70.4979289-1.244518-10.5944628-5.1736008-12.133347-16.6494498-15.0294142-2.6364161-.665331-33.8136538-8.41758524-36.6697564-8.19163017-16.3603812 1.2943201-31.6557416-.57569435-45.88608101-5.61004336z" fill="#2c3757"/><path d="m20.3814608 34.8394634c17.7979692 1.9953547 64.9173575-2.1176282 66.8097775-.2486838 1.806742 1.7843291 1.5052917 32.8276623 5.5582308 50.7952726l-.6163827-1.6966999c-3.8116338-10.5922905-7.7694589-23.4751071-9.0959636-33.005446-.961671-6.909173 0-14.6559294 0-14.6559294l-2.1699846.4202594c-10.2300992 1.922656-53.8047055 9.4436513-69.6245888 1.2757921-8.5717543-4.4256256-12.06962349-11.7780233-10.4936076-22.0571931 2.71382028 11.6183891 9.2579763 18.0095239 19.632519 19.1726281z" fill="#fff" fill-opacity=".192499" opacity=".461565"/></g><path d="m127.975573 155.618514h81.130686v84.712637c0 .964952-.782248 1.7472-1.7472 1.7472h-103.494846v-62.348477c0-13.316337 10.795023-24.11136 24.11136-24.11136z" fill="#86e5f0"/></g><g transform="translate(595 488)"><path d="m0 20h8c7.7319865 0 14 6.2680135 14 14h-8c-7.7319865 0-14-6.2680135-14-14z" fill="#2ce780"/><path d="m10 12h6c3.8659932 0 7 3.1340068 7 7h-6c-3.8659932 0-7-3.1340068-7-7z" fill="#28c76f"/><path d="m22 19h7c6.627417 0 12 5.372583 12 12h-7c-6.627417 0-12-5.372583-12-12z" fill="#28c76f" transform="matrix(-1 0 0 1 63 0)"/><path d="m19.7396169 8.67466788 6.1460524.01057095c4.7977623.00825194 8.6850535 3.89556677 8.6932761 8.69332917l-6.1460524-.010571c-4.7977623-.0082519-8.6850534-3.8955668-8.6932761-8.69332912z" fill="#2ce780" transform="matrix(-.92718385 .37460659 .37460659 .92718385 47.461071 -9.225498)"/><path d="m17.7647005 5c3.1281202 1.98324811 5.1123991 5.755685 5.229786 9.8967088l.0055135.3892575v29.7140337h-1.6050428v-29.7140337c0-3.4835828-1.5762987-6.69670854-4.1275784-8.45794828l-.2673788-.17696963z" fill="#28c76f"/><g transform="translate(4 35)"><use fill="#da4e4f" xlink:href="#v"/><path d="m-1.01269239-1.98366878h10.12692389c-4.46893466 17.04692388 6.4157143 31.18400328 0 48.59988498h-10.12692389z" fill="#e95b5c" mask="url(#y)"/><g fill="#ffdfe2" fill-opacity=".257949"><path d="m0 26.779529h37.064541v3.967338h-37.064541z" mask="url(#y)"/><path d="m0 15.86935h37.064541v3.967338h-37.064541z" mask="url(#y)"/></g></g><path d="m11.1034284 2.47455046 4.9087827.0064427c4.1126961.00539785 7.445343 3.33806304 7.4507183 7.45075917l-4.9087827-.0064427c-4.1126961-.00539786-7.445343-3.33806305-7.4507183-7.45075917z" fill="#2ce780" transform="matrix(.9612617 .27563736 -.27563736 .9612617 2.379341 -4.52359)"/></g></g></svg>