<svg height="378" viewBox="0 0 668 378" width="668" xmlns="http://www.w3.org/2000/svg" xmlns:xlink="http://www.w3.org/1999/xlink"><defs><linearGradient id="a" x1="50%" x2="50%" y1="81.176763%" y2="-34.513079%"><stop offset="0" stop-color="#ff8c19"/><stop offset="1" stop-color="#ffc967"/></linearGradient><linearGradient id="b" x1="62.110065%" x2="62.110065%" y1="31.380909%" y2="-27.477988%"><stop offset="0" stop-color="#f8fdff"/><stop offset="1" stop-color="#aad4ff"/></linearGradient><path id="c" d="m13.7499769.11219741h30.6730256c1.1682927 0 2.115381.94010524 2.115381 2.09978382v5.77440549c7.7563973 9.71150018 11.6345959 19.42300028 11.6345959 29.13450038 0 9.4123872-3.3118014 18.8247743-9.9354042 28.2371615-.3957152.5623168-1.0431726.897339-1.7341905.897339h-34.8337991c-.6910183 0-1.3384761-.3350268-1.73418706-.8973471-6.62359903-9.4123844-9.93539854-18.8247689-9.93539854-28.2371534 0-9.5282643 3.73323214-19.0565285 11.1996964-28.58479283l.4348995-.54970755v-5.77440549c0-1.15967858.9470883-2.09978382 2.115381-2.09978382z"/><mask id="d" fill="#fff"><use fill="#fff" fill-rule="evenodd" xlink:href="#c"/></mask></defs><g fill="none" fill-rule="evenodd" transform="translate(.5)"><g transform="translate(.5 25)"><path d="m618.526138 151.035173c8.614224-11.498497 24.92507-13.841352 36.431294-5.232913 11.391162 8.522354 13.802849 24.583101 5.491571 36.060444l-.255141.346383-68.253314 91.106351c-8.69329 11.604037-24.838901 14.546081-37.056395 6.823406l-.369013-.237287-42.967525-28.103755-43.321666 63.053809c-8.054476 11.722943-24.013782 14.788654-35.82954 6.959906l-.356772-.240572c-11.730821-8.049067-14.798593-23.997655-6.964583-35.805478l.240733-.356533 56.769918-82.626165c8.457194-12.309081 25.122619-15.701255 37.70793-7.753752l.380112.244307 43.76592 28.625611z" fill="#7367f0" fill-rule="nonzero" opacity=".084542"/><path d="m395.1153 3.19214974c2.184111-3.17300461 6.534677-3.97999087 9.717261-1.80245427 3.140708 2.14888482 3.970295 6.40123726 1.892558 9.56216443l-.084662.1258475-17.009618 24.7086173c-2.493639 3.4819742-7.318599 4.3207296-10.842576 1.9120029l-.125297-.0874077-9.769164-6.9541171-10.587457 16.771836c-2.029369 3.214634-6.259386 4.2096384-9.510048 2.2638906l-.1278-.0783349c-3.224339-2.0232608-4.222347-6.2405448-2.270725-9.4814226l.078571-.127415 14.041002-22.2417297c2.31308-3.6640483 7.167468-4.7648683 10.842578-2.4587503l.192203.1245429.188479.1300759 9.974172 7.1002055z" fill="#7367f0" fill-rule="nonzero" opacity=".084542"/><g fill="#00cfe8"><path d="m583.235037 116.44065v-16.309022h16.321663c1.380712 0 2.5-1.1192885 2.5-2.5000003v-7.5424708c0-1.3807119-1.119288-2.5-2.5-2.5h-16.321663v-16.4307942c0-1.3807119-1.119289-2.5-2.5-2.5h-7.672754c-1.380712 0-2.5 1.1192881-2.5 2.5v16.4307942h-16.321663c-1.380712 0-2.5 1.1192881-2.5 2.5v7.5424708c0 1.3807118 1.119288 2.5000003 2.5 2.5000003h16.321663v16.309022c0 1.380712 1.119288 2.5 2.5 2.5h7.672754c1.380711 0 2.5-1.119288 2.5-2.5z" opacity=".070266"/><path d="m84.1480886 18.5370465c46.4743784 0 84.1493054 37.6496251 84.1493054 84.0927915 0 46.443166-37.674927 84.092791-84.1493054 84.092791-46.474378 0-84.14930532-37.649625-84.14930532-84.092791 0-46.4431664 37.67492732-84.0927915 84.14930532-84.0927915zm0 41.6129276c-23.4767477 0-42.508412 19.0188828-42.508412 42.4798639 0 23.460981 19.0316643 42.479863 42.508412 42.479863 23.4767474 0 42.5084124-19.018882 42.5084124-42.479863 0-23.4609811-19.031665-42.4798639-42.5084124-42.4798639z" opacity=".07394"/></g></g><g transform="matrix(-1 0 0 1 526.5 0)"><g fill="#374057"><path d="m47.11136 236h124.88864v118c0 2.209139-1.790861 4-4 4h-141c-2.209139 0-4-1.790861-4-4v-93.88864c0-13.316336 10.7950236-24.11136 24.11136-24.11136z"/><path d="m37 334h107v24h-107z"/><path d="m176.173488 360 6.826512 17h-33l5.718701-17z"/><path d="m63.1734884 358 6.8265116 19h-33l5.7187006-19z"/><path d="m287.173488 360 6.826512 17h-33l5.718701-17z"/></g><path d="m131.577981 109.894413 40.422019-.894413v139h-64v-114.000127c0-13.108496 10.472693-23.815481 23.577981-24.10546z" fill="#283046"/><path d="m144.11136 109h127.04864c12.061899 0 21.84 9.778101 21.84 21.84v117.4128c0 .964952-.782248 1.7472-1.7472 1.7472h-171.2528v-116.88864c0-13.316336 10.795024-24.11136 24.11136-24.11136z" fill="#454e67"/><path d="m269 109h2.16c12.061899 0 21.84 9.778101 21.84 21.84v103.4128c0 .964952-.782248 1.7472-1.7472 1.7472h-46.2528v-103c0-13.254834 10.745166-24 24-24z" fill="#374057"/><path d="m49.6 250h115.4v92h-128v-79.4c0-6.958788 5.6412122-12.6 12.6-12.6z" fill="#454e67"/><g transform="matrix(-1 0 0 1 184.874822 15.659181)"><path d="m14.1051597 80.6123326c-17.19597831-4.028421-18.32848479-27.7724084-5.25483002-36.0087977-13.48272983-28.4318256 17.69620302-56.660932 39.05349062-39.25158557 14.0013491-6.0289328 25.636652 17.49720067 12.6082975 35.76909757 5.4625542 31.3733794-5.654845 39.4830831-25.6956796 39.8275951z" fill="#42474f"/><path d="m14.319095 74.9416005s8.3650239-1.9754906 8.6552201-15.7637047.0864823-18.4948052.0864823-18.4948052l18.4256745-.3344589s.2008517 15.3667434.2037139 20.9249489c.0076873 14.9285782 10.3480948 13.6680199 10.3480948 13.6680199s-2.1495716 12.1046501-18.8454625 13.0490616c-13.0357673.7385162-18.8737231-13.0490616-18.8737231-13.0490616z" fill="#edc2c2"/><path d="m18.7655636 33.7978573c-8.2196634-.3199592-6.8789408 11.7847198 1.6597462 11.7682869 0 0 4.9593997 17.195414 22.1777992 17.195414 13.9835608 0 14.8932152-20.0415741 15.0200559-24.0396149.1364499-4.2629013.1537463-18.2676437.1537463-18.2676437l-39.3313322-.0183663z" fill="#ffd7d7"/><g stroke-linecap="round"><path d="m39.5892981 49.8390124s2.8209779 4.5896814 8.3491386 2.9464509" stroke="#f77b7b" stroke-width="1.5" transform="matrix(.95105652 -.30901699 .30901699 .95105652 -13.769295 16.043873)"/><path d="m41.983927 55.3179293c1.2959946.5473726 2.5251394.5476282 3.6005804-.0808523" stroke="#f49494" transform="matrix(.99939083 .0348995 -.0348995 .99939083 1.962827 -1.494251)"/><path d="m19.1418773 40.5099276c.5191265-1.8729131.2922992-3.5078823-1.5561492-4.2526352" stroke="#f77b7b" transform="matrix(.97437006 -.22495105 .22495105 .97437006 -8.160667 5.141968)"/></g><path d="m17.4650662 32.3022682s4.5053067 6.0814203 5.417911 6.1137214c.9126043.032301 1.232167-7.9091941 1.232167-7.9091941 5.5266316-.4247159 19.5133916-3.2265667 22.9419731-9.7538551 2.3977061 5.7593039 6.9811817 8.3174769 9.992688 7.8262283l.5707833 12.2356453 1.4056807-24.5988469h-42.6631673z" fill="#42474f"/></g><g transform="matrix(-1 0 0 1 177.989812 201.65625)"><path d="m91.6215451 132.094648s-7.3740063 14.982278-1.3289888 19.70356c6.0541079 4.722196 22.0456727 13.571285 22.0456727 13.571285l-42.3669461-2.678411 9.4175011-32.675883z" fill="#ffd7d7"/><path d="m74.0693695 146.352685c2.0907579.245986-.1421358 7.327122 4.3848097 7.86573 4.5178553.537694 6.7136796-6.171132 11.8405817-4.044262 5.1269022 2.126869 23.8249631 13.123076 24.5612731 17.61849.745401 4.4945-6.22104 5.817052-15.7748952 4.802018-9.5538548-1.015035-11.3147665-4.434149-18.4869753-3.056994-7.1631186 1.37624-12.5292363-.817639-12.2928897-6.083016.2363465-5.264463 3.6773377-17.347038 5.7680957-17.101966z" fill="#2b2e35"/><path d="m92.6332315 151.265018-1.1815314 1.782381c-.3051494.460329-.1793518 1.080871.2809767 1.386021.0205213.013603.041538.026444.0630071.038496l13.2204001 7.421579c.291753.163782.646084.170804.944097.01871l2.154744-1.0997c-3.081496-2.245176-5.601313-3.932104-8.3858505-5.588507-2.1377243-1.271641-4.5044466-2.582631-7.095843-3.95898z" fill="#fff" fill-opacity=".540975"/><path d="m27.8001846.04470841c12.8263455.57610066 84.2141714 16.45967319 97.1841314 19.15818109 12.969959 2.6985079 23.935221 17.3003258 14.045026 34.208423-11.108287 18.9802307-39.7697043 72.8836455-46.7284736 85.0348095-3.4442995 6.014317-20.820211 2.642237-16.7386879-7.452339 7.6086915-18.818101 11.1421753-66.0909637 30.5407725-83.3273468 0 0-65.2372693 11.4214872-93.4170504-1.6614845-20.48033772-9.5102331-15.84711628-47.35294378 15.114282-45.96024329z" fill="#33373e"/></g><g transform="matrix(-1 0 0 1 140.305477 94.64)"><path d="m80.9961101 30.7619065s-.1449382-10.4986014 3.5056907-15.9852206c3.6506288-5.48661911 3.795567-11.31461165 6.5584498-11.12384416 2.7628829.19076749.0271759 13.73708496.0271759 13.73708496s3.5056908-1.3472383 6.0239906-3.0513671c2.5182998-1.7041287 10.1547269-10.10520052 11.9392779-8.61648386 3.025583 2.53656872-1.847961 16.84504346-4.502141 19.70564306-2.663238 2.8615124-17.2114013 12.2711874-17.2114013 12.2711874z" fill="#ffd7d7"/><path d="m2.17407599 24.470934c5.96651084 13.9211857 16.89134091 39.4949009 21.39514761 47.1247016 5.6442201 9.5551241 14.5444032 13.7648987 24.9651375 6.6754521 10.9496217-7.4494055 41.0997445-36.5043079 41.9839781-43.0858215.8759697-6.5815136-6.5036621-14.4781661-13.1808654-10.3897634-6.6772033 4.0884026-34.4225412 27.3157933-34.4225412 27.3157933s-11.1975377-28.8748635-20.205151-45.60173428c-7.801089-14.47151563-29.61769373-3.20222186-20.53570561 17.96137218z" fill="#675cd7"/><path d="m43.0306267 52.1262597c2.0049594 6.8409981 3.2417846 10.0634486 3.7104756 9.6673515s.2896406-4.5124873-.5371513-12.3491707z" fill="#000" fill-opacity=".302803"/></g><g transform="matrix(.95105652 -.30901699 .30901699 .95105652 19.20178 95.272878)"><path d="m3.15143635.75569974h18.81543685c1.3254834 0 2.4 1.0745166 2.4 2.4v42.71249996c0 1.3254834-1.0745166 2.4-2.4 2.4h-18.81543685c-1.3254834 0-2.4-1.0745166-2.4-2.4v-42.71249996c0-1.3254834 1.0745166-2.4 2.4-2.4z" fill="#7596ff" fill-rule="nonzero"/><path d="m2.530225.13125h23.615437v47.5125h-23.615437z" fill="#93c2f9"/><path d="m6.7513161 1.828125h1.79102539c.36487535 0 .66834142.26449212.73127369.61328376l.01197473.13439647c0 .41293239.33276365.74768023.74324839.74768023h8.6362915c.3648753 0 .6683414-.26449212.7312737-.61328376l.0119747-.13439647c0-.41293239.3327637-.74768023.7432484-.74768023h1.7819852c1.3237443 0 2.4093831 1.02553024 2.5146376 2.32988614l.0083627.21040378-.0339675 38.63713938c-.0041685 1.6858269-1.3631183 3.0516714-3.0389557 3.0543778h-14.16926209c-1.60397778.0025787-2.9174629-1.2484721-3.02864691-2.8335481l-.00762354-.2181308c0-.0009004 0-.0018008.00268522-.0026989l.03395945-38.62804523c.00123814-1.4083505 1.1365119-2.54938407 2.53651507-2.54938407z" fill="#e6f3ff" fill-rule="nonzero"/></g><g transform="matrix(-1 0 0 1 197.759557 88.153607)"><path d="m0 14.1833231s14.3783022 48.432193 14.8041247 57.6000407c.4258224 9.1687592-11.75994729 36.1154322-9.68519543 42.9263802 4.78370736 15.739096 65.85751663 22.516322 68.19089173 1.343415 1.0882115-9.874366-1.176434-18.7367149 1.432861-30.3717427 2.6002348-11.6350278 13.0520876-28.9248415 7.1239462-45.1802911-5.9281415-16.2554497-4.3397649-31.29426802-8.5798691-34.13676683-4.2401043-2.84249882-14.1518009-5.86126145-14.1518009-5.86126145-4.8199476 7.13540909-21.0918006 7.03150864-28.8562651-.50309692 0 0-19.2888503 3.76411285-30.2786931 14.1833231z" fill="#7367f0"/><path d="m12.8847346 22.0274344c9.5842244 15.3006817 9.5554101 41.9406037 14.7028288 45.4295184 5.1474187 3.4889146 25.1816607.0651265 25.1816607 2.828125 0 2.7629984-27.686062 28.0843139-23.1410042 40.1890872 2.3798766 6.338284 1.7343186 12.008657-1.9366741 17.011117l-1.198268-.262676c-10.9085337-2.479994-19.67850733-6.933297-21.37434853-12.512862-2.07475186-6.810948 11.51669863-33.757621 11.09087613-42.9263802-.3614673-7.7822982-11.789686-43.8576167-15.23575492-54.5840895 2.80564554-4.9793978 6.77519403-3.3703645 11.91068412 4.8281601z" fill="#000" fill-opacity=".199355"/></g><g transform="matrix(-1 0 0 1 231 98.288281)"><path d="m62.4684532 52.4863331s12.1107412-10.7826462 15.8181109-12.0339589c3.7073698-1.2513127 25.4206559-2.7545308 25.2833459.073016-.155618 3.0292537-11.8178128 2.8549279-13.0261407 4.3453682-1.2083279 1.4895275-1.4829479 11.6752675-6.0507936 12.8188815-4.5586917 1.143614-18.2256127 3.1150476-18.2256127 3.1150476z" fill="#ffd7d7"/><path d="m30.2491076 6.83199437c-12.7594082 18.11516523-23.65307726 45.70897923-27.83459317 56.46701483s.03659712 26.9845741 18.42369777 23.7989785c18.3540451-3.1772825 47.5568983-20.4411876 50.7880697-25.4772884 3.2311713-5.0361007-1.6775647-14.1997946-7.8589361-13.0002084-5.7268587 1.1098043-34.1333059 13.2604097-34.1333059 13.2604097s18.2749481-32.5859683 22.7374355-41.3214167c7.4540066-14.58873093-10.8835108-29.68872-22.1223678-13.72748953z" fill="#675cd7"/><path d="m29.9232752 61.6581085c-6.3811869 3.1892223-9.1826373 4.1150686-8.4043512 2.7775391.7782862-1.3375295 4.7972794-4.3557935 12.0569797-9.0547918z" fill="#000" fill-opacity=".302803"/></g><g transform="matrix(-1 0 0 1 200.075023 196)"><path d="m158.258044 138.352397s-.222304 17.634167 14.222106 24.227319c14.435321 6.592237 24.72002 6.195368 23.411023 11.292487-1.308996 5.096205-38.882782 4.890458-42.39162.90439-2.990693-3.390764-9.494119-34.965653-11.284898-32.551517z" fill="#ffd7d7"/><path d="m146.829906 158.091617c1.613044-3.13515 1.714445 5.684628 8.076824 3.740866 5.163263-1.577421 6.928255-10.604905 10.190958-8.627793s31.981835 17.307968 32.145459 17.400327c3.536108 1.915763 2.547868 7.720536-3.424428 8.733741-6.635884 1.124768-41.020021.36761-42.865342-1.411901-1.845321-1.77951-5.41696-17.321186-4.123471-19.83524z" fill="#2b2e35"/><path d="m169.345688 158.477491c-.572591 0-1.125369.552666-1.658336 1.657998-.239918.497477-.031081 1.095238.466414 1.335118.016998.008197.034225.01591.05166.023132l15.351059 6.35828c.37425.154987.805037.068908 1.090973-.218015.517045-.518828.702545-.931543.5565-1.238144-.280147-.588131-14.776269-7.918369-15.85827-7.918369z" fill="#fff" fill-opacity=".540975"/><path d="m8.29067187.24952607c-12.43144091 26.41040793-9.91205629 44.15000643 7.55815383 53.21879533 25.3427005 13.1553999 101.2101123-2.4039063 101.2101123-2.4039063s-1.355685 10.9799 0 20.7726475c3.540716 25.5762481 20.380035 68.1875844 23.942817 73.5418024 4.926917 7.404265 19.935288 1.820302 20.217991-4.34491.282704-6.165213-11.314074-84.905362-13.077583-99.920557-1.754418-15.0161095-7.293318-17.1972539-23.47103-21.3020079-3.716604-.9430099-47.667721-11.93070228-51.6940207-11.61044385-23.0635261 1.83451045-44.6256729-.81596298-64.68644043-7.95142018z" fill="#42474f"/><g fill="#52565e"><path d="m28.7321149 49.3798701c25.0901199 2.828125 91.5151761-3.0014298 94.1829551-.3524731 2.546997 2.5290269 2.122037 46.5284348 7.835538 71.994908l-.868925-2.404825c-5.37333-15.013031-10.952748-33.2725487-12.822745-46.7804174-1.355685-9.7927475 0-20.7726475 0-20.7726475l-3.059067.5956565c-14.4215562 2.7250852-75.8494688 13.3850017-98.1510453 1.8082498-12.08375741-6.2726805-17.01476704-16.6936344-14.79302886-31.2628619 3.82572165 16.467376 13.05113696 25.5258796 27.67631806 27.1744106z"/><ellipse cx="158.841927" cy="43.128906" rx="4.218312" ry="7.77501" transform="matrix(.97437006 .22495105 -.22495105 .97437006 13.773001 -34.626268)"/><ellipse cx="139.162396" cy="38.179688" rx="5.625266" ry="8.480553" transform="matrix(.9612617 -.27563736 .27563736 .9612617 -5.132833 39.837371)"/></g></g><path d="m168.11136 236h124.88864v120.2528c0 .964952-.782248 1.7472-1.7472 1.7472h-147.2528v-97.88864c0-13.316336 10.795024-24.11136 24.11136-24.11136z" fill="#374057"/><g transform="matrix(-1 0 0 1 65 0)"><path d="m4 0h3.11483415c1.5507744 0 2.80792543 1.25715104 2.80792543 2.80792543v1.58864863c0 .67338798.54588882 1.2192768 1.21927682 1.2192768h29.9246303c2.209139 0 4 1.790861 4 4v24.64501874c0 2.209139-1.790861 4-4 4h-37.0666667c-2.209139 0-4-1.790861-4-4v-30.2608696c0-2.209139 1.790861-4 4-4z" fill="url(#a)"/><path d="m11.6877372 3.47826087h33.6872881c.673388 0 1.2192768.54588882 1.2192768 1.2192768 0 .0631368-.004904.12617822-.0146678.18855549l-5.0627625 32.34405514c-.0928785.5933646-.6040193 1.0307213-1.204609 1.0307213h-33.68728813c-.67338799 0-1.2192768-.5458889-1.2192768-1.2192768 0-.0631368.00490402-.1261783.01466784-.1885555l5.06276249-32.34405512c.0928785-.59336464.6040193-1.03072131 1.204609-1.03072131z" fill="url(#b)"/><path d="m51.078254 16.934303-3.2116108 16.586477c-.7284358 3.7620326-4.0222151 6.47922-7.8541217 6.47922h-35.16371458c-2.209139 0-4-1.790861-4-4 0-.2552098.02442438-.5098339.07293912-.76039l3.21161073-16.5864769c.72843585-3.7620327 4.02221509-6.4792201 7.85412173-6.4792201h35.1637146c2.209139 0 4 1.790861 4 4 0 .2552098-.0244244.5098339-.0729391.76039z" fill="#ffcc7b"/></g><g transform="translate(314 213)"><path d="m41.4643416 101.599979c11.0085224-24.8499475 21.0096049-50.3712981 30.1652407-76.456092-21.0892233 19.834011-37.4888302 43.9976572-35.1535412 76.456092z" fill="#57e295"/><path d="m35.5968751 104.19494c-2.6055095-42.3722098-1.5014355-81.7241433 20.3364992-104.19494-3.0122072 46.5225002-8.6469182 79.2955302-15.7834034 104.19494z" fill="#28c76f"/><path d="m34.5949186 99.7824121c-12.2007907-29.6098375-24.4607514-38.0974437-34.5949186-68.4914667 33.1666701 17.1609059 35.245737 31.3313518 41.7558449 68.4914667z" fill="#57e295"/><path d="m28.0284394 99.7824121-21.88736718-29.6098375c10.57068648 3.0066714 28.23931858 7.8754333 28.23931858 29.6098375z" fill="#28c76f"/><path d="m48.4994792 99.7824121h7.3016104c4.640019-9.6674032 11.1787335-16.3226043 26.9976197-8.2551964-10.3691558-15.7600963-31.6445235-20.5296752-34.2992301 8.2551964z" fill="#57e295"/><path d="m41.7830823 99.7824121h6.0718688c11.1437028-15.9018062 15.9349431-22.830698 27.467172-36.4104791-15.1918576 5.752191-30.7858908 13.5797811-33.5390408 36.4104791z" fill="#28c76f"/></g><g transform="translate(326.769231 310.375)"><use fill="#7367f0" xlink:href="#c"/><path d="m-7.40383374-1.70607435h27.49995394c-13.16555582 30.42061665 12.804276 48.43579755 0 78.74189305h-27.49995394z" fill="#857af9" mask="url(#d)"/></g></g></g></svg>