<svg fill="none" height="509" viewBox="0 0 597 509" width="597" xmlns="http://www.w3.org/2000/svg" xmlns:xlink="http://www.w3.org/1999/xlink"><filter id="a" color-interpolation-filters="sRGB" filterUnits="userSpaceOnUse" height="176.442" width="200.882" x="20.2411" y=".302166"><feFlood flood-opacity="0" result="BackgroundImageFix"/><feBlend in="SourceGraphic" in2="BackgroundImageFix" mode="normal" result="shape"/><feGaussianBlur result="effect1_foregroundBlur" stdDeviation="5.43656"/></filter><linearGradient id="b"><stop offset="0" stop-color="#fafeff"/><stop offset="1" stop-color="#28c76f"/></linearGradient><linearGradient id="c" gradientUnits="userSpaceOnUse" x1="68.2289" x2="344.215" xlink:href="#b" y1="395.784" y2="543.197"/><linearGradient id="d"><stop offset="0" stop-color="#fafeff"/><stop offset="1" stop-color="#00cfe8"/></linearGradient><linearGradient id="e" gradientUnits="userSpaceOnUse" x1="167.137" x2="326.377" xlink:href="#d" y1="194.207" y2="347.628"/><linearGradient id="f" gradientUnits="userSpaceOnUse" x1="-31.8552" x2="138.616" y1="137.056" y2="228.213"><stop offset="0" stop-color="#fafeff"/><stop offset="1" stop-color="#77ecab"/></linearGradient><linearGradient id="g" gradientUnits="userSpaceOnUse" x1="408.135" x2="465.347" xlink:href="#d" y1="456.423" y2="491.992"/><linearGradient id="h" gradientUnits="userSpaceOnUse" x1="498.344" x2="559.885" xlink:href="#b" y1="360.309" y2="386.659"/><linearGradient id="i" gradientUnits="userSpaceOnUse" x1="114.08" x2="239.749" y1="508.651" y2="444.009"><stop offset="0" stop-color="#f8fdff"/><stop offset="1" stop-color="#88efb6"/></linearGradient><linearGradient id="j" gradientUnits="userSpaceOnUse" x1="456.573" x2="456.573" y1="156.675" y2="127.744"><stop offset="0" stop-color="#f8fdff"/><stop offset="1" stop-color="#aad4ff"/></linearGradient><linearGradient id="k"><stop offset="0" stop-color="#fdc6c6"/><stop offset="1" stop-color="#fab2b2"/></linearGradient><linearGradient id="l" gradientUnits="userSpaceOnUse" x1="100.036" x2="96.9075" xlink:href="#k" y1="185.523" y2="227.81"/><linearGradient id="m" gradientUnits="userSpaceOnUse" x1="96.4306" x2="58.6147" y1="193.363" y2="193.363"><stop offset="0" stop-color="#3f4044"/><stop offset="1" stop-color="#222735"/></linearGradient><linearGradient id="n" gradientUnits="userSpaceOnUse" x1="92.4179" x2="77.6825" y1="224.028" y2="226.341"><stop offset="0" stop-color="#4d63a0"/><stop offset="1" stop-color="#222735"/></linearGradient><linearGradient id="o" gradientUnits="userSpaceOnUse" x1="21.1162" x2="17.1213" xlink:href="#k" y1="211.645" y2="247.249"/><linearGradient id="p" gradientUnits="userSpaceOnUse" x1="142.374" x2="142.318" y1="216.056" y2="239.819"><stop offset="0" stop-color="#d7ffff"/><stop offset="1" stop-color="#648bf0"/></linearGradient><linearGradient id="q" gradientUnits="userSpaceOnUse" x1="189.83" x2="188.141" xlink:href="#k" y1="255.87" y2="282.123"/><mask id="r" height="386" maskUnits="userSpaceOnUse" width="186" x="138" y="105"><path clip-rule="evenodd" d="m138.251 123.606c0-10.229 8.293-18.522 18.522-18.522h148.576c10.229 0 18.521 8.293 18.521 18.522v348.461c0 10.229-8.292 18.522-18.521 18.522h-148.576c-10.229 0-18.522-8.293-18.522-18.522z" fill="#fff" fill-rule="evenodd"/></mask><path clip-rule="evenodd" d="m224.049 201.131c1.709-5.246 7.343-8.117 12.591-6.416l214.11 69.388c5.26 1.705 8.138 7.354 6.425 12.61l-50.772 155.855c-1.708 5.245-7.343 8.116-12.591 6.415l-214.11-69.388c-5.259-1.704-8.138-7.353-6.425-12.61z" fill="url(#c)" fill-rule="evenodd" opacity=".128511"/><path clip-rule="evenodd" d="m300.198 55.3661c1.709-5.2455 7.343-8.1163 12.592-6.4155l239.698 77.6804c5.259 1.705 8.138 7.353 6.425 12.61l-56.93 174.759c-1.709 5.246-7.343 8.117-12.591 6.416l-239.699-77.681c-5.259-1.704-8.138-7.353-6.425-12.61z" fill="url(#e)" fill-rule="evenodd" opacity=".216285"/><g filter="url(#a)" opacity=".226656"><path clip-rule="evenodd" d="m63.1162 20.7962c1.7088-5.2455 7.3429-8.1162 12.5911-6.4154l125.0257 40.5177c5.259 1.7045 8.138 7.3535 6.425 12.6104l-28.909 88.7411c-1.709 5.246-7.343 8.117-12.591 6.416l-125.0255-40.518c-5.2596-1.704-8.1379-7.353-6.4253-12.61z" fill="url(#f)" fill-rule="evenodd"/></g><path clip-rule="evenodd" d="m459.01 376.356c1.709-5.246 7.343-8.117 12.591-6.416l53.948 17.483c5.259 1.705 8.137 7.354 6.425 12.611l-28.909 88.741c-1.709 5.246-7.343 8.116-12.591 6.416l-53.948-17.483c-5.259-1.705-8.138-7.354-6.425-12.611z" fill="url(#g)" fill-rule="evenodd" opacity=".216285"/><path clip-rule="evenodd" d="m544.274 279.284c1.709-5.246 7.343-8.116 12.591-6.415l30.255 9.804c5.26 1.705 8.138 7.354 6.425 12.611l-17.515 53.767c-1.709 5.246-7.343 8.117-12.591 6.416l-30.255-9.805c-5.26-1.705-8.138-7.354-6.426-12.61z" fill="url(#h)" fill-rule="evenodd" opacity=".128511"/><path clip-rule="evenodd" d="m131.011 111.871c0-13.8824 11.254-25.1366 25.137-25.1366h150.484c13.883 0 25.137 11.2542 25.137 25.1366v366.457c0 13.883-11.254 25.137-25.137 25.137h-150.484c-13.883 0-25.137-11.254-25.137-25.137z" fill="#00cfe8" fill-opacity=".225361" fill-rule="evenodd"/><path clip-rule="evenodd" d="m138.251 123.606c0-10.229 8.293-18.522 18.522-18.522h148.576c10.229 0 18.521 8.293 18.521 18.522v348.461c0 10.229-8.292 18.522-18.521 18.522h-148.576c-10.229 0-18.522-8.293-18.522-18.522z" fill="#252d41" fill-rule="evenodd"/><g mask="url(#r)"><ellipse cx="222.555" cy="327.082" fill="#68de9e" fill-opacity=".642073" rx="15.9208" ry="15.9236"/><path clip-rule="evenodd" d="m158.623 328.077c42.453 0 76.868 34.421 76.868 76.881 0 42.461-34.415 76.881-76.868 76.881-42.452 0-76.8671-34.42-76.8671-76.881 0-42.46 34.4151-76.881 76.8671-76.881zm0 33.589c-23.905 0-43.284 19.382-43.284 43.292s19.379 43.293 43.284 43.293c23.906 0 43.285-19.383 43.285-43.293s-19.379-43.292-43.285-43.292z" fill="url(#i)" fill-rule="evenodd"/></g><path d="m250.232 93.5325c1.718 0 3.11 1.3367 3.11 2.9857 0 1.6123-1.331 2.9261-2.996 2.9837l-.114.0019h-55.062c-1.717 0-3.109-1.3367-3.109-2.9856 0-1.6124 1.331-2.9262 2.995-2.9838l.114-.0019z" fill="#56cdd9"/><path d="m260.346 93.0347c1.717 0 3.109 1.3924 3.109 3.1101 0 1.6794-1.331 3.048-2.995 3.108l-.114.002h-.163c-1.718 0-3.11-1.3924-3.11-3.11 0-1.6795 1.331-3.0481 2.996-3.1081l.114-.002z" fill="#56cdd9"/><path clip-rule="evenodd" d="m307.011 311.734c0-3.313 2.686-6 6-6h30.364l11.636 12v39c0 3.314-2.687 6-6 6h-36c-3.314 0-6-2.686-6-6z" fill="#fb9c9d" fill-rule="evenodd"/><path clip-rule="evenodd" d="m317.052 347.734v-4.77h3.024c1.38 0 2.454-.348 3.222-1.044s1.152-1.668 1.152-2.916-.384-2.22-1.152-2.916-1.842-1.044-3.222-1.044h-5.832v12.69zm2.664-6.894h-2.664v-3.654h2.664c.708 0 1.236.15 1.584.45s.522.762.522 1.386c0 1.212-.702 1.818-2.106 1.818zm11.484 6.894c1.392 0 2.586-.252 3.582-.756s1.755-1.233 2.277-2.187.783-2.091.783-3.411-.264-2.454-.792-3.402-1.29-1.674-2.286-2.178-2.184-.756-3.564-.756h-4.932v12.69zm-.198-2.268h-1.926v-8.154h1.926c2.7 0 4.05 1.356 4.05 4.068 0 2.724-1.35 4.086-4.05 4.086zm11.772 2.268v-5.346h5.436v-2.214h-5.436v-2.916h5.796v-2.214h-8.568v12.69z" fill="#fff" fill-rule="evenodd"/><path d="m355.011 317.734h-8.636c-1.657 0-3-1.343-3-3v-9z" fill="#ea5455" opacity=".33996"/><path clip-rule="evenodd" d="m169.011 387.734c0-3.313 2.686-6 6-6h30.364l11.636 12v39c0 3.314-2.687 6-6 6h-36c-3.314 0-6-2.686-6-6z" fill="#ffbc7c" fill-rule="evenodd"/><path clip-rule="evenodd" d="m177.011 414.234c0-.276.224-.5.5-.5h7c.276 0 .5.224.5.5v14c0 .277-.224.5-.5.5h-7c-.276 0-.5-.223-.5-.5z" fill="#fff" fill-rule="evenodd"/><path clip-rule="evenodd" d="m189.011 404.234c0-.276.224-.5.5-.5h7c.276 0 .5.224.5.5v24c0 .277-.224.5-.5.5h-7c-.276 0-.5-.223-.5-.5z" fill="#fff" fill-rule="evenodd"/><path clip-rule="evenodd" d="m201.011 411.234c0-.276.224-.5.5-.5h7c.276 0 .5.224.5.5v17c0 .277-.224.5-.5.5h-7c-.276 0-.5-.223-.5-.5z" fill="#fff" fill-rule="evenodd"/><path d="m217.011 393.734h-8.636c-1.657 0-3-1.343-3-3v-9z" fill="#fc9735" opacity=".732678"/><path clip-rule="evenodd" d="m237.011 350.734c0-3.313 2.686-6 6-6h30.364l11.636 12v39c0 3.314-2.687 6-6 6h-36c-3.314 0-6-2.686-6-6z" fill="#b7b0ff" fill-rule="evenodd"/><circle cx="253.302" cy="381.884" fill="#fff" r="4.8"/><circle cx="264.811" cy="379.813" fill="#fff" r="4.8"/><path clip-rule="evenodd" d="m269.611 364.338v15.113h-1.8l-.001-11.439-9.722 3.152v10.576h-1.8l.001-13.085z" fill="#fff" fill-rule="evenodd"/><path d="m285.011 356.734h-8.636c-1.657 0-3-1.343-3-3v-9z" fill="#564ea6" opacity=".33996"/><g clip-rule="evenodd" fill-rule="evenodd"><path d="m292.122 161.486c0-5.938-4.814-10.752-10.752-10.752h-101.155c-5.938 0-10.752 4.814-10.752 10.752v120.861c0 5.938 4.814 10.752 10.752 10.752h101.155c5.938 0 10.752-4.814 10.752-10.752z" fill="#00cfe8" opacity=".272833"/><path d="m282.845 172.164c0-5.939-4.814-10.752-10.752-10.752h-81.212c-5.938 0-10.752 4.813-10.752 10.752v10.25c0 5.938 4.814 10.752 10.752 10.752h81.212c5.938 0 10.752-4.814 10.752-10.752z" fill="#f4feff"/><path d="m275.9 177.178c0-5.759-4.668-10.428-10.427-10.428h-1.366c-5.759 0-10.427 4.669-10.427 10.428 0 5.758 4.668 10.427 10.427 10.427h1.366c5.759 0 10.427-4.669 10.427-10.427z" fill="#7367f0" fill-opacity=".210173"/><path d="m282.845 213.872c0-5.938-4.814-10.752-10.752-10.752h-81.212c-5.938 0-10.752 4.814-10.752 10.752v10.25c0 5.938 4.814 10.752 10.752 10.752h81.212c5.938 0 10.752-4.814 10.752-10.752z" fill="#f4feff"/><path d="m275.9 218.886c0-5.759-4.668-10.427-10.427-10.427h-1.366c-5.759 0-10.427 4.668-10.427 10.427 0 5.759 4.668 10.427 10.427 10.427h1.366c5.759 0 10.427-4.668 10.427-10.427z" fill="#7367f0" fill-opacity=".210173"/><path d="m282.845 255.58c0-5.938-4.814-10.752-10.752-10.752h-81.212c-5.938 0-10.752 4.814-10.752 10.752v10.25c0 5.938 4.814 10.752 10.752 10.752h81.212c5.938 0 10.752-4.814 10.752-10.752z" fill="#f4feff"/><path d="m275.9 260.594c0-5.759-4.668-10.427-10.427-10.427h-1.366c-5.759 0-10.427 4.668-10.427 10.427 0 5.759 4.668 10.427 10.427 10.427h1.366c5.759 0 10.427-4.668 10.427-10.427z" fill="#7367f0" fill-opacity=".210173"/><path d="m394.011 141.44c0-2.209 1.791-4 4-4h6.295c2.209 0 4 1.791 4 4v2.834c0 .673.546 1.219 1.22 1.219h45.411c2.209 0 4 1.791 4 4v38.814c0 2.21-1.791 4-4 4h-56.926c-2.209 0-4-1.79-4-4z" fill="#ff9f43"/><path d="m409.413 142.277c.095-.591.605-1.027 1.205-1.027h49.594c.75 0 1.322.671 1.204 1.412l-7.451 46.713c-.094.592-.605 1.027-1.204 1.027h-49.595c-.75 0-1.322-.67-1.204-1.411z" fill="url(#j)"/><path d="m462.705 153.733c2.516 0 4.407 2.294 3.927 4.763l-5.436 27.957c-.731 3.759-4.024 6.473-7.853 6.473h-54.48c-2.515 0-4.406-2.294-3.926-4.763l5.436-27.957c.731-3.759 4.023-6.473 7.853-6.473z" fill="#fabb7e"/><path d="m360.011 233.734c0-3.313 2.686-6 6-6h56c3.313 0 6 2.687 6 6v45c0 3.314-2.687 6-6 6h-56c-3.314 0-6-2.686-6-6z" fill="#77ecab"/><path d="m387.185 247.306c-.543-.264-1.174.131-1.174.734v16.358c0 .61.646 1.005 1.189.726l16.358-8.395c.598-.307.589-1.166-.016-1.46z" fill="#fff"/></g><path d="m367.011 232.734h6v6h-6z" fill="#fff"/><path d="m379.011 232.734h6v6h-6z" fill="#fff"/><path d="m391.011 232.734h6v6h-6z" fill="#fff"/><path d="m403.011 232.734h6v6h-6z" fill="#fff"/><path d="m415.011 232.734h6v6h-6z" fill="#fff"/><path d="m367.011 272.734h6v6h-6z" fill="#fff"/><path d="m379.011 272.734h6v6h-6z" fill="#fff"/><path d="m391.011 272.734h6v6h-6z" fill="#fff"/><path d="m403.011 272.734h6v6h-6z" fill="#fff"/><path d="m415.011 272.734h6v6h-6z" fill="#fff"/><path clip-rule="evenodd" d="m38.4256 481.193-3.6034 21.756 12.4285-.066.4202-22.031z" fill="#b8b6c9" fill-rule="evenodd"/><path clip-rule="evenodd" d="m33.8357 494.736-.088 1.833c-1.3271 1.467-1.8945 4.5-1.7021 9.098 0 3.076 17.7818 2.985 18.7684 0 .3367-4.99-.268-8.088-1.814-9.294l-.0097-1.77c-.0062-1.149-.7835-2.151-1.8988-2.449l-2.2504-.602c-1.9418-2.823-4.5881-2.723-6.8558.353l-2.1321.46c-1.1346.246-1.9621 1.218-2.0175 2.371z" fill="#2f2b57" fill-rule="evenodd"/><path clip-rule="evenodd" d="m80.5771 309.683s-16.0698 88.281-18.8876 97.474-10.6324 78.338-10.6324 78.338l-16.8796.048s-.3596-53.227 1.3455-61.782c1.7051-8.554 5.554-22.642 5.554-22.642s2.8597-51.145 4.5705-63.076c1.7103-11.931 7.2012-29.615 7.2012-29.615z" fill="#2f2b57" fill-rule="evenodd"/><path clip-rule="evenodd" d="m68.3465 375.171 1.5422-12.016-1.1283 3.309c-5.6176 16.574-9.4373 29.439-11.4589 38.596-1.7013 7.706-2.059 21.01-1.073 39.911l1.1207-9.262c1.6158-13.116 3.1868-24.627 4.2975-28.411l.1098-.367c1.0438-3.595 3.6442-16.485 6.59-31.76z" fill="#fff" fill-opacity=".192499" fill-rule="evenodd"/><path clip-rule="evenodd" d="m79.252 484.285 11.3439.076.0032.318c.0374 1.562.463 8.452 5.018 11.097l.9089.536c5.129 3.073 12.225 8.016 12.225 8.016l-30.3648 1.033z" fill="#b8b6c9" fill-rule="evenodd"/><path clip-rule="evenodd" d="m80.8215 492.002c-2.6598-.245-3.9896 4.857-3.9896 15.306l13.6179.05.9228-1.997.8671.348c1.8466.726 3.1581 1.126 3.9343 1.202l.7206.066c3.8184.329 9.1094.484 15.8744.463l.022-.117c.115-.708.418-4.489-5.462-7.362l-.276-.132c-6.704-3.141-11.6155-7.577-12.6762-8.167l-.0515-.028c-.9499-.467-.3302-.731-1.6801.368-1.3498 1.098-1.572 3.985-4.6307 4.076-3.9368.117-3.2033-3.709-7.193-4.076z" fill="#2f2b57" fill-rule="evenodd"/><path clip-rule="evenodd" d="m65.1021 351.291c4.3507 15.688 7.8971 53.999 7.8971 53.999s.4004 4.036-1.3328 15.216c-1.7333 11.18 5.0962 65.582 5.0962 65.582l17.9761.036s2.2173-73.083 2.3224-80.77c.1642-11.985 4.0509-95.081 4.0509-95.081l-37.386-.851s-2.9747 26.18 1.3761 41.869z" fill="#353160" fill-rule="evenodd"/><path clip-rule="evenodd" d="m91.3146 341.72.0706.307c2.5825 10.86-1.8463 58.988-.5855 70.432l.5022 4.094c.8764 7.357 2.3596 20.77 4.4493 40.238l.4533-16.296c.4161-15.486.7699-30.058.8464-34.49l.0102-.651c.1642-11.985 4.0509-95.08 4.0509-95.08l-6.9938-.159-.3058 1.344c-3.0874 13.769-3.92 23.856-2.4978 30.261z" fill="#fff" fill-opacity=".192499" fill-rule="evenodd"/><path d="m97.2244 494.737.8606-1.493" stroke="#fff" stroke-linecap="round" stroke-width="2"/><path d="m99.7615 496.443.8605-1.493" stroke="#fff" stroke-linecap="round" stroke-width="2"/><path d="m102.298 498.149.86-1.493" stroke="#fff" stroke-linecap="round" stroke-width="2"/><path clip-rule="evenodd" d="m91.9762 201.904c3.9048.427 3.628 7.287-1.1254 7.645-.9715 6.613-4.4363 9.763-8.6604 10.128l.2342 10.002-18.6847-.011s5.2616-7.066 4.9993-16.739c-.2622-9.674.176-18.761.176-18.761l24.201.434z" fill="url(#l)" fill-rule="evenodd"/><path clip-rule="evenodd" d="m93.8504 197.829c1.6837.813.3432 4.486-.5093 4.486-3.9112-1.546-7.1539 4.019-8.8023 9.609-4.6813 4.589-15.0248 4.691-16.0934.852-4.0457-8.409-4.2441-20.568.477-21.506-3.706-9.772 46.3436-14.883 24.928 6.559z" fill="url(#m)" fill-rule="evenodd"/><path clip-rule="evenodd" d="m89.6712 213.296c-.1922-.422-1.3385 2.463-3.1914 4.009-1.9176 1.6-4.796 2.068-4.2891 2.372 3.8903 2.329 9.0466-2.948 7.4805-6.381z" fill="url(#n)" fill-rule="evenodd"/><path clip-rule="evenodd" d="m17.5116 248.307s.8209-5.527.5604-9.164c-.4819-6.727.4397-12.401-1.0498-13.284-1.9105-1.132-2.3883 8.912-2.3883 8.912s-10.91084-17.762-13.18552-15.616c-2.274677 2.146 2.47023 11.48 1.71786 14.178-.75237 2.699 6.76607 15.753 6.76607 15.753z" fill="url(#o)" fill-rule="evenodd"/><path clip-rule="evenodd" d="m57.845 251.5s-16.5269 25.707-20.1781 30.692c-3.8298 5.228-10.5935 7.544-15.3935-.797-4.2455-7.379-13.33596-25.856-14.48647-31.6-.85835-4.285 7.93357-10.673 12.15917-4.269 4.2255 6.403 10.8991 16.032 10.8991 16.032s10.9741-19.881 14.3951-24.572c9.2258-12.65 23.2825-1.291 12.6047 14.514z" fill="#02c4dc" fill-rule="evenodd"/><path clip-rule="evenodd" d="m30.8447 261.558-3.6313 6.252 1.3233-9.65z" fill="#000" fill-opacity=".159856" fill-rule="evenodd"/><path d="m19.6387 245.733c-3.8395-1.214-7.3552-.568-10.16065 4.157" stroke="#5386bf" stroke-linecap="round"/><path clip-rule="evenodd" d="m65.7654 224.805 19.3069.125.7903.319c3.1849 1.306 15.0134 6.391 17.2164 10.747 3.682 7.277-1.169 65.585.946 69.103 4.461 7.423-1.366 12.541-20.7301 14.478l-.5909.057c-19.836 1.891-37.4338.343-34.2404-9.663 3.1941-10.006-6.5787-74.453 2.5856-78.904z" fill="#00cfe8" fill-rule="evenodd"/><path clip-rule="evenodd" d="m86.5869 239.572c-2.8604 6.227 2.821 22.432 17.0441 48.616l.176-5.849c.465-14.601 1.149-32.398.29-41.354-8.983-6.798-14.8195-7.27-17.5101-1.413z" fill="#000" fill-opacity=".159856" fill-rule="evenodd"/><path clip-rule="evenodd" d="m86.3714 223.096c-1.2011-.327-21.3139 0-22.113 0s-.7991 3.418 0 3.418c.4886 0 6.7261-.093 22.1145-.279 1.3886-.017 5.0929 1.553 5.0929 1.553s-3.8933-4.364-5.0944-4.692z" fill="url(#p)" fill-rule="evenodd"/><path clip-rule="evenodd" d="m164.395 282.495s10.53 1.672 12.516.03c1.986-1.641 9.898-12.802 9.034-14.722s-8.083 2.141-8.698.92c-.791-1.569 3.291-7.166-.286-7.492-.921-.084-1.572 3.361-4.166 5.63-2.593 2.269-8.853 7.303-8.853 7.303z" fill="url(#q)" fill-rule="evenodd"/><path clip-rule="evenodd" d="m100.761 233.366c9.1 8.658 21.984 29.105 24.73 30.906 2.745 1.801 37.089 5.435 40.323 8.367 2.701 2.45 2.944 9.904 0 11.971-2.945 2.068-41.612-.704-48.704-2.77s-19.2387-21-24.6646-26.91c-15.174-16.527-.7845-30.222 8.3156-21.564z" fill="#02c4dc" fill-rule="evenodd"/><path d="m162.241 271.439c1.7 1.989 2.558 4.888 1.7 10.552" stroke="#5386bf" stroke-linecap="round"/></svg>