<svg height="513" viewBox="0 0 597 513" width="597" xmlns="http://www.w3.org/2000/svg" xmlns:xlink="http://www.w3.org/1999/xlink"><defs><linearGradient id="a"><stop offset="0" stop-color="#fafeff"/><stop offset="1" stop-color="#28c76f"/></linearGradient><linearGradient id="b" x1="-27.328838%" x2="100%" xlink:href="#a" y1="60.468259%" y2="70.07461%"/><linearGradient id="c"><stop offset="0" stop-color="#fafeff"/><stop offset="1" stop-color="#00cfe8"/></linearGradient><linearGradient id="d" x1="-16.144607%" x2="63.611126%" xlink:href="#c" y1="50%" y2="66.341161%"/><linearGradient id="e" x1="-27.328838%" x2="100%" y1="60.41184%" y2="69.966418%"><stop offset="0" stop-color="#fafeff"/><stop offset="1" stop-color="#77ecab"/></linearGradient><filter id="f" height="121.1%" width="115.8%" x="-7.9%" y="-10.6%"><feGaussianBlur in="SourceGraphic" stdDeviation="4"/></filter><linearGradient id="g" x1="19.659211%" x2="56.243476%" xlink:href="#c" y1="50%" y2="79.076468%"/><linearGradient id="h" x1="14.540906%" x2="72.927471%" xlink:href="#a" y1="68.571392%" y2="85.613701%"/><path id="i" d="m18.522 0h148.57552c10.229418 0 18.522 8.29258186 18.522 18.522v348.460557c0 10.229418-8.292582 18.522-18.522 18.522h-148.57552c-10.22941814 0-18.522-8.292582-18.522-18.522v-348.460557c0-10.22941814 8.29258186-18.522 18.522-18.522z"/><linearGradient id="j" x1=".017806%" x2="81.726658%" y1="76.567717%" y2="34.516269%"><stop offset="0" stop-color="#f8fdff"/><stop offset="1" stop-color="#88efb6"/></linearGradient><linearGradient id="k" x1="62.110065%" x2="62.110065%" y1="31.380909%" y2="-27.477988%"><stop offset="0" stop-color="#f8fdff"/><stop offset="1" stop-color="#aad4ff"/></linearGradient><linearGradient id="l"><stop offset="0" stop-color="#fdc6c6"/><stop offset="1" stop-color="#fab2b2"/></linearGradient><linearGradient id="m" x1="44.165077%" x2="50%" xlink:href="#l" y1="-28.185925%" y2="91.050481%"/><linearGradient id="n" x1="91.808252%" x2="-20.058914%" y1="88.137818%" y2="88.137818%"><stop offset="0" stop-color="#3f4044"/><stop offset="1" stop-color="#222735"/></linearGradient><linearGradient id="o" x1="-18.14405%" x2="171.027698%" y1="57.498284%" y2="78.711577%"><stop offset="0" stop-color="#4d63a0"/><stop offset="1" stop-color="#222735"/></linearGradient><linearGradient id="p" x1="47.463613%" x2="50%" xlink:href="#l" y1="-28.185925%" y2="91.050481%"/><linearGradient id="q" x1="62.492225%" x2="69.153093%" y1="44.071973%" y2="58.936265%"><stop offset="0" stop-color="#d7ffff"/><stop offset="1" stop-color="#648bf0"/></linearGradient><linearGradient id="r" x1="42.314264%" x2="50%" xlink:href="#l" y1="-27.818529%" y2="90.857585%"/><mask id="s" fill="#fff"><use fill="#fff" fill-rule="evenodd" xlink:href="#i"/></mask></defs><g fill="none" fill-rule="evenodd"><path d="m171.745044 213.977237 225.07297-.171893c5.522846-.004218 10.003417 4.469514 10.007635 9.992359.000004.005097.000004.010194 0 .015291l-.12545 163.915371c-.004222 5.516875-4.475484 9.98813-9.99236 9.992343l-225.072971.171894c-5.522845.004218-10.003416-4.469514-10.007634-9.99236-.000004-.005097-.000004-.010194 0-.015291l.12545-163.91537c.004222-5.516876 4.475484-9.988131 9.99236-9.992344z" fill="url(#b)" opacity=".128511" transform="matrix(.95105652 .30901699 -.30901699 .95105652 139.423563 -57.861486)"/><path d="m244.16743 71.8803727 251.971226-.1924362c5.522846-.0042179 10.003416 4.469514 10.007634 9.9923599.000004.0050968.000004.0101937 0 .0152905l-.140666 183.7981151c-.004223 5.516876-4.475485 9.988131-9.99236 9.992344l-251.971226.192436c-5.522846.004218-10.003416-4.469514-10.007634-9.99236-.000004-.005096-.000004-.010193 0-.01529l.140666-183.7981155c.004223-5.5168755 4.475485-9.9881305 9.99236-9.9923438z" fill="url(#d)" opacity=".216285" transform="matrix(.95105652 .30901699 -.30901699 .95105652 102.784574 -90.863545)"/><path d="m23.9975788 20.9077979 131.4271952-.1003739c5.522845-.004218 10.003416 4.4695139 10.007634 9.9923598.000004.0050969.000004.0101937 0 .0152906l-.07143 93.3316276c-.004222 5.516875-4.475484 9.98813-9.99236 9.992343l-131.4271944.100374c-5.5228459.004218-10.0034164-4.469514-10.0076343-9.99236-.0000039-.005096-.0000039-.010193 0-.01529l.0714297-93.3316273c.0042222-5.5168755 4.4754843-9.9881304 9.9923598-9.9923438z" fill="url(#e)" filter="url(#f)" opacity=".226656" transform="matrix(.95105652 .30901699 -.30901699 .95105652 59.345458 -8.919335)"/><path d="m421.710113 364.921212 56.70982-.04331c5.522846-.004218 10.003416 4.469514 10.007634 9.99236.000004.005096.000004.010193 0 .01529l-.07143 93.331627c-.004222 5.516876-4.475484 9.988131-9.992359 9.992344l-56.709821.043311c-5.522845.004217-10.003416-4.469514-10.007634-9.99236-.000004-.005097-.000004-.010194 0-.015291l.07143-93.331627c.004222-5.516875 4.475484-9.98813 9.99236-9.992344z" fill="url(#g)" opacity=".216285" transform="matrix(.95105652 .30901699 -.30901699 .95105652 183.297239 -103.436186)"/><path d="m513.263548 264.905538 31.804029-.02429c5.522846-.004218 10.003416 4.469514 10.007634 9.99236.000004.005097.000004.010194 0 .015291l-.043278 56.548549c-.004222 5.516876-4.475485 9.98813-9.99236 9.992344l-31.804029.024289c-5.522846.004218-10.003416-4.469514-10.007634-9.99236-.000004-.005096-.000004-.010193 0-.01529l.043278-56.54855c.004222-5.516875 4.475485-9.98813 9.99236-9.992343z" fill="url(#h)" opacity=".128511" transform="matrix(.95105652 .30901699 -.30901699 .95105652 150.582481 -133.678743)"/><g transform="translate(131.010677 90.7343)"><path d="m25.137 0h150.4847c13.882782 0 25.137 11.2542182 25.137 25.137v366.456791c0 13.882782-11.254218 25.137-25.137 25.137h-150.4847c-13.8827818 0-25.137-11.254218-25.137-25.137v-366.456791c0-13.8827818 11.2542182-25.137 25.137-25.137z" fill="#00cfe8" fill-opacity=".225361"/><g transform="translate(7.240478 18.34999)"><use fill="#fff" xlink:href="#i"/><ellipse cx="84.304077" cy="221.997265" fill="#68de9e" fill-opacity=".642073" mask="url(#s)" rx="15.920792" ry="15.923628"/><path d="m20.372146 222.992492c42.4527891 0 76.8675743 34.420914 76.8675743 76.881265 0 42.46035-34.4147852 76.881264-76.8675743 76.881264-42.452789 0-76.8675742-34.420914-76.8675742-76.881264 0-42.460351 34.4147852-76.881265 76.8675742-76.881265zm0 33.588902c-23.90545397 0-43.2846534 19.382651-43.2846534 43.292363 0 23.909711 19.37919943 43.292362 43.2846534 43.292362 23.905454 0 43.2846535-19.382651 43.2846535-43.292362 0-23.909712-19.3791995-43.292363-43.2846535-43.292363z" fill="url(#j)" mask="url(#s)"/></g><g fill="#56cdd9" fill-rule="nonzero"><path d="m119.221631 6.79802599c1.717346 0 3.10953 1.33673455 3.10953 2.98568019 0 1.61230242-1.330997 2.92611562-2.995533 2.98371112l-.113997.0019691h-55.0621516c-1.7173458 0-3.1095297-1.3367346-3.1095297-2.98568022 0-1.6123024 1.3309965-2.92611559 2.9955334-2.98371109l.1139963-.0019691z"/><path d="m129.335222 6.30041262c1.717346 0 3.10953 1.39243183 3.10953 3.11008353 0 1.67948165-1.330997 3.04803705-2.995534 3.10803235l-.113996.0020512h-.163096c-1.717345 0-3.109529-1.3924318-3.109529-3.11008355 0-1.67948166 1.330996-3.04803707 2.995533-3.10803238l.113996-.00205115z"/></g></g><g transform="translate(307.010677 309.7343)"><path d="m6 0h30.3642194l11.6357806 12v39c0 3.3137085-2.6862915 6-6 6h-36c-3.3137085 0-6-2.6862915-6-6v-45c0-3.3137085 2.6862915-6 6-6z" fill="#fb9c9d"/><path d="m10.041 42v-4.77h3.024c1.38 0 2.454-.348 3.222-1.044s1.152-1.668 1.152-2.916-.384-2.22-1.152-2.916-1.842-1.044-3.222-1.044h-5.832v12.69zm2.664-6.894h-2.664v-3.654h2.664c.708 0 1.236.15 1.584.45s.522.762.522 1.386c0 1.212-.702 1.818-2.106 1.818zm11.484 6.894c1.392 0 2.586-.252 3.582-.756s1.755-1.233 2.277-2.187.783-2.091.783-3.411-.264-2.454-.792-3.402-1.29-1.674-2.286-2.178-2.184-.756-3.564-.756h-4.932v12.69zm-.198-2.268h-1.926v-8.154h1.926c2.7 0 4.05 1.356 4.05 4.068 0 2.724-1.35 4.086-4.05 4.086zm11.772 2.268v-5.346h5.436v-2.214h-5.436v-2.916h5.796v-2.214h-8.568v12.69z" fill="#fff"/><path d="m48 12h-8.6357806c-1.6568543 0-3-1.3431458-3-3v-9z" fill="#ea5455" fill-rule="nonzero" opacity=".33996"/></g><g transform="translate(169.010677 385.7343)"><path d="m6 0h30.3642194l11.6357806 12v39c0 3.3137085-2.6862915 6-6 6h-36c-3.3137085 0-6-2.6862915-6-6v-45c0-3.3137085 2.6862915-6 6-6z" fill="#ffbc7c"/><g fill="#fff"><path d="m8.5 32h7c.2761424 0 .5.2238576.5.5v14c0 .2761424-.2238576.5-.5.5h-7c-.27614237 0-.5-.2238576-.5-.5v-14c0-.2761424.22385763-.5.5-.5z"/><path d="m20.5 22h7c.2761424 0 .5.2238576.5.5v24c0 .2761424-.2238576.5-.5.5h-7c-.2761424 0-.5-.2238576-.5-.5v-24c0-.2761424.2238576-.5.5-.5z"/><path d="m32.5 29h7c.2761424 0 .5.2238576.5.5v17c0 .2761424-.2238576.5-.5.5h-7c-.2761424 0-.5-.2238576-.5-.5v-17c0-.2761424.2238576-.5.5-.5z"/></g><path d="m48 12h-8.6357806c-1.6568543 0-3-1.3431458-3-3v-9z" fill="#fc9735" fill-rule="nonzero" opacity=".732678"/></g><g transform="translate(237.010677 348.7343)"><path d="m6 0h30.3642194l11.6357806 12v39c0 3.3137085-2.6862915 6-6 6h-36c-3.3137085 0-6-2.6862915-6-6v-45c0-3.3137085 2.6862915-6 6-6z" fill="#b7b0ff"/><g fill="#fff" transform="translate(11 19)"><path d="m5.29131402 22.9500078c2.6509668 0 4.79999998-2.1490332 4.79999998-4.8s-2.14903318-4.8-4.79999998-4.8-4.8 2.1490332-4.8 4.8 2.1490332 4.8 4.8 4.8z"/><path d="m16.8 20.8782658c2.6509668 0 4.8-2.1490332 4.8-4.8s-2.1490332-4.8-4.8-4.8-4.8 2.1490332-4.8 4.8 2.1490332 4.8 4.8 4.8z"/><path d="m21.6.60366016v15.11344224h-1.8l-.0007326-11.43903448-9.7224 3.1512v10.57679418h-1.80000001l.00092683-13.08535516z"/></g><path d="m48 12h-8.6357806c-1.6568543 0-3-1.3431458-3-3v-9z" fill="#564ea6" fill-rule="nonzero" opacity=".33996"/></g><g transform="matrix(-1 0 0 1 293.010677 154.7343)"><path d="m11.640832 0h101.154816c5.938166 0 10.752 4.81383437 10.752 10.752v120.860444c0 5.938166-4.813834 10.752-10.752 10.752h-101.154816c-5.93816563 0-10.752-4.813834-10.752-10.752v-120.860444c0-5.93816563 4.81383437-10.752 10.752-10.752z" fill="#00cfe8" opacity=".272833"/><path d="m20.918016 10.6773333h81.211648c5.938166 0 10.752 4.8138344 10.752 10.752v10.2499445c0 5.9381656-4.813834 10.752-10.752 10.752h-81.211648c-5.9381656 0-10.752-4.8138344-10.752-10.752v-10.2499445c0-5.9381656 4.8138344-10.752 10.752-10.752z" fill="#f4feff"/><path d="m27.5370993 16.016h1.3666334c5.7587191 0 10.4270833 4.6683642 10.4270833 10.4270833s-4.6683642 10.4270834-10.4270833 10.4270834h-1.3666334c-5.7587191 0-10.4270833-4.6683643-10.4270833-10.4270834s4.6683642-10.4270833 10.4270833-10.4270833z" fill="#7367f0" fill-opacity=".210173"/><path d="m20.918016 52.3856667h81.211648c5.938166 0 10.752 4.8138343 10.752 10.752v10.2499444c0 5.9381656-4.813834 10.752-10.752 10.752h-81.211648c-5.9381656 0-10.752-4.8138344-10.752-10.752v-10.2499444c0-5.9381657 4.8138344-10.752 10.752-10.752z" fill="#f4feff"/><path d="m27.5370993 57.7243333h1.3666334c5.7587191 0 10.4270833 4.6683643 10.4270833 10.4270834s-4.6683642 10.4270833-10.4270833 10.4270833h-1.3666334c-5.7587191 0-10.4270833-4.6683642-10.4270833-10.4270833s4.6683642-10.4270834 10.4270833-10.4270834z" fill="#7367f0" fill-opacity=".210173"/><path d="m20.918016 94.094h81.211648c5.938166 0 10.752 4.8138344 10.752 10.752v10.249944c0 5.938166-4.813834 10.752-10.752 10.752h-81.211648c-5.9381656 0-10.752-4.813834-10.752-10.752v-10.249944c0-5.9381656 4.8138344-10.752 10.752-10.752z" fill="#f4feff"/><path d="m27.5370993 99.4326667h1.3666334c5.7587191 0 10.4270833 4.6683643 10.4270833 10.4270833s-4.6683642 10.427083-10.4270833 10.427083h-1.3666334c-5.7587191 0-10.4270833-4.668364-10.4270833-10.427083s4.6683642-10.4270833 10.4270833-10.4270833z" fill="#7367f0" fill-opacity=".210173"/></g><g transform="translate(394.010677 140.7343)"><path d="m4 .7056h6.295487c2.209139 0 4 1.790861 4 4v2.83405428c0 .67338798.5458888 1.2192768 1.2192768 1.2192768h45.4117258c2.209139 0 4 1.79086102 4 4.00000002v38.8141249c0 2.209139-1.790861 4-4 4h-56.9264896c-2.209139 0-4-1.790861-4-4v-46.867456c0-2.209139 1.790861-4 4-4z" fill="#ff9f43"/><path d="m16.6069291 4.51584h49.5943902c.673388 0 1.2192768.54588882 1.2192768 1.2192768 0 .06431887-.0050894.12853691-.0152205.19205288l-7.4510388 46.71354242c-.0943899.5917681-.6048076 1.0272239-1.2040563 1.0272239h-49.59439019c-.67338798 0-1.2192768-.5458888-1.2192768-1.2192768 0-.0643189.00508938-.1285369.01522048-.1920529l7.45103881-46.71354238c.0943899-.59176817.6048076-1.02722392 1.2040563-1.02722392z" fill="url(#k)"/><path d="m72.6208087 21.7618168-5.4357365 27.9570747c-.7309031 3.7591799-4.0233661 6.4731405-7.8529422 6.4731405h-54.47949804c-2.209139 0-4-1.790861-4-4 0-.2562443.0246228-.5118958.07352893-.7634297l5.43573655-27.9570747c.73090308-3.7591799 4.02336606-6.4731405 7.85294216-6.4731405h54.479498c2.209139 0 4 1.790861 4 4 0 .2562443-.0246228.5118957-.0735289.7634297z" fill="#fabb7e"/></g><g transform="translate(360.010677 231.7343)"><path d="m6 0h56c3.3137085 0 6 2.6862915 6 6v45c0 3.3137085-2.6862915 6-6 6h-56c-3.3137085 0-6-2.6862915-6-6v-45c0-3.3137085 2.6862915-6 6-6z" fill="#77ecab"/><g fill="#fff"><path d="m26 20.3055467v16.3577134c0 .4509295.3655505.81648.81648.81648.1296529 0 .2574418-.0308763.3727914-.0900736l16.3577134-8.3947711c.4011832-.205887.559502-.6980146.353615-1.0991977-.0806752-.1572004-.210169-.2839879-.369038-.3613254l-16.3577134-7.9629424c-.4054415-.1973691-.8941161-.0286931-1.0914852.3767484-.0541984.111336-.0823632.2335412-.0823632.3573684z"/><path d="m7 5h6v6h-6z"/><path d="m19 5h6v6h-6z"/><path d="m31 5h6v6h-6z"/><path d="m43 5h6v6h-6z"/><path d="m55 5h6v6h-6z"/><path d="m7 45h6v6h-6z"/><path d="m19 45h6v6h-6z"/><path d="m31 45h6v6h-6z"/><path d="m43 45h6v6h-6z"/><path d="m55 45h6v6h-6z"/></g></g><g transform="matrix(-1 0 0 1 80.577522 312.428015)"><path d="m42.1519328 172.764691 3.6034099 21.756255-12.4284824-.066249-.420178-22.031133z" fill="#b8b6c9"/><path d="m46.741879 186.307936.0880138 1.832961c1.3270873 1.467221 1.8944704 4.499879 1.7021495 9.097975 0 3.076125-17.7818465 2.984778-18.768428 0-.3366643-4.990368.2680151-8.088311 1.814038-9.293829l.0096326-1.770451c.0062472-1.148234.7835088-2.150735 1.8987753-2.449012l2.2504069-.601871c1.9417914-2.823008 4.5881482-2.723279 6.8558169.352988l2.1320923.460665c1.1346228.24515 1.9621343 1.217479 2.0175027 2.370574z" fill="#2f2b57"/><path d="m0 1.25525478s16.0698292 88.28016412 18.8876326 97.47319042c1.8785356 6.1286838 5.4226596 32.2413598 10.6323721 78.3380268l16.8795962.048151c.2397597-35.484746-.2087251-56.078562-1.3454545-61.781448-1.705094-8.554329-5.5539974-22.6427378-5.5539974-22.6427378s-2.8596648-51.1449907-4.5705205-63.0757225c-1.7102711-11.9307318-7.2011416-29.6147147-7.2011416-29.6147147z" fill="#2f2b57"/><path d="m12.230327 66.7430959-1.5421761-12.0158017 1.1282984 3.3082749c5.6176159 16.5738865 9.4372392 29.4393197 11.4588699 38.5962996 1.7013036 7.7060583 2.0589815 21.0097743 1.0730336 39.9111493l-1.1206863-9.261738c-1.6158041-13.116225-3.1868019-24.626951-4.297541-28.411113l-.1097614-.3674982c-1.0438177-3.5943726-3.6442041-16.4852335-6.5900371-31.7595729z" fill="#fff" fill-opacity=".192499"/></g><g transform="matrix(-1 0 0 1 113.401051 313.421936)"><path d="m34.1492744 174.862763-11.3439524.075817-.0031485.318098c-.0374547 1.562115-.4630373 8.452068-5.0180589 11.097046l-.9088768.536623c-5.1291152 3.073065-12.22497885 8.01555-12.22497885 8.01555l30.36478075 1.032863z" fill="#b8b6c9"/><path d="m32.5795032 182.579458c2.6597791-.244729 3.9896687 4.857332 3.9896687 15.306182l-13.6179682.050078-.9227783-1.996958-.8671074.348387c-1.8466266.725443-3.1580623 1.125877-3.934307 1.201303l-.7205918.06604c-3.8181123.329885-9.10956786.48432-15.87436684.463304l-.02248342-.116859c-.11454887-.708021-.41781292-4.488949 5.46241601-7.362265l.27580903-.131955c6.70373962-3.14119 11.61574832-7.576842 12.67647712-8.167267l.0514201-.027083c.9499802-.467433.3302724-.731741 1.6801124.367093 1.3498399 1.098019 1.5720695 3.985824 4.630705 4.076374 3.9368246.116654 3.2033258-3.70928 7.1929946-4.076374z" fill="#2f2b57"/><path d="m48.2990105 41.8685544c-4.3507884 15.6883147-7.8971565 53.9992959-7.8971565 53.9992959s-.400435 4.0358043 1.3328294 15.2159157c1.1555096 7.453407-.5432431 29.314014-5.096258 65.581821l-17.9760644.036659c-1.4781694-48.722368-2.2523163-75.645782-2.3224406-80.7702428-.164137-11.9849393-4.0511638-95.08051846-4.0511638-95.08051846l37.3863467-.85148474s2.9746955 26.1802397-1.3760928 41.8685544z" fill="#353160"/><path d="m22.0864291 32.2983245-.0705759.3070605c-2.5824536 10.8597768 1.846343 58.9875876.5854993 70.431121l-.5021669 4.09424c-.8764697 7.357469-2.3595917 20.770283-4.4493661 40.238444l-.4532987-16.295834c-.4160621-15.486149-.7698094-30.058229-.8463431-34.4904463l-.0102573-.6509065c-.164137-11.9849393-4.0511638-95.08051846-4.0511638-95.08051846l6.9940945-.15839487.3058172 1.34396571c3.0873757 13.76887832 3.9199626 23.85596792 2.4977608 30.26126892z" fill="#fff" fill-opacity=".192499"/><g stroke="#fff" stroke-linecap="round" stroke-width="2"><path d="m16.176669 185.314778-.860587-1.492998"/><path d="m13.640305 187.02108-.860586-1.492998"/><path d="m11.103941 188.727382-.860586-1.492998"/></g></g><g transform="matrix(-1 0 0 1 99.475918 186.200051)"><path d="m7.49905078 19.7038267c-3.90478777.4268813-3.6279558 7.2866831 1.1253948 7.6448441.97153451 6.6128746 4.43630512 9.7635264 8.66046962 10.1280935l-.2342873 10.0023004 18.6847009-.0110651s-5.2615558-7.0659628-4.999294-16.739221c.2622619-9.6738406-.1760068-18.761229-.1760068-18.761229l-24.20094212.4338698z" fill="url(#m)"/><path d="m28.7302438 15.628908c1.6836731.8127393.3432644 4.4857398-.5092948 4.4857398-3.9111908-1.5455805-7.1538597 4.0194657-8.8022654 9.6086594-4.6813729 4.589493-15.02485575 4.6911403-16.09346154.8519322-4.04565899-8.4087613-4.24408387-20.5674758.47703518-21.50576726-3.70599504-9.771491 46.34384996-14.88308458 24.92798656 6.55943586z" fill="url(#n)" transform="matrix(-1 0 0 1 34.354994 0)"/><path d="m9.80443086 31.0955276c.19216376-.4212223 1.33845704 2.4630683 3.19141374 4.0092102 1.917532 1.6000246 4.7959582 2.0685841 4.2890706 2.3720265-3.890297 2.3288814-9.04662735-2.9482571-7.48048434-6.3812367z" fill="url(#o)"/></g><g transform="matrix(-1 0 0 1 61.679126 222.975127)"><path d="m44.16709 29.3319459s-.8208742-5.5273553-.5603257-9.1644129c.4818684-6.7265888-.4397122-12.40095442 1.0498057-13.28359493 1.910494-1.13209497 2.3882639 8.91148583 2.3882639 8.91148583s10.9108356-17.76162088 13.185512-15.6155022c2.2746765 2.1455399-2.4702342 11.4795356-1.7178637 14.1783898.7523704 2.6982754-6.7660648 15.7520944-6.7660648 15.7520944z" fill="url(#p)"/><path d="m3.83367592 32.5250788s16.52697378 25.706543 20.17816618 30.6921596c3.8297706 5.2281257 10.5934933 7.5432483 15.3934413-.7975598 4.2454772-7.3788746 13.3359861-25.8558683 14.4864982-31.5996876.8583464-4.285292-7.9335564-10.6727153-12.1591265-4.2690861-4.2255702 6.4030504-10.8991256 16.0322242-10.8991256 16.0322242s-10.9740698-19.8811156-14.3951598-24.5721329c-9.22575994-12.65040882-23.28249944-1.2906808-12.60469378 14.5140826z" fill="#02c4dc"/><path d="m30.8335295 42.5831291 3.6312854 6.2519887-1.3232353-9.6500099z" fill="#000" fill-opacity=".159856"/><path d="m41.9346608 27.1181215c3.7454674-1.4787499 7.2976136-1.0794599 10.4258415 3.4380337" stroke="#5386bf" stroke-linecap="round" transform="matrix(.99756405 .06975647 -.06975647 .99756405 2.099573 -3.219541)"/></g><g transform="matrix(-1 0 0 1 105.443832 226.950811)"><path d="m39.6789681 1.85440975-19.3069387.12493251-.7902778.31819899c-3.1849163 1.30602717-15.01318617 6.3917504-17.21675405 10.74711855-3.68201411 7.2775279 1.16913796 65.5848362-.94570023 69.1033476-4.46125159 7.4225851 1.36637773 12.5411368 20.73015868 14.4776817l.5909279.0577083c19.8359292 1.8910832 37.4337096.3424729 34.2403948-9.6629273-3.1941407-10.0062376 6.578636-74.4530291-2.5856309-78.90470174-9.8107865-4.17423907-14.7161797-6.26135861-14.7161797-6.26135861z" fill="#00cfe8"/><path d="m18.8572687 16.6215155c2.8603382 6.2268397-2.8209977 22.4318729-17.04400773 48.6150996l-.17595739-5.8489807c-.46521922-14.600381-1.14965849-32.3971593-.2906231-41.3532278 8.98348282-6.7986261 14.81995382-7.2702923 17.51058822-1.4128911z" fill="#000" fill-opacity=".159856"/><path d="m19.0731759.14556317c1.2011171-.32751713 21.3139187 0 22.112997 0s.7990783 3.41769316 0 3.41769316c-.4886266 0-6.7261078-.0930769-22.114443-.27923071-.9257316-.01119864-2.6233832.50661792-5.0929549 1.55344968 2.5955226-2.90959667 4.2936563-4.47356739 5.0944009-4.69191213z" fill="url(#q)"/></g><g transform="matrix(-1 0 0 1 186.010677 233.908258)"><path d="m21.6158765 52.5867317s-10.5297818 1.6717942-12.51608288.0298535c-1.98630107-1.6413554-9.89833242-12.8018694-9.03409067-14.7224425.86424175-1.9199877 8.08313375 2.1412546 8.69828764.9201893.79091215-1.5687705-3.29168439-7.1654176.28575266-7.4914643.92127589-.0842922 1.57193065 3.3605639 4.16581985 5.6294274 2.5933072 2.2694489 8.8536765 7.3029777 8.8536765 7.3029777z" fill="url(#r)"/><path d="m85.2500088 3.45728972c-9.0998545 8.65867638-21.9845807 29.10478958-24.729785 30.90594878-2.7457862 1.8017446-37.0896475 5.4348754-40.3231338 8.3675396-2.7009737 2.4497404-2.9442418 9.903368 0 11.9708669 2.9448237 2.067499 41.6120554-.704107 48.7034936-2.7704352 7.0920201-2.0657429 19.2389607-20.9994476 24.6647694-26.9091799 15.174005-16.52736243.7845103-30.22283116-8.3153442-21.56474018z" fill="#02c4dc"/><path d="m23.7697865 41.5306056c-1.7005469 1.9892188-2.5584125 4.888368-1.7005469 10.5520761" stroke="#5386bf" stroke-linecap="round"/></g></g></svg>