<svg height="514" viewBox="0 0 729 514" width="729" xmlns="http://www.w3.org/2000/svg" xmlns:xlink="http://www.w3.org/1999/xlink"><defs><filter id="a" height="119.7%" width="119.7%" x="-9.8%" y="-9.8%"><feGaussianBlur in="SourceGraphic" stdDeviation="3"/></filter><linearGradient id="b"><stop offset="0" stop-color="#fdc6c6"/><stop offset="1" stop-color="#fab2b2"/></linearGradient><linearGradient id="c" x1="43.251916%" x2="50%" xlink:href="#b" y1="-28.185925%" y2="91.050481%"/><linearGradient id="d" x1="42.314264%" x2="50%" xlink:href="#b" y1="8.689348%" y2="71.689609%"/><linearGradient id="e" x1="68.669473%" x2="68.669473%" y1="-53.106962%" y2="100%"><stop offset="0" stop-color="#7367f0"/><stop offset="1" stop-color="#8ca5ff"/></linearGradient><path id="f" d="m14.9158259.1217686h33.2737655c1.2673512 0 2.2947424 1.02030247 2.2947424 2.27890935v6.26700069c8.4140556 10.53995576 12.6210835 21.07991146 12.6210835 31.61986716 0 10.2153264-3.5926063 20.4306528-10.7778188 30.6459792-.4292676.6102862-1.1316223.973888-1.881231.973888h-37.7873276c-.7496091 0-1.4519643-.3636068-1.8812273-.9738967-7.1852084-10.2153235-10.7778126-20.430647-10.7778126-30.6459705 0-10.3410886 4.04976975-20.6821773 12.1493092-31.02326589l.4717743-.59660127v-6.26700069c0-1.25860688 1.0273911-2.27890935 2.2947424-2.27890935z"/><mask id="g" fill="#fff"><use fill="#fff" fill-rule="evenodd" xlink:href="#f"/></mask></defs><g fill="none" fill-rule="evenodd"><path d="m558.524599 155.012318 127.818313.157066c5.513248.006775 9.980929 4.474456 9.987704 9.987704l.157066 127.818313c.006786 5.522843-4.464861 10.005494-9.987705 10.012281-.008192.00001-.016384.00001-.024576 0l-127.818313-.157066c-5.513248-.006775-9.980929-4.474456-9.987704-9.987704l-.157066-127.818313c-.006786-5.522843 4.464861-10.005494 9.987705-10.012281.008192-.00001.016384-.00001.024576 0z" fill="#bfe7ff" opacity=".040019" transform="matrix(.70710678 -.70710678 .70710678 .70710678 20.898576 520.246518)"/><g fill="#7367f0"><path d="m237.807146 19.4230043 71.218336.0875143c5.513248.0067747 9.980929 4.4744561 9.987704 9.9877043l.087514 71.2183361c.006787 5.522843-4.464861 10.005494-9.987704 10.012281-.008192.00001-.016384.00001-.024576 0l-71.218337-.087515c-5.513248-.006775-9.980929-4.474456-9.987704-9.987704l-.087514-71.2183361c-.006787-5.5228434 4.464861-10.0054941 9.987704-10.0122806.008192-.0000101.016384-.0000101.024577 0z" filter="url(#a)" opacity=".037574" transform="matrix(.70710678 -.70710678 .70710678 .70710678 34.575376 225.417078)"/><path d="m330.588761 91.1063585 265.600364.3263743c5.513248.0067747 9.980929 4.4744561 9.987704 9.9877042l.326374 265.600363c.006787 5.522843-4.464861 10.005494-9.987704 10.012281-.008192.00001-.016384.00001-.024576 0l-265.600364-.326375c-5.513248-.006774-9.980929-4.474456-9.987704-9.987704l-.326374-265.600363c-.006787-5.5228432 4.464861-10.005494 9.987704-10.0122805.008192-.0000101.016384-.0000101.024576 0z" opacity=".065941" transform="matrix(.70710678 -.70710678 .70710678 .70710678 -29.24461 409.329599)"/><path d="m220.715308 269.000314c6.004812 0 10.872675 4.855914 10.872675 10.845987v169.197397c0 5.990074-4.867863 10.845987-10.872675 10.845987h-169.6137343c-6.0048128 0-10.8726753-4.855913-10.8726753-10.845987v-169.197397c0-5.990073 4.8678625-10.845987 10.8726753-10.845987zm-32.618026 43.383634h-104.3776826v104.121475h104.3776826z" fill-rule="nonzero" opacity=".089565" transform="matrix(.70710678 -.70710678 .70710678 .70710678 -217.39487 215.845249)"/></g><g transform="translate(372.26875 239.592233)"><g fill="#374057"><path d="m71.5220485 134.58577-17.3687434 136.758353 9.1062058-.12042 17.3687433-135.357486z"/><path d="m87.1663366 134.58577-17.3687434 136.758353 9.1062058-.12042 17.3687434-135.357486z" transform="matrix(-1 0 0 1 166.070136 0)"/><path d="m140.116235 134.58577-17.368743 136.758353 9.106205-.12042 17.368744-135.357486z" transform="matrix(-1 0 0 1 271.969932 0)"/></g><path d="m0 144.994902v-6.399177c0-6.123733 4.96426669-11.088 11.088-11.088h65.7966672c5.7201246 0 10.5014728-4.351336 11.0389448-10.046154l10.1377733-107.415417c.5374719-5.69481767 5.3188197-10.046154 11.0389447-10.046154h47.400822c6.123733 0 11.088 4.96426669 11.088 11.088 0 .2844358-.010945.5687664-.03281.8523605l-10.324288 133.9069025c-.445331 5.775988-5.262059 10.235639-11.05519 10.235639h-135.088864c-6.12373331 0-11.088-4.964266-11.088-11.088z" fill="#454e67"/><path d="m152.955 0-10.161797 131.441987c-.446503 5.774979-5.262793 10.233263-11.055007 10.233263l-131.738196-.00025v-3.441649c0-6.123734 4.96426669-11.088 11.088-11.088h65.5873954c5.7189917 0 10.4997832-4.349665 11.0386666-10.043211l10.1329258-107.058929c.5388834-5.69354637 5.3196752-10.043211 11.0386662-10.043211z" fill="#374057"/></g><g transform="matrix(-1 0 0 1 477.233638 332.641349)"><path d="m93.5725351 133.787439s-7.5228646 18.038643-1.355817 22.820428c6.1763214 4.782712 18.1885349 16.609569 18.1885349 16.609569l-38.9200314-8.441469 9.6076111-33.094625z" fill="url(#c)"/><path d="m91.3375744 145.666021s-.9560619 8.464912 1.8049019 11.353623c2.7596874 2.887477 17.7031007 13.883097 18.8736067 15.969388 1.170505 2.087526-.922874 4.389854-.922874 4.389854s-16.140725 1.402383-23.3999025-3.008457c-5.2411084-3.186224-13.0568186-8.90686-13.0568186-8.90686l-2.0704038 5.62558-5.8678458-.239491s-.7773588-6.931673.6152494-10.254925c1.3926082-3.324487 8.5637107-20.240731 8.5637107-20.240731s2.7603613 2.47886 5.693646 3.728166c2.9332847 1.248071 6.6075135 4.667614 6.6075135 4.667614z" fill="#323740"/><path d="m28.4628204.04528134c13.0852695.58348339 85.9141926 16.67060366 99.1459756 19.40369296 13.231783 2.7330892 24.418398 17.5220292 14.328552 34.6468035-11.33253 19.2234621-40.572531 73.8176492-47.6717762 86.1245292-3.5138292 6.09139-21.2405062 2.676097-17.0765898-7.547841 7.7622872-19.059254 11.367101-66.9379179 31.157296-84.3951851 0 0-66.5542068 11.5678535-95.3028497-1.6827763-20.89377186-9.6321067-16.16702014-47.95977118 15.4193921-46.54922326z" fill="#42474f"/></g><g transform="matrix(-1 0 0 1 440.121195 219.957137)"><path d="m82.6311688 28.2917525s-.147864-10.6331408 3.5764596-16.1900709c3.7243237-5.55693011 3.8721877-11.4596083 6.6908445-11.26639613 2.8186569.19321218.0277245 13.91312553.0277245 13.91312553s3.5764597-1.3645032 6.1455961-3.0904703c2.5691365-1.72596715 10.3597195-10.23469856 12.1802945-8.72690402 3.08666 2.56907481-1.885266 17.06091242-4.593025 19.95817062-2.717 2.8981826-17.5588457 12.4284425-17.5588457 12.4284425l-36.3531068 37.1239103-6.8253979-18.8592051z" fill="#ffe0d1"/><path d="m2.2179638 24.7845287c6.08695608 14.0995855 17.2323244 40.0010275 21.8270489 47.728604 5.7581593 9.6775729 14.8380093 13.9412957 25.4691057 6.760998 1.8815376-1.2708252 5.6884145-4.3338953 11.4206304-9.1892104l-10.4050151-22.8684518c-4.4989883 3.7084221-6.7484825 5.5626331-6.7484825 5.5626331s-11.423581-29.2448945-20.61303-46.18611984c-7.9585686-14.6569679-30.21558252-3.24325829-20.9502574 18.19154694z" fill="#ffb66f"/><path d="m43.8992808 52.794257c2.0454332 6.9286654 3.3072261 10.1924116 3.7853785 9.7912385s.2954875-4.5703148-.5479947-12.5074252z" fill="#000" fill-opacity=".159856"/><path d="m47.9441445 48.4821721 8.7011099 29.1020117 9.2415959-7.243945-12.8626513-25.799326z" fill="#ffedc2"/></g><g transform="matrix(-1 0 0 1 495.113348 135)"><g transform="matrix(.9781476 .20791169 -.20791169 .9781476 19.428724 .799128)"><path d="m28.3589981 4.77007264s-6.0384958-6.42332556-13.0115037-4.36238802c-6.97300787 2.06093755-13.28047923 14.69417708-10.28556477 26.56917618 2.97978862 11.8765371.7411657 14.3204399-2.87390781 22.3242601-9.71078324 21.5306453 16.04850628 38.8440587 16.04850628 38.8440587l28.0739268-5.959502-10.0288109-52.4403932z" fill="#42474f"/><path d="m18.140822 11.4517429c-16.35334584 17.1237472-2.1694626 29.9467615.50192 33.0975656 9.1835173 25.1064709 1.8779476 28.04885-8.3420938 36.2675755l5.4954341 6.2710056 15.7531733-6.576648-.5059056-70.4358374z" fill="#000" fill-opacity=".199355"/></g><path d="m25.5653024 80.1985272s9.9679446-2.0008065 10.263999-15.9657164-1.3458289-18.7318158-1.3458289-18.7318158l18.7976313-.338745s.2046008 15.5636682.2078262 21.1931018c.0078425 13.687704 10.5569906 15.2753591 10.5569906 15.2753591s-2.1929647 10.8275873-19.2258936 11.7841014c-13.2989187.7479803-19.2547246-13.2162851-19.2547246-13.2162851z" fill="#f9c7b0"/><g transform="matrix(.9781476 .20791169 -.20791169 .9781476 33.425521 5.45109)"><path d="m3.76777441 9.28525507c-2.34355716-7.73659254 10.25194669-12.41629763 13.95280539-6.84258199 0 0 1.8142912 5.28259043-1.9680321 8.29847352-5.1172609 4.0674441-11.98477329-1.45589153-11.98477329-1.45589153z" fill="#fb9934"/><path d="m6.34573431 29.9481772c-8.38559272-.3240596-7.01780511 11.9357408 1.69325135 11.9190972 0 0 5.05951444 17.4157731 22.62549974 17.4157731 14.2658452 0 15.1938627-20.2984066 15.3232639-24.3476823.1392044-4.3175303.15685-18.5017433.15685-18.5017433l-40.12530904-.0186016z" fill="#ffe0d1"/><path d="m10.7456446 37.5084292c1.4276849-.3897802 1.8141859-8.3064426 1.8141859-8.3064426 4.2721322-.847019 5.0243027-1.8104474 8.2527079-7.1003163 14.3382543 3.052514 24.073242 3.9848095 25.3320609 14.4706613 0 0 10.7681773-24.2119743-8.0987548-32.81770979-16.5949174-7.55867884-34.10454968-.45696891-37.15948823 12.74358729-2.16455445 9.3180397.31628233 16.1613669.31628233 16.1613669s2.17378703-3.4575894 5.74211713-2.5940193c3.56833007.8635701 2.37320402 7.8326527 3.80088887 7.4428725z" fill="#42474f"/><g stroke-linecap="round"><path d="m27.5884383 46.184935s2.8858826 4.6578407 8.5181879 3.0043725" stroke="#f77b7b" stroke-width="1.5" transform="matrix(.95105652 -.30901699 .30901699 .95105652 -13.232264 12.184092)"/><path d="m30.0328695 51.744492c1.3220043.5540588 2.5759506.5540017 3.6732533-.0828149" stroke="#f49494" transform="matrix(.99939083 .0348995 -.0348995 .99939083 1.830905 -1.08061)"/><path d="m6.73282405 36.7484099c.52638605-1.8967744.2924227-3.5536721-1.59385398-4.3112335" stroke="#f77b7b" transform="matrix(.97437006 -.22495105 .22495105 .97437006 -7.626416 2.249391)"/></g></g></g><g transform="matrix(-1 0 0 1 499.663244 213.102475)"><path d="m64.6655117 1.66250892c.229196-.01104153 8.2679115 3.51136425 9.1935469 4.86936937 6.0300697 8.84675031 17.1019172 39.98430231 17.6719137 46.73908691.6422022 7.7916661-10.5898316 20.203632-10.7274464 31.4831866-.1223242 11.281091 4.804479 45.2472852 2.8931628 48.4201882-1.8960257 3.172903-14.3578073 18.244576-16.9571974 18.306036-2.6146805.061461-4.5663359-7.85159-8.5265831-7.6795-3.9449567.172089-12.1712616 10.663412-15.7186645 10.588925-3.5321123-.077628-40.1376403-23.266708-37.33947338-29.873721 2.81345746-6.607014 15.87156978-23.02621 14.54129368-32.0286497-1.3149855-9.0009032-11.8195794-42.2280339-15.61163075-53.5367822-3.77676082-11.3087484-6.81957622-20.3173341.22935794-25.1834762 7.04893421-4.86614215 29.98472861-13.7671719 29.98472861-13.7671719l20.5351813 11.486984s8.6396003-9.76704027 9.8318106-9.82447508z" fill="#ff9f43"/><path d="m57.3641325 11.1677096c6.1589451 20.4812407 14.6115165 40.6622908 17.9971641 59.8673576l-9.8471131-5.3052426-9.0824403 6.8818886c.641202-19.9667179-2.7110247-40.9317331-4.2521638-61.4440036z" fill="#fff6e1"/><path d="m21.39016 26.8940727-.2338519 1.6562213c-2.7592898 20.5676909.5059126 45.5256721 6.1644876 49.3333334 5.7764619 3.8869876 28.2589998.0725572 28.2589998 3.1508041 0 3.078247-31.069453 31.2886355-25.9689637 44.7745215 2.804328 7.414749 1.8652743 14.00906-2.817161 19.782933l-1.3597297-.91386c-10.6119827-7.197679-21.87802258-16.386748-20.27917078-20.161946 2.81345746-6.607014 15.87156978-23.02621 14.54129368-32.0286497-1.2623861-8.6408671-10.99391527-39.6086254-15.12538212-52.0774775l-1.31609238-3.9532878c-1.52957732-4.6352884-2.80265933-8.8341465-3.11037084-12.4570172l.9493843-.6155974c15.17498464-9.7274627 21.94031604-8.5572187 20.29655704 3.5100223z" fill="#000" fill-opacity=".159856"/><g fill="#fff6e1"><path d="m30.5082765 1.45042733 3.7902433-1.45042733 20.9859777 10.8925433s-3.9462204 10.0413039-10.933994 5.0410273c-5.9895203-4.2758175-3.4626914-8.03847655-8.1576019-9.97942301-4.6793127-1.94094647-5.6846251-4.50372026-5.6846251-4.50372026z"/><path d="m55.2844975 10.8925433c1.5212743 3.3787637 4.6140893 5.3530878 6.2129797 4.7393514 2.6389451-1.0137898 1.505751-5.0528825 2.5458059-7.09331524.7451139-1.44758257 1.2263333-1.6660856 1.878308-3.02530296.6054051-1.24675258.6304726-2.74316543.4752405-3.15607189l-2.0645865-.93827771c-1.8914085 1.78367805-3.2770974 3.14846125-4.1570665 4.0943496-1.0966526 1.17880368-2.7268796 2.9718926-4.8906811 5.3792668z"/></g></g><g transform="matrix(-1 0 0 1 530.29375 225.084354)"><path d="m62.8107463 53.1589448s12.3552193-10.9208258 16.1374293-12.188174c3.7822099-1.2673482 25.9338204-2.78983 25.7943994.0739518-.159421 3.0680735-12.0570393 2.8915137-13.2897595 4.4010539-1.2327203 1.5086159-1.512884 11.824886-6.1729403 12.9831554-4.6507174 1.1582694-18.593531 3.1549668-18.593531 3.1549668l-33.3513978 20.0880087-1.4248849-18.3543742z" fill="#ffe0d1"/><path d="m29.9409927 6.91954628c-13.0169809 18.34731082-24.13055909 46.29473922-28.39648676 57.19063892s.0373359 27.330381 18.79561466 24.103962c2.1120078-.3629693 5.5361972-1.2727992 10.2725682-2.7294896l4.4829919-25.2353942c-3.8547813 1.6164268-5.782172 2.4246402-5.782172 2.4246402s18.6438623-33.0035571 23.1964333-41.8509502c7.6044798-14.77568531-11.1032149-30.06918054-22.5689493-13.90340712z" fill="#ffb66f"/><path d="m29.3135087 62.6739036c-6.3132871 3.0796606-9.072932 3.9421559-8.2789347 2.587486.7939972-1.35467 4.7443615-4.35655 11.8510929-9.00564z" fill="#000" fill-opacity=".159856"/><path d="m30.2166363 61.5078421-3.096611 27.2875468 12.2460237-3.8875618-1.8479264-26.7418762z" fill="#ffedc2"/></g><g transform="matrix(-1 0 0 1 500.178551 326.912615)"><path d="m161.968087 140.125381s-.226791 17.860148 14.509206 24.537792c14.726725 6.676717 25.21904 6.274761 23.883619 11.4372-1.335421 5.161513-39.667705 4.953129-43.247375.915979-3.051065-3.434216-9.685775-35.413736-11.512705-32.968663z" fill="url(#d)"/><path d="m148.223186 154.204112s3.096901 7.584433 3.369479 12.181285c.273859 4.598094 7.323788 17.668452 7.323788 17.668452l5.569304.697847.509006-4.738721s8.06122 3.431189 13.118639 3.978788c5.056139.548841 22.401346-1.509933 25.850168-4.373342 3.450101-2.862168 1.707134-6.892795-8.249019-9.34892-9.954874-2.456124-25.422744-9.632031-28.36608-14.827393-2.943336-5.196603-2.961252-5.062497-2.961252-5.062497l.058866 8.658522s-2.547905-4.557117-5.555226-5.16556c-3.007322-.607202-10.667673.331539-10.667673.331539z" fill="#323740"/><path d="m11.8414559.25272374c-16.50654512 24.83927876-14.89234004 42.80620986 4.8426152 53.90079346 25.2808443 14.2123676 103.2532279-2.4347123 103.2532279-2.4347123s-1.383052 11.1206072 0 21.0388487c3.612192 25.9040074 20.791445 69.0614074 24.426149 74.4842394 5.026376 7.499151 20.337718 1.84363 20.626129-4.40059s-11.54247-85.9934228-13.341579-101.2010374c-1.789834-15.2085407-7.440547-17.4176365-23.944837-21.5749928-3.79163-.9550945-48.6299834-12.08359407-52.7375615-11.75923153-23.5291066 1.85801963-44.5704879-.82641954-63.1241436-8.05331753z" fill="#42474f"/><g fill="#fff" fill-opacity=".192499"><path d="m29.8274337 50.0126725c25.5966111 2.8643674 93.3625813-3.0398931 96.0842143-.3569901 2.598487 2.5615088 2.16485 47.1272154 7.994208 72.9197086-5.741968-15.628686-11.957627-35.3968138-13.968557-49.8177374-1.383052-9.9182415 0-21.0388487 0-21.0388487l-2.647692.5276541c-13.815384 2.6800694-77.863402 14.1868164-100.6055359 1.9070582-13.33893917-7.2024441-18.49984307-18.3540453-15.48271167-33.4548036 3.63787529 17.8141357 13.18015097 27.5854958 28.62607427 29.3139589z" opacity=".439941"/><ellipse cx="162.563756" cy="43.681603" rx="4.301887" ry="7.877532" transform="matrix(.97437006 .22495105 -.22495105 .97437006 13.992721 -35.449332)"/><ellipse cx="142.486957" cy="38.66896" rx="5.735659" ry="8.593956" transform="matrix(.9612617 -.27563736 .27563736 .9612617 -5.138907 40.772698)"/></g></g><g transform="matrix(.88294759 -.46947156 .46947156 .88294759 288.758382 221.754894)"><path d="m3.99487709 1.47506068 39.85735851 16.03544032c.9110301.3665263 1.5174475 1.2390171 1.5434574 2.2206692l1.4602856 55.1132543c.036044 1.3603522-1.0375199 2.492355-2.3978721 2.528399-.2842239.0075308-.567607-.0341878-.8376022-.1233089l-40.98476714-13.528406c-1.00467901-.3316282-1.68550808-1.267613-1.69162011-2.3255922l-.33287689-57.62028854c-.00786149-1.36080691 1.08891749-2.47033188 2.4497244-2.47819336.31990939-.00184814.63711726.0586193.93391253.17802618z" fill="#7596ff" fill-rule="nonzero"/><path d="m5.55972799 2.21609024 39.87144631 13.77263716c.9931717.3430674 1.6595133 1.2782145 1.6595133 2.3289691v55.6328259c0 1.3608296-1.1031703 2.464-2.464 2.464-.273802 0-.5456894-.0456356-.8044866-.1350309l-39.87144634-13.7726371c-.99317172-.3430675-1.65951334-1.2782145-1.65951334-2.3289692v-55.63282583c0-1.36082962 1.10317038-2.464 2.464-2.464.27380204 0 .54568939.04563555.80448667.13503087z" fill="url(#e)"/><path d="m4.52137648 5.01778116 40.39019262 13.40875014v54.9818182l-39.8406582-14.0150867z" fill="#fff" fill-rule="nonzero"/><path d="m17.8305416 3.27594885 16.3857395 6.05562882c.6044893.22339929 1.0159465.78765333 1.0438562 1.43149773l.2918178 6.7318908c.0191346.4414132-.3231899.8147611-.7646031.8338957-.1062022.0046037-.212257-.0120045-.3119676-.0488542l-16.3857395-6.0556289c-.6044893-.2233993-1.0159465-.7876533-1.0438563-1.4314977l-.2918177-6.73189078c-.0191346-.44141327.3231898-.8147611.7646031-.83389573.1062022-.00460371.212257.01200451.3119676.04885426z" fill="#7367f0" fill-rule="nonzero"/><g fill="#a7c3ff"><path d="m30.1258629 26.6147382c.6327088 0 1.1456206.5128375 1.1456206 1.1454546 0 .5874301-.4422556 1.0715809-1.0120171 1.1377482l-.1336035.0077063-17.9587088-5.9995449c-.6327088 0-1.1456206-.5128375-1.1456206-1.1454546 0-.5874301.4422556-1.0715809 1.0120171-1.1377482l.1336035-.0077063z"/><path d="m30.1258629 38.0692837c.6327088 0 1.1456206.5128374 1.1456206 1.1454545 0 .5874302-.4422556 1.0715809-1.0120171 1.1377483l-.1336035.0077063-17.9587088-5.999545c-.6327088 0-1.1456206-.5128374-1.1456206-1.1454545 0-.5874302.4422556-1.071581 1.0120171-1.1377483l.1336035-.0077063z"/><path d="m30.1258629 49.5238291c.6327088 0 1.1456206.5128375 1.1456206 1.1454546 0 .5874301-.4422556 1.0715809-1.0120171 1.1377482l-.1336035.0077063-17.9587088-5.9995449c-.6327088 0-1.1456206-.5128375-1.1456206-1.1454546 0-.5874301.4422556-1.0715809 1.0120171-1.1377482l.1336035-.0077063z"/></g></g><g transform="translate(159.822727 321.247573)"><path d="m131.436168 7.21218084h28.88959v183.57862216h-28.88959z" fill="#374057"/><path d="m131.436168 0h17.333754v190.790803h-17.333754z" fill="#454e67"/><path d="m0 7.21218084h143.003468v55.06114366h-114.1138785v128.5174785h-28.8895895z" fill="#374057"/><path d="m0 7.21218084h17.3337537v183.57862216h-17.3337537z" fill="#454e67"/></g><g transform="translate(143.5 321.247573)"><path d="m373.941854 7.21218084h28.889589v183.57862216h-28.889589z" fill="#374057"/><path d="m242.505685 7.21218084h143.003469v68.15754826h-114.113879v115.4210739h-28.88959z" fill="#374057"/><path d="m39.4229348 0h220.2487282v75.2356389h-220.2487282z" fill="#454e67"/><path d="m238.172247 7.21218084h17.333754v68.02345806h-17.333754z" fill="#374057"/><path d="m242.505685 7.21218084h17.333754v183.57862216h-17.333754z" fill="#454e67"/><path d="m259.170659 0h148.743251c5.974767 0 10.818272 4.84350503 10.818272 10.8182713 0 5.9747662-4.843505 10.8182712-10.818272 10.8182712h-148.743251c-5.974766 0-10.818271-4.843505-10.818271-10.8182712 0-5.97476627 4.843505-10.8182713 10.818271-10.8182713z" fill="#374057"/><path d="m22.2569576 4.32730851h220.2487274v21.63654249h-220.2487274z" fill="#374057"/><path d="m11.6968234 0h251.7691396c5.974766 0 10.818271 4.84350503 10.818271 10.8182713 0 5.9747662-4.843505 10.8182712-10.818271 10.8182712h-251.7691396c-5.97476623 0-10.81827126-4.843505-10.81827126-10.8182712 0-5.97476627 4.84350503-10.8182713 10.81827126-10.8182713z" fill="#454e67"/></g><g transform="matrix(-1 0 0 1 448.525 299.228155)"><path d="m9.78574731 2.62548262h-7.25035068c-1.40026089 0-2.53539663 1.07826567-2.53539663 2.40837379v3.29884062c0 3.15200747 2.68997407 5.70721437 6.00822525 5.70721437h3.77752206c.60011179 0 1.08659859-.4621138 1.08659859-1.0321602 0-.5700463-.4864868-1.0321601-1.08659859-1.0321601h-3.77752206c-2.11802755 0-3.83502813-1.6309793-3.83502813-3.64289407v-3.29884062c0-.19001545.16216224-.3440534.36219951-.3440534h7.25035068c.60011179 0 1.08659859-.46211386 1.08659859-1.03216019 0-.57004634-.4864868-1.0321602-1.08659859-1.0321602z" fill="#8c81ff"/><path d="m33.8619584 0c1.6002982 0 2.8975962 1.23230363 2.8975962 2.75242718v6.88106797c0 4.95427375-3.9370772 9.03506335-9.0013776 9.57328805l-.0012193 1.4364207h-12.6836752l-.0006831-1.4677532c-4.9366767-.6493069-8.73780443-4.6739701-8.73780443-9.54195555v-6.88106797c0-1.52012355 1.29729799-2.75242718 2.89759615-2.75242718z" fill="#7367f0"/><path d="m6.4832991 19.2669903h29.048546c.3800309 0 .6881068.3080759.6881068.6881068 0 .3868504-.3006576.7070911-.6867391.7314693l-10.6796186.674339h-7.6061899l-10.76545248-.6746628c-.38604356-.0241931-.68675951-.3443446-.68675951-.7311455 0-.3800309.3080759-.6881068.68810679-.6881068z" fill="#8c81ff"/></g><g transform="translate(239.05 257.024272)"><path d="m9.47440612 59.6616997h139.15145188c1.091234 0 1.975854.8846199 1.975854 1.9758538 0 1.091234-.88462 1.9758538-1.975854 1.9758538h-139.15145188c-1.09123392 0-1.9758538-.8846198-1.9758538-1.9758538 0-1.0912339.88461988-1.9758538 1.9758538-1.9758538z" fill="#8c81ff"/><path d="m103.741921 59.6616997h44.883937c1.091234 0 1.975854.8846199 1.975854 1.9758538 0 1.091234-.88462 1.9758538-1.975854 1.9758538h-44.883937c-1.091234 0-1.975854-.8846198-1.975854-1.9758538 0-1.0912339.88462-1.9758538 1.975854-1.9758538z" fill="#7367f0"/><path d="m4.09385342 0h89.92166308c1.8102913 0 3.3390124 1.34430709 3.570457 3.13974238l6.7846645 52.63216172c.254194 1.9719089-1.13829 3.7765213-3.110199 4.0307146-.15263.0196751-.306365.029543-.460258.029543h-89.9216628c-1.81029124 0-3.3390124-1.3443071-3.57045694-3.1397423l-6.7846648-52.63216178c-.25419327-1.97190893 1.13829041-3.77652132 3.11019934-4.03071458.15263005-.01967512.30636466-.02954304.46025762-.02954304z" fill="#7367f0"/><path d="m4.09385342 0h86.83654438c1.8102913 0 3.3390125 1.34430709 3.570457 3.13974238l6.7846652 52.63216172c.254193 1.9719089-1.138291 3.7765213-3.1101997 4.0307146-.1526301.0196751-.3063647.029543-.4602576.029543h-86.8365445c-1.81029124 0-3.3390124-1.3443071-3.57045694-3.1397423l-6.7846648-52.63216178c-.25419327-1.97190893 1.13829041-3.77652132 3.11019934-4.03071458.15263005-.01967512.30636466-.02954304.46025762-.02954304z" fill="url(#e)"/><ellipse cx="49.319823" cy="30.868131" fill="#fff" rx="6.125113" ry="6.671887" transform="matrix(.79863551 -.60181502 .60181502 .79863551 -8.645644 35.897156)"/></g><g transform="translate(494.4625 333.174757)"><path d="m44.9800682 110.267133c11.9419257-26.9698131 22.7909915-54.6683047 32.722926-82.9783051-22.8773608 21.5259841-40.6674765 47.7509501-38.1341804 82.9783051z" fill="#57e295"/><path d="m38.6151041 113.083462c-2.8264284-45.9868415-1.6287409-88.6957569 22.0608138-113.083462-3.2676097 50.491179-9.3800831 86.0599666-17.1216649 113.083462z" fill="#28c76f"/><path d="m37.5281926 108.294516c-13.2352855-32.1357539-26.5347579-41.3474094-37.5281926-74.3342448 35.9788441 18.6248455 38.2341933 34.0041247 45.2962878 74.3342448z" fill="#57e295"/><path d="m30.4049472 108.294516-23.74317865-32.1357539c11.46696605 3.2631606 30.63370665 8.5472602 30.63370665 32.1357539z" fill="#28c76f"/><path d="m52.6117091 108.294516h7.9207079c5.0334422-10.4920973 12.1265688-17.7150313 29.286725-8.9594198-11.2483478-17.1045374-34.3276359-22.280993-37.2074329 8.9594198z" fill="#57e295"/><path d="m45.3258346 108.294516h6.5866975c12.0885679-17.2583363 17.2860535-24.7783087 29.7960903-39.5165354-16.4799624 6.2428911-33.3962005 14.7382267-36.3827878 39.5165354z" fill="#28c76f"/></g><g transform="translate(508.314423 438.856492)"><use fill="#7367f0" xlink:href="#f"/><path d="m-8.03159856-1.85161384h29.83165176c-14.28185211 33.01569774 13.8899399 52.56769334 0 85.45910044h-29.83165176z" fill="#857af9" mask="url(#g)"/></g></g></svg>