<svg height="22" viewBox="0 0 16 22" width="16" xmlns="http://www.w3.org/2000/svg"><g fill="none" fill-rule="evenodd" transform="translate(0 .568966)"><path d="m16 17.1c0 1.049275-.8955 1.9-2 1.9h-12c-1.1045 0-2-.850725-2-1.9v-15.2c0-1.049275.8955-1.9 2-1.9h12c1.1045 0 2 .850725 2 1.9z" fill="#231f20" fill-rule="nonzero" opacity=".2" transform="translate(0 1.431034)"/><path d="m16 17.5310345c0 1.049275-.8955 1.9-2 1.9h-12c-1.1045 0-2-.850725-2-1.9v-15.20000002c0-1.049275.8955-1.9 2-1.9h12c1.1045 0 2 .850725 2 1.9z" fill="#82868b"/><path d="m0 0v3.48711111c0 .11733333.0815.22355556.2055.26844445.0415.01466666.0845.02222222.1275.02222222.0865 0 .172-.02977778.2355-.08533334l1.4315-1.24755555 1.431 1.24755555c.0635.05555556.149.08533334.2355.08533334.043 0 .0865-.00711111.1275-.02222222.1245-.04488889.206-.15111112.206-.26844445v-3.48711111z" fill="#231f20" fill-rule="nonzero" opacity=".2" transform="translate(9 1.431034)"/><path d="m9 .43103448v3.6922353c0 .12423529.0815.23670588.2055.28423529.0415.01552941.0845.02352941.1275.02352941.0865 0 .172-.03152941.2355-.09035294l1.4315-1.32094117 1.431 1.32094117c.0635.05882353.149.09035294.2355.09035294.043 0 .0865-.00752941.1275-.02352941.1245-.04752941.206-.16.206-.28423529v-3.6922353z" fill="#f96e6f"/><path d="m2 .431034h2v19h-2z" fill="#babfc7"/></g></svg>