<svg height="20" viewBox="0 0 20 20" width="20" xmlns="http://www.w3.org/2000/svg"><g fill="none"><path d="m19.98002 16.6500167c0 1.8315018-1.4985015 3.3300033-3.3300033 3.3300033h-13.32001337c-1.83150183 0-3.33000333-1.4985015-3.33000333-3.3300033v-13.32001337c0-1.83150183 1.4985015-3.33000333 3.33000333-3.33000333h13.32001337c1.8315018 0 3.3300033 1.4985015 3.3300033 3.33000333z" fill="#563d7c"/><path d="m5.42921131 4.34206317h5.66427039c1.0447069 0 1.8837372.23832376 2.513826.71823601.6300889.47991224.9467657 1.20141296.9467657 2.17103158 0 .58764765-.1436472 1.09041286-.4309416 1.50829563s-.6986478.74435368-1.2340601.97288332v.03264709c.718236.15344133 1.2634425.4929711 1.6323546 1.0185893.3689121.5288828.5550005 1.1883541.5550005 1.9849431 0 .4570593-.0816177.8847362-.2448531 1.279766-.1632355.3982945-.4178828.741089-.7672067 1.0283834s-.7933243.515824-1.3385307.6855889c-.5452065.1697649-1.1916189.2546473-1.942502.2546473h-5.35412299zm2.04044322 4.88074017h3.33000337c.4897063 0 .897795-.13711778 1.2242659-.41788277s.4897064-.6790595.4897064-1.20141297c0-.58764764-.146912-1.0022657-.4407358-1.24058947s-.718236-.35911801-1.2732365-.35911801h-3.33000337zm0 5.10926986h3.60750357c.6202948 0 1.1034717-.1599708 1.4430015-.483177.3427944-.3199415.515824-.7770008.515824-1.3646484 0-.5778535-.1697649-1.0185893-.515824-1.3320014-.3460592-.313412-.8227067-.4635887-1.4430015-.4635887h-3.60750357z" fill="#fff"/></g></svg>