<svg height="25" viewBox="0 0 16 25" width="16" xmlns="http://www.w3.org/2000/svg"><g fill="none"><path d="m16 13.4230769c0 .595-.4773333 1.0769231-1.0666667 1.0769231h-13.86666663c-.58933334 0-1.06666667-.4819231-1.06666667-1.0769231v-11.84615382c0-.595.47733333-1.07692308 1.06666667-1.07692308h13.86666663c.5893334 0 1.0666667.48192308 1.0666667 1.07692308z" fill="#4f5d73"/><path d="m0 13.5v1 1c0 .5525.47733333 1 1.06666667 1h3.73333333s1.6 0 1.6 1.5c0 2.09-.4 3.1285-.53173333 3.414-.01066667.022-.02186667.0435-.032.066-.0064.012-.01066667.02-.01066667.02h.00373333c-.10613333.2505-.16853333.5215-.16853333.8075.00053333 1.211 1.04746667 2.1925 2.3392 2.1925s2.3386667-.9815 2.3386667-2.1925c0-.286-.0624-.557-.1685334-.8075h.0037334s-.0042667-.008-.0106667-.0205c-.0096-.022-.0208-.043-.0314667-.065-.1312-.2845-.5317333-1.3235-.5317333-3.4145 0 0 .00533333-1.5 1.6-1.5h3.7333333c.5893334 0 1.0666667-.4475 1.0666667-1v-1c0-.5525 0-1 0-1z" fill="#231f20" opacity=".2"/><path d="m0 12.5v1 1c0 .5525.47733333 1 1.06666667 1h3.73333333s1.6 0 1.6 1.5c0 2.09-.4 3.1285-.53173333 3.414-.01066667.022-.02186667.0435-.032.066-.0064.012-.01066667.02-.01066667.02h.00373333c-.10613333.2505-.16853333.5215-.16853333.8075.00053333 1.211 1.04746667 2.1925 2.3392 2.1925s2.3386667-.9815 2.3386667-2.1925c0-.286-.0624-.557-.1685334-.8075h.0037334s-.0042667-.008-.0106667-.0205c-.0096-.022-.0208-.043-.0314667-.065-.1312-.2845-.5317333-1.3235-.5317333-3.4145 0 0 .00533333-1.5 1.6-1.5h3.7333333c.5893334 0 1.0666667-.4475 1.0666667-1v-1c0-.5525 0-1 0-1z" fill="#ffaf63"/><path d="m0 10.5h16v3h-16z" fill="#231f20" opacity=".2"/><path d="m0 9.5h16v3h-16z" fill="#fff"/><path d="m14.9333333 2.5h-13.86666663c-.58933334 0-1.06666667.4475-1.06666667 1v2 2 1h7.2c.4416 0 .8.336.8.75s.3584.75.8.75.8-.336.8-.75.3584-.75.8-.75.8.336.8.75v1.5c0 .414.3584.75.8.75s.8-.336.8-.75v-1.5c0-.414.3584-.75.8-.75s.8.336.8.75v.5c0 .414.3584.75.8.75s.8-.336.8-.75v-2.25-.75-1.25-2c0-.5525-.4773333-1-1.0666667-1z" fill="#838e9e" opacity=".2"/><g fill="#f96e6f"><path d="m16 9.5c0 .552-.448 1-1 1-.552 0-1-.448-1-1v-4c0-.552.448-1 1-1 .552 0 1 .448 1 1z"/><path d="m12 9.5c0 .552-.448 1-1 1-.552 0-1-.448-1-1v-4c0-.552.448-1 1-1 .552 0 1 .448 1 1z"/><path d="m9 9.5c0 .552-.448 1-1 1-.552 0-1-.448-1-1v-4c0-.552.448-1 1-1 .552 0 1 .448 1 1z"/><g transform="translate(0 .5)"><path d="m16 1c0-.5525-.4773333-1-1.0666667-1h-13.86666663c-.58933334 0-1.06666667.4475-1.06666667 1v2h16z"/><path d="m0 1v4 1h14.9333333c.5893334 0 1.0666667-.4475 1.0666667-1v-2z"/></g></g></g></svg>