<svg height="27" viewBox="0 0 18 27" width="18" xmlns="http://www.w3.org/2000/svg"><g fill="none"><path d="m4.5 27c2.484 0 4.5-2.016 4.5-4.5v-4.5h-4.5c-2.484 0-4.5 2.016-4.5 4.5s2.016 4.5 4.5 4.5z" fill="#0acf83"/><path d="m0 13.5c0-2.484 2.016-4.5 4.5-4.5h4.5v9h-4.5c-2.484 0-4.5-2.016-4.5-4.5z" fill="#a259ff"/><path d="m0 4.5c0-2.484 2.016-4.5 4.5-4.5h4.5v9h-4.5c-2.484 0-4.5-2.016-4.5-4.5z" fill="#f24e1e"/><path d="m9 0h4.5c2.484 0 4.5 2.016 4.5 4.5s-2.016 4.5-4.5 4.5h-4.5z" fill="#ff7262"/><path d="m18 13.5c0 2.484-2.016 4.5-4.5 4.5s-4.5-2.016-4.5-4.5 2.016-4.5 4.5-4.5 4.5 2.016 4.5 4.5z" fill="#1abcfe"/></g></svg>