<svg height="512" viewBox="0 0 512 512" width="512" xmlns="http://www.w3.org/2000/svg" xmlns:xlink="http://www.w3.org/1999/xlink"><linearGradient id="a" x1="12.125795%" x2="92.423033%" y1="100%" y2="0%"><stop offset="0" stop-color="#b02488"/><stop offset="1" stop-color="#ed1e79"/></linearGradient><g fill="none" transform="translate(106 173)"><path d="m216.748647 0c22.992387-.00708831 43.808775 9.30889418 58.875291 24.3743404 15.060777 15.0597084 24.376062 35.8645018 24.376062 58.8448421 0 22.9803405-9.315285 43.7851335-24.376062 58.8448425-13.604891 13.603924-31.898508 22.517304-52.247375 24.115964l-.868757.064517-39.865787.19385c-4.128923.003415-7.867292-1.668665-10.572576-4.373757-2.702523-2.702331-4.374068-6.435567-4.374068-10.559185s1.671545-7.856853 4.374068-10.559184c1.917485-1.91735 4.355114-3.312587 7.080529-3.964356l37.599589-.409407c14.744202.006855 28.093238-5.966227 37.754508-15.626811 9.655732-9.655047 15.627927-22.9933693 15.627927-37.7264735s-5.972195-28.0714267-15.627927-37.7264732c-8.521162-8.5205568-19.910642-14.1752602-32.597782-15.3837999l-39.290505-.243023c-4.118521-.0036688-7.846787-1.6743901-10.546339-4.3737513-2.702523-2.702331-4.374068-6.4355664-4.374068-10.5591845 0-4.123618 1.671545-7.85685345 4.374068-10.5591844 1.917485-1.91734887 4.355111-3.31258548 7.080525-3.96435482z" fill="url(#a)"/><path d="m117.357981.00000879c4.128923-.00341441 7.867292 1.66866541 10.572576 4.37375741 2.702523 2.70233095 4.374068 6.4355664 4.374068 10.5591844 0 4.1236181-1.671545 7.8568535-4.374068 10.5591845-1.816565 1.8164366-4.099962 3.1642735-6.652626 3.8552987l-.427903.109057-37.5995891.4094076c-14.7442023-.0068555-28.0932375 5.9662263-37.754508 15.6268109-9.6557321 9.6550465-15.6279265 22.993369-15.6279265 37.7264732s5.9721944 28.0714265 15.6279265 37.7264735c8.3742452 8.37365 19.5187543 13.979418 31.9427164 15.317332l.6550661.066468 39.2905046.243023c4.118521.003668 7.846787 1.67439 10.546339 4.373751 2.702523 2.702331 4.374068 6.435566 4.374068 10.559184s-1.671545 7.856854-4.374068 10.559185c-1.816565 1.816436-4.099962 3.164273-6.652626 3.855298l-.427903.109058-37.5986751.409401c-22.9923865.007097-43.8087745-9.308885-58.8752905-24.374331-15.0607777-15.059709-24.3760624-35.864502-24.3760624-58.8448425 0-22.9803403 9.3152847-43.7851337 24.3760624-58.8448421 13.4409756-13.4400213 31.458377-22.30184257 51.5127717-24.05500102l.7346016-.06096373.8687568-.0645163zm79.520062 70.32488041c3.773791 0 7.190317 1.5295221 9.663395 4.0024248s4.002709 5.889186 4.002709 9.6627083-1.529631 7.1898055-4.002709 9.6627082c-2.3878 2.3876302-5.655104 3.8958188-9.274301 3.9969928l-.389094.005432h-89.095107c-3.773791 0-7.190317-1.5295221-9.6633948-4.0024248-2.4730783-2.4729027-4.002709-5.8891859-4.002709-9.6627082s1.5296307-7.1898056 4.002709-9.6627083c2.3877998-2.3876302 5.6551038-3.8958188 9.2743008-3.9969927l.389094-.0054321z" fill="#4a4a4a"/></g></svg>