<svg height="512" viewBox="0 0 512 512" width="512" xmlns="http://www.w3.org/2000/svg" xmlns:xlink="http://www.w3.org/1999/xlink"><linearGradient id="a" x1="50%" x2="50%" y1="0%" y2="100%"><stop offset="0" stop-color="#a4267c"/><stop offset="1" stop-color="#fc4ba5"/></linearGradient><g fill="none" transform="translate(137 114)"><path d="m119 21c65.721885 0 119 53.2781148 119 119 0 60.595647-45.290976 110.61302-103.86778 118.046971 1.742658-1.129374 3.233606-2.27395 4.454075-3.366251-7.453415-7.344512-12.719505-20.472795-7.515957-50.469784.005837-.037638.013342-.074441.01918-.110406.08339-.450825.31855-1.550703 1.483511-6.965618 1.712834-7.964291 4.898339-22.781285 8.358198-39.293681 2.363278-11.986584.851414-21.980841-4.369646-28.902129-4.48389-5.945199-11.722992-9.476519-20.935939-10.21256-6.320142-.503518-13.892804 1.11828-20.7733284 4.451371-3.4982182 1.694566-6.3393217 3.589033-8.4224085 5.357203 7.2582815 7.537722 12.1816379 20.799831 6.1958906 50.649612-.0075051.035129-.0150102.068586-.0208476.103715-.1774209.856349-2.5409022 12.87367-4.8531922 24.707077l-.2565967 1.31349c-1.8784979 9.618254-3.6679951 18.835437-4.158196 21.514256-1.977517 11.635674-.3893154 21.317934 4.5922821 28.076155-50.6546004-13.661176-87.9292453-59.927319-87.9292453-114.899421 0-65.7218852 53.2781148-119 119-119zm4.269944.2722035c-14.8151 0-28.9388954 9.6254002-30.2256059 20.5974196-.4561443 3.9704358.7079826 7.5678329 3.465696 10.6709121 4.1870209 4.7131674 11.5753909 7.5260124 19.7626399 7.5260124 15.272912 0 29.259947-9.4221527 30.541654-20.575673.558714-4.7583335-1.586081-8.3022004-3.482374-10.4408994-4.318778-4.869576-11.818057-7.7777717-20.06201-7.7777717z" fill="url(#a)" opacity=".3"/><g fill="#4a4a4a"><path d="m158.238879 14.6915364c-8.27288-9.3365991-21.174068-14.6915364-35.396079-14.6915364-25.3993692 0-48.1028556 17.4037556-50.6126714 38.8201553-1.125579 9.7954741 1.9032213 19.2987084 8.5282005 26.7579393 8.1402136 9.1657769 20.9262569 14.4219054 35.0840209 14.4219054 26.057695 0 48.427429-17.0529004 50.927232-38.7975465 1.126414-9.6162784-1.902387-19.0307522-8.530703-26.5109171zm-11.839022 24.1277816c-1.282442 11.1662375-15.277502 20.5991333-30.559176 20.5991333-8.191945 0-15.584554-2.8160523-19.7739776-7.5345936-2.7592954-3.1066172-3.9240903-6.7081161-3.4676843-10.683079 1.2874488-10.9845297 15.4193469-20.6209047 30.2429469-20.6209047 8.248683 0 15.752264 2.9115116 20.073519 7.7866398 1.897381 2.1411376 4.043407 5.6890452 3.484372 10.4528042z"/><path d="m154.812919 240.931811c-2.548175-1.716616-8.512165-5.73288-3.69784-33.618516.123594-.60802.607183-2.856029 1.357866-6.349229 1.709566-7.960067 4.891467-22.774935 8.349586-39.295592.008295-.036647.01659-.074961.023226-.111609 3.530284-17.854969.735752-33.474423-8.076686-45.170898-7.955582-10.559561-20.551297-17.0328927-35.463761-18.2256117-22.0526632-1.7715874-45.1222735 11.4432717-52.1894776 24.4515707-3.2673377 5.763698-1.7029308 10.44462-.471147 12.734274 1.5262507 2.831875 3.7525859 4.41939 5.3792041 5.57796 2.5058713 1.785747 8.3719825 5.966094 2.8011676 33.793426-.520916 2.545355-8.294011 42.22908-9.3217417 47.862845-.0074654.03748-.0132718.075794-.0207371.113275-3.0624551 17.940758-.0340089 33.620181 9.2504061 44.942682 14.9506204 18.232275 37.7066856 17.356893 38.5975516 17.356893 21.209078-.000833 42.40986-13.228186 48.864905-25.885833 3.116372-5.847821 1.432519-10.485432.138524-12.74177-1.596757-2.790229-3.865396-4.318608-5.521046-5.433867zm-13.956898-83.412866c-3.44153 16.443197-6.610159 31.198096-8.313919 39.129011-1.158789 5.392222-1.392704 6.487491-1.475652 6.936427-.005806.035815-.013272.072462-.019078.109943-5.175981 29.871279.062211 42.944545 7.47614 50.258278-2.0256 1.814898-4.800225 3.774722-8.235118 5.553805-6.755318 3.499864-14.238094 5.309765-20.539684 4.975771-9.1799-.492247-16.4718942-3.818034-21.0838255-9.619212-5.3709092-6.753188-7.1335628-16.660584-5.098009-28.651075 1.1081907-6.06271 8.892069-45.75643 9.2188857-47.335616.0058064-.034982.0132718-.068298.0207371-.10328 5.9540365-29.724688 1.0567627-42.931219-6.1630664-50.437352 2.0720511-1.76076 4.8981033-3.647288 8.3777888-5.334752 6.8440733-3.319124 14.3766173-4.934125 20.6632773-4.432717 9.16414.732956 16.364891 4.249478 20.825026 10.169762 5.1934 6.892283 6.697255 16.844656 4.346497 28.781007z"/></g></g></svg>