<svg height="512" viewBox="0 0 512 512" width="512" xmlns="http://www.w3.org/2000/svg" xmlns:xlink="http://www.w3.org/1999/xlink"><linearGradient id="a" x1="50%" x2="50%" y1="0%" y2="100%"><stop offset="0" stop-color="#a4267c"/><stop offset="1" stop-color="#fc4ba5"/></linearGradient><g fill="none"><path d="m512 386.415094c0 69.358629-57.307552 125.584906-128 125.584906-78.769231 0-135.68-68.975094-128-135.245283h88.615385c5.43788 0 9.846153-4.325098 9.846153-9.660377v-102.883019c38.088626-8.863067 78.216926-.138867 108.924127 23.680941 30.707201 23.819807 48.617013 60.116209 48.614335 98.522832z" fill="url(#a)" opacity=".3"/><path d="m98.4615385 425.056604c0-21.341117-17.633093-38.64151-39.3846154-38.64151-21.7515225 0-39.3846154 17.300393-39.3846154 38.64151 0 5.335279-4.4082732 9.660377-9.84615385 9.660377-5.43788062 0-9.84615385-4.325098-9.84615385-9.660377v-367.0943398c0-32.0116746 26.4496394-57.9622642 59.0769231-57.9622642s59.0769229 25.9505896 59.0769229 57.9622642v367.0943398c0 5.335279-4.408273 9.660377-9.846154 9.660377-5.43788 0-9.8461535-4.325098-9.8461535-9.660377zm-39.3846154-405.7358493c-21.7515225 0-39.3846154 17.3003931-39.3846154 38.6415095v323.8158488c22.4256516-19.679657 56.3435791-19.679657 78.7692308 0v-323.8158488c0-21.3411164-17.633093-38.6415095-39.3846154-38.6415095z" fill="#4a4a4a"/><path d="m482.461538 483.018868h-423.3846149c-26.3065292-.037928-49.41803941-17.137352-56.68884354-41.942155-7.27080414-24.804804 3.05109702-51.337933 25.31797514-65.081527 22.2668781-13.743595 51.1132257-11.38595 70.7554838 5.782927v-323.8158488c0-5.3352791 4.4082735-9.6603774 9.8461535-9.6603774h374.153846c5.437881 0 9.846154 4.3250983 9.846154 9.6603774v415.3962268c0 5.335279-4.408273 9.660377-9.846154 9.660377zm-423.3846149-96.603774c-21.7515225 0-39.3846154 17.300393-39.3846154 38.64151 0 21.341116 17.6330929 38.641509 39.3846154 38.641509h413.5384619v-396.0754715h-354.461539v357.4339625c0 5.335279-4.408273 9.660377-9.846154 9.660377-5.43788 0-9.8461535-4.325098-9.8461535-9.660377 0-21.341117-17.633093-38.64151-39.3846154-38.64151z" fill="#4a4a4a"/><path d="m344.615385 241.509434h-157.538462c-5.437881 0-9.846154 4.325098-9.846154 9.660377v115.924529c0 5.335279 4.408273 9.660377 9.846154 9.660377h157.538462c5.43788 0 9.846153-4.325098 9.846153-9.660377v-115.924529c0-5.335279-4.408273-9.660377-9.846153-9.660377zm-9.846154 115.924528h-137.846154v-96.603773h137.846154z" fill="#bc4095"/><path d="m364.307692 260.830189c-211.495384 0-202.633846 2.608302-206.08-6.182642-3.446154-8.790943-2.953846-5.796226 101.021539-97.569811 3.747634-3.318519 9.446212-3.318519 13.193846 0l98.461538 86.943396c3.006864 2.68143 4.026053 6.899691 2.565949 10.620057s-5.099575 6.178622-9.162872 6.189zm-171.224615-19.320755h145.526154l-72.763077-64.241509z" fill="#bc4095"/><g fill="#4a4a4a" transform="translate(137.846154 96.603774)"><path d="m226.461538 328.45283h-196.9230765c-5.4378806 0-9.8461538-4.325098-9.8461538-9.660377s4.4082732-9.660378 9.8461538-9.660378h196.9230765c5.437881 0 9.846154 4.325099 9.846154 9.660378s-4.408273 9.660377-9.846154 9.660377z"/><path d="m19.6923077 328.45283v-19.320755c0-5.335279 4.4082732-9.660377 9.8461538-9.660377 5.4378807 0 9.8461539 4.325098 9.8461539 9.660377v19.320755c0 5.335279-4.4082732 9.660378-9.8461539 9.660378-5.4378806 0-9.8461538-4.325099-9.8461538-9.660378z"/><path d="m216.615385 328.45283v-19.320755c0-5.335279 4.408273-9.660377 9.846153-9.660377 5.437881 0 9.846154 4.325098 9.846154 9.660377v19.320755c0 5.335279-4.408273 9.660378-9.846154 9.660378-5.43788 0-9.846153-4.325099-9.846153-9.660378z"/><path d="m226.461538 328.45283h-196.9230765c-5.4378806 0-9.8461538-4.325098-9.8461538-9.660377s4.4082732-9.660378 9.8461538-9.660378h196.9230765c5.437881 0 9.846154 4.325099 9.846154 9.660378s-4.408273 9.660377-9.846154 9.660377z"/><path d="m19.6923077 328.45283v-19.320755c0-5.335279 4.4082732-9.660377 9.8461538-9.660377 5.4378807 0 9.8461539 4.325098 9.8461539 9.660377v19.320755c0 5.335279-4.4082732 9.660378-9.8461539 9.660378-5.4378806 0-9.8461538-4.325099-9.8461538-9.660378z"/><path d="m216.615385 328.45283v-19.320755c0-5.335279 4.408273-9.660377 9.846153-9.660377 5.437881 0 9.846154 4.325098 9.846154 9.660377v19.320755c0 5.335279-4.408273 9.660378-9.846154 9.660378-5.43788 0-9.846153-4.325099-9.846153-9.660378z"/><path d="m265.846154 270.490566v-202.8679245c0-5.3352791 4.408273-9.6603773 9.846154-9.6603773 5.43788 0 9.846154 4.3250982 9.846154 9.6603773v202.8679245c0 5.335279-4.408274 9.660377-9.846154 9.660377-5.437881 0-9.846154-4.325098-9.846154-9.660377z"/><path d="m285.538462 280.150943h-19.692308c-5.437881 0-9.846154-4.325098-9.846154-9.660377s4.408273-9.660377 9.846154-9.660377h19.692308c5.43788 0 9.846153 4.325098 9.846153 9.660377s-4.408273 9.660377-9.846153 9.660377z"/><path d="m285.538462 77.2830189h-19.692308c-5.437881 0-9.846154-4.3250983-9.846154-9.6603774s4.408273-9.6603773 9.846154-9.6603773h19.692308c5.43788 0 9.846153 4.3250982 9.846153 9.6603773s-4.408273 9.6603774-9.846153 9.6603774z"/><path d="m265.846154 270.490566v-202.8679245c0-5.3352791 4.408273-9.6603773 9.846154-9.6603773 5.43788 0 9.846154 4.3250982 9.846154 9.6603773v202.8679245c0 5.335279-4.408274 9.660377-9.846154 9.660377-5.437881 0-9.846154-4.325098-9.846154-9.660377z"/><path d="m285.538462 280.150943h-19.692308c-5.437881 0-9.846154-4.325098-9.846154-9.660377s4.408273-9.660377 9.846154-9.660377h19.692308c5.43788 0 9.846153 4.325098 9.846153 9.660377s-4.408273 9.660377-9.846153 9.660377z"/><path d="m285.538462 77.2830189h-19.692308c-5.437881 0-9.846154-4.3250983-9.846154-9.6603774s4.408273-9.6603773 9.846154-9.6603773h19.692308c5.43788 0 9.846153 4.3250982 9.846153 9.6603773s-4.408273 9.6603774-9.846153 9.6603774z"/><path d="m68.9230769 19.3207547h-59.07692305c-5.43788062 0-9.84615385-4.3250982-9.84615385-9.66037734 0-5.33527909 4.40827323-9.66037736 9.84615385-9.66037736h59.07692305c5.4378806 0 9.8461539 4.32509827 9.8461539 9.66037736 0 5.33527914-4.4082733 9.66037734-9.8461539 9.66037734z"/><path d="m68.9230769 67.6226415h-59.07692305c-5.43788062 0-9.84615385-4.3250983-9.84615385-9.6603773 0-5.3352791 4.40827323-9.6603774 9.84615385-9.6603774h59.07692305c5.4378806 0 9.8461539 4.3250983 9.8461539 9.6603774 0 5.335279-4.4082733 9.6603773-9.8461539 9.6603773z"/></g></g></svg>