<svg height="22" viewBox="0 0 22 22" width="22" xmlns="http://www.w3.org/2000/svg"><g fill="none" fill-rule="evenodd" transform="translate(0 .068966)"><path d="m10 20c-.16041667 0-.31291667-.0620385-.42958333-.1746426l-9.57041667-9.6469858 1.66666667-.84984234 8.33333333 9.15662674 9.4029167-8.78014656c.0733333.0943325-.07375-.84984238 0-.6858228.105.23455649.46625.96924523.5970833 1.15918496l-9.5708333 9.6474107c-.11625.1121792-.26875.1742177-.4291667.1742177z" fill="#231f20" fill-rule="nonzero" opacity=".2"/><path d="m10 20c-.16041667 0-.31291667-.0662869-.42958333-.1866023l-9.57041667-9.5748308 1.7875-.0118045 8.2125 8.1546558 9.4029167-9.3814182c.0733333.10079247.1791666.35277365.2529166.52802543.1054167.25061911.2133334.50759447.3441667.71054147l-9.5708333 9.5752848c-.11625.1198614-.26875.1861483-.4291667.1861483z" fill="#838e9e"/><path d="m13.1515152 1.22222222c-.0288485-.20696296-.2969697-.34181481-.4242425-.4074074-.0937575-.04848149-.530303.81481481-.6355151.81481481-.2354546 0-.2634546.22-.3746061.41840741l-4.50503029 7.62992592-4.5050303-7.62992592c-.11115152-.19840741.07381818-1.23322222-.16163636-1.23322222-.10563637 0-.33048485-.45588889-.42424243-.40740741-.12684848.06559259-.39539394-.20696297-.42424242 0-.02927273.20777778-1.36139394-.1592963-1.27272728 0l5.91818182 10.31392589c.59351515-.1161111 1.20654546-.1246666 1.82084849-.1368889l5.41248487-9.36222218c.0886666-.15929629-.3949697.20777778-.4242424 0z" fill="#231f20" fill-rule="nonzero" opacity=".2" transform="translate(3 8)"/><path d="m10.5 20c-.2332098 0-.4462137-.1364418-.55650429-.3561896l-4.91592818-9.3253234c-.08797987-.1760685.06019676-.5345096.08924275-.76416409.02862503-.22875389.11744682-.40121991.24373372-.47371869.09303135-.05358604.19321896-.08060422.29803709-.08060422.23363077 0 .26141389.24316358.37170445.46246111l4.46971446 8.43372359 4.4701354-8.43327329c.1102906-.21974783.1384946-.46246111.3717045-.46246111.1048181 0 .2045847.02701818.2976161.08060423.1262869.07249877.2151087.24496479.2437337.47371868.029046.22920419.1772226.58764529.0892428.76371379l-4.9159282 9.3253234c-.1102906.2197478-.3232945.3561896-.5565043.3561896z" fill="#838e9e"/><g fill="#231f20" fill-rule="nonzero" opacity=".2"><path d="m5.484375 10h3.72178125l.91884375-.83333333c-.428625-5.13291667-4.81739062-9.16666667-10.125-9.16666667 3.0290625 0 5.484375 4.47708333 5.484375 10z" transform="translate(10.125 1)"/><path d="m10.125 0c-5.24221875 0-9.60651562 4.12416667-10.125 9.16666667l.91884375.83333333h3.72178125c0-5.52291667 2.4553125-10 5.484375-10z" transform="translate(0 1)"/><path d="m0 10h10.96875c0-5.52291667-2.4553125-10-5.484375-10s-5.484375 4.47708333-5.484375 10z" transform="translate(4.640625 1)"/></g><path d="m15.4166667 10h4.5833333c0-5.52291667-4.4770833-10-10-10 2.9916667 0 5.4166667 4.47708333 5.4166667 10z" fill="#f96e6f"/><path d="m10 0c-5.52291667 0-10 4.47708333-10 10h4.58333333c0-5.52291667 2.425-10 5.41666667-10z" fill="#f96e6f"/><path d="m4.58333333 10h10.83333337c0-5.52291667-2.425-10-5.4166667-10-2.99166667 0-5.41666667 4.47708333-5.41666667 10z" fill="#fff" fill-rule="nonzero"/><circle cx="10" cy="19" fill="#717171" r="2"/></g></svg>