<svg height="18" viewBox="0 0 20 18" width="20" xmlns="http://www.w3.org/2000/svg"><g fill="#00d8ff"><circle cx="10" cy="8.866785" r="1.783304"/><path d="m10 12.9520426c-2.5044405 0-4.69271758-.294849-6.330373-.8561279-1.06216696-.3623445-1.96447602-.8454707-2.60746004-1.3960923-.68206039-.5825933-1.04440497-1.21847249-1.04440497-1.83303732 0-1.17939609 1.29307282-2.3339254 3.46358792-3.08703375 1.77619894-.61811723 4.09236235-.96269982 6.51509769-.96269982 2.3801066 0 4.6642984.3339254 6.4298401.94493783 1.0337478.35523979 1.9040853.81705151 2.5222025 1.32859681.6714032.56127886 1.026643 1.17584369 1.026643 1.77619893 0 1.22557722-1.4458259 2.46536412-3.7761989 3.23623442-1.6483126.5470693-3.8507993.8490231-6.1989343.8490231zm0-7.2824156c-2.29840142 0-4.57193606.3339254-6.23445826.91296625-1.9964476.69626998-2.89165186 1.64831261-2.89165186 2.28419183 0 .660746.96269982 1.70159862 3.07282415 2.42273532 1.54884547.5293073 3.64476022.8099467 6.05328597.8099467 2.259325 0 4.365897-.2841918 5.9325044-.8063943 2.1918295-.7282415 3.1936057-1.76909411 3.1936057-2.42628772 0-.3374778-.2557726-.73534636-.7211367-1.12255773-.5364121-.44760213-1.3179397-.85612788-2.2522203-1.17939609-1.6802842-.57548845-3.8650089-.89520426-6.1527531-.89520426z"/><path d="m5.95381883 17.7548845c-.36234458 0-.68206039-.0781527-.95204263-.2344582-1.01953819-.5896981-1.37477798-2.2877442-.94493783-4.5435169.35168738-1.8507993 1.21136767-4.02486677 2.42273534-6.12433391 1.19005329-2.06039077 2.61811723-3.87211368 4.02841919-5.09769094.8241563-.71758437 1.6589698-1.24333926 2.4120781-1.52042629.820604-.30195382 1.5310835-.30195382 2.0497336-.0035524 1.062167.61101244 1.4138544 2.48667851.9165187 4.88809947-.3516874 1.70515098-1.1900533 3.76198934-2.3623446 5.79751337-1.2504441 2.1669626-2.6003553 3.9147424-3.90408527 5.0550621-.84547069.7388988-1.71580817 1.2788632-2.5115453 1.5595027-.41563055.1492007-.80639431.223801-1.1545293.223801zm.89165186-10.68916514.36944938.21314387c-1.14742451 1.98934281-1.9964476 4.12433397-2.3232682 5.85790407-.39431617 2.0781528-.0142096 3.3285968.53285968 3.6447602.13499111.0781528.31261101.1207816.52930728.1207816.70692717 0 1.81882771-.4476022 3.10479573-1.5701599 1.23268204-1.0763766 2.52220254-2.7531083 3.72646534-4.8383659 1.1296626-1.95737122 1.9325045-3.92539964 2.2664299-5.54174067.4653641-2.26287744.0639431-3.64831261-.5079929-3.97868561-.2912967-.1669627-.7637656-.14564832-1.3321492.06394316-.6571936.24156305-1.3996448.71403197-2.1456483 1.36412078-1.33925404 1.1651865-2.70692722 2.89875666-3.85079933 4.88099467z"/><path d="m14.0461812 17.7655417c-.9662522 0-2.1918295-.5825932-3.4706927-1.6838365-1.42806399-1.2291297-2.88099472-3.0586146-4.09591479-5.1580818-1.19360568-2.06039072-2.04618117-4.20248663-2.40497335-6.03907633-.20959148-1.07282416-.24866786-2.05683837-.11367674-2.84902309.14920071-.86323268.5008881-1.47779751 1.02309059-1.77975133 1.05861456-.61456484 2.85968028.01776199 4.69271758 1.64831261 1.30017761 1.1545293 2.66429841 2.90941385 3.84014211 4.94138543 1.2539964 2.1669627 2.0959147 4.20959151 2.4298401 5.90763761.2166963 1.1012434.2522203 2.124334.0994672 2.9555951-.1634103.884547-.5328597 1.5133215-1.0657194 1.8223801-.2664298.1563055-.5825932.2344582-.9342806.2344582zm-6.82770873-7.268206c1.15097691 1.9893428 2.57904085 3.7904085 3.91474243 4.937833 1.6021315 1.3783304 2.8738899 1.6767318 3.4245116 1.357016.571936-.330373.991119-1.6838366.5577264-3.8721137-.3197158-1.6056838-1.1261101-3.55950262-2.3339254-5.64476017-1.1332149-1.95737122-2.4369449-3.63765541-3.66962697-4.73179396-1.72646536-1.53463588-3.12611012-1.87921847-3.69804618-1.54884547-.29129662.1669627-.50799289.58969805-.61101243 1.18650089-.11722913.68916519-.08170515 1.57015986.11012433 2.53996448.3410302 1.74422735 1.15808171 3.79396092 2.30550622 5.77619893z"/></g></svg>