<svg height="23" viewBox="0 0 22 23" width="22" xmlns="http://www.w3.org/2000/svg"><g fill="none" fill-rule="evenodd" transform="translate(0 .068966)"><path d="m3.75670588 3.50009524c-.8237647.81504762-3.22252941 6.56857146-3.22252941 6.56857146-.35205882.6327619.17470588 1.0921428 1.37276471.4902857l4.30464706-2.32309526c2.31935294-1.27547619 2.7677647-1.60861904 2.73705882-4.20514285l-.43147059-3.06585715c-.14770588-1.05023809-.94235294-1.243-1.76611765-.42795238z" fill="#231f20" fill-rule="nonzero" opacity=".2" transform="translate(7.5 10.5)"/><path d="m7.37104762 5.64247059c-.81504762.8237647-6.56857143 3.22252941-6.56857143 3.22252941-.6327619.35205882-1.09214286-.17470588-.49028571-1.37276471l2.32309523-4.30464705c1.27547619-2.31935295 1.60861905-2.76776471 4.20514286-2.73705883l3.06585714.43147059c1.05023809.14770588 1.24299999.94235294.42795239 1.76611765z" fill="#231f20" fill-rule="nonzero" opacity=".2" transform="translate(.5 5.5)"/><path d="m10.6255433 13.0296235c-.77317848.8295362-3.02463854 6.6853369-3.02463854 6.6853369-.3304394.6440102.16397745 1.1115572 1.28846522.4990012l4.04030492-2.3643914c2.1769249-1.2981496 2.5978003-1.6372145 2.5689801-4.2798952l-.4049747-3.120357c-.1386354-1.06890756-.8844844-1.26509608-1.6576629-.4355599z" fill="#f96e6f"/><path d="m7.97037653 10.9837638c-.82953623.8698258-6.68533695 3.4027183-6.68533695 3.4027183-.64401013.3717444-1.11155722-.1844746-.49900123-1.4495233l2.3643915-4.54534309c1.29814956-2.44904046 1.63721449-2.92252534 4.27989514-2.89010253l3.12035701.45559643c1.0689076.15596492 1.2650961.99504497.4355599 1.8648708z" fill="#f96e6f"/><path d="m4.1235 2.39210526c2.537-2.67052631 4.6685-1.85578947 4.6685-1.85578947s.7745 2.24368421-1.763 4.91421053c-2.5375 2.67052631-6.6455 4.61052628-6.9655 4.27368421-.31-.32684211 1.5225-4.66157895 4.06-7.33210527z" fill="#231f20" fill-rule="nonzero" opacity=".2" transform="translate(1.5 11.5)"/><path d="m5.65234466 12.6115316c2.57302614-2.85834299 4.73479404-1.9863061 4.73479404-1.9863061s.7854981 2.4014813-1.7880351 5.2598243c-2.57353323 2.858343-6.73986803 4.9347822-7.06441212 4.5742502-.31440209-.3498288 1.54411994-4.9894254 4.11765318-7.8477684z" fill="#ffaf63"/><path d="m7.65234048 10.6115316c2.57302832-2.85834299 4.73479812-1.98630614 4.73479812-1.98630614s.7854988 2.40148134-1.7880366 5.25982434c-2.57353549 2.858343-6.73987387 4.9347822-7.06441824 4.5742502-.31440237-.3492654 1.54462837-4.9894254 4.11765672-7.8477684z" fill="#f5cf87" fill-rule="nonzero"/><path d="m10.6727586 12.1809655c-4.03965515 4.3089655-10.23258619 3.1299311-10.23258619 3.1299311s-1.10534482-6.60524143 2.93431035-10.91475867c4.03965517-4.30951724 10.16017244-4.76744828 10.96396554-3.91006896.7794827.83144827.3744827 7.38593103-3.6656897 11.69489653z" fill="#231f20" fill-rule="nonzero" opacity=".2" transform="translate(6.5 .5)"/><path d="m16.6099785 12.2930753c-3.938036 4.2162759-9.97518133 3.0626035-9.97518133 3.0626035s-1.07753943-6.46315692 2.86049658-10.67997272c3.93803605-4.2168158 9.90458915-4.66489635 10.68816255-3.82596.7598745.8135631.3650625 7.22705327-3.5734778 11.44332922z" fill="#fff"/><path d="m1.60041176 8.88555556c-.41347058.43388888-.70941176.82666666-1.12288235.39277777-.41347059-.43388889-.03917647-.74444444.37429412-1.17833333l5.24064706-7.07111111c.41347059-.43388889 2.20711765-.82666667 2.62058823-.39277778.41347059.43388889.03917647 2.31611111-.37429411 2.75z" fill="#231f20" fill-rule="nonzero" opacity=".2" transform="translate(3.5 9.5)"/><path d="m5.71243781 16.9198707c-.38484817.4329542-.66030287.8248859-1.04515104.3919317-.38484816-.4329542-.03646448-.7428407.34838368-1.1757949l4.87786426-7.05587824c.38484819-.43295419 2.05433039-.82488583 2.43917849-.39193164.3848482.43295419.0364645 2.31112168-.3483837 2.74407578z" fill="#f96e6f"/><g fill-rule="nonzero"><circle cx="3.555867" cy="3.075188" fill="#231f20" opacity=".2" r="2.078354" transform="matrix(.70710678 -.70710678 .70710678 .70710678 10.367003 7.915079)"/><circle cx="1.863231" cy="1.996198" fill="#231f20" opacity=".2" r="1.142846" transform="matrix(.70710678 -.70710678 .70710678 .70710678 14.634203 4.402176)"/><circle cx="14.642951" cy="6.519714" fill="#838e9e" r="2.099341" transform="matrix(.70710678 -.70710678 .70710678 .70710678 -.321313 12.263709)"/><circle cx="17.543925" cy="3.484235" fill="#838e9e" r="1.04967" transform="matrix(.70710678 -.70710678 .70710678 .70710678 2.67477 13.425937)"/></g></g></svg>