<svg height="18" viewBox="0 0 22 18" width="22" xmlns="http://www.w3.org/2000/svg"><g fill="none" fill-rule="evenodd" transform="translate(0 .068966)"><path d="m7.39631579 8c-.14947368 0-.29947368-.0175-.44578947-.052l-5.10736843-1.207c-.98578947-.233-1.58789473-1.1845-1.34263157-2.1205l.76210526-2.9115c.20473684-.7815.93947368-1.3275 1.7868421-1.3275.14947369 0 .29947369.0175.44578948.052l5.10736842 1.207c.98578947.233 1.58789472 1.1845 1.34263158 2.1205l-.76210527 2.9115c-.20473684.7815-.93947368 1.3275-1.7868421 1.3275zm-4.34684211-6.1185c-.09894736 0-.22052631.0595-.25473684.19l-.76210526 2.911c-.03473684.134.05105263.27.19210526.303l5.10736842 1.207c.11947369.029.27736842-.0235.31894737-.1825l.76210526-2.911c.03473685-.134-.05105263-.27-.19210526-.303l-5.10736842-1.207c-.02105263-.005-.04263158-.0075-.06421053-.0075z" fill="#231f20" fill-rule="nonzero" opacity=".2" transform="translate(7 8.931034)"/><path d="m14.27483 15.9310345c-.1564479 0-.3134467-.0183763-.4665894-.0546039l-5.34567149-1.2674411c-1.0317851-.2446676-1.6619838-1.2438144-1.40527699-2.2266851l.79766409-3.05729473c.21428959-.82063398.98330828-1.39397519 1.87021379-1.39397519.15644793 0 .3134467.01837632.4665894.05460393l5.3456715 1.26744109c1.0317851.24466759 1.6619838 1.2438144 1.405277 2.226685l-.7976641 3.0572948c-.2142896.820634-.9833083 1.3939752-1.8702138 1.3939752zm-4.54966-6.42488681c-.10356412 0-.23081578.06247949-.26662253.19951434l-.79766408 3.05676967c-.03635762.1407102.05343468.2835204.20106864.3181729l5.34567147 1.2674411c.1250482.0304522.2903101-.0246768.333829-.1916388l.7976641-3.0567697c.0363576-.1407101-.0534347-.2835204-.2010686-.3181728l-5.3456715-1.26744114c-.02203492-.00525038-.04462071-.00787557-.0672065-.00787557z" fill="#838e9e"/><path d="m20.952381 1.93103448c-.5788096 0-1.0476191.48192308-1.0476191 1.07692308v-.26923077l-17.9855238 3.97976923c-.18804762-.28915384-.50809524-.47976923-.87161905-.47976923-.57880953 0-1.04761905.48192308-1.04761905 1.07692308v3.23076923c0 .595.46880952 1.0769231 1.04761905 1.0769231.36352381 0 .68357143-.1906154.87161905-.4797693l17.9855238 3.9797693v-.2692308c0 .595.4688095 1.0769231 1.0476191 1.0769231.5788095 0 1.047619-.4819231 1.047619-1.0769231v-11.84615384c0-.595-.4688095-1.07692308-1.047619-1.07692308z" fill="#231f20" fill-rule="nonzero" opacity=".2"/><path d="m20 14.9310345-20-4.5217391v-3.95652179l20-4.52173913z" fill="#f96e6f"/><g fill="#ffaf63"><path d="m2 9.73103448c0 .66300002-.4475 1.20000002-1 1.20000002-.5525 0-1-.537-1-1.20000002v-3.6c0-.663.4475-1.2 1-1.2.5525 0 1 .537 1 1.2z"/><path d="m22 13.8541114c0 .595-.4475 1.0769231-1 1.0769231-.5525 0-1-.4819231-1-1.0769231v-11.84615384c0-.595.4475-1.07692308 1-1.07692308.5525 0 1 .48192308 1 1.07692308z"/></g></g></svg>