<svg height="20" viewBox="0 0 20 20" width="20" xmlns="http://www.w3.org/2000/svg"><g fill="none" fill-rule="evenodd"><path d="m19.9390476 7.26659524c-.147619-.43021429-.5395238-.74416667-1.01-.80976191l-5.3938095-.74416666-2.4128571-4.64278572c-.2114286-.40669047-.6457143-.66364285-1.122381-.66364285-.47666667 0-.91095238.25695238-1.12238095.66364285l-2.41142857 4.64278572-5.39476191.74416666c-.47190476.06559524-.86333333.37909524-1.01.80976191-.14761905.43021428-.02523809.9025.31666667 1.21871428l3.90333333 3.61452378-.92095238 5.1042143c-.08.4460476.11285714.8966191.49809524 1.1626191.21666667.1510952.47428571.2270952.7347619.2270952.19904762 0 .39904762-.0452381.58190477-.136619l4.8247619-2.4098334 4.8247619 2.4098334c.1828571.0913809.3828571.136619.5819048.136619.2590476 0 .5180952-.076.7357143-.2270952.385238-.2664524.5780952-.7170238.4980952-1.1626191l-.9214286-5.1046666 3.9033334-3.61452386c.3404761-.31485714.4633333-.78804762.3166666-1.2182619z" fill="#231f20" fill-rule="nonzero" opacity=".2" transform="translate(0 1)"/><path d="m19.939053 6.78962292c-.1476178-.42577853-.5395192-.73649388-1.0099914-.80141279l-5.3937634-.73649388-2.4128365-4.59491593c-.2114267-.40249727-.6457087-.65680032-1.1223713-.65680032-.47666262 0-.91094462.25430305-1.12237138.65680032l-2.41140795 4.59491593-5.39471577.73649388c-.47190072.06491891-.86332595.37518655-1.00999136.80141279-.14761778.42577853-.02523788.89319471.31666396 1.20614865l3.90329995 3.57725603-.9209445 5.0515869c-.07999932.4414486.11285617.8873744.49809098 1.1506317.21666481.1495374.47428165.2247538.73475562.2247538.19904591 0 .3990442-.0447717.58189978-.1352104l4.82472067-2.3849866 4.8247206 2.3849866c.1828556.0904387.3828539.1352104.5818998.1352104.2590454 0 .5180908-.0752164.735708-.2247538.3852348-.2637051.5780903-.7096308.498091-1.1506317l-.9214207-5.0520347 3.9032999-3.57725595c.3404733-.31161079.4633294-.7799224.316664-1.20570093z" fill="#ffaf63"/></g></svg>