<svg height="21" viewBox="0 0 22 21" width="22" xmlns="http://www.w3.org/2000/svg"><g fill="none" fill-rule="evenodd" transform="translate(0 .068966)"><path d="m22 11.8461538c0 1.1894616-.98505 2.1538462-2.2 2.1538462h-17.6c-1.21495 0-2.2-.9643846-2.2-2.1538462v-9.69230765c0-1.18946153.98505-2.15384615 2.2-2.15384615h17.6c1.21495 0 2.2.96438462 2.2 2.15384615z" fill="#231f20" fill-rule="nonzero" opacity=".2" transform="translate(0 5.931034)"/><path d="m13.8 3.07389163v10.71428567h-6.6v-10.71428567zm0-2.14285715h-6.6c-1.21495 0-2.2.95946429-2.2 2.14285715v10.71428567c0 1.1833929.98505 2.1428572 2.2 2.1428572h6.6c1.21495 0 2.2-.9594643 2.2-2.1428572v-10.71428567c0-1.18339286-.98505-2.14285715-2.2-2.14285715z" fill="#4b4b4b"/><path d="m0 8.93103448v7.64705882c0 1.2994118.98505 2.3529412 2.2 2.3529412h17.6c1.21495 0 2.2-1.0535294 2.2-2.3529412v-7.64705882z" fill="#f96e6f"/><path d="m13.5 9.47648903v1.90909087h-5v-1.90909087zm0-2.54545455h-5c-1.380625 0-2.5 1.13972728-2.5 2.54545455v1.90909087c0 1.4057273 1.119375 2.5454546 2.5 2.5454546h5c1.380625 0 2.5-1.1397273 2.5-2.5454546v-1.90909087c0-1.40572727-1.119375-2.54545455-2.5-2.54545455z" fill="#fff"/><path d="m22 2.22222222c0-1.22722222-.98505-2.22222222-2.2-2.22222222h-17.6c-1.21495 0-2.2.995-2.2 2.22222222v2.77777778h22z" fill="#231f20" fill-rule="nonzero" opacity=".2" transform="translate(0 6.931034)"/><path d="m22 7.1532567c0-1.22722222-.98505-2.22222222-2.2-2.22222222h-17.6c-1.21495 0-2.2.995-2.2 2.22222222v2.77777778h22z" fill="#f96e6f"/></g></svg>