<svg height="200" viewBox="0 0 358 200" width="358" xmlns="http://www.w3.org/2000/svg" xmlns:xlink="http://www.w3.org/1999/xlink"><defs><path id="a" d="m14.6602481 0h11.7458269c1.6230532 0 2.9517844 1.29082751 2.998744 2.9132012l.0156033.5390661c.0556493 1.92258182 1.6302522 3.45226731 3.5536393 3.45226731h51.333862c1.923387 0 3.49799-1.52968549 3.5536392-3.45226731l.0156033-.5390661c.0469597-1.62237369 1.3756909-2.9132012 2.9987441-2.9132012h11.7458268c8.096631 0 14.660248 6.56361667 14.660248 14.6602481v217.4859389c0 10.229418-8.292582 18.522-18.5219999 18.522h-80.2379851c-10.22941814 0-18.522-8.292582-18.522-18.522v-217.4859389c0-8.09663143 6.56361667-14.6602481 14.6602481-14.6602481z"/><linearGradient id="b" x1="50%" x2="50%" y1="81.176763%" y2="-34.513079%"><stop offset="0" stop-color="#ff8c19"/><stop offset="1" stop-color="#ffc967"/></linearGradient><linearGradient id="c" x1="62.110065%" x2="62.110065%" y1="31.380909%" y2="-27.477988%"><stop offset="0" stop-color="#f8fdff"/><stop offset="1" stop-color="#aad4ff"/></linearGradient><path id="d" d="m10.0391388 0h54.6248474c5.5075989 0 9.9784098 4.45338093 9.9999237 9.9609378l.296875 76c.0215735 5.5228054-4.4380561 10.0174124-9.9608615 10.0389859-.0130207.0000509-.0260414.0000763-.0390622.0000763h-54.6248474c-5.50759889 0-9.97840982-4.4533809-9.99992371-9.9609378l-.296875-76c-.02157346-5.52280536 4.43805614-10.01741245 9.96086151-10.03898591.0130207-.00005086.0260414-.00007629.0390622-.00007629z"/><filter id="e" height="196.9%" width="223.9%" x="-51.3%" y="-39.1%"><feOffset dx="8" dy="9" in="SourceAlpha" result="shadowOffsetOuter1"/><feGaussianBlur in="shadowOffsetOuter1" result="shadowBlurOuter1" stdDeviation="14"/><feColorMatrix in="shadowBlurOuter1" result="shadowMatrixOuter1" type="matrix" values="0 0 0 0 0.0755212756   0 0 0 0 0.582569014   0 0 0 0 0.878793025  0 0 0 0.229458042 0"/><feOffset dx="0" dy="2" in="SourceAlpha" result="shadowOffsetOuter2"/><feGaussianBlur in="shadowOffsetOuter2" result="shadowBlurOuter2" stdDeviation="7.5"/><feColorMatrix in="shadowBlurOuter2" result="shadowMatrixOuter2" type="matrix" values="0 0 0 0 0.50398247   0 0 0 0 0.700178215   0 0 0 0 1  0 0 0 0.233828671 0"/><feMerge><feMergeNode in="shadowMatrixOuter1"/><feMergeNode in="shadowMatrixOuter2"/></feMerge></filter><ellipse id="f" cx="14.421852" cy="14.89752" rx="14.421852" ry="14.89752"/><filter id="g" height="412.1%" width="422.4%" x="-133.5%" y="-125.9%"><feOffset dx="8" dy="9" in="SourceAlpha" result="shadowOffsetOuter1"/><feGaussianBlur in="shadowOffsetOuter1" result="shadowBlurOuter1" stdDeviation="14"/><feColorMatrix in="shadowBlurOuter1" result="shadowMatrixOuter1" type="matrix" values="0 0 0 0 0.0755212756   0 0 0 0 0.582569014   0 0 0 0 0.878793025  0 0 0 0.229458042 0"/><feOffset dx="0" dy="2" in="SourceAlpha" result="shadowOffsetOuter2"/><feGaussianBlur in="shadowOffsetOuter2" result="shadowBlurOuter2" stdDeviation="7.5"/><feColorMatrix in="shadowBlurOuter2" result="shadowMatrixOuter2" type="matrix" values="0 0 0 0 0.50398247   0 0 0 0 0.700178215   0 0 0 0 1  0 0 0 0.233828671 0"/><feMerge><feMergeNode in="shadowMatrixOuter1"/><feMergeNode in="shadowMatrixOuter2"/></feMerge></filter><linearGradient id="h"><stop offset="0" stop-color="#fdc6c6"/><stop offset="1" stop-color="#ffcca1"/></linearGradient><linearGradient id="i" x1="47.342638%" x2="50%" xlink:href="#h" y1="-28.185925%" y2="91.050481%"/><linearGradient id="j" x1="44.273037%" x2="50%" xlink:href="#h" y1="-28.185925%" y2="91.050481%"/><linearGradient id="k" x1="47.910927%" x2="50%" xlink:href="#h" y1="-28.185925%" y2="91.050481%"/><mask id="l" fill="#fff"><path d="m6 0h346c3.313708 0 6 2.6862915 6 6v194h-358v-194c0-3.3137085 2.6862915-6 6-6z" fill="#fff" fill-rule="evenodd"/></mask><mask id="m" fill="#fff"><use fill="#fff" fill-rule="evenodd" xlink:href="#a"/></mask></defs><g fill="none" fill-rule="evenodd" mask="url(#l)"><g transform="translate(100 51)"><path d="m16 0h94.847537c8.836556 0 16 7.163444 16 16v221.693211c0 13.882782-11.254218 25.137-25.137 25.137h-76.573537c-13.8827818 0-25.137-11.254218-25.137-25.137v-221.693211c0-8.836556 7.163444-16 16-16z" fill="#bcf8ff"/><g transform="translate(4.574829 5.296406)"><use fill="#fff" xlink:href="#a"/><path d="m17.581903 43.0353365h83.000892c1.819969 0 3.295346 1.4753767 3.295346 3.2953461s-1.475377 3.295346-3.295346 3.295346h-83.000892c-1.8199694 0-3.2953461-1.4753766-3.2953461-3.295346s1.4753767-3.2953461 3.2953461-3.2953461z" fill="#ffcc7b" mask="url(#m)"/></g><g fill="#56cdd9" fill-rule="nonzero"><path d="m70.2993875 4.6013265c1.0850891 0 1.9647277.84307239 1.9647277 1.88305489 0 1.01687178-.8409779 1.84548777-1.8927002 1.88181299l-.0720275.0012419h-22.2162565c-1.0850892 0-1.9647277-.84307239-1.9647277-1.88305489 0-1.01687178.8409779-1.84548777 1.8927002-1.88181299l.0720275-.0012419z"/><path d="m78.2613488 4.28748402c1.0850892 0 1.9647277.8782004 1.9647277 1.96151551 0 1.05924143-.8409779 1.92238309-1.8927002 1.96022186l-.0720275.00129365h-.1030505c-1.0850891 0-1.9647277-.87820041-1.9647277-1.96151551 0-1.05924144.8409779-1.92238309 1.8927002-1.96022186l.0720275-.00129365z"/></g></g><g transform="translate(108 139)"><path d="m4 .43326316h2.60705213c1.36553174 0 2.47251393 1.10698219 2.47251393 2.47251392v1.25323713c0 .67338798.54588882 1.2192768 1.21927684 1.2192768h26.9382518c2.209139 0 4 1.790861 4 4v20.74551529c0 2.209139-1.790861 4-4 4h-33.2370947c-2.209139 0-4-1.790861-4-4v-25.69054314c0-2.209139 1.790861-4 4-4z" fill="url(#b)"/><path d="m10.9215672 2.77288421h30.5960094c.673388 0 1.2192768.54588882 1.2192768 1.2192768 0 .06649289-.0054392.13287436-.0162633.19848033l-4.5771323 27.74255796c-.0971478.5888243-.606229 1.0207965-1.2030135 1.0207965h-30.59600944c-.67338798 0-1.2192768-.5458888-1.2192768-1.2192768 0-.0664929.00543924-.1328744.0162633-.1984803l4.57713237-27.74255802c.09714774-.58882431.60622897-1.02079647 1.20301347-1.02079647z" fill="url(#c)"/><path d="m45.7492039 15.226266-2.5852911 12.8549331c-.7512442 3.7354377-4.0327313 6.4226802-7.8429626 6.4226802h-30.4364083c-2.209139 0-4-1.790861-4-4 0-.2648377.02630198-.5290209.07851871-.7886599l2.58529106-12.8549331c.75124417-3.7354377 4.03273134-6.4226802 7.84296263-6.4226802h30.4364083c2.209139 0 4 1.790861 4 4 0 .2648377-.026302.5290209-.0785187.7886599z" fill="#ffcc7b"/></g><g transform="translate(62 81)"><path d="m6 0h16.7276371l7.2723629 7.36842105v21.63157895c0 3.3137085-2.6862915 6-6 6h-18c-3.3137085 0-6-2.6862915-6-6v-23c0-3.3137085 2.6862915-6 6-6z" fill="#8ad4dd"/><g fill="#fff" transform="translate(6.875 11.666667)"><path d="m3.30707126 14.09211c1.65685425 0 3-1.3195818 3-2.9473684 0-1.62778662-1.34314575-2.94736841-3-2.94736841s-3 1.31958179-3 2.94736841c0 1.6277866 1.34314575 2.9473684 3 2.9473684z"/><path d="m10.5 12.8199878c1.6568542 0 3-1.3195818 3-2.94736844 0-1.62778663-1.3431458-2.94736842-3-2.94736842-1.65685425 0-3 1.31958179-3 2.94736842 0 1.62778664 1.34314575 2.94736844 3 2.94736844z"/><path d="m13.5.37066852v9.28018383h-1.125l-.0004579-7.02396854-6.07649998 1.93494737v6.49452272h-1.125l.00057927-8.03486718z"/></g><path d="m30 7.36842105h-4.2723629c-1.6568542 0-3-1.34314575-3-3v-4.36842105z" fill="#58a4ad" fill-rule="nonzero" opacity=".33996"/></g><g transform="translate(170 71)"><use fill="#000" filter="url(#e)" xlink:href="#d"/><use fill="#fff" fill-rule="evenodd" xlink:href="#d"/><path d="m25.6447368 59.3684211h23.7105264c1.0464342 0 1.8947368.8483025 1.8947368 1.8947368s-.8483026 1.8947368-1.8947368 1.8947368h-23.7105264c-1.0464342 0-1.8947368-.8483025-1.8947368-1.8947368s.8483026-1.8947368 1.8947368-1.8947368z" fill="#8ad4dd" fill-rule="nonzero" opacity=".33996"/><path d="m19.3947368 69.4736842h36.2105264c1.0464342 0 1.8947368.8483026 1.8947368 1.8947369 0 1.0464342-.8483026 1.8947368-1.8947368 1.8947368h-36.2105264c-1.0464342 0-1.8947368-.8483026-1.8947368-1.8947368 0-1.0464343.8483026-1.8947369 1.8947368-1.8947369z" fill="#8ad4dd" fill-rule="nonzero" opacity=".33996"/><g transform="translate(23.125 15.789474)"><use fill="#000" filter="url(#g)" xlink:href="#f"/><use fill="#fff" fill-rule="evenodd" xlink:href="#f"/><path d="m8.78082972 8.51162038c1.71580008 0 3.10673088 1.39093081 3.10673088 3.10673092v1.7950001c0 .7244489-.5872819 1.3117308-1.3117308 1.3117308h-9.26409897c-.72444893 0-1.31173083-.5872819-1.31173083-1.3117308v-1.7950001c0-1.71580011 1.39093081-3.10673092 3.10673091-3.10673092zm-2.83704941-8.51162038c2.03751262 0 3.68924295 1.66911697 3.68924295 3.72807709s-1.65173033 3.72807709-3.68924295 3.72807709-3.68924295-1.66911697-3.68924295-3.72807709 1.65173033-3.72807709 3.68924295-3.72807709z" fill="#8ad4dd" transform="translate(8.75 6.947368)"/></g></g><g transform="translate(268.839472 129.913054)"><path d="m9.20917277 48.2702671s-6.58633899 7.2643946-6.1273635 7.9196992c.45942971.6596148 3.87401178-1.0973559 3.87401178-1.0973559s-3.99522645 7.4845929-3.07037877 7.9978715c.92439532.5132783 5.4537674-.8466994 6.78485042-2.414933 1.3315355-1.5682333 3.1233986-9.2351558 3.1233986-9.2351558l9.5468959-20.4455923-7.7807987-2.2863757z" fill="url(#i)" transform="matrix(.99874879 .05000849 -.05000849 .99874879 2.314634 -.6026)"/><path d="m2.00979003 11.2029609c2.9150106 4.5685643 12.72770487 17.5884783 12.72770487 17.5884783s-.2383373.8658551-.7150119 2.5975652l9.0177482 6.2355248c1.7078794-4.7588396 2.6359178-7.473015 2.7841153-8.1425261.7331317-3.3126876-14.0818847-24.45310322-17.39904124-27.50776929-5.22315307-4.81002243-10.87050389 2.24705386-6.41551523 9.22872709z" fill="#ffb66f"/><path d="m17.0829118 32.2477292c.112123-.2206143-.664817-1.3882928-2.3308199-3.5030357l-.4234145 1.5426279c1.7240332 1.5275528 2.6421113 2.181022 2.7542344 1.9604078z" fill="#000" fill-opacity=".159856"/><path d="m13.9665154 30.5174496 9.580502 7.3793117-2.1348408 4.7724652-8.3767622-9.3978122z" fill="#ffedc2"/></g><g transform="translate(252.725454 170.70399)"><path d="m0 1.94022732 17.6956478-1.94022732.2601784.24369298c1.2612019 1.21207879 6.7421199 6.8411401 8.3169836 14.53511262 2.973219 14.5256155-1.0060255 41.3534694-.9180074 47.2362597.0840173 5.8827903 2.8401093 9.4322805 3.9854277 17.7500626 1.1453183 8.3177822 1.2534705 45.4911371 1.2534705 45.4911371-3.036626 1.815118-5.7085707 1.945058-9.3293171-.108955z" fill="#383d44"/><path d="m15.8068268 93.5243888-15.8068268-91.58416148 9.83882485-1.07886079c.43837395 31.81612827 6.55700745 74.82286497 5.96800195 92.66302227z" fill="#fff" fill-opacity=".192499"/></g><g transform="translate(237.629091 173.224103)"><path d="m6.31855298.67915599 19.87064162-.67915599.1484717.27725768c.964183 1.84453516 6.2473443 12.64435142 4.6159926 24.91987802-2.2898349 17.2304544-8.1107693 37.4299827-8.3957583 40.5157401-.5081048 5.501573.5081047 9.4851699.9247967 15.167597.4166919 5.6824271-1.5889336 41.4208722-1.5889336 41.4208722-2.9486079 1.788888-6.4573311 2.139967-10.9182507.054075-2.68470059-32.3624163-4.03696849-51.1044194-4.05680373-56.2260098-.02975287-7.6823855-.60015629-65.45025421-.60015629-65.45025421z" fill="#42474f"/><path d="m10.4073195 19.3159727-.1318438 1.2766366c-1.32425584 13.4618175-1.31422565 42.0497871-.80142963 46.4587281l.07036978.56825c.56875975 4.9751512.58720215 17.6059201.05532705 37.8923066l-.69232281-8.753881c-1.31195531-16.8444986-1.97486688-27.054005-1.98871082-30.6286028l-.02403433-3.6994268c-.11409519-14.9588538-.57612196-61.75082741-.57612196-61.75082741l4.19065522-.14307728c.4479148 7.38638402.4139519 13.64634869-.1018887 18.77989399z" fill="#51565e"/></g><g transform="translate(249.74914 96.108783)"><path d="m1.77550717 13.9891161c-2.44498886.2698-2.2716501 4.605372.70466769 4.831739.60832782 4.1795075 2.77779928 6.1708009 5.42276634 6.4012167l-.14669933 6.3217122 11.69945413-.0069935s-3.2945312-4.465871-3.1303156-10.57962c.1642157-6.1141171-.1102069-11.85758131-.1102069-11.85758131l-15.15345711.27421692z" fill="url(#j)"/><path d="m19.7194969 14.3139465c-2.8476723-1.1358684-4.9512654 3.7545814-7.1301507 7.1535865-2.1788853 3.3990052-7.82402094 2.8214869-8.60205485 0-2.94557627-6.1797143-5.48400071-14.58127476-2.04663332-15.27083803.48384239-8.93138151 23.66043847-6.82279171 17.77883887 8.11725153z" fill="#9e5229" transform="matrix(-1 0 0 1 20.96294 0)"/><path d="m17.320238 2.81643513c.992312.85068742 1.6261726 1.97974321 1.7020432 3.38025984 3.4373674.68956327.898943 9.09112373-2.0466333 15.27083803-.7235089 2.6237555-5.6558448 3.3070388-8.09575941.6566193-2.22504692-6.7242406-1.27444232-14.24177032 3.22442491-19.30671698z" fill="#000" fill-opacity=".199355"/><ellipse cx="14.048023" cy="2.817435" fill="#fb9934" rx="2.793303" ry="2.817435"/></g><g transform="translate(241.23279 125.645886)"><path d="m30.305922 3.2310607c2.6101258 3.86746585 6.9602416 16.9935039 7.2069656 19.9464412.2779783 3.4062228-3.3423585 8.8322665-3.4019252 13.7632627-.0529483 4.9316678 2.7003608 19.780408 1.8730444 21.1674816-.8206979 1.3870735-24.3533994 7.5281828-25.8888987 7.4952691-1.52888081-.0335853-11.1814963-8.3919971-9.97030503-11.2803343 1.21780979-2.8883372 6.8700357-10.0661911 6.29422346-14.0017185-.56919371-3.9348557-3.87465682-18.460505-5.51605263-23.4042636-1.63477728-4.9437586-1.08966299-10.13416631 1.96148003-12.26146025 1.50972127-1.05259599 5.53831326-4.04302883 12.71251727-4.02964191 7.174204.01403138 14.526538 2.30504561 14.7289508 2.60496396z" fill="#ff9f43" transform="matrix(-1 0 0 1 37.52811 0)"/><path d="m15.3227139.3435683c-.2012834 1.10874161.1386465 1.66311242 1.0197894 1.66311242 1.3217145 0 10.187118.29448672 11.387695-.23138503.8003847-.35058116 1.0804966-.82782362.8403355-1.43172739z" fill="#fff6e1"/><path d="m3.43387088 11.5956284.08034119-.0408438c4.83393858-2.43391499 7.73754093-2.54142233 8.71080703-.322522 1.2581268 2.8683399-2.0045077 9.7604851-9.78790352 20.6764357-1.06907798-3.3105921-2.60666356-6.4670937-2.42189247-8.7311964.14278387-1.7089215 1.65985897-6.8249763 3.41864777-11.5818735z" fill="#000" fill-opacity=".159856"/></g><g transform="translate(207 110.509008)"><path d="m5.42102101 18.6702047s-.87082359-1.9066847-2.23970259-2.4225651c-1.36848999-.5158805-3.46192494-3.9328156-3.13827978-4.9250739.32364517-.9922583 3.15515133-3.74414212 3.15515133-3.74414212s-2.50319304-6.77567303-1.39455277-7.54030249c.97949341-.6758464 4.6862419 7.85866994 4.6862419 7.85866994s2.17915889.33127425 2.68213148 1.2038514c1.26735092 2.19962967.30935682 7.14699717.30935682 7.14699717l12.8650573 18.9618343-5.9031451 7.6344036z" fill="url(#k)"/><path d="m38.2620688 20.1405266c-4.3509854 3.8986653-14.9932555 14.2419803-14.9932555 14.2419803s-.5270715-.8145892-1.5812145-2.4437675l-7.958803 8.2203783c4.002487 5.9879794 6.6554214 9.002887 7.958803 9.0447229 5.0939701.1634259 14.221077-9.5372277 22.8018932-17.111872 7.6936865-6.7917457 1.8830063-19.2187425-6.2274232-11.951442z" fill="#ffb66f"/><path d="m23.3005616 34.3946534c-1.9902834 2.3217763-3.0675382 3.356071-3.2317644 3.1028841-.1642261-.2531869.586422-1.7910101 2.2519443-4.6134697z" fill="#000" fill-opacity=".159856"/><path d="m22.6404191 32.4924293-9.2306338 10.3514482-2.8439675-5.9073079 10.3184891-6.5311494z" fill="#ffedc2"/></g><path d="m64.9260734 2.68383171s-2.6137731-3.43413261-5.6320513-2.53316838-5.7484778 6.42374048-4.452124 11.61504257c1.2898065 5.1919745.2261382 8.1532549-1.3386525 11.6522235-4.2033288 9.4123867 10.349691 15.3886907 10.349691 15.3886907-.7570037-4.6496614-.3992914-8.3783131 1.0731368-11.1859549 2.274641-4.3373098 3.5664638-9.8993482 3.5664638-13.3029961 0-5.91884557-3.5664638-11.63383739-3.5664638-11.63383739z" fill="#9e5229" transform="matrix(-1 0 0 1 328.23362 94)"/></g></svg>