<svg height="200" viewBox="0 0 358 200" width="358" xmlns="http://www.w3.org/2000/svg" xmlns:xlink="http://www.w3.org/1999/xlink"><defs><linearGradient id="a" x1="50%" x2="50%" y1="81.176763%" y2="-34.513079%"><stop offset="0" stop-color="#ff8c19"/><stop offset="1" stop-color="#ffc967"/></linearGradient><linearGradient id="b" x1="62.110065%" x2="62.110065%" y1="31.380909%" y2="-27.477988%"><stop offset="0" stop-color="#f8fdff"/><stop offset="1" stop-color="#aad4ff"/></linearGradient><path id="c" d="m7.9517939.06430827h17.7386172c.6756391 0 1.2233529.53884081 1.2233529 1.20353463v3.30972022c4.4856273 5.56634768 6.728441 11.13269528 6.728441 16.69904288 0 5.3949049-1.9152587 10.7898097-5.745776 16.1847145-.2288473.3223036-.6032805.5143285-1.0029053.5143285h-20.1448477c-.39962503 0-.77405844-.1920276-1.00290335-.5143331-3.8305151-5.3949033-5.74577265-10.7898066-5.74577265-16.1847099 0-5.4613222 2.15897762-10.9226444 6.47693287-16.3839666l.25150812-.31507628v-3.30972022c0-.66469382.54771375-1.20353463 1.22335291-1.20353463z"/><mask id="d" fill="#fff"><path d="m6 0h346c3.313708 0 6 2.6862915 6 6v194h-358v-194c0-3.3137085 2.6862915-6 6-6z" fill="#fff" fill-rule="evenodd"/></mask><mask id="e" fill="#fff"><use fill="#fff" fill-rule="evenodd" xlink:href="#c"/></mask></defs><g fill="none" fill-rule="evenodd" mask="url(#d)"><g transform="matrix(-1 0 0 1 290 28)"><path d="m38.11136 135.5h61.88864v66c0 2.209139-1.790861 4-4 4h-78c-2.209139 0-4-1.790861-4-4v-41.88864c0-13.316336 10.7950236-24.11136 24.11136-24.11136z" fill="#dfdfdf"/><path d="m86.5803656 62.7956067 13.4196344-.2956067v80h-37v-55.598881c0-13.1094233 10.4741217-23.816809 23.5803656-24.1055123z" fill="#dfdfdf"/><path d="m94.11136 62.5h54.04864c12.061899 0 21.84 9.7781011 21.84 21.84v57.4128c0 .964952-.782248 1.7472-1.7472 1.7472h-98.2528v-56.88864c0-13.3163364 10.7950236-24.11136 24.11136-24.11136z" fill="#f2f2f2"/><path d="m156 62.5c7.731986 0 14 6.2680135 14 14v57.2528c0 .964952-.782248 1.7472-1.7472 1.7472h-26.2528v-59c0-7.7319865 6.268014-14 14-14z" fill="#dfdfdf"/><path d="m34.6 143.5h61.4v53h-74v-40.4c0-6.958788 5.6412122-12.6 12.6-12.6z" fill="#f2f2f2"/><g fill="none" transform="matrix(-1 0 0 1 134 8.5)"><g transform="translate(26.641267 .378756)"><path d="m8.1469457 46.3186884c-9.9321599-2.3146729-10.58628002-15.957627-3.03511735-20.690138-7.78743878-16.33651853 10.22108275-32.55655759 22.55675745-22.55339719 8.0869862-3.46413819 14.8073767 10.05364009 7.2823788 20.55240969 3.155096 18.0266931-3.2661605 22.6864123-14.8414701 22.884364z" fill="#33373e"/><path d="m8.27051177 43.0603672s4.83152243-1.1350886 4.99913573-9.0575983c.1676133-7.9225098.049951-10.6268494.049951-10.6268494l10.6424154-.1921753s.1160092 8.82951.1176624 12.023175c.00444 8.5777466 5.9769168 7.853448 5.9769168 7.853448s-1.2415629 6.955158-10.8848792 7.4978033c-7.5292794.4243408-10.90120213-7.4978033-10.90120213-7.4978033z" fill="#edc2c2"/><path d="m10.8387307 19.4197633c-4.74756419-.183844-3.9731813 6.7713307.9586465 6.7618886 0 0 2.8644809 9.8802379 12.8095909 9.8802379 8.0767118 0 8.6021157-11.5156006 8.6753771-13.8128174.0788116-2.4494019.0888018-10.4963257.0888018-10.4963257l-22.717235-.010553z" fill="#ffd7d7"/><g stroke-linecap="round"><path d="m22.8656637 28.6327248s1.6325971 2.6409678 4.8225534 1.7011953" stroke="#f77b7b" stroke-width="1.5" transform="matrix(.95105652 -.30901699 .30901699 .95105652 -7.904949 9.258969)"/><path d="m24.2493638 31.7850762c.7484866.3143787 1.4584191.314397 2.0796409-.0468337" stroke="#f49494" transform="matrix(.99939083 .0348995 -.0348995 .99939083 1.127889 -.863161)"/><path d="m11.0573784 23.2772966c.2985297-1.076092.1664766-2.0159192-.9013709-2.4451723" stroke="#f77b7b" transform="matrix(.97437006 -.22495105 .22495105 .97437006 -4.687603 2.966861)"/></g><path d="m10.0875813 18.5604193s2.6022031 3.4942967 3.1293107 3.5128565c.5271076.0185597.7116827-4.5445093.7116827-4.5445093 3.1921062-.2440357 11.2706658-1.8539389 13.2509672-5.6044251 1.3848819 3.3092134 4.0322342 4.7791028 5.7716387 4.4968384l.3296766 7.030426.8119018-14.13414404h-24.64165699z" fill="#33373e"/></g><path d="m16.6345894.02568881c7.4083202.33101916 48.6409437 9.45749179 56.1322136 11.00801569 7.4912699 1.5505238 13.8246535 9.9405187 8.1122138 19.6556685-6.4159939 10.9057679-22.9704329 41.8778959-26.9897221 48.8597798-1.9893799 3.4557402-12.0254667 1.5181915-9.6680353-4.2820069 4.3946753-10.8126104 6.4355668-37.9749182 17.6399293-47.8786964 0 0-37.6801472 6.5626225-53.95640013-.9546651-11.82916058-5.4644433-9.15307578-27.20832129 8.72980083-26.40809559z" fill="#33373e" transform="translate(30.040367 107.25)"/><g transform="translate(52.383906 45.76)"><path d="m46.782236 17.6753496s-.0837143-6.0323456 2.0248386-9.18487813c2.1085529-3.15253254 2.1922671-6.50121334 3.7880702-6.39160108 1.595803.10961226.0156964 7.89313172.0156964 7.89313172s2.0248386-.77410382 3.4793738-1.75327172c1.4545353-.9791679 5.8652302-5.80630307 6.895962-4.95090787 1.7475352 1.45747595-1.0673568 9.67891998-2.6003741 11.32257948-1.5382495 1.6441839-9.9410681 7.050848-9.9410681 7.050848z" fill="#ffd7d7"/><path d="m1.2557163 14.0606471c3.44617437 7.9989134 9.7562056 22.6932028 12.3575422 27.0771767 3.2600236 5.490237 8.4006466 7.909113 14.419519 3.8356189 6.3243505-4.2803214 23.7386456-20.974851 24.2493667-24.7564942.505948-3.7816431-3.7564255-8.3189462-7.6130861-5.9698088-3.8566605 2.3491375-19.881985 15.6952625-19.881985 15.6952625s-6.4675433-16.5910818-11.6702165-26.20210149c-4.50580138-8.315125-17.10677137-1.83995068-11.8611403 10.32034639z" fill="#675cd7"/><path d="m24.8538965 29.9510001c1.1580368 3.9307392 1.87241 5.782313 2.1431195 5.5547213s.1672924-2.5928105-.3102512-7.0956562z" fill="#000" fill-opacity=".302803"/></g><g transform="matrix(-.95105652 -.30901699 -.30901699 .95105652 122.486816 45.590021)"><path d="m2.83401927 1.00879985h8.83995063c1.3254834 0 2.4 1.0745166 2.4 2.4v22.49999995c0 1.3254834-1.0745166 2.4-2.4 2.4h-8.83995063c-1.3254834 0-2.4-1.0745166-2.4-2.4v-22.49999995c0-1.3254834 1.0745166-2.4 2.4-2.4z" fill="#7596ff" fill-rule="nonzero"/><path d="m1.461423.65h13.639951v27.3h-13.639951z" fill="#93c2f9"/><path d="m3.89946706 1.625h1.03447156c.21074697 0 .38602479.15197337.4223736.35238404l.00691644.07722228c0 .23726502.19219969.42960632.42929003.42960632h4.98820281c.210747 0 .3860248-.15197337.4223736-.35238404l.0069164-.07722228c0-.23726502.1921997-.42960632.4292901-.42960632h1.02925c.7645765 0 1.3916265.58925494 1.45242 1.33871911l.0048302.12089499-.0196191 22.2003453c-.0024077.9686519-.7873184 1.7534465-1.7552589 1.7550016h-8.18397038c-.92643545.0014817-1.68508634-.7173542-1.74930468-1.6281161l-.00440326-.1253348c0-.0005173 0-.0010347.00155095-.0015507l.01961451-22.19511993c.00071513-.80921797.6564336-1.46483947 1.46505612-1.46483947z" fill="#e6f3ff" fill-rule="nonzero"/></g><g transform="translate(19.199222 42.033012)"><path d="m0 8.14953369s8.30470904 27.82844241 8.55065821 33.09615601c.24594916 5.2682373-6.79238333 20.7514087-5.59403527 24.6648816 2.76300339 9.0434582 38.03839326 12.9375549 39.38611856.7719067.6285359-5.673669-.6794921-10.7658471.8276007-17.451167 1.5018598-6.6853198 7.5387058-16.6197984 4.114693-25.9599463-3.4240127-9.3401478-2.5065883-17.98123682-4.955614-19.6144958-2.4490257-1.63325899-8.173885-3.36779663-8.173885-3.36779663-2.7839352 4.09990356-12.1823331 4.04020385-16.6669807-.28907227 0 0-11.14097386 2.16280518-17.4885555 8.14953369z" fill="#7367f0"/><path d="m7.44204499 12.6566474c5.53571581 8.7915519 5.51907311 24.0984684 8.49215111 26.1031487 2.9730781 2.0046802 14.5445799.0374207 14.5445799 1.625 0 1.5875792-15.9910876 16.1368433-13.3659248 23.0920724 1.3745838 3.6418869 1.0017184 6.9000013-1.1185963 9.7743432l-.6921031-.1509299c-6.30061855-1.4249691-11.36603438-3.9837725-12.34552886-7.1897105-1.19834806-3.9134729 6.65188625-19.3966443 6.40593709-24.6648816-.20877853-4.4715968-6.80956003-25.1999566-8.79996191-31.36323372 1.62050217-2.86109048 3.91325862-1.93656306 6.87944687 2.77419142z" fill="#000" fill-opacity=".199355"/></g><g transform="translate(0 47.85625)"><path d="m36.0809169 30.1578931s6.9949971-6.1955537 9.1363227-6.91454c2.1413257-.7189863 14.6826205-1.5827138 14.6033121.041954-.0898828 1.7405656-6.8258059 1.6404005-7.5237194 2.4967861-.6979136.8558611-.8565303 6.708441-3.4948549 7.3655452-2.6330375.6571042-10.5268626 1.7898616-10.5268626 1.7898616z" fill="#ffd7d7"/><path d="m17.4714673 3.92556582c-7.3696582 10.40871378-13.66169115 26.26372288-16.07687707 32.44513558-2.41518591 6.1814128.02113799 15.5049487 10.64127367 13.6745512 10.6010433-1.8256209 27.4682085-11.7452128 29.3344886-14.6388839 1.86628-2.8936712-.9689383-8.1589981-4.5392131-7.4697331-3.3077546.6376777-19.7149267 7.619241-19.7149267 7.619241s10.555358-18.7234293 13.1328291-23.7426925c4.3053314-8.38247521-6.2861657-17.05871203-12.7775745-7.88761828z" fill="#675cd7"/><path d="m17.283271 35.4278634c-3.6856855 1.8324813-5.3037646 2.3644594-4.8542373 1.5959341.4495273-.7685252 2.7708424-2.5027763 6.9639452-5.2027533z" fill="#000" fill-opacity=".302803"/></g><g transform="translate(17.86184 104)"><path d="m4.78857772.14337409c-7.1802288 15.17504101-5.725067 25.36795951 4.36548541 30.57875531 14.63759427 7.5589038 58.45756467-1.38125 58.45756467-1.38125s-.783025 6.3088928 0 11.9356648c2.0450688 14.6957448 11.7712272 39.1796066 13.8290413 42.2560635 2.845719 4.2543844 11.5143468 1.0459194 11.6776327-2.4965233.1632858-3.5424427-6.5348531-48.7854011-7.5534315-57.4129165-1.013328-8.6280408-4.21252-9.8812951-13.5565436-12.2398277-2.1466589-.54184-27.5322181-6.85521018-29.8577532-6.67119429-13.3211745 1.05408334-25.7751731-.4688406-37.36199578-4.56877182z" fill="#42474f"/><g fill="#52565e"><path d="m16.5952732 28.3729641c14.4917072 1.625 52.8579034-1.7245785 54.3987757-.2025261 1.4711103 1.4531426 1.2256593 26.7345703 4.525699 41.36724l-.5018795-1.381778c-3.1035609-8.6262717-6.3261557-19.1179284-7.4062406-26.8793558-.783025-5.626772 0-11.9356648 0-11.9356648l-1.7668747.3422557c-8.329692 1.5657948-43.809607 7.6908297-56.69068997 1.0389943-6.97941162-3.6041921-9.82749477-9.5919225-8.54424944-17.9631914 2.20968406 9.4619178 7.53815671 14.6668038 15.98545951 15.6140261z"/><ellipse cx="91.744906" cy="24.78125" rx="2.435796" ry="4.468583" transform="matrix(.97437006 .22495105 -.22495105 .97437006 7.925984 -20.002972)"/><ellipse cx="80.37828" cy="21.9375" rx="3.247788" ry="4.874727" transform="matrix(.9612617 -.27563736 .27563736 .9612617 -2.933076 23.005078)"/></g></g></g><path d="m108.11136 135.5h61.88864v68.2528c0 .964952-.782248 1.7472-1.7472 1.7472h-84.2528v-45.88864c0-13.316336 10.7950236-24.11136 24.11136-24.11136z" fill="#dfdfdf"/><g fill="none"><g transform="matrix(-1 0 0 1 38 0)"><path d="m2.86233449 0h1.24777738c.89169527 0 1.61455712.72286185 1.61455712 1.61455712v.39528032c0 .67338799.54588882 1.2192768 1.2192768 1.2192768h15.05605421c2.209139 0 4 1.790861 4 4v10.77088576c0 2.209139-1.790861 4-4 4h-18c-2.209139 0-4-1.790861-4-4v-15.13766551c0-1.58082369 1.2815108-2.86233449 2.86233449-2.86233449z" fill="url(#a)"/><path d="m7.18377012 2h18.39051808c.6733879 0 1.2192768.54588882 1.2192768 1.2192768 0 .06334477-.0049364.12659323-.0147644.18917095l-2.7580583 17.56144645c-.0931449.5930839-.6041587 1.0301058-1.2045124 1.0301058h-18.39051806c-.67338799 0-1.2192768-.5458888-1.2192768-1.2192768 0-.0633448.00493639-.1265932.01476434-.189171l2.75805828-17.56144635c.09314495-.59308397.60415874-1.03010585 1.20451246-1.03010585z" fill="url(#b)"/><path d="m29.0746951 11.7628407-.925305 4.7628408c-.7304253 3.7597328-4.0231434 6.4743185-7.853171 6.4743185h-15.44432863c-2.209139 0-4-1.790861-4-4 0-.2560438.02458429-.5114962.07341446-.7628407l.92530493-4.7628408c.73042529-3.75973281 4.0231434-6.4743185 7.85317108-6.4743185h15.44432856c2.209139 0 4 1.790861 4 4 0 .2560438-.0245843.5114962-.0734144.7628407z" fill="#ffcc7b"/></g><g transform="translate(176 78)"><path d="m23.9793783 58.2341343c6.3663744-14.2432626 12.1501329-28.8713538 17.4449585-43.8223942-12.1961774 11.3682746-21.6802874 25.2181694-20.3297588 43.8223942z" fill="#57e295"/><path d="m20.5861446 59.72149c-1.5068006-24.2865105-.8683-46.841887 11.760867-59.72149-1.7419993 26.6653355-5.0006274 45.4498771-9.1277513 59.72149z" fill="#28c76f"/><path d="m20.0066999 57.1923582c-7.0558789-16.9714923-14.14597669-21.8363397-20.0066999-39.2573041 19.1807249 9.836129 20.3830768 17.9582138 24.1479585 39.2573041z" fill="#57e295"/><path d="m16.209218 57.1923582-12.65775455-16.9714923c6.11316809 1.7233361 16.33117225 4.5139679 16.33117225 16.9714923z" fill="#28c76f"/><path d="m28.0478916 57.1923582h4.2226181c2.6833844-5.5410726 6.4648097-9.3556391 15.6130812-4.731637-5.9966202-9.0332259-18.3004473-11.7670089-19.8356993 4.731637z" fill="#57e295"/><path d="m24.1637103 57.1923582h3.5114422c6.444551-9.11445 9.2153887-13.0858879 15.8846296-20.869421-8.7856527 3.2969875-17.8038887 7.7835331-19.3960718 20.869421z" fill="#28c76f"/><g transform="translate(7.384615 55.8125)"><use fill="#7367f0" xlink:href="#c"/><path d="m-4.28173518-.97787188h15.90358778c-7.61381537 17.43620708 7.4048826 27.76198148 0 45.13254848h-15.90358778z" fill="#857af9" mask="url(#e)"/></g></g></g></g></g></svg>