<svg height="200" viewBox="0 0 358 200" width="358" xmlns="http://www.w3.org/2000/svg" xmlns:xlink="http://www.w3.org/1999/xlink"><defs><linearGradient id="a" x1="68.669473%" x2="68.669473%" y1="-53.106962%" y2="100%"><stop offset="0" stop-color="#7367f0"/><stop offset="1" stop-color="#8ca5ff"/></linearGradient><path id="b" d="m7.9517939.06430827h17.7386172c.6756391 0 1.2233529.53884081 1.2233529 1.20353463v3.30972022c4.4856273 5.56634768 6.728441 11.13269528 6.728441 16.69904288 0 5.3949049-1.9152587 10.7898097-5.745776 16.1847145-.2288473.3223036-.6032805.5143285-1.0029053.5143285h-20.1448477c-.39962503 0-.77405844-.1920276-1.00290335-.5143331-3.8305151-5.3949033-5.74577265-10.7898066-5.74577265-16.1847099 0-5.4613222 2.15897762-10.9226444 6.47693287-16.3839666l.25150812-.31507628v-3.30972022c0-.66469382.54771375-1.20353463 1.22335291-1.20353463z"/><mask id="c" fill="#fff"><path d="m6 0h346c3.313708 0 6 2.6862915 6 6v194h-358v-194c0-3.3137085 2.6862915-6 6-6z" fill="#fff" fill-rule="evenodd"/></mask><mask id="d" fill="#fff"><use fill="#fff" fill-rule="evenodd" xlink:href="#b"/></mask></defs><g fill="none" fill-rule="evenodd" mask="url(#c)"><g transform="translate(178 85)"><g fill="#d2d2d2"><path d="m38.0773994 71.3633684-9.2468909 72.5153686 4.8480243-.063852 9.2468909-71.7725666z"/><path d="m46.4062129 71.3633684-9.2468909 72.5153686 4.8480244-.063852 9.2468909-71.7725666z" transform="matrix(-1 0 0 1 88.41356 0)"/><path d="m74.5960434 71.3633684-9.2468909 72.5153686 4.8480244-.063852 9.2468909-71.7725666z" transform="matrix(-1 0 0 1 144.79322 0)"/><path d="m0 75.1861895c0-4.1840628 3.39185303-7.5759158 7.57591579-7.5759158h28.64171191c5.7185187 0 10.4990776-4.3489667 11.0385502-10.0419821l4.5036143-47.5263095c.5394727-5.69301545 5.3200316-10.0419821 11.0385502-10.0419821h14.9170552c6.1237333 0 11.088 4.96426669 11.088 11.088 0 .2855808-.011033.5710549-.0330745.8557838l-4.6900912 60.5861053c-.4470182 5.774534-5.2631151 10.2322162-11.0549256 10.2322162h-65.44939051c-4.18406276 0-7.57591579-3.3918531-7.57591579-7.5759158z"/></g><path d="m77.5098167 0c1.0842621 0 2.1321751.15562921 3.1226193.44576803.3126956 1.02333181.4802322 2.10917847.4802322 3.23415541 0 .28637884-.0110948.57265018-.0332594.85817l-4.6852759 60.35460286c-.4481934 5.77352-5.2638503 10.22983-11.0547405 10.22983h-65.26830283l-.06967758-.0006037c-.0009399-.0490728-.00141199-.0982602-.00141199-.1475578 0-4.1731951 3.38304303-7.5562381 7.55623809-7.5562381h28.55124931c5.7173814 0 10.4973809-4.3472888 11.0382698-10.0390275l4.4987517-47.3400717c.5408889-5.69173866 5.3208884-10.0390275 11.0382698-10.0390275z" fill="#b2b0b0"/></g><path d="m15.5578089.02395838c6.9287693.30872137 45.4923469 8.82042524 52.4986963 10.26650422 7.0063494 1.4460789 12.9297642 9.2709149 7.5870988 18.3316421-6.0006776 10.1711439-21.4835244 39.056957-25.2426393 45.5685339-1.8606046 3.2229579-11.2470414 1.4159245-9.0422098-3.9935664 4.1102018-10.0842617 6.0189835-35.416888 16.4980718-44.6535373 0 0-35.2410581 6.1205574-50.46372624-.8903579-11.06344233-5.0963527-8.56058428-25.37554027 8.16470844-24.62921862z" fill="#42474f" transform="matrix(-1 0 0 1 234.904188 134.572143)"/><g transform="matrix(-1 0 0 1 214.766325 74.950866)"><path d="m43.7539559 14.9691812s-.0782953-5.62600043 1.8937679-8.56617508c1.9720633-2.94017465 2.0503586-6.0632848 3.5428631-5.96105613 1.4925044.10222866.0146804 7.3614421.0146804 7.3614421s1.8937679-.72195938 3.254149-1.6351695c1.3603811-.91321013 5.4855656-5.41518442 6.4495767-4.61740953 1.6344147 1.35929884-.9982653 9.02693784-2.4320483 10.55987864-1.4386764 1.53343-9.2975688 6.5758955-9.2975688 6.5758955l-19.2493009 19.6422806-3.6141102-9.9784154z" fill="#ffe0d1"/><path d="m1.17443202 13.1135072c3.22309864 7.4600982 9.12467258 21.1645649 11.55762098 25.2532297 3.0489978 5.1204089 7.856861 7.3763469 13.4861233 3.5772476.9962913-.6723943 3.0120672-2.2930663 6.0473278-4.8620161l-5.5095502-12.0997099c-2.3822553 1.9621281-3.573383 2.9431921-3.573383 2.9431921s-6.0488901-15.4734892-10.9147869-24.43710046c-4.21413452-7.75500947-15.99942596-1.71600968-11.09335198 9.62515706z" fill="#ffb66f"/><path d="m23.2450687 27.9334693c1.0830755 3.6659606 1.7512063 5.3928104 2.0043924 5.1805495.253186-.2122609.1564633-2.418156-.2901682-6.6176853z" fill="#000" fill-opacity=".159856"/><path d="m25.3868608 25.6519429 4.6073169 15.3978898 4.8935092-3.8327752-6.810891-13.650437z" fill="#ffedc2"/></g><g transform="matrix(-1 0 0 1 243.398684 30)"><g transform="matrix(.9781476 .20791169 -.20791169 .9781476 9.797493 .420741)"><path d="m15.0163476 2.52384796s-3.1974385-3.39858496-6.88970962-2.30814181c-3.69227115 1.09044314-7.03213463 7.77469688-5.44630017 14.05776515 1.57782519 6.2838821.39245398 7.5769524-1.52176035 11.8117778-5.1419481 11.3918759 8.49783012 20.552412 8.49783012 20.552412l14.86539972-3.1531756-5.3103466-27.7462398z" fill="#42474f"/><path d="m9.60573034 6.05912321c-8.65924545 9.06018369-1.14875019 15.84484739.26577119 17.51193949 4.86275607 13.283847.99439037 14.8406614-4.41721454 19.1891934l2.90988233 3.3179923 8.34144868-3.4797079-.2678817-37.26763879z" fill="#000" fill-opacity=".199355"/></g><path d="m13.0505738 42.4330832s5.2781174-1.0586278 5.4348809-8.447469-.7126287-9.9110137-.7126287-9.9110137l9.9535169-.1792301s.108338 8.234745.1100459 11.2132813c.0041526 7.2421715 5.5900225 8.0822006 5.5900225 8.0822006s-1.1611947 5.7288822-10.1802856 6.2349743c-7.0418985.3957568-10.1955519-6.9927434-10.1955519-6.9927434z" fill="#f9c7b0"/><g transform="matrix(.9781476 .20791169 -.20791169 .9781476 17.210075 2.881985)"><path d="m1.99507084 4.91283337c-1.24093484-4.0934352 5.4284991-6.56946964 7.38813746-3.62041375 0 0 .9606837 2.79502139-1.04209092 4.39072673-2.70963621 2.15208684-6.34604654-.77031298-6.34604654-.77031298z" fill="#fb9934"/><path d="m3.36012407 15.8455964c-4.44024766-.1714601-3.71599167 6.3152068.896592 6.3064007 0 0 2.67905895 9.2146947 11.98040803 9.2146947 7.5538948 0 8.0452886-10.7398977 8.1138077-12.8823716.07371-2.2844075.0830535-9.78928216.0830535-9.78928216l-21.24671632-.00984212z" fill="#ffe0d1"/><path d="m5.68991661 19.8457297c.75597213-.2062329.96062795-4.3949431.96062795-4.3949431 2.26213286-.4481582 2.660414-.9579087 4.36988394-3.7567812 7.5922361 1.6150868 12.7470007 2.1083649 13.4135568 7.6564346 0 0 5.7018479-12.81056842-4.2883644-17.36386761-8.7871598-3.99930098-18.05866942-.24178249-19.67628719 6.74263878-1.14615128 4.93017973.16747438 8.55098773.16747438 8.55098773s1.15104001-1.8294123 3.04050327-1.3724969 1.25663313 4.1442606 2.01260525 3.9380277z" fill="#42474f"/><g stroke-linecap="round"><path d="m14.6082509 24.4359101s1.5285478 2.4649943 4.5104865 1.5907552" stroke="#f77b7b" stroke-width="1.5" transform="matrix(.95105652 -.30901699 .30901699 .95105652 -7.000524 6.450604)"/><path d="m15.9026814 27.3780643c.7000047.2931342 1.3639801.2930861 1.9450204-.0438698" stroke="#f49494" transform="matrix(.99939083 .0348995 -.0348995 .99939083 .96874 -.572206)"/><path d="m3.56527007 19.4437245c.27854546-1.0035764.1545162-1.8802971-.84431332-2.2813078" stroke="#f77b7b" transform="matrix(.97437006 -.22495105 .22495105 .97437006 -4.035081 1.190695)"/></g></g></g><g transform="matrix(-1 0 0 1 246.294382 71.324061)"><path d="m34.240977.87963435c.1213613-.00584208 4.3779343 1.85786468 4.8680667 2.57638591 3.1929768 4.68082028 9.0556208 21.15571554 9.3574391 24.72967564.340052 4.1225747-5.6074122 10.6897524-5.6802805 16.6577706-.0647717 5.9688313 2.5440154 23.9403627 1.5319561 25.6191473-1.0039629 1.6787846-7.6025897 9.6532146-8.9789903 9.6857335-1.3844972.0325188-2.4179165-4.1542806-4.5149034-4.0632278-2.0888905.0910527-6.4447938 5.642017-8.3231759 5.6026059-1.8702857-.041073-21.25324585-12.3104276-19.771591-15.8062018 1.48975133-3.4957742 8.4041406-12.1831797 7.6997473-16.9463753-.69629677-4.7623826-6.25857482-22.3428751-8.26650052-28.3263398-1.99982923-5.9834647-3.61102768-10.74991222.12144712-13.32459059 3.73247479-2.57467836 15.8771867-7.28421791 15.8771867-7.28421791l10.8735654 6.07776932s4.5747469-5.16774618 5.2060332-5.19813497z" fill="#ff9f43"/><path d="m30.3748302 5.90884105c3.2612175 10.83663535 7.736931 21.51443955 9.5296622 31.67585055l-5.214136-2.8070066-4.8092348 3.6412109c.3395223-10.564401-1.4355122-21.6570017-2.2515594-32.51005485z" fill="#fff6e1"/><path d="m11.3262844 14.2296681-.1238267.8763075c-1.46106911 10.8823762.2678853 24.0876573 3.2641523 26.1022929 3.0586891 2.0566072 14.9633975.03839 14.9633975 1.6670921s-16.4515581 16.5548336-13.7508026 23.6902229c1.4849172 3.9231477.9876798 7.4122011-1.4917124 10.4671603l-.7199892-.4835238c-5.61914144-3.8082959-11.58461208-8.670237-10.7380055-10.6676964 1.48975133-3.4957742 8.4041406-12.1831797 7.6997473-16.9463753-.6684449-4.5718873-5.82137815-20.9569447-8.00902745-27.5542209l-.69688289-2.0916866c-.80992511-2.4525336-1.48403362-4.6741516-1.64696967-6.5910145l.50270763-.3257129c8.03529247-5.1468056 11.61759698-4.5276289 10.74721168 1.8571547z" fill="#000" fill-opacity=".159856"/><g fill="#fff6e1"><path d="m16.1544101.76742187 2.0069683-.76742187 11.1122662 5.7632504s-2.0895596 5.3128592-5.7896494 2.66721024c-3.1715055-2.26233731-1.8335266-4.2531622-4.3195244-5.280118-2.4777387-1.0269558-3.0100607-2.38292077-3.0100607-2.38292077z"/><path d="m29.2736446 5.7632504c.8055286 1.78770568 2.4432023 2.83232163 3.2898292 2.50759335 1.3973455-.53639671.7973089-2.67348282 1.3480275-3.75307684.3945446-.7659167.6493546-.88152677.9945812-1.6006894.3205675-.65965745.3338409-1.45141028.2516441-1.6698793l-1.0932173-.49644323c-1.0015181.943745-1.7352529 1.66585251-2.2012046 2.16632253-.5806875.62370566-1.4439075 1.57242995-2.5896601 2.84617289z"/></g></g><g transform="matrix(-1 0 0 1 263 77.663679)"><path d="m33.7453483 28.1264258s6.542201-5.7782147 8.5449157-6.4487693c2.0027146-.6705546 13.7321937-1.4761005 13.6583693.0391279-.0844148 1.6233194-6.3843121 1.5299015-7.0370487 2.3286-.6527366.7982094-.8010859 6.2565534-3.2686281 6.8693944-2.4625972.6128409-9.8454438 1.6692946-9.8454438 1.6692946l-17.6598687 10.628576-.7544895-9.7113091z" fill="#ffe0d1"/><path d="m16.3405146 3.6611356c-6.89260983 9.7075719-12.77735064 24.494571-15.03619816 30.2595973-2.25884753 5.7650263.0197697 14.460519 9.95244906 12.7534191 1.1183273-.1920473 2.9314668-.6734388 5.4394183-1.4441745l2.373785-13.3520603c-2.0411418.8552522-3.0617127 1.2828783-3.0617127 1.2828783s9.8720948-17.4621995 12.2827226-22.1433598c4.0266412-7.81782295-5.8792534-15.90961937-11.9504641-7.3563001z" fill="#ffb66f"/><path d="m16.0082561 33.1607955c-3.342943 1.6294501-4.8042 2.0857968-4.3837713 1.3690402.4204288-.7167566 2.5121827-2.3050528 6.2752616-4.7648888z" fill="#000" fill-opacity=".159856"/><path d="m16.4864704 32.5438318-1.6396837 14.4378554 6.484381-2.056911-.9784938-14.1491408z" fill="#ffedc2"/></g><g transform="matrix(-1 0 0 1 247.053728 131.541066)"><path d="m6.75664514.13371626c-8.74036585 13.14247554-7.88562957 22.64878834 2.56420885 28.51893834 13.38643711 7.5197712 54.67352411-1.2882076 54.67352411-1.2882076s-.7323387 5.8839192 0 11.131666c1.9126885 13.705824 11.009259 36.5404272 12.9338679 39.4096507 2.6615116 3.9678047 10.7690069.9754652 10.921723-2.3283548.1527161-3.3038201-6.1118428-45.4991654-7.0644872-53.5455223-.9477338-8.046847-3.9398376-9.2156807-12.6790093-11.4153401-2.0077027-.5053411-25.7500188-6.39343606-27.9250188-6.22181567-12.4588761.98307917-23.600479-.43725901-33.42480856-4.26101457z" fill="#42474f"/><g fill="#fff" fill-opacity=".192499"><path d="m16.2803841 26.4617315c13.5536385 1.5155383 49.4363367-1.6084091 50.8774662-.1888837 1.3759221 1.3552957 1.1463076 24.9350346 4.2330059 38.5818566-3.0404244-8.2691463-6.3316724-18.7284731-7.3964781-26.3585914-.7323387-5.2477468 0-11.131666 0-11.131666l-1.4019774.2791821c-7.3153716 1.4180261-41.2293798 7.5062521-53.27154671 1.0090255-7.0630897-3.810817-9.79583529-9.7111351-8.19823675-17.7009543 1.92628807 9.4254686 6.97900988 14.5955004 15.15776686 15.5100312z" opacity=".439941"/><ellipse cx="86.565475" cy="23.111959" rx="2.2778" ry="4.168169" transform="matrix(.97437006 .22495105 -.22495105 .97437006 7.417727 -18.880637)"/><ellipse cx="75.934627" cy="20.459767" rx="3.036906" ry="4.547334" transform="matrix(.9612617 -.27563736 .27563736 .9612617 -2.697897 21.722996)"/></g></g><g transform="matrix(.88294759 -.46947156 .46947156 .88294759 133.875704 75.490326)"><path d="m3.71570193 1.90615522 18.84637447 7.56068458c.9121482.36593059 1.5196031 1.2389241 1.545709 2.2213894l.7108065 26.750419c.0361469 1.3603494-1.0373313 2.4924334-2.3976808 2.5285803-.2835843.0075354-.5663401-.0339575-.8358035-.1226496l-19.39538215-6.383861c-1.00567619-.3310117-1.68747105-1.2674728-1.69360491-2.3262058l-.16179881-27.92724249c-.00788395-1.36080679 1.08887671-2.47034986 2.44968349-2.4782338.31910479-.00184876.63553047.05830507.93169671.17711941z" fill="#7596ff" fill-rule="nonzero"/><path d="m4.48219877 2.18570437 18.84313473 6.49036616c.994226.34245313 1.661562 1.27812483 1.661562 2.32967577v26.9818012c0 1.3608296-1.1031704 2.464-2.464 2.464-.2730747 0-.54425-.0453934-.8024381-.1343242l-18.84313477-6.4903662c-.99422594-.3424531-1.66156193-1.2781248-1.66156193-2.3296758v-26.98180117c0-1.36082962 1.10317038-2.464 2.464-2.464.27307469 0 .54424998.04539343.80243807.13432424z" fill="url(#a)"/><path d="m2.39909772 3.14034756 21.43153078 7.09457684v29.0909091l-21.13994108-7.4153898z" fill="#fff" fill-rule="nonzero"/><path d="m9.99029695 2.41375834 7.69572065 2.83598171c.6051346.22300065 1.0172291.78750555 1.0452387 1.43181344l.1084825 2.495433c.0191892.4414109-.3230891.81480105-.7645.83399021-.1059856.0046075-.2118292-.01191072-.3113709-.04859327l-7.6957207-2.8359817c-.60513463-.22300065-1.01722907-.78750556-1.04523869-1.43181344l-.10848248-2.49543301c-.0191892-.44141089.32308912-.81480104.76450001-.83399024.10598559-.00460745.21182914.01191076.31137091.0485933z" fill="#7367f0" fill-rule="nonzero"/><g fill="#a7c3ff"><path d="m15.9851517 14.567309c.3357231 0 .6078804.2713425.6078804.6060606 0 .3108096-.2346663.566974-.5369887.6019832l-.0708917.0040774-9.52911073-3.1743624c-.33572305 0-.60788035-.2713426-.60788035-.6060606 0-.3108096.23466625-.5669741.53698866-.6019832l.07089169-.0040774z"/><path d="m15.9851517 20.627915c.3357231 0 .6078804.2713426.6078804.6060606 0 .3108096-.2346663.5669741-.5369887.6019832l-.0708917.0040774-9.52911073-3.1743624c-.33572305 0-.60788035-.2713425-.60788035-.6060606 0-.3108096.23466625-.566974.53698866-.6019832l.07089169-.0040774z"/><path d="m15.9851517 26.6885211c.3357231 0 .6078804.2713426.6078804.6060606 0 .3108096-.2346663.566974-.5369887.6019832l-.0708917.0040774-9.52911073-3.1743624c-.33572305 0-.60788035-.2713426-.60788035-.6060606 0-.3108096.23466625-.566974.53698866-.6019832l.07089169-.0040774z"/></g></g><g transform="translate(57 129)"><g transform="translate(8.649351)"><path d="m69.647522 3.79880597h15.3084829v96.69468703h-15.3084829z" fill="#d2d2d2"/><path d="m69.647522 0h9.1850897v100.493493h-9.1850897z" fill="#ebebeb"/><path d="m0 3.79880597h75.77699v29.00185203h-60.4685072v67.692835h-15.3084828z" fill="#d2d2d2"/><path d="m0 3.79880597h9.18508969v96.69468703h-9.18508969z" fill="#ebebeb"/></g><path d="m198.150356 3.79880597h15.308483v96.69468703h-15.308483z" fill="#c5c5c5"/><path d="m128.502834 3.79880597h75.77699v35.90000123h-60.468507v60.7946858h-15.308483z" fill="#d2d2d2"/><path d="m20.8900621 0h116.7089569v39.6281791h-116.7089569z" fill="#ebebeb"/><path d="m126.206561 3.79880597h9.18509v35.82937313h-9.18509z" fill="#c3c3c3"/><path d="m128.502834 3.79880597h9.185089v96.69468703h-9.185089z" fill="#ebebeb"/><path d="m137.299188 0h78.887182c3.147034 0 5.698209 2.55117505 5.698209 5.69820896 0 3.1470339-2.551175 5.69820894-5.698209 5.69820894h-78.887182c-3.147034 0-5.698209-2.55117504-5.698209-5.69820894 0-3.14703391 2.551175-5.69820896 5.698209-5.69820896z" fill="#c5c5c5"/><path d="m11.7938766 2.27928358h116.7089574v11.39641792h-116.7089574z" fill="#d2d2d2"/><path d="m6.16375037 0h133.48020563c3.147034 0 5.698209 2.55117505 5.698209 5.69820896 0 3.1470339-2.551175 5.69820894-5.698209 5.69820894h-133.48020563c-3.14703391 0-5.69820895-2.55117504-5.69820895-5.69820894 0-3.14703391 2.55117504-5.69820896 5.69820895-5.69820896z" fill="#ebebeb"/></g><g transform="matrix(-1 0 0 1 219 117)"><path d="m5.19568465 1.43081857h-3.8495308c-.74346024 0-1.34615385.58762627-1.34615385 1.3125v1.79778087c0 1.71776069 1.42822582 3.11028087 3.19003166 3.11028087h2.00565299c.31862582 0 .57692308-.25183983.57692308-.5625s-.25829726-.5625-.57692308-.5625h-2.00565299c-1.1245542 0-2.03618551-.88884052-2.03618551-1.98528087v-1.79778087c0-.10355339.08609909-.1875.1923077-.1875h3.8495308c.31862582 0 .57692308-.25183983.57692308-.5625s-.25829726-.5625-.57692308-.5625z" fill="#8c81ff"/><path d="m17.9788065 0c.8496689 0 1.5384616.67157288 1.5384616 1.5v3.75c0 2.69994814-2.0903679 4.9238705-4.7792282 5.2171887l-.0006474.7828113h-6.73432229l-.00036273-.7998867c-2.62109925-.353855-4.63928556-2.54719-4.63928556-5.2001133v-3.75c0-.82842712.68879269-1.5 1.53846154-1.5z" fill="#7367f0"/><path d="m3.45192308 10.5h15.40384612c.2071068 0 .375.1678932.375.375 0 .2109183-.1637382.385612-.3742149.3992533l-5.6606855.366875h-4.03846153l-5.70625762-.3670561c-.21045567-.0135376-.37422657-.1881816-.37422657-.3990722 0-.2071068.16789322-.375.375-.375z" fill="#8c81ff"/></g><g transform="translate(108 95)"><path d="m5.02733468 31.5850752h73.88773062c.5777024 0 1.0460227.4683203 1.0460227 1.0460227 0 .5777023-.4683203 1.0460227-1.0460227 1.0460227h-73.88773062c-.57770238 0-1.04602268-.4683204-1.04602268-1.0460227 0-.5777024.4683203-1.0460227 1.04602268-1.0460227z" fill="#8c81ff"/><path d="m55.0781141 31.5850752h23.8369512c.5777024 0 1.0460227.4683203 1.0460227 1.0460227 0 .5777023-.4683203 1.0460227-1.0460227 1.0460227h-23.8369512c-.5777024 0-1.0460227-.4683204-1.0460227-1.0460227 0-.5777024.4683203-1.0460227 1.0460227-1.0460227z" fill="#7367f0"/><path d="m4.09537739 0h44.33788261c1.8097853 0 3.3382444 1.34357648 3.5702868 3.13842446l3.1642299 24.47531824c.2549212 1.971815-1.1368963 3.7769413-3.1087113 4.0318624-.1530625.0197883-.3072391.0297132-.4615755.0297132h-44.33788261c-1.80978532 0-3.33824442-1.3435765-3.57028682-3.1384245l-3.1642299-24.47531826c-.25492113-1.97181496 1.13689631-3.77694123 3.10871128-4.03186237.15306253-.0197883.30723917-.02971317.46157554-.02971317z" fill="#7367f0"/><path d="m4.09537739 0h42.69985711c1.8097853 0 3.3382444 1.34357648 3.5702868 3.13842446l3.1642299 24.47531824c.2549211 1.971815-1.1368963 3.7769413-3.1087113 4.0318624-.1530625.0197883-.3072391.0297132-.4615755.0297132h-42.69985711c-1.80978532 0-3.33824442-1.3435765-3.57028682-3.1384245l-3.1642299-24.47531826c-.25492113-1.97181496 1.13689631-3.77694123 3.10871128-4.03186237.15306253-.0197883.30723917-.02971317.46157554-.02971317z" fill="url(#a)"/><ellipse cx="26.186068" cy="16.341677" fill="#fff" rx="3.248711" ry="3.535873" transform="matrix(.79863551 -.60181502 .60181502 .79863551 -4.561722 19.049803)"/></g><g transform="translate(243 135)"><path d="m23.9793783 58.2341343c6.3663744-14.2432626 12.1501329-28.8713538 17.4449585-43.8223942-12.1961774 11.3682746-21.6802874 25.2181694-20.3297588 43.8223942z" fill="#57e295"/><path d="m20.5861446 59.72149c-1.5068006-24.2865105-.8683-46.841887 11.760867-59.72149-1.7419993 26.6653355-5.0006274 45.4498771-9.1277513 59.72149z" fill="#28c76f"/><path d="m20.0066999 57.1923582c-7.0558789-16.9714923-14.14597669-21.8363397-20.0066999-39.2573041 19.1807249 9.836129 20.3830768 17.9582138 24.1479585 39.2573041z" fill="#57e295"/><path d="m16.209218 57.1923582-12.65775455-16.9714923c6.11316809 1.7233361 16.33117225 4.5139679 16.33117225 16.9714923z" fill="#28c76f"/><path d="m28.0478916 57.1923582h4.2226181c2.6833844-5.5410726 6.4648097-9.3556391 15.6130812-4.731637-5.9966202-9.0332259-18.3004473-11.7670089-19.8356993 4.731637z" fill="#57e295"/><path d="m24.1637103 57.1923582h3.5114422c6.444551-9.11445 9.2153887-13.0858879 15.8846296-20.869421-8.7856527 3.2969875-17.8038887 7.7835331-19.3960718 20.869421z" fill="#28c76f"/><g transform="translate(7.384615 55.8125)"><use fill="#7367f0" xlink:href="#b"/><path d="m-4.28173518-.97787188h15.90358778c-7.61381537 17.43620708 7.4048826 27.76198148 0 45.13254848h-15.90358778z" fill="#857af9" mask="url(#d)"/></g></g></g></svg>