<svg height="209" viewBox="0 0 170 209" width="170" xmlns="http://www.w3.org/2000/svg"><g fill="none" fill-rule="evenodd" transform="matrix(-1 0 0 1 170 0)"><path d="m38.11136 127.5h61.88864v66c0 2.209139-1.790861 4-4 4h-78c-2.209139 0-4-1.790861-4-4v-41.88864c0-13.316336 10.7950236-24.11136 24.11136-24.11136z" fill="#dfdfdf"/><path d="m22 188.5h62v9h-62z" fill="#d1d1d1"/><path d="m102.069584 198.5 3.930416 10h-19l3.2925852-10z" fill="#dfdfdf"/><path d="m37.0695843 197.5 3.9304157 11h-19l3.2925852-11z" fill="#f1f1f1"/><path d="m166.069584 198.5 3.930416 10h-19l3.292585-10z" fill="#dfdfdf"/><path d="m86.5803656 54.7956067 13.4196344-.2956067v80h-37v-55.598881c0-13.1094233 10.4741217-23.816809 23.5803656-24.1055123z" fill="#dfdfdf"/><path d="m94.11136 54.5h54.04864c12.061899 0 21.84 9.7781011 21.84 21.84v57.4128c0 .964952-.782248 1.7472-1.7472 1.7472h-98.2528v-56.88864c0-13.3163364 10.7950236-24.11136 24.11136-24.11136z" fill="#f2f2f2"/><path d="m156 54.5c7.731986 0 14 6.2680135 14 14v57.2528c0 .964952-.782248 1.7472-1.7472 1.7472h-26.2528v-59c0-7.7319865 6.268014-14 14-14z" fill="#dfdfdf"/><path d="m34.6 135.5h61.4v53h-74v-40.4c0-6.958788 5.6412122-12.6 12.6-12.6z" fill="#f2f2f2"/><g transform="matrix(-1 0 0 1 107.358733 .878756)"><path d="m8.1469457 46.3186884c-9.9321599-2.3146729-10.58628002-15.957627-3.03511735-20.690138-7.78743878-16.33651853 10.22108275-32.55655759 22.55675745-22.55339719 8.0869862-3.46413819 14.8073767 10.05364009 7.2823788 20.55240969 3.155096 18.0266931-3.2661605 22.6864123-14.8414701 22.884364z" fill="#33373e"/><path d="m8.27051177 43.0603672s4.83152243-1.1350886 4.99913573-9.0575983c.1676133-7.9225098.049951-10.6268494.049951-10.6268494l10.6424154-.1921753s.1160092 8.82951.1176624 12.023175c.00444 8.5777466 5.9769168 7.853448 5.9769168 7.853448s-1.2415629 6.955158-10.8848792 7.4978033c-7.5292794.4243408-10.90120213-7.4978033-10.90120213-7.4978033z" fill="#edc2c2"/><path d="m10.8387307 19.4197633c-4.74756419-.183844-3.9731813 6.7713307.9586465 6.7618886 0 0 2.8644809 9.8802379 12.8095909 9.8802379 8.0767118 0 8.6021157-11.5156006 8.6753771-13.8128174.0788116-2.4494019.0888018-10.4963257.0888018-10.4963257l-22.717235-.010553z" fill="#ffd7d7"/><g stroke-linecap="round"><path d="m22.8656637 28.6327248s1.6325971 2.6409678 4.8225534 1.7011953" stroke="#f77b7b" stroke-width="1.5" transform="matrix(.95105652 -.30901699 .30901699 .95105652 -7.904949 9.258969)"/><path d="m24.2493638 31.7850762c.7484866.3143787 1.4584191.314397 2.0796409-.0468337" stroke="#f49494" transform="matrix(.99939083 .0348995 -.0348995 .99939083 1.127889 -.863161)"/><path d="m11.0573784 23.2772966c.2985297-1.076092.1664766-2.0159192-.9013709-2.4451723" stroke="#f77b7b" transform="matrix(.97437006 -.22495105 .22495105 .97437006 -4.687603 2.966861)"/></g><path d="m10.0875813 18.5604193s2.6022031 3.4942967 3.1293107 3.5128565c.5271076.0185597.7116827-4.5445093.7116827-4.5445093 3.1921062-.2440357 11.2706658-1.8539389 13.2509672-5.6044251 1.3848819 3.3092134 4.0322342 4.7791028 5.7716387 4.4968384l.3296766 7.030426.8119018-14.13414404h-24.64165699z" fill="#33373e"/></g><g transform="matrix(-1 0 0 1 103.959633 107.75)"><path d="m53.4969269 75.899687s-4.2591243 8.6086018-.7676056 11.3213826c3.4967692 2.7133063 12.7332767 7.7978658 12.7332767 7.7978658l-24.4705639-1.5389764 5.4394187-18.7750935z" fill="#ffd7d7"/><path d="m43.3590324 84.0921504c1.2075929.1413399-.0820957 4.210059 2.5326056 4.5195357 2.6094509.3089512 3.8777287-3.545844 6.8389567-2.3237752 2.9612279 1.2220687 13.7609699 7.5403313 14.1862527 10.1233316.4305331 2.582475-3.5931873 3.3423946-9.1113621 2.7591704-5.5181747-.5832243-6.535253-2.5477985-10.6778219-1.756505-4.1373185.790768-7.2367141-.4698036-7.1002035-3.4952137.1365105-3.0248846 2.1239795-9.9673583 3.3315725-9.8265438z" fill="#2b2e35"/><path d="m54.081263 86.9147063-.4262103.6396132c-.3062538.4595944-.1819465 1.0804371.2776479 1.3866908.021771.0145073.0441029.0281546.0669441.0409104l7.0383464 3.9306128c.2907778.1623868.6433169.1693531.9402828.0185803l1.0450017-.5305586c-1.7798293-1.2900459-3.2352412-2.2593301-4.8435515-3.2110755-1.2347201-.7306668-2.6017063-1.4839428-4.0984611-2.2747734z" fill="#fff" fill-opacity=".540975"/><path d="m16.6345894.02568881c7.4083202.33101916 48.6409437 9.45749179 56.1322136 11.00801569 7.4912699 1.5505238 13.8246535 9.9405187 8.1122138 19.6556685-6.4159939 10.9057679-22.9704329 41.8778959-26.9897221 48.8597798-1.9893799 3.4557402-12.0254667 1.5181915-9.6680353-4.2820069 4.3946753-10.8126104 6.4355668-37.9749182 17.6399293-47.8786964 0 0-37.6801472 6.5626225-53.95640013-.9546651-11.82916058-5.4644433-9.15307578-27.20832129 8.72980083-26.40809559z" fill="#33373e"/></g><g transform="matrix(-1 0 0 1 81.616094 46.26)"><path d="m46.782236 17.6753496s-.0837143-6.0323456 2.0248386-9.18487813c2.1085529-3.15253254 2.1922671-6.50121334 3.7880702-6.39160108 1.595803.10961226.0156964 7.89313172.0156964 7.89313172s2.0248386-.77410382 3.4793738-1.75327172c1.4545353-.9791679 5.8652302-5.80630307 6.895962-4.95090787 1.7475352 1.45747595-1.0673568 9.67891998-2.6003741 11.32257948-1.5382495 1.6441839-9.9410681 7.050848-9.9410681 7.050848z" fill="#ffd7d7"/><path d="m1.2557163 14.0606471c3.44617437 7.9989134 9.7562056 22.6932028 12.3575422 27.0771767 3.2600236 5.490237 8.4006466 7.909113 14.419519 3.8356189 6.3243505-4.2803214 23.7386456-20.974851 24.2493667-24.7564942.505948-3.7816431-3.7564255-8.3189462-7.6130861-5.9698088-3.8566605 2.3491375-19.881985 15.6952625-19.881985 15.6952625s-6.4675433-16.5910818-11.6702165-26.20210149c-4.50580138-8.315125-17.10677137-1.83995068-11.8611403 10.32034639z" fill="#675cd7"/><path d="m24.8538965 29.9510001c1.1580368 3.9307392 1.87241 5.782313 2.1431195 5.5547213s.1672924-2.5928105-.3102512-7.0956562z" fill="#000" fill-opacity=".302803"/></g><g transform="matrix(.95105652 -.30901699 .30901699 .95105652 11.513184 46.090021)"><path d="m2.83401927 1.00879985h8.83995063c1.3254834 0 2.4 1.0745166 2.4 2.4v22.49999995c0 1.3254834-1.0745166 2.4-2.4 2.4h-8.83995063c-1.3254834 0-2.4-1.0745166-2.4-2.4v-22.49999995c0-1.3254834 1.0745166-2.4 2.4-2.4z" fill="#7596ff" fill-rule="nonzero"/><path d="m1.461423.65h13.639951v27.3h-13.639951z" fill="#93c2f9"/><path d="m3.89946706 1.625h1.03447156c.21074697 0 .38602479.15197337.4223736.35238404l.00691644.07722228c0 .23726502.19219969.42960632.42929003.42960632h4.98820281c.210747 0 .3860248-.15197337.4223736-.35238404l.0069164-.07722228c0-.23726502.1921997-.42960632.4292901-.42960632h1.02925c.7645765 0 1.3916265.58925494 1.45242 1.33871911l.0048302.12089499-.0196191 22.2003453c-.0024077.9686519-.7873184 1.7534465-1.7552589 1.7550016h-8.18397038c-.92643545.0014817-1.68508634-.7173542-1.74930468-1.6281161l-.00440326-.1253348c0-.0005173 0-.0010347.00155095-.0015507l.01961451-22.19511993c.00071513-.80921797.6564336-1.46483947 1.46505612-1.46483947z" fill="#e6f3ff" fill-rule="nonzero"/></g><g transform="matrix(-1 0 0 1 114.800778 42.533012)"><path d="m0 8.14953369s8.30470904 27.82844241 8.55065821 33.09615601c.24594916 5.2682373-6.79238333 20.7514087-5.59403527 24.6648816 2.76300339 9.0434582 38.03839326 12.9375549 39.38611856.7719067.6285359-5.673669-.6794921-10.7658471.8276007-17.451167 1.5018598-6.6853198 7.5387058-16.6197984 4.114693-25.9599463-3.4240127-9.3401478-2.5065883-17.98123682-4.955614-19.6144958-2.4490257-1.63325899-8.173885-3.36779663-8.173885-3.36779663-2.7839352 4.09990356-12.1823331 4.04020385-16.6669807-.28907227 0 0-11.14097386 2.16280518-17.4885555 8.14953369z" fill="#7367f0"/><path d="m7.44204499 12.6566474c5.53571581 8.7915519 5.51907311 24.0984684 8.49215111 26.1031487 2.9730781 2.0046802 14.5445799.0374207 14.5445799 1.625 0 1.5875792-15.9910876 16.1368433-13.3659248 23.0920724 1.3745838 3.6418869 1.0017184 6.9000013-1.1185963 9.7743432l-.6921031-.1509299c-6.30061855-1.4249691-11.36603438-3.9837725-12.34552886-7.1897105-1.19834806-3.9134729 6.65188625-19.3966443 6.40593709-24.6648816-.20877853-4.4715968-6.80956003-25.1999566-8.79996191-31.36323372 1.62050217-2.86109048 3.91325862-1.93656306 6.87944687 2.77419142z" fill="#000" fill-opacity=".199355"/></g><g transform="matrix(-1 0 0 1 134 48.35625)"><path d="m36.0809169 30.1578931s6.9949971-6.1955537 9.1363227-6.91454c2.1413257-.7189863 14.6826205-1.5827138 14.6033121.041954-.0898828 1.7405656-6.8258059 1.6404005-7.5237194 2.4967861-.6979136.8558611-.8565303 6.708441-3.4948549 7.3655452-2.6330375.6571042-10.5268626 1.7898616-10.5268626 1.7898616z" fill="#ffd7d7"/><path d="m17.4714673 3.92556582c-7.3696582 10.40871378-13.66169115 26.26372288-16.07687707 32.44513558-2.41518591 6.1814128.02113799 15.5049487 10.64127367 13.6745512 10.6010433-1.8256209 27.4682085-11.7452128 29.3344886-14.6388839 1.86628-2.8936712-.9689383-8.1589981-4.5392131-7.4697331-3.3077546.6376777-19.7149267 7.619241-19.7149267 7.619241s10.555358-18.7234293 13.1328291-23.7426925c4.3053314-8.38247521-6.2861657-17.05871203-12.7775745-7.88761828z" fill="#675cd7"/><path d="m17.283271 35.4278634c-3.6856855 1.8324813-5.3037646 2.3644594-4.8542373 1.5959341.4495273-.7685252 2.7708424-2.5027763 6.9639452-5.2027533z" fill="#000" fill-opacity=".302803"/></g><g transform="matrix(-1 0 0 1 116.13816 104.5)"><path d="m91.4076631 79.4952998s-.1283995 10.132339 8.2144928 13.9206694c8.3376421 3.787805 14.2779421 3.5597696 13.5218841 6.4885011-.756058 2.9282057-22.4581592 2.8099867-24.4848153.5196497-1.7273829-1.9482846-5.4836721-20.090762-6.5180017-18.7036341z" fill="#ffd7d7"/><path d="m84.8069282 90.8371723c.9316722-1.8014123.99024 3.2663055 4.6650626 2.1494478 2.9822296-.9063637 4.0016645-6.0934263 5.8861566-4.9574061 1.884492 1.1360203 18.4722666 9.9449099 18.5667736 9.9979781 2.042407 1.10077 1.471614 4.4361089-1.977902 5.0182819-3.832795.646276-23.6925987.211224-24.7584307-.811258-1.0658321-1.022481-3.1287611-9.9525044-2.3816601-11.3970437z" fill="#2b2e35"/><path d="m97.8117334 91.0588899c-.5318155 0-.9629372.4311217-.9629372.9629371 0 .3901227.2353867.7416966.5960726.8903618l8.6901382 3.5806838c.332857.137124.713863-.0215232.85101-.3543711.070347-.1707292.064981-.3632841-.014765-.5298305-.16181-.3379314-8.5345695-4.5497811-9.1595186-4.5497811z" fill="#fff" fill-opacity=".540975"/><path d="m4.78857772.14337409c-7.1802288 15.17504101-5.725067 25.36795951 4.36548541 30.57875531 14.63759427 7.5589038 58.45756467-1.38125 58.45756467-1.38125s-.783025 6.3088928 0 11.9356648c2.0450688 14.6957448 11.7712272 39.1796066 13.8290413 42.2560635 2.845719 4.2543844 11.5143468 1.0459194 11.6776327-2.4965233.1632858-3.5424427-6.5348531-48.7854011-7.5534315-57.4129165-1.013328-8.6280408-4.21252-9.8812951-13.5565436-12.2398277-2.1466589-.54184-27.5322181-6.85521018-29.8577532-6.67119429-13.3211745 1.05408334-25.7751731-.4688406-37.36199578-4.56877182z" fill="#42474f"/><path d="m16.5952732 28.3729641c14.4917072 1.625 52.8579034-1.7245785 54.3987757-.2025261 1.4711103 1.4531426 1.2256593 26.7345703 4.525699 41.36724l-.5018795-1.381778c-3.1035609-8.6262717-6.3261557-19.1179284-7.4062406-26.8793558-.783025-5.626772 0-11.9356648 0-11.9356648l-1.7668747.3422557c-8.329692 1.5657948-43.809607 7.6908297-56.69068997 1.0389943-6.97941162-3.6041921-9.82749477-9.5919225-8.54424944-17.9631914 2.20968406 9.4619178 7.53815671 14.6668038 15.98545951 15.6140261z" fill="#52565e"/></g><path d="m108.11136 127.5h61.88864v68.2528c0 .964952-.782248 1.7472-1.7472 1.7472h-84.2528v-45.88864c0-13.316336 10.7950236-24.11136 24.11136-24.11136z" fill="#dfdfdf"/></g></svg>