<svg height="200" viewBox="0 0 358 200" width="358" xmlns="http://www.w3.org/2000/svg" xmlns:xlink="http://www.w3.org/1999/xlink"><defs><path id="a" d="m7.9517939.06430827h17.7386172c.6756391 0 1.2233529.53884081 1.2233529 1.20353463v3.30972022c4.4856273 5.56634768 6.728441 11.13269528 6.728441 16.69904288 0 5.3949049-1.9152587 10.7898097-5.745776 16.1847145-.2288473.3223036-.6032805.5143285-1.0029053.5143285h-20.1448477c-.39962503 0-.77405844-.1920276-1.00290335-.5143331-3.8305151-5.3949033-5.74577265-10.7898066-5.74577265-16.1847099 0-5.4613222 2.15897762-10.9226444 6.47693287-16.3839666l.25150812-.31507628v-3.30972022c0-.66469382.54771375-1.20353463 1.22335291-1.20353463z"/><linearGradient id="b"><stop offset="0" stop-color="#752e73"/><stop offset="1" stop-color="#222735"/></linearGradient><linearGradient id="c" x1="37.550627%" x2="37.550627%" xlink:href="#b" y1="102.348422%" y2="13.406603%"/><linearGradient id="d" x1="49.140922%" x2="51.897318%" xlink:href="#b" y1="69.517809%" y2="4.779891%"/><linearGradient id="e"><stop offset="0" stop-color="#fdc6c6"/><stop offset="1" stop-color="#ffcca1"/></linearGradient><linearGradient id="f" x1="46.146404%" x2="50%" xlink:href="#e" y1="-28.185925%" y2="91.050481%"/><linearGradient id="g"><stop offset="0" stop-color="#fdc6c6"/><stop offset="1" stop-color="#fab2b2"/></linearGradient><linearGradient id="h" x1="46.570779%" x2="50%" xlink:href="#g" y1="-28.185925%" y2="91.050481%"/><linearGradient id="i" x1="45.662218%" x2="50%" xlink:href="#g" y1="-28.185925%" y2="91.050481%"/><linearGradient id="j" x1="44.188998%" x2="50%" xlink:href="#e" y1="-28.185925%" y2="91.050481%"/><linearGradient id="k" x1="42.314264%" x2="50%" xlink:href="#e" y1="-8.512591%" y2="80.721259%"/><mask id="l" fill="#fff"><path d="m6 0h346c3.313708 0 6 2.6862915 6 6v194h-358v-194c0-3.3137085 2.6862915-6 6-6z" fill="#fff" fill-rule="evenodd"/></mask><mask id="m" fill="#fff"><use fill="#fff" fill-rule="evenodd" xlink:href="#a"/></mask></defs><g fill="none" fill-rule="evenodd" mask="url(#l)"><g transform="translate(64.5 110)"><path d="m23.9793783 58.2341343c6.3663744-14.2432626 12.1501329-28.8713538 17.4449585-43.8223942-12.1961774 11.3682746-21.6802874 25.2181694-20.3297588 43.8223942z" fill="#57e295"/><path d="m20.5861446 59.72149c-1.5068006-24.2865105-.8683-46.841887 11.760867-59.72149-1.7419993 26.6653355-5.0006274 45.4498771-9.1277513 59.72149z" fill="#28c76f"/><path d="m20.0066999 57.1923582c-7.0558789-16.9714923-14.14597669-21.8363397-20.0066999-39.2573041 19.1807249 9.836129 20.3830768 17.9582138 24.1479585 39.2573041z" fill="#57e295"/><path d="m16.209218 57.1923582-12.65775455-16.9714923c6.11316809 1.7233361 16.33117225 4.5139679 16.33117225 16.9714923z" fill="#28c76f"/><path d="m28.0478916 57.1923582h4.2226181c2.6833844-5.5410726 6.4648097-9.3556391 15.6130812-4.731637-5.9966202-9.0332259-18.3004473-11.7670089-19.8356993 4.731637z" fill="#57e295"/><path d="m24.1637103 57.1923582h3.5114422c6.444551-9.11445 9.2153887-13.0858879 15.8846296-20.869421-8.7856527 3.2969875-17.8038887 7.7835331-19.3960718 20.869421z" fill="#28c76f"/><g transform="translate(7.384615 55.8125)"><use fill="#7367f0" xlink:href="#a"/><path d="m-4.28173518-.97787188h15.90358778c-7.61381537 17.43620708 7.4048826 27.76198148 0 45.13254848h-15.90358778z" fill="#857af9" mask="url(#m)"/></g></g><g transform="translate(156.03239 64.458418)"><path d="m34.8512598 12.5174447s-.0623644-3.93264783 1.5084396-6.25712109 1.6331685-4.79357354 2.8219904-4.71275256.0116933 5.81988398.0116933 5.81988398 1.5084396-.57077401 2.5920215-1.29274898c1.0835819-.72197498 4.3694077-4.28119173 5.1372697-3.65047872 1.3018574 1.07464834-.7951464 7.13660856-1.937195 8.34853657-1.1459464 1.2123147-7.4057758 5.1988385-7.4057758 5.1988385-12.4733038 11.3346856-19.4901913 16.958777-21.0506624 16.8722741-1.5604711-.0865028-5.0600935-4.6621968-10.49886709-13.727082l8.46943199-4.7394359 4.3701418 7.6422455z" fill="#ffd7d7"/><path d="m.93546822 10.3674103c1.20625288 2.7711471 2.88350047 6.6321453 4.52386135 10.2823755 1.85084767 4.1186183 11.67048453-1.9636876 9.83983923-6.2096584-1.6461475-3.8180497-3.6924571-8.32702579-5.52753287-11.68227197-3.35667699-6.13103448-12.74399399-1.35666043-8.83616771 7.60955487z" fill="#655ad7"/><path d="m13.9193741 11.2976082c.3005056.6712539.5944784 1.3369518.8791442 1.9887235-2.4479775 3.5448434-6.13408461 5.6274497-9.85737616 6.2070754l-.7616897-1.7148456c3.56938428-.40328 7.36847956-2.4405765 9.61558256-6.2653386z" fill="#eedfe8"/></g><g transform="translate(139.695554 32)"><path d="m2.51047969 27.0606496s3.09542265-.7197691 3.20280787-5.7434982.03200222-6.7385732.03200222-6.7385732l7.33846392-.1218599s.0740764 5.5988656.075383 7.6239949c.0028447 4.4087942 3.3085571 6.1152216 3.3085571 6.1152216s-.2747469 4.3054641-6.4529527 4.6495599c-4.82380084.2690781-7.50426141-5.7848451-7.50426141-5.7848451z" fill="#f8c9c9"/><g transform="translate(.3051)"><path d="m4.76636489 12.039192c-3.04163294-.116577-2.54550727 4.2937569.6141783 4.2877696 0 0 3.39571348 6.7628058 8.72691331 6.7803773 2.5680001.0084291 3.4064582-2.2572502 4.1762893-3.847769s1.334848-3.9696053 1.3817846-5.4262895c.0504924-1.553186.0568928-6.65580712.0568928-6.65580712l-7.8753794-3.6099903-7.19908712 3.60329857z" fill="#ffd7d7"/><path d="m13.974483 20.4457608c.4792801.1988847 1.0124576.0812222 1.4106502-.1482653" stroke="#f49494" stroke-linecap="round" transform="matrix(.9945219 .10452846 -.10452846 .9945219 2.215127 -1.422582)"/><path d="m.91188821 7.66141435c1.95514962-.7358944 3.7095206-2.40908047 6.04387658-5.22796287 2.33435597-2.81888241 4.21564671-2.78155443 5.82461071-1.78436419 1.6084314.99719023 9.5502806-2.73027487 8.9372659 4.20206367-.6135474 6.93767114-2.0456176 7.28428804-2.0456176 7.28428804s.0137187-4.08146074-1.0559089-3.95881167c-1.5775619.18089144-1.5070024.99514411-2.841681.62719691-1.3352111-.3679472-4.3587427-3.31685736-5.3541594-.93319942-.99541666 2.38365798-2.43608125 6.69646518-3.27811109 6.55248588-.84256244-.1493119-.7479698-1.8081419-2.11784218-2.2876717-.77438609-.2710772-1.81228364.4174638-1.81228364.4174638s-4.25583159-4.16092662-2.30014938-4.89148845z" fill="#9e5229"/><g stroke="#de6767" stroke-linecap="round"><path d="m13.1662029 18.8038051s1.0742183 1.3284791 3.114928.7374359" transform="matrix(.96592583 -.25881905 .25881905 .96592583 -4.480129 4.466635)"/><path d="m5.0724778 14.6322784c.18961232-.6822867.10370123-1.2787411-.58070197-1.552613" transform="matrix(.97437006 -.22495105 .22495105 .97437006 -2.993227 1.440723)"/></g></g></g><g transform="translate(143.875474 100.805507)"><path d="m0 0s5.19004845 56.2784649 5.35148185 60.1906622c.16143341 3.9121974-1.66695993 10.6638019-1.63140191 17.9817381.03555802 7.3179363.02489062 24.4286927.6677796 31.0485757.41531766 4.279538 10.75238936 3.811922 11.44897096.238538 1.1353675-5.82392 4.8117111-44.5462506 4.8636258-51.5352354.0515591-6.9889849.4928342-57.25158352.4928342-57.25158352z" fill="url(#c)"/><g fill="#fff" fill-opacity=".192499"><path d="m8.25256717 61.9424729.01264764.1392386c.17235506 2.3857342-1.33222144 10.2351138-4.51372951 23.5481389l-.03140536-7.4574501c-.03492305-7.1872588 1.72812993-13.8282314 1.63816854-17.7694527l-.00676663-.2122854c-.05440305-1.3184105-.67990089-8.5840056-1.48539713-17.6386524l.37596788 1.3261285c2.2074383 7.8549203 3.54423745 13.8765211 4.01051457 18.0643346z"/><ellipse cx="17.340756" cy="60.867237" rx="2.548733" ry="4.327903" transform="matrix(.99862953 .05233596 -.05233596 .99862953 3.20931 -.824129)"/></g></g><g transform="translate(124.302445 100.523327)"><path d="m10.0374351.73923037s-3.61066286 38.61486083-3.56159279 46.00957583c.04907006 7.3950673 1.11118809 10.6426701-.4003833 15.9474518-1.51192696 5.3047818-2.89316209 41.273683-2.80115914 46.101197.09053202 4.750332 10.82807713 4.473448 11.17913643 1.214877.6716608-6.234432 7.1417773-43.7627647 7.9183644-50.0445393.7765871-6.2817745 10.3751188-59.76143545 10.3751188-59.76143545z" fill="url(#d)"/><g fill="#fff" fill-opacity=".192499"><path d="m13.0567754 26.9477036-.6818534 2.4509485c-1.9965727 7.2332421-3.83946848 14.8824246-3.35705896 25.8091577l.02353671.4989369c.11878515 2.3669607-1.39770698 16.1039615-4.54947641 41.2110026l-.29978787 1.7646176c-.30915329 1.7997271-.58432114 3.3353521-.82550356 4.6068761l.06849973-2.223686c.4018819-12.2733108 1.48280302-34.3079823 2.64032737-38.369299 1.51157139-5.3047817.44945336-8.5523845.4003833-15.9474518-.03434905-5.1763005 1.72457103-25.6504725 2.78301449-37.4691086l.7785783-8.54046723 4.7189102-.11056463.0114095 1.31542875c.0831509 12.14137641-.4871755 20.47591281-1.7109794 25.00360911z"/><ellipse cx="18.209584" cy="60.512445" rx="2.912705" ry="4.688781" transform="matrix(.9961947 .08715574 -.08715574 .9961947 5.3433 -1.356802)"/></g></g><g transform="translate(130.544402 58.791075)"><path d="m24.8674034.65619236s8.27434 4.00594855 8.982869 6.35554056 3.081302 48.44181368 3.081302 48.44181368c-11.6752791 5.3395008-23.4618986 5.8051857-35.3710456.9154942 0 0-2.10782124-49.24617853-.74137247-51.4211387 1.10381358-1.76219401 11.32615627-4.9479021 11.32615627-4.9479021l8.3222856 5.34479264z" fill="#7367f0"/><path d="m6.86270822 12.4889223c.53628169.9457896.25983054 4.2225359-.82935345 9.8302389-.92793522 4.7775079.13305168 9.7196638 2.93437804 13.7067089l.15741813.2205128c.94735126 1.3062285 1.82070086 3.0261027 2.62004866 5.1596228 1.9778996 5.2791641-2.64210834 9.6720977.9979393 17.9994551-3.71532877-.4935995-7.44292839-1.5009708-11.1826101-3.03642l-.22222132-5.4961359c-.3946364-10.1328793-1.15709933-31.5978114-.94262038-41.1911998l.48409985.08990554c3.325318.64189756 5.31963496 1.54753606 5.98292127 2.71731166z" fill="#000" fill-opacity=".159856"/><path d="m12.1453126 0 8.3222856 5.34479264 4.3998052-4.68860028.6285825.31391208c.2509729.12761738.5665435.29040364.9271197.48135527l-5.5583697 6.27673502-10.6278426-7.11496571.7968984-.26342869c.6797023-.22051118 1.1115209-.34980033 1.1115209-.34980033z" fill="#eedfe8"/></g><g transform="translate(116.5 62.397566)"><path d="m26.528314 22.2364766s5.2110477-4.5681999 6.8062663-5.0983338c1.5952187-.5301339 10.9380796-1.1669907 10.8792764.0309341-.0672388 1.2833804-5.0852846 1.2095251-5.6052078 1.8409683-.5199231.6310566-1.1582504 5.4615828-3.1237174 5.9460889-1.9615281.484506-6.8018477 1.319728-6.8018477 1.319728-15.0855557 10.107587-24.43305489 13.0146598-28.04249767 8.7212182-1.43912561-1.7118436.65518707-8.2254072 6.28293804-19.5406908h11.34413883l-7.6549075 12.4930958z" fill="#ffd7d7"/><path d="m12.6648731 2.89445792c-3.03382918 3.87396318-5.90626233 9.07639358-8.23864049 13.86527618-2.28829785 4.6983761 8.69075299 8.2942906 10.28947869 5.4512938 2.6517444-4.7155686 6.8190123-12.24980344 7.4680435-13.50075125 3.2073333-6.18069417-4.432395-12.31086542-9.5188817-5.81581873z" fill="#655ad7"/><path d="m16.5168867 18.5799616.2466922-.0290451-1.0574292 1.8939391c-4.270805.148926-7.64721167-1.8179719-10.28306299-5.6893666.3137775-.6176855.63533069-1.2378856.96395187-1.8573133 2.5584211 4.2331685 5.80114092 6.146941 10.12984812 5.6817859z" fill="#eedfe8"/></g><g transform="translate(99.5 111)"><path d="m53.0897863 2.58268657h8.721399v75.98837813h-8.721399z" fill="#91d6ff"/><path d="m53.0897863 0h5.2328394v78.5710647h-5.2328394z" fill="#e3f4ff"/><path d="m0 2.58268657h43.1709253v14.59305263h-34.44952625v85.4799028h-8.72139905z" fill="#d2d2d2"/><path d="m0 2.58268657h5.23283943v100.07295543h-5.23283943z" fill="#ebebeb"/></g><g transform="translate(95.5 111)"><path d="m184.451451 2.58268657h8.696471v100.07295543h-8.696471z" fill="#d2d2d2"/><path d="m184.020078 0h5.217883v102.655642h-5.217883z" fill="#c5c5c5"/><path d="m123.317333 2.58268657h64.616157v99.73561943l-55.919686.337336h-8.696471z" fill="#d2d2d2"/><path d="m10.8705882 0h113.7512158v102.782726h-113.7512158z" fill="#ebebeb"/><g fill="#c5c5c5"><path d="m122.012863 2.58268657h5.217882v100.20003943h-5.217882z"/><path d="m123.317333 2.58268657h5.217883v100.07295543h-5.217883z"/><path d="m128.951363 0h65.109039c2.139567 0 3.874029 1.73446224 3.874029 3.87402985s-1.734462 3.87402985-3.874029 3.87402985h-65.109039c-2.139567 0-3.87403-1.73446224-3.87403-3.87402985s1.734463-3.87402985 3.87403-3.87402985z"/></g><path d="m9.56611765 1.54961194h113.75121535v7.7480597h-113.75121535z" fill="#d2d2d2"/><path d="m3.87402985 0h125.13539115c2.139568 0 3.87403 1.73446224 3.87403 3.87402985s-1.734462 3.87402985-3.87403 3.87402985h-125.13539115c-2.13956761 0-3.87402985-1.73446224-3.87402985-3.87402985s1.73446224-3.87402985 3.87402985-3.87402985z" fill="#ebebeb"/></g><g transform="matrix(-1 0 0 1 179.5 103)"><path d="m3.63697926 1.07311393h-2.69467157c-.52042217 0-.94230769.4407197-.94230769.984375v1.34833565c0 1.28832052.99975808 2.33271065 2.23302216 2.33271065h1.4039571c.22303807 0 .40384615-.18887987.40384615-.421875s-.18080808-.421875-.40384615-.421875h-1.4039571c-.78718794 0-1.42532985-.66663039-1.42532985-1.48896065v-1.34833565c0-.07766504.06026936-.140625.13461538-.140625h2.69467157c.22303807 0 .40384615-.18887987.40384615-.421875s-.18080808-.421875-.40384615-.421875z" fill="#91d6ff"/><path d="m12.5851646 0c.5947682 0 1.0769231.50367966 1.0769231 1.125v2.8125c0 2.02496111-1.4632575 3.69290288-3.3454598 3.91289153l-.0004531.58710847h-4.71402565l-.00025392-.59991501c-1.83476947-.2653913-3.24749989-1.91039251-3.24749989-3.90008499v-2.8125c0-.62132034.48215489-1.125 1.07692308-1.125z" fill="#e3f4ff"/><path d="m2.43509615 7.875h10.74519235c.15533 0 .28125.12591991.28125.28125 0 .15838582-.1225691.28976124-.2805744.3007332l-3.94385593.27386304h-2.82692308l-3.97575453-.2740084c-.15798893-.01088858-.28058441-.14222413-.28058441-.30058784 0-.15533009.12591992-.28125.28125-.28125z" fill="#91d6ff"/></g><g transform="translate(236.547239 101.005076)"><path d="m10.0094361 31.1764694s-5.5416169 4.9728393-5.15896931 5.5148444c.38302666.5455697 3.22907033-.9071264 3.22907033-.9071264s-3.32944306 6.1895398-2.55848224 6.6141356c.77058375.4245956 4.54590262-.6996557 5.65526422-1.9964857 1.1097386-1.2968298 2.6287117-7.120244 2.6287117-7.120244l7.185384-11.0345926-5.8560877-2.5777561z" fill="url(#f)" transform="matrix(.87574719 .48276999 -.48276999 .87574719 16.608421 -2.371327)"/><path d="m10.2573776 8.26789373c2.4297226 2.99927617 10.7143551 12.16079627 10.7143551 12.16079627s-.5451304.4060659-1.6353912 1.2181979l5.3186688 6.4040343c2.2641689-1.3770897 3.7729088-2.28948 4.5262199-2.7371708 4.0323057-2.3963886 2.489534-6.2654854-.4938387-9.7959252-2.2916908-2.7119228-7.2737761-8.26773965-10.7789725-13.14498765-3.4875778-4.85273282-12.36594003.07493275-7.6510414 5.89505518z" fill="#ffb66f"/><path d="m20.9717327 20.42869c1.5549251 1.4985444 2.2515694 2.3058206 2.089933 2.4218287-.1616364.116008-1.1792886-.4608777-3.0529566-1.7306573z" fill="#000" fill-opacity=".159856"/><path d="m19.6658098 20.9768856 6.9321723 6.8124677-3.4660861 2.2516187-4.7617766-8.0922034z" fill="#ffedc2"/></g><g transform="matrix(-1 0 0 1 257.237852 142.4409)"><path d="m24.6530432 41.2223723 3.7221283 12.0885171-6.2565062.2831819s.8818768-4.1350646-.3770784-8.011307c-1.0095969-3.1119557-1.8336955-4.6648887-1.8336955-4.6648887z" fill="url(#h)" transform="matrix(-1 0 0 1 48.283062 0)"/><path d="m26.5707705 50.0849282s-.3451351 3.0613388.650657 4.1059402c.9953317 1.044155 6.385101 5.0201897 6.8072367 5.7746513.4221356.754908-.3330291 1.5876065-.3330291 1.5876065s-5.822054.5077016-8.4403147-1.0872236c-1.8903778-1.1521137-3.2335826-2.0790838-3.2335826-2.0790838l-.7108572 1.5178547-3.1124219-.6752682s-.7961711-2.5428733-.293743-3.7447626c.5024282-1.2023358 3.0534969-6.8035905 3.0534969-6.8035905s1.8708526.4679586 5.6125579 1.403876z" fill="#391b0b" transform="matrix(.99756405 -.06975647 .06975647 .99756405 -3.784246 1.944373)"/><path d="m5.42529865.01637595c4.70586655.46288971 27.88571465 6.02890708 32.65842755 7.01732605 4.7727129.98841896 8.8077327 6.3368243 5.1683183 12.5299817-2.7251006 4.6347638-7.9395825 14.1538006-15.6434454 28.5571104-.0712596.0173926-.1410538.0484585-.2133143.0484585-2.3503795 0-4.4459717-.3244499-6.4634885-1.7422318 2.0437269-15.1027917 5.4450358-24.7586553 10.2039268-28.9675907 0 0-18.4328643 6.6822779-27.6513521-.6085743-5.43792955-4.3008292-3.24512824-17.34460309 1.94092765-16.83447985z" fill="#33373e"/><path d="m43.2520445 19.5636837c-.7389756 1.2568261-1.689054 2.9317172-2.764886 4.8587367l1.2357903-15.6463332c2.7768268 2.2644898 4.1634493 6.3047416 1.5290957 10.7875965z" fill="#fff" fill-opacity=".192499"/></g><g transform="matrix(-1 0 0 1 251.547934 140.887056)"><path d="m53.4294199 41.8812585s-2.0730621 9.2201586-4.7712576 10.2067278c-1.0389128.3798685 6.4094228 1.4646289 6.4094228 1.4646289l2.2594292-8.8456277z" fill="url(#i)" transform="matrix(-1 0 0 1 105.885788 0)"/><path d="m50.6969626 49.6440192.1371185 11.709161 3.4518117.0018451.0304807-2.8852727s1.0881852 2.6897746 2.7522164 2.8449118c1.6690136.1551361 10.1275493.2201316 10.1275493.2201316s.6183458-2.7013372-3.0831973-3.927062c-3.0788071-1.0188897-7.5038057-7.96492-7.5038057-7.96492z" fill="#391b0b" transform="matrix(.98768834 -.15643447 .15643447 .98768834 -7.970036 9.908696)"/><path d="m3.05081876.09139729c-4.5745476 9.67369724-3.64745919 16.17141981 2.78126525 19.49316781 9.32565989 4.8186062 34.13991649-1.3984591 34.13991649-1.3984591s-.4988679 4.0217565 0 7.6086785c1.30292 9.3681583 7.7103703 20.8939979 8.2932627 22.7935682.2935098.9565102 7.4398585-.4568795 7.4398585-1.5914692 0-1.1345898-3.6461112-26.9558526-4.2950509-32.4556711-.6455946-5.50015345-2.6838105-6.29907071-8.6369189-7.80257444-1.3676435-.34540899-19.0926636-4.37001966-20.5742697-4.25271428-8.4869645.67195094-14.86965234-.12622453-19.14806344-2.39452639z" fill="#42474f"/><path d="m22.1988822 2.48592368c1.4816061-.11730538 19.2066262 3.90730529 20.5742697 4.25271428l.9772817.25044676c5.0775742 1.32627258 6.9597264 2.31582162 7.6134318 7.18433878l.1758873 1.3975752c.535939 4.0788101 1.9841797 13.6699506 3.1298434 21.6548586-1.2929564-2.9344229-2.3628518-6.1909698-3.209955-9.7692621-1.9741343-8.3390428-1.551796-15.1863199-2.0819707-16.3854807-.5301746-1.19916091-26.4590328-5.02750378-30.9143073-5.81743486-1.9392699-.34383732-3.0332304-1.19673044-3.2818814-2.55867937 2.1531598.06064088 4.4921299-.00913962 7.0174005-.20907659z" fill="#fff" fill-opacity=".192499"/></g><g transform="translate(231.22965 73.744522)"><path d="m1.47955212 11.5727034c-2.0374395.223196-1.89299417 3.8098621.5872083 3.9971275.50692712 3.4575595 2.31477455 5.1048864 4.51885835 5.2955013l-.12224637 5.22973 9.7493-.0057855s-2.7453737-3.6944578-2.6085307-8.7521472c.1368429-5.0579939-.0918368-9.80935966-.0918368-9.80935966l-12.62756348.22685z" fill="url(#j)"/><path d="m16.4325009 11.8414241c-2.3730005-.9396639-4.1259507 3.106033-5.9416428 5.9179103-1.81569209 2.8118774-6.51985354 2.3341168-7.16819884 0-2.45458518-5.1122601-4.5698857-12.06257535-1.70548489-12.63302677.40319185-7.38861755 19.71653643-5.64425542 14.81532653 6.71511647z" fill="#9e5229" transform="matrix(-1 0 0 1 17.468676 0)"/><path d="m14.4323704 2.32925829c.8273642.70382197 1.3558879 1.63807837 1.4191321 2.79704934 2.8644008.57045142.7491003 7.52076667-1.7054849 12.63302677-.6029204 2.1705821-4.71324258 2.7358184-6.74641308.5430724-1.85406034-5.5624629-1.06193394-11.78154281 2.68706968-15.97164173z" fill="#000" fill-opacity=".199355"/><ellipse cx="11.706392" cy="2.330765" fill="#fb9934" rx="2.327694" ry="2.330765"/></g><g transform="translate(224.13287 98.179528)"><path d="m25.2543001 2.67294278c2.1750502 3.19941837 5.8000556 14.05812762 6.0056537 16.50098872.2316427 2.8178482-2.7852287 7.3066232-2.8348664 11.3858627-.0441225 4.0797953 2.2502441 14.2918441 1.5608311 15.4393213-.6838977 1.1474771-23.39758141 7.781644-24.677132 7.2364679-1.27955059-.545176-5.69682189-6.424456-4.68752121-8.8138757 1.01481598-2.3894197 5.20762048-7.8094578 4.72778901-11.065181-.47431616-3.2551676-3.22879951-15.2717261-4.59659497-19.3615236-1.36228015-4.08979741-.90802966-8.38363899 1.63452561-10.1434744 1.25806942-.87077561 4.61514502-3.34465543 10.59349806-3.33365478 5.9783531.01168154 12.105144 1.90695697 12.2738171 2.15506886z" fill="#ff9f43" transform="matrix(-1 0 0 1 31.27264 0)"/><path d="m1.14212723 16.5511653 10.42320007-7.51000028-.0031314 1.37240698c-.0385597 8.4699217-.5701705 12.9567442-9.41703048 26.8376301l.20464255-1.4146222c.28836048-2.0535799.51180546-3.976591.49774403-5.2767857-.03131644-2.5735918-1.24369485-5.310193-2.07623627-7.6873577z" fill="#000" fill-opacity=".159856"/><path d="m12.7686072.28422197c-.1677319.9172229.1155359 1.37583435.8498032 1.37583435 1.101401 0 8.4890516.2436185 9.4895073-.19141668.6669705-.29002346.9003911-.68482935.7002619-1.18441767z" fill="#fff6e1"/></g><g transform="translate(191.027888 99.969181)"><path d="m9.00940944 17.0182197s-6.02545958-4.0233914-7.0904084-4.8314938c-1.06147993-.8046782-2.39353317-6.90653641-1.56793767-7.76257712.3989222-.4143237 3.41338643 2.37294484 3.95106417 2.74617859.53420885.36980959 3.26769311 2.01683191 3.26769311 2.01683191s-.77356217-4.6705581-.10753555-5.04721601c.49258219-.27393303 1.47774657.92794813 1.60956434 2.19831254.13181776 1.2703644 1.50202876 2.92765921 1.67894206 4.85546289.0797845.8423441.3915835 1.9337528.3915835 1.9337528l16.7185162 7.1835359-1.7491193 7.8107606z" fill="url(#k)"/><path d="m44.8952888 9.302498c-2.3089533 4.7988672-6.2304813 11.8144701-8.3843459 15.9282198-2.5486505 4.8677667-5.585726 6.9302549-11.7115845 3.3181436-.4779505-.2818235-1.233848-.7368075-2.2676924-1.3649522l3.7924283-8.4247446c1.3270717.5867498 1.9906075.8801247 1.9906075.8801247s5.8664356-10.71828211 8.3022401-15.86427552c3.0987326-6.54058808 12.7466076-3.75923026 8.2783469 5.52748422z" fill="#ffb66f"/><path d="m28.3147018 19.6392893c-.7151362 2.5192698-1.1570883 3.7291365-1.3258562 3.6296001-.1687679-.0995363-.1095159-1.4899631.1777562-4.1712802z" fill="#000" fill-opacity=".159856"/><path d="m26.3778957 18.3871466-2.6415088 10.4878403-3.930215-2.1262072 5.157213-9.1783407z" fill="#ffedc2"/></g><path d="m67.2099637 2.22023951s-2.1780895-2.84093703-4.6932581-2.09560104c-2.5151686.745336-4.7902778 5.31413438-3.7100101 9.60871587 1.0748117 4.29513776.1884438 6.74490086-1.1155157 9.63947436-3.502686 7.7865362 8.6245257 12.7305221 8.6245257 12.7305221-.6308206-3.8465012-.3327345-6.9310835.8942582-9.2537468 1.8954865-3.5881037 2.9719784-8.1893822 2.9719784-11.0051003 0-4.89645263-2.9719784-9.62426419-2.9719784-9.62426419z" fill="#9e5229" transform="matrix(-1 0 0 1 309.738002 72)"/><g transform="translate(230.5 161)"><path d="m17.6986301 1.80097087v50.90105773l2.3088448-.0442323.033621-49.88381962z" fill="#91d6ff"/><path d="m4.91827371 0h28.16345259c1.2788341 0 2.315534 1.03669988 2.315534 2.31553398 0 1.27883411-1.0366999 2.31553398-2.315534 2.31553398h-28.16345259c-1.27883411 0-2.31553398-1.03669987-2.31553398-2.31553398 0-1.2788341 1.03669987-2.31553398 2.31553398-2.31553398z" fill="#bfe7ff"/><path d="m3.11730283 3.60194175h31.76539437c.2841853 0 .5145631.23037775.5145631.5145631 0 .28418536-.2303778.51456311-.5145631.51456311h-31.76539437c-.28418535 0-.5145631-.23037775-.5145631-.51456311 0-.28418535.23037775-.5145631.5145631-.5145631z" fill="#91d6ff"/><path d="m9.3519085 37.5631068h19.296183c.8525561 0 1.5436893.6911332 1.5436893 1.5436893s-.6911332 1.5436893-1.5436893 1.5436893h-19.296183c-.85255607 0-1.54368932-.6911332-1.54368932-1.5436893s.69113325-1.5436893 1.54368932-1.5436893z" fill="#bfe7ff"/></g></g></svg>