<svg height="200" viewBox="0 0 358 200" width="358" xmlns="http://www.w3.org/2000/svg" xmlns:xlink="http://www.w3.org/1999/xlink"><linearGradient id="a" x1="-18.14405%" x2="171.027698%" y1="57.456085%" y2="78.549996%"><stop offset="0" stop-color="#4d63a0"/><stop offset="1" stop-color="#222735"/></linearGradient><linearGradient id="b" x1="62.492225%" x2="69.153093%" y1="44.167933%" y2="58.79161%"><stop offset="0" stop-color="#d7ffff"/><stop offset="1" stop-color="#648bf0"/></linearGradient><mask id="c" fill="#fff"><path d="m6 0h346c3.313708 0 6 2.6862915 6 6v194h-358v-194c0-3.3137085 2.6862915-6 6-6z" fill="#fff" fill-rule="evenodd"/></mask><g fill="none" fill-rule="evenodd" mask="url(#c)"><g transform="translate(138.5 40.5)"><path d="m12 0h89.863144c6.627417 0 12 5.372583 12 12v197.711288c0 13.882781-11.254219 25.137-25.1370004 25.137h-63.5891436c-13.8827818 0-25.137-11.254219-25.137-25.137v-197.711288c0-6.627417 5.372583-12 12-12z" fill="#bcf8ff"/><path d="m8 0h89.2767426c4.4182784 0 8.0000004 3.581722 8.0000004 8v190.72877c0 10.229418-8.2925823 18.522-18.5220004 18.522h-68.2327426c-10.22941814 0-18.522-8.292582-18.522-18.522v-190.72877c0-4.418278 3.581722-8 8-8z" fill="#fff" transform="translate(4.10654 10.341122)"/><g fill="#56cdd9" fill-rule="nonzero"><path d="m67.6182386 3.83102184c.9740171 0 1.7636139.75331564 1.7636139 1.68257757 0 .90861166-.7548935 1.64900998-1.6989592 1.68146787l-.0646547.00110969h-31.2292801c-.9740171 0-1.7636139-.75331563-1.7636139-1.68257756 0-.90861167.7548936-1.64900999 1.6989593-1.68146788l.0646546-.00110969z"/><path d="m73.354305 3.55059225c.974017 0 1.7636139.78470378 1.7636139 1.75268496 0 .94647048-.7548936 1.71771873-1.6989593 1.75152904l-.0646546.00115592h-.092502c-.974017 0-1.7636139-.78470378-1.7636139-1.75268496 0-.94647048.7548936-1.71771873 1.6989593-1.75152904l.0646546-.00115592z"/></g></g><g transform="translate(261 152)"><path d="m6 0h14.4548734l6.5451266 6.73684211v19.26315789c0 3.3137085-2.6862915 6-6 6h-15c-3.3137085 0-6-2.6862915-6-6v-20c0-3.3137085 2.6862915-6 6-6z" fill="#aeddf9"/><g fill="#fff" transform="translate(6.1875 10.666667)"><path d="m2.97636414 12.8842149c1.49116882 0 2.7-1.2064748 2.7-2.6947369 0-1.48826202-1.20883118-2.6947368-2.7-2.6947368-1.49116883 0-2.7 1.20647478-2.7 2.6947368 0 1.4882621 1.20883117 2.6947369 2.7 2.6947369z"/><path d="m9.45 11.7211317c1.4911688 0 2.7-1.2064748 2.7-2.69473686s-1.2088312-2.69473684-2.7-2.69473684c-1.49116882 0-2.7 1.20647478-2.7 2.69473684s1.20883118 2.69473686 2.7 2.69473686z"/><path d="m12.15.33889693v8.4847395h-1.0125l-.0004121-6.42191409-5.46885 1.76909474v5.93784932h-1.0125l.00052135-7.34616426z"/></g><path d="m27 6.73684211h-3.5451266c-1.6568543 0-3-1.34314576-3-3v-3.73684211z" fill="#4ea3d6" fill-rule="nonzero" opacity=".33996"/></g><g transform="matrix(-1 0 0 1 230.5 90)"><path d="m11.25376 0h47.73888c5.9381656 0 10.752 4.81383437 10.752 10.752v59.136c0 5.9381656-4.8138344 10.752-10.752 10.752h-47.73888c-5.93816563 0-10.752-4.8138344-10.752-10.752v-59.136c0-5.93816563 4.81383437-10.752 10.752-10.752z" fill="#b8e1f9"/><path d="m14.73213 6.048h39.99814c4.9668348 0 8.99325 4.0264152 8.99325 8.99325s-4.0264152 8.99325-8.99325 8.99325h-39.99814c-4.96683483 0-8.99325-4.0264152-8.99325-8.99325s4.02641517-8.99325 8.99325-8.99325z" fill="#e3f4ff"/><path d="m15.56513 9.072h.7315c3.2619318 0 5.90625 2.6443182 5.90625 5.90625s-2.6443182 5.90625-5.90625 5.90625h-.7315c-3.2619318 0-5.90625-2.6443182-5.90625-5.90625s2.6443182-5.90625 5.90625-5.90625z" fill="#bfe7ff"/><path d="m14.73213 29.673h39.99814c4.9668348 0 8.99325 4.0264152 8.99325 8.99325s-4.0264152 8.99325-8.99325 8.99325h-39.99814c-4.96683483 0-8.99325-4.0264152-8.99325-8.99325s4.02641517-8.99325 8.99325-8.99325z" fill="#e3f4ff"/><path d="m15.56513 32.697h.7315c3.2619318 0 5.90625 2.6443182 5.90625 5.90625s-2.6443182 5.90625-5.90625 5.90625h-.7315c-3.2619318 0-5.90625-2.6443182-5.90625-5.90625s2.6443182-5.90625 5.90625-5.90625z" fill="#bfe7ff"/><path d="m14.73213 53.298h39.99814c4.9668348 0 8.99325 4.0264152 8.99325 8.99325s-4.0264152 8.99325-8.99325 8.99325h-39.99814c-4.96683483 0-8.99325-4.0264152-8.99325-8.99325s4.02641517-8.99325 8.99325-8.99325z" fill="#e3f4ff"/><path d="m15.56513 56.322h.7315c3.2619318 0 5.90625 2.6443182 5.90625 5.90625s-2.6443182 5.90625-5.90625 5.90625h-.7315c-3.2619318 0-5.90625-2.6443182-5.90625-5.90625s2.6443182-5.90625 5.90625-5.90625z" fill="#bfe7ff"/></g><g transform="translate(269 78)"><path d="m6 0h26c3.3137085 0 6 2.6862915 6 6v20c0 3.3137085-2.6862915 6-6 6h-26c-3.3137085 0-6-2.6862915-6-6v-20c0-3.3137085 2.6862915-6 6-6z" fill="#98efbf"/><g fill="#fff"><path d="m14.5294118 11.974853v8.0189211c0 .4509294.3655505.81648.81648.81648.13017 0 .2584535-.0311231.3741517-.0907734l7.9820694-4.1153067c.4007966-.2066383.5581931-.6990616.3515548-1.0998583-.0804974-.1561332-.2092033-.2821419-.3670062-.3593151l-7.9820693-3.9036144c-.4050826-.1981048-.8940625-.0303161-1.0921673.3747664-.0546203.111687-.0830131.2343728-.0830131.3587004z"/><path d="m3.911765 2.807018h3.352941v3.368421h-3.352941z"/><path d="m10.617647 2.807018h3.352941v3.368421h-3.352941z"/><path d="m17.323529 2.807018h3.352941v3.368421h-3.352941z"/><path d="m24.029412 2.807018h3.352941v3.368421h-3.352941z"/><path d="m30.735294 2.807018h3.352941v3.368421h-3.352941z"/><path d="m3.911765 25.263158h3.352941v3.368421h-3.352941z"/><path d="m10.617647 25.263158h3.352941v3.368421h-3.352941z"/><path d="m17.323529 25.263158h3.352941v3.368421h-3.352941z"/><path d="m24.029412 25.263158h3.352941v3.368421h-3.352941z"/><path d="m30.735294 25.263158h3.352941v3.368421h-3.352941z"/></g></g><g transform="matrix(-1 0 0 1 107.520763 146.366778)"><path d="m0 .83116488s10.616932 58.45456502 12.4785839 64.54171222c1.2411012 4.0580982 3.5826148 21.3485633 7.0245408 51.8713949l11.1519248.031884c.1584032-23.4961667-.1378995-37.1323281-.888908-40.9084847-1.1265128-5.6642347-3.6693864-14.9928512-3.6693864-14.9928512s-1.8893087-33.8655713-3.019628-41.7654856c-1.1299331-7.8999144-4.7576131-19.6093345-4.7576131-19.6093345z" fill="#33373e"/><path d="m8.08026946 44.1938309-1.01887698-7.9562433.7454384 2.1905688c3.71141752 10.9743716 6.23494662 19.4931969 7.57058712 25.556476 1.1240086 5.1025536 1.3603174 13.9115876.7089264 26.427102l-.7404093-6.132645c-1.0675211-8.6848868-2.1054399-16.3066949-2.8392772-18.8123714l-.0725167-.2433383c-.689624-2.3800079-2.407634-10.9156702-4.35387174-21.0295488z" fill="#fff" fill-opacity=".192499"/></g><g transform="matrix(-1 0 0 1 129.625939 146.87856)"><path d="m32.2721803 27.6246884c-2.907087 10.3510812-5.2766807 35.6284984-5.2766807 35.6284984s-.2675605 2.662806.890563 10.0393944c.7720824 4.9177255-.3629813 19.3412581-3.405191 43.2705978l-12.0111528.024187c-.9876755-32.1468042-1.5049409-49.9107547-1.5517962-53.2918513-.1096722-7.9076104-2.70688548-62.73370881-2.70688548-62.73370881l24.98061378-.56180589s1.9876165 17.2736072-.9194706 27.6246884z" fill="#42474f"/><path d="m14.7575947 21.3102927-.047157.2025972c-1.7255304 7.1652331 1.2336798 38.9197514.3912158 46.4701444l-.3355352 2.701362c-.5856349 4.8544254-1.5766197 13.7041415-2.9729542 26.5491483l-.3028827-10.7519195c-.2780022-10.217693-.5143673-19.8322876-.5655051-22.7566452l-.0068537-.4294652c-.1096722-7.9076104-2.70688548-62.73370881-2.70688548-62.73370881l4.67327758-.10450823.2043393.88674267c2.0629065 9.08464547 2.6192201 15.74006297 1.6689407 19.96625237z" fill="#fff" fill-opacity=".192499"/></g><g transform="matrix(-1 0 0 1 120.443949 62.5)"><path d="m4.96892091 13.0190971c-2.58733834.2820573-2.40390763 4.8145995.74569408 5.0512506.64374523 4.3693876 2.93952529 6.4511478 5.73848471 6.6920317l-.1552403 6.6089152 12.3806071-.0073111s-3.4863419-4.6687609-3.3125654-11.060265c.1737764-6.3918888-.1166234-12.39628547-.1166234-12.39628547l-16.03570511.28667492z" fill="#fbcccc"/><path d="m19.0368506 10.3266373c1.115613.5370089.2274493 2.9639055-.3374621 2.9639055-2.5915811-1.0212261-4.740195 2.6558199-5.8324396 6.348821-3.10190885 3.0324595-9.95556935 3.0996219-10.66363465.5629054-2.68068055-5.556001-2.8121582-13.58974427.31608668-14.20971049-2.45561696-6.45641032 30.70774317-9.83384223 16.51744967 4.33407859z" fill="#33373e" transform="matrix(-1 0 0 1 22.763848 0)"/><path d="m6.49648109 20.5460441c.12732898-.2783182.8868705 1.6274466 2.11465198 2.6490437 1.2705694 1.0571994 3.17783383 1.3667952 2.84196663 1.5672916-2.57773664 1.538784-5.99435539-1.94803-4.95661861-4.2163353z" fill="url(#a)"/></g><g transform="matrix(-1 0 0 1 95.022936 86.704929)"><path d="m29.1305439 19.5011535s-.5414102-3.6748262-.3695646-6.0929004c.3178178-4.47212879-.2900136-8.24469384.6924027-8.83151164 1.2600723-.75266598 1.575187 5.92474334 1.575187 5.92474334s7.1962761-11.80869808 8.6965462-10.38186503c1.50027 1.42644825-1.6292509 7.63209458-1.1330225 9.42641025.4962283 1.79393088-4.4625794 10.47267758-4.4625794 10.47267758z" fill="#fbcccc"/><path d="m2.52851308 21.6240871s10.90041782 17.0908279 13.30857332 20.4054827c2.5259373 3.4758854 6.986972 5.0150796 10.1527929-.5302524 2.8001179-4.9057968 8.7957918-17.1901059 9.5546157-21.0088468.5661251-2.8490485-5.2326022-7.0956854-8.0195904-2.8382742-2.7869881 4.2570265-7.1885527 10.6589201-7.1885527 10.6589201s-7.2379824-13.2178305-9.4943732-16.3366228c-6.08487912-8.41054204-15.35604612-.8581008-8.31346562 9.6495934z" fill="#52c686"/><path d="m20.3363519 28.3111165 2.3950257 4.156594-.8727439-6.4157464z" fill="#000" fill-opacity=".159856"/><path d="m27.657466 18.0274302c2.4698869-.9817203 4.8129546-.7149575 6.8779307 2.289504" stroke="#5386bf" stroke-linecap="round" transform="matrix(.99756405 .06975647 -.06975647 .99756405 1.395327 -2.123097)"/></g><g transform="matrix(-1 0 0 1 124.07398 89.986462)"><path d="m26.3552081 1.22170957-12.8238816.08230718-.5249112.20963368c-2.1154566.86042791-9.97192378 4.21096935-11.43555786 7.08034322-2.44563436 4.79453125.77655433 43.20815385-.62814451 45.52619545-2.96321249 4.8900969.90756315 8.2622662 13.76919997 9.5380874l.3925008.038019c13.1752428 1.2458705 24.8638826.2256257 22.7428477-6.3660637-2.1215835-6.5922411 4.3696025-49.05063615-1.7174046-51.98345672-6.5164325-2.75004367-9.7746487-4.12506551-9.7746487-4.12506551z" fill="#5fda96"/><path d="m12.5252057 10.9504733c1.8998682 4.102324-1.8737377 14.7784133-11.32081777 32.0282679l-.11687284-3.8533855c-.30900374-9.6189233-.76361585-21.3436752-.19303507-27.2440511 5.96692835-4.47902446 9.84357668-4.78976434 11.63072568-.9308313z" fill="#000" fill-opacity=".159856"/><path d="m12.6686137.09589893c.7977952-.21577259 14.1569398 0 14.6876964 0s.5307566 2.25162127 0 2.25162127c-.3245512 0-4.467555-.06132029-14.6886569-.18396087-.6148811-.00737781-1.74248.33376656-3.38279675 1.02343311 1.72397475-1.91688061 2.85189385-2.94724511 3.38375725-3.09109351z" fill="url(#b)"/></g><g transform="matrix(-1 0 0 1 177.5 94.585603)"><path d="m14.3430821 34.5688559s-6.98697206 1.0989847-8.30496993.0196248c-1.31799788-1.0789752-6.56797769-8.4155445-5.99451538-9.6780686.5734623-1.2621392 5.36351376 1.4075932 5.77169534.6049034.5248049-1.0312602-2.18417696-4.7103192.18960943-4.924652.61130695-.055411 1.0430449 2.2091286 2.76420415 3.7006078 1.72077309 1.491864 5.87480269 4.8007468 5.87480269 4.8007468z" fill="#fbcccc"/><path d="m56.5671198 2.27271303c-6.0381526 5.69194026-14.5877336 19.13256907-16.409297 20.31659417-1.8219496 1.18441-24.6106078 3.5727154-26.7561678 5.5005562-1.7922145 1.610382-1.9536335 6.5101612 0 7.8692697 1.9540197 1.3591085 27.6114238-.4628577 32.3169041-1.8211966 4.7058664-1.3579541 12.7658942-13.8043734 16.3661562-17.6892446 10.0686177-10.8645659.520557-19.86753433-5.5175955-14.17597887z" fill="#52c686"/><path d="m15.7722958 27.3009079c-1.1283874 1.3076496-1.6976189 3.2134587-1.1283874 6.9366014" stroke="#5386bf" stroke-linecap="round"/></g></g></svg>