<svg height="59" viewBox="0 0 33 59" width="33" xmlns="http://www.w3.org/2000/svg"><g fill="none" fill-rule="evenodd"><g transform="translate(1)"><path d="m18.8218858 18.4384512v-5.3374464l6.7853913-.0003566.0001491-2.8301074c0-1.5632221 1.2658292-2.830464 2.8273085-2.830464 1.5614794 0 2.8273086 1.2672419 2.8273086 2.830464v5.9035392c0 1.2505777-1.0126633 2.2643712-2.2618468 2.2643712z" fill="#65e09c"/><path d="m0 21.5115264v-5.0948352c0-1.5632221 1.26582914-2.830464 2.82730852-2.830464s2.82730852 1.2672419 2.82730852 2.830464l-.00035617 2.8298088h3.392l.0011264-13.0194792c0-3.43908862 2.78482413-6.2270208 6.22007873-6.2270208 3.4352547 0 6.2200788 2.78793218 6.2200788 6.2270208v32.2672896h-12.44015753l-.0011264-13.587239-5.65349064.0010118c-1.87377526 0-3.39277023-1.5206903-3.39277023-3.3965568z" fill="#28c76f"/></g><g transform="translate(0 29)"><path d="m1.43609322 0h28.72186438l-2.0544883 28.1269223c-.0562021.7694345-.6806042 1.3642777-1.4320711 1.3642777h-21.74874558c-.75146692 0-1.375869-.5948432-1.43207117-1.3642777z" fill="#7367f0"/><path d="m1.43609322 0h28.72186438c.7931323 0 1.4360932.660183 1.4360932 1.47456v5.89824c0 .814377-.6429609 1.47456-1.4360932 1.47456h-28.72186438c-.79313239 0-1.43609322-.660183-1.43609322-1.47456v-5.89824c0-.814377.64296083-1.47456 1.43609322-1.47456z" fill="#968bff"/></g></g></svg>