<svg height="104" viewBox="0 0 47 104" width="47" xmlns="http://www.w3.org/2000/svg" xmlns:xlink="http://www.w3.org/1999/xlink"><defs><linearGradient id="a" x1="68.669473%" x2="68.669473%" y1="-6.664324%" y2="100%"><stop offset="0" stop-color="#fe62be"/><stop offset="1" stop-color="#fdb3a8"/></linearGradient><path id="b" d="m2.15121679.0489334h19.69756641c1.1045695 0 2 .8954305 2 2 0 .04855337-.0017681.09709063-.0053007.14551531l-3.6000879 49.34939759c-.0762581 1.0453336-.9465878 1.8544847-1.9946993 1.8544847h-12.49739062c-1.04811149 0-1.91844117-.8091511-1.9946993-1.8544847l-3.60008789-49.34939759c-.08036589-1.101642.74754198-2.05984872 1.84918399-2.14021461.04842468-.00353263.09696194-.0053007.14551531-.0053007z"/><mask id="c" fill="#fff"><use fill="#fff" fill-rule="evenodd" xlink:href="#b"/></mask></defs><g fill="none" fill-rule="evenodd"><path d="m36.4500778 11 .5499222.3749143c-4.1205588 5.8898607-6.7621189 11.7537271-8.4040292 18.150742l-.1304361.5152188c-1.1066667 4.4342304-1.6054084 8.1217148-2.3035142 15.6843523l-.2826069 3.0799631c-.0628265.6696703-.1214334 1.2750568-.1796095 1.8518669l-.0348842.3429426-.6649199-.0664817.1048505-1.0481839.5504594-5.9082299c.649234-6.7537124 1.1723662-10.248146 2.2928111-14.6134897 1.6121847-6.2812014 4.1787045-12.0579716 8.1381571-17.838123z" fill="#02b596"/><g transform="matrix(.8660254 .5 -.5 .8660254 35.702337 .072967)"><path d="m6.19871071 0c.48495282 0 1.50291252 1.91734762 1.99956148 4.43449301 1.54498143-.46796685 2.89684071-.47482189 3.05998291-.19034559.2415535.42120442-1.0147997 2.80949873-3.09717415 4.39437565-.72299851 1.05564604-2.45489163 1.1977737-3.47779667.42739666l-.00648815.00949249c-2.45405439-1.53882831-3.62703318-4.37952101-3.29448548-4.83129419.20605328-.27982076 1.39803921-.27259077 2.81542001.20161699.49635935-2.52223385 1.51524964-4.44573502 2.00098005-4.44573502z" fill="url(#a)"/><path d="m0 7.29631477c2.46041696-.40523076 4.55336041-.38476468 6.19928628 1.60330682 2.47841868-2.36915772 4.12524552-1.71506967 6.33554002-1.60330682-1.4579612 1.25677652-3.29665134 3.02056743-6.48506886 2.97229113-2.80045373-.095353-4.55003526-1.69270171-6.04975744-2.97229113z" fill="#02b596"/></g><g transform="matrix(.76604444 -.64278761 .64278761 .76604444 .252973 13.865631)"><path d="m6.19871071 0c.48495282 0 1.50291252 1.91734762 1.99956148 4.43449301 1.54498143-.46796685 2.89684071-.47482189 3.05998291-.19034559.2415535.42120442-1.0147997 2.80949873-3.09717415 4.39437565-.72299851 1.05564604-2.45489163 1.1977737-3.47779667.42739666l-.00648815.00949249c-2.45405439-1.53882831-3.62703318-4.37952101-3.29448548-4.83129419.20605328-.27982076 1.39803921-.27259077 2.81542001.20161699.49635935-2.52223385 1.51524964-4.44573502 2.00098005-4.44573502z" fill="url(#a)"/><path d="m0 7.29631477c2.46041696-.40523076 4.55336041-.38476468 6.19928628 1.60330682 2.47841868-2.36915772 4.12524552-1.71506967 6.33554002-1.60330682-1.4579612 1.25677652-3.14712249 2.33918956-6.33554002 2.29091332-2.80045372-.09535298-4.6995641-1.0113239-6.19928628-2.29091332z" fill="#02b596"/></g><path d="m10.4689688 17c4.7341403 5.054347 7.8882615 10.4406276 9.9811278 16.6135898l.1843504.5523344c1.4476388 4.407741 2.2547088 8.598273 3.2412423 15.8272957l.1243107.9196888-.6393115.0870913-.1848113-1.3607677c-.994678-7.215111-1.8188666-11.3397316-3.3362019-15.8151505-2.0093663-5.9266769-5.0076412-11.1124849-9.4742876-15.9830864l-.3653877-.3942313z" fill="#02b596"/><path d="m26 54c-3.0982168-11.2027321-10.7648834-15.16501-23-11.8868336 9.1603921 3.0376283 16.0764089 6.9999062 20.7480505 11.8868336z" fill="#02d3af"/><path d="m47 53c-3.077032-10.6981352-9.7436987-15.2650152-20-13.70064 6.2291848 4.99561 12.1503343 9.56249 17.7634487 13.70064z" fill="#02b596" transform="matrix(-1 0 0 1 74 0)"/><path d="m38.9325145 51.3055256c-2.2594738-7.949308-7.4577267-13.4061165-15.5947588-16.3704254 5.2016324 7.8325471 9.8551885 13.2885746 13.9606682 16.3680826z" fill="#02d3af" transform="matrix(-.98480775 .17364818 .17364818 .98480775 54.309494 -4.751465)"/><path d="m23.9848333 53c-1.4543498-4.5325255-2.9010014-10.8632307-3.9848333-17 5.3576696 2.3237887 7.0785872 11.5817279 5.3576696 17z" fill="#02b596"/><g transform="translate(14 50)"><use fill="#7367f0" xlink:href="#b"/><path d="m-3.24324324-1.30120482h9.08108108c-5.62739972 20.81927712 11.31312216 35.13253012 0 55.95180722h-9.08108108z" fill="#968bff" mask="url(#c)"/></g></g></svg>