<svg height="115" viewBox="0 0 57 115" width="57" xmlns="http://www.w3.org/2000/svg" xmlns:xlink="http://www.w3.org/1999/xlink"><defs><linearGradient id="a" x1="68.669473%" x2="68.669473%" y1="-6.664324%" y2="100%"><stop offset="0" stop-color="#fe62be"/><stop offset="1" stop-color="#fdb3a8"/></linearGradient><path id="b" d="m2.2628091.02251327h22.3265923c1.1134061 0 2.016.90259395 2.016 2.016 0 .06044258-.0027182.12085458-.0081464.18105291l-4.4111619 48.91922122c-.0936919 1.039031-.9646069 1.8349471-2.0078535 1.8349471h-13.50426863c-1.04324664 0-1.91416166-.7959161-2.00785354-1.8349471l-4.41116187-48.91922122c-.09999276-1.10890689.71789375-2.08891369 1.82680064-2.18890645.06019833-.00542822.12061033-.00814646.1810529-.00814646z"/><mask id="c" fill="#fff"><use fill="#fff" fill-rule="evenodd" xlink:href="#b"/></mask></defs><g fill="none" fill-rule="evenodd" transform="translate(.5)"><g transform="translate(.5)"><path d="m3.33706867 41.3845196c7.05858153.0974592 12.75773773 5.7946097 12.85768153 12.8531565l.0695971 4.9153043c-7.05858155-.0974592-12.75773774-5.7946097-12.85768155-12.8531565z" fill="#65e09c" transform="matrix(.91354546 -.40673664 .40673664 .91354546 -19.598827 8.332269)"/><path d="m9.46127812 47.7168366c6.41100178 4.3562562 10.56824688 9.2108148 12.48402058 14.5624719 1.9251441 5.377833 2.7138869 14.3929253 2.3556638 27.0274434-.005547.195643.1546383.3585736.3577838.3640504.2031455.0052075.3723242-.1490618.3778712-.3447048.3604506-12.7130803-.4345532-21.7997333-2.3955761-27.2777925-1.9703932-5.504235-6.2263206-10.4740284-12.75549692-14.9105838-.16605088-.1128311-.39563697-.0746593-.51279489.085259s-.07752235.3810253.08852853.4938564z" fill="#28c76f"/><path d="m38.7212325 38.2332624c7.0008401.0996894 12.6526568 5.7495366 12.7547863 12.7503415l.0782393 5.363172c-7.0008401-.0996894-12.6526568-5.7495365-12.7547863-12.7503414z" fill="#65e09c" transform="matrix(-.90630779 -.42261826 -.42261826 .90630779 106.03206 23.506742)"/><g transform="matrix(.9781476 -.20791169 .20791169 .9781476 4.045067 29.661671)"><path d="m.38552971.45850669c6.23211796 0 11.28424779 5.05212982 11.28424779 11.28424781v4.3082522c-6.23211797 0-11.28424779-5.0521298-11.28424779-11.2842478z" fill="#65e09c"/><path d="m3.95195889 5.02602234c3.91353942 3.99620976 6.28706241 7.93053876 7.12963981 11.80083306l.0505997.2430444.0487486.2549347c.7894417 4.2993434 1.2463581 15.2334237 1.3646875 32.7595146.0013214.1957117.1671324.3533358.3703494.3520709.2032169-.0012802.3668856-.1609676.3655722-.3566793l-.0166044-2.1624156-.0245744-2.5037999c-.1717401-15.5427555-.6495133-25.1079288-1.4385102-28.7321065-.8730852-4.0104287-3.31428581-8.05693958-7.31453084-12.14168655-.13943492-.14238036-.37231755-.14894269-.52015793-.01465736-.14784037.13428533-.15465435.35856718-.01521944.50094755z" fill="#28c76f"/></g><path d="m33.2295293 26.2808076c6.7227874.0043326 12.1716484 5.453059 12.176147 12.1758463l.0034635 5.1759481c-6.7227875-.0043326-12.1716484-5.4530589-12.176147-12.1758463z" fill="#65e09c" transform="matrix(-.9998477 -.01745241 -.01745241 .9998477 79.24276 .691541)"/><path d="m41.150596 28.6899966c-4.3218122 6.0559293-7.4795921 11.9011858-9.472124 17.5365724-1.9890585 5.6255629-3.9729563 14.3131827-5.9550028 26.0696069-.0325697.193186.1036411.3752221.3042355.406589.2005943.0313668.3896111-.0998135.4221808-.2929995l.2436192-1.4294741.1671899-.9630284c1.8390875-10.5128012 3.6781186-18.3686925 5.5144253-23.5622345 1.9695625-5.5704235 5.096481-11.3585533 9.3819711-17.3635865.1151072-.1612936.0726515-.3819146-.0948275-.4927706-.167479-.1108561-.3965603-.0699684-.5116675.0913253z" fill="#28c76f"/><g transform="translate(25.756949 10.32375)"><path d="m6.03232494 14.3996261c-2.33652456 6.3558469-4.02118311 14.2150033-5.05397566 23.5774693-1.03279255 9.3624659-1.24788599 18.7249319-.64528031 28.0873978l1.71022983.1485136c-.61231044-10.9273585-.55074239-20.3186029.18470413-28.1737332.73544653-7.8551302 2.28859217-15.7102604 4.65943692-23.5653907z" fill="#02b596"/><path d="m7.73782454 17.956016c3.10925096-.0270135 5.65169536-2.4871287 5.67870866-5.4948211.0270133-3.00769235-4.28126673-11.09053169-5.52984654-11.07969479-1.24857982.0108587-5.70273384 8.16982705-5.7297471 11.17751939-.02701327 3.0076924 2.47163405 5.42401 5.58088498 5.3969965z" fill="#65e09c" transform="matrix(.97029573 .2419219 -.2419219 .97029573 2.570409 -1.596564)"/><path d="m7.87893247 15.5746337c2.16295693-.018792 3.93202183-1.7756083 3.95131703-3.923959.0192952-2.14835065-3.22383378-6.88690032-4.09241096-6.87936303-.86857717.0075553-3.72105387 4.79906425-3.74034906 6.94741493-.01929518 2.1483507 1.71848604 3.8746991 3.88144299 3.8559071z" fill="#28c76f" transform="matrix(.97029573 .2419219 -.2419219 .97029573 2.696158 -1.612346)"/><path d="m7.44722493 14.9108653 3.15350747-9.39769399c.1874775-.55869744-.1308241-1.15797886-.71094647-1.33853251-.58012242-.18055365-1.20238513.12599245-1.38986266.68468989l-3.15350744 9.39769401c-.18747754.5586974.13082402 1.1579789.71094644 1.3385325.58012242.1805537 1.20238513-.1259925 1.38986266-.6846899z" fill="url(#a)"/></g><g transform="matrix(-.9945219 .10452846 .10452846 .9945219 19.315509 .316157)"><path d="m6.03232494 14.3996261c-2.33652456 6.3558469-4.02118311 14.2150033-5.05397566 23.5774693-1.03279255 9.3624659-1.24788599 18.7249319-.64528031 28.0873978l1.71022983.1485136c-.61231044-10.9273585-.55074239-20.3186029.18470413-28.1737332.73544653-7.8551302 2.28859217-15.7102604 4.65943692-23.5653907z" fill="#28c76f"/><path d="m7.73782454 17.956016c3.10925096-.0270135 5.65169536-2.4871287 5.67870866-5.4948211.0270133-3.00769235-4.28126673-11.09053169-5.52984654-11.07969479-1.24857982.0108587-5.70273384 8.16982705-5.7297471 11.17751939-.02701327 3.0076924 2.47163405 5.42401 5.58088498 5.3969965z" fill="#65e09c" transform="matrix(.97029573 .2419219 -.2419219 .97029573 2.570409 -1.596564)"/><path d="m7.87893247 15.5746337c2.16295693-.018792 3.93202183-1.7756083 3.95131703-3.923959.0192952-2.14835065-3.22383378-6.88690032-4.09241096-6.87936303-.86857717.0075553-3.72105387 4.79906425-3.74034906 6.94741493-.01929518 2.1483507 1.71848604 3.8746991 3.88144299 3.8559071z" fill="#28c76f" transform="matrix(.97029573 .2419219 -.2419219 .97029573 2.696158 -1.612346)"/><path d="m7.44722493 14.9108653 3.15350747-9.39769399c.1874775-.55869744-.1308241-1.15797886-.71094647-1.33853251-.58012242-.18055365-1.20238513.12599245-1.38986266.68468989l-3.15350744 9.39769401c-.18747754.5586974.13082402 1.1579789.71094644 1.3385325.58012242.1805537 1.20238513-.1259925 1.38986266-.6846899z" fill="url(#a)"/></g><path d="m51.3071265 43.2989685c-8.7253597 3.2603322-14.8094972 7.0280127-18.2496399 11.3171641-3.4398429 4.2887776-5.712798 10.9401379-6.8338623 19.9554792-.0241648.1943273.1198204.3707267.3215998.393999s.3849434-.1153952.4091081-.3097226c1.1066625-8.8995251 3.3401837-15.4354895 6.6855664-19.6064947 3.3450829-4.1706314 9.3219679-7.8718944 17.9334274-11.0896664.1894605-.0707941.2834579-.2761.2099489-.4585634-.073509-.1824635-.2866879-.2729893-.4761484-.2021952z" fill="#28c76f"/></g><g fill="#28c76f"><path d="m29.5 69c-2.6941015-8.6174862-9.3607682-11.6653923-20-9.1437182 7.9655583 2.3366372 13.979486 5.3845433 18.041783 9.1437182z"/><path d="m47.5 67c-2.9231804-9.1698302-9.2565137-13.0842988-19-11.7434057 5.9177255 4.2819514 11.5428176 8.19642 16.8752763 11.7434057z" transform="matrix(-1 0 0 1 76 0)"/><path d="m24.8616655 68.6079488c.8156302-8.6373766 5.2450021-15.1905459 13.2881158-19.6595078-3.9603008 9.0195857-7.8119397 15.4787478-11.554917 19.3774861z" transform="matrix(.92718385 -.37460659 .37460659 .92718385 -19.724574 16.082253)"/></g><path d="m25.1489721 68c-1.6967414-4.7991446-3.3845016-11.5022443-4.6489721-18 6.2506145 2.4604821 8.2583518 12.263006 6.2506145 18z" fill="#65e09c"/><g transform="translate(12.5 62)"><use fill="#7367f0" xlink:href="#b"/><path d="m-3.31578947-.9380531h9.87437021c-6.11898822 22.5132743 12.30139396 31.8938053 0 54.4070796h-9.87437021z" fill="#8b81eb" mask="url(#c)"/></g></g></svg>