<svg height="278" viewBox="0 0 324 278" width="324" xmlns="http://www.w3.org/2000/svg" xmlns:xlink="http://www.w3.org/1999/xlink"><defs><linearGradient id="a"><stop offset="0" stop-color="#fdc6c6"/><stop offset="1" stop-color="#fab2b2"/></linearGradient><linearGradient id="b" x1="43.252291%" x2="50%" xlink:href="#a" y1="-28.185925%" y2="91.050481%"/><linearGradient id="c" x1="42.314264%" x2="50%" xlink:href="#a" y1="8.687053%" y2="71.690814%"/><linearGradient id="d" x1="68.669473%" x2="68.669473%" y1="-53.106962%" y2="100%"><stop offset="0" stop-color="#7367f0"/><stop offset="1" stop-color="#8ca5ff"/></linearGradient><path id="e" d="m10.9337166.08962111h24.3905986c.9290038 0 1.6821102.75093771 1.6821102 1.67726633v4.61248244c6.1677376 7.75735682 9.2516064 15.51471362 9.2516064 23.27207042 0 7.5184312-2.6334806 15.0368624-7.9004419 22.5552936-.3146651.4491677-.8295107.7167769-1.3789948.7167769h-27.6991656c-.54948441 0-1.06433036-.2676129-1.37899211-.7167833-5.26695826-7.5184291-7.90043739-15.0368581-7.90043739-22.5552872 0-7.6109916 2.96859423-15.2219832 8.9057827-22.83297475l.34582366-.43909567v-4.61248244c0-.92632862.75310644-1.67726633 1.68211024-1.67726633z"/><mask id="f" fill="#fff"><use fill="#fff" fill-rule="evenodd" xlink:href="#e"/></mask></defs><g fill="none" fill-rule="evenodd"><g transform="translate(168 77)"><path d="m52.4621947 99.1157895-12.7401608 100.7157895 6.6795002-.088683 12.7401608-99.68412z" fill="#c5c5c5"/><path d="m63.9374489 99.1157895-12.7401608 100.7157895 6.6795003-.088683 12.7401608-99.68412z" fill="#c3c3c3" transform="matrix(-1 0 0 1 121.814238 0)"/><path d="m102.776771 99.1157895-12.7401608 100.7157895 6.6795002-.088683 12.7401606-99.68412z" fill="#c3c3c3" transform="matrix(-1 0 0 1 199.492882 0)"/><path d="m0 104.425263c0-5.8111981 4.71090699-10.5221051 10.5221053-10.5221051h43.1807537c5.7217115 0 10.5038394-4.3536786 11.0393331-10.0502766l6.9376191-73.8026047c.5354937-5.69659801 5.3176216-10.0502766 11.0393331-10.0502766h28.8883937c6.123733 0 11.088 4.96426669 11.088 11.088 0 .2833045-.010858.566505-.03255.8489779l-7.124163 92.7713681c-.443665 5.777425-5.261016 10.239022-11.055451 10.239022h-93.9612687c-5.81119831 0-10.5221053-4.710907-10.5221053-10.522105z" fill="#c5c5c5"/><path d="m111.325295 0c.251642 0 .501326.00838278.748788.02488431.017369.25553898.026341.51378194.026341.77412048 0 .28409628-.010919.56808763-.032732.85134526l-7.119387 92.44983735c-.444831 5.7764197-5.2617456 10.2366546-11.0552678 10.2366546h-93.71113337l-.17997413-.002484c-.00128454-.067611-.0019297-.135378-.0019297-.203296 0-5.7961041 4.69867087-10.4947749 10.4947751-10.4947749h43.0552911c5.720583 0 10.5021566-4.352013 11.0390571-10.0473451l6.9327867-73.541597c.5369005-5.69533206 5.3184741-10.047345 11.0390571-10.047345z" fill="#b2b0b0"/></g><g transform="matrix(-1 0 0 1 245.978039 145.355278)"><path d="m69.4916603 98.3939364s-5.5325351 13.2665156-.9971075 16.7832776c4.5422477 3.517444 13.3763818 12.215503 13.3763818 12.215503l-28.6229319-6.208276 7.0657187-24.3394332z" fill="url(#b)"/><path d="m67.8480047 107.130037s-.7031159 6.225517 1.3273778 8.350019c2.0295549 2.123594 13.0193791 10.21032 13.8802033 11.744682.8608242 1.535271-.6787087 3.228517-.6787087 3.228517s-11.8703619 1.031382-17.2089738-2.212569c-3.8544647-2.343308-9.6023671-6.550548-9.6023671-6.550548l-1.5226356 4.137332-4.3153858-.176134s-.5716924-5.097897.4524725-7.541982c1.0241649-2.444993 6.2980038-14.886041 6.2980038-14.886041s2.0300506 1.823077 4.1872741 2.741879c2.1572236.917894 4.8593591 3.432796 4.8593591 3.432796z" fill="#323740"/><path d="m21.608068.03330215c9.6232906.4291227 63.1838151 12.26039105 72.9148559 14.27044085 9.7310411 2.0100497 17.9580061 12.8865718 10.5376371 25.4809825-8.3342743 14.1378901-29.8382283 54.2891703-35.0592212 63.3402625-2.5841729 4.479911-15.6208907 1.968135-12.5586246-5.5510577 5.7086135-14.0171237 8.3596992-49.2294743 22.9139885-62.0684168 0 0-48.945914 8.5075747-70.0885086-1.2375974-15.36589215-7.0839303-11.88970041-35.27200105 11.3398729-34.23461395z" fill="#42474f"/></g><g transform="matrix(-1 0 0 1 218.008784 62.481704)"><path d="m60.7693832 20.8071619s-.1087435-7.8201406 2.6302332-11.90698339c2.7389768-4.08684276 2.8477203-8.42796587 4.9206432-8.28586803 2.0729228.14209784.0203894 10.23240452.0203894 10.23240452s2.6302332-1.00352353 4.5196514-2.2728856c1.8894183-1.26936208 7.6188411-7.52710634 8.9577454-6.41819925 2.2700204 1.88942539-1.3864796 12.54744355-3.3778448 14.67823135-1.9981617 2.1314676-12.91329 9.1404947-12.91329 9.1404947l-26.7351401 27.30277-5.0195976-13.8699974z" fill="#ffe0d1"/><path d="m1.63115558 18.2277751c4.47652589 10.3695364 12.67315642 29.4187451 16.05225142 35.1019892 4.2347191 7.1173684 10.9123069 10.2531222 18.7307268 4.9723741 1.3837379-.934628 4.1834267-3.1873621 8.3990663-6.7582023l-7.652153-16.8185968c-3.3086879 2.727358-4.9630319 4.091037-4.9630319 4.091037s-8.4012363-21.5081499-15.1594263-33.96756961c-5.8529646-10.77946316-22.22142495-2.38525345-15.40743332 13.37896841z" fill="#ffb66f"/><path d="m32.2848176 38.8275224c1.5042716 5.0956851 2.432231 7.4960064 2.7838783 7.2009637.3516473-.2950426.2173102-3.3612368-.4030113-9.1985825z" fill="#000" fill-opacity=".159856"/><path d="m35.2595289 35.6562007 6.3990513 21.4030667 6.7965404-5.3275574-9.4595707-18.9741075z" fill="#ffedc2"/></g><g transform="matrix(-1 0 0 1 257.77595 0)"><g transform="matrix(.9781476 .20791169 -.20791169 .9781476 13.61303 .587741)"><path d="m20.8560383 3.50814866s-4.4408867-4.72403309-9.5690411-3.20831711c-5.12815438 1.51571597-9.76685367 10.80682865-7.5643058 19.54029365 2.19142388 8.734596.54507497 10.5319637-2.11355603 16.4183711-7.14159459 15.8347074 11.80254183 28.5678527 11.80254183 28.5678527l20.6463885-4.3829142-7.3754814-38.5672733z" fill="#42474f"/><path d="m13.3412921 8.42218127c-12.02672975 12.59365533-1.5954863 22.02433783.3691267 24.34159593 6.7538278 18.4645473 1.3810978 20.6285193-6.1350202 26.6729788l4.0415032 4.6120093 11.5853454-4.836794-.3720578-51.80201792z" fill="#000" fill-opacity=".199355"/></g><path d="m18.1257969 58.9819856s7.3307187-1.4714926 7.5484457-11.7419819c.2177271-10.2704893-.989762-13.776309-.989762-13.776309l13.8243289-.2491299s.1504695 11.4462957.1528416 15.5864611c.0057676 10.0666183 7.7639202 11.2342588 7.7639202 11.2342588s-1.6127705 7.9631462-14.1392856 8.6666143c-9.7804146.5501019-14.1604888-9.7199134-14.1604888-9.7199134z" fill="#f9c7b0"/><g transform="matrix(.9781476 .20791169 -.20791169 .9781476 23.906539 4.009036)"><path d="m2.77093172 6.82883838c-1.72352062-5.68987493 7.53958208-9.1315628 10.26130208-5.03237511 0 0 1.3342828 3.88507974-1.4473485 6.10311016-3.76338367 2.99140067-8.81395358-1.07073505-8.81395358-1.07073505z" fill="#fb9934"/><path d="m4.66683899 22.025379c-6.16701065-.2383295-5.16109955 8.7781374 1.24526666 8.7658969 0 0 3.72091521 12.8084257 16.63945555 12.8084257 10.4915207 0 11.1740119-14.9284578 11.2691774-17.9064965.102375-3.1753265.1153521-13.6071022.1153521-13.6071022l-29.50932823-.0136806z" fill="#ffe0d1"/><path d="m7.90266196 27.5855643c1.04996128-.2866637 1.33420548-6.108971 1.33420548-6.108971 3.14185116-.6229399 3.69501946-1.331493 6.06928326-5.2219257 10.5447724 2.2449706 17.7041677 2.9306271 18.62994 10.642444 0 0 7.9192331-17.80669011-5.9560616-24.13577598-12.2043887-5.55902835-25.08148538-.33607766-27.32817672 9.37226788-1.59187678 6.8529498.2326033 11.885873.2326033 11.885873s1.59866668-2.5428832 4.22292121-1.9077708 1.74532379 5.7605224 2.79528507 5.4738586z" fill="#42474f"/><g stroke-linecap="round"><path d="m20.28935 33.9667264s2.1223403 3.4255813 6.2645236 2.209508" stroke="#f77b7b" stroke-width="1.5" transform="matrix(.95105652 -.30901699 .30901699 .95105652 -9.731699 8.960587)"/><path d="m22.0870522 38.0554716c.9722411.4074834 1.89443.4074422 2.7014182-.0609036" stroke="#f49494" transform="matrix(.99939083 .0348995 -.0348995 .99939083 1.346538 -.794711)"/><path d="m4.9515072 27.0266022c.38712876-1.3949825.21507244-2.6135448-1.17214927-3.1706839" stroke="#f77b7b" transform="matrix(.97437006 -.22495105 .22495105 .97437006 -5.608849 1.654287)"/></g></g></g><g transform="matrix(-1 0 0 1 261.797753 57.440444)"><path d="m47.5569124 1.22269175c.1685575-.00812049 6.0804644 2.5824319 6.7612039 3.58117641 4.4346899 6.50634014 12.5772511 29.40644454 12.9964432 34.37424914.4722943 5.7303788-7.7880725 14.8587558-7.8892785 23.1543012-.0899608 8.2966754 3.5333547 33.277104 2.1277168 35.6106146-1.3943929 2.3335109-10.5591523 13.4179689-12.4708199 13.4631699-1.9229128.045201-3.3582173-5.77445-6.2706992-5.647887-2.9012367.126563-8.9511025 7.842404-11.5599665 7.787622-2.5976189-.057091-29.518397-17.111494-27.46054303-21.9706202 2.06909906-4.8591262 11.67241753-16.9346197 10.69409353-23.5554616-.9670789-6.6197119-8.69246509-31.0565964-11.48125079-39.3736124-2.77754059-8.3170159-5.01531621-14.942378.16867656-18.5211809 5.18399276-3.57880292 22.05164823-10.1250629 22.05164823-10.1250629l15.1021741 8.44809936s6.3538152-7.1831672 7.2306016-7.22540761z" fill="#ff9f43"/><path d="m42.1872642 8.21328906c4.5294687 15.06292304 10.7457375 29.90507104 13.2356419 44.02943234l-7.2418556-3.9017393-6.6794927 5.0612831c.4715587-14.6845173-1.993767-30.1032322-3.1271659-45.18897614z" fill="#fff6e1"/><path d="m15.7309505 19.7792386-.1719815 1.2180675c-2.0292626 15.1265029.372063 33.4818436 4.5335448 36.2821871 4.2481794 2.858684 20.7824966.0533622 20.7824966 2.317258 0 2.2638959-22.8493862 23.0112187-19.0983369 32.9294099 2.062385 5.4531752 1.3717774 10.3029599-2.0718228 14.5493529l-.999985-.672098c-7.8043631-5.293531-16.08973901-12.0516296-14.91389653-14.8280982 2.06909906-4.8591262 11.67241753-16.9346197 10.69409353-23.5554616-.9283957-6.3549234-8.08524749-29.1301532-11.1236493-38.3003671l-.9678929-2.9074444c-1.12489599-3.4090217-2.06115781-6.4970708-2.28745787-9.1615101l.69820504-.4527409c11.16012843-7.1540599 16.13555143-6.2934042 14.92668283 2.5814449z" fill="#000" fill-opacity=".159856"/><g fill="#fff6e1"><path d="m22.4366807 1.0667164 2.787456-1.0667164 15.433703 8.01091805s-2.9021661 7.38487425-8.0411797 3.70742225c-4.4048687-3.14464887-2.5465647-5.91189547-5.9993394-7.33936403-3.4413038-1.42746857-4.1806399-3.31225987-4.1806399-3.31225987z"/><path d="m40.6578397 8.01091805c1.1187897 2.48491095 3.3933365 3.93692705 4.5692073 3.48555475 1.9407576-.7455914 1.1073735-3.71614111 1.8722603-5.2167768.5479786-1.06462421.9018815-1.22532221 1.3813628-2.22495826.4452326-.91692385.463668-2.01746029.3495058-2.32113223l-1.5183575-.6900561c-1.3909972 1.31180556-2.4100734 2.315535-3.0572285 3.01118833-.8065104.86695086-2.0054272 2.18567763-3.5967502 3.95618031z"/></g></g><g transform="matrix(-1 0 0 1 285 66.252514)"><path d="m46.8685393 39.0957319s9.0863904-8.0317184 11.8679384-8.9637894c2.7815481-.9320709 19.0724913-2.0517797 18.9699574.0543878-.1172428 2.2564139-8.8671001 2.126563-9.7736787 3.236754-.9065787 1.1095111-1.1126193 8.6966093-4.5397612 9.5484582-3.4202739.8518489-13.6742276 2.3203195-13.6742276 2.3203195l-24.5275954 14.7737207-1.0479021-13.4987197z" fill="#ffe0d1"/><path d="m22.6951592 5.08897848c-9.5730692 13.49352492-17.74632036 34.04745372-20.88360859 42.06084022-3.13728823 8.0133866.02745792 20.1001215 13.82284589 17.7272525 1.5532324-.2669457 4.0714816-.9360798 7.5547477-2.0074024l3.2969236-18.5593639c-2.8349191 1.1888006-4.2523787 1.7832009-4.2523787 1.7832009s13.7112427-24.2724573 17.0593368-30.7792702c5.5925573-10.86677388-8.1656296-22.1143709-16.5978667-10.22525712z" fill="#ffb66f"/><path d="m22.2336891 46.0935058c-4.6429764 2.2649356-6.6725001 2.8992575-6.0885713 1.9029659.5839289-.9962917 3.4891426-3.2040235 8.7156411-6.6231956z" fill="#000" fill-opacity=".159856"/><path d="m22.8978756 45.2359262-2.2773385 20.0686191 9.0060847-2.8591063-1.3590192-19.6673058z" fill="#ffedc2"/></g><g transform="matrix(-1 0 0 1 262.8524 141.142082)"><path d="m119.791753 103.055174s-.166788 13.135242 10.670496 18.046313c10.830465 4.910389 18.546821 4.614772 17.564713 8.411486-.982107 3.796033-29.172792 3.642777-31.805386.673657-2.243844-2.525694-7.123204-26.045024-8.466781-24.246795z" fill="url(#c)"/><path d="m109.68335 113.409373s2.277552 5.57797 2.478015 8.958724c.201403 3.381666 5.386128 12.994257 5.386128 12.994257l4.095829.513232.374338-3.485091s5.928457 2.523467 9.647831 2.926198c3.718433.403645 16.474607-1.11048 19.010971-3.216373 2.537306-2.10498 1.255477-5.069304-6.06657-6.87566-7.321106-1.806356-18.696631-7.083875-20.861247-10.904803-2.164615-3.82184-2.177791-3.723212-2.177791-3.723212l.043292 6.367908s-1.873804-3.351531-4.085476-3.79901c-2.211673-.446567-7.84532.24383-7.84532.24383z" fill="#323740"/><path d="m9.38422937.18586561c-12.13939703 18.26804099-10.9522633 31.48181569 3.56140113 39.64132429 18.5922738 10.452482 75.9354502-1.7906085 75.9354502-1.7906085s-1.0171371 8.1786476 0 15.4730157c2.6565118 19.0510954 15.2906373 50.7911939 17.9637053 54.7794149 3.696544 5.515248 14.956954 1.355896 15.16906-3.236414s-8.488671-63.2438396-9.811788-74.4282757c-1.316297-11.1851172-5.471997-12.8097961-17.6097351-15.8673227-2.788476-.702424-35.763915-8.88687609-38.7847483-8.64832375-17.3039946 1.36648006-32.778443-.60779003-46.42334523-5.92281024z" fill="#42474f"/><g fill="#fff" fill-opacity=".192499"><path d="m22.6116445 36.7818068c18.824498 2.1065982 68.6615789-2.2356886 70.6631475-.2625483 1.911003 1.8838609 1.592094 34.6596981 5.8791749 53.6287807-4.2228117-11.4941134-8.7939894-26.0325776-10.2728862-36.6384421-1.0171371-7.2943681 0-15.4730157 0-15.4730157l-1.9471908.388063c-10.1602383 1.9710564-57.2630276 10.4336904-73.9882594 1.4025455-9.80984677-5.2970356-13.60532675-13.4984778-11.38643989-24.6043265 2.6754001 13.1014014 9.69306929 20.2877456 21.05245389 21.5589434z" opacity=".439941"/><ellipse cx="120.229826" cy="32.125623" rx="3.163739" ry="5.79352" transform="matrix(.97437006 .22495105 -.22495105 .97437006 10.308175 -26.222448)"/><ellipse cx="105.46476" cy="28.439076" rx="4.218181" ry="6.32041" transform="matrix(.9612617 -.27563736 .27563736 .9612617 -3.753346 30.171709)"/></g></g><g transform="matrix(.88294759 -.46947156 .46947156 .88294759 106.389633 63.199603)"><path d="m3.83913682 2.12371273 27.98146288 11.26910357c.9106266.3667408 1.5166697 1.2390499 1.5426451 2.2204085l1.0369941 39.1778955c.036007 1.3603532-1.0375878 2.4923268-2.3979409 2.5283338-.284455.0075292-.5680645-.0342712-.8382516-.1235473l-28.78220563-9.5103128c-1.00431898-.3318505-1.6847996-1.2676633-1.69090378-2.3253702l-.23625136-40.93668625c-.00785341-1.36080696 1.08893215-2.47032541 2.44973911-2.47817882.3201998-.00184792.63768998.05873292.93471208.178354z" fill="#7596ff" fill-rule="nonzero"/><path d="m4.95258695 2.60468012 27.98587895 9.67699778c.9927911.3432888 1.658774 1.2782464 1.658774 2.3287136v39.5352842c0 1.3608296-1.1031704 2.464-2.464 2.464-.2740646 0-.546209-.0457231-.805226-.1352864l-27.9858789-9.6769978c-.99279114-.3432888-1.65877403-1.2782464-1.65877403-2.3287137v-39.53528406c0-1.36082962 1.10317038-2.464 2.464-2.464.27406459 0 .54620896.0457231.80522598.13528638z" fill="url(#d)"/><path d="m3.32182762 4.36508311 29.67442718 9.86146179v40.4363636l-29.27068761-10.3073918z" fill="#fff" fill-rule="nonzero"/><path d="m13.3996517 3.19491209 11.4745585 4.24498112c.6042562.22354291 1.0154836.78770621 1.0433574 1.43138318l.1884475 4.35173551c.019115.4414141-.323226.8147467-.7646401.8338617-.1062805.0046024-.2124116-.0120384-.3121831-.0489486l-11.4745585-4.24498114c-.6042562-.22354291-1.0154836-.78770621-1.0433574-1.43138318l-.1884476-4.35173546c-.019115-.44141412.3232261-.81474673.7646402-.83386173.1062805-.00460237.2124115.0120384.3121831.0489486z" fill="#7367f0" fill-rule="nonzero"/><g fill="#a7c3ff"><path d="m22.133287 20.2485595c.4648473 0 .8416805.3771661.8416805.8424242 0 .4320254-.3249225.7880939-.7435228.8367566l-.0981577.0056676-13.19415335-4.4123637c-.46484729 0-.84168048-.3771662-.84168048-.8424242 0-.4320254.32492249-.7880939.74352276-.8367567l.09815772-.0056676z"/><path d="m22.133287 28.6728019c.4648473 0 .8416805.3771662.8416805.8424242 0 .4320254-.3249225.7880939-.7435228.8367567l-.0981577.0056676-13.19415335-4.4123638c-.46484729 0-.84168048-.3771661-.84168048-.8424242 0-.4320254.32492249-.7880939.74352276-.8367566l.09815772-.0056677z"/><path d="m22.133287 37.0970443c.4648473 0 .8416805.3771662.8416805.8424243 0 .4320253-.3249225.7880939-.7435228.8367566l-.0981577.0056676-13.19415335-4.4123637c-.46484729 0-.84168048-.3771662-.84168048-.8424243 0-.4320253.32492249-.7880939.74352276-.8367566l.09815772-.0056676z"/></g></g><g transform="translate(12 137)"><path d="m96.6280936 5.30328358h21.2387964v134.98961242h-21.2387964z" fill="#c5c5c5"/><path d="m96.6280936 0h12.7432774v140.292896h-12.7432774z" fill="#dbdbdb"/><path d="m0 5.30328358h105.13204v40.48773402h-83.893244v94.5018784h-21.238796z" fill="#c5c5c5"/><path d="m0 5.30328358h12.7432776v134.98961242h-12.7432776z" fill="#dbdbdb"/></g><g transform="translate(0 137)"><path d="m274.911304 5.30328358h21.238796v134.98961242h-21.238796z" fill="#c5c5c5"/><path d="m178.283211 5.30328358h105.13204v50.11782352h-83.893244v84.8717889h-21.238796z" fill="#c5c5c5"/><path d="m28.9826087 0h161.9205353v55.3225075h-161.9205353z" fill="#dbdbdb"/><path d="m175.097391 5.30328358h12.743278v50.01922392h-12.743278z" fill="#c3c3c3"/><path d="m178.283211 5.30328358h12.743277v134.98961242h-12.743277z" fill="#dbdbdb"/><path d="m190.536464 0h109.348477c4.393384 0 7.954925 3.5615414 7.954925 7.95492537 0 4.39338393-3.561541 7.95492533-7.954925 7.95492533h-109.348477c-4.393384 0-7.954926-3.5615414-7.954926-7.95492533 0-4.39338397 3.561542-7.95492537 7.954926-7.95492537z" fill="#c5c5c5"/><path d="m16.3626756 3.18197015h161.9205354v15.90985075h-161.9205354z" fill="#c3c3c3"/><path d="m8.60081166 0h185.09014934c4.393384 0 7.954925 3.5615414 7.954925 7.95492537 0 4.39338393-3.561541 7.95492533-7.954925 7.95492533h-185.09014934c-4.39338397 0-7.95492537-3.5615414-7.95492537-7.95492533 0-4.39338397 3.5615414-7.95492537 7.95492537-7.95492537z" fill="#dbdbdb"/></g><g transform="matrix(-1 0 0 1 224 121)"><path d="m7.27395851 1.9077581h-5.38934313c-1.04084433 0-1.88461538.78350168-1.88461538 1.75v2.39704115c0 2.29034759 1.99951615 4.14704115 4.46604432 4.14704115h2.80791419c.44607615 0 .80769231-.33578643.80769231-.74999999s-.36161616-.75-.80769231-.75h-2.80791419c-1.57437588 0-2.8506597-1.18512069-2.8506597-2.64704116v-2.39704115c0-.13807119.12053872-.25.26923076-.25h5.38934313c.44607615 0 .80769231-.33578644.80769231-.75 0-.41421357-.36161616-.75-.80769231-.75z" fill="#8c81ff"/><path d="m25.1703291 0c1.1895364 0 2.1538462.8954305 2.1538462 2v5c0 3.5999309-2.926515 6.5651607-6.6909195 6.9562516l-.0009063 1.0437484h-9.4280512l-.0005078-1.0665156c-3.66953898-.4718067-6.49499982-3.3962533-6.49499982-6.9334844v-5c0-1.1045695.96430977-2 2.15384616-2z" fill="#7367f0"/><path d="m4.80769231 14h21.61538459c.2761424 0 .5.2238576.5.5 0 .2809898-.2185941.5134927-.4990502.5308038l-7.9498104.4907006h-5.6538461l-8.01361352-.4909307c-.28042884-.0171796-.49906437-.2496191-.49906437-.5305737 0-.2761424.22385762-.5.5-.5z" fill="#8c81ff"/></g><g transform="translate(70 90)"><path d="m6.97004292 43.6617216h102.52999408c.798589 0 1.445973.647384 1.445973 1.4459725 0 .7985886-.647384 1.4459725-1.445973 1.4459725h-102.52999408c-.79858857 0-1.44597252-.6473839-1.44597252-1.4459725 0-.7985885.64738395-1.4459725 1.44597252-1.4459725z" fill="#8c81ff"/><path d="m76.4154994 43.6617216h33.0845376c.798589 0 1.445973.647384 1.445973 1.4459725 0 .7985886-.647384 1.4459725-1.445973 1.4459725h-33.0845376c-.7985886 0-1.4459725-.6473839-1.4459725-1.4459725 0-.7985885.6473839-1.4459725 1.4459725-1.4459725z" fill="#7367f0"/><path d="m4.09733292 0h64.33158628c1.8091365 0 3.3372593 1.34263977 3.5700679 3.13673423l4.7476012 36.58646937c.2558547 1.9716941-1.135108 3.7774791-3.1068021 4.0333337-.1536171.0199339-.3083607.0299321-.4632658.0299321h-64.33158623c-1.80913648 0-3.3372593-1.3426398-3.57006791-3.1367343l-4.74760124-36.58646933c-.25585462-1.97169406 1.13510808-3.77747905 3.10680214-4.03333367.15361712-.01993395.30836069-.0299321.46326576-.0299321z" fill="#7367f0"/><path d="m4.09733292 0h62.05882588c1.8091365 0 3.3372593 1.34263977 3.5700679 3.13673423l4.7476013 36.58646937c.2558546 1.9716941-1.1351081 3.7774791-3.1068022 4.0333337-.1536171.0199339-.3083607.0299321-.4632658.0299321h-62.05882583c-1.80913648 0-3.3372593-1.3426398-3.57006791-3.1367343l-4.74760124-36.58646933c-.25585462-1.97169406 1.13510808-3.77747905 3.10680214-4.03333367.15361712-.01993395.30836069-.0299321.46326576-.0299321z" fill="url(#d)"/><ellipse cx="36.333169" cy="22.589966" fill="#fff" rx="4.501611" ry="4.894489" transform="matrix(.79863551 -.60181502 .60181502 .79863551 -6.278771 26.414664)"/></g><g transform="translate(258 146)"><path d="m32.9716451 81.1560808c8.7537648-19.8496532 16.7064328-40.23561 23.986818-61.0716345-16.7697439 15.843021-29.8103952 35.1444701-27.9534184 61.0716345z" fill="#57e295"/><path d="m28.3059489 83.228885c-2.0718509-33.8460944-1.1939126-65.2796511 16.1711921-83.228885-2.3952491 37.1612654-6.8758627 63.3397223-12.5506581 83.228885z" fill="#28c76f"/><path d="m27.5092124 79.7042438c-9.7018336-23.6517605-19.45071799-30.4314947-27.5092124-54.7096472 26.3734967 13.7077968 28.0267306 25.0268725 33.2034429 54.7096472z" fill="#57e295"/><path d="m22.2876747 79.7042438-17.40441245-23.6517605c8.40560615 2.4016705 22.45536175 6.2907425 22.45536175 23.6517605z" fill="#28c76f"/><path d="m38.5658509 79.7042438h5.8060999c3.6896536-7.7221331 8.8891133-13.0381778 21.4679867-6.5940898-8.2453528-12.5888574-25.163115-16.3987039-27.2740866 6.5940898z" fill="#57e295"/><path d="m33.2251016 79.7042438h4.828233c8.8612577-12.7020525 12.6711596-18.2367161 21.8413657-29.0839802-12.0802723 4.5947379-24.4803469 10.8472641-26.6695987 29.0839802z" fill="#28c76f"/></g><g transform="translate(268.153846 223.78125)"><use fill="#7367f0" xlink:href="#e"/><path d="m-5.88738587-1.3627789h21.86743327c-10.4689962 24.299395 10.1817134 38.68957 0 62.8974877h-21.86743327z" fill="#857af9" mask="url(#f)"/></g></g></svg>