<svg height="200" viewBox="0 0 358 200" width="358" xmlns="http://www.w3.org/2000/svg" xmlns:xlink="http://www.w3.org/1999/xlink"><linearGradient id="a" x1="100%" x2="100%" y1="28.701658%" y2="138.491308%"><stop offset="0" stop-color="#7e1939"/><stop offset="1" stop-color="#e35785"/></linearGradient><linearGradient id="b" x1="100%" x2="100%" y1="28.701658%" y2="96.603606%"><stop offset="0" stop-color="#9c2248"/><stop offset="1" stop-color="#e35785"/></linearGradient><linearGradient id="c"><stop offset="0" stop-color="#fdc6c6"/><stop offset="1" stop-color="#fab2b2"/></linearGradient><linearGradient id="d" x1="42.832599%" x2="50%" xlink:href="#c" y1="-28.185925%" y2="91.050481%"/><linearGradient id="e" x1="44.771152%" x2="62.918852%" y1="-28.185925%" y2="121.546626%"><stop offset="0" stop-color="#ffafaf"/><stop offset="1" stop-color="#f07777"/></linearGradient><linearGradient id="f" x1="31.713261%" x2="55.144278%" xlink:href="#c" y1="-1.01554%" y2="86.959849%"/><linearGradient id="g" x1="42.314264%" x2="50%" xlink:href="#c" y1="24.938328%" y2="63.158298%"/><linearGradient id="h" x1="40.233293%" x2="59.342796%" y1="35.953671%" y2="59.889717%"><stop offset="0" stop-color="#f1adad"/><stop offset="1" stop-color="#ba947b"/></linearGradient><linearGradient id="i"><stop offset="0" stop-color="#fdc6c6"/><stop offset="1" stop-color="#a47070"/></linearGradient><linearGradient id="j" x1="43.599371%" x2="50%" xlink:href="#i" y1="-28.185925%" y2="111.153913%"/><linearGradient id="k" x1="46.492849%" x2="50%" xlink:href="#i" y1="-28.185925%" y2="111.153913%"/><mask id="l" fill="#fff"><path d="m6 0h346c3.313708 0 6 2.6862915 6 6v194h-358v-194c0-3.3137085 2.6862915-6 6-6z" fill="#fff" fill-rule="evenodd"/></mask><g fill="none" fill-rule="evenodd" mask="url(#l)"><g transform="matrix(-1 0 0 1 220.938148 110.728685)"><path d="m0 0s6.48105157 59.2260826 7.00989811 64.6376349c.52884654 5.4115524-.52884654 9.3299669-.96254865 14.919414-.43370211 5.5894472 1.65379689 40.7431151 1.65379689 40.7431151 3.06897555 1.759617 6.72093165 2.104951 11.36395435.053189 0 0 4.2640855-43.7931462 4.2224441-53.767749-.0249849-5.9500695.6246219-65.91756084.6246219-65.91756084z" fill="url(#a)"/><g fill="#fff" fill-opacity=".192499"><ellipse cx="19.727229" cy="67.045022" rx="2.58398" ry="4.003581" transform="matrix(.99862953 .05233596 -.05233596 .99862953 3.535901 -.940561)"/><path d="m10.3558939 65.12386c.5323305 3.7464902-.89767263 10.843295-4.29000946 21.2904144l-.04273332-1.7177396c-.04846697-2.2712654-.04994775-4.0424562.01596412-5.0253419l.00823422-.114144c.41924538-5.4031322 1.42157564-9.2447773 1.01022671-14.3831187l-.0889833-.9496226c-.22222578-2.1899128-.91291671-8.6141751-1.77834456-16.6022702l.47487614 1.3053161c2.62832484 7.2857949 4.19177837 12.6846554 4.69076945 16.1965065z"/></g></g><g transform="matrix(-1 0 0 1 241.539264 108.249808)"><path d="m16.4595307 0s-7.07090829 5.96590767-8.92729804 14.5369843c-3.0945914 14.287937-1.5372008 40.6768145-1.62881201 46.4633464-.08744706 5.7865318-2.30997439 9.2779428-3.50204677 17.4596234-1.19207239 8.1816807-.01249244 44.7467789-.01249244 44.7467789 3.1605868 1.785418 6.58767895 1.913231 10.35623106-.107173l22.1324359-121.19108006z" fill="url(#b)"/><g fill="#fff" fill-opacity=".192499"><ellipse cx="17.539209" cy="68.292195" rx="2.906345" ry="4.620623" transform="matrix(.9961947 .08715574 -.08715574 .9961947 6.018799 -1.26877)"/><path d="m11.7490473 5.32467192 2.7622794.3559962c-2.4268973 4.34615298-3.6529861 14.25735328-3.6782663 29.73360078l-.0003991.4905735c0 23.399958-4.51194268 31.6431133-6.32716394 41.7167133l-.05417384.3058384c-1.08728163 6.2470967-1.90172862 16.2575856-2.44334095 30.0314669l-.05506333-3.414827c-.15070273-10.4059733-.15403974-21.9489143.44845464-26.0840799 1.19207238-8.1816806 3.41459971-11.6730916 3.50204677-17.4596234l.00396283-.5755312c-.00160827-6.7834425-1.37690447-32.0285163 1.62484918-45.8878152.78400863-3.6198207 2.49809144-6.7749771 4.21681464-9.21231238z"/></g></g><g transform="matrix(-1 0 0 1 206.961408 67.18479)"><path d="m36.5810454 12.1657126s-.0666159-3.34064375 1.6112767-5.73017455c1.6778832-2.38953081 1.7444991-4.92773646 3.0143647-4.84465346 1.2698655.08308301.0124905 5.98277136.0124905 5.98277136s1.611272-.58674888 2.7687232-1.32893054c1.1574512-.74218167 4.6672763-4.40101407 5.4874846-3.75264861 1.3906068 1.10472568-.8493527 7.33634852-2.0692564 8.5821961-1.2240671 1.246245-7.2645642 4.7284919-7.2645642 4.7284919l-17.7893774 17.0832296-2.659865-9.0689142z" fill="url(#d)"/><path d="m.9992404 10.6575742c2.74230465 6.0629508 7.76353282 17.200808 9.833555 20.5237366 2.5941746 4.161445 6.6848424 5.9948848 11.47438 2.907291.6680292-.4306559 1.9613188-1.3991691 3.8798688-2.9055394-.4258084-3.9550295-1.9760105-7.2607351-4.6481076-9.9185595-1.2096941.9539959-1.8145412 1.4309939-1.8145412 1.4309939s-5.146569-12.5755723-9.2866134-19.86045429c-3.58550634-6.30263036-13.61276987-1.39463075-9.4385416 7.82253169z" fill="#f46465"/><path d="m19.7775703 22.7020138c.9215117 2.9793895 1.4899765 4.3828303 1.7053944 4.2103222.215418-.1725081.1331235-1.9652772-.2468834-5.3783074z" fill="#000" fill-opacity=".159856"/></g><g transform="matrix(-1 0 0 1 225.387425 32.5)"><path d="m7.57319491 21.8082086v5.3647997l-4.13296841-3.1720683s-1.27033771-5.1400291-2.30351227-8.9576804c-.64788863-2.3939932-2.22643951-10.49607141 4.12840129-10.11644282 5.20575698-8.74735004 20.36646598-3.33347719 20.48719928 7.35324952.145211 12.853377.0267074 17.8577552.0267074 17.8577552-8.5730718.4689852-13.3984973-.7125164-18.20582729-8.3296129z" fill="#33373e"/><path d="m3.35091929 32.0226924s3.84469994-.8603651 3.97807879-6.8654042c.13337886-6.0050391.03974867-8.0548522.03974867-8.0548522l8.46873725-.1456635s.0921771 6.6925198.0936302 9.1132278c.0035332 5.885838 4.5443637 6.3683875 4.5443637 6.3683875s-.7761901 4.8561184-8.449891 5.2674282c-5.99144894.3216384-8.67466761-5.6831236-8.67466761-5.6831236z" fill="url(#e)"/><path d="m5.39458799 14.1037811c-3.7778899-.1393486-3.16167215 5.1324778.76284616 5.1253209 0 0 2.27942009 7.4889419 10.19327425 7.4889419 6.4270702 0 6.845162-8.7285007 6.9034601-10.4697263.0627145-1.8565775.0706643-7.95591897.0706643-7.95591897l-18.07731487-.00799886z" fill="url(#f)"/><path d="m5.10222086 14.0691493c1.56563343.2460843 1.37566117 1.2341498 1.80146106 1.1477718 2.16175327-.4381046 10.91221668.1398269 12.03894868-4.44691 1.4019335 2.8655782 1.7446349 3.5700457 4.83173 4.3392051v-8.39711571l-19.52548998-1.78528371s.30308577 9.05533312.85335024 9.14233252z" fill="#33373e"/><g stroke-linecap="round"><path d="m14.9610027 21.0574409s1.3225789 2.0294351 3.8390535 1.3491438" stroke="#f77b7b" stroke-width="1.5" transform="matrix(.95105652 -.30901699 .30901699 .95105652 -5.910919 6.283424)"/><path d="m16.0663364 23.4777114c.5951619.2373184 1.1600604.2363967 1.6548471-.0382412" stroke="#f49494" transform="matrix(.99939083 .0348995 -.0348995 .99939083 .832006 -.575241)"/><path d="m5.57793891 17.0340266c.22807393-.8152326.11546183-1.5304855-.73579447-1.8655109" stroke="#f77b7b" transform="matrix(.97437006 -.22495105 .22495105 .97437006 -3.487148 1.596239)"/></g></g><g transform="matrix(-1 0 0 1 235.078529 63.292605)"><path d="m13.9008168.6158521c4.8249618 2.81691591 10.4029215 3.84963761 15.5954357.7906578 8.4737556 15.9269197 10.5855117 34.9298837 8.5472661 55.933193-12.3564464 4.6630482-22.7414749 3.7459863-31.58278301-1.5838436z" fill="#ffe4f4"/><path d="m14.1119128.6286194c7.9908611 24.9522825 12.7830836 60.3278734-12.17369212 54.1734931 13.25726872-23.2670837-4.76515182-33.7390154-.68020425-45.76398512 1.39663456-4.1113106 12.74961107-8.73205819 12.85389637-8.40950798z" fill="#f98182"/><path d="m5.09890177 10.9901755c9.03171883 1.2991696 1.58658784 16.3305048 4.56778565 18.5949539 2.98119778 2.2644491 8.17019548 2.5087525 8.72971608 3.8922014 1.124527 2.7804616-4.3114385 9.799386-16.30789649 21.0567734l-.15028633.2680083c11.54827372-20.2677231-.63840964-30.826514-1.27221498-41.1602549 1.3380738-2.0006102 2.81578831-2.8842953 4.43289607-2.6516821z" fill="#000" fill-opacity=".159856"/><path d="m14.2199562.6158521s-3.9062576 7.1886305-2.1254637 9.8940427c1.7744111 2.7054122 1.3978275 3.9578709 1.1871959 7.6511647-.1723348 3.0753126 6.3729754 10.2771068 6.3729754 10.2771068-.1914832-7.4087942-1.445474-16.8122255-5.4347076-27.8223142z" fill="#ea5455"/><path d="m29.0733101 1.23170419c3.0493937 7.29065847 4.5151967 13.01097251 5.8828433 23.71239121.7603154 5.9417616.9502151 15.0433149.5696991 27.3046597l3.7683453.7063675c1.7959659-18.9432176 2.3937865-29.6343872 1.7934618-32.0735089-1.5116094-6.1393684-2.535664-9.7264057-4.5315118-15.33894482-1.0993523-3.0804617-7.4828377-4.31096469-7.4828377-4.31096469z" fill="#f98182"/><path d="m29.0733101 1.23170419s5.489707 4.62697856 5.9959435 5.94950816c.6903224 1.80254034-.631152 3.83446085 2.5772037 7.76704885 1.8605833 2.2750509-2.3799688 11.4127554-2.3996923 10.8964939 0-.1418782-4.753363-22.75675936-6.1734549-24.61305091z" fill="#ea5455"/></g><g transform="matrix(-1 0 0 1 248 69.389541)"><path d="m28.7115089 22.8588329s4.9202185-4.6960551 6.6241855-5.2410264c1.7039669-.5449714 11.0376702-1.1996525 10.9745603.0317999-.0715246 1.3192997-6.0777312 1.2433774-6.6330982 1.8924935-.555367.6487186-1.3276603 5.7006613-3.4271159 6.1987278-2.0952483.4980664-6.438565 1.9725167-6.438565 1.9725167l-19.3332863 9.5220186 2.0597626-9.5212837z" fill="url(#g)"/><path d="m13.9029779 2.97546824c-5.8644299 7.88951166-10.87133594 19.90716166-12.79322811 24.59249826-1.92189218 4.6853366.01682062 11.752314 8.46782871 10.3649243.6708131-.1100368 1.551802-.3674447 2.6429667-.7722235 3.1073892-4.0603624 3.6524036-7.5463058 2.4927123-10.6500977-.7286498.2931884-1.0929747.4397826-1.0929747.4397826s8.3994611-14.1918316 10.4504922-17.99629163c3.4259817-6.35367993-5.0022371-12.93002288-10.1677971-5.97859233z" fill="#f46465"/><path d="m13.6202828 26.9503522c-2.8442716 1.3242823-4.08755098 1.6951632-3.72983813 1.1126427.35771283-.5825205 2.14269883-1.8729329 5.35495783-3.8712371z" fill="#000" fill-opacity=".159856"/></g><g transform="translate(98 105.5)"><path d="m179.553738 2.5725h11.462492v144.0845h-11.462492z" fill="#ebebeb"/><path d="m115.333419 2.5725h67.737508v144.0845h-67.737508z" fill="#d2d2d2"/><path d="m121.988243 2.5725h11.462492v144.0845h-11.462492z" fill="#ebebeb"/><path d="m122.924473 2.5725h2.580958v144.0845h-2.580958z" fill="#d2d2d2"/><path d="m111.740319 2.5725h11.462493v144.0845h-11.462493z" fill="#ebebeb"/><path d="m8.29955272 2.5725h106.95795528v144.0845h-106.95795528z" fill="#ebebeb"/><path d="m8.22364217 1.8375h117.07936083v7.7175h-117.07936083z" fill="#d2d2d2"/><g fill="#ebebeb"><path d="m3.85875 0h111.259625c2.131128 0 3.85875 1.72762122 3.85875 3.85875s-1.727622 3.85875-3.85875 3.85875h-111.259625c-2.13112878 0-3.85875-1.72762122-3.85875-3.85875s1.72762122-3.85875 3.85875-3.85875z"/><path d="m113.29645 0h80.262819c2.131129 0 3.85875 1.72762122 3.85875 3.85875s-1.727621 3.85875-3.85875 3.85875h-80.262819c-2.131129 0-3.85875-1.72762122-3.85875-3.85875s1.727621-3.85875 3.85875-3.85875z"/></g></g><g transform="matrix(-1 0 0 1 287 64)"><path d="m5.49372146 0h48.63240014c2.4020657 0 4.4342966 1.77561028 4.7565961 4.15595539l3.3287284 24.58434781c.355696 2.6269955-1.485556 5.0449447-4.1125515 5.4006407-.2134644.0289032-.4286324.0434039-.6440446.0434039h-48.63240013c-2.40206573 0-4.43429663-1.7756103-4.75659611-4.1559554l-3.32872841-24.58434779c-.35569601-2.6269955 1.48555601-5.0449447 4.1125515-5.40064072.2134644-.02890315.42863235-.04340389.64404461-.04340389z" fill="#857af9"/><path d="m5.49372146 0h46.78097154c2.4020657 0 4.4342966 1.77561028 4.7565961 4.15595539l3.3287284 24.58434781c.355696 2.6269955-1.485556 5.0449447-4.1125515 5.4006407-.2134644.0289032-.4286323.0434039-.6440446.0434039h-46.78097153c-2.40206573 0-4.43429663-1.7756103-4.75659611-4.1559554l-3.32872841-24.58434779c-.35569601-2.6269955 1.48555601-5.0449447 4.1125515-5.40064072.2134644-.02890315.42863235-.04340389.64404461-.04340389z" fill="#7367f0"/><path d="m25.7142857 21.9130435h8.311839c1.4635884 0 2.740645.9929757 3.101315 2.4114285l2.5070711 9.8598758-13.9202251-.0973913z" fill="#000" fill-opacity=".159856"/><ellipse cx="29.486196" cy="13.689033" fill="#fff" rx="2.952025" ry="3.354667" transform="matrix(.79863551 -.60181502 .60181502 .79863551 -2.300793 20.501721)"/><path d="m34.8902602 21.9130435c1.0225158 0 1.8514286.7848643 1.8514286 1.7530435 0 .0698087-.0044039.1395552-.013188.2088667l-1.9715178 13.9303572c-.188624 1.3327798.799534 2.5579956 2.2071127 2.736596.1132123.014365.2273096.0215714.3415339.0215714h6.845799c.3834434 0 .6942857.2943241.6942857.6573913s-.3108423.6573913-.6942857.6573913h-19.0505483c-1.4201608 0-2.5714286-1.0900893-2.5714286-2.4347826 0-.1071028.0074636-.2140889.0223421-.3202612l2.1953626-15.6659969c.1116623-.8810715.9010454-1.5441767 1.8382405-1.5441767z" fill="#857af9"/></g><g transform="matrix(-1 0 0 1 102.174825 73.032274)"><g transform="matrix(-.96592583 -.25881905 -.25881905 .96592583 31.732463 26.522687)"><path d="m5.77828314 23.7549228c.9333501 1.5645355 1.51834857 2.7515937 1.75499541 3.5611745.35497025 1.2143712.8547026 4.7354655.68858642 5.4131927-.11074412.4518181-.44540495.6582098-1.0039825.619175-.11939046 1.474176-.56585486 2.2112641-1.33939321 2.2112641-1.12868803 0-1.46863397-1.0010292-2.09091979-1.3392747-1.68841621-.9177441-3.76564762-.2972453-3.76564762-2.7057961 0-1.6057006.20714493-4.7447889.62143479-9.4172649l.84104905-21.54453218 8.52326871.81630242z" fill="url(#h)"/><path d="m7.21788247 33.348465c-1.12863594-2.730658-1.84214604-4.2342149-2.1405303-4.5106708s-1.32457043-.6238519-3.07855851-1.0421881c-.04444328 1.3949921.17735592 2.1548712.6653976 2.2796372.39162858.1001183 2.29232496 1.2140421 3.26822215 1.8778924.33074989.2249914.75923958.6901011 1.28546906 1.3953293z" fill="#a46f6f"/></g><path d="m10.1012638 2.065489c-7.11816326-6.1677671-14.05099707 2.79952827-7.4396531 9.5872476 7.390484 7.5888218 11.3196842 10.7371441 17.295613 17.3256704 0 0 .01914.8002204.0574199 2.4006613 2.6688453 3.8624704 6.0900045 4.0917832 9.8817763 2.5312929.3735162-2.1092089.6187751-3.5122969.7357768-4.209264.6732106-4.010246.6938802-5.37027-4.1019917-10.5637233-4.7958719-5.1938142-13.3388565-14.39576971-16.4289412-17.0718849z" fill="#52c686"/><path d="m19.9936606 29.0302048c1.712227 1.4583459 2.5683405 2.3320201 2.5683405 2.6210224 0 .2890024-.8561135.1130416-2.5683405-.5278822z" fill="#000" fill-opacity=".159856"/></g><g transform="translate(61 127.048124)"><path d="m3.16900804 11.17146h32.40931366c.4970563 0 .9.4029437.9.9v41.2899172c0 .4970563-.4029437.9-.9.9h-34.62864754c-.49705627 0-.9-.4029437-.9-.9 0-.0161105.00043258-.032218.00129727-.0483053l2.21933388-41.2899172c.02567083-.4775966.42041667-.8516947.89870273-.8516947z" fill="#8d83fd"/><path d="m20.5887415.53708942c4.4343495 0 8.0291001 3.42969512 8.0291001 7.66043844l-.0006692.09889803-.1225029 4.55016731c-.0103204.3812495-.3426243.6823312-.7422217.6724847-.3729575-.0091901-.672719-.285985-.7026388-.6328202l-.0022094-.0753218.1204956-4.45128581c.0014626-.05402948.0021939-.10807473.0021939-.16212223 0-3.46798999-2.9466592-6.27935135-6.5815476-6.27935135-3.6791169 0-6.6730501 2.79892072-6.7702231 6.28673158l-.0024345.17495485v4.44890156c0 .3813767-.3240456.6905482-.7237762.6905482-.3730819 0-.6802338-.2693233-.7195292-.6153059l-.004247-.0752423v-4.44890156c0-4.33144421 3.6803134-7.84277352 8.22021-7.84277352z" fill="#6055d4"/><path d="m9.03080618 11.17146h30.06871722c.4782861 0 .8730319.3740981.8987028.8516947l2.2193338 41.2899172c.0266783.4963398-.3540576.9203298-.8503974.947008-.0160873.0008647-.0321948.0012973-.0483053.0012973h-31.1783842c-.48763878 0-.88657457-.3883584-.89967514-.8758212l-1.10966694-41.2899172c-.01335357-.4968769.37861951-.9105004.87549638-.9238539.00805777-.0002166.01611809-.0003249.02417878-.0003249z" fill="#7367f0"/><path d="m22.5831471.53708942c4.2698999 0 7.7313377 3.30250351 7.7313377 7.37634804l-.0021487.17389405-.1448992 5.86258189c-.0094235.3812707-.3410183.6830632-.7406378.6740724-.3729782-.0083914-.6733901-.2845437-.7041257-.6313139l-.0023867-.075317.1448993-5.86258189c.0011642-.04710367.0017464-.09421879.0017464-.14133555 0-3.31109119-2.8133465-5.99526095-6.2837853-5.99526095-3.5023914 0-6.3528803 2.6629699-6.4485009 5.98250297l-.0024784.17227522v5.8606795c0 .3813767-.3240456.6905474-.7237762.6905474-.3730819 0-.6802338-.2693226-.7195292-.6153051l-.004247-.0752423v-5.8606795c0-4.16194347 3.5362931-7.53586528 7.8985317-7.53586528z" fill="#6055d4"/><path d="m5.36544604 11.3884856-.09728499 39.5870601-3.73426212 2.7207013c-.40173776.2926973-.96468861.2043025-1.25738591-.1974352-.1222385-.1677768-.18272154-.3726513-.17120277-.5799159l2.26081647-40.6803508c.02650477-.4769176.4209598-.8500595.89861335-.8500595z" fill="#7367f0"/></g><g transform="matrix(-1 0 0 1 117.83186 113.244253)"><path d="m0 1.90217173 18.3405649-1.90217173.2696606.23891319c1.3071663 1.18830509 6.9878362 6.70695806 8.6200957 14.25002111 3.0815778 14.2407103-1.0426901 40.542363-.9514641 46.3097683.0870793 5.7674053 2.9436169 9.2472759 4.1306763 17.4019131 1.1870594 8.1546373 1.2991532 44.5988743 1.2991532 44.5988743-3.1472956 1.779517-5.9166193 1.906908-9.6693236-.106818z" fill="#3c414a"/><path d="m16.3829059 91.6900026-16.3829059-89.78783087 10.1974004-1.05770004c.4543505 31.19208711 6.7959772 73.35529021 6.1855055 90.84553091z" fill="#4b5059"/></g><g transform="matrix(-1 0 0 1 136.695192 115.714936)"><path d="m9.76561558.66583503 20.59482622-.66583503.1538828.27181955c.9993226 1.80835647 6.4750285 12.39634525 4.7842223 24.43109985-2.3732879 16.8924965-9.6930793 36.6958315-9.9884547 39.7210649-.5266226 5.3936652.5266226 9.2991279.9585009 14.8700999.4318783 5.5709721-2.2901989 40.6084438-2.2901989 40.6084438-3.0560697 1.753801-6.6926683 2.097994-11.3161659.053014-2.3536399-31.7276599-3.54073892-50.1020577-3.56129705-55.1231932-.0308372-7.5317033.66468433-64.16651377.66468433-64.16651377z" fill="#42474f"/><path d="m14.003397 18.9371095-.1381723 1.2515966c-1.4214443 13.1977776-2.6222163 41.2250231-2.1154441 45.5474872l.0709407.547867c.5675416 4.7686216.4162721 16.7391432-.4538087 35.9115647l-.7717429-11.0042761c-.93440274-13.6279346-1.43061369-22.2407962-1.48872835-25.8388614l-.0055101-.5201387c-.0308372-7.5317033.66468433-64.16651377.66468433-64.16651377l4.34338342-.14027096c.4642391 7.24150757.4290384 13.37868933-.105602 18.41154543z" fill="#4b5059"/></g><g transform="matrix(-1 0 0 1 129.743374 69.683735)"><path d="m31.41042 2.55387023c2.7052517 3.79160942 7.2139073 16.66019357 7.4696231 19.55521187.2881092 3.3394132-3.4641705 8.6590306-3.5259082 13.4933103-.054878 4.8349382 2.7987754 20.6200683 1.9413074 21.9799358-.538476.8608618-13.7628391 5.1797225-24.5735617 4.06145-9.33440206-.9655602-13.05494595-6.7348589-12.59252909-7.7722749 1.26219282-2.8316854 7.12041385-11.0963859 6.52361616-14.9547219-.58993795-3.8576775-4.01586851-18.098421-5.71708493-22.9452127-1.69435666-4.8467918-1.12937571-9.93539491 2.03296609-12.02096414 1.56474299-1.03195038 5.74015684-3.96372891 13.17582437-3.95056034 7.4356676.01371195 15.055957 2.25979025 15.2657468 2.55382601z" fill="#5fda96" transform="matrix(-1 0 0 1 38.89582 0)"/><path d="m3.26464295 11.5161555.6867637-.2946617c6.19007355-2.61405792 9.88222205-2.98761983 11.07644535-1.1206858 2.9965664 4.6845444.4130361 17.7629523-6.27564123 30.355409-1.38741376 2.6120183-3.65157883 5.6650734-6.7924952 9.1591653l.21700748-1.6437942c.61734411-4.5885947 1.39384059-9.8249863 1.36496307-12.3691957-.06173769-4.8342797-3.81401744-10.1538971-3.52590821-13.4933103.13995656-1.5844811 1.55388755-6.1565586 3.24886504-10.5929266z" fill="#000" fill-opacity=".159856"/></g><path d="m1.84021545 5.121303c-2.53409637.26450814-2.35444028 4.51504224.73034927 4.73696926.63049831 4.09753074 2.87903606 6.04976684 5.62039882 6.27566334l-.15204578 6.1977182 12.12584024-.0068563s-3.4146003-4.3782774-3.2443998-10.3721115c.1702005-5.99419487-.1142234-11.62500681-.1142234-11.62500681l-15.7057242.26883843z" fill="url(#j)" transform="matrix(-1 0 0 1 120.273289 48.705586)"/><g transform="matrix(-1 0 0 1 153 72.160654)"><path d="m26.7858669 32.0696723s-11.6115093 22.4674076-11.8436531 23.1454312c-.4520729 1.3203719-2.5124129 7.0413007-3.2805979 7.9246395-1.1671401 1.3420989-8.7781549 2.2726454-8.51941068 1.0460521.16529468-.7835898 1.3247362-2.9127044 3.47832456-6.3873438-2.61117456 1.343598-3.99906851 1.6121169-4.16368186.8055566-.10980982-.538038 1.76981546-.8683344 3.00268774-2.2245779 1.3986356-1.5385945 3.21835811-2.6582554 3.27526524-2.7602253 2.0822042-3.7310302 10.0272987-24.8834308 10.0272987-24.8834308z" fill="url(#k)" transform="matrix(.99254615 .12186934 -.12186934 .99254615 5.805989 -1.43317)"/><path d="m26.423394 4.42741743c-2.2995979 7.82734827-4.135602 18.39092017-5.9802513 22.03325557-.3019069.5961275-1.1251267 2.2218351-2.4696594 4.8771227 1.5773583 5.1081271 6.313146 6.6415016 10.4210827 4.6085964 2.0794673-3.4421305 3.3331583-5.5690991 3.7610729-6.3809058 2.2542111-4.2743507 5.2702721-18.6527476 6.128839-21.94159795 1.9667614-7.53758011-9.561486-11.02381917-11.8610839-3.19647092z" fill="#52c686"/></g><path d="m32.1140507 30.0837243c6.205234-9.4261421 7.5271924-21.42799146 11.9267946-25.45642001 3.4923956-3.19775876 9.0358288-2.31067847 9.0358288-2.31067847s4.8011347-3.84207692 9.5091963 0 4.7844014 17.20346468 1.5105485 25.60123408c-3.273853 8.3977695-6.7090403 18.1183764-19.5872842 18.1183764-7.2159837 0-19.4037023-5.3059784-12.395084-15.952512z" fill="#33373e" transform="translate(56.621432 40.5)"/><g transform="translate(117 142.5)"><path d="m43.9725 1.08137144c4.0475569 0 7.32875 3.14695214 7.32875 7.02891433v54.06857183h-25.36875v-54.06857183c0-3.88196219 3.2811931-7.02891433 7.32875-7.02891433zm0 2.97377145h-10.71125c-2.2893421 0-4.1537199 1.74504932-4.2259526 3.92390167l-.0021724.13124121v51.09480033h19.1675v-51.09480033c0-2.19567997-1.8194887-3.98378184-4.0912854-4.05305931z" fill="#9fe1e9"/><path d="m31.115 0h14.44c.9941125 0 1.8.80588745 1.8 1.8v2.3475429c0 .99411255-.8058875 1.8-1.8 1.8h-14.44c-.9941125 0-1.8-.80588745-1.8-1.8v-2.3475429c0-.99411255.8058875-1.8 1.8-1.8z" fill="#6aaab2"/><path d="m46.2275 25.7694846c1.2843209 0 2.3326209.969183 2.3931746 2.1865783l.0027629.111336v5.6104028h-2.536875v-5.4756346h-20.6349413l.0001937 5.0500046h-2.536875v-5.1847728c0-1.2317764 1.0105258-2.2371881 2.2798521-2.2952644l.1160854-.0026499z" fill="#6aaab2"/><path d="m26.49625 31.3597717h30.4425c1.8681032 0 3.3825 1.4524394 3.3825 3.2441143v69.207772c0 1.791675-1.5143968 3.244114-3.3825 3.244114h-30.4425c-1.8681032 0-3.3825-1.452439-3.3825-3.244114v-69.207772c0-1.7916749 1.5143968-3.2441143 3.3825-3.2441143z" fill="#9fe1e9"/><path d="m9.02 31.3597717h36.08c1.8681032 0 3.3825 1.4524394 3.3825 3.2441143v69.207772c0 1.791675-1.5143968 3.244114-3.3825 3.244114h-36.08c-1.86810317 0-3.3825-1.452439-3.3825-3.244114v-69.207772c0-1.7916749 1.51439683-3.2441143 3.3825-3.2441143z" fill="#bcf8ff"/><path d="m50.1419183 30.8190859c2.5983616 0 4.7136949 1.9834802 4.7897572 4.4578671l.0021178.1379615v18.6536573c0 .1493063-.1261998.2703429-.281875.2703429-.1383781 0-.2534668-.0956339-.2773337-.2217484l-.0045413-.0485945v-18.6536573c0-2.1956799-1.8194887-3.9837818-4.0912854-4.0530593l-.1368396-.0020835h-28.4375433c-.1556753 0-.281875-.1210367-.281875-.2703429 0-.1327167.0997134-.2430968.2312076-.2659873l.0506674-.0043556z" fill="#6aaab2"/></g></g></svg>